G04 #@! TF.GenerationSoftware,KiCad,Pcbnew,9.0.5-9.0.5~ubuntu25.04.1*
G04 #@! TF.CreationDate,2025-12-03T04:07:12-06:00*
G04 #@! TF.ProjectId,Signal_Board,5369676e-616c-45f4-926f-6172642e6b69,rev?*
G04 #@! TF.SameCoordinates,Original*
G04 #@! TF.FileFunction,Soldermask,Top*
G04 #@! TF.FilePolarity,Negative*
%FSLAX46Y46*%
G04 Gerber Fmt 4.6, Leading zero omitted, Abs format (unit mm)*
G04 Created by KiCad (PCBNEW 9.0.5-9.0.5~ubuntu25.04.1) date 2025-12-03 04:07:12*
%MOMM*%
%LPD*%
G01*
G04 APERTURE LIST*
G04 Aperture macros list*
%AMRoundRect*
0 Rectangle with rounded corners*
0 $1 Rounding radius*
0 $2 $3 $4 $5 $6 $7 $8 $9 X,Y pos of 4 corners*
0 Add a 4 corners polygon primitive as box body*
4,1,4,$2,$3,$4,$5,$6,$7,$8,$9,$2,$3,0*
0 Add four circle primitives for the rounded corners*
1,1,$1+$1,$2,$3*
1,1,$1+$1,$4,$5*
1,1,$1+$1,$6,$7*
1,1,$1+$1,$8,$9*
0 Add four rect primitives between the rounded corners*
20,1,$1+$1,$2,$3,$4,$5,0*
20,1,$1+$1,$4,$5,$6,$7,0*
20,1,$1+$1,$6,$7,$8,$9,0*
20,1,$1+$1,$8,$9,$2,$3,0*%
G04 Aperture macros list end*
%ADD10C,2.000000*%
%ADD11C,1.600000*%
%ADD12O,1.600000X1.600000*%
%ADD13R,1.600000X2.400000*%
%ADD14O,1.600000X2.400000*%
%ADD15R,3.000000X3.000000*%
%ADD16C,3.000000*%
%ADD17RoundRect,0.262500X-0.262500X-0.487500X0.262500X-0.487500X0.262500X0.487500X-0.262500X0.487500X0*%
%ADD18R,1.050000X1.500000*%
%ADD19C,1.400000*%
%ADD20O,1.400000X1.400000*%
%ADD21R,2.400000X1.600000*%
%ADD22O,2.400000X1.600000*%
%ADD23O,3.240000X2.720000*%
%ADD24R,1.800000X1.800000*%
%ADD25C,1.800000*%
G04 APERTURE END LIST*
D10*
X160000000Y-64000000D03*
X160000000Y-59500000D03*
D11*
X156250000Y-74500000D03*
D12*
X148750000Y-74500000D03*
D13*
X156540000Y-62675000D03*
D14*
X154000000Y-62675000D03*
X151460000Y-62675000D03*
X148920000Y-62675000D03*
X146380000Y-62675000D03*
X143840000Y-62675000D03*
X141300000Y-62675000D03*
X141300000Y-70295000D03*
X143840000Y-70295000D03*
X146380000Y-70295000D03*
X148920000Y-70295000D03*
X151460000Y-70295000D03*
X154000000Y-70295000D03*
X156540000Y-70295000D03*
D15*
X158500000Y-80500000D03*
D16*
X153420000Y-80500000D03*
X148340000Y-80500000D03*
X143260000Y-80500000D03*
X138180000Y-80500000D03*
X133100000Y-80500000D03*
D17*
X119340000Y-73450000D03*
D18*
X116800000Y-73450000D03*
D17*
X118070000Y-73450000D03*
D11*
X124750000Y-73000000D03*
D12*
X124750000Y-80500000D03*
D11*
X141360000Y-51750000D03*
D12*
X141360000Y-59250000D03*
D19*
X118440000Y-66750000D03*
D20*
X126060000Y-66750000D03*
D19*
X111000000Y-59560000D03*
D20*
X111000000Y-51940000D03*
D19*
X124850000Y-60000000D03*
D20*
X117230000Y-60000000D03*
D21*
X136360000Y-70200000D03*
D22*
X136360000Y-67660000D03*
X136360000Y-65120000D03*
X136360000Y-62580000D03*
X136360000Y-60040000D03*
X136360000Y-57500000D03*
X136360000Y-54960000D03*
X136360000Y-52420000D03*
X128740000Y-52420000D03*
X128740000Y-54960000D03*
X128740000Y-57500000D03*
X128740000Y-60040000D03*
X128740000Y-62580000D03*
X128740000Y-65120000D03*
X128740000Y-67660000D03*
X128740000Y-70200000D03*
D19*
X124860000Y-57500000D03*
D20*
X117240000Y-57500000D03*
D19*
X126060000Y-69250000D03*
D20*
X118440000Y-69250000D03*
D11*
X112750000Y-74000000D03*
D12*
X112750000Y-66500000D03*
D11*
X128610000Y-74000000D03*
D12*
X136110000Y-74000000D03*
D10*
X115500000Y-63500000D03*
D23*
X117725000Y-54300000D03*
X117725000Y-44700000D03*
D24*
X125225000Y-52000000D03*
D25*
X125225000Y-49500000D03*
X125225000Y-47000000D03*
D19*
X127920000Y-47000000D03*
D20*
X135540000Y-47000000D03*
D15*
X114420000Y-80500000D03*
D16*
X119500000Y-80500000D03*
D10*
X160000000Y-68500000D03*
M02*
