%TF.GenerationSoftware,KiCad,Pcbnew,9.0.5-9.0.5~ubuntu25.04.1*%
%TF.CreationDate,2025-11-06T11:15:48-06:00*%
%TF.ProjectId,Signal_Board,5369676e-616c-45f4-926f-6172642e6b69,rev?*%
%TF.SameCoordinates,Original*%
%TF.FileFunction,Drillmap*%
%TF.FilePolarity,Positive*%
%FSLAX45Y45*%
G04 Gerber Fmt 4.5, Leading zero omitted, Abs format (unit mm)*
G04 Created by KiCad (PCBNEW 9.0.5-9.0.5~ubuntu25.04.1) date 2025-11-06 11:15:48*
%MOMM*%
%LPD*%
G01*
G04 APERTURE LIST*
%ADD10C,0.050000*%
%ADD11C,0.200000*%
%ADD12C,0.100000*%
%ADD13C,0.110000*%
%ADD14C,0.152000*%
G04 APERTURE END LIST*
D10*
X10850000Y-4200000D02*
X16250000Y-4200000D01*
X16250000Y-8550000D01*
X10850000Y-8550000D01*
X10850000Y-4200000D01*
D11*
D12*
X11451000Y-5707000D02*
X11521000Y-5777000D01*
X11521000Y-5707000D02*
X11451000Y-5777000D01*
X11451000Y-6215000D02*
X11521000Y-6285000D01*
X11521000Y-6215000D02*
X11451000Y-6285000D01*
X11865000Y-6916000D02*
X11935000Y-6986000D01*
X11935000Y-6916000D02*
X11865000Y-6986000D01*
X11865000Y-7424000D02*
X11935000Y-7494000D01*
X11935000Y-7424000D02*
X11865000Y-7494000D01*
X11942000Y-5965000D02*
X12012000Y-6035000D01*
X12012000Y-5965000D02*
X11942000Y-6035000D01*
X11943000Y-5715000D02*
X12013000Y-5785000D01*
X12013000Y-5715000D02*
X11943000Y-5785000D01*
X12115000Y-6916000D02*
X12185000Y-6986000D01*
X12185000Y-6916000D02*
X12115000Y-6986000D01*
X12115000Y-7424000D02*
X12185000Y-7494000D01*
X12185000Y-7424000D02*
X12115000Y-7494000D01*
X12450000Y-5965000D02*
X12520000Y-6035000D01*
X12520000Y-5965000D02*
X12450000Y-6035000D01*
X12451000Y-5715000D02*
X12521000Y-5785000D01*
X12521000Y-5715000D02*
X12451000Y-5785000D01*
X12757000Y-4665000D02*
X12827000Y-4735000D01*
X12827000Y-4665000D02*
X12757000Y-4735000D01*
X13265000Y-4665000D02*
X13335000Y-4735000D01*
X13335000Y-4665000D02*
X13265000Y-4735000D01*
X11412500Y-7125000D02*
G75*
G02*
X11337500Y-7125000I-37500J0D01*
G01*
X11337500Y-7125000D02*
G75*
G02*
X11412500Y-7125000I37500J0D01*
G01*
X11539500Y-7125000D02*
G75*
G02*
X11464500Y-7125000I-37500J0D01*
G01*
X11464500Y-7125000D02*
G75*
G02*
X11539500Y-7125000I37500J0D01*
G01*
X11666500Y-7125000D02*
G75*
G02*
X11591500Y-7125000I-37500J0D01*
G01*
X11591500Y-7125000D02*
G75*
G02*
X11666500Y-7125000I37500J0D01*
G01*
X11050000Y-6635000D02*
X11050000Y-6715000D01*
X11010000Y-6675000D02*
X11090000Y-6675000D01*
X11050000Y-7385000D02*
X11050000Y-7465000D01*
X11010000Y-7425000D02*
X11090000Y-7425000D01*
X11525000Y-6560000D02*
X11525000Y-6640000D01*
X11485000Y-6600000D02*
X11565000Y-6600000D01*
X12275000Y-6560000D02*
X12275000Y-6640000D01*
X12235000Y-6600000D02*
X12315000Y-6600000D01*
X12861000Y-7360000D02*
X12861000Y-7440000D01*
X12821000Y-7400000D02*
X12901000Y-7400000D01*
X12874000Y-5202000D02*
X12874000Y-5282000D01*
X12834000Y-5242000D02*
X12914000Y-5242000D01*
X12874000Y-5456000D02*
X12874000Y-5536000D01*
X12834000Y-5496000D02*
X12914000Y-5496000D01*
X12874000Y-5710000D02*
X12874000Y-5790000D01*
X12834000Y-5750000D02*
X12914000Y-5750000D01*
X12874000Y-5964000D02*
X12874000Y-6044000D01*
X12834000Y-6004000D02*
X12914000Y-6004000D01*
X12874000Y-6218000D02*
X12874000Y-6298000D01*
X12834000Y-6258000D02*
X12914000Y-6258000D01*
X12874000Y-6472000D02*
X12874000Y-6552000D01*
X12834000Y-6512000D02*
X12914000Y-6512000D01*
X12874000Y-6726000D02*
X12874000Y-6806000D01*
X12834000Y-6766000D02*
X12914000Y-6766000D01*
X12874000Y-6980000D02*
X12874000Y-7060000D01*
X12834000Y-7020000D02*
X12914000Y-7020000D01*
X13611000Y-7360000D02*
X13611000Y-7440000D01*
X13571000Y-7400000D02*
X13651000Y-7400000D01*
X13636000Y-5202000D02*
X13636000Y-5282000D01*
X13596000Y-5242000D02*
X13676000Y-5242000D01*
X13636000Y-5456000D02*
X13636000Y-5536000D01*
X13596000Y-5496000D02*
X13676000Y-5496000D01*
X13636000Y-5710000D02*
X13636000Y-5790000D01*
X13596000Y-5750000D02*
X13676000Y-5750000D01*
X13636000Y-5964000D02*
X13636000Y-6044000D01*
X13596000Y-6004000D02*
X13676000Y-6004000D01*
X13636000Y-6218000D02*
X13636000Y-6298000D01*
X13596000Y-6258000D02*
X13676000Y-6258000D01*
X13636000Y-6472000D02*
X13636000Y-6552000D01*
X13596000Y-6512000D02*
X13676000Y-6512000D01*
X13636000Y-6726000D02*
X13636000Y-6806000D01*
X13596000Y-6766000D02*
X13676000Y-6766000D01*
X13636000Y-6980000D02*
X13636000Y-7060000D01*
X13596000Y-7020000D02*
X13676000Y-7020000D01*
X14130000Y-6227500D02*
X14130000Y-6307500D01*
X14090000Y-6267500D02*
X14170000Y-6267500D01*
X14130000Y-6989500D02*
X14130000Y-7069500D01*
X14090000Y-7029500D02*
X14170000Y-7029500D01*
X14136000Y-5135000D02*
X14136000Y-5215000D01*
X14096000Y-5175000D02*
X14176000Y-5175000D01*
X14136000Y-5885000D02*
X14136000Y-5965000D01*
X14096000Y-5925000D02*
X14176000Y-5925000D01*
X14384000Y-6227500D02*
X14384000Y-6307500D01*
X14344000Y-6267500D02*
X14424000Y-6267500D01*
X14384000Y-6989500D02*
X14384000Y-7069500D01*
X14344000Y-7029500D02*
X14424000Y-7029500D01*
X14638000Y-6227500D02*
X14638000Y-6307500D01*
X14598000Y-6267500D02*
X14678000Y-6267500D01*
X14638000Y-6989500D02*
X14638000Y-7069500D01*
X14598000Y-7029500D02*
X14678000Y-7029500D01*
X14875000Y-7410000D02*
X14875000Y-7490000D01*
X14835000Y-7450000D02*
X14915000Y-7450000D01*
X14892000Y-6227500D02*
X14892000Y-6307500D01*
X14852000Y-6267500D02*
X14932000Y-6267500D01*
X14892000Y-6989500D02*
X14892000Y-7069500D01*
X14852000Y-7029500D02*
X14932000Y-7029500D01*
X15146000Y-6227500D02*
X15146000Y-6307500D01*
X15106000Y-6267500D02*
X15186000Y-6267500D01*
X15146000Y-6989500D02*
X15146000Y-7069500D01*
X15106000Y-7029500D02*
X15186000Y-7029500D01*
X15400000Y-6227500D02*
X15400000Y-6307500D01*
X15360000Y-6267500D02*
X15440000Y-6267500D01*
X15400000Y-6989500D02*
X15400000Y-7069500D01*
X15360000Y-7029500D02*
X15440000Y-7029500D01*
X15625000Y-7410000D02*
X15625000Y-7490000D01*
X15585000Y-7450000D02*
X15665000Y-7450000D01*
X15654000Y-6227500D02*
X15654000Y-6307500D01*
X15614000Y-6267500D02*
X15694000Y-6267500D01*
X15654000Y-6989500D02*
X15654000Y-7069500D01*
X15614000Y-7029500D02*
X15694000Y-7029500D01*
X12557856Y-4735356D02*
X12557856Y-4664644D01*
X12487144Y-4664644D01*
X12487144Y-4735356D01*
X12557856Y-4735356D01*
X12557856Y-4985356D02*
X12557856Y-4914644D01*
X12487144Y-4914644D01*
X12487144Y-4985356D01*
X12557856Y-4985356D01*
X12557856Y-5235356D02*
X12557856Y-5164644D01*
X12487144Y-5164644D01*
X12487144Y-5235356D01*
X12557856Y-5235356D01*
D13*
X11772500Y-4525000D02*
X11827500Y-4470000D01*
X11772500Y-4415000D01*
X11717500Y-4470000D01*
X11772500Y-4525000D01*
D12*
X11807500Y-4415000D02*
X11737500Y-4415000D01*
X11737500Y-4525000D02*
G75*
G02*
X11737500Y-4415000I0J55000D01*
G01*
X11737500Y-4525000D02*
X11807500Y-4525000D01*
X11807500Y-4525000D02*
G75*
G03*
X11807500Y-4415000I0J55000D01*
G01*
D13*
X11772500Y-5485000D02*
X11827500Y-5430000D01*
X11772500Y-5375000D01*
X11717500Y-5430000D01*
X11772500Y-5485000D01*
D12*
X11807500Y-5375000D02*
X11737500Y-5375000D01*
X11737500Y-5485000D02*
G75*
G02*
X11737500Y-5375000I0J55000D01*
G01*
X11737500Y-5485000D02*
X11807500Y-5485000D01*
X11807500Y-5485000D02*
G75*
G03*
X11807500Y-5375000I0J55000D01*
G01*
D14*
X11220000Y-7974000D02*
X11372000Y-8126000D01*
X11372000Y-7974000D02*
X11220000Y-8126000D01*
X11372000Y-8050000D02*
G75*
G02*
X11220000Y-8050000I-76000J0D01*
G01*
X11220000Y-8050000D02*
G75*
G02*
X11372000Y-8050000I76000J0D01*
G01*
X11728000Y-7974000D02*
X11880000Y-8126000D01*
X11880000Y-7974000D02*
X11728000Y-8126000D01*
X11880000Y-8050000D02*
G75*
G02*
X11728000Y-8050000I-76000J0D01*
G01*
X11728000Y-8050000D02*
G75*
G02*
X11880000Y-8050000I76000J0D01*
G01*
X13234000Y-7974000D02*
X13386000Y-8126000D01*
X13386000Y-7974000D02*
X13234000Y-8126000D01*
X13386000Y-8050000D02*
G75*
G02*
X13234000Y-8050000I-76000J0D01*
G01*
X13234000Y-8050000D02*
G75*
G02*
X13386000Y-8050000I76000J0D01*
G01*
X13742000Y-7974000D02*
X13894000Y-8126000D01*
X13894000Y-7974000D02*
X13742000Y-8126000D01*
X13894000Y-8050000D02*
G75*
G02*
X13742000Y-8050000I-76000J0D01*
G01*
X13742000Y-8050000D02*
G75*
G02*
X13894000Y-8050000I76000J0D01*
G01*
X14250000Y-7974000D02*
X14402000Y-8126000D01*
X14402000Y-7974000D02*
X14250000Y-8126000D01*
X14402000Y-8050000D02*
G75*
G02*
X14250000Y-8050000I-76000J0D01*
G01*
X14250000Y-8050000D02*
G75*
G02*
X14402000Y-8050000I76000J0D01*
G01*
X14758000Y-7974000D02*
X14910000Y-8126000D01*
X14910000Y-7974000D02*
X14758000Y-8126000D01*
X14910000Y-8050000D02*
G75*
G02*
X14758000Y-8050000I-76000J0D01*
G01*
X14758000Y-8050000D02*
G75*
G02*
X14910000Y-8050000I76000J0D01*
G01*
X15266000Y-7974000D02*
X15418000Y-8126000D01*
X15418000Y-7974000D02*
X15266000Y-8126000D01*
X15418000Y-8050000D02*
G75*
G02*
X15266000Y-8050000I-76000J0D01*
G01*
X15266000Y-8050000D02*
G75*
G02*
X15418000Y-8050000I76000J0D01*
G01*
X15774000Y-7974000D02*
X15926000Y-8126000D01*
X15926000Y-7974000D02*
X15774000Y-8126000D01*
X15926000Y-8050000D02*
G75*
G02*
X15774000Y-8050000I-76000J0D01*
G01*
X15774000Y-8050000D02*
G75*
G02*
X15926000Y-8050000I76000J0D01*
G01*
D11*
X11108277Y-8863984D02*
X11108277Y-8663984D01*
X11108277Y-8663984D02*
X11155896Y-8663984D01*
X11155896Y-8663984D02*
X11184467Y-8673508D01*
X11184467Y-8673508D02*
X11203515Y-8692555D01*
X11203515Y-8692555D02*
X11213039Y-8711603D01*
X11213039Y-8711603D02*
X11222562Y-8749698D01*
X11222562Y-8749698D02*
X11222562Y-8778270D01*
X11222562Y-8778270D02*
X11213039Y-8816365D01*
X11213039Y-8816365D02*
X11203515Y-8835412D01*
X11203515Y-8835412D02*
X11184467Y-8854460D01*
X11184467Y-8854460D02*
X11155896Y-8863984D01*
X11155896Y-8863984D02*
X11108277Y-8863984D01*
X11308277Y-8863984D02*
X11308277Y-8730650D01*
X11308277Y-8768746D02*
X11317801Y-8749698D01*
X11317801Y-8749698D02*
X11327324Y-8740174D01*
X11327324Y-8740174D02*
X11346372Y-8730650D01*
X11346372Y-8730650D02*
X11365420Y-8730650D01*
X11432086Y-8863984D02*
X11432086Y-8730650D01*
X11432086Y-8663984D02*
X11422562Y-8673508D01*
X11422562Y-8673508D02*
X11432086Y-8683031D01*
X11432086Y-8683031D02*
X11441610Y-8673508D01*
X11441610Y-8673508D02*
X11432086Y-8663984D01*
X11432086Y-8663984D02*
X11432086Y-8683031D01*
X11555896Y-8863984D02*
X11536848Y-8854460D01*
X11536848Y-8854460D02*
X11527324Y-8835412D01*
X11527324Y-8835412D02*
X11527324Y-8663984D01*
X11660658Y-8863984D02*
X11641610Y-8854460D01*
X11641610Y-8854460D02*
X11632086Y-8835412D01*
X11632086Y-8835412D02*
X11632086Y-8663984D01*
X11889229Y-8863984D02*
X11889229Y-8663984D01*
X11889229Y-8663984D02*
X11955896Y-8806841D01*
X11955896Y-8806841D02*
X12022562Y-8663984D01*
X12022562Y-8663984D02*
X12022562Y-8863984D01*
X12203515Y-8863984D02*
X12203515Y-8759222D01*
X12203515Y-8759222D02*
X12193991Y-8740174D01*
X12193991Y-8740174D02*
X12174943Y-8730650D01*
X12174943Y-8730650D02*
X12136848Y-8730650D01*
X12136848Y-8730650D02*
X12117801Y-8740174D01*
X12203515Y-8854460D02*
X12184467Y-8863984D01*
X12184467Y-8863984D02*
X12136848Y-8863984D01*
X12136848Y-8863984D02*
X12117801Y-8854460D01*
X12117801Y-8854460D02*
X12108277Y-8835412D01*
X12108277Y-8835412D02*
X12108277Y-8816365D01*
X12108277Y-8816365D02*
X12117801Y-8797317D01*
X12117801Y-8797317D02*
X12136848Y-8787793D01*
X12136848Y-8787793D02*
X12184467Y-8787793D01*
X12184467Y-8787793D02*
X12203515Y-8778270D01*
X12298753Y-8730650D02*
X12298753Y-8930650D01*
X12298753Y-8740174D02*
X12317801Y-8730650D01*
X12317801Y-8730650D02*
X12355896Y-8730650D01*
X12355896Y-8730650D02*
X12374943Y-8740174D01*
X12374943Y-8740174D02*
X12384467Y-8749698D01*
X12384467Y-8749698D02*
X12393991Y-8768746D01*
X12393991Y-8768746D02*
X12393991Y-8825889D01*
X12393991Y-8825889D02*
X12384467Y-8844936D01*
X12384467Y-8844936D02*
X12374943Y-8854460D01*
X12374943Y-8854460D02*
X12355896Y-8863984D01*
X12355896Y-8863984D02*
X12317801Y-8863984D01*
X12317801Y-8863984D02*
X12298753Y-8854460D01*
X12479705Y-8844936D02*
X12489229Y-8854460D01*
X12489229Y-8854460D02*
X12479705Y-8863984D01*
X12479705Y-8863984D02*
X12470182Y-8854460D01*
X12470182Y-8854460D02*
X12479705Y-8844936D01*
X12479705Y-8844936D02*
X12479705Y-8863984D01*
X12479705Y-8740174D02*
X12489229Y-8749698D01*
X12489229Y-8749698D02*
X12479705Y-8759222D01*
X12479705Y-8759222D02*
X12470182Y-8749698D01*
X12470182Y-8749698D02*
X12479705Y-8740174D01*
X12479705Y-8740174D02*
X12479705Y-8759222D01*
D12*
X10777500Y-9157500D02*
X10847500Y-9227500D01*
X10847500Y-9157500D02*
X10777500Y-9227500D01*
D11*
X11146372Y-9083984D02*
X11165420Y-9083984D01*
X11165420Y-9083984D02*
X11184467Y-9093508D01*
X11184467Y-9093508D02*
X11193991Y-9103031D01*
X11193991Y-9103031D02*
X11203515Y-9122079D01*
X11203515Y-9122079D02*
X11213039Y-9160174D01*
X11213039Y-9160174D02*
X11213039Y-9207793D01*
X11213039Y-9207793D02*
X11203515Y-9245889D01*
X11203515Y-9245889D02*
X11193991Y-9264936D01*
X11193991Y-9264936D02*
X11184467Y-9274460D01*
X11184467Y-9274460D02*
X11165420Y-9283984D01*
X11165420Y-9283984D02*
X11146372Y-9283984D01*
X11146372Y-9283984D02*
X11127324Y-9274460D01*
X11127324Y-9274460D02*
X11117801Y-9264936D01*
X11117801Y-9264936D02*
X11108277Y-9245889D01*
X11108277Y-9245889D02*
X11098753Y-9207793D01*
X11098753Y-9207793D02*
X11098753Y-9160174D01*
X11098753Y-9160174D02*
X11108277Y-9122079D01*
X11108277Y-9122079D02*
X11117801Y-9103031D01*
X11117801Y-9103031D02*
X11127324Y-9093508D01*
X11127324Y-9093508D02*
X11146372Y-9083984D01*
X11298753Y-9264936D02*
X11308277Y-9274460D01*
X11308277Y-9274460D02*
X11298753Y-9283984D01*
X11298753Y-9283984D02*
X11289229Y-9274460D01*
X11289229Y-9274460D02*
X11298753Y-9264936D01*
X11298753Y-9264936D02*
X11298753Y-9283984D01*
X11374943Y-9083984D02*
X11508277Y-9083984D01*
X11508277Y-9083984D02*
X11422562Y-9283984D01*
X11622562Y-9083984D02*
X11641610Y-9083984D01*
X11641610Y-9083984D02*
X11660658Y-9093508D01*
X11660658Y-9093508D02*
X11670182Y-9103031D01*
X11670182Y-9103031D02*
X11679705Y-9122079D01*
X11679705Y-9122079D02*
X11689229Y-9160174D01*
X11689229Y-9160174D02*
X11689229Y-9207793D01*
X11689229Y-9207793D02*
X11679705Y-9245889D01*
X11679705Y-9245889D02*
X11670182Y-9264936D01*
X11670182Y-9264936D02*
X11660658Y-9274460D01*
X11660658Y-9274460D02*
X11641610Y-9283984D01*
X11641610Y-9283984D02*
X11622562Y-9283984D01*
X11622562Y-9283984D02*
X11603515Y-9274460D01*
X11603515Y-9274460D02*
X11593991Y-9264936D01*
X11593991Y-9264936D02*
X11584467Y-9245889D01*
X11584467Y-9245889D02*
X11574943Y-9207793D01*
X11574943Y-9207793D02*
X11574943Y-9160174D01*
X11574943Y-9160174D02*
X11584467Y-9122079D01*
X11584467Y-9122079D02*
X11593991Y-9103031D01*
X11593991Y-9103031D02*
X11603515Y-9093508D01*
X11603515Y-9093508D02*
X11622562Y-9083984D01*
X11813039Y-9083984D02*
X11832086Y-9083984D01*
X11832086Y-9083984D02*
X11851134Y-9093508D01*
X11851134Y-9093508D02*
X11860658Y-9103031D01*
X11860658Y-9103031D02*
X11870182Y-9122079D01*
X11870182Y-9122079D02*
X11879705Y-9160174D01*
X11879705Y-9160174D02*
X11879705Y-9207793D01*
X11879705Y-9207793D02*
X11870182Y-9245889D01*
X11870182Y-9245889D02*
X11860658Y-9264936D01*
X11860658Y-9264936D02*
X11851134Y-9274460D01*
X11851134Y-9274460D02*
X11832086Y-9283984D01*
X11832086Y-9283984D02*
X11813039Y-9283984D01*
X11813039Y-9283984D02*
X11793991Y-9274460D01*
X11793991Y-9274460D02*
X11784467Y-9264936D01*
X11784467Y-9264936D02*
X11774943Y-9245889D01*
X11774943Y-9245889D02*
X11765420Y-9207793D01*
X11765420Y-9207793D02*
X11765420Y-9160174D01*
X11765420Y-9160174D02*
X11774943Y-9122079D01*
X11774943Y-9122079D02*
X11784467Y-9103031D01*
X11784467Y-9103031D02*
X11793991Y-9093508D01*
X11793991Y-9093508D02*
X11813039Y-9083984D01*
X11965420Y-9283984D02*
X11965420Y-9150650D01*
X11965420Y-9169698D02*
X11974943Y-9160174D01*
X11974943Y-9160174D02*
X11993991Y-9150650D01*
X11993991Y-9150650D02*
X12022563Y-9150650D01*
X12022563Y-9150650D02*
X12041610Y-9160174D01*
X12041610Y-9160174D02*
X12051134Y-9179222D01*
X12051134Y-9179222D02*
X12051134Y-9283984D01*
X12051134Y-9179222D02*
X12060658Y-9160174D01*
X12060658Y-9160174D02*
X12079705Y-9150650D01*
X12079705Y-9150650D02*
X12108277Y-9150650D01*
X12108277Y-9150650D02*
X12127324Y-9160174D01*
X12127324Y-9160174D02*
X12136848Y-9179222D01*
X12136848Y-9179222D02*
X12136848Y-9283984D01*
X12232086Y-9283984D02*
X12232086Y-9150650D01*
X12232086Y-9169698D02*
X12241610Y-9160174D01*
X12241610Y-9160174D02*
X12260658Y-9150650D01*
X12260658Y-9150650D02*
X12289229Y-9150650D01*
X12289229Y-9150650D02*
X12308277Y-9160174D01*
X12308277Y-9160174D02*
X12317801Y-9179222D01*
X12317801Y-9179222D02*
X12317801Y-9283984D01*
X12317801Y-9179222D02*
X12327324Y-9160174D01*
X12327324Y-9160174D02*
X12346372Y-9150650D01*
X12346372Y-9150650D02*
X12374943Y-9150650D01*
X12374943Y-9150650D02*
X12393991Y-9160174D01*
X12393991Y-9160174D02*
X12403515Y-9179222D01*
X12403515Y-9179222D02*
X12403515Y-9283984D01*
X12793991Y-9074460D02*
X12622563Y-9331603D01*
X13051134Y-9083984D02*
X13070182Y-9083984D01*
X13070182Y-9083984D02*
X13089229Y-9093508D01*
X13089229Y-9093508D02*
X13098753Y-9103031D01*
X13098753Y-9103031D02*
X13108277Y-9122079D01*
X13108277Y-9122079D02*
X13117801Y-9160174D01*
X13117801Y-9160174D02*
X13117801Y-9207793D01*
X13117801Y-9207793D02*
X13108277Y-9245889D01*
X13108277Y-9245889D02*
X13098753Y-9264936D01*
X13098753Y-9264936D02*
X13089229Y-9274460D01*
X13089229Y-9274460D02*
X13070182Y-9283984D01*
X13070182Y-9283984D02*
X13051134Y-9283984D01*
X13051134Y-9283984D02*
X13032086Y-9274460D01*
X13032086Y-9274460D02*
X13022563Y-9264936D01*
X13022563Y-9264936D02*
X13013039Y-9245889D01*
X13013039Y-9245889D02*
X13003515Y-9207793D01*
X13003515Y-9207793D02*
X13003515Y-9160174D01*
X13003515Y-9160174D02*
X13013039Y-9122079D01*
X13013039Y-9122079D02*
X13022563Y-9103031D01*
X13022563Y-9103031D02*
X13032086Y-9093508D01*
X13032086Y-9093508D02*
X13051134Y-9083984D01*
X13203515Y-9264936D02*
X13213039Y-9274460D01*
X13213039Y-9274460D02*
X13203515Y-9283984D01*
X13203515Y-9283984D02*
X13193991Y-9274460D01*
X13193991Y-9274460D02*
X13203515Y-9264936D01*
X13203515Y-9264936D02*
X13203515Y-9283984D01*
X13336848Y-9083984D02*
X13355896Y-9083984D01*
X13355896Y-9083984D02*
X13374944Y-9093508D01*
X13374944Y-9093508D02*
X13384467Y-9103031D01*
X13384467Y-9103031D02*
X13393991Y-9122079D01*
X13393991Y-9122079D02*
X13403515Y-9160174D01*
X13403515Y-9160174D02*
X13403515Y-9207793D01*
X13403515Y-9207793D02*
X13393991Y-9245889D01*
X13393991Y-9245889D02*
X13384467Y-9264936D01*
X13384467Y-9264936D02*
X13374944Y-9274460D01*
X13374944Y-9274460D02*
X13355896Y-9283984D01*
X13355896Y-9283984D02*
X13336848Y-9283984D01*
X13336848Y-9283984D02*
X13317801Y-9274460D01*
X13317801Y-9274460D02*
X13308277Y-9264936D01*
X13308277Y-9264936D02*
X13298753Y-9245889D01*
X13298753Y-9245889D02*
X13289229Y-9207793D01*
X13289229Y-9207793D02*
X13289229Y-9160174D01*
X13289229Y-9160174D02*
X13298753Y-9122079D01*
X13298753Y-9122079D02*
X13308277Y-9103031D01*
X13308277Y-9103031D02*
X13317801Y-9093508D01*
X13317801Y-9093508D02*
X13336848Y-9083984D01*
X13479706Y-9103031D02*
X13489229Y-9093508D01*
X13489229Y-9093508D02*
X13508277Y-9083984D01*
X13508277Y-9083984D02*
X13555896Y-9083984D01*
X13555896Y-9083984D02*
X13574944Y-9093508D01*
X13574944Y-9093508D02*
X13584467Y-9103031D01*
X13584467Y-9103031D02*
X13593991Y-9122079D01*
X13593991Y-9122079D02*
X13593991Y-9141127D01*
X13593991Y-9141127D02*
X13584467Y-9169698D01*
X13584467Y-9169698D02*
X13470182Y-9283984D01*
X13470182Y-9283984D02*
X13593991Y-9283984D01*
X13660658Y-9083984D02*
X13793991Y-9083984D01*
X13793991Y-9083984D02*
X13708277Y-9283984D01*
X13955896Y-9083984D02*
X13917801Y-9083984D01*
X13917801Y-9083984D02*
X13898753Y-9093508D01*
X13898753Y-9093508D02*
X13889229Y-9103031D01*
X13889229Y-9103031D02*
X13870182Y-9131603D01*
X13870182Y-9131603D02*
X13860658Y-9169698D01*
X13860658Y-9169698D02*
X13860658Y-9245889D01*
X13860658Y-9245889D02*
X13870182Y-9264936D01*
X13870182Y-9264936D02*
X13879706Y-9274460D01*
X13879706Y-9274460D02*
X13898753Y-9283984D01*
X13898753Y-9283984D02*
X13936848Y-9283984D01*
X13936848Y-9283984D02*
X13955896Y-9274460D01*
X13955896Y-9274460D02*
X13965420Y-9264936D01*
X13965420Y-9264936D02*
X13974944Y-9245889D01*
X13974944Y-9245889D02*
X13974944Y-9198270D01*
X13974944Y-9198270D02*
X13965420Y-9179222D01*
X13965420Y-9179222D02*
X13955896Y-9169698D01*
X13955896Y-9169698D02*
X13936848Y-9160174D01*
X13936848Y-9160174D02*
X13898753Y-9160174D01*
X13898753Y-9160174D02*
X13879706Y-9169698D01*
X13879706Y-9169698D02*
X13870182Y-9179222D01*
X13870182Y-9179222D02*
X13860658Y-9198270D01*
X14051134Y-9083984D02*
X14051134Y-9122079D01*
X14127325Y-9083984D02*
X14127325Y-9122079D01*
X14422563Y-9360174D02*
X14413039Y-9350650D01*
X14413039Y-9350650D02*
X14393991Y-9322079D01*
X14393991Y-9322079D02*
X14384468Y-9303031D01*
X14384468Y-9303031D02*
X14374944Y-9274460D01*
X14374944Y-9274460D02*
X14365420Y-9226841D01*
X14365420Y-9226841D02*
X14365420Y-9188746D01*
X14365420Y-9188746D02*
X14374944Y-9141127D01*
X14374944Y-9141127D02*
X14384468Y-9112555D01*
X14384468Y-9112555D02*
X14393991Y-9093508D01*
X14393991Y-9093508D02*
X14413039Y-9064936D01*
X14413039Y-9064936D02*
X14422563Y-9055412D01*
X14603515Y-9283984D02*
X14489229Y-9283984D01*
X14546372Y-9283984D02*
X14546372Y-9083984D01*
X14546372Y-9083984D02*
X14527325Y-9112555D01*
X14527325Y-9112555D02*
X14508277Y-9131603D01*
X14508277Y-9131603D02*
X14489229Y-9141127D01*
X14679706Y-9103031D02*
X14689229Y-9093508D01*
X14689229Y-9093508D02*
X14708277Y-9083984D01*
X14708277Y-9083984D02*
X14755896Y-9083984D01*
X14755896Y-9083984D02*
X14774944Y-9093508D01*
X14774944Y-9093508D02*
X14784468Y-9103031D01*
X14784468Y-9103031D02*
X14793991Y-9122079D01*
X14793991Y-9122079D02*
X14793991Y-9141127D01*
X14793991Y-9141127D02*
X14784468Y-9169698D01*
X14784468Y-9169698D02*
X14670182Y-9283984D01*
X14670182Y-9283984D02*
X14793991Y-9283984D01*
X15032087Y-9283984D02*
X15032087Y-9083984D01*
X15117801Y-9283984D02*
X15117801Y-9179222D01*
X15117801Y-9179222D02*
X15108277Y-9160174D01*
X15108277Y-9160174D02*
X15089230Y-9150650D01*
X15089230Y-9150650D02*
X15060658Y-9150650D01*
X15060658Y-9150650D02*
X15041610Y-9160174D01*
X15041610Y-9160174D02*
X15032087Y-9169698D01*
X15241610Y-9283984D02*
X15222563Y-9274460D01*
X15222563Y-9274460D02*
X15213039Y-9264936D01*
X15213039Y-9264936D02*
X15203515Y-9245889D01*
X15203515Y-9245889D02*
X15203515Y-9188746D01*
X15203515Y-9188746D02*
X15213039Y-9169698D01*
X15213039Y-9169698D02*
X15222563Y-9160174D01*
X15222563Y-9160174D02*
X15241610Y-9150650D01*
X15241610Y-9150650D02*
X15270182Y-9150650D01*
X15270182Y-9150650D02*
X15289230Y-9160174D01*
X15289230Y-9160174D02*
X15298753Y-9169698D01*
X15298753Y-9169698D02*
X15308277Y-9188746D01*
X15308277Y-9188746D02*
X15308277Y-9245889D01*
X15308277Y-9245889D02*
X15298753Y-9264936D01*
X15298753Y-9264936D02*
X15289230Y-9274460D01*
X15289230Y-9274460D02*
X15270182Y-9283984D01*
X15270182Y-9283984D02*
X15241610Y-9283984D01*
X15422563Y-9283984D02*
X15403515Y-9274460D01*
X15403515Y-9274460D02*
X15393991Y-9255412D01*
X15393991Y-9255412D02*
X15393991Y-9083984D01*
X15574944Y-9274460D02*
X15555896Y-9283984D01*
X15555896Y-9283984D02*
X15517801Y-9283984D01*
X15517801Y-9283984D02*
X15498753Y-9274460D01*
X15498753Y-9274460D02*
X15489230Y-9255412D01*
X15489230Y-9255412D02*
X15489230Y-9179222D01*
X15489230Y-9179222D02*
X15498753Y-9160174D01*
X15498753Y-9160174D02*
X15517801Y-9150650D01*
X15517801Y-9150650D02*
X15555896Y-9150650D01*
X15555896Y-9150650D02*
X15574944Y-9160174D01*
X15574944Y-9160174D02*
X15584468Y-9179222D01*
X15584468Y-9179222D02*
X15584468Y-9198270D01*
X15584468Y-9198270D02*
X15489230Y-9217317D01*
X15660658Y-9274460D02*
X15679706Y-9283984D01*
X15679706Y-9283984D02*
X15717801Y-9283984D01*
X15717801Y-9283984D02*
X15736849Y-9274460D01*
X15736849Y-9274460D02*
X15746372Y-9255412D01*
X15746372Y-9255412D02*
X15746372Y-9245889D01*
X15746372Y-9245889D02*
X15736849Y-9226841D01*
X15736849Y-9226841D02*
X15717801Y-9217317D01*
X15717801Y-9217317D02*
X15689230Y-9217317D01*
X15689230Y-9217317D02*
X15670182Y-9207793D01*
X15670182Y-9207793D02*
X15660658Y-9188746D01*
X15660658Y-9188746D02*
X15660658Y-9179222D01*
X15660658Y-9179222D02*
X15670182Y-9160174D01*
X15670182Y-9160174D02*
X15689230Y-9150650D01*
X15689230Y-9150650D02*
X15717801Y-9150650D01*
X15717801Y-9150650D02*
X15736849Y-9160174D01*
X15813039Y-9360174D02*
X15822563Y-9350650D01*
X15822563Y-9350650D02*
X15841611Y-9322079D01*
X15841611Y-9322079D02*
X15851134Y-9303031D01*
X15851134Y-9303031D02*
X15860658Y-9274460D01*
X15860658Y-9274460D02*
X15870182Y-9226841D01*
X15870182Y-9226841D02*
X15870182Y-9188746D01*
X15870182Y-9188746D02*
X15860658Y-9141127D01*
X15860658Y-9141127D02*
X15851134Y-9112555D01*
X15851134Y-9112555D02*
X15841611Y-9093508D01*
X15841611Y-9093508D02*
X15822563Y-9064936D01*
X15822563Y-9064936D02*
X15813039Y-9055412D01*
D12*
X10847500Y-9456500D02*
G75*
G02*
X10772500Y-9456500I-37500J0D01*
G01*
X10772500Y-9456500D02*
G75*
G02*
X10847500Y-9456500I37500J0D01*
G01*
D11*
X11146372Y-9347984D02*
X11165420Y-9347984D01*
X11165420Y-9347984D02*
X11184467Y-9357508D01*
X11184467Y-9357508D02*
X11193991Y-9367031D01*
X11193991Y-9367031D02*
X11203515Y-9386079D01*
X11203515Y-9386079D02*
X11213039Y-9424174D01*
X11213039Y-9424174D02*
X11213039Y-9471793D01*
X11213039Y-9471793D02*
X11203515Y-9509889D01*
X11203515Y-9509889D02*
X11193991Y-9528936D01*
X11193991Y-9528936D02*
X11184467Y-9538460D01*
X11184467Y-9538460D02*
X11165420Y-9547984D01*
X11165420Y-9547984D02*
X11146372Y-9547984D01*
X11146372Y-9547984D02*
X11127324Y-9538460D01*
X11127324Y-9538460D02*
X11117801Y-9528936D01*
X11117801Y-9528936D02*
X11108277Y-9509889D01*
X11108277Y-9509889D02*
X11098753Y-9471793D01*
X11098753Y-9471793D02*
X11098753Y-9424174D01*
X11098753Y-9424174D02*
X11108277Y-9386079D01*
X11108277Y-9386079D02*
X11117801Y-9367031D01*
X11117801Y-9367031D02*
X11127324Y-9357508D01*
X11127324Y-9357508D02*
X11146372Y-9347984D01*
X11298753Y-9528936D02*
X11308277Y-9538460D01*
X11308277Y-9538460D02*
X11298753Y-9547984D01*
X11298753Y-9547984D02*
X11289229Y-9538460D01*
X11289229Y-9538460D02*
X11298753Y-9528936D01*
X11298753Y-9528936D02*
X11298753Y-9547984D01*
X11374943Y-9347984D02*
X11508277Y-9347984D01*
X11508277Y-9347984D02*
X11422562Y-9547984D01*
X11679705Y-9347984D02*
X11584467Y-9347984D01*
X11584467Y-9347984D02*
X11574943Y-9443222D01*
X11574943Y-9443222D02*
X11584467Y-9433698D01*
X11584467Y-9433698D02*
X11603515Y-9424174D01*
X11603515Y-9424174D02*
X11651134Y-9424174D01*
X11651134Y-9424174D02*
X11670182Y-9433698D01*
X11670182Y-9433698D02*
X11679705Y-9443222D01*
X11679705Y-9443222D02*
X11689229Y-9462270D01*
X11689229Y-9462270D02*
X11689229Y-9509889D01*
X11689229Y-9509889D02*
X11679705Y-9528936D01*
X11679705Y-9528936D02*
X11670182Y-9538460D01*
X11670182Y-9538460D02*
X11651134Y-9547984D01*
X11651134Y-9547984D02*
X11603515Y-9547984D01*
X11603515Y-9547984D02*
X11584467Y-9538460D01*
X11584467Y-9538460D02*
X11574943Y-9528936D01*
X11813039Y-9347984D02*
X11832086Y-9347984D01*
X11832086Y-9347984D02*
X11851134Y-9357508D01*
X11851134Y-9357508D02*
X11860658Y-9367031D01*
X11860658Y-9367031D02*
X11870182Y-9386079D01*
X11870182Y-9386079D02*
X11879705Y-9424174D01*
X11879705Y-9424174D02*
X11879705Y-9471793D01*
X11879705Y-9471793D02*
X11870182Y-9509889D01*
X11870182Y-9509889D02*
X11860658Y-9528936D01*
X11860658Y-9528936D02*
X11851134Y-9538460D01*
X11851134Y-9538460D02*
X11832086Y-9547984D01*
X11832086Y-9547984D02*
X11813039Y-9547984D01*
X11813039Y-9547984D02*
X11793991Y-9538460D01*
X11793991Y-9538460D02*
X11784467Y-9528936D01*
X11784467Y-9528936D02*
X11774943Y-9509889D01*
X11774943Y-9509889D02*
X11765420Y-9471793D01*
X11765420Y-9471793D02*
X11765420Y-9424174D01*
X11765420Y-9424174D02*
X11774943Y-9386079D01*
X11774943Y-9386079D02*
X11784467Y-9367031D01*
X11784467Y-9367031D02*
X11793991Y-9357508D01*
X11793991Y-9357508D02*
X11813039Y-9347984D01*
X11965420Y-9547984D02*
X11965420Y-9414650D01*
X11965420Y-9433698D02*
X11974943Y-9424174D01*
X11974943Y-9424174D02*
X11993991Y-9414650D01*
X11993991Y-9414650D02*
X12022563Y-9414650D01*
X12022563Y-9414650D02*
X12041610Y-9424174D01*
X12041610Y-9424174D02*
X12051134Y-9443222D01*
X12051134Y-9443222D02*
X12051134Y-9547984D01*
X12051134Y-9443222D02*
X12060658Y-9424174D01*
X12060658Y-9424174D02*
X12079705Y-9414650D01*
X12079705Y-9414650D02*
X12108277Y-9414650D01*
X12108277Y-9414650D02*
X12127324Y-9424174D01*
X12127324Y-9424174D02*
X12136848Y-9443222D01*
X12136848Y-9443222D02*
X12136848Y-9547984D01*
X12232086Y-9547984D02*
X12232086Y-9414650D01*
X12232086Y-9433698D02*
X12241610Y-9424174D01*
X12241610Y-9424174D02*
X12260658Y-9414650D01*
X12260658Y-9414650D02*
X12289229Y-9414650D01*
X12289229Y-9414650D02*
X12308277Y-9424174D01*
X12308277Y-9424174D02*
X12317801Y-9443222D01*
X12317801Y-9443222D02*
X12317801Y-9547984D01*
X12317801Y-9443222D02*
X12327324Y-9424174D01*
X12327324Y-9424174D02*
X12346372Y-9414650D01*
X12346372Y-9414650D02*
X12374943Y-9414650D01*
X12374943Y-9414650D02*
X12393991Y-9424174D01*
X12393991Y-9424174D02*
X12403515Y-9443222D01*
X12403515Y-9443222D02*
X12403515Y-9547984D01*
X12793991Y-9338460D02*
X12622563Y-9595603D01*
X13051134Y-9347984D02*
X13070182Y-9347984D01*
X13070182Y-9347984D02*
X13089229Y-9357508D01*
X13089229Y-9357508D02*
X13098753Y-9367031D01*
X13098753Y-9367031D02*
X13108277Y-9386079D01*
X13108277Y-9386079D02*
X13117801Y-9424174D01*
X13117801Y-9424174D02*
X13117801Y-9471793D01*
X13117801Y-9471793D02*
X13108277Y-9509889D01*
X13108277Y-9509889D02*
X13098753Y-9528936D01*
X13098753Y-9528936D02*
X13089229Y-9538460D01*
X13089229Y-9538460D02*
X13070182Y-9547984D01*
X13070182Y-9547984D02*
X13051134Y-9547984D01*
X13051134Y-9547984D02*
X13032086Y-9538460D01*
X13032086Y-9538460D02*
X13022563Y-9528936D01*
X13022563Y-9528936D02*
X13013039Y-9509889D01*
X13013039Y-9509889D02*
X13003515Y-9471793D01*
X13003515Y-9471793D02*
X13003515Y-9424174D01*
X13003515Y-9424174D02*
X13013039Y-9386079D01*
X13013039Y-9386079D02*
X13022563Y-9367031D01*
X13022563Y-9367031D02*
X13032086Y-9357508D01*
X13032086Y-9357508D02*
X13051134Y-9347984D01*
X13203515Y-9528936D02*
X13213039Y-9538460D01*
X13213039Y-9538460D02*
X13203515Y-9547984D01*
X13203515Y-9547984D02*
X13193991Y-9538460D01*
X13193991Y-9538460D02*
X13203515Y-9528936D01*
X13203515Y-9528936D02*
X13203515Y-9547984D01*
X13336848Y-9347984D02*
X13355896Y-9347984D01*
X13355896Y-9347984D02*
X13374944Y-9357508D01*
X13374944Y-9357508D02*
X13384467Y-9367031D01*
X13384467Y-9367031D02*
X13393991Y-9386079D01*
X13393991Y-9386079D02*
X13403515Y-9424174D01*
X13403515Y-9424174D02*
X13403515Y-9471793D01*
X13403515Y-9471793D02*
X13393991Y-9509889D01*
X13393991Y-9509889D02*
X13384467Y-9528936D01*
X13384467Y-9528936D02*
X13374944Y-9538460D01*
X13374944Y-9538460D02*
X13355896Y-9547984D01*
X13355896Y-9547984D02*
X13336848Y-9547984D01*
X13336848Y-9547984D02*
X13317801Y-9538460D01*
X13317801Y-9538460D02*
X13308277Y-9528936D01*
X13308277Y-9528936D02*
X13298753Y-9509889D01*
X13298753Y-9509889D02*
X13289229Y-9471793D01*
X13289229Y-9471793D02*
X13289229Y-9424174D01*
X13289229Y-9424174D02*
X13298753Y-9386079D01*
X13298753Y-9386079D02*
X13308277Y-9367031D01*
X13308277Y-9367031D02*
X13317801Y-9357508D01*
X13317801Y-9357508D02*
X13336848Y-9347984D01*
X13479706Y-9367031D02*
X13489229Y-9357508D01*
X13489229Y-9357508D02*
X13508277Y-9347984D01*
X13508277Y-9347984D02*
X13555896Y-9347984D01*
X13555896Y-9347984D02*
X13574944Y-9357508D01*
X13574944Y-9357508D02*
X13584467Y-9367031D01*
X13584467Y-9367031D02*
X13593991Y-9386079D01*
X13593991Y-9386079D02*
X13593991Y-9405127D01*
X13593991Y-9405127D02*
X13584467Y-9433698D01*
X13584467Y-9433698D02*
X13470182Y-9547984D01*
X13470182Y-9547984D02*
X13593991Y-9547984D01*
X13689229Y-9547984D02*
X13727325Y-9547984D01*
X13727325Y-9547984D02*
X13746372Y-9538460D01*
X13746372Y-9538460D02*
X13755896Y-9528936D01*
X13755896Y-9528936D02*
X13774944Y-9500365D01*
X13774944Y-9500365D02*
X13784467Y-9462270D01*
X13784467Y-9462270D02*
X13784467Y-9386079D01*
X13784467Y-9386079D02*
X13774944Y-9367031D01*
X13774944Y-9367031D02*
X13765420Y-9357508D01*
X13765420Y-9357508D02*
X13746372Y-9347984D01*
X13746372Y-9347984D02*
X13708277Y-9347984D01*
X13708277Y-9347984D02*
X13689229Y-9357508D01*
X13689229Y-9357508D02*
X13679706Y-9367031D01*
X13679706Y-9367031D02*
X13670182Y-9386079D01*
X13670182Y-9386079D02*
X13670182Y-9433698D01*
X13670182Y-9433698D02*
X13679706Y-9452746D01*
X13679706Y-9452746D02*
X13689229Y-9462270D01*
X13689229Y-9462270D02*
X13708277Y-9471793D01*
X13708277Y-9471793D02*
X13746372Y-9471793D01*
X13746372Y-9471793D02*
X13765420Y-9462270D01*
X13765420Y-9462270D02*
X13774944Y-9452746D01*
X13774944Y-9452746D02*
X13784467Y-9433698D01*
X13965420Y-9347984D02*
X13870182Y-9347984D01*
X13870182Y-9347984D02*
X13860658Y-9443222D01*
X13860658Y-9443222D02*
X13870182Y-9433698D01*
X13870182Y-9433698D02*
X13889229Y-9424174D01*
X13889229Y-9424174D02*
X13936848Y-9424174D01*
X13936848Y-9424174D02*
X13955896Y-9433698D01*
X13955896Y-9433698D02*
X13965420Y-9443222D01*
X13965420Y-9443222D02*
X13974944Y-9462270D01*
X13974944Y-9462270D02*
X13974944Y-9509889D01*
X13974944Y-9509889D02*
X13965420Y-9528936D01*
X13965420Y-9528936D02*
X13955896Y-9538460D01*
X13955896Y-9538460D02*
X13936848Y-9547984D01*
X13936848Y-9547984D02*
X13889229Y-9547984D01*
X13889229Y-9547984D02*
X13870182Y-9538460D01*
X13870182Y-9538460D02*
X13860658Y-9528936D01*
X14051134Y-9347984D02*
X14051134Y-9386079D01*
X14127325Y-9347984D02*
X14127325Y-9386079D01*
X14422563Y-9624174D02*
X14413039Y-9614650D01*
X14413039Y-9614650D02*
X14393991Y-9586079D01*
X14393991Y-9586079D02*
X14384468Y-9567031D01*
X14384468Y-9567031D02*
X14374944Y-9538460D01*
X14374944Y-9538460D02*
X14365420Y-9490841D01*
X14365420Y-9490841D02*
X14365420Y-9452746D01*
X14365420Y-9452746D02*
X14374944Y-9405127D01*
X14374944Y-9405127D02*
X14384468Y-9376555D01*
X14384468Y-9376555D02*
X14393991Y-9357508D01*
X14393991Y-9357508D02*
X14413039Y-9328936D01*
X14413039Y-9328936D02*
X14422563Y-9319412D01*
X14479706Y-9347984D02*
X14603515Y-9347984D01*
X14603515Y-9347984D02*
X14536848Y-9424174D01*
X14536848Y-9424174D02*
X14565420Y-9424174D01*
X14565420Y-9424174D02*
X14584468Y-9433698D01*
X14584468Y-9433698D02*
X14593991Y-9443222D01*
X14593991Y-9443222D02*
X14603515Y-9462270D01*
X14603515Y-9462270D02*
X14603515Y-9509889D01*
X14603515Y-9509889D02*
X14593991Y-9528936D01*
X14593991Y-9528936D02*
X14584468Y-9538460D01*
X14584468Y-9538460D02*
X14565420Y-9547984D01*
X14565420Y-9547984D02*
X14508277Y-9547984D01*
X14508277Y-9547984D02*
X14489229Y-9538460D01*
X14489229Y-9538460D02*
X14479706Y-9528936D01*
X14841610Y-9547984D02*
X14841610Y-9347984D01*
X14927325Y-9547984D02*
X14927325Y-9443222D01*
X14927325Y-9443222D02*
X14917801Y-9424174D01*
X14917801Y-9424174D02*
X14898753Y-9414650D01*
X14898753Y-9414650D02*
X14870182Y-9414650D01*
X14870182Y-9414650D02*
X14851134Y-9424174D01*
X14851134Y-9424174D02*
X14841610Y-9433698D01*
X15051134Y-9547984D02*
X15032087Y-9538460D01*
X15032087Y-9538460D02*
X15022563Y-9528936D01*
X15022563Y-9528936D02*
X15013039Y-9509889D01*
X15013039Y-9509889D02*
X15013039Y-9452746D01*
X15013039Y-9452746D02*
X15022563Y-9433698D01*
X15022563Y-9433698D02*
X15032087Y-9424174D01*
X15032087Y-9424174D02*
X15051134Y-9414650D01*
X15051134Y-9414650D02*
X15079706Y-9414650D01*
X15079706Y-9414650D02*
X15098753Y-9424174D01*
X15098753Y-9424174D02*
X15108277Y-9433698D01*
X15108277Y-9433698D02*
X15117801Y-9452746D01*
X15117801Y-9452746D02*
X15117801Y-9509889D01*
X15117801Y-9509889D02*
X15108277Y-9528936D01*
X15108277Y-9528936D02*
X15098753Y-9538460D01*
X15098753Y-9538460D02*
X15079706Y-9547984D01*
X15079706Y-9547984D02*
X15051134Y-9547984D01*
X15232087Y-9547984D02*
X15213039Y-9538460D01*
X15213039Y-9538460D02*
X15203515Y-9519412D01*
X15203515Y-9519412D02*
X15203515Y-9347984D01*
X15384468Y-9538460D02*
X15365420Y-9547984D01*
X15365420Y-9547984D02*
X15327325Y-9547984D01*
X15327325Y-9547984D02*
X15308277Y-9538460D01*
X15308277Y-9538460D02*
X15298753Y-9519412D01*
X15298753Y-9519412D02*
X15298753Y-9443222D01*
X15298753Y-9443222D02*
X15308277Y-9424174D01*
X15308277Y-9424174D02*
X15327325Y-9414650D01*
X15327325Y-9414650D02*
X15365420Y-9414650D01*
X15365420Y-9414650D02*
X15384468Y-9424174D01*
X15384468Y-9424174D02*
X15393991Y-9443222D01*
X15393991Y-9443222D02*
X15393991Y-9462270D01*
X15393991Y-9462270D02*
X15298753Y-9481317D01*
X15470182Y-9538460D02*
X15489230Y-9547984D01*
X15489230Y-9547984D02*
X15527325Y-9547984D01*
X15527325Y-9547984D02*
X15546372Y-9538460D01*
X15546372Y-9538460D02*
X15555896Y-9519412D01*
X15555896Y-9519412D02*
X15555896Y-9509889D01*
X15555896Y-9509889D02*
X15546372Y-9490841D01*
X15546372Y-9490841D02*
X15527325Y-9481317D01*
X15527325Y-9481317D02*
X15498753Y-9481317D01*
X15498753Y-9481317D02*
X15479706Y-9471793D01*
X15479706Y-9471793D02*
X15470182Y-9452746D01*
X15470182Y-9452746D02*
X15470182Y-9443222D01*
X15470182Y-9443222D02*
X15479706Y-9424174D01*
X15479706Y-9424174D02*
X15498753Y-9414650D01*
X15498753Y-9414650D02*
X15527325Y-9414650D01*
X15527325Y-9414650D02*
X15546372Y-9424174D01*
X15622563Y-9624174D02*
X15632087Y-9614650D01*
X15632087Y-9614650D02*
X15651134Y-9586079D01*
X15651134Y-9586079D02*
X15660658Y-9567031D01*
X15660658Y-9567031D02*
X15670182Y-9538460D01*
X15670182Y-9538460D02*
X15679706Y-9490841D01*
X15679706Y-9490841D02*
X15679706Y-9452746D01*
X15679706Y-9452746D02*
X15670182Y-9405127D01*
X15670182Y-9405127D02*
X15660658Y-9376555D01*
X15660658Y-9376555D02*
X15651134Y-9357508D01*
X15651134Y-9357508D02*
X15632087Y-9328936D01*
X15632087Y-9328936D02*
X15622563Y-9319412D01*
D12*
X10807500Y-9680500D02*
X10807500Y-9760500D01*
X10767500Y-9720500D02*
X10847500Y-9720500D01*
D11*
X11146372Y-9611984D02*
X11165420Y-9611984D01*
X11165420Y-9611984D02*
X11184467Y-9621508D01*
X11184467Y-9621508D02*
X11193991Y-9631031D01*
X11193991Y-9631031D02*
X11203515Y-9650079D01*
X11203515Y-9650079D02*
X11213039Y-9688174D01*
X11213039Y-9688174D02*
X11213039Y-9735793D01*
X11213039Y-9735793D02*
X11203515Y-9773889D01*
X11203515Y-9773889D02*
X11193991Y-9792936D01*
X11193991Y-9792936D02*
X11184467Y-9802460D01*
X11184467Y-9802460D02*
X11165420Y-9811984D01*
X11165420Y-9811984D02*
X11146372Y-9811984D01*
X11146372Y-9811984D02*
X11127324Y-9802460D01*
X11127324Y-9802460D02*
X11117801Y-9792936D01*
X11117801Y-9792936D02*
X11108277Y-9773889D01*
X11108277Y-9773889D02*
X11098753Y-9735793D01*
X11098753Y-9735793D02*
X11098753Y-9688174D01*
X11098753Y-9688174D02*
X11108277Y-9650079D01*
X11108277Y-9650079D02*
X11117801Y-9631031D01*
X11117801Y-9631031D02*
X11127324Y-9621508D01*
X11127324Y-9621508D02*
X11146372Y-9611984D01*
X11298753Y-9792936D02*
X11308277Y-9802460D01*
X11308277Y-9802460D02*
X11298753Y-9811984D01*
X11298753Y-9811984D02*
X11289229Y-9802460D01*
X11289229Y-9802460D02*
X11298753Y-9792936D01*
X11298753Y-9792936D02*
X11298753Y-9811984D01*
X11422562Y-9697698D02*
X11403515Y-9688174D01*
X11403515Y-9688174D02*
X11393991Y-9678650D01*
X11393991Y-9678650D02*
X11384467Y-9659603D01*
X11384467Y-9659603D02*
X11384467Y-9650079D01*
X11384467Y-9650079D02*
X11393991Y-9631031D01*
X11393991Y-9631031D02*
X11403515Y-9621508D01*
X11403515Y-9621508D02*
X11422562Y-9611984D01*
X11422562Y-9611984D02*
X11460658Y-9611984D01*
X11460658Y-9611984D02*
X11479705Y-9621508D01*
X11479705Y-9621508D02*
X11489229Y-9631031D01*
X11489229Y-9631031D02*
X11498753Y-9650079D01*
X11498753Y-9650079D02*
X11498753Y-9659603D01*
X11498753Y-9659603D02*
X11489229Y-9678650D01*
X11489229Y-9678650D02*
X11479705Y-9688174D01*
X11479705Y-9688174D02*
X11460658Y-9697698D01*
X11460658Y-9697698D02*
X11422562Y-9697698D01*
X11422562Y-9697698D02*
X11403515Y-9707222D01*
X11403515Y-9707222D02*
X11393991Y-9716746D01*
X11393991Y-9716746D02*
X11384467Y-9735793D01*
X11384467Y-9735793D02*
X11384467Y-9773889D01*
X11384467Y-9773889D02*
X11393991Y-9792936D01*
X11393991Y-9792936D02*
X11403515Y-9802460D01*
X11403515Y-9802460D02*
X11422562Y-9811984D01*
X11422562Y-9811984D02*
X11460658Y-9811984D01*
X11460658Y-9811984D02*
X11479705Y-9802460D01*
X11479705Y-9802460D02*
X11489229Y-9792936D01*
X11489229Y-9792936D02*
X11498753Y-9773889D01*
X11498753Y-9773889D02*
X11498753Y-9735793D01*
X11498753Y-9735793D02*
X11489229Y-9716746D01*
X11489229Y-9716746D02*
X11479705Y-9707222D01*
X11479705Y-9707222D02*
X11460658Y-9697698D01*
X11622562Y-9611984D02*
X11641610Y-9611984D01*
X11641610Y-9611984D02*
X11660658Y-9621508D01*
X11660658Y-9621508D02*
X11670182Y-9631031D01*
X11670182Y-9631031D02*
X11679705Y-9650079D01*
X11679705Y-9650079D02*
X11689229Y-9688174D01*
X11689229Y-9688174D02*
X11689229Y-9735793D01*
X11689229Y-9735793D02*
X11679705Y-9773889D01*
X11679705Y-9773889D02*
X11670182Y-9792936D01*
X11670182Y-9792936D02*
X11660658Y-9802460D01*
X11660658Y-9802460D02*
X11641610Y-9811984D01*
X11641610Y-9811984D02*
X11622562Y-9811984D01*
X11622562Y-9811984D02*
X11603515Y-9802460D01*
X11603515Y-9802460D02*
X11593991Y-9792936D01*
X11593991Y-9792936D02*
X11584467Y-9773889D01*
X11584467Y-9773889D02*
X11574943Y-9735793D01*
X11574943Y-9735793D02*
X11574943Y-9688174D01*
X11574943Y-9688174D02*
X11584467Y-9650079D01*
X11584467Y-9650079D02*
X11593991Y-9631031D01*
X11593991Y-9631031D02*
X11603515Y-9621508D01*
X11603515Y-9621508D02*
X11622562Y-9611984D01*
X11813039Y-9611984D02*
X11832086Y-9611984D01*
X11832086Y-9611984D02*
X11851134Y-9621508D01*
X11851134Y-9621508D02*
X11860658Y-9631031D01*
X11860658Y-9631031D02*
X11870182Y-9650079D01*
X11870182Y-9650079D02*
X11879705Y-9688174D01*
X11879705Y-9688174D02*
X11879705Y-9735793D01*
X11879705Y-9735793D02*
X11870182Y-9773889D01*
X11870182Y-9773889D02*
X11860658Y-9792936D01*
X11860658Y-9792936D02*
X11851134Y-9802460D01*
X11851134Y-9802460D02*
X11832086Y-9811984D01*
X11832086Y-9811984D02*
X11813039Y-9811984D01*
X11813039Y-9811984D02*
X11793991Y-9802460D01*
X11793991Y-9802460D02*
X11784467Y-9792936D01*
X11784467Y-9792936D02*
X11774943Y-9773889D01*
X11774943Y-9773889D02*
X11765420Y-9735793D01*
X11765420Y-9735793D02*
X11765420Y-9688174D01*
X11765420Y-9688174D02*
X11774943Y-9650079D01*
X11774943Y-9650079D02*
X11784467Y-9631031D01*
X11784467Y-9631031D02*
X11793991Y-9621508D01*
X11793991Y-9621508D02*
X11813039Y-9611984D01*
X11965420Y-9811984D02*
X11965420Y-9678650D01*
X11965420Y-9697698D02*
X11974943Y-9688174D01*
X11974943Y-9688174D02*
X11993991Y-9678650D01*
X11993991Y-9678650D02*
X12022563Y-9678650D01*
X12022563Y-9678650D02*
X12041610Y-9688174D01*
X12041610Y-9688174D02*
X12051134Y-9707222D01*
X12051134Y-9707222D02*
X12051134Y-9811984D01*
X12051134Y-9707222D02*
X12060658Y-9688174D01*
X12060658Y-9688174D02*
X12079705Y-9678650D01*
X12079705Y-9678650D02*
X12108277Y-9678650D01*
X12108277Y-9678650D02*
X12127324Y-9688174D01*
X12127324Y-9688174D02*
X12136848Y-9707222D01*
X12136848Y-9707222D02*
X12136848Y-9811984D01*
X12232086Y-9811984D02*
X12232086Y-9678650D01*
X12232086Y-9697698D02*
X12241610Y-9688174D01*
X12241610Y-9688174D02*
X12260658Y-9678650D01*
X12260658Y-9678650D02*
X12289229Y-9678650D01*
X12289229Y-9678650D02*
X12308277Y-9688174D01*
X12308277Y-9688174D02*
X12317801Y-9707222D01*
X12317801Y-9707222D02*
X12317801Y-9811984D01*
X12317801Y-9707222D02*
X12327324Y-9688174D01*
X12327324Y-9688174D02*
X12346372Y-9678650D01*
X12346372Y-9678650D02*
X12374943Y-9678650D01*
X12374943Y-9678650D02*
X12393991Y-9688174D01*
X12393991Y-9688174D02*
X12403515Y-9707222D01*
X12403515Y-9707222D02*
X12403515Y-9811984D01*
X12793991Y-9602460D02*
X12622563Y-9859603D01*
X13051134Y-9611984D02*
X13070182Y-9611984D01*
X13070182Y-9611984D02*
X13089229Y-9621508D01*
X13089229Y-9621508D02*
X13098753Y-9631031D01*
X13098753Y-9631031D02*
X13108277Y-9650079D01*
X13108277Y-9650079D02*
X13117801Y-9688174D01*
X13117801Y-9688174D02*
X13117801Y-9735793D01*
X13117801Y-9735793D02*
X13108277Y-9773889D01*
X13108277Y-9773889D02*
X13098753Y-9792936D01*
X13098753Y-9792936D02*
X13089229Y-9802460D01*
X13089229Y-9802460D02*
X13070182Y-9811984D01*
X13070182Y-9811984D02*
X13051134Y-9811984D01*
X13051134Y-9811984D02*
X13032086Y-9802460D01*
X13032086Y-9802460D02*
X13022563Y-9792936D01*
X13022563Y-9792936D02*
X13013039Y-9773889D01*
X13013039Y-9773889D02*
X13003515Y-9735793D01*
X13003515Y-9735793D02*
X13003515Y-9688174D01*
X13003515Y-9688174D02*
X13013039Y-9650079D01*
X13013039Y-9650079D02*
X13022563Y-9631031D01*
X13022563Y-9631031D02*
X13032086Y-9621508D01*
X13032086Y-9621508D02*
X13051134Y-9611984D01*
X13203515Y-9792936D02*
X13213039Y-9802460D01*
X13213039Y-9802460D02*
X13203515Y-9811984D01*
X13203515Y-9811984D02*
X13193991Y-9802460D01*
X13193991Y-9802460D02*
X13203515Y-9792936D01*
X13203515Y-9792936D02*
X13203515Y-9811984D01*
X13336848Y-9611984D02*
X13355896Y-9611984D01*
X13355896Y-9611984D02*
X13374944Y-9621508D01*
X13374944Y-9621508D02*
X13384467Y-9631031D01*
X13384467Y-9631031D02*
X13393991Y-9650079D01*
X13393991Y-9650079D02*
X13403515Y-9688174D01*
X13403515Y-9688174D02*
X13403515Y-9735793D01*
X13403515Y-9735793D02*
X13393991Y-9773889D01*
X13393991Y-9773889D02*
X13384467Y-9792936D01*
X13384467Y-9792936D02*
X13374944Y-9802460D01*
X13374944Y-9802460D02*
X13355896Y-9811984D01*
X13355896Y-9811984D02*
X13336848Y-9811984D01*
X13336848Y-9811984D02*
X13317801Y-9802460D01*
X13317801Y-9802460D02*
X13308277Y-9792936D01*
X13308277Y-9792936D02*
X13298753Y-9773889D01*
X13298753Y-9773889D02*
X13289229Y-9735793D01*
X13289229Y-9735793D02*
X13289229Y-9688174D01*
X13289229Y-9688174D02*
X13298753Y-9650079D01*
X13298753Y-9650079D02*
X13308277Y-9631031D01*
X13308277Y-9631031D02*
X13317801Y-9621508D01*
X13317801Y-9621508D02*
X13336848Y-9611984D01*
X13470182Y-9611984D02*
X13593991Y-9611984D01*
X13593991Y-9611984D02*
X13527325Y-9688174D01*
X13527325Y-9688174D02*
X13555896Y-9688174D01*
X13555896Y-9688174D02*
X13574944Y-9697698D01*
X13574944Y-9697698D02*
X13584467Y-9707222D01*
X13584467Y-9707222D02*
X13593991Y-9726270D01*
X13593991Y-9726270D02*
X13593991Y-9773889D01*
X13593991Y-9773889D02*
X13584467Y-9792936D01*
X13584467Y-9792936D02*
X13574944Y-9802460D01*
X13574944Y-9802460D02*
X13555896Y-9811984D01*
X13555896Y-9811984D02*
X13498753Y-9811984D01*
X13498753Y-9811984D02*
X13479706Y-9802460D01*
X13479706Y-9802460D02*
X13470182Y-9792936D01*
X13784467Y-9811984D02*
X13670182Y-9811984D01*
X13727325Y-9811984D02*
X13727325Y-9611984D01*
X13727325Y-9611984D02*
X13708277Y-9640555D01*
X13708277Y-9640555D02*
X13689229Y-9659603D01*
X13689229Y-9659603D02*
X13670182Y-9669127D01*
X13965420Y-9611984D02*
X13870182Y-9611984D01*
X13870182Y-9611984D02*
X13860658Y-9707222D01*
X13860658Y-9707222D02*
X13870182Y-9697698D01*
X13870182Y-9697698D02*
X13889229Y-9688174D01*
X13889229Y-9688174D02*
X13936848Y-9688174D01*
X13936848Y-9688174D02*
X13955896Y-9697698D01*
X13955896Y-9697698D02*
X13965420Y-9707222D01*
X13965420Y-9707222D02*
X13974944Y-9726270D01*
X13974944Y-9726270D02*
X13974944Y-9773889D01*
X13974944Y-9773889D02*
X13965420Y-9792936D01*
X13965420Y-9792936D02*
X13955896Y-9802460D01*
X13955896Y-9802460D02*
X13936848Y-9811984D01*
X13936848Y-9811984D02*
X13889229Y-9811984D01*
X13889229Y-9811984D02*
X13870182Y-9802460D01*
X13870182Y-9802460D02*
X13860658Y-9792936D01*
X14051134Y-9611984D02*
X14051134Y-9650079D01*
X14127325Y-9611984D02*
X14127325Y-9650079D01*
X14422563Y-9888174D02*
X14413039Y-9878650D01*
X14413039Y-9878650D02*
X14393991Y-9850079D01*
X14393991Y-9850079D02*
X14384468Y-9831031D01*
X14384468Y-9831031D02*
X14374944Y-9802460D01*
X14374944Y-9802460D02*
X14365420Y-9754841D01*
X14365420Y-9754841D02*
X14365420Y-9716746D01*
X14365420Y-9716746D02*
X14374944Y-9669127D01*
X14374944Y-9669127D02*
X14384468Y-9640555D01*
X14384468Y-9640555D02*
X14393991Y-9621508D01*
X14393991Y-9621508D02*
X14413039Y-9592936D01*
X14413039Y-9592936D02*
X14422563Y-9583412D01*
X14584468Y-9678650D02*
X14584468Y-9811984D01*
X14536848Y-9602460D02*
X14489229Y-9745317D01*
X14489229Y-9745317D02*
X14613039Y-9745317D01*
X14727325Y-9611984D02*
X14746372Y-9611984D01*
X14746372Y-9611984D02*
X14765420Y-9621508D01*
X14765420Y-9621508D02*
X14774944Y-9631031D01*
X14774944Y-9631031D02*
X14784468Y-9650079D01*
X14784468Y-9650079D02*
X14793991Y-9688174D01*
X14793991Y-9688174D02*
X14793991Y-9735793D01*
X14793991Y-9735793D02*
X14784468Y-9773889D01*
X14784468Y-9773889D02*
X14774944Y-9792936D01*
X14774944Y-9792936D02*
X14765420Y-9802460D01*
X14765420Y-9802460D02*
X14746372Y-9811984D01*
X14746372Y-9811984D02*
X14727325Y-9811984D01*
X14727325Y-9811984D02*
X14708277Y-9802460D01*
X14708277Y-9802460D02*
X14698753Y-9792936D01*
X14698753Y-9792936D02*
X14689229Y-9773889D01*
X14689229Y-9773889D02*
X14679706Y-9735793D01*
X14679706Y-9735793D02*
X14679706Y-9688174D01*
X14679706Y-9688174D02*
X14689229Y-9650079D01*
X14689229Y-9650079D02*
X14698753Y-9631031D01*
X14698753Y-9631031D02*
X14708277Y-9621508D01*
X14708277Y-9621508D02*
X14727325Y-9611984D01*
X15032087Y-9811984D02*
X15032087Y-9611984D01*
X15117801Y-9811984D02*
X15117801Y-9707222D01*
X15117801Y-9707222D02*
X15108277Y-9688174D01*
X15108277Y-9688174D02*
X15089230Y-9678650D01*
X15089230Y-9678650D02*
X15060658Y-9678650D01*
X15060658Y-9678650D02*
X15041610Y-9688174D01*
X15041610Y-9688174D02*
X15032087Y-9697698D01*
X15241610Y-9811984D02*
X15222563Y-9802460D01*
X15222563Y-9802460D02*
X15213039Y-9792936D01*
X15213039Y-9792936D02*
X15203515Y-9773889D01*
X15203515Y-9773889D02*
X15203515Y-9716746D01*
X15203515Y-9716746D02*
X15213039Y-9697698D01*
X15213039Y-9697698D02*
X15222563Y-9688174D01*
X15222563Y-9688174D02*
X15241610Y-9678650D01*
X15241610Y-9678650D02*
X15270182Y-9678650D01*
X15270182Y-9678650D02*
X15289230Y-9688174D01*
X15289230Y-9688174D02*
X15298753Y-9697698D01*
X15298753Y-9697698D02*
X15308277Y-9716746D01*
X15308277Y-9716746D02*
X15308277Y-9773889D01*
X15308277Y-9773889D02*
X15298753Y-9792936D01*
X15298753Y-9792936D02*
X15289230Y-9802460D01*
X15289230Y-9802460D02*
X15270182Y-9811984D01*
X15270182Y-9811984D02*
X15241610Y-9811984D01*
X15422563Y-9811984D02*
X15403515Y-9802460D01*
X15403515Y-9802460D02*
X15393991Y-9783412D01*
X15393991Y-9783412D02*
X15393991Y-9611984D01*
X15574944Y-9802460D02*
X15555896Y-9811984D01*
X15555896Y-9811984D02*
X15517801Y-9811984D01*
X15517801Y-9811984D02*
X15498753Y-9802460D01*
X15498753Y-9802460D02*
X15489230Y-9783412D01*
X15489230Y-9783412D02*
X15489230Y-9707222D01*
X15489230Y-9707222D02*
X15498753Y-9688174D01*
X15498753Y-9688174D02*
X15517801Y-9678650D01*
X15517801Y-9678650D02*
X15555896Y-9678650D01*
X15555896Y-9678650D02*
X15574944Y-9688174D01*
X15574944Y-9688174D02*
X15584468Y-9707222D01*
X15584468Y-9707222D02*
X15584468Y-9726270D01*
X15584468Y-9726270D02*
X15489230Y-9745317D01*
X15660658Y-9802460D02*
X15679706Y-9811984D01*
X15679706Y-9811984D02*
X15717801Y-9811984D01*
X15717801Y-9811984D02*
X15736849Y-9802460D01*
X15736849Y-9802460D02*
X15746372Y-9783412D01*
X15746372Y-9783412D02*
X15746372Y-9773889D01*
X15746372Y-9773889D02*
X15736849Y-9754841D01*
X15736849Y-9754841D02*
X15717801Y-9745317D01*
X15717801Y-9745317D02*
X15689230Y-9745317D01*
X15689230Y-9745317D02*
X15670182Y-9735793D01*
X15670182Y-9735793D02*
X15660658Y-9716746D01*
X15660658Y-9716746D02*
X15660658Y-9707222D01*
X15660658Y-9707222D02*
X15670182Y-9688174D01*
X15670182Y-9688174D02*
X15689230Y-9678650D01*
X15689230Y-9678650D02*
X15717801Y-9678650D01*
X15717801Y-9678650D02*
X15736849Y-9688174D01*
X15813039Y-9888174D02*
X15822563Y-9878650D01*
X15822563Y-9878650D02*
X15841611Y-9850079D01*
X15841611Y-9850079D02*
X15851134Y-9831031D01*
X15851134Y-9831031D02*
X15860658Y-9802460D01*
X15860658Y-9802460D02*
X15870182Y-9754841D01*
X15870182Y-9754841D02*
X15870182Y-9716746D01*
X15870182Y-9716746D02*
X15860658Y-9669127D01*
X15860658Y-9669127D02*
X15851134Y-9640555D01*
X15851134Y-9640555D02*
X15841611Y-9621508D01*
X15841611Y-9621508D02*
X15822563Y-9592936D01*
X15822563Y-9592936D02*
X15813039Y-9583412D01*
D12*
X10832856Y-10019856D02*
X10832856Y-9949144D01*
X10762144Y-9949144D01*
X10762144Y-10019856D01*
X10832856Y-10019856D01*
D11*
X11213039Y-10075984D02*
X11098753Y-10075984D01*
X11155896Y-10075984D02*
X11155896Y-9875984D01*
X11155896Y-9875984D02*
X11136848Y-9904555D01*
X11136848Y-9904555D02*
X11117801Y-9923603D01*
X11117801Y-9923603D02*
X11098753Y-9933127D01*
X11298753Y-10056936D02*
X11308277Y-10066460D01*
X11308277Y-10066460D02*
X11298753Y-10075984D01*
X11298753Y-10075984D02*
X11289229Y-10066460D01*
X11289229Y-10066460D02*
X11298753Y-10056936D01*
X11298753Y-10056936D02*
X11298753Y-10075984D01*
X11432086Y-9875984D02*
X11451134Y-9875984D01*
X11451134Y-9875984D02*
X11470182Y-9885508D01*
X11470182Y-9885508D02*
X11479705Y-9895031D01*
X11479705Y-9895031D02*
X11489229Y-9914079D01*
X11489229Y-9914079D02*
X11498753Y-9952174D01*
X11498753Y-9952174D02*
X11498753Y-9999793D01*
X11498753Y-9999793D02*
X11489229Y-10037889D01*
X11489229Y-10037889D02*
X11479705Y-10056936D01*
X11479705Y-10056936D02*
X11470182Y-10066460D01*
X11470182Y-10066460D02*
X11451134Y-10075984D01*
X11451134Y-10075984D02*
X11432086Y-10075984D01*
X11432086Y-10075984D02*
X11413039Y-10066460D01*
X11413039Y-10066460D02*
X11403515Y-10056936D01*
X11403515Y-10056936D02*
X11393991Y-10037889D01*
X11393991Y-10037889D02*
X11384467Y-9999793D01*
X11384467Y-9999793D02*
X11384467Y-9952174D01*
X11384467Y-9952174D02*
X11393991Y-9914079D01*
X11393991Y-9914079D02*
X11403515Y-9895031D01*
X11403515Y-9895031D02*
X11413039Y-9885508D01*
X11413039Y-9885508D02*
X11432086Y-9875984D01*
X11622562Y-9875984D02*
X11641610Y-9875984D01*
X11641610Y-9875984D02*
X11660658Y-9885508D01*
X11660658Y-9885508D02*
X11670182Y-9895031D01*
X11670182Y-9895031D02*
X11679705Y-9914079D01*
X11679705Y-9914079D02*
X11689229Y-9952174D01*
X11689229Y-9952174D02*
X11689229Y-9999793D01*
X11689229Y-9999793D02*
X11679705Y-10037889D01*
X11679705Y-10037889D02*
X11670182Y-10056936D01*
X11670182Y-10056936D02*
X11660658Y-10066460D01*
X11660658Y-10066460D02*
X11641610Y-10075984D01*
X11641610Y-10075984D02*
X11622562Y-10075984D01*
X11622562Y-10075984D02*
X11603515Y-10066460D01*
X11603515Y-10066460D02*
X11593991Y-10056936D01*
X11593991Y-10056936D02*
X11584467Y-10037889D01*
X11584467Y-10037889D02*
X11574943Y-9999793D01*
X11574943Y-9999793D02*
X11574943Y-9952174D01*
X11574943Y-9952174D02*
X11584467Y-9914079D01*
X11584467Y-9914079D02*
X11593991Y-9895031D01*
X11593991Y-9895031D02*
X11603515Y-9885508D01*
X11603515Y-9885508D02*
X11622562Y-9875984D01*
X11813039Y-9875984D02*
X11832086Y-9875984D01*
X11832086Y-9875984D02*
X11851134Y-9885508D01*
X11851134Y-9885508D02*
X11860658Y-9895031D01*
X11860658Y-9895031D02*
X11870182Y-9914079D01*
X11870182Y-9914079D02*
X11879705Y-9952174D01*
X11879705Y-9952174D02*
X11879705Y-9999793D01*
X11879705Y-9999793D02*
X11870182Y-10037889D01*
X11870182Y-10037889D02*
X11860658Y-10056936D01*
X11860658Y-10056936D02*
X11851134Y-10066460D01*
X11851134Y-10066460D02*
X11832086Y-10075984D01*
X11832086Y-10075984D02*
X11813039Y-10075984D01*
X11813039Y-10075984D02*
X11793991Y-10066460D01*
X11793991Y-10066460D02*
X11784467Y-10056936D01*
X11784467Y-10056936D02*
X11774943Y-10037889D01*
X11774943Y-10037889D02*
X11765420Y-9999793D01*
X11765420Y-9999793D02*
X11765420Y-9952174D01*
X11765420Y-9952174D02*
X11774943Y-9914079D01*
X11774943Y-9914079D02*
X11784467Y-9895031D01*
X11784467Y-9895031D02*
X11793991Y-9885508D01*
X11793991Y-9885508D02*
X11813039Y-9875984D01*
X11965420Y-10075984D02*
X11965420Y-9942650D01*
X11965420Y-9961698D02*
X11974943Y-9952174D01*
X11974943Y-9952174D02*
X11993991Y-9942650D01*
X11993991Y-9942650D02*
X12022563Y-9942650D01*
X12022563Y-9942650D02*
X12041610Y-9952174D01*
X12041610Y-9952174D02*
X12051134Y-9971222D01*
X12051134Y-9971222D02*
X12051134Y-10075984D01*
X12051134Y-9971222D02*
X12060658Y-9952174D01*
X12060658Y-9952174D02*
X12079705Y-9942650D01*
X12079705Y-9942650D02*
X12108277Y-9942650D01*
X12108277Y-9942650D02*
X12127324Y-9952174D01*
X12127324Y-9952174D02*
X12136848Y-9971222D01*
X12136848Y-9971222D02*
X12136848Y-10075984D01*
X12232086Y-10075984D02*
X12232086Y-9942650D01*
X12232086Y-9961698D02*
X12241610Y-9952174D01*
X12241610Y-9952174D02*
X12260658Y-9942650D01*
X12260658Y-9942650D02*
X12289229Y-9942650D01*
X12289229Y-9942650D02*
X12308277Y-9952174D01*
X12308277Y-9952174D02*
X12317801Y-9971222D01*
X12317801Y-9971222D02*
X12317801Y-10075984D01*
X12317801Y-9971222D02*
X12327324Y-9952174D01*
X12327324Y-9952174D02*
X12346372Y-9942650D01*
X12346372Y-9942650D02*
X12374943Y-9942650D01*
X12374943Y-9942650D02*
X12393991Y-9952174D01*
X12393991Y-9952174D02*
X12403515Y-9971222D01*
X12403515Y-9971222D02*
X12403515Y-10075984D01*
X12793991Y-9866460D02*
X12622563Y-10123603D01*
X13051134Y-9875984D02*
X13070182Y-9875984D01*
X13070182Y-9875984D02*
X13089229Y-9885508D01*
X13089229Y-9885508D02*
X13098753Y-9895031D01*
X13098753Y-9895031D02*
X13108277Y-9914079D01*
X13108277Y-9914079D02*
X13117801Y-9952174D01*
X13117801Y-9952174D02*
X13117801Y-9999793D01*
X13117801Y-9999793D02*
X13108277Y-10037889D01*
X13108277Y-10037889D02*
X13098753Y-10056936D01*
X13098753Y-10056936D02*
X13089229Y-10066460D01*
X13089229Y-10066460D02*
X13070182Y-10075984D01*
X13070182Y-10075984D02*
X13051134Y-10075984D01*
X13051134Y-10075984D02*
X13032086Y-10066460D01*
X13032086Y-10066460D02*
X13022563Y-10056936D01*
X13022563Y-10056936D02*
X13013039Y-10037889D01*
X13013039Y-10037889D02*
X13003515Y-9999793D01*
X13003515Y-9999793D02*
X13003515Y-9952174D01*
X13003515Y-9952174D02*
X13013039Y-9914079D01*
X13013039Y-9914079D02*
X13022563Y-9895031D01*
X13022563Y-9895031D02*
X13032086Y-9885508D01*
X13032086Y-9885508D02*
X13051134Y-9875984D01*
X13203515Y-10056936D02*
X13213039Y-10066460D01*
X13213039Y-10066460D02*
X13203515Y-10075984D01*
X13203515Y-10075984D02*
X13193991Y-10066460D01*
X13193991Y-10066460D02*
X13203515Y-10056936D01*
X13203515Y-10056936D02*
X13203515Y-10075984D01*
X13336848Y-9875984D02*
X13355896Y-9875984D01*
X13355896Y-9875984D02*
X13374944Y-9885508D01*
X13374944Y-9885508D02*
X13384467Y-9895031D01*
X13384467Y-9895031D02*
X13393991Y-9914079D01*
X13393991Y-9914079D02*
X13403515Y-9952174D01*
X13403515Y-9952174D02*
X13403515Y-9999793D01*
X13403515Y-9999793D02*
X13393991Y-10037889D01*
X13393991Y-10037889D02*
X13384467Y-10056936D01*
X13384467Y-10056936D02*
X13374944Y-10066460D01*
X13374944Y-10066460D02*
X13355896Y-10075984D01*
X13355896Y-10075984D02*
X13336848Y-10075984D01*
X13336848Y-10075984D02*
X13317801Y-10066460D01*
X13317801Y-10066460D02*
X13308277Y-10056936D01*
X13308277Y-10056936D02*
X13298753Y-10037889D01*
X13298753Y-10037889D02*
X13289229Y-9999793D01*
X13289229Y-9999793D02*
X13289229Y-9952174D01*
X13289229Y-9952174D02*
X13298753Y-9914079D01*
X13298753Y-9914079D02*
X13308277Y-9895031D01*
X13308277Y-9895031D02*
X13317801Y-9885508D01*
X13317801Y-9885508D02*
X13336848Y-9875984D01*
X13470182Y-9875984D02*
X13593991Y-9875984D01*
X13593991Y-9875984D02*
X13527325Y-9952174D01*
X13527325Y-9952174D02*
X13555896Y-9952174D01*
X13555896Y-9952174D02*
X13574944Y-9961698D01*
X13574944Y-9961698D02*
X13584467Y-9971222D01*
X13584467Y-9971222D02*
X13593991Y-9990270D01*
X13593991Y-9990270D02*
X13593991Y-10037889D01*
X13593991Y-10037889D02*
X13584467Y-10056936D01*
X13584467Y-10056936D02*
X13574944Y-10066460D01*
X13574944Y-10066460D02*
X13555896Y-10075984D01*
X13555896Y-10075984D02*
X13498753Y-10075984D01*
X13498753Y-10075984D02*
X13479706Y-10066460D01*
X13479706Y-10066460D02*
X13470182Y-10056936D01*
X13689229Y-10075984D02*
X13727325Y-10075984D01*
X13727325Y-10075984D02*
X13746372Y-10066460D01*
X13746372Y-10066460D02*
X13755896Y-10056936D01*
X13755896Y-10056936D02*
X13774944Y-10028365D01*
X13774944Y-10028365D02*
X13784467Y-9990270D01*
X13784467Y-9990270D02*
X13784467Y-9914079D01*
X13784467Y-9914079D02*
X13774944Y-9895031D01*
X13774944Y-9895031D02*
X13765420Y-9885508D01*
X13765420Y-9885508D02*
X13746372Y-9875984D01*
X13746372Y-9875984D02*
X13708277Y-9875984D01*
X13708277Y-9875984D02*
X13689229Y-9885508D01*
X13689229Y-9885508D02*
X13679706Y-9895031D01*
X13679706Y-9895031D02*
X13670182Y-9914079D01*
X13670182Y-9914079D02*
X13670182Y-9961698D01*
X13670182Y-9961698D02*
X13679706Y-9980746D01*
X13679706Y-9980746D02*
X13689229Y-9990270D01*
X13689229Y-9990270D02*
X13708277Y-9999793D01*
X13708277Y-9999793D02*
X13746372Y-9999793D01*
X13746372Y-9999793D02*
X13765420Y-9990270D01*
X13765420Y-9990270D02*
X13774944Y-9980746D01*
X13774944Y-9980746D02*
X13784467Y-9961698D01*
X13955896Y-9942650D02*
X13955896Y-10075984D01*
X13908277Y-9866460D02*
X13860658Y-10009317D01*
X13860658Y-10009317D02*
X13984467Y-10009317D01*
X14051134Y-9875984D02*
X14051134Y-9914079D01*
X14127325Y-9875984D02*
X14127325Y-9914079D01*
X14422563Y-10152174D02*
X14413039Y-10142650D01*
X14413039Y-10142650D02*
X14393991Y-10114079D01*
X14393991Y-10114079D02*
X14384468Y-10095031D01*
X14384468Y-10095031D02*
X14374944Y-10066460D01*
X14374944Y-10066460D02*
X14365420Y-10018841D01*
X14365420Y-10018841D02*
X14365420Y-9980746D01*
X14365420Y-9980746D02*
X14374944Y-9933127D01*
X14374944Y-9933127D02*
X14384468Y-9904555D01*
X14384468Y-9904555D02*
X14393991Y-9885508D01*
X14393991Y-9885508D02*
X14413039Y-9856936D01*
X14413039Y-9856936D02*
X14422563Y-9847412D01*
X14479706Y-9875984D02*
X14603515Y-9875984D01*
X14603515Y-9875984D02*
X14536848Y-9952174D01*
X14536848Y-9952174D02*
X14565420Y-9952174D01*
X14565420Y-9952174D02*
X14584468Y-9961698D01*
X14584468Y-9961698D02*
X14593991Y-9971222D01*
X14593991Y-9971222D02*
X14603515Y-9990270D01*
X14603515Y-9990270D02*
X14603515Y-10037889D01*
X14603515Y-10037889D02*
X14593991Y-10056936D01*
X14593991Y-10056936D02*
X14584468Y-10066460D01*
X14584468Y-10066460D02*
X14565420Y-10075984D01*
X14565420Y-10075984D02*
X14508277Y-10075984D01*
X14508277Y-10075984D02*
X14489229Y-10066460D01*
X14489229Y-10066460D02*
X14479706Y-10056936D01*
X14841610Y-10075984D02*
X14841610Y-9875984D01*
X14927325Y-10075984D02*
X14927325Y-9971222D01*
X14927325Y-9971222D02*
X14917801Y-9952174D01*
X14917801Y-9952174D02*
X14898753Y-9942650D01*
X14898753Y-9942650D02*
X14870182Y-9942650D01*
X14870182Y-9942650D02*
X14851134Y-9952174D01*
X14851134Y-9952174D02*
X14841610Y-9961698D01*
X15051134Y-10075984D02*
X15032087Y-10066460D01*
X15032087Y-10066460D02*
X15022563Y-10056936D01*
X15022563Y-10056936D02*
X15013039Y-10037889D01*
X15013039Y-10037889D02*
X15013039Y-9980746D01*
X15013039Y-9980746D02*
X15022563Y-9961698D01*
X15022563Y-9961698D02*
X15032087Y-9952174D01*
X15032087Y-9952174D02*
X15051134Y-9942650D01*
X15051134Y-9942650D02*
X15079706Y-9942650D01*
X15079706Y-9942650D02*
X15098753Y-9952174D01*
X15098753Y-9952174D02*
X15108277Y-9961698D01*
X15108277Y-9961698D02*
X15117801Y-9980746D01*
X15117801Y-9980746D02*
X15117801Y-10037889D01*
X15117801Y-10037889D02*
X15108277Y-10056936D01*
X15108277Y-10056936D02*
X15098753Y-10066460D01*
X15098753Y-10066460D02*
X15079706Y-10075984D01*
X15079706Y-10075984D02*
X15051134Y-10075984D01*
X15232087Y-10075984D02*
X15213039Y-10066460D01*
X15213039Y-10066460D02*
X15203515Y-10047412D01*
X15203515Y-10047412D02*
X15203515Y-9875984D01*
X15384468Y-10066460D02*
X15365420Y-10075984D01*
X15365420Y-10075984D02*
X15327325Y-10075984D01*
X15327325Y-10075984D02*
X15308277Y-10066460D01*
X15308277Y-10066460D02*
X15298753Y-10047412D01*
X15298753Y-10047412D02*
X15298753Y-9971222D01*
X15298753Y-9971222D02*
X15308277Y-9952174D01*
X15308277Y-9952174D02*
X15327325Y-9942650D01*
X15327325Y-9942650D02*
X15365420Y-9942650D01*
X15365420Y-9942650D02*
X15384468Y-9952174D01*
X15384468Y-9952174D02*
X15393991Y-9971222D01*
X15393991Y-9971222D02*
X15393991Y-9990270D01*
X15393991Y-9990270D02*
X15298753Y-10009317D01*
X15470182Y-10066460D02*
X15489230Y-10075984D01*
X15489230Y-10075984D02*
X15527325Y-10075984D01*
X15527325Y-10075984D02*
X15546372Y-10066460D01*
X15546372Y-10066460D02*
X15555896Y-10047412D01*
X15555896Y-10047412D02*
X15555896Y-10037889D01*
X15555896Y-10037889D02*
X15546372Y-10018841D01*
X15546372Y-10018841D02*
X15527325Y-10009317D01*
X15527325Y-10009317D02*
X15498753Y-10009317D01*
X15498753Y-10009317D02*
X15479706Y-9999793D01*
X15479706Y-9999793D02*
X15470182Y-9980746D01*
X15470182Y-9980746D02*
X15470182Y-9971222D01*
X15470182Y-9971222D02*
X15479706Y-9952174D01*
X15479706Y-9952174D02*
X15498753Y-9942650D01*
X15498753Y-9942650D02*
X15527325Y-9942650D01*
X15527325Y-9942650D02*
X15546372Y-9952174D01*
X15622563Y-10152174D02*
X15632087Y-10142650D01*
X15632087Y-10142650D02*
X15651134Y-10114079D01*
X15651134Y-10114079D02*
X15660658Y-10095031D01*
X15660658Y-10095031D02*
X15670182Y-10066460D01*
X15670182Y-10066460D02*
X15679706Y-10018841D01*
X15679706Y-10018841D02*
X15679706Y-9980746D01*
X15679706Y-9980746D02*
X15670182Y-9933127D01*
X15670182Y-9933127D02*
X15660658Y-9904555D01*
X15660658Y-9904555D02*
X15651134Y-9885508D01*
X15651134Y-9885508D02*
X15632087Y-9856936D01*
X15632087Y-9856936D02*
X15622563Y-9847412D01*
D13*
X10792500Y-10303500D02*
X10847500Y-10248500D01*
X10792500Y-10193500D01*
X10737500Y-10248500D01*
X10792500Y-10303500D01*
D11*
X11213039Y-10339984D02*
X11098753Y-10339984D01*
X11155896Y-10339984D02*
X11155896Y-10139984D01*
X11155896Y-10139984D02*
X11136848Y-10168555D01*
X11136848Y-10168555D02*
X11117801Y-10187603D01*
X11117801Y-10187603D02*
X11098753Y-10197127D01*
X11298753Y-10320936D02*
X11308277Y-10330460D01*
X11308277Y-10330460D02*
X11298753Y-10339984D01*
X11298753Y-10339984D02*
X11289229Y-10330460D01*
X11289229Y-10330460D02*
X11298753Y-10320936D01*
X11298753Y-10320936D02*
X11298753Y-10339984D01*
X11498753Y-10339984D02*
X11384467Y-10339984D01*
X11441610Y-10339984D02*
X11441610Y-10139984D01*
X11441610Y-10139984D02*
X11422562Y-10168555D01*
X11422562Y-10168555D02*
X11403515Y-10187603D01*
X11403515Y-10187603D02*
X11384467Y-10197127D01*
X11622562Y-10139984D02*
X11641610Y-10139984D01*
X11641610Y-10139984D02*
X11660658Y-10149508D01*
X11660658Y-10149508D02*
X11670182Y-10159031D01*
X11670182Y-10159031D02*
X11679705Y-10178079D01*
X11679705Y-10178079D02*
X11689229Y-10216174D01*
X11689229Y-10216174D02*
X11689229Y-10263793D01*
X11689229Y-10263793D02*
X11679705Y-10301889D01*
X11679705Y-10301889D02*
X11670182Y-10320936D01*
X11670182Y-10320936D02*
X11660658Y-10330460D01*
X11660658Y-10330460D02*
X11641610Y-10339984D01*
X11641610Y-10339984D02*
X11622562Y-10339984D01*
X11622562Y-10339984D02*
X11603515Y-10330460D01*
X11603515Y-10330460D02*
X11593991Y-10320936D01*
X11593991Y-10320936D02*
X11584467Y-10301889D01*
X11584467Y-10301889D02*
X11574943Y-10263793D01*
X11574943Y-10263793D02*
X11574943Y-10216174D01*
X11574943Y-10216174D02*
X11584467Y-10178079D01*
X11584467Y-10178079D02*
X11593991Y-10159031D01*
X11593991Y-10159031D02*
X11603515Y-10149508D01*
X11603515Y-10149508D02*
X11622562Y-10139984D01*
X11813039Y-10139984D02*
X11832086Y-10139984D01*
X11832086Y-10139984D02*
X11851134Y-10149508D01*
X11851134Y-10149508D02*
X11860658Y-10159031D01*
X11860658Y-10159031D02*
X11870182Y-10178079D01*
X11870182Y-10178079D02*
X11879705Y-10216174D01*
X11879705Y-10216174D02*
X11879705Y-10263793D01*
X11879705Y-10263793D02*
X11870182Y-10301889D01*
X11870182Y-10301889D02*
X11860658Y-10320936D01*
X11860658Y-10320936D02*
X11851134Y-10330460D01*
X11851134Y-10330460D02*
X11832086Y-10339984D01*
X11832086Y-10339984D02*
X11813039Y-10339984D01*
X11813039Y-10339984D02*
X11793991Y-10330460D01*
X11793991Y-10330460D02*
X11784467Y-10320936D01*
X11784467Y-10320936D02*
X11774943Y-10301889D01*
X11774943Y-10301889D02*
X11765420Y-10263793D01*
X11765420Y-10263793D02*
X11765420Y-10216174D01*
X11765420Y-10216174D02*
X11774943Y-10178079D01*
X11774943Y-10178079D02*
X11784467Y-10159031D01*
X11784467Y-10159031D02*
X11793991Y-10149508D01*
X11793991Y-10149508D02*
X11813039Y-10139984D01*
X11965420Y-10339984D02*
X11965420Y-10206650D01*
X11965420Y-10225698D02*
X11974943Y-10216174D01*
X11974943Y-10216174D02*
X11993991Y-10206650D01*
X11993991Y-10206650D02*
X12022563Y-10206650D01*
X12022563Y-10206650D02*
X12041610Y-10216174D01*
X12041610Y-10216174D02*
X12051134Y-10235222D01*
X12051134Y-10235222D02*
X12051134Y-10339984D01*
X12051134Y-10235222D02*
X12060658Y-10216174D01*
X12060658Y-10216174D02*
X12079705Y-10206650D01*
X12079705Y-10206650D02*
X12108277Y-10206650D01*
X12108277Y-10206650D02*
X12127324Y-10216174D01*
X12127324Y-10216174D02*
X12136848Y-10235222D01*
X12136848Y-10235222D02*
X12136848Y-10339984D01*
X12232086Y-10339984D02*
X12232086Y-10206650D01*
X12232086Y-10225698D02*
X12241610Y-10216174D01*
X12241610Y-10216174D02*
X12260658Y-10206650D01*
X12260658Y-10206650D02*
X12289229Y-10206650D01*
X12289229Y-10206650D02*
X12308277Y-10216174D01*
X12308277Y-10216174D02*
X12317801Y-10235222D01*
X12317801Y-10235222D02*
X12317801Y-10339984D01*
X12317801Y-10235222D02*
X12327324Y-10216174D01*
X12327324Y-10216174D02*
X12346372Y-10206650D01*
X12346372Y-10206650D02*
X12374943Y-10206650D01*
X12374943Y-10206650D02*
X12393991Y-10216174D01*
X12393991Y-10216174D02*
X12403515Y-10235222D01*
X12403515Y-10235222D02*
X12403515Y-10339984D01*
X12793991Y-10130460D02*
X12622563Y-10387603D01*
X13051134Y-10139984D02*
X13070182Y-10139984D01*
X13070182Y-10139984D02*
X13089229Y-10149508D01*
X13089229Y-10149508D02*
X13098753Y-10159031D01*
X13098753Y-10159031D02*
X13108277Y-10178079D01*
X13108277Y-10178079D02*
X13117801Y-10216174D01*
X13117801Y-10216174D02*
X13117801Y-10263793D01*
X13117801Y-10263793D02*
X13108277Y-10301889D01*
X13108277Y-10301889D02*
X13098753Y-10320936D01*
X13098753Y-10320936D02*
X13089229Y-10330460D01*
X13089229Y-10330460D02*
X13070182Y-10339984D01*
X13070182Y-10339984D02*
X13051134Y-10339984D01*
X13051134Y-10339984D02*
X13032086Y-10330460D01*
X13032086Y-10330460D02*
X13022563Y-10320936D01*
X13022563Y-10320936D02*
X13013039Y-10301889D01*
X13013039Y-10301889D02*
X13003515Y-10263793D01*
X13003515Y-10263793D02*
X13003515Y-10216174D01*
X13003515Y-10216174D02*
X13013039Y-10178079D01*
X13013039Y-10178079D02*
X13022563Y-10159031D01*
X13022563Y-10159031D02*
X13032086Y-10149508D01*
X13032086Y-10149508D02*
X13051134Y-10139984D01*
X13203515Y-10320936D02*
X13213039Y-10330460D01*
X13213039Y-10330460D02*
X13203515Y-10339984D01*
X13203515Y-10339984D02*
X13193991Y-10330460D01*
X13193991Y-10330460D02*
X13203515Y-10320936D01*
X13203515Y-10320936D02*
X13203515Y-10339984D01*
X13336848Y-10139984D02*
X13355896Y-10139984D01*
X13355896Y-10139984D02*
X13374944Y-10149508D01*
X13374944Y-10149508D02*
X13384467Y-10159031D01*
X13384467Y-10159031D02*
X13393991Y-10178079D01*
X13393991Y-10178079D02*
X13403515Y-10216174D01*
X13403515Y-10216174D02*
X13403515Y-10263793D01*
X13403515Y-10263793D02*
X13393991Y-10301889D01*
X13393991Y-10301889D02*
X13384467Y-10320936D01*
X13384467Y-10320936D02*
X13374944Y-10330460D01*
X13374944Y-10330460D02*
X13355896Y-10339984D01*
X13355896Y-10339984D02*
X13336848Y-10339984D01*
X13336848Y-10339984D02*
X13317801Y-10330460D01*
X13317801Y-10330460D02*
X13308277Y-10320936D01*
X13308277Y-10320936D02*
X13298753Y-10301889D01*
X13298753Y-10301889D02*
X13289229Y-10263793D01*
X13289229Y-10263793D02*
X13289229Y-10216174D01*
X13289229Y-10216174D02*
X13298753Y-10178079D01*
X13298753Y-10178079D02*
X13308277Y-10159031D01*
X13308277Y-10159031D02*
X13317801Y-10149508D01*
X13317801Y-10149508D02*
X13336848Y-10139984D01*
X13574944Y-10206650D02*
X13574944Y-10339984D01*
X13527325Y-10130460D02*
X13479706Y-10273317D01*
X13479706Y-10273317D02*
X13603515Y-10273317D01*
X13660658Y-10139984D02*
X13784467Y-10139984D01*
X13784467Y-10139984D02*
X13717801Y-10216174D01*
X13717801Y-10216174D02*
X13746372Y-10216174D01*
X13746372Y-10216174D02*
X13765420Y-10225698D01*
X13765420Y-10225698D02*
X13774944Y-10235222D01*
X13774944Y-10235222D02*
X13784467Y-10254270D01*
X13784467Y-10254270D02*
X13784467Y-10301889D01*
X13784467Y-10301889D02*
X13774944Y-10320936D01*
X13774944Y-10320936D02*
X13765420Y-10330460D01*
X13765420Y-10330460D02*
X13746372Y-10339984D01*
X13746372Y-10339984D02*
X13689229Y-10339984D01*
X13689229Y-10339984D02*
X13670182Y-10330460D01*
X13670182Y-10330460D02*
X13660658Y-10320936D01*
X13851134Y-10139984D02*
X13974944Y-10139984D01*
X13974944Y-10139984D02*
X13908277Y-10216174D01*
X13908277Y-10216174D02*
X13936848Y-10216174D01*
X13936848Y-10216174D02*
X13955896Y-10225698D01*
X13955896Y-10225698D02*
X13965420Y-10235222D01*
X13965420Y-10235222D02*
X13974944Y-10254270D01*
X13974944Y-10254270D02*
X13974944Y-10301889D01*
X13974944Y-10301889D02*
X13965420Y-10320936D01*
X13965420Y-10320936D02*
X13955896Y-10330460D01*
X13955896Y-10330460D02*
X13936848Y-10339984D01*
X13936848Y-10339984D02*
X13879706Y-10339984D01*
X13879706Y-10339984D02*
X13860658Y-10330460D01*
X13860658Y-10330460D02*
X13851134Y-10320936D01*
X14051134Y-10139984D02*
X14051134Y-10178079D01*
X14127325Y-10139984D02*
X14127325Y-10178079D01*
X14422563Y-10416174D02*
X14413039Y-10406650D01*
X14413039Y-10406650D02*
X14393991Y-10378079D01*
X14393991Y-10378079D02*
X14384468Y-10359031D01*
X14384468Y-10359031D02*
X14374944Y-10330460D01*
X14374944Y-10330460D02*
X14365420Y-10282841D01*
X14365420Y-10282841D02*
X14365420Y-10244746D01*
X14365420Y-10244746D02*
X14374944Y-10197127D01*
X14374944Y-10197127D02*
X14384468Y-10168555D01*
X14384468Y-10168555D02*
X14393991Y-10149508D01*
X14393991Y-10149508D02*
X14413039Y-10120936D01*
X14413039Y-10120936D02*
X14422563Y-10111412D01*
X14536848Y-10139984D02*
X14555896Y-10139984D01*
X14555896Y-10139984D02*
X14574944Y-10149508D01*
X14574944Y-10149508D02*
X14584468Y-10159031D01*
X14584468Y-10159031D02*
X14593991Y-10178079D01*
X14593991Y-10178079D02*
X14603515Y-10216174D01*
X14603515Y-10216174D02*
X14603515Y-10263793D01*
X14603515Y-10263793D02*
X14593991Y-10301889D01*
X14593991Y-10301889D02*
X14584468Y-10320936D01*
X14584468Y-10320936D02*
X14574944Y-10330460D01*
X14574944Y-10330460D02*
X14555896Y-10339984D01*
X14555896Y-10339984D02*
X14536848Y-10339984D01*
X14536848Y-10339984D02*
X14517801Y-10330460D01*
X14517801Y-10330460D02*
X14508277Y-10320936D01*
X14508277Y-10320936D02*
X14498753Y-10301889D01*
X14498753Y-10301889D02*
X14489229Y-10263793D01*
X14489229Y-10263793D02*
X14489229Y-10216174D01*
X14489229Y-10216174D02*
X14498753Y-10178079D01*
X14498753Y-10178079D02*
X14508277Y-10159031D01*
X14508277Y-10159031D02*
X14517801Y-10149508D01*
X14517801Y-10149508D02*
X14536848Y-10139984D01*
X14841610Y-10339984D02*
X14841610Y-10139984D01*
X14927325Y-10339984D02*
X14927325Y-10235222D01*
X14927325Y-10235222D02*
X14917801Y-10216174D01*
X14917801Y-10216174D02*
X14898753Y-10206650D01*
X14898753Y-10206650D02*
X14870182Y-10206650D01*
X14870182Y-10206650D02*
X14851134Y-10216174D01*
X14851134Y-10216174D02*
X14841610Y-10225698D01*
X15051134Y-10339984D02*
X15032087Y-10330460D01*
X15032087Y-10330460D02*
X15022563Y-10320936D01*
X15022563Y-10320936D02*
X15013039Y-10301889D01*
X15013039Y-10301889D02*
X15013039Y-10244746D01*
X15013039Y-10244746D02*
X15022563Y-10225698D01*
X15022563Y-10225698D02*
X15032087Y-10216174D01*
X15032087Y-10216174D02*
X15051134Y-10206650D01*
X15051134Y-10206650D02*
X15079706Y-10206650D01*
X15079706Y-10206650D02*
X15098753Y-10216174D01*
X15098753Y-10216174D02*
X15108277Y-10225698D01*
X15108277Y-10225698D02*
X15117801Y-10244746D01*
X15117801Y-10244746D02*
X15117801Y-10301889D01*
X15117801Y-10301889D02*
X15108277Y-10320936D01*
X15108277Y-10320936D02*
X15098753Y-10330460D01*
X15098753Y-10330460D02*
X15079706Y-10339984D01*
X15079706Y-10339984D02*
X15051134Y-10339984D01*
X15232087Y-10339984D02*
X15213039Y-10330460D01*
X15213039Y-10330460D02*
X15203515Y-10311412D01*
X15203515Y-10311412D02*
X15203515Y-10139984D01*
X15384468Y-10330460D02*
X15365420Y-10339984D01*
X15365420Y-10339984D02*
X15327325Y-10339984D01*
X15327325Y-10339984D02*
X15308277Y-10330460D01*
X15308277Y-10330460D02*
X15298753Y-10311412D01*
X15298753Y-10311412D02*
X15298753Y-10235222D01*
X15298753Y-10235222D02*
X15308277Y-10216174D01*
X15308277Y-10216174D02*
X15327325Y-10206650D01*
X15327325Y-10206650D02*
X15365420Y-10206650D01*
X15365420Y-10206650D02*
X15384468Y-10216174D01*
X15384468Y-10216174D02*
X15393991Y-10235222D01*
X15393991Y-10235222D02*
X15393991Y-10254270D01*
X15393991Y-10254270D02*
X15298753Y-10273317D01*
X15470182Y-10330460D02*
X15489230Y-10339984D01*
X15489230Y-10339984D02*
X15527325Y-10339984D01*
X15527325Y-10339984D02*
X15546372Y-10330460D01*
X15546372Y-10330460D02*
X15555896Y-10311412D01*
X15555896Y-10311412D02*
X15555896Y-10301889D01*
X15555896Y-10301889D02*
X15546372Y-10282841D01*
X15546372Y-10282841D02*
X15527325Y-10273317D01*
X15527325Y-10273317D02*
X15498753Y-10273317D01*
X15498753Y-10273317D02*
X15479706Y-10263793D01*
X15479706Y-10263793D02*
X15470182Y-10244746D01*
X15470182Y-10244746D02*
X15470182Y-10235222D01*
X15470182Y-10235222D02*
X15479706Y-10216174D01*
X15479706Y-10216174D02*
X15498753Y-10206650D01*
X15498753Y-10206650D02*
X15527325Y-10206650D01*
X15527325Y-10206650D02*
X15546372Y-10216174D01*
X15793992Y-10263793D02*
X15946373Y-10263793D01*
X15870182Y-10339984D02*
X15870182Y-10187603D01*
X16184468Y-10159031D02*
X16193992Y-10149508D01*
X16193992Y-10149508D02*
X16213039Y-10139984D01*
X16213039Y-10139984D02*
X16260658Y-10139984D01*
X16260658Y-10139984D02*
X16279706Y-10149508D01*
X16279706Y-10149508D02*
X16289230Y-10159031D01*
X16289230Y-10159031D02*
X16298753Y-10178079D01*
X16298753Y-10178079D02*
X16298753Y-10197127D01*
X16298753Y-10197127D02*
X16289230Y-10225698D01*
X16289230Y-10225698D02*
X16174944Y-10339984D01*
X16174944Y-10339984D02*
X16298753Y-10339984D01*
X16527325Y-10330460D02*
X16546373Y-10339984D01*
X16546373Y-10339984D02*
X16584468Y-10339984D01*
X16584468Y-10339984D02*
X16603515Y-10330460D01*
X16603515Y-10330460D02*
X16613039Y-10311412D01*
X16613039Y-10311412D02*
X16613039Y-10301889D01*
X16613039Y-10301889D02*
X16603515Y-10282841D01*
X16603515Y-10282841D02*
X16584468Y-10273317D01*
X16584468Y-10273317D02*
X16555896Y-10273317D01*
X16555896Y-10273317D02*
X16536849Y-10263793D01*
X16536849Y-10263793D02*
X16527325Y-10244746D01*
X16527325Y-10244746D02*
X16527325Y-10235222D01*
X16527325Y-10235222D02*
X16536849Y-10216174D01*
X16536849Y-10216174D02*
X16555896Y-10206650D01*
X16555896Y-10206650D02*
X16584468Y-10206650D01*
X16584468Y-10206650D02*
X16603515Y-10216174D01*
X16727325Y-10339984D02*
X16708277Y-10330460D01*
X16708277Y-10330460D02*
X16698754Y-10311412D01*
X16698754Y-10311412D02*
X16698754Y-10139984D01*
X16832087Y-10339984D02*
X16813039Y-10330460D01*
X16813039Y-10330460D02*
X16803516Y-10320936D01*
X16803516Y-10320936D02*
X16793992Y-10301889D01*
X16793992Y-10301889D02*
X16793992Y-10244746D01*
X16793992Y-10244746D02*
X16803516Y-10225698D01*
X16803516Y-10225698D02*
X16813039Y-10216174D01*
X16813039Y-10216174D02*
X16832087Y-10206650D01*
X16832087Y-10206650D02*
X16860658Y-10206650D01*
X16860658Y-10206650D02*
X16879706Y-10216174D01*
X16879706Y-10216174D02*
X16889230Y-10225698D01*
X16889230Y-10225698D02*
X16898754Y-10244746D01*
X16898754Y-10244746D02*
X16898754Y-10301889D01*
X16898754Y-10301889D02*
X16889230Y-10320936D01*
X16889230Y-10320936D02*
X16879706Y-10330460D01*
X16879706Y-10330460D02*
X16860658Y-10339984D01*
X16860658Y-10339984D02*
X16832087Y-10339984D01*
X16955897Y-10206650D02*
X17032087Y-10206650D01*
X16984468Y-10139984D02*
X16984468Y-10311412D01*
X16984468Y-10311412D02*
X16993992Y-10330460D01*
X16993992Y-10330460D02*
X17013039Y-10339984D01*
X17013039Y-10339984D02*
X17032087Y-10339984D01*
X17089230Y-10330460D02*
X17108277Y-10339984D01*
X17108277Y-10339984D02*
X17146373Y-10339984D01*
X17146373Y-10339984D02*
X17165420Y-10330460D01*
X17165420Y-10330460D02*
X17174944Y-10311412D01*
X17174944Y-10311412D02*
X17174944Y-10301889D01*
X17174944Y-10301889D02*
X17165420Y-10282841D01*
X17165420Y-10282841D02*
X17146373Y-10273317D01*
X17146373Y-10273317D02*
X17117801Y-10273317D01*
X17117801Y-10273317D02*
X17098754Y-10263793D01*
X17098754Y-10263793D02*
X17089230Y-10244746D01*
X17089230Y-10244746D02*
X17089230Y-10235222D01*
X17089230Y-10235222D02*
X17098754Y-10216174D01*
X17098754Y-10216174D02*
X17117801Y-10206650D01*
X17117801Y-10206650D02*
X17146373Y-10206650D01*
X17146373Y-10206650D02*
X17165420Y-10216174D01*
X17241611Y-10416174D02*
X17251135Y-10406650D01*
X17251135Y-10406650D02*
X17270182Y-10378079D01*
X17270182Y-10378079D02*
X17279706Y-10359031D01*
X17279706Y-10359031D02*
X17289230Y-10330460D01*
X17289230Y-10330460D02*
X17298754Y-10282841D01*
X17298754Y-10282841D02*
X17298754Y-10244746D01*
X17298754Y-10244746D02*
X17289230Y-10197127D01*
X17289230Y-10197127D02*
X17279706Y-10168555D01*
X17279706Y-10168555D02*
X17270182Y-10149508D01*
X17270182Y-10149508D02*
X17251135Y-10120936D01*
X17251135Y-10120936D02*
X17241611Y-10111412D01*
D14*
X10695500Y-10436500D02*
X10847500Y-10588500D01*
X10847500Y-10436500D02*
X10695500Y-10588500D01*
X10847500Y-10512500D02*
G75*
G02*
X10695500Y-10512500I-76000J0D01*
G01*
X10695500Y-10512500D02*
G75*
G02*
X10847500Y-10512500I76000J0D01*
G01*
D11*
X11213039Y-10603984D02*
X11098753Y-10603984D01*
X11155896Y-10603984D02*
X11155896Y-10403984D01*
X11155896Y-10403984D02*
X11136848Y-10432555D01*
X11136848Y-10432555D02*
X11117801Y-10451603D01*
X11117801Y-10451603D02*
X11098753Y-10461127D01*
X11298753Y-10584936D02*
X11308277Y-10594460D01*
X11308277Y-10594460D02*
X11298753Y-10603984D01*
X11298753Y-10603984D02*
X11289229Y-10594460D01*
X11289229Y-10594460D02*
X11298753Y-10584936D01*
X11298753Y-10584936D02*
X11298753Y-10603984D01*
X11489229Y-10403984D02*
X11393991Y-10403984D01*
X11393991Y-10403984D02*
X11384467Y-10499222D01*
X11384467Y-10499222D02*
X11393991Y-10489698D01*
X11393991Y-10489698D02*
X11413039Y-10480174D01*
X11413039Y-10480174D02*
X11460658Y-10480174D01*
X11460658Y-10480174D02*
X11479705Y-10489698D01*
X11479705Y-10489698D02*
X11489229Y-10499222D01*
X11489229Y-10499222D02*
X11498753Y-10518270D01*
X11498753Y-10518270D02*
X11498753Y-10565889D01*
X11498753Y-10565889D02*
X11489229Y-10584936D01*
X11489229Y-10584936D02*
X11479705Y-10594460D01*
X11479705Y-10594460D02*
X11460658Y-10603984D01*
X11460658Y-10603984D02*
X11413039Y-10603984D01*
X11413039Y-10603984D02*
X11393991Y-10594460D01*
X11393991Y-10594460D02*
X11384467Y-10584936D01*
X11574943Y-10423031D02*
X11584467Y-10413508D01*
X11584467Y-10413508D02*
X11603515Y-10403984D01*
X11603515Y-10403984D02*
X11651134Y-10403984D01*
X11651134Y-10403984D02*
X11670182Y-10413508D01*
X11670182Y-10413508D02*
X11679705Y-10423031D01*
X11679705Y-10423031D02*
X11689229Y-10442079D01*
X11689229Y-10442079D02*
X11689229Y-10461127D01*
X11689229Y-10461127D02*
X11679705Y-10489698D01*
X11679705Y-10489698D02*
X11565420Y-10603984D01*
X11565420Y-10603984D02*
X11689229Y-10603984D01*
X11813039Y-10403984D02*
X11832086Y-10403984D01*
X11832086Y-10403984D02*
X11851134Y-10413508D01*
X11851134Y-10413508D02*
X11860658Y-10423031D01*
X11860658Y-10423031D02*
X11870182Y-10442079D01*
X11870182Y-10442079D02*
X11879705Y-10480174D01*
X11879705Y-10480174D02*
X11879705Y-10527793D01*
X11879705Y-10527793D02*
X11870182Y-10565889D01*
X11870182Y-10565889D02*
X11860658Y-10584936D01*
X11860658Y-10584936D02*
X11851134Y-10594460D01*
X11851134Y-10594460D02*
X11832086Y-10603984D01*
X11832086Y-10603984D02*
X11813039Y-10603984D01*
X11813039Y-10603984D02*
X11793991Y-10594460D01*
X11793991Y-10594460D02*
X11784467Y-10584936D01*
X11784467Y-10584936D02*
X11774943Y-10565889D01*
X11774943Y-10565889D02*
X11765420Y-10527793D01*
X11765420Y-10527793D02*
X11765420Y-10480174D01*
X11765420Y-10480174D02*
X11774943Y-10442079D01*
X11774943Y-10442079D02*
X11784467Y-10423031D01*
X11784467Y-10423031D02*
X11793991Y-10413508D01*
X11793991Y-10413508D02*
X11813039Y-10403984D01*
X11965420Y-10603984D02*
X11965420Y-10470650D01*
X11965420Y-10489698D02*
X11974943Y-10480174D01*
X11974943Y-10480174D02*
X11993991Y-10470650D01*
X11993991Y-10470650D02*
X12022563Y-10470650D01*
X12022563Y-10470650D02*
X12041610Y-10480174D01*
X12041610Y-10480174D02*
X12051134Y-10499222D01*
X12051134Y-10499222D02*
X12051134Y-10603984D01*
X12051134Y-10499222D02*
X12060658Y-10480174D01*
X12060658Y-10480174D02*
X12079705Y-10470650D01*
X12079705Y-10470650D02*
X12108277Y-10470650D01*
X12108277Y-10470650D02*
X12127324Y-10480174D01*
X12127324Y-10480174D02*
X12136848Y-10499222D01*
X12136848Y-10499222D02*
X12136848Y-10603984D01*
X12232086Y-10603984D02*
X12232086Y-10470650D01*
X12232086Y-10489698D02*
X12241610Y-10480174D01*
X12241610Y-10480174D02*
X12260658Y-10470650D01*
X12260658Y-10470650D02*
X12289229Y-10470650D01*
X12289229Y-10470650D02*
X12308277Y-10480174D01*
X12308277Y-10480174D02*
X12317801Y-10499222D01*
X12317801Y-10499222D02*
X12317801Y-10603984D01*
X12317801Y-10499222D02*
X12327324Y-10480174D01*
X12327324Y-10480174D02*
X12346372Y-10470650D01*
X12346372Y-10470650D02*
X12374943Y-10470650D01*
X12374943Y-10470650D02*
X12393991Y-10480174D01*
X12393991Y-10480174D02*
X12403515Y-10499222D01*
X12403515Y-10499222D02*
X12403515Y-10603984D01*
X12793991Y-10394460D02*
X12622563Y-10651603D01*
X13051134Y-10403984D02*
X13070182Y-10403984D01*
X13070182Y-10403984D02*
X13089229Y-10413508D01*
X13089229Y-10413508D02*
X13098753Y-10423031D01*
X13098753Y-10423031D02*
X13108277Y-10442079D01*
X13108277Y-10442079D02*
X13117801Y-10480174D01*
X13117801Y-10480174D02*
X13117801Y-10527793D01*
X13117801Y-10527793D02*
X13108277Y-10565889D01*
X13108277Y-10565889D02*
X13098753Y-10584936D01*
X13098753Y-10584936D02*
X13089229Y-10594460D01*
X13089229Y-10594460D02*
X13070182Y-10603984D01*
X13070182Y-10603984D02*
X13051134Y-10603984D01*
X13051134Y-10603984D02*
X13032086Y-10594460D01*
X13032086Y-10594460D02*
X13022563Y-10584936D01*
X13022563Y-10584936D02*
X13013039Y-10565889D01*
X13013039Y-10565889D02*
X13003515Y-10527793D01*
X13003515Y-10527793D02*
X13003515Y-10480174D01*
X13003515Y-10480174D02*
X13013039Y-10442079D01*
X13013039Y-10442079D02*
X13022563Y-10423031D01*
X13022563Y-10423031D02*
X13032086Y-10413508D01*
X13032086Y-10413508D02*
X13051134Y-10403984D01*
X13203515Y-10584936D02*
X13213039Y-10594460D01*
X13213039Y-10594460D02*
X13203515Y-10603984D01*
X13203515Y-10603984D02*
X13193991Y-10594460D01*
X13193991Y-10594460D02*
X13203515Y-10584936D01*
X13203515Y-10584936D02*
X13203515Y-10603984D01*
X13336848Y-10403984D02*
X13355896Y-10403984D01*
X13355896Y-10403984D02*
X13374944Y-10413508D01*
X13374944Y-10413508D02*
X13384467Y-10423031D01*
X13384467Y-10423031D02*
X13393991Y-10442079D01*
X13393991Y-10442079D02*
X13403515Y-10480174D01*
X13403515Y-10480174D02*
X13403515Y-10527793D01*
X13403515Y-10527793D02*
X13393991Y-10565889D01*
X13393991Y-10565889D02*
X13384467Y-10584936D01*
X13384467Y-10584936D02*
X13374944Y-10594460D01*
X13374944Y-10594460D02*
X13355896Y-10603984D01*
X13355896Y-10603984D02*
X13336848Y-10603984D01*
X13336848Y-10603984D02*
X13317801Y-10594460D01*
X13317801Y-10594460D02*
X13308277Y-10584936D01*
X13308277Y-10584936D02*
X13298753Y-10565889D01*
X13298753Y-10565889D02*
X13289229Y-10527793D01*
X13289229Y-10527793D02*
X13289229Y-10480174D01*
X13289229Y-10480174D02*
X13298753Y-10442079D01*
X13298753Y-10442079D02*
X13308277Y-10423031D01*
X13308277Y-10423031D02*
X13317801Y-10413508D01*
X13317801Y-10413508D02*
X13336848Y-10403984D01*
X13584467Y-10403984D02*
X13489229Y-10403984D01*
X13489229Y-10403984D02*
X13479706Y-10499222D01*
X13479706Y-10499222D02*
X13489229Y-10489698D01*
X13489229Y-10489698D02*
X13508277Y-10480174D01*
X13508277Y-10480174D02*
X13555896Y-10480174D01*
X13555896Y-10480174D02*
X13574944Y-10489698D01*
X13574944Y-10489698D02*
X13584467Y-10499222D01*
X13584467Y-10499222D02*
X13593991Y-10518270D01*
X13593991Y-10518270D02*
X13593991Y-10565889D01*
X13593991Y-10565889D02*
X13584467Y-10584936D01*
X13584467Y-10584936D02*
X13574944Y-10594460D01*
X13574944Y-10594460D02*
X13555896Y-10603984D01*
X13555896Y-10603984D02*
X13508277Y-10603984D01*
X13508277Y-10603984D02*
X13489229Y-10594460D01*
X13489229Y-10594460D02*
X13479706Y-10584936D01*
X13689229Y-10603984D02*
X13727325Y-10603984D01*
X13727325Y-10603984D02*
X13746372Y-10594460D01*
X13746372Y-10594460D02*
X13755896Y-10584936D01*
X13755896Y-10584936D02*
X13774944Y-10556365D01*
X13774944Y-10556365D02*
X13784467Y-10518270D01*
X13784467Y-10518270D02*
X13784467Y-10442079D01*
X13784467Y-10442079D02*
X13774944Y-10423031D01*
X13774944Y-10423031D02*
X13765420Y-10413508D01*
X13765420Y-10413508D02*
X13746372Y-10403984D01*
X13746372Y-10403984D02*
X13708277Y-10403984D01*
X13708277Y-10403984D02*
X13689229Y-10413508D01*
X13689229Y-10413508D02*
X13679706Y-10423031D01*
X13679706Y-10423031D02*
X13670182Y-10442079D01*
X13670182Y-10442079D02*
X13670182Y-10489698D01*
X13670182Y-10489698D02*
X13679706Y-10508746D01*
X13679706Y-10508746D02*
X13689229Y-10518270D01*
X13689229Y-10518270D02*
X13708277Y-10527793D01*
X13708277Y-10527793D02*
X13746372Y-10527793D01*
X13746372Y-10527793D02*
X13765420Y-10518270D01*
X13765420Y-10518270D02*
X13774944Y-10508746D01*
X13774944Y-10508746D02*
X13784467Y-10489698D01*
X13898753Y-10489698D02*
X13879706Y-10480174D01*
X13879706Y-10480174D02*
X13870182Y-10470650D01*
X13870182Y-10470650D02*
X13860658Y-10451603D01*
X13860658Y-10451603D02*
X13860658Y-10442079D01*
X13860658Y-10442079D02*
X13870182Y-10423031D01*
X13870182Y-10423031D02*
X13879706Y-10413508D01*
X13879706Y-10413508D02*
X13898753Y-10403984D01*
X13898753Y-10403984D02*
X13936848Y-10403984D01*
X13936848Y-10403984D02*
X13955896Y-10413508D01*
X13955896Y-10413508D02*
X13965420Y-10423031D01*
X13965420Y-10423031D02*
X13974944Y-10442079D01*
X13974944Y-10442079D02*
X13974944Y-10451603D01*
X13974944Y-10451603D02*
X13965420Y-10470650D01*
X13965420Y-10470650D02*
X13955896Y-10480174D01*
X13955896Y-10480174D02*
X13936848Y-10489698D01*
X13936848Y-10489698D02*
X13898753Y-10489698D01*
X13898753Y-10489698D02*
X13879706Y-10499222D01*
X13879706Y-10499222D02*
X13870182Y-10508746D01*
X13870182Y-10508746D02*
X13860658Y-10527793D01*
X13860658Y-10527793D02*
X13860658Y-10565889D01*
X13860658Y-10565889D02*
X13870182Y-10584936D01*
X13870182Y-10584936D02*
X13879706Y-10594460D01*
X13879706Y-10594460D02*
X13898753Y-10603984D01*
X13898753Y-10603984D02*
X13936848Y-10603984D01*
X13936848Y-10603984D02*
X13955896Y-10594460D01*
X13955896Y-10594460D02*
X13965420Y-10584936D01*
X13965420Y-10584936D02*
X13974944Y-10565889D01*
X13974944Y-10565889D02*
X13974944Y-10527793D01*
X13974944Y-10527793D02*
X13965420Y-10508746D01*
X13965420Y-10508746D02*
X13955896Y-10499222D01*
X13955896Y-10499222D02*
X13936848Y-10489698D01*
X14051134Y-10403984D02*
X14051134Y-10442079D01*
X14127325Y-10403984D02*
X14127325Y-10442079D01*
X14422563Y-10680174D02*
X14413039Y-10670650D01*
X14413039Y-10670650D02*
X14393991Y-10642079D01*
X14393991Y-10642079D02*
X14384468Y-10623031D01*
X14384468Y-10623031D02*
X14374944Y-10594460D01*
X14374944Y-10594460D02*
X14365420Y-10546841D01*
X14365420Y-10546841D02*
X14365420Y-10508746D01*
X14365420Y-10508746D02*
X14374944Y-10461127D01*
X14374944Y-10461127D02*
X14384468Y-10432555D01*
X14384468Y-10432555D02*
X14393991Y-10413508D01*
X14393991Y-10413508D02*
X14413039Y-10384936D01*
X14413039Y-10384936D02*
X14422563Y-10375412D01*
X14527325Y-10489698D02*
X14508277Y-10480174D01*
X14508277Y-10480174D02*
X14498753Y-10470650D01*
X14498753Y-10470650D02*
X14489229Y-10451603D01*
X14489229Y-10451603D02*
X14489229Y-10442079D01*
X14489229Y-10442079D02*
X14498753Y-10423031D01*
X14498753Y-10423031D02*
X14508277Y-10413508D01*
X14508277Y-10413508D02*
X14527325Y-10403984D01*
X14527325Y-10403984D02*
X14565420Y-10403984D01*
X14565420Y-10403984D02*
X14584468Y-10413508D01*
X14584468Y-10413508D02*
X14593991Y-10423031D01*
X14593991Y-10423031D02*
X14603515Y-10442079D01*
X14603515Y-10442079D02*
X14603515Y-10451603D01*
X14603515Y-10451603D02*
X14593991Y-10470650D01*
X14593991Y-10470650D02*
X14584468Y-10480174D01*
X14584468Y-10480174D02*
X14565420Y-10489698D01*
X14565420Y-10489698D02*
X14527325Y-10489698D01*
X14527325Y-10489698D02*
X14508277Y-10499222D01*
X14508277Y-10499222D02*
X14498753Y-10508746D01*
X14498753Y-10508746D02*
X14489229Y-10527793D01*
X14489229Y-10527793D02*
X14489229Y-10565889D01*
X14489229Y-10565889D02*
X14498753Y-10584936D01*
X14498753Y-10584936D02*
X14508277Y-10594460D01*
X14508277Y-10594460D02*
X14527325Y-10603984D01*
X14527325Y-10603984D02*
X14565420Y-10603984D01*
X14565420Y-10603984D02*
X14584468Y-10594460D01*
X14584468Y-10594460D02*
X14593991Y-10584936D01*
X14593991Y-10584936D02*
X14603515Y-10565889D01*
X14603515Y-10565889D02*
X14603515Y-10527793D01*
X14603515Y-10527793D02*
X14593991Y-10508746D01*
X14593991Y-10508746D02*
X14584468Y-10499222D01*
X14584468Y-10499222D02*
X14565420Y-10489698D01*
X14841610Y-10603984D02*
X14841610Y-10403984D01*
X14927325Y-10603984D02*
X14927325Y-10499222D01*
X14927325Y-10499222D02*
X14917801Y-10480174D01*
X14917801Y-10480174D02*
X14898753Y-10470650D01*
X14898753Y-10470650D02*
X14870182Y-10470650D01*
X14870182Y-10470650D02*
X14851134Y-10480174D01*
X14851134Y-10480174D02*
X14841610Y-10489698D01*
X15051134Y-10603984D02*
X15032087Y-10594460D01*
X15032087Y-10594460D02*
X15022563Y-10584936D01*
X15022563Y-10584936D02*
X15013039Y-10565889D01*
X15013039Y-10565889D02*
X15013039Y-10508746D01*
X15013039Y-10508746D02*
X15022563Y-10489698D01*
X15022563Y-10489698D02*
X15032087Y-10480174D01*
X15032087Y-10480174D02*
X15051134Y-10470650D01*
X15051134Y-10470650D02*
X15079706Y-10470650D01*
X15079706Y-10470650D02*
X15098753Y-10480174D01*
X15098753Y-10480174D02*
X15108277Y-10489698D01*
X15108277Y-10489698D02*
X15117801Y-10508746D01*
X15117801Y-10508746D02*
X15117801Y-10565889D01*
X15117801Y-10565889D02*
X15108277Y-10584936D01*
X15108277Y-10584936D02*
X15098753Y-10594460D01*
X15098753Y-10594460D02*
X15079706Y-10603984D01*
X15079706Y-10603984D02*
X15051134Y-10603984D01*
X15232087Y-10603984D02*
X15213039Y-10594460D01*
X15213039Y-10594460D02*
X15203515Y-10575412D01*
X15203515Y-10575412D02*
X15203515Y-10403984D01*
X15384468Y-10594460D02*
X15365420Y-10603984D01*
X15365420Y-10603984D02*
X15327325Y-10603984D01*
X15327325Y-10603984D02*
X15308277Y-10594460D01*
X15308277Y-10594460D02*
X15298753Y-10575412D01*
X15298753Y-10575412D02*
X15298753Y-10499222D01*
X15298753Y-10499222D02*
X15308277Y-10480174D01*
X15308277Y-10480174D02*
X15327325Y-10470650D01*
X15327325Y-10470650D02*
X15365420Y-10470650D01*
X15365420Y-10470650D02*
X15384468Y-10480174D01*
X15384468Y-10480174D02*
X15393991Y-10499222D01*
X15393991Y-10499222D02*
X15393991Y-10518270D01*
X15393991Y-10518270D02*
X15298753Y-10537317D01*
X15470182Y-10594460D02*
X15489230Y-10603984D01*
X15489230Y-10603984D02*
X15527325Y-10603984D01*
X15527325Y-10603984D02*
X15546372Y-10594460D01*
X15546372Y-10594460D02*
X15555896Y-10575412D01*
X15555896Y-10575412D02*
X15555896Y-10565889D01*
X15555896Y-10565889D02*
X15546372Y-10546841D01*
X15546372Y-10546841D02*
X15527325Y-10537317D01*
X15527325Y-10537317D02*
X15498753Y-10537317D01*
X15498753Y-10537317D02*
X15479706Y-10527793D01*
X15479706Y-10527793D02*
X15470182Y-10508746D01*
X15470182Y-10508746D02*
X15470182Y-10499222D01*
X15470182Y-10499222D02*
X15479706Y-10480174D01*
X15479706Y-10480174D02*
X15498753Y-10470650D01*
X15498753Y-10470650D02*
X15527325Y-10470650D01*
X15527325Y-10470650D02*
X15546372Y-10480174D01*
X15622563Y-10680174D02*
X15632087Y-10670650D01*
X15632087Y-10670650D02*
X15651134Y-10642079D01*
X15651134Y-10642079D02*
X15660658Y-10623031D01*
X15660658Y-10623031D02*
X15670182Y-10594460D01*
X15670182Y-10594460D02*
X15679706Y-10546841D01*
X15679706Y-10546841D02*
X15679706Y-10508746D01*
X15679706Y-10508746D02*
X15670182Y-10461127D01*
X15670182Y-10461127D02*
X15660658Y-10432555D01*
X15660658Y-10432555D02*
X15651134Y-10413508D01*
X15651134Y-10413508D02*
X15632087Y-10384936D01*
X15632087Y-10384936D02*
X15622563Y-10375412D01*
M02*
