G04 #@! TF.GenerationSoftware,KiCad,Pcbnew,9.0.5-9.0.5~ubuntu25.04.1*
G04 #@! TF.CreationDate,2025-12-03T04:07:11-06:00*
G04 #@! TF.ProjectId,Signal_Board,5369676e-616c-45f4-926f-6172642e6b69,rev?*
G04 #@! TF.SameCoordinates,Original*
G04 #@! TF.FileFunction,Copper,L2,Bot*
G04 #@! TF.FilePolarity,Positive*
%FSLAX46Y46*%
G04 Gerber Fmt 4.6, Leading zero omitted, Abs format (unit mm)*
G04 Created by KiCad (PCBNEW 9.0.5-9.0.5~ubuntu25.04.1) date 2025-12-03 04:07:11*
%MOMM*%
%LPD*%
G01*
G04 APERTURE LIST*
G04 Aperture macros list*
%AMRoundRect*
0 Rectangle with rounded corners*
0 $1 Rounding radius*
0 $2 $3 $4 $5 $6 $7 $8 $9 X,Y pos of 4 corners*
0 Add a 4 corners polygon primitive as box body*
4,1,4,$2,$3,$4,$5,$6,$7,$8,$9,$2,$3,0*
0 Add four circle primitives for the rounded corners*
1,1,$1+$1,$2,$3*
1,1,$1+$1,$4,$5*
1,1,$1+$1,$6,$7*
1,1,$1+$1,$8,$9*
0 Add four rect primitives between the rounded corners*
20,1,$1+$1,$2,$3,$4,$5,0*
20,1,$1+$1,$4,$5,$6,$7,0*
20,1,$1+$1,$6,$7,$8,$9,0*
20,1,$1+$1,$8,$9,$2,$3,0*%
G04 Aperture macros list end*
G04 #@! TA.AperFunction,ComponentPad*
%ADD10C,2.000000*%
G04 #@! TD*
G04 #@! TA.AperFunction,ComponentPad*
%ADD11C,1.600000*%
G04 #@! TD*
G04 #@! TA.AperFunction,ComponentPad*
%ADD12O,1.600000X1.600000*%
G04 #@! TD*
G04 #@! TA.AperFunction,ComponentPad*
%ADD13R,1.600000X2.400000*%
G04 #@! TD*
G04 #@! TA.AperFunction,ComponentPad*
%ADD14O,1.600000X2.400000*%
G04 #@! TD*
G04 #@! TA.AperFunction,ComponentPad*
%ADD15R,3.000000X3.000000*%
G04 #@! TD*
G04 #@! TA.AperFunction,ComponentPad*
%ADD16C,3.000000*%
G04 #@! TD*
G04 #@! TA.AperFunction,ComponentPad*
%ADD17RoundRect,0.262500X-0.262500X-0.487500X0.262500X-0.487500X0.262500X0.487500X-0.262500X0.487500X0*%
G04 #@! TD*
G04 #@! TA.AperFunction,ComponentPad*
%ADD18R,1.050000X1.500000*%
G04 #@! TD*
G04 #@! TA.AperFunction,ComponentPad*
%ADD19C,1.400000*%
G04 #@! TD*
G04 #@! TA.AperFunction,ComponentPad*
%ADD20O,1.400000X1.400000*%
G04 #@! TD*
G04 #@! TA.AperFunction,ComponentPad*
%ADD21R,2.400000X1.600000*%
G04 #@! TD*
G04 #@! TA.AperFunction,ComponentPad*
%ADD22O,2.400000X1.600000*%
G04 #@! TD*
G04 #@! TA.AperFunction,ComponentPad*
%ADD23O,3.240000X2.720000*%
G04 #@! TD*
G04 #@! TA.AperFunction,ComponentPad*
%ADD24R,1.800000X1.800000*%
G04 #@! TD*
G04 #@! TA.AperFunction,ComponentPad*
%ADD25C,1.800000*%
G04 #@! TD*
G04 APERTURE END LIST*
D10*
X160000000Y-64000000D03*
X160000000Y-59500000D03*
D11*
X156250000Y-74500000D03*
D12*
X148750000Y-74500000D03*
D13*
X156540000Y-62675000D03*
D14*
X154000000Y-62675000D03*
X151460000Y-62675000D03*
X148920000Y-62675000D03*
X146380000Y-62675000D03*
X143840000Y-62675000D03*
X141300000Y-62675000D03*
X141300000Y-70295000D03*
X143840000Y-70295000D03*
X146380000Y-70295000D03*
X148920000Y-70295000D03*
X151460000Y-70295000D03*
X154000000Y-70295000D03*
X156540000Y-70295000D03*
D15*
X158500000Y-80500000D03*
D16*
X153420000Y-80500000D03*
X148340000Y-80500000D03*
X143260000Y-80500000D03*
X138180000Y-80500000D03*
X133100000Y-80500000D03*
D17*
X119340000Y-73450000D03*
D18*
X116800000Y-73450000D03*
D17*
X118070000Y-73450000D03*
D11*
X124750000Y-73000000D03*
D12*
X124750000Y-80500000D03*
D11*
X141360000Y-51750000D03*
D12*
X141360000Y-59250000D03*
D19*
X118440000Y-66750000D03*
D20*
X126060000Y-66750000D03*
D19*
X111000000Y-59560000D03*
D20*
X111000000Y-51940000D03*
D19*
X124850000Y-60000000D03*
D20*
X117230000Y-60000000D03*
D21*
X136360000Y-70200000D03*
D22*
X136360000Y-67660000D03*
X136360000Y-65120000D03*
X136360000Y-62580000D03*
X136360000Y-60040000D03*
X136360000Y-57500000D03*
X136360000Y-54960000D03*
X136360000Y-52420000D03*
X128740000Y-52420000D03*
X128740000Y-54960000D03*
X128740000Y-57500000D03*
X128740000Y-60040000D03*
X128740000Y-62580000D03*
X128740000Y-65120000D03*
X128740000Y-67660000D03*
X128740000Y-70200000D03*
D19*
X124860000Y-57500000D03*
D20*
X117240000Y-57500000D03*
D19*
X126060000Y-69250000D03*
D20*
X118440000Y-69250000D03*
D11*
X112750000Y-74000000D03*
D12*
X112750000Y-66500000D03*
D11*
X128610000Y-74000000D03*
D12*
X136110000Y-74000000D03*
D10*
X115500000Y-63500000D03*
D23*
X117725000Y-54300000D03*
X117725000Y-44700000D03*
D24*
X125225000Y-52000000D03*
D25*
X125225000Y-49500000D03*
X125225000Y-47000000D03*
D19*
X127920000Y-47000000D03*
D20*
X135540000Y-47000000D03*
D15*
X114420000Y-80500000D03*
D16*
X119500000Y-80500000D03*
D10*
X160000000Y-68500000D03*
G04 #@! TA.AperFunction,Conductor*
G36*
X128419920Y-67414394D02*
G01*
X128367259Y-67505606D01*
X128340000Y-67607339D01*
X128340000Y-67712661D01*
X128367259Y-67814394D01*
X128419920Y-67905606D01*
X128424314Y-67910000D01*
X127063391Y-67910000D01*
X127072009Y-67964413D01*
X127135244Y-68159029D01*
X127228140Y-68341349D01*
X127348417Y-68506894D01*
X127348417Y-68506895D01*
X127493104Y-68651582D01*
X127658652Y-68771861D01*
X127751628Y-68819234D01*
X127802425Y-68867208D01*
X127819220Y-68935029D01*
X127796683Y-69001164D01*
X127751630Y-69040203D01*
X127658388Y-69087713D01*
X127492786Y-69208028D01*
X127471472Y-69229342D01*
X127410149Y-69262826D01*
X127340457Y-69257840D01*
X127284524Y-69215967D01*
X127263423Y-69159988D01*
X127261263Y-69160331D01*
X127230940Y-68968881D01*
X127197258Y-68865220D01*
X127172547Y-68789168D01*
X127172545Y-68789165D01*
X127172545Y-68789163D01*
X127102639Y-68651965D01*
X127086760Y-68620801D01*
X126975690Y-68467927D01*
X126842073Y-68334310D01*
X126689199Y-68223240D01*
X126520836Y-68137454D01*
X126479280Y-68123951D01*
X126459939Y-68117667D01*
X126402265Y-68078230D01*
X126375067Y-68013871D01*
X126386982Y-67945025D01*
X126434227Y-67893549D01*
X126459942Y-67881805D01*
X126520641Y-67862083D01*
X126688940Y-67776329D01*
X126841741Y-67665314D01*
X126841746Y-67665310D01*
X126910000Y-67597056D01*
X126910000Y-67534000D01*
X126929685Y-67466961D01*
X126982489Y-67421206D01*
X127034000Y-67410000D01*
X128424314Y-67410000D01*
X128419920Y-67414394D01*
G37*
G04 #@! TD.AperFunction*
G04 #@! TA.AperFunction,Conductor*
G36*
X161942539Y-42520185D02*
G01*
X161988294Y-42572989D01*
X161999500Y-42624500D01*
X161999500Y-84875500D01*
X161979815Y-84942539D01*
X161927011Y-84988294D01*
X161875500Y-84999500D01*
X109124500Y-84999500D01*
X109057461Y-84979815D01*
X109011706Y-84927011D01*
X109000500Y-84875500D01*
X109000500Y-78952135D01*
X112419500Y-78952135D01*
X112419500Y-82047870D01*
X112419501Y-82047876D01*
X112425908Y-82107483D01*
X112476202Y-82242328D01*
X112476206Y-82242335D01*
X112562452Y-82357544D01*
X112562455Y-82357547D01*
X112677664Y-82443793D01*
X112677671Y-82443797D01*
X112812517Y-82494091D01*
X112812516Y-82494091D01*
X112819444Y-82494835D01*
X112872127Y-82500500D01*
X115967872Y-82500499D01*
X116027483Y-82494091D01*
X116162331Y-82443796D01*
X116277546Y-82357546D01*
X116363796Y-82242331D01*
X116414091Y-82107483D01*
X116420500Y-82047873D01*
X116420499Y-80368905D01*
X117500000Y-80368905D01*
X117500000Y-80631094D01*
X117534220Y-80891009D01*
X117534222Y-80891020D01*
X117602075Y-81144255D01*
X117702404Y-81386471D01*
X117702409Y-81386482D01*
X117833488Y-81613516D01*
X117833494Y-81613524D01*
X117920080Y-81726365D01*
X118814767Y-80831677D01*
X118826497Y-80859995D01*
X118909670Y-80984472D01*
X119015528Y-81090330D01*
X119140005Y-81173503D01*
X119168320Y-81185231D01*
X118273633Y-82079917D01*
X118273633Y-82079918D01*
X118386475Y-82166505D01*
X118386483Y-82166511D01*
X118613517Y-82297590D01*
X118613528Y-82297595D01*
X118855744Y-82397924D01*
X119108979Y-82465777D01*
X119108990Y-82465779D01*
X119368905Y-82499999D01*
X119368920Y-82500000D01*
X119631080Y-82500000D01*
X119631094Y-82499999D01*
X119891009Y-82465779D01*
X119891020Y-82465777D01*
X120144255Y-82397924D01*
X120386471Y-82297595D01*
X120386482Y-82297590D01*
X120613516Y-82166511D01*
X120613534Y-82166499D01*
X120726365Y-82079919D01*
X120726365Y-82079917D01*
X119831679Y-81185231D01*
X119859995Y-81173503D01*
X119984472Y-81090330D01*
X120090330Y-80984472D01*
X120173503Y-80859995D01*
X120185231Y-80831679D01*
X121079917Y-81726365D01*
X121079919Y-81726365D01*
X121166499Y-81613534D01*
X121166511Y-81613516D01*
X121297590Y-81386482D01*
X121297595Y-81386471D01*
X121397924Y-81144255D01*
X121465777Y-80891020D01*
X121465779Y-80891009D01*
X121491355Y-80696751D01*
X121499999Y-80631094D01*
X121500000Y-80631080D01*
X121500000Y-80368919D01*
X121499999Y-80368905D01*
X121491355Y-80303249D01*
X121484344Y-80250000D01*
X123473391Y-80250000D01*
X124434314Y-80250000D01*
X124429920Y-80254394D01*
X124377259Y-80345606D01*
X124350000Y-80447339D01*
X124350000Y-80552661D01*
X124377259Y-80654394D01*
X124429920Y-80745606D01*
X124434314Y-80750000D01*
X123473391Y-80750000D01*
X123482009Y-80804413D01*
X123545244Y-80999029D01*
X123638140Y-81181349D01*
X123758417Y-81346894D01*
X123758417Y-81346895D01*
X123903104Y-81491582D01*
X124068650Y-81611859D01*
X124250968Y-81704754D01*
X124445578Y-81767988D01*
X124500000Y-81776607D01*
X124500000Y-80815686D01*
X124504394Y-80820080D01*
X124595606Y-80872741D01*
X124697339Y-80900000D01*
X124802661Y-80900000D01*
X124904394Y-80872741D01*
X124995606Y-80820080D01*
X125000000Y-80815686D01*
X125000000Y-81776606D01*
X125054421Y-81767988D01*
X125249031Y-81704754D01*
X125431349Y-81611859D01*
X125596894Y-81491582D01*
X125596895Y-81491582D01*
X125741582Y-81346895D01*
X125741582Y-81346894D01*
X125861859Y-81181349D01*
X125954755Y-80999029D01*
X126017990Y-80804413D01*
X126026609Y-80750000D01*
X125065686Y-80750000D01*
X125070080Y-80745606D01*
X125122741Y-80654394D01*
X125150000Y-80552661D01*
X125150000Y-80447339D01*
X125128984Y-80368905D01*
X131100000Y-80368905D01*
X131100000Y-80631094D01*
X131134220Y-80891009D01*
X131134222Y-80891020D01*
X131202075Y-81144255D01*
X131302404Y-81386471D01*
X131302409Y-81386482D01*
X131433488Y-81613516D01*
X131433494Y-81613524D01*
X131520080Y-81726365D01*
X132414767Y-80831677D01*
X132426497Y-80859995D01*
X132509670Y-80984472D01*
X132615528Y-81090330D01*
X132740005Y-81173503D01*
X132768320Y-81185231D01*
X131873633Y-82079917D01*
X131873633Y-82079918D01*
X131986475Y-82166505D01*
X131986483Y-82166511D01*
X132213517Y-82297590D01*
X132213528Y-82297595D01*
X132455744Y-82397924D01*
X132708979Y-82465777D01*
X132708990Y-82465779D01*
X132968905Y-82499999D01*
X132968920Y-82500000D01*
X133231080Y-82500000D01*
X133231094Y-82499999D01*
X133491009Y-82465779D01*
X133491020Y-82465777D01*
X133744255Y-82397924D01*
X133986471Y-82297595D01*
X133986482Y-82297590D01*
X134213516Y-82166511D01*
X134213534Y-82166499D01*
X134326365Y-82079919D01*
X134326365Y-82079917D01*
X133431679Y-81185231D01*
X133459995Y-81173503D01*
X133584472Y-81090330D01*
X133690330Y-80984472D01*
X133773503Y-80859995D01*
X133785231Y-80831679D01*
X134679917Y-81726365D01*
X134679919Y-81726365D01*
X134766499Y-81613534D01*
X134766511Y-81613516D01*
X134897590Y-81386482D01*
X134897595Y-81386471D01*
X134997924Y-81144255D01*
X135065777Y-80891020D01*
X135065779Y-80891009D01*
X135099999Y-80631094D01*
X135100000Y-80631080D01*
X135100000Y-80368912D01*
X135099995Y-80368872D01*
X136179500Y-80368872D01*
X136179500Y-80631127D01*
X136195151Y-80750000D01*
X136213730Y-80891116D01*
X136238745Y-80984472D01*
X136281602Y-81144418D01*
X136281605Y-81144428D01*
X136381953Y-81386690D01*
X136381958Y-81386700D01*
X136513075Y-81613803D01*
X136672718Y-81821851D01*
X136672726Y-81821860D01*
X136858140Y-82007274D01*
X136858148Y-82007281D01*
X137066196Y-82166924D01*
X137293299Y-82298041D01*
X137293309Y-82298046D01*
X137535571Y-82398394D01*
X137535581Y-82398398D01*
X137788884Y-82466270D01*
X138037188Y-82498960D01*
X138048864Y-82500498D01*
X138048880Y-82500500D01*
X138048887Y-82500500D01*
X138311113Y-82500500D01*
X138311120Y-82500500D01*
X138571116Y-82466270D01*
X138824419Y-82398398D01*
X139066697Y-82298043D01*
X139293803Y-82166924D01*
X139501851Y-82007282D01*
X139501855Y-82007277D01*
X139501860Y-82007274D01*
X139687274Y-81821860D01*
X139687277Y-81821855D01*
X139687282Y-81821851D01*
X139846924Y-81613803D01*
X139978043Y-81386697D01*
X140078398Y-81144419D01*
X140146270Y-80891116D01*
X140180500Y-80631120D01*
X140180500Y-80368880D01*
X140180499Y-80368872D01*
X141259500Y-80368872D01*
X141259500Y-80631127D01*
X141275151Y-80750000D01*
X141293730Y-80891116D01*
X141318745Y-80984472D01*
X141361602Y-81144418D01*
X141361605Y-81144428D01*
X141461953Y-81386690D01*
X141461958Y-81386700D01*
X141593075Y-81613803D01*
X141752718Y-81821851D01*
X141752726Y-81821860D01*
X141938140Y-82007274D01*
X141938148Y-82007281D01*
X142146196Y-82166924D01*
X142373299Y-82298041D01*
X142373309Y-82298046D01*
X142615571Y-82398394D01*
X142615581Y-82398398D01*
X142868884Y-82466270D01*
X143117188Y-82498960D01*
X143128864Y-82500498D01*
X143128880Y-82500500D01*
X143128887Y-82500500D01*
X143391113Y-82500500D01*
X143391120Y-82500500D01*
X143651116Y-82466270D01*
X143904419Y-82398398D01*
X144146697Y-82298043D01*
X144373803Y-82166924D01*
X144581851Y-82007282D01*
X144581855Y-82007277D01*
X144581860Y-82007274D01*
X144767274Y-81821860D01*
X144767277Y-81821855D01*
X144767282Y-81821851D01*
X144926924Y-81613803D01*
X145058043Y-81386697D01*
X145158398Y-81144419D01*
X145226270Y-80891116D01*
X145260500Y-80631120D01*
X145260500Y-80368880D01*
X145260499Y-80368872D01*
X146339500Y-80368872D01*
X146339500Y-80631127D01*
X146355151Y-80750000D01*
X146373730Y-80891116D01*
X146398745Y-80984472D01*
X146441602Y-81144418D01*
X146441605Y-81144428D01*
X146541953Y-81386690D01*
X146541958Y-81386700D01*
X146673075Y-81613803D01*
X146832718Y-81821851D01*
X146832726Y-81821860D01*
X147018140Y-82007274D01*
X147018148Y-82007281D01*
X147226196Y-82166924D01*
X147453299Y-82298041D01*
X147453309Y-82298046D01*
X147695571Y-82398394D01*
X147695581Y-82398398D01*
X147948884Y-82466270D01*
X148197188Y-82498960D01*
X148208864Y-82500498D01*
X148208880Y-82500500D01*
X148208887Y-82500500D01*
X148471113Y-82500500D01*
X148471120Y-82500500D01*
X148731116Y-82466270D01*
X148984419Y-82398398D01*
X149226697Y-82298043D01*
X149453803Y-82166924D01*
X149661851Y-82007282D01*
X149661855Y-82007277D01*
X149661860Y-82007274D01*
X149847274Y-81821860D01*
X149847277Y-81821855D01*
X149847282Y-81821851D01*
X150006924Y-81613803D01*
X150138043Y-81386697D01*
X150238398Y-81144419D01*
X150306270Y-80891116D01*
X150340500Y-80631120D01*
X150340500Y-80368880D01*
X150340499Y-80368872D01*
X151419500Y-80368872D01*
X151419500Y-80631127D01*
X151435151Y-80750000D01*
X151453730Y-80891116D01*
X151478745Y-80984472D01*
X151521602Y-81144418D01*
X151521605Y-81144428D01*
X151621953Y-81386690D01*
X151621958Y-81386700D01*
X151753075Y-81613803D01*
X151912718Y-81821851D01*
X151912726Y-81821860D01*
X152098140Y-82007274D01*
X152098148Y-82007281D01*
X152306196Y-82166924D01*
X152533299Y-82298041D01*
X152533309Y-82298046D01*
X152775571Y-82398394D01*
X152775581Y-82398398D01*
X153028884Y-82466270D01*
X153277188Y-82498960D01*
X153288864Y-82500498D01*
X153288880Y-82500500D01*
X153288887Y-82500500D01*
X153551113Y-82500500D01*
X153551120Y-82500500D01*
X153811116Y-82466270D01*
X154064419Y-82398398D01*
X154306697Y-82298043D01*
X154533803Y-82166924D01*
X154741851Y-82007282D01*
X154741855Y-82007277D01*
X154741860Y-82007274D01*
X154927274Y-81821860D01*
X154927277Y-81821855D01*
X154927282Y-81821851D01*
X155086924Y-81613803D01*
X155218043Y-81386697D01*
X155318398Y-81144419D01*
X155386270Y-80891116D01*
X155420500Y-80631120D01*
X155420500Y-80368880D01*
X155386270Y-80108884D01*
X155318398Y-79855581D01*
X155234530Y-79653105D01*
X155218046Y-79613309D01*
X155218041Y-79613299D01*
X155086924Y-79386196D01*
X154927281Y-79178148D01*
X154927274Y-79178140D01*
X154741860Y-78992726D01*
X154741851Y-78992718D01*
X154688963Y-78952135D01*
X156499500Y-78952135D01*
X156499500Y-82047870D01*
X156499501Y-82047876D01*
X156505908Y-82107483D01*
X156556202Y-82242328D01*
X156556206Y-82242335D01*
X156642452Y-82357544D01*
X156642455Y-82357547D01*
X156757664Y-82443793D01*
X156757671Y-82443797D01*
X156892517Y-82494091D01*
X156892516Y-82494091D01*
X156899444Y-82494835D01*
X156952127Y-82500500D01*
X160047872Y-82500499D01*
X160107483Y-82494091D01*
X160242331Y-82443796D01*
X160357546Y-82357546D01*
X160443796Y-82242331D01*
X160494091Y-82107483D01*
X160500500Y-82047873D01*
X160500499Y-78952128D01*
X160494091Y-78892517D01*
X160443796Y-78757669D01*
X160443795Y-78757668D01*
X160443793Y-78757664D01*
X160357547Y-78642455D01*
X160357544Y-78642452D01*
X160242335Y-78556206D01*
X160242328Y-78556202D01*
X160107482Y-78505908D01*
X160107483Y-78505908D01*
X160047883Y-78499501D01*
X160047881Y-78499500D01*
X160047873Y-78499500D01*
X160047864Y-78499500D01*
X156952129Y-78499500D01*
X156952123Y-78499501D01*
X156892516Y-78505908D01*
X156757671Y-78556202D01*
X156757664Y-78556206D01*
X156642455Y-78642452D01*
X156642452Y-78642455D01*
X156556206Y-78757664D01*
X156556202Y-78757671D01*
X156505908Y-78892517D01*
X156499501Y-78952116D01*
X156499501Y-78952123D01*
X156499500Y-78952135D01*
X154688963Y-78952135D01*
X154533803Y-78833075D01*
X154306700Y-78701958D01*
X154306690Y-78701953D01*
X154064428Y-78601605D01*
X154064421Y-78601603D01*
X154064419Y-78601602D01*
X153811116Y-78533730D01*
X153753339Y-78526123D01*
X153551127Y-78499500D01*
X153551120Y-78499500D01*
X153288880Y-78499500D01*
X153288872Y-78499500D01*
X153057772Y-78529926D01*
X153028884Y-78533730D01*
X152775581Y-78601602D01*
X152775571Y-78601605D01*
X152533309Y-78701953D01*
X152533299Y-78701958D01*
X152306196Y-78833075D01*
X152098148Y-78992718D01*
X151912718Y-79178148D01*
X151753075Y-79386196D01*
X151621958Y-79613299D01*
X151621953Y-79613309D01*
X151521605Y-79855571D01*
X151521602Y-79855581D01*
X151453730Y-80108884D01*
X151453716Y-80108990D01*
X151419500Y-80368872D01*
X150340499Y-80368872D01*
X150306270Y-80108884D01*
X150238398Y-79855581D01*
X150154530Y-79653105D01*
X150138046Y-79613309D01*
X150138041Y-79613299D01*
X150006924Y-79386196D01*
X149847281Y-79178148D01*
X149847274Y-79178140D01*
X149661860Y-78992726D01*
X149661851Y-78992718D01*
X149453803Y-78833075D01*
X149226700Y-78701958D01*
X149226690Y-78701953D01*
X148984428Y-78601605D01*
X148984421Y-78601603D01*
X148984419Y-78601602D01*
X148731116Y-78533730D01*
X148673339Y-78526123D01*
X148471127Y-78499500D01*
X148471120Y-78499500D01*
X148208880Y-78499500D01*
X148208872Y-78499500D01*
X147977772Y-78529926D01*
X147948884Y-78533730D01*
X147695581Y-78601602D01*
X147695571Y-78601605D01*
X147453309Y-78701953D01*
X147453299Y-78701958D01*
X147226196Y-78833075D01*
X147018148Y-78992718D01*
X146832718Y-79178148D01*
X146673075Y-79386196D01*
X146541958Y-79613299D01*
X146541953Y-79613309D01*
X146441605Y-79855571D01*
X146441602Y-79855581D01*
X146373730Y-80108884D01*
X146373716Y-80108990D01*
X146339500Y-80368872D01*
X145260499Y-80368872D01*
X145226270Y-80108884D01*
X145158398Y-79855581D01*
X145074530Y-79653105D01*
X145058046Y-79613309D01*
X145058041Y-79613299D01*
X144926924Y-79386196D01*
X144767281Y-79178148D01*
X144767274Y-79178140D01*
X144581860Y-78992726D01*
X144581851Y-78992718D01*
X144373803Y-78833075D01*
X144146700Y-78701958D01*
X144146690Y-78701953D01*
X143904428Y-78601605D01*
X143904421Y-78601603D01*
X143904419Y-78601602D01*
X143651116Y-78533730D01*
X143593339Y-78526123D01*
X143391127Y-78499500D01*
X143391120Y-78499500D01*
X143128880Y-78499500D01*
X143128872Y-78499500D01*
X142897772Y-78529926D01*
X142868884Y-78533730D01*
X142615581Y-78601602D01*
X142615571Y-78601605D01*
X142373309Y-78701953D01*
X142373299Y-78701958D01*
X142146196Y-78833075D01*
X141938148Y-78992718D01*
X141752718Y-79178148D01*
X141593075Y-79386196D01*
X141461958Y-79613299D01*
X141461953Y-79613309D01*
X141361605Y-79855571D01*
X141361602Y-79855581D01*
X141293730Y-80108884D01*
X141293716Y-80108990D01*
X141259500Y-80368872D01*
X140180499Y-80368872D01*
X140146270Y-80108884D01*
X140078398Y-79855581D01*
X139994530Y-79653105D01*
X139978046Y-79613309D01*
X139978041Y-79613299D01*
X139846924Y-79386196D01*
X139687281Y-79178148D01*
X139687274Y-79178140D01*
X139501860Y-78992726D01*
X139501851Y-78992718D01*
X139293803Y-78833075D01*
X139066700Y-78701958D01*
X139066690Y-78701953D01*
X138824428Y-78601605D01*
X138824421Y-78601603D01*
X138824419Y-78601602D01*
X138571116Y-78533730D01*
X138513339Y-78526123D01*
X138311127Y-78499500D01*
X138311120Y-78499500D01*
X138048880Y-78499500D01*
X138048872Y-78499500D01*
X137817772Y-78529926D01*
X137788884Y-78533730D01*
X137535581Y-78601602D01*
X137535571Y-78601605D01*
X137293309Y-78701953D01*
X137293299Y-78701958D01*
X137066196Y-78833075D01*
X136858148Y-78992718D01*
X136672718Y-79178148D01*
X136513075Y-79386196D01*
X136381958Y-79613299D01*
X136381953Y-79613309D01*
X136281605Y-79855571D01*
X136281602Y-79855581D01*
X136213730Y-80108884D01*
X136213716Y-80108990D01*
X136179500Y-80368872D01*
X135099995Y-80368872D01*
X135065779Y-80108990D01*
X135065777Y-80108979D01*
X134997924Y-79855744D01*
X134897595Y-79613528D01*
X134897590Y-79613517D01*
X134766511Y-79386483D01*
X134766505Y-79386475D01*
X134679918Y-79273633D01*
X134679917Y-79273633D01*
X133785231Y-80168320D01*
X133773503Y-80140005D01*
X133690330Y-80015528D01*
X133584472Y-79909670D01*
X133459995Y-79826497D01*
X133431677Y-79814767D01*
X134326365Y-78920080D01*
X134213524Y-78833494D01*
X134213516Y-78833488D01*
X133986482Y-78702409D01*
X133986471Y-78702404D01*
X133744255Y-78602075D01*
X133491020Y-78534222D01*
X133491009Y-78534220D01*
X133231094Y-78500000D01*
X132968905Y-78500000D01*
X132708990Y-78534220D01*
X132708979Y-78534222D01*
X132455744Y-78602075D01*
X132213528Y-78702404D01*
X132213517Y-78702409D01*
X131986471Y-78833496D01*
X131873633Y-78920079D01*
X131873633Y-78920080D01*
X132768321Y-79814768D01*
X132740005Y-79826497D01*
X132615528Y-79909670D01*
X132509670Y-80015528D01*
X132426497Y-80140005D01*
X132414768Y-80168321D01*
X131520080Y-79273633D01*
X131520079Y-79273633D01*
X131433496Y-79386471D01*
X131302409Y-79613517D01*
X131302404Y-79613528D01*
X131202075Y-79855744D01*
X131134222Y-80108979D01*
X131134220Y-80108990D01*
X131100000Y-80368905D01*
X125128984Y-80368905D01*
X125122741Y-80345606D01*
X125070080Y-80254394D01*
X125065686Y-80250000D01*
X126026609Y-80250000D01*
X126026609Y-80249999D01*
X126017990Y-80195586D01*
X125954755Y-80000970D01*
X125861859Y-79818650D01*
X125741582Y-79653105D01*
X125741582Y-79653104D01*
X125596895Y-79508417D01*
X125431349Y-79388140D01*
X125249029Y-79295244D01*
X125054413Y-79232009D01*
X125000000Y-79223390D01*
X125000000Y-80184314D01*
X124995606Y-80179920D01*
X124904394Y-80127259D01*
X124802661Y-80100000D01*
X124697339Y-80100000D01*
X124595606Y-80127259D01*
X124504394Y-80179920D01*
X124500000Y-80184314D01*
X124500000Y-79223390D01*
X124445586Y-79232009D01*
X124250970Y-79295244D01*
X124068650Y-79388140D01*
X123903105Y-79508417D01*
X123903104Y-79508417D01*
X123758417Y-79653104D01*
X123758417Y-79653105D01*
X123638140Y-79818650D01*
X123545244Y-80000970D01*
X123482009Y-80195586D01*
X123473391Y-80250000D01*
X121484344Y-80250000D01*
X121465779Y-80108990D01*
X121465777Y-80108979D01*
X121397924Y-79855744D01*
X121297595Y-79613528D01*
X121297590Y-79613517D01*
X121166511Y-79386483D01*
X121166505Y-79386475D01*
X121079918Y-79273633D01*
X121079917Y-79273633D01*
X120185231Y-80168320D01*
X120173503Y-80140005D01*
X120090330Y-80015528D01*
X119984472Y-79909670D01*
X119859995Y-79826497D01*
X119831677Y-79814767D01*
X120726365Y-78920080D01*
X120613524Y-78833494D01*
X120613516Y-78833488D01*
X120386482Y-78702409D01*
X120386471Y-78702404D01*
X120144255Y-78602075D01*
X119891020Y-78534222D01*
X119891009Y-78534220D01*
X119631094Y-78500000D01*
X119368905Y-78500000D01*
X119108990Y-78534220D01*
X119108979Y-78534222D01*
X118855744Y-78602075D01*
X118613528Y-78702404D01*
X118613517Y-78702409D01*
X118386471Y-78833496D01*
X118273633Y-78920079D01*
X118273633Y-78920080D01*
X119168321Y-79814768D01*
X119140005Y-79826497D01*
X119015528Y-79909670D01*
X118909670Y-80015528D01*
X118826497Y-80140005D01*
X118814768Y-80168321D01*
X117920080Y-79273633D01*
X117920079Y-79273633D01*
X117833496Y-79386471D01*
X117702409Y-79613517D01*
X117702404Y-79613528D01*
X117602075Y-79855744D01*
X117534222Y-80108979D01*
X117534220Y-80108990D01*
X117500000Y-80368905D01*
X116420499Y-80368905D01*
X116420499Y-78952128D01*
X116414091Y-78892517D01*
X116363796Y-78757669D01*
X116363795Y-78757668D01*
X116363793Y-78757664D01*
X116277547Y-78642455D01*
X116277544Y-78642452D01*
X116162335Y-78556206D01*
X116162328Y-78556202D01*
X116027482Y-78505908D01*
X116027483Y-78505908D01*
X115967883Y-78499501D01*
X115967881Y-78499500D01*
X115967873Y-78499500D01*
X115967864Y-78499500D01*
X112872129Y-78499500D01*
X112872123Y-78499501D01*
X112812516Y-78505908D01*
X112677671Y-78556202D01*
X112677664Y-78556206D01*
X112562455Y-78642452D01*
X112562452Y-78642455D01*
X112476206Y-78757664D01*
X112476202Y-78757671D01*
X112425908Y-78892517D01*
X112419501Y-78952116D01*
X112419501Y-78952123D01*
X112419500Y-78952135D01*
X109000500Y-78952135D01*
X109000500Y-73897648D01*
X111449500Y-73897648D01*
X111449500Y-74102351D01*
X111481522Y-74304534D01*
X111544781Y-74499223D01*
X111597328Y-74602351D01*
X111637578Y-74681346D01*
X111637715Y-74681613D01*
X111758028Y-74847213D01*
X111902786Y-74991971D01*
X112057749Y-75104556D01*
X112068390Y-75112287D01*
X112184607Y-75171503D01*
X112250776Y-75205218D01*
X112250778Y-75205218D01*
X112250781Y-75205220D01*
X112355137Y-75239127D01*
X112445465Y-75268477D01*
X112546557Y-75284488D01*
X112647648Y-75300500D01*
X112647649Y-75300500D01*
X112852351Y-75300500D01*
X112852352Y-75300500D01*
X113054534Y-75268477D01*
X113249219Y-75205220D01*
X113431610Y-75112287D01*
X113587231Y-74999223D01*
X113597213Y-74991971D01*
X113597215Y-74991968D01*
X113597219Y-74991966D01*
X113741966Y-74847219D01*
X113741968Y-74847215D01*
X113741971Y-74847213D01*
X113812599Y-74750000D01*
X113862287Y-74681610D01*
X113955220Y-74499219D01*
X114018477Y-74304534D01*
X114050500Y-74102352D01*
X114050500Y-73897648D01*
X114036057Y-73806461D01*
X114018477Y-73695465D01*
X113957701Y-73508417D01*
X113955220Y-73500781D01*
X113955218Y-73500778D01*
X113955218Y-73500776D01*
X113897610Y-73387715D01*
X113862287Y-73318390D01*
X113845134Y-73294781D01*
X113741971Y-73152786D01*
X113597213Y-73008028D01*
X113431613Y-72887715D01*
X113431612Y-72887714D01*
X113431610Y-72887713D01*
X113374653Y-72858691D01*
X113249223Y-72794781D01*
X113194513Y-72777005D01*
X113146918Y-72761540D01*
X113054534Y-72731522D01*
X112879995Y-72703878D01*
X112852352Y-72699500D01*
X112647648Y-72699500D01*
X112623329Y-72703351D01*
X112445465Y-72731522D01*
X112250776Y-72794781D01*
X112068386Y-72887715D01*
X111902786Y-73008028D01*
X111758028Y-73152786D01*
X111637715Y-73318386D01*
X111544781Y-73500776D01*
X111481522Y-73695465D01*
X111449500Y-73897648D01*
X109000500Y-73897648D01*
X109000500Y-72652135D01*
X115774500Y-72652135D01*
X115774500Y-74247870D01*
X115774501Y-74247876D01*
X115780908Y-74307483D01*
X115831202Y-74442328D01*
X115831206Y-74442335D01*
X115917452Y-74557544D01*
X115917455Y-74557547D01*
X116032664Y-74643793D01*
X116032671Y-74643797D01*
X116167517Y-74694091D01*
X116167516Y-74694091D01*
X116174444Y-74694835D01*
X116227127Y-74700500D01*
X117372872Y-74700499D01*
X117432483Y-74694091D01*
X117465938Y-74681613D01*
X117500987Y-74668540D01*
X117570679Y-74663554D01*
X117583325Y-74667014D01*
X117652158Y-74689824D01*
X117756659Y-74700500D01*
X118383340Y-74700499D01*
X118383348Y-74700498D01*
X118383351Y-74700498D01*
X118440572Y-74694652D01*
X118487842Y-74689824D01*
X118657153Y-74633720D01*
X118657153Y-74633719D01*
X118664009Y-74631448D01*
X118664850Y-74633988D01*
X118721650Y-74625350D01*
X118745674Y-74632404D01*
X118745991Y-74631448D01*
X118752846Y-74633719D01*
X118752847Y-74633720D01*
X118922158Y-74689824D01*
X119026659Y-74700500D01*
X119653340Y-74700499D01*
X119653348Y-74700498D01*
X119653351Y-74700498D01*
X119710572Y-74694652D01*
X119757842Y-74689824D01*
X119927153Y-74633720D01*
X120078961Y-74540083D01*
X120205083Y-74413961D01*
X120298720Y-74262153D01*
X120354824Y-74092842D01*
X120365500Y-73988341D01*
X120365499Y-72911660D01*
X120364068Y-72897648D01*
X123449500Y-72897648D01*
X123449500Y-73102351D01*
X123481522Y-73304534D01*
X123544781Y-73499223D01*
X123608691Y-73624653D01*
X123637712Y-73681609D01*
X123637715Y-73681613D01*
X123758028Y-73847213D01*
X123902786Y-73991971D01*
X124057749Y-74104556D01*
X124068390Y-74112287D01*
X124151030Y-74154394D01*
X124250776Y-74205218D01*
X124250778Y-74205218D01*
X124250781Y-74205220D01*
X124355137Y-74239127D01*
X124445465Y-74268477D01*
X124546557Y-74284488D01*
X124647648Y-74300500D01*
X124647649Y-74300500D01*
X124852351Y-74300500D01*
X124852352Y-74300500D01*
X125054534Y-74268477D01*
X125249219Y-74205220D01*
X125431610Y-74112287D01*
X125524590Y-74044732D01*
X125597213Y-73991971D01*
X125597215Y-73991968D01*
X125597219Y-73991966D01*
X125691537Y-73897648D01*
X127309500Y-73897648D01*
X127309500Y-74102351D01*
X127341522Y-74304534D01*
X127404781Y-74499223D01*
X127457328Y-74602351D01*
X127497578Y-74681346D01*
X127497715Y-74681613D01*
X127618028Y-74847213D01*
X127762786Y-74991971D01*
X127917749Y-75104556D01*
X127928390Y-75112287D01*
X128044607Y-75171503D01*
X128110776Y-75205218D01*
X128110778Y-75205218D01*
X128110781Y-75205220D01*
X128215137Y-75239127D01*
X128305465Y-75268477D01*
X128406557Y-75284488D01*
X128507648Y-75300500D01*
X128507649Y-75300500D01*
X128712351Y-75300500D01*
X128712352Y-75300500D01*
X128914534Y-75268477D01*
X129109219Y-75205220D01*
X129291610Y-75112287D01*
X129447231Y-74999223D01*
X129457213Y-74991971D01*
X129457215Y-74991968D01*
X129457219Y-74991966D01*
X129601966Y-74847219D01*
X129601968Y-74847215D01*
X129601971Y-74847213D01*
X129672599Y-74750000D01*
X129722287Y-74681610D01*
X129815220Y-74499219D01*
X129878477Y-74304534D01*
X129910500Y-74102352D01*
X129910500Y-73897648D01*
X129887114Y-73750000D01*
X134833391Y-73750000D01*
X135794314Y-73750000D01*
X135789920Y-73754394D01*
X135737259Y-73845606D01*
X135710000Y-73947339D01*
X135710000Y-74052661D01*
X135737259Y-74154394D01*
X135789920Y-74245606D01*
X135794314Y-74250000D01*
X134833391Y-74250000D01*
X134842009Y-74304413D01*
X134905244Y-74499029D01*
X134998140Y-74681349D01*
X135118417Y-74846894D01*
X135118417Y-74846895D01*
X135263104Y-74991582D01*
X135428650Y-75111859D01*
X135610968Y-75204754D01*
X135805578Y-75267988D01*
X135860000Y-75276607D01*
X135860000Y-74315686D01*
X135864394Y-74320080D01*
X135955606Y-74372741D01*
X136057339Y-74400000D01*
X136162661Y-74400000D01*
X136264394Y-74372741D01*
X136355606Y-74320080D01*
X136360000Y-74315686D01*
X136360000Y-75276606D01*
X136414421Y-75267988D01*
X136609031Y-75204754D01*
X136791349Y-75111859D01*
X136956894Y-74991582D01*
X136956895Y-74991582D01*
X137101582Y-74846895D01*
X137101582Y-74846894D01*
X137221861Y-74681346D01*
X137234450Y-74656641D01*
X137234450Y-74656640D01*
X137314754Y-74499032D01*
X137360438Y-74358432D01*
X137384680Y-74262173D01*
X137386609Y-74250000D01*
X147473391Y-74250000D01*
X148434314Y-74250000D01*
X148429920Y-74254394D01*
X148377259Y-74345606D01*
X148350000Y-74447339D01*
X148350000Y-74552661D01*
X148377259Y-74654394D01*
X148429920Y-74745606D01*
X148434314Y-74750000D01*
X147473391Y-74750000D01*
X147482009Y-74804413D01*
X147545244Y-74999029D01*
X147638140Y-75181349D01*
X147758417Y-75346894D01*
X147758417Y-75346895D01*
X147903104Y-75491582D01*
X148068650Y-75611859D01*
X148250968Y-75704754D01*
X148445578Y-75767988D01*
X148500000Y-75776607D01*
X148500000Y-74815686D01*
X148504394Y-74820080D01*
X148595606Y-74872741D01*
X148697339Y-74900000D01*
X148802661Y-74900000D01*
X148904394Y-74872741D01*
X148995606Y-74820080D01*
X149000000Y-74815686D01*
X149000000Y-75776606D01*
X149054421Y-75767988D01*
X149249031Y-75704754D01*
X149431349Y-75611859D01*
X149596894Y-75491582D01*
X149596895Y-75491582D01*
X149741582Y-75346895D01*
X149741582Y-75346894D01*
X149861859Y-75181349D01*
X149954755Y-74999029D01*
X150017990Y-74804413D01*
X150026609Y-74750000D01*
X149065686Y-74750000D01*
X149070080Y-74745606D01*
X149122741Y-74654394D01*
X149150000Y-74552661D01*
X149150000Y-74447339D01*
X149136685Y-74397648D01*
X154949500Y-74397648D01*
X154949500Y-74602351D01*
X154981522Y-74804534D01*
X155044781Y-74999223D01*
X155137715Y-75181613D01*
X155258028Y-75347213D01*
X155402786Y-75491971D01*
X155557749Y-75604556D01*
X155568390Y-75612287D01*
X155684607Y-75671503D01*
X155750776Y-75705218D01*
X155750778Y-75705218D01*
X155750781Y-75705220D01*
X155855137Y-75739127D01*
X155945465Y-75768477D01*
X156046557Y-75784488D01*
X156147648Y-75800500D01*
X156147649Y-75800500D01*
X156352351Y-75800500D01*
X156352352Y-75800500D01*
X156554534Y-75768477D01*
X156749219Y-75705220D01*
X156931610Y-75612287D01*
X157024590Y-75544732D01*
X157097213Y-75491971D01*
X157097215Y-75491968D01*
X157097219Y-75491966D01*
X157241966Y-75347219D01*
X157241968Y-75347215D01*
X157241971Y-75347213D01*
X157345133Y-75205220D01*
X157362287Y-75181610D01*
X157455220Y-74999219D01*
X157518477Y-74804534D01*
X157550500Y-74602352D01*
X157550500Y-74397648D01*
X157529039Y-74262150D01*
X157518477Y-74195465D01*
X157455218Y-74000776D01*
X157421503Y-73934607D01*
X157362287Y-73818390D01*
X157315792Y-73754394D01*
X157241971Y-73652786D01*
X157097213Y-73508028D01*
X156931613Y-73387715D01*
X156931612Y-73387714D01*
X156931610Y-73387713D01*
X156874653Y-73358691D01*
X156749223Y-73294781D01*
X156554534Y-73231522D01*
X156379995Y-73203878D01*
X156352352Y-73199500D01*
X156147648Y-73199500D01*
X156123329Y-73203351D01*
X155945465Y-73231522D01*
X155750776Y-73294781D01*
X155568386Y-73387715D01*
X155402786Y-73508028D01*
X155258028Y-73652786D01*
X155137715Y-73818386D01*
X155044781Y-74000776D01*
X154981522Y-74195465D01*
X154949500Y-74397648D01*
X149136685Y-74397648D01*
X149122741Y-74345606D01*
X149070080Y-74254394D01*
X149065686Y-74250000D01*
X150026609Y-74250000D01*
X150017990Y-74195586D01*
X149954755Y-74000970D01*
X149861859Y-73818650D01*
X149741582Y-73653105D01*
X149741582Y-73653104D01*
X149596895Y-73508417D01*
X149431349Y-73388140D01*
X149249029Y-73295244D01*
X149054413Y-73232009D01*
X149000000Y-73223390D01*
X149000000Y-74184314D01*
X148995606Y-74179920D01*
X148904394Y-74127259D01*
X148802661Y-74100000D01*
X148697339Y-74100000D01*
X148595606Y-74127259D01*
X148504394Y-74179920D01*
X148500000Y-74184314D01*
X148500000Y-73223390D01*
X148445586Y-73232009D01*
X148250970Y-73295244D01*
X148068650Y-73388140D01*
X147903105Y-73508417D01*
X147903104Y-73508417D01*
X147758417Y-73653104D01*
X147758417Y-73653105D01*
X147638140Y-73818650D01*
X147545244Y-74000970D01*
X147482009Y-74195586D01*
X147473391Y-74250000D01*
X137386609Y-74250000D01*
X136425686Y-74250000D01*
X136430080Y-74245606D01*
X136482741Y-74154394D01*
X136510000Y-74052661D01*
X136510000Y-73947339D01*
X136482741Y-73845606D01*
X136430080Y-73754394D01*
X136425686Y-73750000D01*
X137386609Y-73750000D01*
X137377990Y-73695586D01*
X137314755Y-73500970D01*
X137221859Y-73318650D01*
X137101582Y-73153105D01*
X137101582Y-73153104D01*
X136956895Y-73008417D01*
X136791349Y-72888140D01*
X136609029Y-72795244D01*
X136414413Y-72732009D01*
X136360000Y-72723390D01*
X136360000Y-73684314D01*
X136355606Y-73679920D01*
X136264394Y-73627259D01*
X136162661Y-73600000D01*
X136057339Y-73600000D01*
X135955606Y-73627259D01*
X135864394Y-73679920D01*
X135860000Y-73684314D01*
X135860000Y-72723390D01*
X135805586Y-72732009D01*
X135610970Y-72795244D01*
X135428650Y-72888140D01*
X135263105Y-73008417D01*
X135263104Y-73008417D01*
X135118417Y-73153104D01*
X135118417Y-73153105D01*
X134998140Y-73318650D01*
X134905244Y-73500970D01*
X134842009Y-73695586D01*
X134833391Y-73750000D01*
X129887114Y-73750000D01*
X129878477Y-73695466D01*
X129815220Y-73500781D01*
X129815218Y-73500778D01*
X129815218Y-73500776D01*
X129757610Y-73387715D01*
X129722287Y-73318390D01*
X129705134Y-73294781D01*
X129601971Y-73152786D01*
X129457213Y-73008028D01*
X129291613Y-72887715D01*
X129291612Y-72887714D01*
X129291610Y-72887713D01*
X129234653Y-72858691D01*
X129109223Y-72794781D01*
X128914534Y-72731522D01*
X128739995Y-72703878D01*
X128712352Y-72699500D01*
X128507648Y-72699500D01*
X128483329Y-72703351D01*
X128305465Y-72731522D01*
X128110776Y-72794781D01*
X127928386Y-72887715D01*
X127762786Y-73008028D01*
X127618028Y-73152786D01*
X127497715Y-73318386D01*
X127404781Y-73500776D01*
X127341522Y-73695465D01*
X127309500Y-73897648D01*
X125691537Y-73897648D01*
X125741966Y-73847219D01*
X125762723Y-73818650D01*
X125812599Y-73750000D01*
X125862287Y-73681610D01*
X125955220Y-73499219D01*
X126018477Y-73304534D01*
X126050500Y-73102352D01*
X126050500Y-72897648D01*
X126034207Y-72794780D01*
X126018477Y-72695465D01*
X125955218Y-72500776D01*
X125921503Y-72434607D01*
X125862287Y-72318390D01*
X125845869Y-72295792D01*
X125741971Y-72152786D01*
X125597213Y-72008028D01*
X125431613Y-71887715D01*
X125431612Y-71887714D01*
X125431610Y-71887713D01*
X125374653Y-71858691D01*
X125249223Y-71794781D01*
X125054534Y-71731522D01*
X124879995Y-71703878D01*
X124852352Y-71699500D01*
X124647648Y-71699500D01*
X124623329Y-71703351D01*
X124445465Y-71731522D01*
X124250776Y-71794781D01*
X124068386Y-71887715D01*
X123902786Y-72008028D01*
X123758028Y-72152786D01*
X123637715Y-72318386D01*
X123544781Y-72500776D01*
X123481522Y-72695465D01*
X123449500Y-72897648D01*
X120364068Y-72897648D01*
X120354824Y-72807158D01*
X120298720Y-72637847D01*
X120298716Y-72637841D01*
X120298715Y-72637838D01*
X120205085Y-72486042D01*
X120205082Y-72486038D01*
X120078961Y-72359917D01*
X120078957Y-72359914D01*
X119927161Y-72266284D01*
X119927155Y-72266281D01*
X119927153Y-72266280D01*
X119757842Y-72210176D01*
X119757835Y-72210175D01*
X119653342Y-72199500D01*
X119026666Y-72199500D01*
X119026648Y-72199501D01*
X118922158Y-72210175D01*
X118922155Y-72210176D01*
X118811890Y-72246715D01*
X118752847Y-72266280D01*
X118752845Y-72266280D01*
X118745992Y-72268552D01*
X118745154Y-72266024D01*
X118688275Y-72274639D01*
X118664321Y-72267605D01*
X118664008Y-72268552D01*
X118657154Y-72266281D01*
X118657153Y-72266280D01*
X118487842Y-72210176D01*
X118487835Y-72210175D01*
X118383342Y-72199500D01*
X117756666Y-72199500D01*
X117756648Y-72199501D01*
X117652158Y-72210175D01*
X117652152Y-72210177D01*
X117583325Y-72232984D01*
X117513497Y-72235386D01*
X117500988Y-72231460D01*
X117432484Y-72205909D01*
X117432480Y-72205908D01*
X117372883Y-72199501D01*
X117372881Y-72199500D01*
X117372873Y-72199500D01*
X117372864Y-72199500D01*
X116227129Y-72199500D01*
X116227123Y-72199501D01*
X116167516Y-72205908D01*
X116032671Y-72256202D01*
X116032664Y-72256206D01*
X115917455Y-72342452D01*
X115917452Y-72342455D01*
X115831206Y-72457664D01*
X115831202Y-72457671D01*
X115780908Y-72592517D01*
X115774501Y-72652116D01*
X115774500Y-72652135D01*
X109000500Y-72652135D01*
X109000500Y-66250000D01*
X111473391Y-66250000D01*
X112434314Y-66250000D01*
X112429920Y-66254394D01*
X112377259Y-66345606D01*
X112350000Y-66447339D01*
X112350000Y-66552661D01*
X112377259Y-66654394D01*
X112429920Y-66745606D01*
X112434314Y-66750000D01*
X111473391Y-66750000D01*
X111482009Y-66804413D01*
X111545244Y-66999029D01*
X111638140Y-67181349D01*
X111758417Y-67346894D01*
X111758417Y-67346895D01*
X111903104Y-67491582D01*
X112068650Y-67611859D01*
X112250968Y-67704754D01*
X112445578Y-67767988D01*
X112500000Y-67776607D01*
X112500000Y-66815686D01*
X112504394Y-66820080D01*
X112595606Y-66872741D01*
X112697339Y-66900000D01*
X112802661Y-66900000D01*
X112904394Y-66872741D01*
X112995606Y-66820080D01*
X113000000Y-66815686D01*
X113000000Y-67776606D01*
X113054421Y-67767988D01*
X113249031Y-67704754D01*
X113431349Y-67611859D01*
X113596894Y-67491582D01*
X113596895Y-67491582D01*
X113741582Y-67346895D01*
X113741582Y-67346894D01*
X113861859Y-67181349D01*
X113954755Y-66999029D01*
X114017990Y-66804413D01*
X114026609Y-66750000D01*
X113065686Y-66750000D01*
X113070080Y-66745606D01*
X113122095Y-66655513D01*
X117239500Y-66655513D01*
X117239500Y-66844486D01*
X117269059Y-67031118D01*
X117327454Y-67210836D01*
X117413108Y-67378940D01*
X117413240Y-67379199D01*
X117524310Y-67532073D01*
X117657927Y-67665690D01*
X117810801Y-67776760D01*
X117884662Y-67814394D01*
X117979163Y-67862545D01*
X117979165Y-67862545D01*
X117979168Y-67862547D01*
X118039251Y-67882069D01*
X118096926Y-67921507D01*
X118124124Y-67985866D01*
X118112209Y-68054712D01*
X118064965Y-68106188D01*
X118039253Y-68117930D01*
X118020756Y-68123939D01*
X117979163Y-68137454D01*
X117810800Y-68223240D01*
X117723579Y-68286610D01*
X117657927Y-68334310D01*
X117657925Y-68334312D01*
X117657924Y-68334312D01*
X117524312Y-68467924D01*
X117524312Y-68467925D01*
X117524310Y-68467927D01*
X117495999Y-68506894D01*
X117413240Y-68620800D01*
X117327454Y-68789163D01*
X117269059Y-68968881D01*
X117239500Y-69155513D01*
X117239500Y-69344486D01*
X117269059Y-69531118D01*
X117327454Y-69710836D01*
X117369140Y-69792648D01*
X117413240Y-69879199D01*
X117524310Y-70032073D01*
X117657927Y-70165690D01*
X117810801Y-70276760D01*
X117890347Y-70317290D01*
X117979163Y-70362545D01*
X117979165Y-70362545D01*
X117979168Y-70362547D01*
X118075497Y-70393846D01*
X118158881Y-70420940D01*
X118345514Y-70450500D01*
X118345519Y-70450500D01*
X118534486Y-70450500D01*
X118721118Y-70420940D01*
X118900832Y-70362547D01*
X119069199Y-70276760D01*
X119222073Y-70165690D01*
X119355690Y-70032073D01*
X119466760Y-69879199D01*
X119552547Y-69710832D01*
X119610940Y-69531118D01*
X119612957Y-69518386D01*
X119640500Y-69344486D01*
X119640500Y-69155513D01*
X124859500Y-69155513D01*
X124859500Y-69344486D01*
X124889059Y-69531118D01*
X124947454Y-69710836D01*
X124989140Y-69792648D01*
X125033240Y-69879199D01*
X125144310Y-70032073D01*
X125277927Y-70165690D01*
X125430801Y-70276760D01*
X125510347Y-70317290D01*
X125599163Y-70362545D01*
X125599165Y-70362545D01*
X125599168Y-70362547D01*
X125695497Y-70393846D01*
X125778881Y-70420940D01*
X125965514Y-70450500D01*
X125965519Y-70450500D01*
X126154486Y-70450500D01*
X126341118Y-70420940D01*
X126520832Y-70362547D01*
X126689199Y-70276760D01*
X126842073Y-70165690D01*
X126842076Y-70165686D01*
X126842614Y-70165296D01*
X126908420Y-70141816D01*
X126976474Y-70157641D01*
X127025169Y-70207747D01*
X127039500Y-70265614D01*
X127039500Y-70302351D01*
X127071522Y-70504534D01*
X127134781Y-70699223D01*
X127227715Y-70881613D01*
X127348028Y-71047213D01*
X127492786Y-71191971D01*
X127618590Y-71283371D01*
X127658390Y-71312287D01*
X127747212Y-71357544D01*
X127840776Y-71405218D01*
X127840778Y-71405218D01*
X127840781Y-71405220D01*
X127945137Y-71439127D01*
X128035465Y-71468477D01*
X128136557Y-71484488D01*
X128237648Y-71500500D01*
X128237649Y-71500500D01*
X129242351Y-71500500D01*
X129242352Y-71500500D01*
X129444534Y-71468477D01*
X129639219Y-71405220D01*
X129821610Y-71312287D01*
X129931325Y-71232575D01*
X129987213Y-71191971D01*
X129987215Y-71191968D01*
X129987219Y-71191966D01*
X130131966Y-71047219D01*
X130131968Y-71047215D01*
X130131971Y-71047213D01*
X130184732Y-70974590D01*
X130252287Y-70881610D01*
X130345220Y-70699219D01*
X130408477Y-70504534D01*
X130440500Y-70302352D01*
X130440500Y-70097648D01*
X130425113Y-70000500D01*
X130408477Y-69895465D01*
X130348487Y-69710836D01*
X130345220Y-69700781D01*
X130345218Y-69700778D01*
X130345218Y-69700776D01*
X130311503Y-69634607D01*
X130252287Y-69518390D01*
X130222586Y-69477510D01*
X130131971Y-69352786D01*
X129987213Y-69208028D01*
X129821611Y-69087713D01*
X129728369Y-69040203D01*
X129677574Y-68992229D01*
X129660779Y-68924407D01*
X129683317Y-68858273D01*
X129728371Y-68819234D01*
X129821347Y-68771861D01*
X129986894Y-68651582D01*
X129986895Y-68651582D01*
X130131582Y-68506895D01*
X130131582Y-68506894D01*
X130251859Y-68341349D01*
X130344755Y-68159029D01*
X130407990Y-67964413D01*
X130416609Y-67910000D01*
X129055686Y-67910000D01*
X129060080Y-67905606D01*
X129112741Y-67814394D01*
X129140000Y-67712661D01*
X129140000Y-67607339D01*
X129112741Y-67505606D01*
X129060080Y-67414394D01*
X129055686Y-67410000D01*
X130416609Y-67410000D01*
X130407990Y-67355586D01*
X130344755Y-67160970D01*
X130251859Y-66978650D01*
X130131582Y-66813105D01*
X130131582Y-66813104D01*
X129986895Y-66668417D01*
X129821349Y-66548140D01*
X129728370Y-66500765D01*
X129677574Y-66452790D01*
X129660779Y-66384969D01*
X129683316Y-66318835D01*
X129728370Y-66279795D01*
X129728920Y-66279515D01*
X129821610Y-66232287D01*
X129893688Y-66179920D01*
X129987213Y-66111971D01*
X129987215Y-66111968D01*
X129987219Y-66111966D01*
X130131966Y-65967219D01*
X130131968Y-65967215D01*
X130131971Y-65967213D01*
X130184732Y-65894590D01*
X130252287Y-65801610D01*
X130345220Y-65619219D01*
X130408477Y-65424534D01*
X130440500Y-65222352D01*
X130440500Y-65017648D01*
X130408477Y-64815466D01*
X130398959Y-64786174D01*
X130345218Y-64620776D01*
X130311503Y-64554607D01*
X130252287Y-64438390D01*
X130224467Y-64400099D01*
X130131971Y-64272786D01*
X129987213Y-64128028D01*
X129821614Y-64007715D01*
X129772091Y-63982482D01*
X129728917Y-63960483D01*
X129678123Y-63912511D01*
X129661328Y-63844690D01*
X129683865Y-63778555D01*
X129728917Y-63739516D01*
X129821610Y-63692287D01*
X129861413Y-63663369D01*
X129987213Y-63571971D01*
X129987215Y-63571968D01*
X129987219Y-63571966D01*
X130131966Y-63427219D01*
X130131968Y-63427215D01*
X130131971Y-63427213D01*
X130184732Y-63354590D01*
X130252287Y-63261610D01*
X130345220Y-63079219D01*
X130408477Y-62884534D01*
X130440500Y-62682352D01*
X130440500Y-62477648D01*
X130421151Y-62355483D01*
X130408477Y-62275465D01*
X130375069Y-62172648D01*
X130345220Y-62080781D01*
X130345218Y-62080778D01*
X130345218Y-62080776D01*
X130303805Y-61999500D01*
X130252287Y-61898390D01*
X130239859Y-61881284D01*
X130131971Y-61732786D01*
X129987213Y-61588028D01*
X129821614Y-61467715D01*
X129814460Y-61464070D01*
X129728917Y-61420483D01*
X129678123Y-61372511D01*
X129661328Y-61304690D01*
X129683865Y-61238555D01*
X129728917Y-61199516D01*
X129821610Y-61152287D01*
X129876944Y-61112085D01*
X129987213Y-61031971D01*
X129987215Y-61031968D01*
X129987219Y-61031966D01*
X130131966Y-60887219D01*
X130131968Y-60887215D01*
X130131971Y-60887213D01*
X130184732Y-60814590D01*
X130252287Y-60721610D01*
X130345220Y-60539219D01*
X130408477Y-60344534D01*
X130440500Y-60142352D01*
X130440500Y-59937648D01*
X130429633Y-59869040D01*
X130408477Y-59735465D01*
X130370340Y-59618092D01*
X130345220Y-59540781D01*
X130345218Y-59540778D01*
X130345218Y-59540776D01*
X130306869Y-59465513D01*
X130252287Y-59358390D01*
X130194521Y-59278881D01*
X130131971Y-59192786D01*
X129987213Y-59048028D01*
X129821614Y-58927715D01*
X129814329Y-58924003D01*
X129728917Y-58880483D01*
X129678123Y-58832511D01*
X129661328Y-58764690D01*
X129683865Y-58698555D01*
X129728917Y-58659516D01*
X129821610Y-58612287D01*
X129939329Y-58526760D01*
X129987213Y-58491971D01*
X129987215Y-58491968D01*
X129987219Y-58491966D01*
X130131966Y-58347219D01*
X130131968Y-58347215D01*
X130131971Y-58347213D01*
X130196762Y-58258034D01*
X130252287Y-58181610D01*
X130345220Y-57999219D01*
X130408477Y-57804534D01*
X130440500Y-57602352D01*
X130440500Y-57397648D01*
X130422673Y-57285095D01*
X130408477Y-57195465D01*
X130379127Y-57105137D01*
X130345220Y-57000781D01*
X130345218Y-57000778D01*
X130345218Y-57000776D01*
X130279123Y-56871059D01*
X130252287Y-56818390D01*
X130244556Y-56807749D01*
X130131971Y-56652786D01*
X129987213Y-56508028D01*
X129821611Y-56387713D01*
X129728369Y-56340203D01*
X129677574Y-56292229D01*
X129660779Y-56224407D01*
X129683317Y-56158273D01*
X129728371Y-56119234D01*
X129821347Y-56071861D01*
X129986894Y-55951582D01*
X129986895Y-55951582D01*
X130131582Y-55806895D01*
X130131582Y-55806894D01*
X130251859Y-55641349D01*
X130344755Y-55459029D01*
X130407990Y-55264413D01*
X130416609Y-55210000D01*
X129055686Y-55210000D01*
X129060080Y-55205606D01*
X129112741Y-55114394D01*
X129140000Y-55012661D01*
X129140000Y-54907339D01*
X129126685Y-54857648D01*
X134659500Y-54857648D01*
X134659500Y-55062351D01*
X134691522Y-55264534D01*
X134754781Y-55459223D01*
X134847715Y-55641613D01*
X134968028Y-55807213D01*
X135112786Y-55951971D01*
X135267749Y-56064556D01*
X135278390Y-56072287D01*
X135369840Y-56118883D01*
X135371080Y-56119515D01*
X135421876Y-56167490D01*
X135438671Y-56235311D01*
X135416134Y-56301446D01*
X135371080Y-56340485D01*
X135278386Y-56387715D01*
X135112786Y-56508028D01*
X134968028Y-56652786D01*
X134847715Y-56818386D01*
X134754781Y-57000776D01*
X134691522Y-57195465D01*
X134659500Y-57397648D01*
X134659500Y-57602351D01*
X134691522Y-57804534D01*
X134754781Y-57999223D01*
X134847715Y-58181613D01*
X134968028Y-58347213D01*
X135112786Y-58491971D01*
X135217970Y-58568390D01*
X135278390Y-58612287D01*
X135350424Y-58648990D01*
X135371629Y-58659795D01*
X135422425Y-58707770D01*
X135439220Y-58775591D01*
X135416682Y-58841726D01*
X135371629Y-58880765D01*
X135278650Y-58928140D01*
X135113105Y-59048417D01*
X135113104Y-59048417D01*
X134968417Y-59193104D01*
X134968417Y-59193105D01*
X134848140Y-59358650D01*
X134755244Y-59540970D01*
X134692009Y-59735586D01*
X134683391Y-59790000D01*
X136044314Y-59790000D01*
X136039920Y-59794394D01*
X135987259Y-59885606D01*
X135960000Y-59987339D01*
X135960000Y-60092661D01*
X135987259Y-60194394D01*
X136039920Y-60285606D01*
X136044314Y-60290000D01*
X134683391Y-60290000D01*
X134692009Y-60344413D01*
X134755244Y-60539029D01*
X134848140Y-60721349D01*
X134968417Y-60886894D01*
X134968417Y-60886895D01*
X135113104Y-61031582D01*
X135278652Y-61151861D01*
X135371628Y-61199234D01*
X135422425Y-61247208D01*
X135439220Y-61315029D01*
X135416683Y-61381164D01*
X135371630Y-61420203D01*
X135278388Y-61467713D01*
X135112786Y-61588028D01*
X134968028Y-61732786D01*
X134847715Y-61898386D01*
X134754781Y-62080776D01*
X134691522Y-62275465D01*
X134659500Y-62477648D01*
X134659500Y-62682351D01*
X134691522Y-62884534D01*
X134754781Y-63079223D01*
X134847715Y-63261613D01*
X134968028Y-63427213D01*
X135112786Y-63571971D01*
X135238590Y-63663371D01*
X135278390Y-63692287D01*
X135369840Y-63738883D01*
X135371080Y-63739515D01*
X135421876Y-63787490D01*
X135438671Y-63855311D01*
X135416134Y-63921446D01*
X135371080Y-63960485D01*
X135278386Y-64007715D01*
X135112786Y-64128028D01*
X134968028Y-64272786D01*
X134847715Y-64438386D01*
X134754781Y-64620776D01*
X134691522Y-64815465D01*
X134668068Y-64963553D01*
X134659500Y-65017648D01*
X134659500Y-65222352D01*
X134661030Y-65232009D01*
X134691522Y-65424534D01*
X134754781Y-65619223D01*
X134847715Y-65801613D01*
X134968028Y-65967213D01*
X135112786Y-66111971D01*
X135206312Y-66179920D01*
X135278390Y-66232287D01*
X135369840Y-66278883D01*
X135371080Y-66279515D01*
X135421876Y-66327490D01*
X135438671Y-66395311D01*
X135416134Y-66461446D01*
X135371080Y-66500485D01*
X135278386Y-66547715D01*
X135112786Y-66668028D01*
X134968028Y-66812786D01*
X134847715Y-66978386D01*
X134754781Y-67160776D01*
X134691522Y-67355465D01*
X134659500Y-67557648D01*
X134659500Y-67762351D01*
X134691522Y-67964534D01*
X134754781Y-68159223D01*
X134787400Y-68223240D01*
X134843994Y-68334312D01*
X134847715Y-68341613D01*
X134968028Y-68507213D01*
X135112784Y-68651969D01*
X135149068Y-68678330D01*
X135191735Y-68733659D01*
X135197715Y-68803273D01*
X135165109Y-68865068D01*
X135104271Y-68899426D01*
X135089440Y-68901938D01*
X135052519Y-68905907D01*
X134917671Y-68956202D01*
X134917664Y-68956206D01*
X134802455Y-69042452D01*
X134802452Y-69042455D01*
X134716206Y-69157664D01*
X134716202Y-69157671D01*
X134665908Y-69292517D01*
X134659548Y-69351682D01*
X134659501Y-69352123D01*
X134659500Y-69352135D01*
X134659500Y-71047870D01*
X134659501Y-71047876D01*
X134665908Y-71107483D01*
X134716202Y-71242328D01*
X134716206Y-71242335D01*
X134802452Y-71357544D01*
X134802455Y-71357547D01*
X134917664Y-71443793D01*
X134917671Y-71443797D01*
X135052517Y-71494091D01*
X135052516Y-71494091D01*
X135059444Y-71494835D01*
X135112127Y-71500500D01*
X137607872Y-71500499D01*
X137667483Y-71494091D01*
X137802331Y-71443796D01*
X137917546Y-71357546D01*
X138003796Y-71242331D01*
X138054091Y-71107483D01*
X138060500Y-71047873D01*
X138060499Y-69792648D01*
X139999500Y-69792648D01*
X139999500Y-70797351D01*
X140031522Y-70999534D01*
X140094781Y-71194223D01*
X140140205Y-71283371D01*
X140177999Y-71357546D01*
X140187715Y-71376613D01*
X140308028Y-71542213D01*
X140452786Y-71686971D01*
X140601175Y-71794780D01*
X140618390Y-71807287D01*
X140734607Y-71866503D01*
X140800776Y-71900218D01*
X140800778Y-71900218D01*
X140800781Y-71900220D01*
X140905137Y-71934127D01*
X140995465Y-71963477D01*
X141096557Y-71979488D01*
X141197648Y-71995500D01*
X141197649Y-71995500D01*
X141402351Y-71995500D01*
X141402352Y-71995500D01*
X141604534Y-71963477D01*
X141799219Y-71900220D01*
X141981610Y-71807287D01*
X142085891Y-71731523D01*
X142147213Y-71686971D01*
X142147215Y-71686968D01*
X142147219Y-71686966D01*
X142291966Y-71542219D01*
X142291968Y-71542215D01*
X142291971Y-71542213D01*
X142412284Y-71376614D01*
X142412286Y-71376611D01*
X142412287Y-71376610D01*
X142459795Y-71283369D01*
X142507770Y-71232574D01*
X142575591Y-71215779D01*
X142641725Y-71238316D01*
X142680765Y-71283370D01*
X142728140Y-71376349D01*
X142848417Y-71541894D01*
X142848417Y-71541895D01*
X142993104Y-71686582D01*
X143158650Y-71806859D01*
X143340968Y-71899754D01*
X143535578Y-71962988D01*
X143590000Y-71971607D01*
X143590000Y-70610686D01*
X143594394Y-70615080D01*
X143685606Y-70667741D01*
X143787339Y-70695000D01*
X143892661Y-70695000D01*
X143994394Y-70667741D01*
X144085606Y-70615080D01*
X144090000Y-70610686D01*
X144090000Y-71971606D01*
X144144421Y-71962988D01*
X144339031Y-71899754D01*
X144521349Y-71806859D01*
X144686894Y-71686582D01*
X144686895Y-71686582D01*
X144831582Y-71541895D01*
X144831582Y-71541894D01*
X144951861Y-71376347D01*
X144999234Y-71283371D01*
X145047208Y-71232575D01*
X145115028Y-71215779D01*
X145181164Y-71238316D01*
X145220203Y-71283369D01*
X145267713Y-71376611D01*
X145388028Y-71542213D01*
X145532786Y-71686971D01*
X145681175Y-71794780D01*
X145698390Y-71807287D01*
X145814607Y-71866503D01*
X145880776Y-71900218D01*
X145880778Y-71900218D01*
X145880781Y-71900220D01*
X145985137Y-71934127D01*
X146075465Y-71963477D01*
X146176557Y-71979488D01*
X146277648Y-71995500D01*
X146277649Y-71995500D01*
X146482351Y-71995500D01*
X146482352Y-71995500D01*
X146684534Y-71963477D01*
X146879219Y-71900220D01*
X147061610Y-71807287D01*
X147165891Y-71731523D01*
X147227213Y-71686971D01*
X147227215Y-71686968D01*
X147227219Y-71686966D01*
X147371966Y-71542219D01*
X147371968Y-71542215D01*
X147371971Y-71542213D01*
X147492284Y-71376614D01*
X147492286Y-71376611D01*
X147492287Y-71376610D01*
X147539795Y-71283369D01*
X147587770Y-71232574D01*
X147655591Y-71215779D01*
X147721725Y-71238316D01*
X147760765Y-71283370D01*
X147808140Y-71376349D01*
X147928417Y-71541894D01*
X147928417Y-71541895D01*
X148073104Y-71686582D01*
X148238650Y-71806859D01*
X148420968Y-71899754D01*
X148615578Y-71962988D01*
X148670000Y-71971607D01*
X148670000Y-70610686D01*
X148674394Y-70615080D01*
X148765606Y-70667741D01*
X148867339Y-70695000D01*
X148972661Y-70695000D01*
X149074394Y-70667741D01*
X149165606Y-70615080D01*
X149170000Y-70610686D01*
X149170000Y-71971607D01*
X149224421Y-71962988D01*
X149419031Y-71899754D01*
X149601349Y-71806859D01*
X149766894Y-71686582D01*
X149766895Y-71686582D01*
X149911582Y-71541895D01*
X149911582Y-71541894D01*
X150031861Y-71376347D01*
X150079234Y-71283371D01*
X150127208Y-71232575D01*
X150195028Y-71215779D01*
X150261164Y-71238316D01*
X150300203Y-71283369D01*
X150347713Y-71376611D01*
X150468028Y-71542213D01*
X150612786Y-71686971D01*
X150761175Y-71794780D01*
X150778390Y-71807287D01*
X150894607Y-71866503D01*
X150960776Y-71900218D01*
X150960778Y-71900218D01*
X150960781Y-71900220D01*
X151065137Y-71934127D01*
X151155465Y-71963477D01*
X151256557Y-71979488D01*
X151357648Y-71995500D01*
X151357649Y-71995500D01*
X151562351Y-71995500D01*
X151562352Y-71995500D01*
X151764534Y-71963477D01*
X151959219Y-71900220D01*
X152141610Y-71807287D01*
X152245891Y-71731523D01*
X152307213Y-71686971D01*
X152307215Y-71686968D01*
X152307219Y-71686966D01*
X152451966Y-71542219D01*
X152451968Y-71542215D01*
X152451971Y-71542213D01*
X152572284Y-71376614D01*
X152572286Y-71376611D01*
X152572287Y-71376610D01*
X152619795Y-71283369D01*
X152667770Y-71232574D01*
X152735591Y-71215779D01*
X152801725Y-71238316D01*
X152840765Y-71283370D01*
X152888140Y-71376349D01*
X153008417Y-71541894D01*
X153008417Y-71541895D01*
X153153104Y-71686582D01*
X153318650Y-71806859D01*
X153500968Y-71899754D01*
X153695578Y-71962988D01*
X153750000Y-71971607D01*
X153750000Y-70610686D01*
X153754394Y-70615080D01*
X153845606Y-70667741D01*
X153947339Y-70695000D01*
X154052661Y-70695000D01*
X154154394Y-70667741D01*
X154245606Y-70615080D01*
X154250000Y-70610686D01*
X154250000Y-71971606D01*
X154304421Y-71962988D01*
X154499031Y-71899754D01*
X154681349Y-71806859D01*
X154846894Y-71686582D01*
X154846895Y-71686582D01*
X154991582Y-71541895D01*
X154991582Y-71541894D01*
X155111861Y-71376347D01*
X155159234Y-71283371D01*
X155207208Y-71232575D01*
X155275028Y-71215779D01*
X155341164Y-71238316D01*
X155380203Y-71283369D01*
X155427713Y-71376611D01*
X155548028Y-71542213D01*
X155692786Y-71686971D01*
X155841175Y-71794780D01*
X155858390Y-71807287D01*
X155974607Y-71866503D01*
X156040776Y-71900218D01*
X156040778Y-71900218D01*
X156040781Y-71900220D01*
X156145137Y-71934127D01*
X156235465Y-71963477D01*
X156336557Y-71979488D01*
X156437648Y-71995500D01*
X156437649Y-71995500D01*
X156642351Y-71995500D01*
X156642352Y-71995500D01*
X156844534Y-71963477D01*
X157039219Y-71900220D01*
X157221610Y-71807287D01*
X157325891Y-71731523D01*
X157387213Y-71686971D01*
X157387215Y-71686968D01*
X157387219Y-71686966D01*
X157531966Y-71542219D01*
X157531968Y-71542215D01*
X157531971Y-71542213D01*
X157603476Y-71443793D01*
X157652287Y-71376610D01*
X157745220Y-71194219D01*
X157808477Y-70999534D01*
X157840500Y-70797352D01*
X157840500Y-69792648D01*
X157827541Y-69710832D01*
X157808477Y-69590465D01*
X157745218Y-69395776D01*
X157692604Y-69292517D01*
X157652287Y-69213390D01*
X157613738Y-69160331D01*
X157531971Y-69047786D01*
X157387213Y-68903028D01*
X157221613Y-68782715D01*
X157221612Y-68782714D01*
X157221610Y-68782713D01*
X157153451Y-68747984D01*
X157039223Y-68689781D01*
X156844534Y-68626522D01*
X156669995Y-68598878D01*
X156642352Y-68594500D01*
X156437648Y-68594500D01*
X156413329Y-68598351D01*
X156235465Y-68626522D01*
X156040776Y-68689781D01*
X155858386Y-68782715D01*
X155692786Y-68903028D01*
X155548028Y-69047786D01*
X155427713Y-69213388D01*
X155380203Y-69306630D01*
X155332228Y-69357426D01*
X155264407Y-69374220D01*
X155198272Y-69351682D01*
X155159234Y-69306628D01*
X155111861Y-69213652D01*
X154991582Y-69048105D01*
X154991582Y-69048104D01*
X154846895Y-68903417D01*
X154681349Y-68783140D01*
X154499029Y-68690244D01*
X154304413Y-68627009D01*
X154250000Y-68618390D01*
X154250000Y-69979314D01*
X154245606Y-69974920D01*
X154154394Y-69922259D01*
X154052661Y-69895000D01*
X153947339Y-69895000D01*
X153845606Y-69922259D01*
X153754394Y-69974920D01*
X153750000Y-69979314D01*
X153750000Y-68618390D01*
X153695586Y-68627009D01*
X153500970Y-68690244D01*
X153318650Y-68783140D01*
X153153105Y-68903417D01*
X153153104Y-68903417D01*
X153008417Y-69048104D01*
X153008417Y-69048105D01*
X152888140Y-69213650D01*
X152840765Y-69306629D01*
X152792790Y-69357425D01*
X152724969Y-69374220D01*
X152658834Y-69351682D01*
X152619795Y-69306629D01*
X152594935Y-69257840D01*
X152572287Y-69213390D01*
X152533738Y-69160331D01*
X152451971Y-69047786D01*
X152307213Y-68903028D01*
X152141613Y-68782715D01*
X152141612Y-68782714D01*
X152141610Y-68782713D01*
X152073451Y-68747984D01*
X151959223Y-68689781D01*
X151764534Y-68626522D01*
X151589995Y-68598878D01*
X151562352Y-68594500D01*
X151357648Y-68594500D01*
X151333329Y-68598351D01*
X151155465Y-68626522D01*
X150960776Y-68689781D01*
X150778386Y-68782715D01*
X150612786Y-68903028D01*
X150468028Y-69047786D01*
X150347713Y-69213388D01*
X150300203Y-69306630D01*
X150252228Y-69357426D01*
X150184407Y-69374220D01*
X150118272Y-69351682D01*
X150079234Y-69306628D01*
X150031861Y-69213652D01*
X149911582Y-69048105D01*
X149911582Y-69048104D01*
X149766895Y-68903417D01*
X149601349Y-68783140D01*
X149419029Y-68690244D01*
X149224413Y-68627009D01*
X149170000Y-68618390D01*
X149170000Y-69979314D01*
X149165606Y-69974920D01*
X149074394Y-69922259D01*
X148972661Y-69895000D01*
X148867339Y-69895000D01*
X148765606Y-69922259D01*
X148674394Y-69974920D01*
X148670000Y-69979314D01*
X148670000Y-68618390D01*
X148615586Y-68627009D01*
X148420970Y-68690244D01*
X148238650Y-68783140D01*
X148073105Y-68903417D01*
X148073104Y-68903417D01*
X147928417Y-69048104D01*
X147928417Y-69048105D01*
X147808140Y-69213650D01*
X147760765Y-69306629D01*
X147712790Y-69357425D01*
X147644969Y-69374220D01*
X147578834Y-69351682D01*
X147539795Y-69306629D01*
X147514935Y-69257840D01*
X147492287Y-69213390D01*
X147453738Y-69160331D01*
X147371971Y-69047786D01*
X147227213Y-68903028D01*
X147061613Y-68782715D01*
X147061612Y-68782714D01*
X147061610Y-68782713D01*
X146993451Y-68747984D01*
X146879223Y-68689781D01*
X146684534Y-68626522D01*
X146509995Y-68598878D01*
X146482352Y-68594500D01*
X146277648Y-68594500D01*
X146253329Y-68598351D01*
X146075465Y-68626522D01*
X145880776Y-68689781D01*
X145698386Y-68782715D01*
X145532786Y-68903028D01*
X145388028Y-69047786D01*
X145267713Y-69213388D01*
X145220203Y-69306630D01*
X145172228Y-69357426D01*
X145104407Y-69374220D01*
X145038272Y-69351682D01*
X144999234Y-69306628D01*
X144951861Y-69213652D01*
X144831582Y-69048105D01*
X144831582Y-69048104D01*
X144686895Y-68903417D01*
X144521349Y-68783140D01*
X144339029Y-68690244D01*
X144144413Y-68627009D01*
X144090000Y-68618390D01*
X144090000Y-69979314D01*
X144085606Y-69974920D01*
X143994394Y-69922259D01*
X143892661Y-69895000D01*
X143787339Y-69895000D01*
X143685606Y-69922259D01*
X143594394Y-69974920D01*
X143590000Y-69979314D01*
X143590000Y-68618390D01*
X143535586Y-68627009D01*
X143340970Y-68690244D01*
X143158650Y-68783140D01*
X142993105Y-68903417D01*
X142993104Y-68903417D01*
X142848417Y-69048104D01*
X142848417Y-69048105D01*
X142728140Y-69213650D01*
X142680765Y-69306629D01*
X142632790Y-69357425D01*
X142564969Y-69374220D01*
X142498834Y-69351682D01*
X142459795Y-69306629D01*
X142434935Y-69257840D01*
X142412287Y-69213390D01*
X142373738Y-69160331D01*
X142291971Y-69047786D01*
X142147213Y-68903028D01*
X141981613Y-68782715D01*
X141981612Y-68782714D01*
X141981610Y-68782713D01*
X141913451Y-68747984D01*
X141799223Y-68689781D01*
X141604534Y-68626522D01*
X141429995Y-68598878D01*
X141402352Y-68594500D01*
X141197648Y-68594500D01*
X141173329Y-68598351D01*
X140995465Y-68626522D01*
X140800776Y-68689781D01*
X140618386Y-68782715D01*
X140452786Y-68903028D01*
X140308028Y-69047786D01*
X140187715Y-69213386D01*
X140094781Y-69395776D01*
X140031522Y-69590465D01*
X139999500Y-69792648D01*
X138060499Y-69792648D01*
X138060499Y-69352128D01*
X138054091Y-69292517D01*
X138041157Y-69257840D01*
X138003797Y-69157671D01*
X138003793Y-69157664D01*
X137917547Y-69042455D01*
X137917544Y-69042452D01*
X137802335Y-68956206D01*
X137802328Y-68956202D01*
X137667482Y-68905908D01*
X137667483Y-68905908D01*
X137630560Y-68901939D01*
X137566009Y-68875201D01*
X137526160Y-68817809D01*
X137523667Y-68747984D01*
X137559319Y-68687895D01*
X137570930Y-68678331D01*
X137607219Y-68651966D01*
X137751966Y-68507219D01*
X137751968Y-68507215D01*
X137751971Y-68507213D01*
X137843013Y-68381902D01*
X158499500Y-68381902D01*
X158499500Y-68618097D01*
X158536446Y-68851368D01*
X158609433Y-69075996D01*
X158702088Y-69257840D01*
X158716657Y-69286433D01*
X158855483Y-69477510D01*
X159022490Y-69644517D01*
X159213567Y-69783343D01*
X159312991Y-69834002D01*
X159424003Y-69890566D01*
X159424005Y-69890566D01*
X159424008Y-69890568D01*
X159521543Y-69922259D01*
X159648631Y-69963553D01*
X159881903Y-70000500D01*
X159881908Y-70000500D01*
X160118097Y-70000500D01*
X160351368Y-69963553D01*
X160575992Y-69890568D01*
X160786433Y-69783343D01*
X160977510Y-69644517D01*
X161144517Y-69477510D01*
X161283343Y-69286433D01*
X161390568Y-69075992D01*
X161463553Y-68851368D01*
X161500500Y-68618097D01*
X161500500Y-68381902D01*
X161463553Y-68148631D01*
X161408787Y-67980080D01*
X161390568Y-67924008D01*
X161390566Y-67924005D01*
X161390566Y-67924003D01*
X161308200Y-67762352D01*
X161283343Y-67713567D01*
X161144517Y-67522490D01*
X160977510Y-67355483D01*
X160786433Y-67216657D01*
X160774618Y-67210637D01*
X160575996Y-67109433D01*
X160351368Y-67036446D01*
X160118097Y-66999500D01*
X160118092Y-66999500D01*
X159881908Y-66999500D01*
X159881903Y-66999500D01*
X159648631Y-67036446D01*
X159424003Y-67109433D01*
X159213566Y-67216657D01*
X159116392Y-67287259D01*
X159022490Y-67355483D01*
X159022488Y-67355485D01*
X159022487Y-67355485D01*
X158855485Y-67522487D01*
X158855485Y-67522488D01*
X158855483Y-67522490D01*
X158795862Y-67604550D01*
X158716657Y-67713566D01*
X158609433Y-67924003D01*
X158536446Y-68148631D01*
X158499500Y-68381902D01*
X137843013Y-68381902D01*
X137872286Y-68341611D01*
X137876006Y-68334312D01*
X137965220Y-68159219D01*
X138028477Y-67964534D01*
X138060500Y-67762352D01*
X138060500Y-67557648D01*
X138038889Y-67421206D01*
X138028477Y-67355465D01*
X137981484Y-67210836D01*
X137965220Y-67160781D01*
X137965218Y-67160778D01*
X137965218Y-67160776D01*
X137922097Y-67076148D01*
X137872287Y-66978390D01*
X137804505Y-66885095D01*
X137751971Y-66812786D01*
X137607213Y-66668028D01*
X137441614Y-66547715D01*
X137416846Y-66535095D01*
X137348917Y-66500483D01*
X137298123Y-66452511D01*
X137281328Y-66384690D01*
X137303865Y-66318555D01*
X137348917Y-66279516D01*
X137441610Y-66232287D01*
X137513688Y-66179920D01*
X137607213Y-66111971D01*
X137607215Y-66111968D01*
X137607219Y-66111966D01*
X137751966Y-65967219D01*
X137751968Y-65967215D01*
X137751971Y-65967213D01*
X137804732Y-65894590D01*
X137872287Y-65801610D01*
X137965220Y-65619219D01*
X138028477Y-65424534D01*
X138060500Y-65222352D01*
X138060500Y-65017648D01*
X138028477Y-64815466D01*
X138018959Y-64786174D01*
X137965218Y-64620776D01*
X137931503Y-64554607D01*
X137872287Y-64438390D01*
X137844467Y-64400099D01*
X137751971Y-64272786D01*
X137607213Y-64128028D01*
X137441614Y-64007715D01*
X137392091Y-63982482D01*
X137348917Y-63960483D01*
X137298123Y-63912511D01*
X137281328Y-63844690D01*
X137303865Y-63778555D01*
X137348917Y-63739516D01*
X137441610Y-63692287D01*
X137481413Y-63663369D01*
X137607213Y-63571971D01*
X137607215Y-63571968D01*
X137607219Y-63571966D01*
X137751966Y-63427219D01*
X137751968Y-63427215D01*
X137751971Y-63427213D01*
X137804732Y-63354590D01*
X137872287Y-63261610D01*
X137965220Y-63079219D01*
X138028477Y-62884534D01*
X138060500Y-62682352D01*
X138060500Y-62477648D01*
X138041151Y-62355483D01*
X138028477Y-62275465D01*
X138005950Y-62206135D01*
X137995080Y-62172682D01*
X140000000Y-62172682D01*
X140000000Y-62425000D01*
X140984314Y-62425000D01*
X140979920Y-62429394D01*
X140927259Y-62520606D01*
X140900000Y-62622339D01*
X140900000Y-62727661D01*
X140927259Y-62829394D01*
X140979920Y-62920606D01*
X140984314Y-62925000D01*
X140000000Y-62925000D01*
X140000000Y-63177317D01*
X140032009Y-63379417D01*
X140095244Y-63574031D01*
X140188140Y-63756349D01*
X140308417Y-63921894D01*
X140308417Y-63921895D01*
X140453104Y-64066582D01*
X140618650Y-64186859D01*
X140800968Y-64279754D01*
X140995578Y-64342988D01*
X141050000Y-64351607D01*
X141050000Y-62990686D01*
X141054394Y-62995080D01*
X141145606Y-63047741D01*
X141247339Y-63075000D01*
X141352661Y-63075000D01*
X141454394Y-63047741D01*
X141545606Y-62995080D01*
X141550000Y-62990686D01*
X141550000Y-64351606D01*
X141604421Y-64342988D01*
X141799031Y-64279754D01*
X141981349Y-64186859D01*
X142146894Y-64066582D01*
X142146895Y-64066582D01*
X142291582Y-63921895D01*
X142291582Y-63921894D01*
X142411861Y-63756347D01*
X142459234Y-63663371D01*
X142507208Y-63612575D01*
X142575028Y-63595779D01*
X142641164Y-63618316D01*
X142680203Y-63663369D01*
X142727713Y-63756611D01*
X142848028Y-63922213D01*
X142992786Y-64066971D01*
X143147749Y-64179556D01*
X143158390Y-64187287D01*
X143247212Y-64232544D01*
X143340776Y-64280218D01*
X143340778Y-64280218D01*
X143340781Y-64280220D01*
X143423223Y-64307007D01*
X143535465Y-64343477D01*
X143636557Y-64359488D01*
X143737648Y-64375500D01*
X143737649Y-64375500D01*
X143942351Y-64375500D01*
X143942352Y-64375500D01*
X144144534Y-64343477D01*
X144339219Y-64280220D01*
X144521610Y-64187287D01*
X144617901Y-64117328D01*
X144687213Y-64066971D01*
X144687215Y-64066968D01*
X144687219Y-64066966D01*
X144831966Y-63922219D01*
X144831968Y-63922215D01*
X144831971Y-63922213D01*
X144952284Y-63756614D01*
X144952286Y-63756611D01*
X144952287Y-63756610D01*
X144999795Y-63663369D01*
X145047770Y-63612574D01*
X145115591Y-63595779D01*
X145181725Y-63618316D01*
X145220765Y-63663370D01*
X145268140Y-63756349D01*
X145388417Y-63921894D01*
X145388417Y-63921895D01*
X145533104Y-64066582D01*
X145698650Y-64186859D01*
X145880968Y-64279754D01*
X146075578Y-64342988D01*
X146130000Y-64351607D01*
X146130000Y-62990686D01*
X146134394Y-62995080D01*
X146225606Y-63047741D01*
X146327339Y-63075000D01*
X146432661Y-63075000D01*
X146534394Y-63047741D01*
X146625606Y-62995080D01*
X146630000Y-62990686D01*
X146630000Y-64351606D01*
X146684421Y-64342988D01*
X146879031Y-64279754D01*
X147061349Y-64186859D01*
X147226894Y-64066582D01*
X147226895Y-64066582D01*
X147371582Y-63921895D01*
X147371582Y-63921894D01*
X147491861Y-63756347D01*
X147539234Y-63663371D01*
X147587208Y-63612575D01*
X147655028Y-63595779D01*
X147721164Y-63618316D01*
X147760203Y-63663369D01*
X147807713Y-63756611D01*
X147928028Y-63922213D01*
X148072786Y-64066971D01*
X148227749Y-64179556D01*
X148238390Y-64187287D01*
X148327212Y-64232544D01*
X148420776Y-64280218D01*
X148420778Y-64280218D01*
X148420781Y-64280220D01*
X148503223Y-64307007D01*
X148615465Y-64343477D01*
X148716557Y-64359488D01*
X148817648Y-64375500D01*
X148817649Y-64375500D01*
X149022351Y-64375500D01*
X149022352Y-64375500D01*
X149224534Y-64343477D01*
X149419219Y-64280220D01*
X149601610Y-64187287D01*
X149697901Y-64117328D01*
X149767213Y-64066971D01*
X149767215Y-64066968D01*
X149767219Y-64066966D01*
X149911966Y-63922219D01*
X149911968Y-63922215D01*
X149911971Y-63922213D01*
X150032284Y-63756614D01*
X150032286Y-63756611D01*
X150032287Y-63756610D01*
X150079795Y-63663369D01*
X150127770Y-63612574D01*
X150195591Y-63595779D01*
X150261725Y-63618316D01*
X150300765Y-63663370D01*
X150348140Y-63756349D01*
X150468417Y-63921894D01*
X150468417Y-63921895D01*
X150613104Y-64066582D01*
X150778650Y-64186859D01*
X150960968Y-64279754D01*
X151155578Y-64342988D01*
X151210000Y-64351607D01*
X151210000Y-62990686D01*
X151214394Y-62995080D01*
X151305606Y-63047741D01*
X151407339Y-63075000D01*
X151512661Y-63075000D01*
X151614394Y-63047741D01*
X151705606Y-62995080D01*
X151710000Y-62990686D01*
X151710000Y-64351606D01*
X151764421Y-64342988D01*
X151959031Y-64279754D01*
X152141349Y-64186859D01*
X152306894Y-64066582D01*
X152306895Y-64066582D01*
X152451582Y-63921895D01*
X152451582Y-63921894D01*
X152571861Y-63756347D01*
X152619234Y-63663371D01*
X152667208Y-63612575D01*
X152735028Y-63595779D01*
X152801164Y-63618316D01*
X152840203Y-63663369D01*
X152887713Y-63756611D01*
X153008028Y-63922213D01*
X153152786Y-64066971D01*
X153307749Y-64179556D01*
X153318390Y-64187287D01*
X153407212Y-64232544D01*
X153500776Y-64280218D01*
X153500778Y-64280218D01*
X153500781Y-64280220D01*
X153583223Y-64307007D01*
X153695465Y-64343477D01*
X153796557Y-64359488D01*
X153897648Y-64375500D01*
X153897649Y-64375500D01*
X154102351Y-64375500D01*
X154102352Y-64375500D01*
X154304534Y-64343477D01*
X154499219Y-64280220D01*
X154681610Y-64187287D01*
X154777901Y-64117328D01*
X154847213Y-64066971D01*
X154847215Y-64066968D01*
X154847219Y-64066966D01*
X154991966Y-63922219D01*
X155018330Y-63885930D01*
X155073658Y-63843265D01*
X155143271Y-63837284D01*
X155205067Y-63869889D01*
X155239426Y-63930726D01*
X155241938Y-63945559D01*
X155245907Y-63982480D01*
X155296202Y-64117328D01*
X155296206Y-64117335D01*
X155382452Y-64232544D01*
X155382455Y-64232547D01*
X155497664Y-64318793D01*
X155497671Y-64318797D01*
X155632517Y-64369091D01*
X155632516Y-64369091D01*
X155639444Y-64369835D01*
X155692127Y-64375500D01*
X157387872Y-64375499D01*
X157447483Y-64369091D01*
X157582331Y-64318796D01*
X157697546Y-64232546D01*
X157783796Y-64117331D01*
X157834091Y-63982483D01*
X157840500Y-63922873D01*
X157840500Y-63881947D01*
X158500000Y-63881947D01*
X158500000Y-64118052D01*
X158536934Y-64351247D01*
X158609897Y-64575802D01*
X158717087Y-64786174D01*
X158777338Y-64869104D01*
X158777340Y-64869105D01*
X159517037Y-64129408D01*
X159534075Y-64192993D01*
X159599901Y-64307007D01*
X159692993Y-64400099D01*
X159807007Y-64465925D01*
X159870590Y-64482962D01*
X159130893Y-65222658D01*
X159213828Y-65282914D01*
X159424197Y-65390102D01*
X159648752Y-65463065D01*
X159648751Y-65463065D01*
X159881948Y-65500000D01*
X160118052Y-65500000D01*
X160351247Y-65463065D01*
X160575802Y-65390102D01*
X160786163Y-65282918D01*
X160786169Y-65282914D01*
X160869104Y-65222658D01*
X160869105Y-65222658D01*
X160129408Y-64482962D01*
X160192993Y-64465925D01*
X160307007Y-64400099D01*
X160400099Y-64307007D01*
X160465925Y-64192993D01*
X160482962Y-64129409D01*
X161222658Y-64869105D01*
X161222658Y-64869104D01*
X161282914Y-64786169D01*
X161282918Y-64786163D01*
X161390102Y-64575802D01*
X161463065Y-64351247D01*
X161500000Y-64118052D01*
X161500000Y-63881947D01*
X161463065Y-63648752D01*
X161390102Y-63424197D01*
X161282914Y-63213828D01*
X161222658Y-63130894D01*
X161222658Y-63130893D01*
X160482962Y-63870590D01*
X160465925Y-63807007D01*
X160400099Y-63692993D01*
X160307007Y-63599901D01*
X160192993Y-63534075D01*
X160129409Y-63517037D01*
X160869105Y-62777340D01*
X160869104Y-62777338D01*
X160786174Y-62717087D01*
X160575802Y-62609897D01*
X160351247Y-62536934D01*
X160351248Y-62536934D01*
X160118052Y-62500000D01*
X159881948Y-62500000D01*
X159648752Y-62536934D01*
X159424197Y-62609897D01*
X159213830Y-62717084D01*
X159130894Y-62777340D01*
X159870591Y-63517037D01*
X159807007Y-63534075D01*
X159692993Y-63599901D01*
X159599901Y-63692993D01*
X159534075Y-63807007D01*
X159517037Y-63870591D01*
X158777340Y-63130894D01*
X158717084Y-63213830D01*
X158609897Y-63424197D01*
X158536934Y-63648752D01*
X158500000Y-63881947D01*
X157840500Y-63881947D01*
X157840499Y-62622339D01*
X157840499Y-61427129D01*
X157840498Y-61427123D01*
X157839784Y-61420485D01*
X157834091Y-61367517D01*
X157814619Y-61315311D01*
X157783797Y-61232671D01*
X157783793Y-61232664D01*
X157697547Y-61117455D01*
X157697544Y-61117452D01*
X157582335Y-61031206D01*
X157582328Y-61031202D01*
X157447482Y-60980908D01*
X157447483Y-60980908D01*
X157387883Y-60974501D01*
X157387881Y-60974500D01*
X157387873Y-60974500D01*
X157387864Y-60974500D01*
X155692129Y-60974500D01*
X155692123Y-60974501D01*
X155632516Y-60980908D01*
X155497671Y-61031202D01*
X155497664Y-61031206D01*
X155382455Y-61117452D01*
X155382452Y-61117455D01*
X155296206Y-61232664D01*
X155296202Y-61232671D01*
X155245908Y-61367516D01*
X155241939Y-61404440D01*
X155215201Y-61468991D01*
X155157809Y-61508839D01*
X155087983Y-61511332D01*
X155027895Y-61475679D01*
X155018332Y-61464070D01*
X154991967Y-61427782D01*
X154847213Y-61283028D01*
X154681613Y-61162715D01*
X154681612Y-61162714D01*
X154681610Y-61162713D01*
X154624653Y-61133691D01*
X154499223Y-61069781D01*
X154304534Y-61006522D01*
X154129995Y-60978878D01*
X154102352Y-60974500D01*
X153897648Y-60974500D01*
X153873329Y-60978351D01*
X153695465Y-61006522D01*
X153500776Y-61069781D01*
X153318386Y-61162715D01*
X153152786Y-61283028D01*
X153008028Y-61427786D01*
X152887713Y-61593388D01*
X152840203Y-61686630D01*
X152792228Y-61737426D01*
X152724407Y-61754220D01*
X152658272Y-61731682D01*
X152619234Y-61686628D01*
X152571861Y-61593652D01*
X152451582Y-61428105D01*
X152451582Y-61428104D01*
X152306895Y-61283417D01*
X152141349Y-61163140D01*
X151959029Y-61070244D01*
X151764413Y-61007009D01*
X151710000Y-60998390D01*
X151710000Y-62359314D01*
X151705606Y-62354920D01*
X151614394Y-62302259D01*
X151512661Y-62275000D01*
X151407339Y-62275000D01*
X151305606Y-62302259D01*
X151214394Y-62354920D01*
X151210000Y-62359314D01*
X151210000Y-60998390D01*
X151155586Y-61007009D01*
X150960970Y-61070244D01*
X150778650Y-61163140D01*
X150613105Y-61283417D01*
X150613104Y-61283417D01*
X150468417Y-61428104D01*
X150468417Y-61428105D01*
X150348140Y-61593650D01*
X150300765Y-61686629D01*
X150252790Y-61737425D01*
X150184969Y-61754220D01*
X150118834Y-61731682D01*
X150079795Y-61686629D01*
X150032419Y-61593650D01*
X150032287Y-61593390D01*
X149970858Y-61508839D01*
X149911971Y-61427786D01*
X149767213Y-61283028D01*
X149601613Y-61162715D01*
X149601612Y-61162714D01*
X149601610Y-61162713D01*
X149544653Y-61133691D01*
X149419223Y-61069781D01*
X149224534Y-61006522D01*
X149049995Y-60978878D01*
X149022352Y-60974500D01*
X148817648Y-60974500D01*
X148793329Y-60978351D01*
X148615465Y-61006522D01*
X148420776Y-61069781D01*
X148238386Y-61162715D01*
X148072786Y-61283028D01*
X147928028Y-61427786D01*
X147807713Y-61593388D01*
X147760203Y-61686630D01*
X147712228Y-61737426D01*
X147644407Y-61754220D01*
X147578272Y-61731682D01*
X147539234Y-61686628D01*
X147491861Y-61593652D01*
X147371582Y-61428105D01*
X147371582Y-61428104D01*
X147226895Y-61283417D01*
X147061349Y-61163140D01*
X146879029Y-61070244D01*
X146684413Y-61007009D01*
X146630000Y-60998390D01*
X146630000Y-62359314D01*
X146625606Y-62354920D01*
X146534394Y-62302259D01*
X146432661Y-62275000D01*
X146327339Y-62275000D01*
X146225606Y-62302259D01*
X146134394Y-62354920D01*
X146130000Y-62359314D01*
X146130000Y-60998390D01*
X146075586Y-61007009D01*
X145880970Y-61070244D01*
X145698650Y-61163140D01*
X145533105Y-61283417D01*
X145533104Y-61283417D01*
X145388417Y-61428104D01*
X145388417Y-61428105D01*
X145268140Y-61593650D01*
X145220765Y-61686629D01*
X145172790Y-61737425D01*
X145104969Y-61754220D01*
X145038834Y-61731682D01*
X144999795Y-61686629D01*
X144952419Y-61593650D01*
X144952287Y-61593390D01*
X144890858Y-61508839D01*
X144831971Y-61427786D01*
X144687213Y-61283028D01*
X144521613Y-61162715D01*
X144521612Y-61162714D01*
X144521610Y-61162713D01*
X144464653Y-61133691D01*
X144339223Y-61069781D01*
X144144534Y-61006522D01*
X143969995Y-60978878D01*
X143942352Y-60974500D01*
X143737648Y-60974500D01*
X143713329Y-60978351D01*
X143535465Y-61006522D01*
X143340776Y-61069781D01*
X143158386Y-61162715D01*
X142992786Y-61283028D01*
X142848028Y-61427786D01*
X142727713Y-61593388D01*
X142680203Y-61686630D01*
X142632228Y-61737426D01*
X142564407Y-61754220D01*
X142498272Y-61731682D01*
X142459234Y-61686628D01*
X142411861Y-61593652D01*
X142291582Y-61428105D01*
X142291582Y-61428104D01*
X142146895Y-61283417D01*
X141981349Y-61163140D01*
X141799029Y-61070244D01*
X141604413Y-61007009D01*
X141550000Y-60998390D01*
X141550000Y-62359314D01*
X141545606Y-62354920D01*
X141454394Y-62302259D01*
X141352661Y-62275000D01*
X141247339Y-62275000D01*
X141145606Y-62302259D01*
X141054394Y-62354920D01*
X141050000Y-62359314D01*
X141050000Y-60998390D01*
X140995586Y-61007009D01*
X140800970Y-61070244D01*
X140618650Y-61163140D01*
X140453105Y-61283417D01*
X140453104Y-61283417D01*
X140308417Y-61428104D01*
X140308417Y-61428105D01*
X140188140Y-61593650D01*
X140095244Y-61775968D01*
X140032009Y-61970582D01*
X140000000Y-62172682D01*
X137995080Y-62172682D01*
X137995069Y-62172648D01*
X137965220Y-62080781D01*
X137965218Y-62080778D01*
X137965218Y-62080776D01*
X137923805Y-61999500D01*
X137872287Y-61898390D01*
X137859859Y-61881284D01*
X137751971Y-61732786D01*
X137607213Y-61588028D01*
X137441611Y-61467713D01*
X137348369Y-61420203D01*
X137297574Y-61372229D01*
X137280779Y-61304407D01*
X137303317Y-61238273D01*
X137348371Y-61199234D01*
X137441347Y-61151861D01*
X137606894Y-61031582D01*
X137606895Y-61031582D01*
X137751582Y-60886895D01*
X137751582Y-60886894D01*
X137871859Y-60721349D01*
X137964755Y-60539029D01*
X138027990Y-60344413D01*
X138036609Y-60290000D01*
X136675686Y-60290000D01*
X136680080Y-60285606D01*
X136732741Y-60194394D01*
X136760000Y-60092661D01*
X136760000Y-59987339D01*
X136732741Y-59885606D01*
X136680080Y-59794394D01*
X136675686Y-59790000D01*
X138036609Y-59790000D01*
X138027990Y-59735586D01*
X137964755Y-59540970D01*
X137871859Y-59358650D01*
X137767972Y-59215662D01*
X137767971Y-59215661D01*
X137751585Y-59193107D01*
X137706126Y-59147648D01*
X140059500Y-59147648D01*
X140059500Y-59352351D01*
X140091522Y-59554534D01*
X140154781Y-59749223D01*
X140247715Y-59931613D01*
X140368028Y-60097213D01*
X140512786Y-60241971D01*
X140650569Y-60342074D01*
X140678390Y-60362287D01*
X140794607Y-60421503D01*
X140860776Y-60455218D01*
X140860778Y-60455218D01*
X140860781Y-60455220D01*
X140929383Y-60477510D01*
X141055465Y-60518477D01*
X141156557Y-60534488D01*
X141257648Y-60550500D01*
X141257649Y-60550500D01*
X141462351Y-60550500D01*
X141462352Y-60550500D01*
X141664534Y-60518477D01*
X141859219Y-60455220D01*
X142041610Y-60362287D01*
X142147153Y-60285606D01*
X142207213Y-60241971D01*
X142207215Y-60241968D01*
X142207219Y-60241966D01*
X142351966Y-60097219D01*
X142351968Y-60097215D01*
X142351971Y-60097213D01*
X142431798Y-59987339D01*
X142472287Y-59931610D01*
X142565220Y-59749219D01*
X142628477Y-59554534D01*
X142655820Y-59381902D01*
X158499500Y-59381902D01*
X158499500Y-59618097D01*
X158536446Y-59851368D01*
X158609433Y-60075996D01*
X158694000Y-60241966D01*
X158716657Y-60286433D01*
X158855483Y-60477510D01*
X159022490Y-60644517D01*
X159213567Y-60783343D01*
X159312991Y-60834002D01*
X159424003Y-60890566D01*
X159424005Y-60890566D01*
X159424008Y-60890568D01*
X159544412Y-60929689D01*
X159648631Y-60963553D01*
X159881903Y-61000500D01*
X159881908Y-61000500D01*
X160118097Y-61000500D01*
X160351368Y-60963553D01*
X160575992Y-60890568D01*
X160786433Y-60783343D01*
X160977510Y-60644517D01*
X161144517Y-60477510D01*
X161283343Y-60286433D01*
X161390568Y-60075992D01*
X161463553Y-59851368D01*
X161484371Y-59719930D01*
X161500500Y-59618097D01*
X161500500Y-59381902D01*
X161463553Y-59148631D01*
X161392775Y-58930800D01*
X161390568Y-58924008D01*
X161390566Y-58924005D01*
X161390566Y-58924003D01*
X161328955Y-58803085D01*
X161283343Y-58713567D01*
X161144517Y-58522490D01*
X160977510Y-58355483D01*
X160786433Y-58216657D01*
X160575996Y-58109433D01*
X160351368Y-58036446D01*
X160118097Y-57999500D01*
X160118092Y-57999500D01*
X159881908Y-57999500D01*
X159881903Y-57999500D01*
X159648631Y-58036446D01*
X159424003Y-58109433D01*
X159213566Y-58216657D01*
X159123527Y-58282075D01*
X159022490Y-58355483D01*
X159022488Y-58355485D01*
X159022487Y-58355485D01*
X158855485Y-58522487D01*
X158855485Y-58522488D01*
X158855483Y-58522490D01*
X158852381Y-58526760D01*
X158716657Y-58713566D01*
X158609433Y-58924003D01*
X158536446Y-59148631D01*
X158499500Y-59381902D01*
X142655820Y-59381902D01*
X142657578Y-59370800D01*
X142659663Y-59357638D01*
X142660500Y-59352349D01*
X142660500Y-59147648D01*
X142628477Y-58945465D01*
X142590998Y-58830117D01*
X142565220Y-58750781D01*
X142565218Y-58750778D01*
X142565218Y-58750776D01*
X142518860Y-58659795D01*
X142472287Y-58568390D01*
X142446749Y-58533240D01*
X142351971Y-58402786D01*
X142207213Y-58258028D01*
X142041613Y-58137715D01*
X142041612Y-58137714D01*
X142041610Y-58137713D01*
X141984653Y-58108691D01*
X141859223Y-58044781D01*
X141664534Y-57981522D01*
X141489995Y-57953878D01*
X141462352Y-57949500D01*
X141257648Y-57949500D01*
X141233329Y-57953351D01*
X141055465Y-57981522D01*
X140860776Y-58044781D01*
X140678386Y-58137715D01*
X140512786Y-58258028D01*
X140368028Y-58402786D01*
X140247715Y-58568386D01*
X140154781Y-58750776D01*
X140091522Y-58945465D01*
X140059500Y-59147648D01*
X137706126Y-59147648D01*
X137606895Y-59048417D01*
X137441349Y-58928140D01*
X137348370Y-58880765D01*
X137297574Y-58832790D01*
X137280779Y-58764969D01*
X137303316Y-58698835D01*
X137348370Y-58659795D01*
X137348920Y-58659515D01*
X137441610Y-58612287D01*
X137559329Y-58526760D01*
X137607213Y-58491971D01*
X137607215Y-58491968D01*
X137607219Y-58491966D01*
X137751966Y-58347219D01*
X137751968Y-58347215D01*
X137751971Y-58347213D01*
X137816762Y-58258034D01*
X137872287Y-58181610D01*
X137965220Y-57999219D01*
X138028477Y-57804534D01*
X138060500Y-57602352D01*
X138060500Y-57397648D01*
X138042673Y-57285095D01*
X138028477Y-57195465D01*
X137999127Y-57105137D01*
X137965220Y-57000781D01*
X137965218Y-57000778D01*
X137965218Y-57000776D01*
X137899123Y-56871059D01*
X137872287Y-56818390D01*
X137864556Y-56807749D01*
X137751971Y-56652786D01*
X137607213Y-56508028D01*
X137441614Y-56387715D01*
X137435006Y-56384348D01*
X137348917Y-56340483D01*
X137298123Y-56292511D01*
X137281328Y-56224690D01*
X137303865Y-56158555D01*
X137348917Y-56119516D01*
X137441610Y-56072287D01*
X137462770Y-56056913D01*
X137607213Y-55951971D01*
X137607215Y-55951968D01*
X137607219Y-55951966D01*
X137751966Y-55807219D01*
X137751968Y-55807215D01*
X137751971Y-55807213D01*
X137804732Y-55734590D01*
X137872287Y-55641610D01*
X137965220Y-55459219D01*
X138028477Y-55264534D01*
X138060500Y-55062352D01*
X138060500Y-54857648D01*
X138052257Y-54805606D01*
X138028477Y-54655465D01*
X137965218Y-54460776D01*
X137872419Y-54278650D01*
X137872287Y-54278390D01*
X137864556Y-54267749D01*
X137751971Y-54112786D01*
X137607213Y-53968028D01*
X137441611Y-53847713D01*
X137348369Y-53800203D01*
X137297574Y-53752229D01*
X137280779Y-53684407D01*
X137303317Y-53618273D01*
X137348371Y-53579234D01*
X137441347Y-53531861D01*
X137606894Y-53411582D01*
X137606895Y-53411582D01*
X137751582Y-53266895D01*
X137751582Y-53266894D01*
X137871859Y-53101349D01*
X137964755Y-52919029D01*
X138027990Y-52724413D01*
X138036609Y-52670000D01*
X136675686Y-52670000D01*
X136680080Y-52665606D01*
X136732741Y-52574394D01*
X136760000Y-52472661D01*
X136760000Y-52367339D01*
X136732741Y-52265606D01*
X136680080Y-52174394D01*
X136675686Y-52170000D01*
X138036609Y-52170000D01*
X138027990Y-52115586D01*
X137964755Y-51920970D01*
X137871859Y-51738649D01*
X137855158Y-51715663D01*
X137855157Y-51715662D01*
X137805742Y-51647648D01*
X140059500Y-51647648D01*
X140059500Y-51852351D01*
X140091522Y-52054534D01*
X140154781Y-52249223D01*
X140247715Y-52431613D01*
X140368028Y-52597213D01*
X140512786Y-52741971D01*
X140620186Y-52820000D01*
X140678390Y-52862287D01*
X140789752Y-52919029D01*
X140860776Y-52955218D01*
X140860778Y-52955218D01*
X140860781Y-52955220D01*
X140965137Y-52989127D01*
X141055465Y-53018477D01*
X141156557Y-53034488D01*
X141257648Y-53050500D01*
X141257649Y-53050500D01*
X141462351Y-53050500D01*
X141462352Y-53050500D01*
X141664534Y-53018477D01*
X141859219Y-52955220D01*
X142041610Y-52862287D01*
X142196522Y-52749738D01*
X142207213Y-52741971D01*
X142207215Y-52741968D01*
X142207219Y-52741966D01*
X142351966Y-52597219D01*
X142351968Y-52597215D01*
X142351971Y-52597213D01*
X142406360Y-52522351D01*
X142472287Y-52431610D01*
X142565220Y-52249219D01*
X142628477Y-52054534D01*
X142660500Y-51852352D01*
X142660500Y-51647648D01*
X142628477Y-51445466D01*
X142622937Y-51428417D01*
X142565218Y-51250776D01*
X142514645Y-51151522D01*
X142472287Y-51068390D01*
X142440263Y-51024312D01*
X142351971Y-50902786D01*
X142207213Y-50758028D01*
X142041613Y-50637715D01*
X142041612Y-50637714D01*
X142041610Y-50637713D01*
X141966613Y-50599500D01*
X141859223Y-50544781D01*
X141664534Y-50481522D01*
X141489995Y-50453878D01*
X141462352Y-50449500D01*
X141257648Y-50449500D01*
X141233329Y-50453351D01*
X141055465Y-50481522D01*
X140860776Y-50544781D01*
X140678386Y-50637715D01*
X140512786Y-50758028D01*
X140368028Y-50902786D01*
X140247715Y-51068386D01*
X140154781Y-51250776D01*
X140091522Y-51445465D01*
X140059500Y-51647648D01*
X137805742Y-51647648D01*
X137751582Y-51573104D01*
X137606895Y-51428417D01*
X137441349Y-51308140D01*
X137259031Y-51215244D01*
X137064417Y-51152009D01*
X136862317Y-51120000D01*
X136610000Y-51120000D01*
X136610000Y-52104314D01*
X136605606Y-52099920D01*
X136514394Y-52047259D01*
X136412661Y-52020000D01*
X136307339Y-52020000D01*
X136205606Y-52047259D01*
X136114394Y-52099920D01*
X136110000Y-52104314D01*
X136110000Y-51120000D01*
X135857683Y-51120000D01*
X135655582Y-51152009D01*
X135460968Y-51215244D01*
X135278650Y-51308140D01*
X135113105Y-51428417D01*
X135113104Y-51428417D01*
X134968417Y-51573104D01*
X134968417Y-51573105D01*
X134848140Y-51738650D01*
X134755244Y-51920970D01*
X134692009Y-52115586D01*
X134683391Y-52170000D01*
X136044314Y-52170000D01*
X136039920Y-52174394D01*
X135987259Y-52265606D01*
X135960000Y-52367339D01*
X135960000Y-52472661D01*
X135987259Y-52574394D01*
X136039920Y-52665606D01*
X136044314Y-52670000D01*
X134683391Y-52670000D01*
X134692009Y-52724413D01*
X134755244Y-52919029D01*
X134848140Y-53101349D01*
X134968417Y-53266894D01*
X134968417Y-53266895D01*
X135113104Y-53411582D01*
X135278652Y-53531861D01*
X135371628Y-53579234D01*
X135422425Y-53627208D01*
X135439220Y-53695029D01*
X135416683Y-53761164D01*
X135371630Y-53800203D01*
X135278388Y-53847713D01*
X135112786Y-53968028D01*
X134968028Y-54112786D01*
X134847715Y-54278386D01*
X134754781Y-54460776D01*
X134691522Y-54655465D01*
X134659500Y-54857648D01*
X129126685Y-54857648D01*
X129112741Y-54805606D01*
X129060080Y-54714394D01*
X129055686Y-54710000D01*
X130416609Y-54710000D01*
X130407990Y-54655586D01*
X130344755Y-54460970D01*
X130251859Y-54278650D01*
X130131582Y-54113105D01*
X130131582Y-54113104D01*
X129986895Y-53968417D01*
X129821349Y-53848140D01*
X129728370Y-53800765D01*
X129677574Y-53752790D01*
X129660779Y-53684969D01*
X129683316Y-53618835D01*
X129728370Y-53579795D01*
X129729471Y-53579234D01*
X129821610Y-53532287D01*
X129842770Y-53516913D01*
X129987213Y-53411971D01*
X129987215Y-53411968D01*
X129987219Y-53411966D01*
X130131966Y-53267219D01*
X130131968Y-53267215D01*
X130131971Y-53267213D01*
X130184732Y-53194590D01*
X130252287Y-53101610D01*
X130345220Y-52919219D01*
X130408477Y-52724534D01*
X130440500Y-52522352D01*
X130440500Y-52317648D01*
X130408477Y-52115466D01*
X130345220Y-51920781D01*
X130345218Y-51920778D01*
X130345218Y-51920776D01*
X130252419Y-51738650D01*
X130252287Y-51738390D01*
X130186360Y-51647648D01*
X130131971Y-51572786D01*
X129987213Y-51428028D01*
X129821613Y-51307715D01*
X129821612Y-51307714D01*
X129821610Y-51307713D01*
X129764653Y-51278691D01*
X129639223Y-51214781D01*
X129444534Y-51151522D01*
X129269995Y-51123878D01*
X129242352Y-51119500D01*
X128237648Y-51119500D01*
X128213329Y-51123351D01*
X128035465Y-51151522D01*
X127840776Y-51214781D01*
X127658386Y-51307715D01*
X127492786Y-51428028D01*
X127348028Y-51572786D01*
X127227715Y-51738386D01*
X127134781Y-51920776D01*
X127071522Y-52115465D01*
X127039500Y-52317648D01*
X127039500Y-52522351D01*
X127071522Y-52724534D01*
X127134781Y-52919223D01*
X127227715Y-53101613D01*
X127348028Y-53267213D01*
X127492786Y-53411971D01*
X127647749Y-53524556D01*
X127658390Y-53532287D01*
X127730424Y-53568990D01*
X127751629Y-53579795D01*
X127802425Y-53627770D01*
X127819220Y-53695591D01*
X127796682Y-53761726D01*
X127751629Y-53800765D01*
X127658650Y-53848140D01*
X127493105Y-53968417D01*
X127493104Y-53968417D01*
X127348417Y-54113104D01*
X127348417Y-54113105D01*
X127228140Y-54278650D01*
X127135244Y-54460970D01*
X127072009Y-54655586D01*
X127063391Y-54710000D01*
X128424314Y-54710000D01*
X128419920Y-54714394D01*
X128367259Y-54805606D01*
X128340000Y-54907339D01*
X128340000Y-55012661D01*
X128367259Y-55114394D01*
X128419920Y-55205606D01*
X128424314Y-55210000D01*
X127063391Y-55210000D01*
X127072009Y-55264413D01*
X127135244Y-55459029D01*
X127228140Y-55641349D01*
X127348417Y-55806894D01*
X127348417Y-55806895D01*
X127493104Y-55951582D01*
X127658652Y-56071861D01*
X127751628Y-56119234D01*
X127802425Y-56167208D01*
X127819220Y-56235029D01*
X127796683Y-56301164D01*
X127751630Y-56340203D01*
X127658388Y-56387713D01*
X127492786Y-56508028D01*
X127348028Y-56652786D01*
X127227715Y-56818386D01*
X127134781Y-57000776D01*
X127071522Y-57195465D01*
X127039500Y-57397648D01*
X127039500Y-57602351D01*
X127071522Y-57804534D01*
X127134781Y-57999223D01*
X127227715Y-58181613D01*
X127348028Y-58347213D01*
X127492786Y-58491971D01*
X127597970Y-58568390D01*
X127658390Y-58612287D01*
X127749840Y-58658883D01*
X127751080Y-58659515D01*
X127801876Y-58707490D01*
X127818671Y-58775311D01*
X127796134Y-58841446D01*
X127751080Y-58880485D01*
X127658386Y-58927715D01*
X127492786Y-59048028D01*
X127348028Y-59192786D01*
X127227715Y-59358386D01*
X127134781Y-59540776D01*
X127071522Y-59735465D01*
X127039500Y-59937648D01*
X127039500Y-60142351D01*
X127071522Y-60344534D01*
X127134781Y-60539223D01*
X127227715Y-60721613D01*
X127348028Y-60887213D01*
X127492786Y-61031971D01*
X127603056Y-61112085D01*
X127658390Y-61152287D01*
X127749840Y-61198883D01*
X127751080Y-61199515D01*
X127801876Y-61247490D01*
X127818671Y-61315311D01*
X127796134Y-61381446D01*
X127751080Y-61420485D01*
X127658386Y-61467715D01*
X127492786Y-61588028D01*
X127348028Y-61732786D01*
X127227715Y-61898386D01*
X127134781Y-62080776D01*
X127071522Y-62275465D01*
X127039500Y-62477648D01*
X127039500Y-62682351D01*
X127071522Y-62884534D01*
X127134781Y-63079223D01*
X127227715Y-63261613D01*
X127348028Y-63427213D01*
X127492786Y-63571971D01*
X127618590Y-63663371D01*
X127658390Y-63692287D01*
X127749840Y-63738883D01*
X127751080Y-63739515D01*
X127801876Y-63787490D01*
X127818671Y-63855311D01*
X127796134Y-63921446D01*
X127751080Y-63960485D01*
X127658386Y-64007715D01*
X127492786Y-64128028D01*
X127348028Y-64272786D01*
X127227715Y-64438386D01*
X127134781Y-64620776D01*
X127071522Y-64815465D01*
X127048068Y-64963553D01*
X127039500Y-65017648D01*
X127039500Y-65222352D01*
X127041030Y-65232009D01*
X127071522Y-65424534D01*
X127134781Y-65619223D01*
X127227715Y-65801613D01*
X127348028Y-65967213D01*
X127492786Y-66111971D01*
X127586312Y-66179920D01*
X127658390Y-66232287D01*
X127730424Y-66268990D01*
X127751629Y-66279795D01*
X127802425Y-66327770D01*
X127819220Y-66395591D01*
X127796682Y-66461726D01*
X127751629Y-66500765D01*
X127658650Y-66548140D01*
X127493107Y-66668415D01*
X127465713Y-66695809D01*
X127404389Y-66729293D01*
X127334698Y-66724307D01*
X127278765Y-66682435D01*
X127255560Y-66627524D01*
X127230451Y-66468997D01*
X127172085Y-66289362D01*
X127086329Y-66121059D01*
X126975314Y-65968258D01*
X126975310Y-65968253D01*
X126841746Y-65834689D01*
X126841741Y-65834685D01*
X126688940Y-65723670D01*
X126520635Y-65637913D01*
X126341004Y-65579549D01*
X126340995Y-65579547D01*
X126310000Y-65574637D01*
X126310000Y-66505025D01*
X126274905Y-66469930D01*
X126195095Y-66423852D01*
X126106078Y-66400000D01*
X126013922Y-66400000D01*
X125924905Y-66423852D01*
X125845095Y-66469930D01*
X125779930Y-66535095D01*
X125733852Y-66614905D01*
X125710000Y-66703922D01*
X125710000Y-66796078D01*
X125733852Y-66885095D01*
X125779930Y-66964905D01*
X125815025Y-67000000D01*
X124884638Y-67000000D01*
X124889548Y-67031002D01*
X124947914Y-67210637D01*
X125033670Y-67378940D01*
X125144685Y-67531741D01*
X125144689Y-67531746D01*
X125278253Y-67665310D01*
X125278258Y-67665314D01*
X125431059Y-67776329D01*
X125599364Y-67862086D01*
X125660057Y-67881806D01*
X125717733Y-67921243D01*
X125744932Y-67985601D01*
X125733018Y-68054447D01*
X125685774Y-68105924D01*
X125660060Y-68117667D01*
X125599167Y-68137452D01*
X125430800Y-68223240D01*
X125343579Y-68286610D01*
X125277927Y-68334310D01*
X125277925Y-68334312D01*
X125277924Y-68334312D01*
X125144312Y-68467924D01*
X125144312Y-68467925D01*
X125144310Y-68467927D01*
X125115999Y-68506894D01*
X125033240Y-68620800D01*
X124947454Y-68789163D01*
X124889059Y-68968881D01*
X124859500Y-69155513D01*
X119640500Y-69155513D01*
X119610940Y-68968881D01*
X119577258Y-68865220D01*
X119552547Y-68789168D01*
X119552545Y-68789165D01*
X119552545Y-68789163D01*
X119482639Y-68651965D01*
X119466760Y-68620801D01*
X119355690Y-68467927D01*
X119222073Y-68334310D01*
X119069199Y-68223240D01*
X118900832Y-68137453D01*
X118840748Y-68117930D01*
X118783073Y-68078493D01*
X118755875Y-68014135D01*
X118767790Y-67945288D01*
X118815034Y-67893813D01*
X118840746Y-67882069D01*
X118900832Y-67862547D01*
X119069199Y-67776760D01*
X119222073Y-67665690D01*
X119355690Y-67532073D01*
X119466760Y-67379199D01*
X119552547Y-67210832D01*
X119610940Y-67031118D01*
X119616022Y-66999029D01*
X119640500Y-66844486D01*
X119640500Y-66655514D01*
X119624811Y-66556462D01*
X119624811Y-66556460D01*
X119615869Y-66500000D01*
X124884638Y-66500000D01*
X125810000Y-66500000D01*
X125810000Y-65574637D01*
X125809999Y-65574637D01*
X125779004Y-65579547D01*
X125778995Y-65579549D01*
X125599364Y-65637913D01*
X125431059Y-65723670D01*
X125278258Y-65834685D01*
X125278253Y-65834689D01*
X125144689Y-65968253D01*
X125144685Y-65968258D01*
X125033670Y-66121059D01*
X124947914Y-66289362D01*
X124889548Y-66468997D01*
X124884638Y-66500000D01*
X119615869Y-66500000D01*
X119610940Y-66468882D01*
X119610940Y-66468881D01*
X119570885Y-66345606D01*
X119552547Y-66289168D01*
X119552545Y-66289165D01*
X119552545Y-66289163D01*
X119504865Y-66195586D01*
X119466760Y-66120801D01*
X119355690Y-65967927D01*
X119222073Y-65834310D01*
X119069199Y-65723240D01*
X118900836Y-65637454D01*
X118721118Y-65579059D01*
X118534486Y-65549500D01*
X118534481Y-65549500D01*
X118345519Y-65549500D01*
X118345514Y-65549500D01*
X118158881Y-65579059D01*
X117979163Y-65637454D01*
X117810800Y-65723240D01*
X117723579Y-65786610D01*
X117657927Y-65834310D01*
X117657925Y-65834312D01*
X117657924Y-65834312D01*
X117524312Y-65967924D01*
X117524312Y-65967925D01*
X117524310Y-65967927D01*
X117524070Y-65968258D01*
X117413240Y-66120800D01*
X117327454Y-66289163D01*
X117269059Y-66468881D01*
X117239500Y-66655513D01*
X113122095Y-66655513D01*
X113122741Y-66654394D01*
X113150000Y-66552661D01*
X113150000Y-66447339D01*
X113122741Y-66345606D01*
X113070080Y-66254394D01*
X113065686Y-66250000D01*
X114026609Y-66250000D01*
X114017990Y-66195586D01*
X113954755Y-66000970D01*
X113861859Y-65818650D01*
X113741582Y-65653105D01*
X113741582Y-65653104D01*
X113596895Y-65508417D01*
X113431349Y-65388140D01*
X113249029Y-65295244D01*
X113054413Y-65232009D01*
X113000000Y-65223390D01*
X113000000Y-66184314D01*
X112995606Y-66179920D01*
X112904394Y-66127259D01*
X112802661Y-66100000D01*
X112697339Y-66100000D01*
X112595606Y-66127259D01*
X112504394Y-66179920D01*
X112500000Y-66184314D01*
X112500000Y-65223390D01*
X112445586Y-65232009D01*
X112250970Y-65295244D01*
X112068650Y-65388140D01*
X111903105Y-65508417D01*
X111903104Y-65508417D01*
X111758417Y-65653104D01*
X111758417Y-65653105D01*
X111638140Y-65818650D01*
X111545244Y-66000970D01*
X111482009Y-66195586D01*
X111473391Y-66250000D01*
X109000500Y-66250000D01*
X109000500Y-63381902D01*
X113999500Y-63381902D01*
X113999500Y-63618097D01*
X114036446Y-63851368D01*
X114109433Y-64075996D01*
X114213254Y-64279754D01*
X114216657Y-64286433D01*
X114355483Y-64477510D01*
X114522490Y-64644517D01*
X114713567Y-64783343D01*
X114776610Y-64815465D01*
X114924003Y-64890566D01*
X114924005Y-64890566D01*
X114924008Y-64890568D01*
X115044412Y-64929689D01*
X115148631Y-64963553D01*
X115381903Y-65000500D01*
X115381908Y-65000500D01*
X115618097Y-65000500D01*
X115851368Y-64963553D01*
X116075992Y-64890568D01*
X116286433Y-64783343D01*
X116477510Y-64644517D01*
X116644517Y-64477510D01*
X116783343Y-64286433D01*
X116890568Y-64075992D01*
X116963553Y-63851368D01*
X116974030Y-63785220D01*
X117000500Y-63618097D01*
X117000500Y-63381902D01*
X116963553Y-63148631D01*
X116890566Y-62924003D01*
X116790524Y-62727661D01*
X116783343Y-62713567D01*
X116644517Y-62522490D01*
X116477510Y-62355483D01*
X116286433Y-62216657D01*
X116075996Y-62109433D01*
X115851368Y-62036446D01*
X115618097Y-61999500D01*
X115618092Y-61999500D01*
X115381908Y-61999500D01*
X115381903Y-61999500D01*
X115148631Y-62036446D01*
X114924003Y-62109433D01*
X114713566Y-62216657D01*
X114604550Y-62295862D01*
X114522490Y-62355483D01*
X114522488Y-62355485D01*
X114522487Y-62355485D01*
X114355485Y-62522487D01*
X114355485Y-62522488D01*
X114355483Y-62522490D01*
X114344989Y-62536934D01*
X114216657Y-62713566D01*
X114109433Y-62924003D01*
X114036446Y-63148631D01*
X113999500Y-63381902D01*
X109000500Y-63381902D01*
X109000500Y-59465513D01*
X109799500Y-59465513D01*
X109799500Y-59654486D01*
X109829059Y-59841118D01*
X109887454Y-60020836D01*
X109949370Y-60142351D01*
X109973240Y-60189199D01*
X110084310Y-60342073D01*
X110217927Y-60475690D01*
X110370801Y-60586760D01*
X110450347Y-60627290D01*
X110539163Y-60672545D01*
X110539165Y-60672545D01*
X110539168Y-60672547D01*
X110635497Y-60703846D01*
X110718881Y-60730940D01*
X110905514Y-60760500D01*
X110905519Y-60760500D01*
X111094486Y-60760500D01*
X111281118Y-60730940D01*
X111309823Y-60721613D01*
X111460832Y-60672547D01*
X111629199Y-60586760D01*
X111782073Y-60475690D01*
X111915690Y-60342073D01*
X111982585Y-60250000D01*
X116054638Y-60250000D01*
X116059548Y-60281002D01*
X116117914Y-60460637D01*
X116203670Y-60628940D01*
X116314685Y-60781741D01*
X116314689Y-60781746D01*
X116448253Y-60915310D01*
X116448258Y-60915314D01*
X116601059Y-61026329D01*
X116769362Y-61112085D01*
X116948997Y-61170451D01*
X116980000Y-61175362D01*
X116980000Y-61175361D01*
X117480000Y-61175361D01*
X117511002Y-61170451D01*
X117690637Y-61112085D01*
X117858940Y-61026329D01*
X118011741Y-60915314D01*
X118011746Y-60915310D01*
X118145310Y-60781746D01*
X118145314Y-60781741D01*
X118256329Y-60628940D01*
X118342085Y-60460637D01*
X118400451Y-60281002D01*
X118405362Y-60250000D01*
X117480000Y-60250000D01*
X117480000Y-61175361D01*
X116980000Y-61175361D01*
X116980000Y-60250000D01*
X116054638Y-60250000D01*
X111982585Y-60250000D01*
X112026760Y-60189199D01*
X112112547Y-60020832D01*
X112134288Y-59953922D01*
X116880000Y-59953922D01*
X116880000Y-60046078D01*
X116903852Y-60135095D01*
X116949930Y-60214905D01*
X117015095Y-60280070D01*
X117094905Y-60326148D01*
X117183922Y-60350000D01*
X117276078Y-60350000D01*
X117365095Y-60326148D01*
X117444905Y-60280070D01*
X117510070Y-60214905D01*
X117556148Y-60135095D01*
X117580000Y-60046078D01*
X117580000Y-59953922D01*
X117567029Y-59905513D01*
X123649500Y-59905513D01*
X123649500Y-60094486D01*
X123679059Y-60281118D01*
X123737454Y-60460836D01*
X123801616Y-60586759D01*
X123823240Y-60629199D01*
X123934310Y-60782073D01*
X124067927Y-60915690D01*
X124220801Y-61026760D01*
X124300347Y-61067290D01*
X124389163Y-61112545D01*
X124389165Y-61112545D01*
X124389168Y-61112547D01*
X124485497Y-61143846D01*
X124568881Y-61170940D01*
X124755514Y-61200500D01*
X124755519Y-61200500D01*
X124944486Y-61200500D01*
X125131118Y-61170940D01*
X125132623Y-61170451D01*
X125310832Y-61112547D01*
X125479199Y-61026760D01*
X125632073Y-60915690D01*
X125765690Y-60782073D01*
X125876760Y-60629199D01*
X125962547Y-60460832D01*
X126020940Y-60281118D01*
X126034676Y-60194394D01*
X126050500Y-60094486D01*
X126050500Y-59905513D01*
X126020940Y-59718881D01*
X125988191Y-59618092D01*
X125962547Y-59539168D01*
X125962545Y-59539165D01*
X125962545Y-59539163D01*
X125876759Y-59370800D01*
X125765690Y-59217927D01*
X125632073Y-59084310D01*
X125479199Y-58973240D01*
X125310835Y-58887454D01*
X125255748Y-58869555D01*
X125198073Y-58830116D01*
X125170875Y-58765757D01*
X125182790Y-58696911D01*
X125230035Y-58645436D01*
X125255745Y-58633694D01*
X125320832Y-58612547D01*
X125489199Y-58526760D01*
X125642073Y-58415690D01*
X125775690Y-58282073D01*
X125886760Y-58129199D01*
X125972547Y-57960832D01*
X126030940Y-57781118D01*
X126041427Y-57714905D01*
X126060500Y-57594486D01*
X126060500Y-57405513D01*
X126030940Y-57218881D01*
X125972545Y-57039163D01*
X125886759Y-56870800D01*
X125775690Y-56717927D01*
X125642073Y-56584310D01*
X125489199Y-56473240D01*
X125320836Y-56387454D01*
X125141118Y-56329059D01*
X124954486Y-56299500D01*
X124954481Y-56299500D01*
X124765519Y-56299500D01*
X124765514Y-56299500D01*
X124578881Y-56329059D01*
X124399163Y-56387454D01*
X124230800Y-56473240D01*
X124182911Y-56508034D01*
X124077927Y-56584310D01*
X124077925Y-56584312D01*
X124077924Y-56584312D01*
X123944312Y-56717924D01*
X123944312Y-56717925D01*
X123944310Y-56717927D01*
X123944070Y-56718258D01*
X123833240Y-56870800D01*
X123747454Y-57039163D01*
X123689059Y-57218881D01*
X123659500Y-57405513D01*
X123659500Y-57594486D01*
X123689059Y-57781118D01*
X123747454Y-57960836D01*
X123823168Y-58109432D01*
X123833240Y-58129199D01*
X123944310Y-58282073D01*
X124077927Y-58415690D01*
X124230801Y-58526760D01*
X124399168Y-58612547D01*
X124454250Y-58630444D01*
X124511926Y-58669882D01*
X124539124Y-58734240D01*
X124527209Y-58803087D01*
X124479965Y-58854562D01*
X124454251Y-58866306D01*
X124389164Y-58887454D01*
X124220800Y-58973240D01*
X124133579Y-59036610D01*
X124067927Y-59084310D01*
X124067925Y-59084312D01*
X124067924Y-59084312D01*
X123934312Y-59217924D01*
X123934312Y-59217925D01*
X123934310Y-59217927D01*
X123934070Y-59218258D01*
X123823240Y-59370800D01*
X123737454Y-59539163D01*
X123679059Y-59718881D01*
X123649500Y-59905513D01*
X117567029Y-59905513D01*
X117556148Y-59864905D01*
X117510070Y-59785095D01*
X117444905Y-59719930D01*
X117365095Y-59673852D01*
X117276078Y-59650000D01*
X117183922Y-59650000D01*
X117094905Y-59673852D01*
X117015095Y-59719930D01*
X116949930Y-59785095D01*
X116903852Y-59864905D01*
X116880000Y-59953922D01*
X112134288Y-59953922D01*
X112170940Y-59841118D01*
X112185371Y-59750000D01*
X116054638Y-59750000D01*
X116980000Y-59750000D01*
X116980000Y-58827701D01*
X117480000Y-58827701D01*
X117480000Y-59750000D01*
X118405362Y-59750000D01*
X118400451Y-59718997D01*
X118342085Y-59539362D01*
X118256329Y-59371059D01*
X118145314Y-59218258D01*
X118145310Y-59218253D01*
X118011746Y-59084689D01*
X118011741Y-59084685D01*
X117858940Y-58973670D01*
X117690637Y-58887914D01*
X117634133Y-58869555D01*
X117576457Y-58830117D01*
X117549259Y-58765759D01*
X117561174Y-58696912D01*
X117608418Y-58645437D01*
X117634135Y-58633692D01*
X117700639Y-58612084D01*
X117868940Y-58526329D01*
X118021741Y-58415314D01*
X118021746Y-58415310D01*
X118155310Y-58281746D01*
X118155314Y-58281741D01*
X118266329Y-58128940D01*
X118352085Y-57960637D01*
X118410451Y-57781002D01*
X118415362Y-57750000D01*
X117490000Y-57750000D01*
X117490000Y-58688945D01*
X117492330Y-58695193D01*
X117504201Y-58713377D01*
X117504300Y-58727284D01*
X117509160Y-58740313D01*
X117504544Y-58761529D01*
X117504700Y-58783245D01*
X117496960Y-58796396D01*
X117494309Y-58808586D01*
X117480000Y-58827701D01*
X116980000Y-58827701D01*
X116980000Y-58813195D01*
X116976631Y-58803213D01*
X116965799Y-58786621D01*
X116965685Y-58770784D01*
X116960623Y-58755783D01*
X116965441Y-58736568D01*
X116965300Y-58716753D01*
X116974205Y-58701621D01*
X116977618Y-58688012D01*
X116987891Y-58678366D01*
X116990000Y-58674783D01*
X116990000Y-57750000D01*
X116064638Y-57750000D01*
X116069548Y-57781002D01*
X116127914Y-57960637D01*
X116213670Y-58128940D01*
X116324685Y-58281741D01*
X116324689Y-58281746D01*
X116458253Y-58415310D01*
X116458258Y-58415314D01*
X116611059Y-58526329D01*
X116779364Y-58612086D01*
X116835865Y-58630444D01*
X116893541Y-58669881D01*
X116920740Y-58734239D01*
X116908826Y-58803085D01*
X116861582Y-58854562D01*
X116835866Y-58866306D01*
X116769363Y-58887914D01*
X116601059Y-58973670D01*
X116448258Y-59084685D01*
X116448253Y-59084689D01*
X116314689Y-59218253D01*
X116314685Y-59218258D01*
X116203670Y-59371059D01*
X116117914Y-59539362D01*
X116059548Y-59718997D01*
X116054638Y-59750000D01*
X112185371Y-59750000D01*
X112190300Y-59718881D01*
X112200500Y-59654486D01*
X112200500Y-59465513D01*
X112170940Y-59278881D01*
X112128619Y-59148632D01*
X112112547Y-59099168D01*
X112112545Y-59099165D01*
X112112545Y-59099163D01*
X112048603Y-58973670D01*
X112026760Y-58930801D01*
X111915690Y-58777927D01*
X111782073Y-58644310D01*
X111629199Y-58533240D01*
X111616479Y-58526759D01*
X111460836Y-58447454D01*
X111281118Y-58389059D01*
X111094486Y-58359500D01*
X111094481Y-58359500D01*
X110905519Y-58359500D01*
X110905514Y-58359500D01*
X110718881Y-58389059D01*
X110539163Y-58447454D01*
X110370800Y-58533240D01*
X110322421Y-58568390D01*
X110217927Y-58644310D01*
X110217925Y-58644312D01*
X110217924Y-58644312D01*
X110084312Y-58777924D01*
X110084312Y-58777925D01*
X110084310Y-58777927D01*
X110067910Y-58800500D01*
X109973240Y-58930800D01*
X109887454Y-59099163D01*
X109829059Y-59278881D01*
X109799500Y-59465513D01*
X109000500Y-59465513D01*
X109000500Y-54178048D01*
X115604500Y-54178048D01*
X115604500Y-54421951D01*
X115626264Y-54587259D01*
X115636334Y-54663744D01*
X115688290Y-54857648D01*
X115699456Y-54899320D01*
X115699459Y-54899330D01*
X115792786Y-55124640D01*
X115792791Y-55124651D01*
X115914727Y-55335848D01*
X115914738Y-55335864D01*
X116063199Y-55529343D01*
X116063205Y-55529350D01*
X116235649Y-55701794D01*
X116235655Y-55701799D01*
X116429144Y-55850268D01*
X116429151Y-55850272D01*
X116640348Y-55972208D01*
X116640353Y-55972210D01*
X116640356Y-55972212D01*
X116865679Y-56065544D01*
X116957830Y-56090235D01*
X117017489Y-56126598D01*
X117048019Y-56189445D01*
X117039725Y-56258820D01*
X116995240Y-56312699D01*
X116963244Y-56326847D01*
X116963633Y-56328042D01*
X116779362Y-56387914D01*
X116611059Y-56473670D01*
X116458258Y-56584685D01*
X116458253Y-56584689D01*
X116324689Y-56718253D01*
X116324685Y-56718258D01*
X116213670Y-56871059D01*
X116127914Y-57039362D01*
X116069548Y-57218997D01*
X116064638Y-57250000D01*
X116995025Y-57250000D01*
X116959930Y-57285095D01*
X116913852Y-57364905D01*
X116890000Y-57453922D01*
X116890000Y-57546078D01*
X116913852Y-57635095D01*
X116959930Y-57714905D01*
X117025095Y-57780070D01*
X117104905Y-57826148D01*
X117193922Y-57850000D01*
X117286078Y-57850000D01*
X117375095Y-57826148D01*
X117454905Y-57780070D01*
X117520070Y-57714905D01*
X117566148Y-57635095D01*
X117590000Y-57546078D01*
X117590000Y-57453922D01*
X117566148Y-57364905D01*
X117520070Y-57285095D01*
X117484975Y-57250000D01*
X118415362Y-57250000D01*
X118410451Y-57218997D01*
X118352085Y-57039362D01*
X118266329Y-56871059D01*
X118155314Y-56718258D01*
X118155310Y-56718253D01*
X118021746Y-56584689D01*
X118021741Y-56584685D01*
X117868940Y-56473670D01*
X117714514Y-56394985D01*
X117663718Y-56347010D01*
X117646923Y-56279189D01*
X117669461Y-56213054D01*
X117724176Y-56169603D01*
X117770809Y-56160500D01*
X118106937Y-56160500D01*
X118106944Y-56160500D01*
X118348744Y-56128666D01*
X118584321Y-56065544D01*
X118809644Y-55972212D01*
X119020856Y-55850268D01*
X119214345Y-55701799D01*
X119386799Y-55529345D01*
X119535268Y-55335856D01*
X119657212Y-55124644D01*
X119750544Y-54899321D01*
X119813666Y-54663744D01*
X119845500Y-54421944D01*
X119845500Y-54178056D01*
X119813666Y-53936256D01*
X119750544Y-53700679D01*
X119748436Y-53695591D01*
X119700240Y-53579234D01*
X119657212Y-53475356D01*
X119657210Y-53475353D01*
X119657208Y-53475348D01*
X119535272Y-53264151D01*
X119535268Y-53264144D01*
X119386799Y-53070655D01*
X119386794Y-53070649D01*
X119214350Y-52898205D01*
X119214343Y-52898199D01*
X119020864Y-52749738D01*
X119020862Y-52749736D01*
X119020856Y-52749732D01*
X119020851Y-52749729D01*
X119020848Y-52749727D01*
X118809651Y-52627791D01*
X118809640Y-52627786D01*
X118584330Y-52534459D01*
X118584323Y-52534457D01*
X118584321Y-52534456D01*
X118348744Y-52471334D01*
X118308333Y-52466013D01*
X118106951Y-52439500D01*
X118106944Y-52439500D01*
X117343056Y-52439500D01*
X117343048Y-52439500D01*
X117112896Y-52469801D01*
X117101256Y-52471334D01*
X117096304Y-52472661D01*
X116865679Y-52534456D01*
X116865669Y-52534459D01*
X116640359Y-52627786D01*
X116640348Y-52627791D01*
X116429151Y-52749727D01*
X116429135Y-52749738D01*
X116235656Y-52898199D01*
X116235649Y-52898205D01*
X116063205Y-53070649D01*
X116063199Y-53070656D01*
X115914738Y-53264135D01*
X115914727Y-53264151D01*
X115792791Y-53475348D01*
X115792786Y-53475359D01*
X115699459Y-53700669D01*
X115699456Y-53700679D01*
X115636335Y-53936253D01*
X115636333Y-53936264D01*
X115604500Y-54178048D01*
X109000500Y-54178048D01*
X109000500Y-51845513D01*
X109799500Y-51845513D01*
X109799500Y-52034486D01*
X109829059Y-52221118D01*
X109887454Y-52400836D01*
X109955539Y-52534459D01*
X109973240Y-52569199D01*
X110084310Y-52722073D01*
X110217927Y-52855690D01*
X110370801Y-52966760D01*
X110450347Y-53007290D01*
X110539163Y-53052545D01*
X110539165Y-53052545D01*
X110539168Y-53052547D01*
X110635497Y-53083846D01*
X110718881Y-53110940D01*
X110905514Y-53140500D01*
X110905519Y-53140500D01*
X111094486Y-53140500D01*
X111281118Y-53110940D01*
X111309823Y-53101613D01*
X111460832Y-53052547D01*
X111464850Y-53050500D01*
X111527698Y-53018477D01*
X111629199Y-52966760D01*
X111782073Y-52855690D01*
X111915690Y-52722073D01*
X112026760Y-52569199D01*
X112112547Y-52400832D01*
X112170940Y-52221118D01*
X112179036Y-52170000D01*
X112200500Y-52034486D01*
X112200500Y-51845513D01*
X112170940Y-51658881D01*
X112112545Y-51479163D01*
X112026759Y-51310800D01*
X111915690Y-51157927D01*
X111782073Y-51024310D01*
X111629199Y-50913240D01*
X111608672Y-50902781D01*
X111460836Y-50827454D01*
X111281118Y-50769059D01*
X111094486Y-50739500D01*
X111094481Y-50739500D01*
X110905519Y-50739500D01*
X110905514Y-50739500D01*
X110718881Y-50769059D01*
X110539163Y-50827454D01*
X110370800Y-50913240D01*
X110283579Y-50976610D01*
X110217927Y-51024310D01*
X110217925Y-51024312D01*
X110217924Y-51024312D01*
X110084312Y-51157924D01*
X110084312Y-51157925D01*
X110084310Y-51157927D01*
X110043004Y-51214780D01*
X109973240Y-51310800D01*
X109887454Y-51479163D01*
X109829059Y-51658881D01*
X109799500Y-51845513D01*
X109000500Y-51845513D01*
X109000500Y-46889778D01*
X123824500Y-46889778D01*
X123824500Y-47110221D01*
X123858985Y-47327952D01*
X123927103Y-47537603D01*
X123927104Y-47537606D01*
X124027187Y-47734025D01*
X124156752Y-47912358D01*
X124156756Y-47912363D01*
X124312636Y-48068243D01*
X124312641Y-48068247D01*
X124424727Y-48149682D01*
X124467393Y-48205011D01*
X124473372Y-48274625D01*
X124440767Y-48336420D01*
X124424727Y-48350318D01*
X124312641Y-48431752D01*
X124312636Y-48431756D01*
X124156756Y-48587636D01*
X124156752Y-48587641D01*
X124027187Y-48765974D01*
X123927104Y-48962393D01*
X123927103Y-48962396D01*
X123858985Y-49172047D01*
X123824500Y-49389778D01*
X123824500Y-49610221D01*
X123858985Y-49827952D01*
X123927103Y-50037603D01*
X123927104Y-50037606D01*
X124027187Y-50234025D01*
X124156752Y-50412358D01*
X124156756Y-50412363D01*
X124177794Y-50433401D01*
X124211279Y-50494724D01*
X124206295Y-50564416D01*
X124164423Y-50620349D01*
X124133448Y-50637263D01*
X124082674Y-50656201D01*
X124082664Y-50656206D01*
X123967455Y-50742452D01*
X123967452Y-50742455D01*
X123881206Y-50857664D01*
X123881202Y-50857671D01*
X123830908Y-50992517D01*
X123824501Y-51052116D01*
X123824501Y-51052123D01*
X123824500Y-51052135D01*
X123824500Y-52947870D01*
X123824501Y-52947876D01*
X123830908Y-53007483D01*
X123881202Y-53142328D01*
X123881206Y-53142335D01*
X123967452Y-53257544D01*
X123967455Y-53257547D01*
X124082664Y-53343793D01*
X124082671Y-53343797D01*
X124217517Y-53394091D01*
X124217516Y-53394091D01*
X124224444Y-53394835D01*
X124277127Y-53400500D01*
X126172872Y-53400499D01*
X126232483Y-53394091D01*
X126367331Y-53343796D01*
X126482546Y-53257546D01*
X126568796Y-53142331D01*
X126619091Y-53007483D01*
X126625500Y-52947873D01*
X126625499Y-51920970D01*
X126625499Y-51052129D01*
X126625498Y-51052123D01*
X126625497Y-51052116D01*
X126619091Y-50992517D01*
X126568796Y-50857669D01*
X126568795Y-50857668D01*
X126568793Y-50857664D01*
X126482547Y-50742455D01*
X126482544Y-50742452D01*
X126367335Y-50656206D01*
X126367329Y-50656203D01*
X126316552Y-50637264D01*
X126260619Y-50595392D01*
X126236202Y-50529927D01*
X126251054Y-50461655D01*
X126272206Y-50433401D01*
X126293242Y-50412365D01*
X126422815Y-50234022D01*
X126522895Y-50037606D01*
X126591015Y-49827951D01*
X126625500Y-49610222D01*
X126625500Y-49389778D01*
X126591015Y-49172049D01*
X126522895Y-48962394D01*
X126522895Y-48962393D01*
X126488237Y-48894375D01*
X126422815Y-48765978D01*
X126406260Y-48743192D01*
X126293247Y-48587641D01*
X126293243Y-48587636D01*
X126137365Y-48431758D01*
X126137357Y-48431752D01*
X126025270Y-48350317D01*
X125982606Y-48294989D01*
X125976627Y-48225376D01*
X126009232Y-48163580D01*
X126025265Y-48149686D01*
X126137365Y-48068242D01*
X126293242Y-47912365D01*
X126422815Y-47734022D01*
X126522895Y-47537606D01*
X126559715Y-47424284D01*
X126599152Y-47366608D01*
X126663510Y-47339409D01*
X126732356Y-47351323D01*
X126783833Y-47398567D01*
X126795576Y-47424281D01*
X126807452Y-47460832D01*
X126846571Y-47537606D01*
X126893240Y-47629199D01*
X127004310Y-47782073D01*
X127137927Y-47915690D01*
X127290801Y-48026760D01*
X127370347Y-48067290D01*
X127459163Y-48112545D01*
X127459165Y-48112545D01*
X127459168Y-48112547D01*
X127555497Y-48143846D01*
X127638881Y-48170940D01*
X127825514Y-48200500D01*
X127825519Y-48200500D01*
X128014486Y-48200500D01*
X128201118Y-48170940D01*
X128202623Y-48170451D01*
X128380832Y-48112547D01*
X128549199Y-48026760D01*
X128702073Y-47915690D01*
X128835690Y-47782073D01*
X128946760Y-47629199D01*
X129032547Y-47460832D01*
X129090940Y-47281118D01*
X129095868Y-47250000D01*
X134364638Y-47250000D01*
X134369548Y-47281002D01*
X134427914Y-47460637D01*
X134513670Y-47628940D01*
X134624685Y-47781741D01*
X134624689Y-47781746D01*
X134758253Y-47915310D01*
X134758258Y-47915314D01*
X134911059Y-48026329D01*
X135079362Y-48112085D01*
X135258997Y-48170451D01*
X135290000Y-48175362D01*
X135290000Y-48175361D01*
X135790000Y-48175361D01*
X135821002Y-48170451D01*
X136000637Y-48112085D01*
X136168940Y-48026329D01*
X136321741Y-47915314D01*
X136321746Y-47915310D01*
X136455310Y-47781746D01*
X136455314Y-47781741D01*
X136566329Y-47628940D01*
X136652085Y-47460637D01*
X136710451Y-47281002D01*
X136715362Y-47250000D01*
X135790000Y-47250000D01*
X135790000Y-48175361D01*
X135290000Y-48175361D01*
X135290000Y-47250000D01*
X134364638Y-47250000D01*
X129095868Y-47250000D01*
X129107363Y-47177423D01*
X129120500Y-47094485D01*
X129120500Y-46953922D01*
X135190000Y-46953922D01*
X135190000Y-47046078D01*
X135213852Y-47135095D01*
X135259930Y-47214905D01*
X135325095Y-47280070D01*
X135404905Y-47326148D01*
X135493922Y-47350000D01*
X135586078Y-47350000D01*
X135675095Y-47326148D01*
X135754905Y-47280070D01*
X135820070Y-47214905D01*
X135866148Y-47135095D01*
X135890000Y-47046078D01*
X135890000Y-46953922D01*
X135866148Y-46864905D01*
X135820070Y-46785095D01*
X135784975Y-46750000D01*
X135790000Y-46750000D01*
X136715362Y-46750000D01*
X136710451Y-46718997D01*
X136652085Y-46539362D01*
X136566329Y-46371059D01*
X136455314Y-46218258D01*
X136455310Y-46218253D01*
X136321746Y-46084689D01*
X136321741Y-46084685D01*
X136168940Y-45973670D01*
X136000635Y-45887913D01*
X135821004Y-45829549D01*
X135820995Y-45829547D01*
X135790000Y-45824637D01*
X135790000Y-46750000D01*
X135784975Y-46750000D01*
X135754905Y-46719930D01*
X135675095Y-46673852D01*
X135586078Y-46650000D01*
X135493922Y-46650000D01*
X135404905Y-46673852D01*
X135325095Y-46719930D01*
X135259930Y-46785095D01*
X135213852Y-46864905D01*
X135190000Y-46953922D01*
X129120500Y-46953922D01*
X129120500Y-46905514D01*
X129104811Y-46806462D01*
X129104811Y-46806460D01*
X129095869Y-46750000D01*
X134364638Y-46750000D01*
X135290000Y-46750000D01*
X135290000Y-45824637D01*
X135289999Y-45824637D01*
X135259004Y-45829547D01*
X135258995Y-45829549D01*
X135079364Y-45887913D01*
X134911059Y-45973670D01*
X134758258Y-46084685D01*
X134758253Y-46084689D01*
X134624689Y-46218253D01*
X134624685Y-46218258D01*
X134513670Y-46371059D01*
X134427914Y-46539362D01*
X134369548Y-46718997D01*
X134364638Y-46750000D01*
X129095869Y-46750000D01*
X129090940Y-46718882D01*
X129090940Y-46718881D01*
X129032545Y-46539163D01*
X128947479Y-46372213D01*
X128946760Y-46370801D01*
X128835690Y-46217927D01*
X128702073Y-46084310D01*
X128549199Y-45973240D01*
X128380836Y-45887454D01*
X128201118Y-45829059D01*
X128014486Y-45799500D01*
X128014481Y-45799500D01*
X127825519Y-45799500D01*
X127825514Y-45799500D01*
X127638881Y-45829059D01*
X127459163Y-45887454D01*
X127290800Y-45973240D01*
X127203579Y-46036610D01*
X127137927Y-46084310D01*
X127137925Y-46084312D01*
X127137924Y-46084312D01*
X127004312Y-46217924D01*
X127004312Y-46217925D01*
X127004310Y-46217927D01*
X127004070Y-46218258D01*
X126893240Y-46370800D01*
X126807453Y-46539166D01*
X126795576Y-46575719D01*
X126756137Y-46633394D01*
X126691778Y-46660590D01*
X126622932Y-46648674D01*
X126571457Y-46601429D01*
X126559715Y-46575715D01*
X126522897Y-46462399D01*
X126522895Y-46462393D01*
X126476357Y-46371059D01*
X126422815Y-46265978D01*
X126387902Y-46217924D01*
X126293247Y-46087641D01*
X126293243Y-46087636D01*
X126137363Y-45931756D01*
X126137358Y-45931752D01*
X125959025Y-45802187D01*
X125959024Y-45802186D01*
X125959022Y-45802185D01*
X125896096Y-45770122D01*
X125762606Y-45702104D01*
X125762603Y-45702103D01*
X125552952Y-45633985D01*
X125444086Y-45616742D01*
X125335222Y-45599500D01*
X125114778Y-45599500D01*
X125042201Y-45610995D01*
X124897047Y-45633985D01*
X124687396Y-45702103D01*
X124687393Y-45702104D01*
X124490974Y-45802187D01*
X124312641Y-45931752D01*
X124312636Y-45931756D01*
X124156756Y-46087636D01*
X124156752Y-46087641D01*
X124027187Y-46265974D01*
X123927104Y-46462393D01*
X123927103Y-46462396D01*
X123858985Y-46672047D01*
X123824500Y-46889778D01*
X109000500Y-46889778D01*
X109000500Y-44578048D01*
X115604500Y-44578048D01*
X115604500Y-44821951D01*
X115631013Y-45023333D01*
X115636334Y-45063744D01*
X115636335Y-45063746D01*
X115699456Y-45299320D01*
X115699459Y-45299330D01*
X115792786Y-45524640D01*
X115792791Y-45524651D01*
X115914727Y-45735848D01*
X115914738Y-45735864D01*
X116063199Y-45929343D01*
X116063205Y-45929350D01*
X116235649Y-46101794D01*
X116235655Y-46101799D01*
X116429144Y-46250268D01*
X116429151Y-46250272D01*
X116640348Y-46372208D01*
X116640353Y-46372210D01*
X116640356Y-46372212D01*
X116865679Y-46465544D01*
X117101256Y-46528666D01*
X117343056Y-46560500D01*
X117343063Y-46560500D01*
X118106937Y-46560500D01*
X118106944Y-46560500D01*
X118348744Y-46528666D01*
X118584321Y-46465544D01*
X118809644Y-46372212D01*
X119020856Y-46250268D01*
X119214345Y-46101799D01*
X119386799Y-45929345D01*
X119535268Y-45735856D01*
X119657212Y-45524644D01*
X119750544Y-45299321D01*
X119813666Y-45063744D01*
X119845500Y-44821944D01*
X119845500Y-44578056D01*
X119813666Y-44336256D01*
X119750544Y-44100679D01*
X119657212Y-43875356D01*
X119657210Y-43875353D01*
X119657208Y-43875348D01*
X119535272Y-43664151D01*
X119535268Y-43664144D01*
X119386799Y-43470655D01*
X119386794Y-43470649D01*
X119214350Y-43298205D01*
X119214343Y-43298199D01*
X119020864Y-43149738D01*
X119020862Y-43149736D01*
X119020856Y-43149732D01*
X119020851Y-43149729D01*
X119020848Y-43149727D01*
X118809651Y-43027791D01*
X118809640Y-43027786D01*
X118584330Y-42934459D01*
X118584323Y-42934457D01*
X118584321Y-42934456D01*
X118348744Y-42871334D01*
X118308333Y-42866013D01*
X118106951Y-42839500D01*
X118106944Y-42839500D01*
X117343056Y-42839500D01*
X117343048Y-42839500D01*
X117112896Y-42869801D01*
X117101256Y-42871334D01*
X116865679Y-42934456D01*
X116865669Y-42934459D01*
X116640359Y-43027786D01*
X116640348Y-43027791D01*
X116429151Y-43149727D01*
X116429135Y-43149738D01*
X116235656Y-43298199D01*
X116235649Y-43298205D01*
X116063205Y-43470649D01*
X116063199Y-43470656D01*
X115914738Y-43664135D01*
X115914727Y-43664151D01*
X115792791Y-43875348D01*
X115792786Y-43875359D01*
X115699459Y-44100669D01*
X115699456Y-44100679D01*
X115636335Y-44336253D01*
X115636333Y-44336264D01*
X115604500Y-44578048D01*
X109000500Y-44578048D01*
X109000500Y-42624500D01*
X109020185Y-42557461D01*
X109072989Y-42511706D01*
X109124500Y-42500500D01*
X161875500Y-42500500D01*
X161942539Y-42520185D01*
G37*
G04 #@! TD.AperFunction*
M02*
