%TF.GenerationSoftware,KiCad,Pcbnew,9.0.5-9.0.5~ubuntu25.04.1*%
%TF.CreationDate,2025-11-06T11:13:40-06:00*%
%TF.ProjectId,Signal_Board,5369676e-616c-45f4-926f-6172642e6b69,rev?*%
%TF.SameCoordinates,Original*%
%TF.FileFunction,Copper,L2,Bot*%
%TF.FilePolarity,Positive*%
%FSLAX46Y46*%
G04 Gerber Fmt 4.6, Leading zero omitted, Abs format (unit mm)*
G04 Created by KiCad (PCBNEW 9.0.5-9.0.5~ubuntu25.04.1) date 2025-11-06 11:13:40*
%MOMM*%
%LPD*%
G01*
G04 APERTURE LIST*
G04 Aperture macros list*
%AMRoundRect*
0 Rectangle with rounded corners*
0 $1 Rounding radius*
0 $2 $3 $4 $5 $6 $7 $8 $9 X,Y pos of 4 corners*
0 Add a 4 corners polygon primitive as box body*
4,1,4,$2,$3,$4,$5,$6,$7,$8,$9,$2,$3,0*
0 Add four circle primitives for the rounded corners*
1,1,$1+$1,$2,$3*
1,1,$1+$1,$4,$5*
1,1,$1+$1,$6,$7*
1,1,$1+$1,$8,$9*
0 Add four rect primitives between the rounded corners*
20,1,$1+$1,$2,$3,$4,$5,0*
20,1,$1+$1,$4,$5,$6,$7,0*
20,1,$1+$1,$6,$7,$8,$9,0*
20,1,$1+$1,$8,$9,$2,$3,0*%
G04 Aperture macros list end*
%TA.AperFunction,ComponentPad*%
%ADD10C,1.600000*%
%TD*%
%TA.AperFunction,ComponentPad*%
%ADD11O,1.600000X1.600000*%
%TD*%
%TA.AperFunction,ComponentPad*%
%ADD12R,1.600000X2.400000*%
%TD*%
%TA.AperFunction,ComponentPad*%
%ADD13O,1.600000X2.400000*%
%TD*%
%TA.AperFunction,ComponentPad*%
%ADD14R,3.000000X3.000000*%
%TD*%
%TA.AperFunction,ComponentPad*%
%ADD15C,3.000000*%
%TD*%
%TA.AperFunction,ComponentPad*%
%ADD16RoundRect,0.262500X-0.262500X-0.487500X0.262500X-0.487500X0.262500X0.487500X-0.262500X0.487500X0*%
%TD*%
%TA.AperFunction,ComponentPad*%
%ADD17R,1.050000X1.500000*%
%TD*%
%TA.AperFunction,ComponentPad*%
%ADD18C,1.400000*%
%TD*%
%TA.AperFunction,ComponentPad*%
%ADD19O,1.400000X1.400000*%
%TD*%
%TA.AperFunction,ComponentPad*%
%ADD20R,2.400000X1.600000*%
%TD*%
%TA.AperFunction,ComponentPad*%
%ADD21O,2.400000X1.600000*%
%TD*%
%TA.AperFunction,ComponentPad*%
%ADD22O,3.240000X2.720000*%
%TD*%
%TA.AperFunction,ComponentPad*%
%ADD23R,1.800000X1.800000*%
%TD*%
%TA.AperFunction,ComponentPad*%
%ADD24C,1.800000*%
%TD*%
G04 APERTURE END LIST*
D10*
%TO.P,C5,1*%
%TO.N,+6V*%
X156250000Y-74500000D03*
D11*
%TO.P,C5,2*%
%TO.N,GND*%
X148750000Y-74500000D03*
%TD*%
D12*
%TO.P,U1,1*%
%TO.N,OSC_Out*%
X156540000Y-62675000D03*
D13*
%TO.P,U1,2*%
%TO.N,/SIG_Out*%
X154000000Y-62675000D03*
%TO.P,U1,3*%
%TO.N,GND*%
X151460000Y-62675000D03*
%TO.P,U1,4*%
X148920000Y-62675000D03*
%TO.P,U1,5*%
X146380000Y-62675000D03*
%TO.P,U1,6*%
X143840000Y-62675000D03*
%TO.P,U1,7,GND*%
X141300000Y-62675000D03*
%TO.P,U1,8*%
X141300000Y-70295000D03*
%TO.P,U1,9*%
X143840000Y-70295000D03*
%TO.P,U1,10*%
X146380000Y-70295000D03*
%TO.P,U1,11*%
X148920000Y-70295000D03*
%TO.P,U1,12*%
X151460000Y-70295000D03*
%TO.P,U1,13*%
X154000000Y-70295000D03*
%TO.P,U1,14,VCC*%
%TO.N,+6V*%
X156540000Y-70295000D03*
%TD*%
D14*
%TO.P,J2,1,Pin_1*%
%TO.N,/SIG_Out*%
X158500000Y-80500000D03*
D15*
%TO.P,J2,2,Pin_2*%
X153420000Y-80500000D03*
%TO.P,J2,3,Pin_3*%
X148340000Y-80500000D03*
%TO.P,J2,4,Pin_4*%
X143260000Y-80500000D03*
%TO.P,J2,5,Pin_5*%
X138180000Y-80500000D03*
%TO.P,J2,6,Pin_6*%
%TO.N,GND*%
X133100000Y-80500000D03*
%TD*%
D16*
%TO.P,U2,1*%
%TO.N,/LDO_ADJ*%
X116290000Y-71250000D03*
D17*
%TO.P,U2,2,IN*%
%TO.N,+9V*%
X113750000Y-71250000D03*
D16*
%TO.P,U2,3,OUT*%
%TO.N,+6V*%
X115020000Y-71250000D03*
%TD*%
D10*
%TO.P,C3,1*%
%TO.N,+6V*%
X115250000Y-66000000D03*
D11*
%TO.P,C3,2*%
%TO.N,GND*%
X122750000Y-66000000D03*
%TD*%
D10*
%TO.P,C1,1*%
%TO.N,/CAP_FB*%
X141360000Y-51750000D03*
D11*
%TO.P,C1,2*%
%TO.N,Net-(U3-C1)*%
X141360000Y-59250000D03*
%TD*%
D18*
%TO.P,R6,1*%
%TO.N,/LDO_ADJ*%
X119000000Y-69510000D03*
D19*
%TO.P,R6,2*%
%TO.N,GND*%
X119000000Y-74590000D03*
%TD*%
D18*
%TO.P,R4,1*%
%TO.N,+6V*%
X114860000Y-62500000D03*
D19*
%TO.P,R4,2*%
%TO.N,Net-(R4-Pad2)*%
X114860000Y-57420000D03*
%TD*%
D18*
%TO.P,R2,1*%
%TO.N,/R2*%
X124850000Y-60000000D03*
D19*
%TO.P,R2,2*%
%TO.N,GND*%
X119770000Y-60000000D03*
%TD*%
D20*
%TO.P,U3,1,PCP*%
%TO.N,unconnected-(U3-PCP-Pad1)*%
X136360000Y-70200000D03*
D21*
%TO.P,U3,2,PC1*%
%TO.N,unconnected-(U3-PC1-Pad2)*%
X136360000Y-67660000D03*
%TO.P,U3,3,RefIn*%
%TO.N,unconnected-(U3-RefIn-Pad3)*%
X136360000Y-65120000D03*
%TO.P,U3,4,FOUT*%
%TO.N,OSC_Out*%
X136360000Y-62580000D03*
%TO.P,U3,5,Inh*%
%TO.N,GND*%
X136360000Y-60040000D03*
%TO.P,U3,6,C1*%
%TO.N,Net-(U3-C1)*%
X136360000Y-57500000D03*
%TO.P,U3,7,C2*%
%TO.N,/CAP_FB*%
X136360000Y-54960000D03*
%TO.P,U3,8,VSS*%
%TO.N,GND*%
X136360000Y-52420000D03*
%TO.P,U3,9,VCOin*%
%TO.N,/VCO_IN*%
X128740000Y-52420000D03*
%TO.P,U3,10,SFout*%
%TO.N,GND*%
X128740000Y-54960000D03*
%TO.P,U3,11,R1*%
%TO.N,/R1*%
X128740000Y-57500000D03*
%TO.P,U3,12,R2*%
%TO.N,/R2*%
X128740000Y-60040000D03*
%TO.P,U3,13,PC2*%
%TO.N,unconnected-(U3-PC2-Pad13)*%
X128740000Y-62580000D03*
%TO.P,U3,14,SigIn*%
%TO.N,unconnected-(U3-SigIn-Pad14)*%
X128740000Y-65120000D03*
%TO.P,U3,15,ZOUT*%
%TO.N,GND*%
X128740000Y-67660000D03*
%TO.P,U3,16,VDD*%
%TO.N,+6V*%
X128740000Y-70200000D03*
%TD*%
D18*
%TO.P,R1,1*%
%TO.N,/R1*%
X124860000Y-57500000D03*
D19*
%TO.P,R1,2*%
%TO.N,GND*%
X119780000Y-57500000D03*
%TD*%
D18*
%TO.P,R5,1*%
%TO.N,+6V*%
X121500000Y-69510000D03*
D19*
%TO.P,R5,2*%
%TO.N,/LDO_ADJ*%
X121500000Y-74590000D03*
%TD*%
D10*
%TO.P,C2,1*%
%TO.N,+9V*%
X110500000Y-74250000D03*
D11*
%TO.P,C2,2*%
%TO.N,GND*%
X110500000Y-66750000D03*
%TD*%
D10*
%TO.P,C4,1*%
%TO.N,+6V*%
X128610000Y-74000000D03*
D11*
%TO.P,C4,2*%
%TO.N,GND*%
X136110000Y-74000000D03*
%TD*%
D22*
%TO.P,RV1,*%
%TO.N,*%
X117725000Y-54300000D03*
X117725000Y-44700000D03*
D23*
%TO.P,RV1,1,1*%
%TO.N,Net-(R4-Pad2)*%
X125225000Y-52000000D03*
D24*
%TO.P,RV1,2,2*%
%TO.N,/VCO_IN*%
X125225000Y-49500000D03*
%TO.P,RV1,3,3*%
%TO.N,Net-(R3-Pad1)*%
X125225000Y-47000000D03*
%TD*%
D18*
%TO.P,R3,1*%
%TO.N,Net-(R3-Pad1)*%
X127920000Y-47000000D03*
D19*
%TO.P,R3,2*%
%TO.N,GND*%
X133000000Y-47000000D03*
%TD*%
D14*
%TO.P,J1,1,Pin_1*%
%TO.N,+9V*%
X112960000Y-80500000D03*
D15*
%TO.P,J1,2,Pin_2*%
%TO.N,GND*%
X118040000Y-80500000D03*
%TD*%
%TA.AperFunction,Conductor*%
%TO.N,GND*%
G36*
X143519920Y-70049394D02*
G01*
X143467259Y-70140606D01*
X143440000Y-70242339D01*
X143440000Y-70347661D01*
X143467259Y-70449394D01*
X143519920Y-70540606D01*
X143524314Y-70545000D01*
X141615686Y-70545000D01*
X141620080Y-70540606D01*
X141672741Y-70449394D01*
X141700000Y-70347661D01*
X141700000Y-70242339D01*
X141672741Y-70140606D01*
X141620080Y-70049394D01*
X141615686Y-70045000D01*
X143524314Y-70045000D01*
X143519920Y-70049394D01*
G37*
%TD.AperFunction*%
%TA.AperFunction,Conductor*%
G36*
X146059920Y-70049394D02*
G01*
X146007259Y-70140606D01*
X145980000Y-70242339D01*
X145980000Y-70347661D01*
X146007259Y-70449394D01*
X146059920Y-70540606D01*
X146064314Y-70545000D01*
X144155686Y-70545000D01*
X144160080Y-70540606D01*
X144212741Y-70449394D01*
X144240000Y-70347661D01*
X144240000Y-70242339D01*
X144212741Y-70140606D01*
X144160080Y-70049394D01*
X144155686Y-70045000D01*
X146064314Y-70045000D01*
X146059920Y-70049394D01*
G37*
%TD.AperFunction*%
%TA.AperFunction,Conductor*%
G36*
X148599920Y-70049394D02*
G01*
X148547259Y-70140606D01*
X148520000Y-70242339D01*
X148520000Y-70347661D01*
X148547259Y-70449394D01*
X148599920Y-70540606D01*
X148604314Y-70545000D01*
X146695686Y-70545000D01*
X146700080Y-70540606D01*
X146752741Y-70449394D01*
X146780000Y-70347661D01*
X146780000Y-70242339D01*
X146752741Y-70140606D01*
X146700080Y-70049394D01*
X146695686Y-70045000D01*
X148604314Y-70045000D01*
X148599920Y-70049394D01*
G37*
%TD.AperFunction*%
%TA.AperFunction,Conductor*%
G36*
X151139920Y-70049394D02*
G01*
X151087259Y-70140606D01*
X151060000Y-70242339D01*
X151060000Y-70347661D01*
X151087259Y-70449394D01*
X151139920Y-70540606D01*
X151144314Y-70545000D01*
X149235686Y-70545000D01*
X149240080Y-70540606D01*
X149292741Y-70449394D01*
X149320000Y-70347661D01*
X149320000Y-70242339D01*
X149292741Y-70140606D01*
X149240080Y-70049394D01*
X149235686Y-70045000D01*
X151144314Y-70045000D01*
X151139920Y-70049394D01*
G37*
%TD.AperFunction*%
%TA.AperFunction,Conductor*%
G36*
X153679920Y-70049394D02*
G01*
X153627259Y-70140606D01*
X153600000Y-70242339D01*
X153600000Y-70347661D01*
X153627259Y-70449394D01*
X153679920Y-70540606D01*
X153684314Y-70545000D01*
X151775686Y-70545000D01*
X151780080Y-70540606D01*
X151832741Y-70449394D01*
X151860000Y-70347661D01*
X151860000Y-70242339D01*
X151832741Y-70140606D01*
X151780080Y-70049394D01*
X151775686Y-70045000D01*
X153684314Y-70045000D01*
X153679920Y-70049394D01*
G37*
%TD.AperFunction*%
%TA.AperFunction,Conductor*%
G36*
X143519920Y-62429394D02*
G01*
X143467259Y-62520606D01*
X143440000Y-62622339D01*
X143440000Y-62727661D01*
X143467259Y-62829394D01*
X143519920Y-62920606D01*
X143524314Y-62925000D01*
X141615686Y-62925000D01*
X141620080Y-62920606D01*
X141672741Y-62829394D01*
X141700000Y-62727661D01*
X141700000Y-62622339D01*
X141672741Y-62520606D01*
X141620080Y-62429394D01*
X141615686Y-62425000D01*
X143524314Y-62425000D01*
X143519920Y-62429394D01*
G37*
%TD.AperFunction*%
%TA.AperFunction,Conductor*%
G36*
X146059920Y-62429394D02*
G01*
X146007259Y-62520606D01*
X145980000Y-62622339D01*
X145980000Y-62727661D01*
X146007259Y-62829394D01*
X146059920Y-62920606D01*
X146064314Y-62925000D01*
X144155686Y-62925000D01*
X144160080Y-62920606D01*
X144212741Y-62829394D01*
X144240000Y-62727661D01*
X144240000Y-62622339D01*
X144212741Y-62520606D01*
X144160080Y-62429394D01*
X144155686Y-62425000D01*
X146064314Y-62425000D01*
X146059920Y-62429394D01*
G37*
%TD.AperFunction*%
%TA.AperFunction,Conductor*%
G36*
X148599920Y-62429394D02*
G01*
X148547259Y-62520606D01*
X148520000Y-62622339D01*
X148520000Y-62727661D01*
X148547259Y-62829394D01*
X148599920Y-62920606D01*
X148604314Y-62925000D01*
X146695686Y-62925000D01*
X146700080Y-62920606D01*
X146752741Y-62829394D01*
X146780000Y-62727661D01*
X146780000Y-62622339D01*
X146752741Y-62520606D01*
X146700080Y-62429394D01*
X146695686Y-62425000D01*
X148604314Y-62425000D01*
X148599920Y-62429394D01*
G37*
%TD.AperFunction*%
%TA.AperFunction,Conductor*%
G36*
X151139920Y-62429394D02*
G01*
X151087259Y-62520606D01*
X151060000Y-62622339D01*
X151060000Y-62727661D01*
X151087259Y-62829394D01*
X151139920Y-62920606D01*
X151144314Y-62925000D01*
X149235686Y-62925000D01*
X149240080Y-62920606D01*
X149292741Y-62829394D01*
X149320000Y-62727661D01*
X149320000Y-62622339D01*
X149292741Y-62520606D01*
X149240080Y-62429394D01*
X149235686Y-62425000D01*
X151144314Y-62425000D01*
X151139920Y-62429394D01*
G37*
%TD.AperFunction*%
%TA.AperFunction,Conductor*%
G36*
X161942539Y-42520185D02*
G01*
X161988294Y-42572989D01*
X161999500Y-42624500D01*
X161999500Y-84875500D01*
X161979815Y-84942539D01*
X161927011Y-84988294D01*
X161875500Y-84999500D01*
X109124500Y-84999500D01*
X109057461Y-84979815D01*
X109011706Y-84927011D01*
X109000500Y-84875500D01*
X109000500Y-78952135D01*
X110959500Y-78952135D01*
X110959500Y-82047870D01*
X110959501Y-82047876D01*
X110965908Y-82107483D01*
X111016202Y-82242328D01*
X111016206Y-82242335D01*
X111102452Y-82357544D01*
X111102455Y-82357547D01*
X111217664Y-82443793D01*
X111217671Y-82443797D01*
X111352517Y-82494091D01*
X111352516Y-82494091D01*
X111359444Y-82494835D01*
X111412127Y-82500500D01*
X114507872Y-82500499D01*
X114567483Y-82494091D01*
X114702331Y-82443796D01*
X114817546Y-82357546D01*
X114903796Y-82242331D01*
X114954091Y-82107483D01*
X114960500Y-82047873D01*
X114960499Y-80368905D01*
X116040000Y-80368905D01*
X116040000Y-80631094D01*
X116074220Y-80891009D01*
X116074222Y-80891020D01*
X116142075Y-81144255D01*
X116242404Y-81386471D01*
X116242409Y-81386482D01*
X116373488Y-81613516D01*
X116373494Y-81613524D01*
X116460080Y-81726365D01*
X117354767Y-80831677D01*
X117366497Y-80859995D01*
X117449670Y-80984472D01*
X117555528Y-81090330D01*
X117680005Y-81173503D01*
X117708320Y-81185231D01*
X116813633Y-82079917D01*
X116813633Y-82079918D01*
X116926475Y-82166505D01*
X116926483Y-82166511D01*
X117153517Y-82297590D01*
X117153528Y-82297595D01*
X117395744Y-82397924D01*
X117648979Y-82465777D01*
X117648990Y-82465779D01*
X117908905Y-82499999D01*
X117908920Y-82500000D01*
X118171080Y-82500000D01*
X118171094Y-82499999D01*
X118431009Y-82465779D01*
X118431020Y-82465777D01*
X118684255Y-82397924D01*
X118926471Y-82297595D01*
X118926482Y-82297590D01*
X119153516Y-82166511D01*
X119153534Y-82166499D01*
X119266365Y-82079919D01*
X119266365Y-82079917D01*
X118371679Y-81185231D01*
X118399995Y-81173503D01*
X118524472Y-81090330D01*
X118630330Y-80984472D01*
X118713503Y-80859995D01*
X118725231Y-80831679D01*
X119619917Y-81726365D01*
X119619919Y-81726365D01*
X119706499Y-81613534D01*
X119706511Y-81613516D01*
X119837590Y-81386482D01*
X119837595Y-81386471D01*
X119937924Y-81144255D01*
X120005777Y-80891020D01*
X120005779Y-80891009D01*
X120039999Y-80631094D01*
X120040000Y-80631080D01*
X120040000Y-80368919D01*
X120039999Y-80368905D01*
X131100000Y-80368905D01*
X131100000Y-80631094D01*
X131134220Y-80891009D01*
X131134222Y-80891020D01*
X131202075Y-81144255D01*
X131302404Y-81386471D01*
X131302409Y-81386482D01*
X131433488Y-81613516D01*
X131433494Y-81613524D01*
X131520080Y-81726365D01*
X132414767Y-80831677D01*
X132426497Y-80859995D01*
X132509670Y-80984472D01*
X132615528Y-81090330D01*
X132740005Y-81173503D01*
X132768320Y-81185231D01*
X131873633Y-82079917D01*
X131873633Y-82079918D01*
X131986475Y-82166505D01*
X131986483Y-82166511D01*
X132213517Y-82297590D01*
X132213528Y-82297595D01*
X132455744Y-82397924D01*
X132708979Y-82465777D01*
X132708990Y-82465779D01*
X132968905Y-82499999D01*
X132968920Y-82500000D01*
X133231080Y-82500000D01*
X133231094Y-82499999D01*
X133491009Y-82465779D01*
X133491020Y-82465777D01*
X133744255Y-82397924D01*
X133986471Y-82297595D01*
X133986482Y-82297590D01*
X134213516Y-82166511D01*
X134213534Y-82166499D01*
X134326365Y-82079919D01*
X134326365Y-82079917D01*
X133431679Y-81185231D01*
X133459995Y-81173503D01*
X133584472Y-81090330D01*
X133690330Y-80984472D01*
X133773503Y-80859995D01*
X133785231Y-80831679D01*
X134679917Y-81726365D01*
X134679919Y-81726365D01*
X134766499Y-81613534D01*
X134766511Y-81613516D01*
X134897590Y-81386482D01*
X134897595Y-81386471D01*
X134997924Y-81144255D01*
X135065777Y-80891020D01*
X135065779Y-80891009D01*
X135099999Y-80631094D01*
X135100000Y-80631080D01*
X135100000Y-80368912D01*
X135099995Y-80368872D01*
X136179500Y-80368872D01*
X136179500Y-80631127D01*
X136191423Y-80721684D01*
X136213730Y-80891116D01*
X136238745Y-80984472D01*
X136281602Y-81144418D01*
X136281605Y-81144428D01*
X136381953Y-81386690D01*
X136381958Y-81386700D01*
X136513075Y-81613803D01*
X136672718Y-81821851D01*
X136672726Y-81821860D01*
X136858140Y-82007274D01*
X136858148Y-82007281D01*
X137066196Y-82166924D01*
X137293299Y-82298041D01*
X137293309Y-82298046D01*
X137535571Y-82398394D01*
X137535581Y-82398398D01*
X137788884Y-82466270D01*
X138037188Y-82498960D01*
X138048864Y-82500498D01*
X138048880Y-82500500D01*
X138048887Y-82500500D01*
X138311113Y-82500500D01*
X138311120Y-82500500D01*
X138571116Y-82466270D01*
X138824419Y-82398398D01*
X139066697Y-82298043D01*
X139293803Y-82166924D01*
X139501851Y-82007282D01*
X139501855Y-82007277D01*
X139501860Y-82007274D01*
X139687274Y-81821860D01*
X139687277Y-81821855D01*
X139687282Y-81821851D01*
X139846924Y-81613803D01*
X139978043Y-81386697D01*
X140078398Y-81144419D01*
X140146270Y-80891116D01*
X140180500Y-80631120D01*
X140180500Y-80368880D01*
X140180499Y-80368872D01*
X141259500Y-80368872D01*
X141259500Y-80631127D01*
X141271423Y-80721684D01*
X141293730Y-80891116D01*
X141318745Y-80984472D01*
X141361602Y-81144418D01*
X141361605Y-81144428D01*
X141461953Y-81386690D01*
X141461958Y-81386700D01*
X141593075Y-81613803D01*
X141752718Y-81821851D01*
X141752726Y-81821860D01*
X141938140Y-82007274D01*
X141938148Y-82007281D01*
X142146196Y-82166924D01*
X142373299Y-82298041D01*
X142373309Y-82298046D01*
X142615571Y-82398394D01*
X142615581Y-82398398D01*
X142868884Y-82466270D01*
X143117188Y-82498960D01*
X143128864Y-82500498D01*
X143128880Y-82500500D01*
X143128887Y-82500500D01*
X143391113Y-82500500D01*
X143391120Y-82500500D01*
X143651116Y-82466270D01*
X143904419Y-82398398D01*
X144146697Y-82298043D01*
X144373803Y-82166924D01*
X144581851Y-82007282D01*
X144581855Y-82007277D01*
X144581860Y-82007274D01*
X144767274Y-81821860D01*
X144767277Y-81821855D01*
X144767282Y-81821851D01*
X144926924Y-81613803D01*
X145058043Y-81386697D01*
X145158398Y-81144419D01*
X145226270Y-80891116D01*
X145260500Y-80631120D01*
X145260500Y-80368880D01*
X145260499Y-80368872D01*
X146339500Y-80368872D01*
X146339500Y-80631127D01*
X146351423Y-80721684D01*
X146373730Y-80891116D01*
X146398745Y-80984472D01*
X146441602Y-81144418D01*
X146441605Y-81144428D01*
X146541953Y-81386690D01*
X146541958Y-81386700D01*
X146673075Y-81613803D01*
X146832718Y-81821851D01*
X146832726Y-81821860D01*
X147018140Y-82007274D01*
X147018148Y-82007281D01*
X147226196Y-82166924D01*
X147453299Y-82298041D01*
X147453309Y-82298046D01*
X147695571Y-82398394D01*
X147695581Y-82398398D01*
X147948884Y-82466270D01*
X148197188Y-82498960D01*
X148208864Y-82500498D01*
X148208880Y-82500500D01*
X148208887Y-82500500D01*
X148471113Y-82500500D01*
X148471120Y-82500500D01*
X148731116Y-82466270D01*
X148984419Y-82398398D01*
X149226697Y-82298043D01*
X149453803Y-82166924D01*
X149661851Y-82007282D01*
X149661855Y-82007277D01*
X149661860Y-82007274D01*
X149847274Y-81821860D01*
X149847277Y-81821855D01*
X149847282Y-81821851D01*
X150006924Y-81613803D01*
X150138043Y-81386697D01*
X150238398Y-81144419D01*
X150306270Y-80891116D01*
X150340500Y-80631120D01*
X150340500Y-80368880D01*
X150340499Y-80368872D01*
X151419500Y-80368872D01*
X151419500Y-80631127D01*
X151431423Y-80721684D01*
X151453730Y-80891116D01*
X151478745Y-80984472D01*
X151521602Y-81144418D01*
X151521605Y-81144428D01*
X151621953Y-81386690D01*
X151621958Y-81386700D01*
X151753075Y-81613803D01*
X151912718Y-81821851D01*
X151912726Y-81821860D01*
X152098140Y-82007274D01*
X152098148Y-82007281D01*
X152306196Y-82166924D01*
X152533299Y-82298041D01*
X152533309Y-82298046D01*
X152775571Y-82398394D01*
X152775581Y-82398398D01*
X153028884Y-82466270D01*
X153277188Y-82498960D01*
X153288864Y-82500498D01*
X153288880Y-82500500D01*
X153288887Y-82500500D01*
X153551113Y-82500500D01*
X153551120Y-82500500D01*
X153811116Y-82466270D01*
X154064419Y-82398398D01*
X154306697Y-82298043D01*
X154533803Y-82166924D01*
X154741851Y-82007282D01*
X154741855Y-82007277D01*
X154741860Y-82007274D01*
X154927274Y-81821860D01*
X154927277Y-81821855D01*
X154927282Y-81821851D01*
X155086924Y-81613803D01*
X155218043Y-81386697D01*
X155318398Y-81144419D01*
X155386270Y-80891116D01*
X155420500Y-80631120D01*
X155420500Y-80368880D01*
X155386270Y-80108884D01*
X155318398Y-79855581D01*
X155270523Y-79740000D01*
X155218046Y-79613309D01*
X155218041Y-79613299D01*
X155086924Y-79386196D01*
X154927281Y-79178148D01*
X154927274Y-79178140D01*
X154741860Y-78992726D01*
X154741851Y-78992718D01*
X154688963Y-78952135D01*
X156499500Y-78952135D01*
X156499500Y-82047870D01*
X156499501Y-82047876D01*
X156505908Y-82107483D01*
X156556202Y-82242328D01*
X156556206Y-82242335D01*
X156642452Y-82357544D01*
X156642455Y-82357547D01*
X156757664Y-82443793D01*
X156757671Y-82443797D01*
X156892517Y-82494091D01*
X156892516Y-82494091D01*
X156899444Y-82494835D01*
X156952127Y-82500500D01*
X160047872Y-82500499D01*
X160107483Y-82494091D01*
X160242331Y-82443796D01*
X160357546Y-82357546D01*
X160443796Y-82242331D01*
X160494091Y-82107483D01*
X160500500Y-82047873D01*
X160500499Y-78952128D01*
X160494091Y-78892517D01*
X160443796Y-78757669D01*
X160443795Y-78757668D01*
X160443793Y-78757664D01*
X160357547Y-78642455D01*
X160357544Y-78642452D01*
X160242335Y-78556206D01*
X160242328Y-78556202D01*
X160107482Y-78505908D01*
X160107483Y-78505908D01*
X160047883Y-78499501D01*
X160047881Y-78499500D01*
X160047873Y-78499500D01*
X160047864Y-78499500D01*
X156952129Y-78499500D01*
X156952123Y-78499501D01*
X156892516Y-78505908D01*
X156757671Y-78556202D01*
X156757664Y-78556206D01*
X156642455Y-78642452D01*
X156642452Y-78642455D01*
X156556206Y-78757664D01*
X156556202Y-78757671D01*
X156505908Y-78892517D01*
X156499501Y-78952116D01*
X156499501Y-78952123D01*
X156499500Y-78952135D01*
X154688963Y-78952135D01*
X154533803Y-78833075D01*
X154306700Y-78701958D01*
X154306690Y-78701953D01*
X154064428Y-78601605D01*
X154064421Y-78601603D01*
X154064419Y-78601602D01*
X153811116Y-78533730D01*
X153753339Y-78526123D01*
X153551127Y-78499500D01*
X153551120Y-78499500D01*
X153288880Y-78499500D01*
X153288872Y-78499500D01*
X153057772Y-78529926D01*
X153028884Y-78533730D01*
X152775581Y-78601602D01*
X152775571Y-78601605D01*
X152533309Y-78701953D01*
X152533299Y-78701958D01*
X152306196Y-78833075D01*
X152098148Y-78992718D01*
X151912718Y-79178148D01*
X151753075Y-79386196D01*
X151621958Y-79613299D01*
X151621953Y-79613309D01*
X151521605Y-79855571D01*
X151521602Y-79855581D01*
X151453730Y-80108884D01*
X151453716Y-80108990D01*
X151419500Y-80368872D01*
X150340499Y-80368872D01*
X150306270Y-80108884D01*
X150238398Y-79855581D01*
X150190523Y-79740000D01*
X150138046Y-79613309D01*
X150138041Y-79613299D01*
X150006924Y-79386196D01*
X149847281Y-79178148D01*
X149847274Y-79178140D01*
X149661860Y-78992726D01*
X149661851Y-78992718D01*
X149453803Y-78833075D01*
X149226700Y-78701958D01*
X149226690Y-78701953D01*
X148984428Y-78601605D01*
X148984421Y-78601603D01*
X148984419Y-78601602D01*
X148731116Y-78533730D01*
X148673339Y-78526123D01*
X148471127Y-78499500D01*
X148471120Y-78499500D01*
X148208880Y-78499500D01*
X148208872Y-78499500D01*
X147977772Y-78529926D01*
X147948884Y-78533730D01*
X147695581Y-78601602D01*
X147695571Y-78601605D01*
X147453309Y-78701953D01*
X147453299Y-78701958D01*
X147226196Y-78833075D01*
X147018148Y-78992718D01*
X146832718Y-79178148D01*
X146673075Y-79386196D01*
X146541958Y-79613299D01*
X146541953Y-79613309D01*
X146441605Y-79855571D01*
X146441602Y-79855581D01*
X146373730Y-80108884D01*
X146373716Y-80108990D01*
X146339500Y-80368872D01*
X145260499Y-80368872D01*
X145226270Y-80108884D01*
X145158398Y-79855581D01*
X145110523Y-79740000D01*
X145058046Y-79613309D01*
X145058041Y-79613299D01*
X144926924Y-79386196D01*
X144767281Y-79178148D01*
X144767274Y-79178140D01*
X144581860Y-78992726D01*
X144581851Y-78992718D01*
X144373803Y-78833075D01*
X144146700Y-78701958D01*
X144146690Y-78701953D01*
X143904428Y-78601605D01*
X143904421Y-78601603D01*
X143904419Y-78601602D01*
X143651116Y-78533730D01*
X143593339Y-78526123D01*
X143391127Y-78499500D01*
X143391120Y-78499500D01*
X143128880Y-78499500D01*
X143128872Y-78499500D01*
X142897772Y-78529926D01*
X142868884Y-78533730D01*
X142615581Y-78601602D01*
X142615571Y-78601605D01*
X142373309Y-78701953D01*
X142373299Y-78701958D01*
X142146196Y-78833075D01*
X141938148Y-78992718D01*
X141752718Y-79178148D01*
X141593075Y-79386196D01*
X141461958Y-79613299D01*
X141461953Y-79613309D01*
X141361605Y-79855571D01*
X141361602Y-79855581D01*
X141293730Y-80108884D01*
X141293716Y-80108990D01*
X141259500Y-80368872D01*
X140180499Y-80368872D01*
X140146270Y-80108884D01*
X140078398Y-79855581D01*
X140030523Y-79740000D01*
X139978046Y-79613309D01*
X139978041Y-79613299D01*
X139846924Y-79386196D01*
X139687281Y-79178148D01*
X139687274Y-79178140D01*
X139501860Y-78992726D01*
X139501851Y-78992718D01*
X139293803Y-78833075D01*
X139066700Y-78701958D01*
X139066690Y-78701953D01*
X138824428Y-78601605D01*
X138824421Y-78601603D01*
X138824419Y-78601602D01*
X138571116Y-78533730D01*
X138513339Y-78526123D01*
X138311127Y-78499500D01*
X138311120Y-78499500D01*
X138048880Y-78499500D01*
X138048872Y-78499500D01*
X137817772Y-78529926D01*
X137788884Y-78533730D01*
X137535581Y-78601602D01*
X137535571Y-78601605D01*
X137293309Y-78701953D01*
X137293299Y-78701958D01*
X137066196Y-78833075D01*
X136858148Y-78992718D01*
X136672718Y-79178148D01*
X136513075Y-79386196D01*
X136381958Y-79613299D01*
X136381953Y-79613309D01*
X136281605Y-79855571D01*
X136281602Y-79855581D01*
X136213730Y-80108884D01*
X136213716Y-80108990D01*
X136179500Y-80368872D01*
X135099995Y-80368872D01*
X135065779Y-80108990D01*
X135065777Y-80108979D01*
X134997924Y-79855744D01*
X134897595Y-79613528D01*
X134897590Y-79613517D01*
X134766511Y-79386483D01*
X134766505Y-79386475D01*
X134679918Y-79273633D01*
X134679917Y-79273633D01*
X133785231Y-80168320D01*
X133773503Y-80140005D01*
X133690330Y-80015528D01*
X133584472Y-79909670D01*
X133459995Y-79826497D01*
X133431677Y-79814767D01*
X134326365Y-78920080D01*
X134213524Y-78833494D01*
X134213516Y-78833488D01*
X133986482Y-78702409D01*
X133986471Y-78702404D01*
X133744255Y-78602075D01*
X133491020Y-78534222D01*
X133491009Y-78534220D01*
X133231094Y-78500000D01*
X132968905Y-78500000D01*
X132708990Y-78534220D01*
X132708979Y-78534222D01*
X132455744Y-78602075D01*
X132213528Y-78702404D01*
X132213517Y-78702409D01*
X131986471Y-78833496D01*
X131873633Y-78920079D01*
X131873633Y-78920080D01*
X132768321Y-79814768D01*
X132740005Y-79826497D01*
X132615528Y-79909670D01*
X132509670Y-80015528D01*
X132426497Y-80140005D01*
X132414768Y-80168321D01*
X131520080Y-79273633D01*
X131520079Y-79273633D01*
X131433496Y-79386471D01*
X131302409Y-79613517D01*
X131302404Y-79613528D01*
X131202075Y-79855744D01*
X131134222Y-80108979D01*
X131134220Y-80108990D01*
X131100000Y-80368905D01*
X120039999Y-80368905D01*
X120005779Y-80108990D01*
X120005777Y-80108979D01*
X119937924Y-79855744D01*
X119837595Y-79613528D01*
X119837590Y-79613517D01*
X119706511Y-79386483D01*
X119706505Y-79386475D01*
X119619918Y-79273633D01*
X119619917Y-79273633D01*
X118725231Y-80168320D01*
X118713503Y-80140005D01*
X118630330Y-80015528D01*
X118524472Y-79909670D01*
X118399995Y-79826497D01*
X118371677Y-79814767D01*
X119266365Y-78920080D01*
X119153524Y-78833494D01*
X119153516Y-78833488D01*
X118926482Y-78702409D01*
X118926471Y-78702404D01*
X118684255Y-78602075D01*
X118431020Y-78534222D01*
X118431009Y-78534220D01*
X118171094Y-78500000D01*
X117908905Y-78500000D01*
X117648990Y-78534220D01*
X117648979Y-78534222D01*
X117395744Y-78602075D01*
X117153528Y-78702404D01*
X117153517Y-78702409D01*
X116926471Y-78833496D01*
X116813633Y-78920079D01*
X116813633Y-78920080D01*
X117708321Y-79814768D01*
X117680005Y-79826497D01*
X117555528Y-79909670D01*
X117449670Y-80015528D01*
X117366497Y-80140005D01*
X117354768Y-80168321D01*
X116460080Y-79273633D01*
X116460079Y-79273633D01*
X116373496Y-79386471D01*
X116242409Y-79613517D01*
X116242404Y-79613528D01*
X116142075Y-79855744D01*
X116074222Y-80108979D01*
X116074220Y-80108990D01*
X116040000Y-80368905D01*
X114960499Y-80368905D01*
X114960499Y-78952128D01*
X114954091Y-78892517D01*
X114903796Y-78757669D01*
X114903795Y-78757668D01*
X114903793Y-78757664D01*
X114817547Y-78642455D01*
X114817544Y-78642452D01*
X114702335Y-78556206D01*
X114702328Y-78556202D01*
X114567482Y-78505908D01*
X114567483Y-78505908D01*
X114507883Y-78499501D01*
X114507881Y-78499500D01*
X114507873Y-78499500D01*
X114507864Y-78499500D01*
X111412129Y-78499500D01*
X111412123Y-78499501D01*
X111352516Y-78505908D01*
X111217671Y-78556202D01*
X111217664Y-78556206D01*
X111102455Y-78642452D01*
X111102452Y-78642455D01*
X111016206Y-78757664D01*
X111016202Y-78757671D01*
X110965908Y-78892517D01*
X110959501Y-78952116D01*
X110959501Y-78952123D01*
X110959500Y-78952135D01*
X109000500Y-78952135D01*
X109000500Y-74626424D01*
X109020185Y-74559385D01*
X109072989Y-74513630D01*
X109142147Y-74503686D01*
X109205703Y-74532711D01*
X109242431Y-74588106D01*
X109294780Y-74749219D01*
X109380259Y-74916981D01*
X109387715Y-74931613D01*
X109508028Y-75097213D01*
X109652786Y-75241971D01*
X109807749Y-75354556D01*
X109818390Y-75362287D01*
X109934607Y-75421503D01*
X110000776Y-75455218D01*
X110000778Y-75455218D01*
X110000781Y-75455220D01*
X110105137Y-75489127D01*
X110195465Y-75518477D01*
X110296557Y-75534488D01*
X110397648Y-75550500D01*
X110397649Y-75550500D01*
X110602351Y-75550500D01*
X110602352Y-75550500D01*
X110804534Y-75518477D01*
X110999219Y-75455220D01*
X111181610Y-75362287D01*
X111274590Y-75294732D01*
X111347213Y-75241971D01*
X111347215Y-75241968D01*
X111347219Y-75241966D01*
X111491966Y-75097219D01*
X111491968Y-75097215D01*
X111491971Y-75097213D01*
X111612284Y-74931614D01*
X111612285Y-74931613D01*
X111612287Y-74931610D01*
X111658965Y-74840000D01*
X117824638Y-74840000D01*
X117829548Y-74871002D01*
X117887914Y-75050637D01*
X117973670Y-75218940D01*
X118084685Y-75371741D01*
X118084689Y-75371746D01*
X118218253Y-75505310D01*
X118218258Y-75505314D01*
X118371059Y-75616329D01*
X118539362Y-75702085D01*
X118718997Y-75760451D01*
X118750000Y-75765362D01*
X118750000Y-74840000D01*
X117824638Y-74840000D01*
X111658965Y-74840000D01*
X111705220Y-74749219D01*
X111768477Y-74554534D01*
X111770158Y-74543922D01*
X118650000Y-74543922D01*
X118650000Y-74636078D01*
X118673852Y-74725095D01*
X118719930Y-74804905D01*
X118785095Y-74870070D01*
X118864905Y-74916148D01*
X118953922Y-74940000D01*
X119046078Y-74940000D01*
X119135095Y-74916148D01*
X119214905Y-74870070D01*
X119250000Y-74834975D01*
X119250000Y-75765361D01*
X119281002Y-75760451D01*
X119460637Y-75702085D01*
X119628940Y-75616329D01*
X119781741Y-75505314D01*
X119781746Y-75505310D01*
X119915310Y-75371746D01*
X119915314Y-75371741D01*
X120026329Y-75218940D01*
X120112083Y-75050641D01*
X120131805Y-74989942D01*
X120171242Y-74932267D01*
X120235600Y-74905067D01*
X120304447Y-74916981D01*
X120355923Y-74964224D01*
X120367667Y-74989938D01*
X120368326Y-74991966D01*
X120387454Y-75050836D01*
X120454089Y-75181613D01*
X120473240Y-75219199D01*
X120584310Y-75372073D01*
X120717927Y-75505690D01*
X120870801Y-75616760D01*
X120950347Y-75657290D01*
X121039163Y-75702545D01*
X121039165Y-75702545D01*
X121039168Y-75702547D01*
X121135497Y-75733846D01*
X121218881Y-75760940D01*
X121405514Y-75790500D01*
X121405519Y-75790500D01*
X121594486Y-75790500D01*
X121781118Y-75760940D01*
X121782623Y-75760451D01*
X121960832Y-75702547D01*
X122129199Y-75616760D01*
X122282073Y-75505690D01*
X122415690Y-75372073D01*
X122526760Y-75219199D01*
X122612547Y-75050832D01*
X122670940Y-74871118D01*
X122674726Y-74847213D01*
X122700500Y-74684486D01*
X122700500Y-74495513D01*
X122670940Y-74308881D01*
X122643846Y-74225497D01*
X122612547Y-74129168D01*
X122612545Y-74129165D01*
X122612545Y-74129163D01*
X122547128Y-74000776D01*
X122526760Y-73960801D01*
X122480876Y-73897648D01*
X127309500Y-73897648D01*
X127309500Y-74102351D01*
X127341522Y-74304534D01*
X127404781Y-74499223D01*
X127427557Y-74543922D01*
X127497578Y-74681346D01*
X127497715Y-74681613D01*
X127618028Y-74847213D01*
X127762786Y-74991971D01*
X127917749Y-75104556D01*
X127928390Y-75112287D01*
X128044607Y-75171503D01*
X128110776Y-75205218D01*
X128110778Y-75205218D01*
X128110781Y-75205220D01*
X128215137Y-75239127D01*
X128305465Y-75268477D01*
X128406557Y-75284488D01*
X128507648Y-75300500D01*
X128507649Y-75300500D01*
X128712351Y-75300500D01*
X128712352Y-75300500D01*
X128914534Y-75268477D01*
X129109219Y-75205220D01*
X129291610Y-75112287D01*
X129447231Y-74999223D01*
X129457213Y-74991971D01*
X129457215Y-74991968D01*
X129457219Y-74991966D01*
X129601966Y-74847219D01*
X129601968Y-74847215D01*
X129601971Y-74847213D01*
X129673165Y-74749221D01*
X129722287Y-74681610D01*
X129815220Y-74499219D01*
X129878477Y-74304534D01*
X129910500Y-74102352D01*
X129910500Y-73897648D01*
X129887114Y-73750000D01*
X134833391Y-73750000D01*
X135794314Y-73750000D01*
X135789920Y-73754394D01*
X135737259Y-73845606D01*
X135710000Y-73947339D01*
X135710000Y-74052661D01*
X135737259Y-74154394D01*
X135789920Y-74245606D01*
X135794314Y-74250000D01*
X134833391Y-74250000D01*
X134842009Y-74304413D01*
X134905244Y-74499029D01*
X134998140Y-74681349D01*
X135118417Y-74846894D01*
X135118417Y-74846895D01*
X135263104Y-74991582D01*
X135428650Y-75111859D01*
X135610968Y-75204754D01*
X135805578Y-75267988D01*
X135860000Y-75276607D01*
X135860000Y-74315686D01*
X135864394Y-74320080D01*
X135955606Y-74372741D01*
X136057339Y-74400000D01*
X136162661Y-74400000D01*
X136264394Y-74372741D01*
X136355606Y-74320080D01*
X136360000Y-74315686D01*
X136360000Y-75276606D01*
X136414421Y-75267988D01*
X136609031Y-75204754D01*
X136791349Y-75111859D01*
X136956894Y-74991582D01*
X136956895Y-74991582D01*
X137101582Y-74846895D01*
X137101582Y-74846894D01*
X137221861Y-74681346D01*
X137234450Y-74656641D01*
X137234450Y-74656640D01*
X137314754Y-74499032D01*
X137360438Y-74358432D01*
X137384680Y-74262173D01*
X137386609Y-74250000D01*
X147473391Y-74250000D01*
X148434314Y-74250000D01*
X148429920Y-74254394D01*
X148377259Y-74345606D01*
X148350000Y-74447339D01*
X148350000Y-74552661D01*
X148377259Y-74654394D01*
X148429920Y-74745606D01*
X148434314Y-74750000D01*
X147473391Y-74750000D01*
X147482009Y-74804413D01*
X147545244Y-74999029D01*
X147638140Y-75181349D01*
X147758417Y-75346894D01*
X147758417Y-75346895D01*
X147903104Y-75491582D01*
X148068650Y-75611859D01*
X148250968Y-75704754D01*
X148445578Y-75767988D01*
X148500000Y-75776607D01*
X148500000Y-74815686D01*
X148504394Y-74820080D01*
X148595606Y-74872741D01*
X148697339Y-74900000D01*
X148802661Y-74900000D01*
X148904394Y-74872741D01*
X148995606Y-74820080D01*
X149000000Y-74815686D01*
X149000000Y-75776606D01*
X149054421Y-75767988D01*
X149249031Y-75704754D01*
X149431349Y-75611859D01*
X149596894Y-75491582D01*
X149596895Y-75491582D01*
X149741582Y-75346895D01*
X149741582Y-75346894D01*
X149861859Y-75181349D01*
X149954755Y-74999029D01*
X150017990Y-74804413D01*
X150026609Y-74750000D01*
X149065686Y-74750000D01*
X149070080Y-74745606D01*
X149122741Y-74654394D01*
X149150000Y-74552661D01*
X149150000Y-74447339D01*
X149136685Y-74397648D01*
X154949500Y-74397648D01*
X154949500Y-74602351D01*
X154981522Y-74804534D01*
X155044781Y-74999223D01*
X155137715Y-75181613D01*
X155258028Y-75347213D01*
X155402786Y-75491971D01*
X155557749Y-75604556D01*
X155568390Y-75612287D01*
X155684607Y-75671503D01*
X155750776Y-75705218D01*
X155750778Y-75705218D01*
X155750781Y-75705220D01*
X155855137Y-75739127D01*
X155945465Y-75768477D01*
X156046557Y-75784488D01*
X156147648Y-75800500D01*
X156147649Y-75800500D01*
X156352351Y-75800500D01*
X156352352Y-75800500D01*
X156554534Y-75768477D01*
X156749219Y-75705220D01*
X156931610Y-75612287D01*
X157024590Y-75544732D01*
X157097213Y-75491971D01*
X157097215Y-75491968D01*
X157097219Y-75491966D01*
X157241966Y-75347219D01*
X157241968Y-75347215D01*
X157241971Y-75347213D01*
X157299530Y-75267988D01*
X157362287Y-75181610D01*
X157455220Y-74999219D01*
X157518477Y-74804534D01*
X157550500Y-74602352D01*
X157550500Y-74397648D01*
X157536441Y-74308882D01*
X157518477Y-74195465D01*
X157455218Y-74000776D01*
X157409930Y-73911894D01*
X157362287Y-73818390D01*
X157313163Y-73750776D01*
X157241971Y-73652786D01*
X157097213Y-73508028D01*
X156931613Y-73387715D01*
X156931612Y-73387714D01*
X156931610Y-73387713D01*
X156874653Y-73358691D01*
X156749223Y-73294781D01*
X156554534Y-73231522D01*
X156379995Y-73203878D01*
X156352352Y-73199500D01*
X156147648Y-73199500D01*
X156123329Y-73203351D01*
X155945465Y-73231522D01*
X155750776Y-73294781D01*
X155568386Y-73387715D01*
X155402786Y-73508028D01*
X155258028Y-73652786D01*
X155137715Y-73818386D01*
X155044781Y-74000776D01*
X154981522Y-74195465D01*
X154949500Y-74397648D01*
X149136685Y-74397648D01*
X149122741Y-74345606D01*
X149070080Y-74254394D01*
X149065686Y-74250000D01*
X150026609Y-74250000D01*
X150017990Y-74195586D01*
X149954755Y-74000970D01*
X149861859Y-73818650D01*
X149741582Y-73653105D01*
X149741582Y-73653104D01*
X149596895Y-73508417D01*
X149431349Y-73388140D01*
X149249029Y-73295244D01*
X149054413Y-73232009D01*
X149000000Y-73223390D01*
X149000000Y-74184314D01*
X148995606Y-74179920D01*
X148904394Y-74127259D01*
X148802661Y-74100000D01*
X148697339Y-74100000D01*
X148595606Y-74127259D01*
X148504394Y-74179920D01*
X148500000Y-74184314D01*
X148500000Y-73223390D01*
X148445586Y-73232009D01*
X148250970Y-73295244D01*
X148068650Y-73388140D01*
X147903105Y-73508417D01*
X147903104Y-73508417D01*
X147758417Y-73653104D01*
X147758417Y-73653105D01*
X147638140Y-73818650D01*
X147545244Y-74000970D01*
X147482009Y-74195586D01*
X147473391Y-74250000D01*
X137386609Y-74250000D01*
X136425686Y-74250000D01*
X136430080Y-74245606D01*
X136482741Y-74154394D01*
X136510000Y-74052661D01*
X136510000Y-73947339D01*
X136482741Y-73845606D01*
X136430080Y-73754394D01*
X136425686Y-73750000D01*
X137386609Y-73750000D01*
X137377990Y-73695586D01*
X137314755Y-73500970D01*
X137221859Y-73318650D01*
X137101582Y-73153105D01*
X137101582Y-73153104D01*
X136956895Y-73008417D01*
X136791349Y-72888140D01*
X136609029Y-72795244D01*
X136414413Y-72732009D01*
X136360000Y-72723390D01*
X136360000Y-73684314D01*
X136355606Y-73679920D01*
X136264394Y-73627259D01*
X136162661Y-73600000D01*
X136057339Y-73600000D01*
X135955606Y-73627259D01*
X135864394Y-73679920D01*
X135860000Y-73684314D01*
X135860000Y-72723390D01*
X135805586Y-72732009D01*
X135610970Y-72795244D01*
X135428650Y-72888140D01*
X135263105Y-73008417D01*
X135263104Y-73008417D01*
X135118417Y-73153104D01*
X135118417Y-73153105D01*
X134998140Y-73318650D01*
X134905244Y-73500970D01*
X134842009Y-73695586D01*
X134833391Y-73750000D01*
X129887114Y-73750000D01*
X129878477Y-73695466D01*
X129815220Y-73500781D01*
X129815218Y-73500778D01*
X129815218Y-73500776D01*
X129757610Y-73387715D01*
X129722287Y-73318390D01*
X129705134Y-73294781D01*
X129601971Y-73152786D01*
X129457213Y-73008028D01*
X129291613Y-72887715D01*
X129291612Y-72887714D01*
X129291610Y-72887713D01*
X129234653Y-72858691D01*
X129109223Y-72794781D01*
X128914534Y-72731522D01*
X128739995Y-72703878D01*
X128712352Y-72699500D01*
X128507648Y-72699500D01*
X128483329Y-72703351D01*
X128305465Y-72731522D01*
X128110776Y-72794781D01*
X127928386Y-72887715D01*
X127762786Y-73008028D01*
X127618028Y-73152786D01*
X127497715Y-73318386D01*
X127404781Y-73500776D01*
X127341522Y-73695465D01*
X127309500Y-73897648D01*
X122480876Y-73897648D01*
X122415690Y-73807927D01*
X122282073Y-73674310D01*
X122129199Y-73563240D01*
X121960836Y-73477454D01*
X121781118Y-73419059D01*
X121594486Y-73389500D01*
X121594481Y-73389500D01*
X121405519Y-73389500D01*
X121405514Y-73389500D01*
X121218881Y-73419059D01*
X121039163Y-73477454D01*
X120870800Y-73563240D01*
X120820205Y-73600000D01*
X120717927Y-73674310D01*
X120717925Y-73674312D01*
X120717924Y-73674312D01*
X120584312Y-73807924D01*
X120584312Y-73807925D01*
X120584310Y-73807927D01*
X120536614Y-73873575D01*
X120473240Y-73960800D01*
X120387452Y-74129167D01*
X120367667Y-74190060D01*
X120328229Y-74247735D01*
X120263870Y-74274932D01*
X120195024Y-74263017D01*
X120143549Y-74215772D01*
X120131806Y-74190057D01*
X120112086Y-74129364D01*
X120026329Y-73961059D01*
X119915314Y-73808258D01*
X119915310Y-73808253D01*
X119781746Y-73674689D01*
X119781741Y-73674685D01*
X119628940Y-73563670D01*
X119460635Y-73477913D01*
X119281004Y-73419549D01*
X119280995Y-73419547D01*
X119250000Y-73414637D01*
X119250000Y-74345025D01*
X119214905Y-74309930D01*
X119135095Y-74263852D01*
X119046078Y-74240000D01*
X118953922Y-74240000D01*
X118864905Y-74263852D01*
X118785095Y-74309930D01*
X118719930Y-74375095D01*
X118673852Y-74454905D01*
X118650000Y-74543922D01*
X111770158Y-74543922D01*
X111800500Y-74352352D01*
X111800500Y-74340000D01*
X117824638Y-74340000D01*
X118750000Y-74340000D01*
X118750000Y-73414637D01*
X118749999Y-73414637D01*
X118719004Y-73419547D01*
X118718995Y-73419549D01*
X118539364Y-73477913D01*
X118371059Y-73563670D01*
X118218258Y-73674685D01*
X118218253Y-73674689D01*
X118084689Y-73808253D01*
X118084685Y-73808258D01*
X117973670Y-73961059D01*
X117887914Y-74129362D01*
X117829548Y-74308997D01*
X117824638Y-74340000D01*
X111800500Y-74340000D01*
X111800500Y-74147648D01*
X111777237Y-74000776D01*
X111768477Y-73945465D01*
X111739127Y-73855137D01*
X111705220Y-73750781D01*
X111705218Y-73750778D01*
X111705218Y-73750776D01*
X111666256Y-73674310D01*
X111612287Y-73568390D01*
X111604556Y-73557749D01*
X111491971Y-73402786D01*
X111347213Y-73258028D01*
X111181613Y-73137715D01*
X111181612Y-73137714D01*
X111181610Y-73137713D01*
X111124653Y-73108691D01*
X110999223Y-73044781D01*
X110804534Y-72981522D01*
X110629995Y-72953878D01*
X110602352Y-72949500D01*
X110397648Y-72949500D01*
X110373329Y-72953351D01*
X110195465Y-72981522D01*
X110000776Y-73044781D01*
X109818386Y-73137715D01*
X109652786Y-73258028D01*
X109508028Y-73402786D01*
X109387715Y-73568386D01*
X109294781Y-73750776D01*
X109242431Y-73911894D01*
X109202993Y-73969569D01*
X109138634Y-73996767D01*
X109069788Y-73984852D01*
X109018312Y-73937608D01*
X109000500Y-73873575D01*
X109000500Y-70452135D01*
X112724500Y-70452135D01*
X112724500Y-72047870D01*
X112724501Y-72047876D01*
X112730908Y-72107483D01*
X112781202Y-72242328D01*
X112781206Y-72242335D01*
X112867452Y-72357544D01*
X112867455Y-72357547D01*
X112982664Y-72443793D01*
X112982671Y-72443797D01*
X113117517Y-72494091D01*
X113117516Y-72494091D01*
X113124444Y-72494835D01*
X113177127Y-72500500D01*
X114322872Y-72500499D01*
X114382483Y-72494091D01*
X114450987Y-72468540D01*
X114520679Y-72463554D01*
X114533325Y-72467014D01*
X114602158Y-72489824D01*
X114706659Y-72500500D01*
X115333340Y-72500499D01*
X115333348Y-72500498D01*
X115333351Y-72500498D01*
X115390572Y-72494652D01*
X115437842Y-72489824D01*
X115607153Y-72433720D01*
X115607153Y-72433719D01*
X115614009Y-72431448D01*
X115614850Y-72433988D01*
X115671650Y-72425350D01*
X115695674Y-72432404D01*
X115695991Y-72431448D01*
X115702846Y-72433719D01*
X115702847Y-72433720D01*
X115872158Y-72489824D01*
X115976659Y-72500500D01*
X116603340Y-72500499D01*
X116603348Y-72500498D01*
X116603351Y-72500498D01*
X116660572Y-72494652D01*
X116707842Y-72489824D01*
X116877153Y-72433720D01*
X117028961Y-72340083D01*
X117155083Y-72213961D01*
X117248720Y-72062153D01*
X117304824Y-71892842D01*
X117315500Y-71788341D01*
X117315499Y-70711660D01*
X117304824Y-70607158D01*
X117248720Y-70437847D01*
X117248716Y-70437841D01*
X117248715Y-70437838D01*
X117155085Y-70286042D01*
X117155082Y-70286038D01*
X117028961Y-70159917D01*
X117028957Y-70159914D01*
X116877161Y-70066284D01*
X116877155Y-70066281D01*
X116877153Y-70066280D01*
X116707842Y-70010176D01*
X116707835Y-70010175D01*
X116603342Y-69999500D01*
X115976666Y-69999500D01*
X115976648Y-69999501D01*
X115872158Y-70010175D01*
X115872155Y-70010176D01*
X115767066Y-70045000D01*
X115702847Y-70066280D01*
X115702845Y-70066280D01*
X115695992Y-70068552D01*
X115695154Y-70066024D01*
X115638275Y-70074639D01*
X115614321Y-70067605D01*
X115614008Y-70068552D01*
X115607154Y-70066281D01*
X115607153Y-70066280D01*
X115437842Y-70010176D01*
X115437835Y-70010175D01*
X115333342Y-69999500D01*
X114706666Y-69999500D01*
X114706648Y-69999501D01*
X114602158Y-70010175D01*
X114602152Y-70010177D01*
X114533325Y-70032984D01*
X114463497Y-70035386D01*
X114450988Y-70031460D01*
X114382484Y-70005909D01*
X114382480Y-70005908D01*
X114322883Y-69999501D01*
X114322881Y-69999500D01*
X114322873Y-69999500D01*
X114322864Y-69999500D01*
X113177129Y-69999500D01*
X113177123Y-69999501D01*
X113117516Y-70005908D01*
X112982671Y-70056202D01*
X112982664Y-70056206D01*
X112867455Y-70142452D01*
X112867452Y-70142455D01*
X112781206Y-70257664D01*
X112781202Y-70257671D01*
X112730908Y-70392517D01*
X112724501Y-70452116D01*
X112724500Y-70452135D01*
X109000500Y-70452135D01*
X109000500Y-69415513D01*
X117799500Y-69415513D01*
X117799500Y-69604486D01*
X117829059Y-69791118D01*
X117887454Y-69970836D01*
X117940345Y-70074639D01*
X117973240Y-70139199D01*
X118084310Y-70292073D01*
X118217927Y-70425690D01*
X118370801Y-70536760D01*
X118450347Y-70577290D01*
X118539163Y-70622545D01*
X118539165Y-70622545D01*
X118539168Y-70622547D01*
X118635497Y-70653846D01*
X118718881Y-70680940D01*
X118905514Y-70710500D01*
X118905519Y-70710500D01*
X119094486Y-70710500D01*
X119281118Y-70680940D01*
X119321740Y-70667741D01*
X119460832Y-70622547D01*
X119629199Y-70536760D01*
X119782073Y-70425690D01*
X119915690Y-70292073D01*
X120026760Y-70139199D01*
X120112547Y-69970832D01*
X120132069Y-69910748D01*
X120171507Y-69853073D01*
X120235865Y-69825875D01*
X120304712Y-69837790D01*
X120356187Y-69885034D01*
X120367930Y-69910746D01*
X120387453Y-69970832D01*
X120473240Y-70139199D01*
X120584310Y-70292073D01*
X120717927Y-70425690D01*
X120870801Y-70536760D01*
X120950347Y-70577290D01*
X121039163Y-70622545D01*
X121039165Y-70622545D01*
X121039168Y-70622547D01*
X121135497Y-70653846D01*
X121218881Y-70680940D01*
X121405514Y-70710500D01*
X121405519Y-70710500D01*
X121594486Y-70710500D01*
X121781118Y-70680940D01*
X121821740Y-70667741D01*
X121960832Y-70622547D01*
X122129199Y-70536760D01*
X122282073Y-70425690D01*
X122415690Y-70292073D01*
X122526760Y-70139199D01*
X122612547Y-69970832D01*
X122670940Y-69791118D01*
X122685249Y-69700776D01*
X122700500Y-69604486D01*
X122700500Y-69415513D01*
X122670940Y-69228881D01*
X122612545Y-69049163D01*
X122539553Y-68905909D01*
X122526760Y-68880801D01*
X122415690Y-68727927D01*
X122282073Y-68594310D01*
X122129199Y-68483240D01*
X121960836Y-68397454D01*
X121781118Y-68339059D01*
X121594486Y-68309500D01*
X121594481Y-68309500D01*
X121405519Y-68309500D01*
X121405514Y-68309500D01*
X121218881Y-68339059D01*
X121039163Y-68397454D01*
X120870800Y-68483240D01*
X120783579Y-68546610D01*
X120717927Y-68594310D01*
X120717925Y-68594312D01*
X120717924Y-68594312D01*
X120584312Y-68727924D01*
X120584312Y-68727925D01*
X120584310Y-68727927D01*
X120544504Y-68782715D01*
X120473240Y-68880800D01*
X120387454Y-69049163D01*
X120367931Y-69109251D01*
X120328493Y-69166926D01*
X120264134Y-69194124D01*
X120195288Y-69182209D01*
X120143812Y-69134965D01*
X120132069Y-69109251D01*
X120112545Y-69049163D01*
X120039553Y-68905909D01*
X120026760Y-68880801D01*
X119915690Y-68727927D01*
X119782073Y-68594310D01*
X119629199Y-68483240D01*
X119460836Y-68397454D01*
X119281118Y-68339059D01*
X119094486Y-68309500D01*
X119094481Y-68309500D01*
X118905519Y-68309500D01*
X118905514Y-68309500D01*
X118718881Y-68339059D01*
X118539163Y-68397454D01*
X118370800Y-68483240D01*
X118283579Y-68546610D01*
X118217927Y-68594310D01*
X118217925Y-68594312D01*
X118217924Y-68594312D01*
X118084312Y-68727924D01*
X118084312Y-68727925D01*
X118084310Y-68727927D01*
X118044504Y-68782715D01*
X117973240Y-68880800D01*
X117887454Y-69049163D01*
X117829059Y-69228881D01*
X117799500Y-69415513D01*
X109000500Y-69415513D01*
X109000500Y-67124808D01*
X109020185Y-67057769D01*
X109072989Y-67012014D01*
X109142147Y-67002070D01*
X109205703Y-67031095D01*
X109242431Y-67086489D01*
X109295245Y-67249031D01*
X109388140Y-67431349D01*
X109508417Y-67596894D01*
X109508417Y-67596895D01*
X109653104Y-67741582D01*
X109818650Y-67861859D01*
X110000968Y-67954754D01*
X110195578Y-68017988D01*
X110250000Y-68026607D01*
X110250000Y-67065686D01*
X110254394Y-67070080D01*
X110345606Y-67122741D01*
X110447339Y-67150000D01*
X110552661Y-67150000D01*
X110654394Y-67122741D01*
X110745606Y-67070080D01*
X110750000Y-67065686D01*
X110750000Y-68026606D01*
X110804421Y-68017988D01*
X110999031Y-67954754D01*
X111181349Y-67861859D01*
X111346894Y-67741582D01*
X111346895Y-67741582D01*
X111491582Y-67596895D01*
X111491582Y-67596894D01*
X111611859Y-67431349D01*
X111704755Y-67249029D01*
X111767990Y-67054413D01*
X111776609Y-67000000D01*
X110815686Y-67000000D01*
X110820080Y-66995606D01*
X110872741Y-66904394D01*
X110900000Y-66802661D01*
X110900000Y-66697339D01*
X110872741Y-66595606D01*
X110820080Y-66504394D01*
X110815686Y-66500000D01*
X111776609Y-66500000D01*
X111767990Y-66445586D01*
X111704755Y-66250970D01*
X111611857Y-66068647D01*
X111537036Y-65965664D01*
X111537034Y-65965662D01*
X111491583Y-65903105D01*
X111486126Y-65897648D01*
X113949500Y-65897648D01*
X113949500Y-66102351D01*
X113981522Y-66304534D01*
X114044781Y-66499223D01*
X114137715Y-66681613D01*
X114258028Y-66847213D01*
X114402786Y-66991971D01*
X114532882Y-67086489D01*
X114568390Y-67112287D01*
X114663555Y-67160776D01*
X114750776Y-67205218D01*
X114750778Y-67205218D01*
X114750781Y-67205220D01*
X114855137Y-67239127D01*
X114945465Y-67268477D01*
X115046557Y-67284488D01*
X115147648Y-67300500D01*
X115147649Y-67300500D01*
X115352351Y-67300500D01*
X115352352Y-67300500D01*
X115554534Y-67268477D01*
X115749219Y-67205220D01*
X115931610Y-67112287D01*
X116043362Y-67031095D01*
X116097213Y-66991971D01*
X116097215Y-66991968D01*
X116097219Y-66991966D01*
X116241966Y-66847219D01*
X116241968Y-66847215D01*
X116241971Y-66847213D01*
X116350859Y-66697339D01*
X116362287Y-66681610D01*
X116455220Y-66499219D01*
X116518477Y-66304534D01*
X116550500Y-66102352D01*
X116550500Y-65897648D01*
X116527114Y-65750000D01*
X121473391Y-65750000D01*
X122434314Y-65750000D01*
X122429920Y-65754394D01*
X122377259Y-65845606D01*
X122350000Y-65947339D01*
X122350000Y-66052661D01*
X122377259Y-66154394D01*
X122429920Y-66245606D01*
X122434314Y-66250000D01*
X121473391Y-66250000D01*
X121482009Y-66304413D01*
X121545244Y-66499029D01*
X121638140Y-66681349D01*
X121758417Y-66846894D01*
X121758417Y-66846895D01*
X121903104Y-66991582D01*
X122068650Y-67111859D01*
X122250968Y-67204754D01*
X122445578Y-67267988D01*
X122500000Y-67276607D01*
X122500000Y-66315686D01*
X122504394Y-66320080D01*
X122595606Y-66372741D01*
X122697339Y-66400000D01*
X122802661Y-66400000D01*
X122904394Y-66372741D01*
X122995606Y-66320080D01*
X123000000Y-66315686D01*
X123000000Y-67276606D01*
X123054421Y-67267988D01*
X123249031Y-67204754D01*
X123431349Y-67111859D01*
X123596894Y-66991582D01*
X123596895Y-66991582D01*
X123741582Y-66846895D01*
X123741582Y-66846894D01*
X123861859Y-66681349D01*
X123954755Y-66499029D01*
X124017990Y-66304413D01*
X124026609Y-66250000D01*
X123065686Y-66250000D01*
X123070080Y-66245606D01*
X123122741Y-66154394D01*
X123150000Y-66052661D01*
X123150000Y-65947339D01*
X123122741Y-65845606D01*
X123070080Y-65754394D01*
X123065686Y-65750000D01*
X124026609Y-65750000D01*
X124017990Y-65695586D01*
X123954755Y-65500970D01*
X123861859Y-65318650D01*
X123741582Y-65153105D01*
X123741582Y-65153104D01*
X123596895Y-65008417D01*
X123431349Y-64888140D01*
X123249029Y-64795244D01*
X123054413Y-64732009D01*
X123000000Y-64723390D01*
X123000000Y-65684314D01*
X122995606Y-65679920D01*
X122904394Y-65627259D01*
X122802661Y-65600000D01*
X122697339Y-65600000D01*
X122595606Y-65627259D01*
X122504394Y-65679920D01*
X122500000Y-65684314D01*
X122500000Y-64723390D01*
X122445586Y-64732009D01*
X122250970Y-64795244D01*
X122068650Y-64888140D01*
X121903105Y-65008417D01*
X121903104Y-65008417D01*
X121758417Y-65153104D01*
X121758417Y-65153105D01*
X121638140Y-65318650D01*
X121545244Y-65500970D01*
X121482009Y-65695586D01*
X121473391Y-65750000D01*
X116527114Y-65750000D01*
X116518477Y-65695466D01*
X116455220Y-65500781D01*
X116455218Y-65500778D01*
X116455218Y-65500776D01*
X116362419Y-65318650D01*
X116362287Y-65318390D01*
X116354556Y-65307749D01*
X116241971Y-65152786D01*
X116097213Y-65008028D01*
X115931613Y-64887715D01*
X115931612Y-64887714D01*
X115931610Y-64887713D01*
X115874653Y-64858691D01*
X115749223Y-64794781D01*
X115554534Y-64731522D01*
X115379995Y-64703878D01*
X115352352Y-64699500D01*
X115147648Y-64699500D01*
X115123329Y-64703351D01*
X114945465Y-64731522D01*
X114750776Y-64794781D01*
X114568386Y-64887715D01*
X114402786Y-65008028D01*
X114258028Y-65152786D01*
X114137715Y-65318386D01*
X114044781Y-65500776D01*
X113981522Y-65695465D01*
X113949500Y-65897648D01*
X111486126Y-65897648D01*
X111346895Y-65758417D01*
X111181349Y-65638140D01*
X110999029Y-65545244D01*
X110804413Y-65482009D01*
X110750000Y-65473390D01*
X110750000Y-66434314D01*
X110745606Y-66429920D01*
X110654394Y-66377259D01*
X110552661Y-66350000D01*
X110447339Y-66350000D01*
X110345606Y-66377259D01*
X110254394Y-66429920D01*
X110250000Y-66434314D01*
X110250000Y-65473390D01*
X110195586Y-65482009D01*
X110000970Y-65545244D01*
X109818650Y-65638140D01*
X109653105Y-65758417D01*
X109653104Y-65758417D01*
X109508417Y-65903104D01*
X109508417Y-65903105D01*
X109388140Y-66068650D01*
X109295244Y-66250968D01*
X109242431Y-66413510D01*
X109202993Y-66471185D01*
X109138634Y-66498383D01*
X109069788Y-66486468D01*
X109018312Y-66439224D01*
X109000500Y-66375191D01*
X109000500Y-62405513D01*
X113659500Y-62405513D01*
X113659500Y-62594486D01*
X113689059Y-62781118D01*
X113747454Y-62960836D01*
X113791735Y-63047741D01*
X113833240Y-63129199D01*
X113944310Y-63282073D01*
X114077927Y-63415690D01*
X114230801Y-63526760D01*
X114310347Y-63567290D01*
X114399163Y-63612545D01*
X114399165Y-63612545D01*
X114399168Y-63612547D01*
X114495497Y-63643846D01*
X114578881Y-63670940D01*
X114765514Y-63700500D01*
X114765519Y-63700500D01*
X114954486Y-63700500D01*
X115141118Y-63670940D01*
X115164419Y-63663369D01*
X115320832Y-63612547D01*
X115321859Y-63612024D01*
X115353741Y-63595779D01*
X115489199Y-63526760D01*
X115642073Y-63415690D01*
X115775690Y-63282073D01*
X115886760Y-63129199D01*
X115972547Y-62960832D01*
X116030940Y-62781118D01*
X116046583Y-62682351D01*
X116060500Y-62594486D01*
X116060500Y-62405513D01*
X116030940Y-62218881D01*
X115972545Y-62039163D01*
X115886759Y-61870800D01*
X115775690Y-61717927D01*
X115642073Y-61584310D01*
X115489199Y-61473240D01*
X115471202Y-61464070D01*
X115320836Y-61387454D01*
X115141118Y-61329059D01*
X114954486Y-61299500D01*
X114954481Y-61299500D01*
X114765519Y-61299500D01*
X114765514Y-61299500D01*
X114578881Y-61329059D01*
X114399163Y-61387454D01*
X114230800Y-61473240D01*
X114181803Y-61508839D01*
X114077927Y-61584310D01*
X114077925Y-61584312D01*
X114077924Y-61584312D01*
X113944312Y-61717924D01*
X113944312Y-61717925D01*
X113944310Y-61717927D01*
X113917542Y-61754770D01*
X113833240Y-61870800D01*
X113747454Y-62039163D01*
X113689059Y-62218881D01*
X113659500Y-62405513D01*
X109000500Y-62405513D01*
X109000500Y-60250000D01*
X118594638Y-60250000D01*
X118599548Y-60281002D01*
X118657914Y-60460637D01*
X118743670Y-60628940D01*
X118854685Y-60781741D01*
X118854689Y-60781746D01*
X118988253Y-60915310D01*
X118988258Y-60915314D01*
X119141059Y-61026329D01*
X119309362Y-61112085D01*
X119488997Y-61170451D01*
X119520000Y-61175362D01*
X119520000Y-61175361D01*
X120020000Y-61175361D01*
X120051002Y-61170451D01*
X120230637Y-61112085D01*
X120398940Y-61026329D01*
X120551741Y-60915314D01*
X120551746Y-60915310D01*
X120685310Y-60781746D01*
X120685314Y-60781741D01*
X120796329Y-60628940D01*
X120882085Y-60460637D01*
X120940451Y-60281002D01*
X120945362Y-60250000D01*
X120020000Y-60250000D01*
X120020000Y-61175361D01*
X119520000Y-61175361D01*
X119520000Y-60250000D01*
X118594638Y-60250000D01*
X109000500Y-60250000D01*
X109000500Y-59953922D01*
X119420000Y-59953922D01*
X119420000Y-60046078D01*
X119443852Y-60135095D01*
X119489930Y-60214905D01*
X119555095Y-60280070D01*
X119634905Y-60326148D01*
X119723922Y-60350000D01*
X119816078Y-60350000D01*
X119905095Y-60326148D01*
X119984905Y-60280070D01*
X120050070Y-60214905D01*
X120096148Y-60135095D01*
X120120000Y-60046078D01*
X120120000Y-59953922D01*
X120107029Y-59905513D01*
X123649500Y-59905513D01*
X123649500Y-60094486D01*
X123679059Y-60281118D01*
X123737454Y-60460836D01*
X123823108Y-60628940D01*
X123823240Y-60629199D01*
X123934310Y-60782073D01*
X124067927Y-60915690D01*
X124220801Y-61026760D01*
X124300347Y-61067290D01*
X124389163Y-61112545D01*
X124389165Y-61112545D01*
X124389168Y-61112547D01*
X124485497Y-61143846D01*
X124568881Y-61170940D01*
X124755514Y-61200500D01*
X124755519Y-61200500D01*
X124944486Y-61200500D01*
X125131118Y-61170940D01*
X125132623Y-61170451D01*
X125310832Y-61112547D01*
X125479199Y-61026760D01*
X125632073Y-60915690D01*
X125765690Y-60782073D01*
X125876760Y-60629199D01*
X125962547Y-60460832D01*
X126020940Y-60281118D01*
X126034676Y-60194394D01*
X126050500Y-60094486D01*
X126050500Y-59905513D01*
X126020940Y-59718881D01*
X125993846Y-59635497D01*
X125962547Y-59539168D01*
X125962545Y-59539165D01*
X125962545Y-59539163D01*
X125876759Y-59370800D01*
X125765690Y-59217927D01*
X125632073Y-59084310D01*
X125479199Y-58973240D01*
X125310835Y-58887454D01*
X125255748Y-58869555D01*
X125198073Y-58830116D01*
X125170875Y-58765757D01*
X125182790Y-58696911D01*
X125230035Y-58645436D01*
X125255745Y-58633694D01*
X125320832Y-58612547D01*
X125489199Y-58526760D01*
X125642073Y-58415690D01*
X125775690Y-58282073D01*
X125886760Y-58129199D01*
X125972547Y-57960832D01*
X126030940Y-57781118D01*
X126043611Y-57701118D01*
X126060500Y-57594486D01*
X126060500Y-57405513D01*
X126030940Y-57218881D01*
X125972545Y-57039163D01*
X125886759Y-56870800D01*
X125775690Y-56717927D01*
X125642073Y-56584310D01*
X125489199Y-56473240D01*
X125320836Y-56387454D01*
X125141118Y-56329059D01*
X124954486Y-56299500D01*
X124954481Y-56299500D01*
X124765519Y-56299500D01*
X124765514Y-56299500D01*
X124578881Y-56329059D01*
X124399163Y-56387454D01*
X124230800Y-56473240D01*
X124182911Y-56508034D01*
X124077927Y-56584310D01*
X124077925Y-56584312D01*
X124077924Y-56584312D01*
X123944312Y-56717924D01*
X123944312Y-56717925D01*
X123944310Y-56717927D01*
X123944070Y-56718258D01*
X123833240Y-56870800D01*
X123747454Y-57039163D01*
X123689059Y-57218881D01*
X123659500Y-57405513D01*
X123659500Y-57594486D01*
X123689059Y-57781118D01*
X123747454Y-57960836D01*
X123792478Y-58049199D01*
X123833240Y-58129199D01*
X123944310Y-58282073D01*
X124077927Y-58415690D01*
X124230801Y-58526760D01*
X124399168Y-58612547D01*
X124454250Y-58630444D01*
X124511926Y-58669882D01*
X124539124Y-58734240D01*
X124527209Y-58803087D01*
X124479965Y-58854562D01*
X124454251Y-58866306D01*
X124389164Y-58887454D01*
X124220800Y-58973240D01*
X124133579Y-59036610D01*
X124067927Y-59084310D01*
X124067925Y-59084312D01*
X124067924Y-59084312D01*
X123934312Y-59217924D01*
X123934312Y-59217925D01*
X123934310Y-59217927D01*
X123934070Y-59218258D01*
X123823240Y-59370800D01*
X123737454Y-59539163D01*
X123679059Y-59718881D01*
X123649500Y-59905513D01*
X120107029Y-59905513D01*
X120096148Y-59864905D01*
X120050070Y-59785095D01*
X119984905Y-59719930D01*
X119905095Y-59673852D01*
X119816078Y-59650000D01*
X119723922Y-59650000D01*
X119634905Y-59673852D01*
X119555095Y-59719930D01*
X119489930Y-59785095D01*
X119443852Y-59864905D01*
X119420000Y-59953922D01*
X109000500Y-59953922D01*
X109000500Y-59750000D01*
X118594638Y-59750000D01*
X119520000Y-59750000D01*
X119520000Y-58825216D01*
X120020000Y-58825216D01*
X120020000Y-59750000D01*
X120945362Y-59750000D01*
X120940451Y-59718997D01*
X120882085Y-59539362D01*
X120796329Y-59371059D01*
X120685314Y-59218258D01*
X120685310Y-59218253D01*
X120551746Y-59084689D01*
X120551741Y-59084685D01*
X120398940Y-58973670D01*
X120230637Y-58887914D01*
X120174133Y-58869555D01*
X120116457Y-58830117D01*
X120089259Y-58765759D01*
X120101174Y-58696912D01*
X120148418Y-58645437D01*
X120174135Y-58633692D01*
X120240639Y-58612084D01*
X120408940Y-58526329D01*
X120561741Y-58415314D01*
X120561746Y-58415310D01*
X120695310Y-58281746D01*
X120695314Y-58281741D01*
X120806329Y-58128940D01*
X120892085Y-57960637D01*
X120950451Y-57781002D01*
X120955362Y-57750000D01*
X120030000Y-57750000D01*
X120030000Y-58691623D01*
X120044201Y-58713377D01*
X120044700Y-58783245D01*
X120020000Y-58825216D01*
X119520000Y-58825216D01*
X119520000Y-58813195D01*
X119516631Y-58803213D01*
X119505799Y-58786621D01*
X119505685Y-58770784D01*
X119500623Y-58755783D01*
X119505441Y-58736568D01*
X119505300Y-58716753D01*
X119514205Y-58701621D01*
X119517618Y-58688012D01*
X119527891Y-58678366D01*
X119530000Y-58674783D01*
X119530000Y-57750000D01*
X118604638Y-57750000D01*
X118609548Y-57781002D01*
X118667914Y-57960637D01*
X118753670Y-58128940D01*
X118864685Y-58281741D01*
X118864689Y-58281746D01*
X118998253Y-58415310D01*
X118998258Y-58415314D01*
X119151059Y-58526329D01*
X119319364Y-58612086D01*
X119375865Y-58630444D01*
X119433541Y-58669881D01*
X119460740Y-58734239D01*
X119448826Y-58803085D01*
X119401582Y-58854562D01*
X119375866Y-58866306D01*
X119309363Y-58887914D01*
X119141059Y-58973670D01*
X118988258Y-59084685D01*
X118988253Y-59084689D01*
X118854689Y-59218253D01*
X118854685Y-59218258D01*
X118743670Y-59371059D01*
X118657914Y-59539362D01*
X118599548Y-59718997D01*
X118594638Y-59750000D01*
X109000500Y-59750000D01*
X109000500Y-57325513D01*
X113659500Y-57325513D01*
X113659500Y-57514486D01*
X113689059Y-57701118D01*
X113747454Y-57880836D01*
X113798757Y-57981522D01*
X113833240Y-58049199D01*
X113944310Y-58202073D01*
X114077927Y-58335690D01*
X114230801Y-58446760D01*
X114310347Y-58487290D01*
X114399163Y-58532545D01*
X114399165Y-58532545D01*
X114399168Y-58532547D01*
X114495497Y-58563846D01*
X114578881Y-58590940D01*
X114765514Y-58620500D01*
X114765519Y-58620500D01*
X114954486Y-58620500D01*
X115141118Y-58590940D01*
X115320832Y-58532547D01*
X115489199Y-58446760D01*
X115642073Y-58335690D01*
X115775690Y-58202073D01*
X115886760Y-58049199D01*
X115972547Y-57880832D01*
X116030940Y-57701118D01*
X116047829Y-57594486D01*
X116060500Y-57514486D01*
X116060500Y-57453922D01*
X119430000Y-57453922D01*
X119430000Y-57546078D01*
X119453852Y-57635095D01*
X119499930Y-57714905D01*
X119565095Y-57780070D01*
X119644905Y-57826148D01*
X119733922Y-57850000D01*
X119826078Y-57850000D01*
X119915095Y-57826148D01*
X119994905Y-57780070D01*
X120060070Y-57714905D01*
X120106148Y-57635095D01*
X120130000Y-57546078D01*
X120130000Y-57453922D01*
X120106148Y-57364905D01*
X120060070Y-57285095D01*
X120024975Y-57250000D01*
X120030000Y-57250000D01*
X120955362Y-57250000D01*
X120950451Y-57218997D01*
X120892085Y-57039362D01*
X120806329Y-56871059D01*
X120695314Y-56718258D01*
X120695310Y-56718253D01*
X120561746Y-56584689D01*
X120561741Y-56584685D01*
X120408940Y-56473670D01*
X120240635Y-56387913D01*
X120061004Y-56329549D01*
X120060995Y-56329547D01*
X120030000Y-56324637D01*
X120030000Y-57250000D01*
X120024975Y-57250000D01*
X119994905Y-57219930D01*
X119915095Y-57173852D01*
X119826078Y-57150000D01*
X119733922Y-57150000D01*
X119644905Y-57173852D01*
X119565095Y-57219930D01*
X119499930Y-57285095D01*
X119453852Y-57364905D01*
X119430000Y-57453922D01*
X116060500Y-57453922D01*
X116060500Y-57325516D01*
X116057482Y-57306463D01*
X116057482Y-57306461D01*
X116048539Y-57250000D01*
X118604638Y-57250000D01*
X119530000Y-57250000D01*
X119530000Y-56324637D01*
X119529999Y-56324637D01*
X119499004Y-56329547D01*
X119498995Y-56329549D01*
X119319364Y-56387913D01*
X119151059Y-56473670D01*
X118998258Y-56584685D01*
X118998253Y-56584689D01*
X118864689Y-56718253D01*
X118864685Y-56718258D01*
X118753670Y-56871059D01*
X118667914Y-57039362D01*
X118609548Y-57218997D01*
X118604638Y-57250000D01*
X116048539Y-57250000D01*
X116030940Y-57138881D01*
X115972545Y-56959163D01*
X115886759Y-56790800D01*
X115775690Y-56637927D01*
X115642073Y-56504310D01*
X115489199Y-56393240D01*
X115477841Y-56387453D01*
X115320836Y-56307454D01*
X115141118Y-56249059D01*
X114954486Y-56219500D01*
X114954481Y-56219500D01*
X114765519Y-56219500D01*
X114765514Y-56219500D01*
X114578881Y-56249059D01*
X114399163Y-56307454D01*
X114230800Y-56393240D01*
X114143579Y-56456610D01*
X114077927Y-56504310D01*
X114077925Y-56504312D01*
X114077924Y-56504312D01*
X113944312Y-56637924D01*
X113944312Y-56637925D01*
X113944310Y-56637927D01*
X113896610Y-56703579D01*
X113833240Y-56790800D01*
X113747454Y-56959163D01*
X113689059Y-57138881D01*
X113659500Y-57325513D01*
X109000500Y-57325513D01*
X109000500Y-54178048D01*
X115604500Y-54178048D01*
X115604500Y-54421951D01*
X115626264Y-54587259D01*
X115636334Y-54663744D01*
X115688290Y-54857648D01*
X115699456Y-54899320D01*
X115699459Y-54899330D01*
X115792786Y-55124640D01*
X115792791Y-55124651D01*
X115914727Y-55335848D01*
X115914738Y-55335864D01*
X116063199Y-55529343D01*
X116063205Y-55529350D01*
X116235649Y-55701794D01*
X116235655Y-55701799D01*
X116429144Y-55850268D01*
X116429151Y-55850272D01*
X116640348Y-55972208D01*
X116640353Y-55972210D01*
X116640356Y-55972212D01*
X116865679Y-56065544D01*
X117101256Y-56128666D01*
X117343056Y-56160500D01*
X117343063Y-56160500D01*
X118106937Y-56160500D01*
X118106944Y-56160500D01*
X118348744Y-56128666D01*
X118584321Y-56065544D01*
X118809644Y-55972212D01*
X119020856Y-55850268D01*
X119214345Y-55701799D01*
X119386799Y-55529345D01*
X119535268Y-55335856D01*
X119657212Y-55124644D01*
X119750544Y-54899321D01*
X119813666Y-54663744D01*
X119845500Y-54421944D01*
X119845500Y-54178056D01*
X119813666Y-53936256D01*
X119750544Y-53700679D01*
X119748436Y-53695591D01*
X119700240Y-53579234D01*
X119657212Y-53475356D01*
X119657210Y-53475353D01*
X119657208Y-53475348D01*
X119535272Y-53264151D01*
X119535268Y-53264144D01*
X119386799Y-53070655D01*
X119386794Y-53070649D01*
X119214350Y-52898205D01*
X119214343Y-52898199D01*
X119020864Y-52749738D01*
X119020862Y-52749736D01*
X119020856Y-52749732D01*
X119020851Y-52749729D01*
X119020848Y-52749727D01*
X118809651Y-52627791D01*
X118809640Y-52627786D01*
X118584330Y-52534459D01*
X118584323Y-52534457D01*
X118584321Y-52534456D01*
X118348744Y-52471334D01*
X118308333Y-52466013D01*
X118106951Y-52439500D01*
X118106944Y-52439500D01*
X117343056Y-52439500D01*
X117343048Y-52439500D01*
X117112896Y-52469801D01*
X117101256Y-52471334D01*
X117096304Y-52472661D01*
X116865679Y-52534456D01*
X116865669Y-52534459D01*
X116640359Y-52627786D01*
X116640348Y-52627791D01*
X116429151Y-52749727D01*
X116429135Y-52749738D01*
X116235656Y-52898199D01*
X116235649Y-52898205D01*
X116063205Y-53070649D01*
X116063199Y-53070656D01*
X115914738Y-53264135D01*
X115914727Y-53264151D01*
X115792791Y-53475348D01*
X115792786Y-53475359D01*
X115699459Y-53700669D01*
X115699456Y-53700679D01*
X115636335Y-53936253D01*
X115636333Y-53936264D01*
X115604500Y-54178048D01*
X109000500Y-54178048D01*
X109000500Y-46889778D01*
X123824500Y-46889778D01*
X123824500Y-47110221D01*
X123858985Y-47327952D01*
X123927103Y-47537603D01*
X123927104Y-47537606D01*
X124027187Y-47734025D01*
X124156752Y-47912358D01*
X124156756Y-47912363D01*
X124312636Y-48068243D01*
X124312641Y-48068247D01*
X124424727Y-48149682D01*
X124467393Y-48205011D01*
X124473372Y-48274625D01*
X124440767Y-48336420D01*
X124424727Y-48350318D01*
X124312641Y-48431752D01*
X124312636Y-48431756D01*
X124156756Y-48587636D01*
X124156752Y-48587641D01*
X124027187Y-48765974D01*
X123927104Y-48962393D01*
X123927103Y-48962396D01*
X123858985Y-49172047D01*
X123824500Y-49389778D01*
X123824500Y-49610221D01*
X123858985Y-49827952D01*
X123927103Y-50037603D01*
X123927104Y-50037606D01*
X124027187Y-50234025D01*
X124156752Y-50412358D01*
X124156756Y-50412363D01*
X124177794Y-50433401D01*
X124211279Y-50494724D01*
X124206295Y-50564416D01*
X124164423Y-50620349D01*
X124133448Y-50637263D01*
X124082674Y-50656201D01*
X124082664Y-50656206D01*
X123967455Y-50742452D01*
X123967452Y-50742455D01*
X123881206Y-50857664D01*
X123881202Y-50857671D01*
X123830908Y-50992517D01*
X123824501Y-51052116D01*
X123824501Y-51052123D01*
X123824500Y-51052135D01*
X123824500Y-52947870D01*
X123824501Y-52947876D01*
X123830908Y-53007483D01*
X123881202Y-53142328D01*
X123881206Y-53142335D01*
X123967452Y-53257544D01*
X123967455Y-53257547D01*
X124082664Y-53343793D01*
X124082671Y-53343797D01*
X124217517Y-53394091D01*
X124217516Y-53394091D01*
X124224444Y-53394835D01*
X124277127Y-53400500D01*
X126172872Y-53400499D01*
X126232483Y-53394091D01*
X126367331Y-53343796D01*
X126482546Y-53257546D01*
X126568796Y-53142331D01*
X126619091Y-53007483D01*
X126625500Y-52947873D01*
X126625499Y-52317648D01*
X127039500Y-52317648D01*
X127039500Y-52522351D01*
X127071522Y-52724534D01*
X127134781Y-52919223D01*
X127227715Y-53101613D01*
X127348028Y-53267213D01*
X127492786Y-53411971D01*
X127647749Y-53524556D01*
X127658390Y-53532287D01*
X127730424Y-53568990D01*
X127751629Y-53579795D01*
X127802425Y-53627770D01*
X127819220Y-53695591D01*
X127796682Y-53761726D01*
X127751629Y-53800765D01*
X127658650Y-53848140D01*
X127493105Y-53968417D01*
X127493104Y-53968417D01*
X127348417Y-54113104D01*
X127348417Y-54113105D01*
X127228140Y-54278650D01*
X127135244Y-54460970D01*
X127072009Y-54655586D01*
X127063391Y-54710000D01*
X128424314Y-54710000D01*
X128419920Y-54714394D01*
X128367259Y-54805606D01*
X128340000Y-54907339D01*
X128340000Y-55012661D01*
X128367259Y-55114394D01*
X128419920Y-55205606D01*
X128424314Y-55210000D01*
X127063391Y-55210000D01*
X127072009Y-55264413D01*
X127135244Y-55459029D01*
X127228140Y-55641349D01*
X127348417Y-55806894D01*
X127348417Y-55806895D01*
X127493104Y-55951582D01*
X127658652Y-56071861D01*
X127751628Y-56119234D01*
X127802425Y-56167208D01*
X127819220Y-56235029D01*
X127796683Y-56301164D01*
X127751630Y-56340203D01*
X127658388Y-56387713D01*
X127492786Y-56508028D01*
X127348028Y-56652786D01*
X127227715Y-56818386D01*
X127134781Y-57000776D01*
X127071522Y-57195465D01*
X127039500Y-57397648D01*
X127039500Y-57602351D01*
X127071522Y-57804534D01*
X127134781Y-57999223D01*
X127227715Y-58181613D01*
X127348028Y-58347213D01*
X127492786Y-58491971D01*
X127597970Y-58568390D01*
X127658390Y-58612287D01*
X127749840Y-58658883D01*
X127751080Y-58659515D01*
X127801876Y-58707490D01*
X127818671Y-58775311D01*
X127796134Y-58841446D01*
X127751080Y-58880485D01*
X127658386Y-58927715D01*
X127492786Y-59048028D01*
X127348028Y-59192786D01*
X127227715Y-59358386D01*
X127134781Y-59540776D01*
X127071522Y-59735465D01*
X127039500Y-59937648D01*
X127039500Y-60142351D01*
X127071522Y-60344534D01*
X127134781Y-60539223D01*
X127227715Y-60721613D01*
X127348028Y-60887213D01*
X127492786Y-61031971D01*
X127603056Y-61112085D01*
X127658390Y-61152287D01*
X127749840Y-61198883D01*
X127751080Y-61199515D01*
X127801876Y-61247490D01*
X127818671Y-61315311D01*
X127796134Y-61381446D01*
X127751080Y-61420485D01*
X127658386Y-61467715D01*
X127492786Y-61588028D01*
X127348028Y-61732786D01*
X127227715Y-61898386D01*
X127134781Y-62080776D01*
X127071522Y-62275465D01*
X127039500Y-62477648D01*
X127039500Y-62682351D01*
X127071522Y-62884534D01*
X127134781Y-63079223D01*
X127227715Y-63261613D01*
X127348028Y-63427213D01*
X127492786Y-63571971D01*
X127618587Y-63663369D01*
X127658390Y-63692287D01*
X127749840Y-63738883D01*
X127751080Y-63739515D01*
X127801876Y-63787490D01*
X127818671Y-63855311D01*
X127796134Y-63921446D01*
X127751080Y-63960485D01*
X127658386Y-64007715D01*
X127492786Y-64128028D01*
X127348028Y-64272786D01*
X127227715Y-64438386D01*
X127134781Y-64620776D01*
X127071522Y-64815465D01*
X127039500Y-65017648D01*
X127039500Y-65222351D01*
X127071522Y-65424534D01*
X127134781Y-65619223D01*
X127227715Y-65801613D01*
X127348028Y-65967213D01*
X127492786Y-66111971D01*
X127647749Y-66224556D01*
X127658390Y-66232287D01*
X127730424Y-66268990D01*
X127751629Y-66279795D01*
X127802425Y-66327770D01*
X127819220Y-66395591D01*
X127796682Y-66461726D01*
X127751629Y-66500765D01*
X127658650Y-66548140D01*
X127493105Y-66668417D01*
X127493104Y-66668417D01*
X127348417Y-66813104D01*
X127348417Y-66813105D01*
X127228140Y-66978650D01*
X127135244Y-67160970D01*
X127072009Y-67355586D01*
X127063391Y-67410000D01*
X128424314Y-67410000D01*
X128419920Y-67414394D01*
X128367259Y-67505606D01*
X128340000Y-67607339D01*
X128340000Y-67712661D01*
X128367259Y-67814394D01*
X128419920Y-67905606D01*
X128424314Y-67910000D01*
X127063391Y-67910000D01*
X127072009Y-67964413D01*
X127135244Y-68159029D01*
X127228140Y-68341349D01*
X127348417Y-68506894D01*
X127348417Y-68506895D01*
X127493104Y-68651582D01*
X127658652Y-68771861D01*
X127751628Y-68819234D01*
X127802425Y-68867208D01*
X127819220Y-68935029D01*
X127796683Y-69001164D01*
X127751630Y-69040203D01*
X127658388Y-69087713D01*
X127492786Y-69208028D01*
X127348028Y-69352786D01*
X127227715Y-69518386D01*
X127134781Y-69700776D01*
X127071522Y-69895465D01*
X127039500Y-70097648D01*
X127039500Y-70302351D01*
X127071522Y-70504534D01*
X127134781Y-70699223D01*
X127227715Y-70881613D01*
X127348028Y-71047213D01*
X127492786Y-71191971D01*
X127618587Y-71283369D01*
X127658390Y-71312287D01*
X127747212Y-71357544D01*
X127840776Y-71405218D01*
X127840778Y-71405218D01*
X127840781Y-71405220D01*
X127945137Y-71439127D01*
X128035465Y-71468477D01*
X128136557Y-71484488D01*
X128237648Y-71500500D01*
X128237649Y-71500500D01*
X129242351Y-71500500D01*
X129242352Y-71500500D01*
X129444534Y-71468477D01*
X129639219Y-71405220D01*
X129821610Y-71312287D01*
X129931325Y-71232575D01*
X129987213Y-71191971D01*
X129987215Y-71191968D01*
X129987219Y-71191966D01*
X130131966Y-71047219D01*
X130131968Y-71047215D01*
X130131971Y-71047213D01*
X130184732Y-70974590D01*
X130252287Y-70881610D01*
X130345220Y-70699219D01*
X130408477Y-70504534D01*
X130440500Y-70302352D01*
X130440500Y-70097648D01*
X130433936Y-70056204D01*
X130408477Y-69895465D01*
X130345218Y-69700776D01*
X130296155Y-69604486D01*
X130252287Y-69518390D01*
X130244556Y-69507749D01*
X130131971Y-69352786D01*
X129987213Y-69208028D01*
X129821611Y-69087713D01*
X129728369Y-69040203D01*
X129677574Y-68992229D01*
X129660779Y-68924407D01*
X129683317Y-68858273D01*
X129728371Y-68819234D01*
X129821347Y-68771861D01*
X129986894Y-68651582D01*
X129986895Y-68651582D01*
X130131582Y-68506895D01*
X130131582Y-68506894D01*
X130251859Y-68341349D01*
X130344755Y-68159029D01*
X130407990Y-67964413D01*
X130416609Y-67910000D01*
X129055686Y-67910000D01*
X129060080Y-67905606D01*
X129112741Y-67814394D01*
X129140000Y-67712661D01*
X129140000Y-67607339D01*
X129112741Y-67505606D01*
X129060080Y-67414394D01*
X129055686Y-67410000D01*
X130416609Y-67410000D01*
X130407990Y-67355586D01*
X130344755Y-67160970D01*
X130251859Y-66978650D01*
X130131582Y-66813105D01*
X130131582Y-66813104D01*
X129986895Y-66668417D01*
X129821349Y-66548140D01*
X129728370Y-66500765D01*
X129677574Y-66452790D01*
X129660779Y-66384969D01*
X129683316Y-66318835D01*
X129728370Y-66279795D01*
X129728920Y-66279515D01*
X129821610Y-66232287D01*
X129842770Y-66216913D01*
X129987213Y-66111971D01*
X129987215Y-66111968D01*
X129987219Y-66111966D01*
X130131966Y-65967219D01*
X130131968Y-65967215D01*
X130131971Y-65967213D01*
X130220322Y-65845606D01*
X130252287Y-65801610D01*
X130345220Y-65619219D01*
X130408477Y-65424534D01*
X130440500Y-65222352D01*
X130440500Y-65017648D01*
X130408477Y-64815466D01*
X130401906Y-64795244D01*
X130345218Y-64620776D01*
X130311503Y-64554607D01*
X130252287Y-64438390D01*
X130244556Y-64427749D01*
X130131971Y-64272786D01*
X129987213Y-64128028D01*
X129821614Y-64007715D01*
X129772091Y-63982482D01*
X129728917Y-63960483D01*
X129678123Y-63912511D01*
X129661328Y-63844690D01*
X129683865Y-63778555D01*
X129728917Y-63739516D01*
X129821610Y-63692287D01*
X129862168Y-63662820D01*
X129987213Y-63571971D01*
X129987215Y-63571968D01*
X129987219Y-63571966D01*
X130131966Y-63427219D01*
X130131968Y-63427215D01*
X130131971Y-63427213D01*
X130237419Y-63282074D01*
X130252287Y-63261610D01*
X130345220Y-63079219D01*
X130408477Y-62884534D01*
X130440500Y-62682352D01*
X130440500Y-62477648D01*
X130429075Y-62405513D01*
X130408477Y-62275465D01*
X130345218Y-62080776D01*
X130311503Y-62014607D01*
X130252287Y-61898390D01*
X130232242Y-61870800D01*
X130131971Y-61732786D01*
X129987213Y-61588028D01*
X129821614Y-61467715D01*
X129814460Y-61464070D01*
X129728917Y-61420483D01*
X129678123Y-61372511D01*
X129661328Y-61304690D01*
X129683865Y-61238555D01*
X129728917Y-61199516D01*
X129821610Y-61152287D01*
X129876944Y-61112085D01*
X129987213Y-61031971D01*
X129987215Y-61031968D01*
X129987219Y-61031966D01*
X130131966Y-60887219D01*
X130131968Y-60887215D01*
X130131971Y-60887213D01*
X130208357Y-60782075D01*
X130252287Y-60721610D01*
X130345220Y-60539219D01*
X130408477Y-60344534D01*
X130440500Y-60142352D01*
X130440500Y-59937648D01*
X130432257Y-59885606D01*
X130408477Y-59735465D01*
X130377458Y-59640000D01*
X130345220Y-59540781D01*
X130345218Y-59540778D01*
X130345218Y-59540776D01*
X130311503Y-59474607D01*
X130252287Y-59358390D01*
X130244556Y-59347749D01*
X130131971Y-59192786D01*
X129987213Y-59048028D01*
X129821614Y-58927715D01*
X129815006Y-58924348D01*
X129728917Y-58880483D01*
X129678123Y-58832511D01*
X129661328Y-58764690D01*
X129683865Y-58698555D01*
X129728917Y-58659516D01*
X129821610Y-58612287D01*
X129931364Y-58532547D01*
X129987213Y-58491971D01*
X129987215Y-58491968D01*
X129987219Y-58491966D01*
X130131966Y-58347219D01*
X130131968Y-58347215D01*
X130131971Y-58347213D01*
X130196762Y-58258034D01*
X130252287Y-58181610D01*
X130345220Y-57999219D01*
X130408477Y-57804534D01*
X130440500Y-57602352D01*
X130440500Y-57397648D01*
X130429075Y-57325513D01*
X130408477Y-57195465D01*
X130379127Y-57105137D01*
X130345220Y-57000781D01*
X130345218Y-57000778D01*
X130345218Y-57000776D01*
X130279123Y-56871059D01*
X130252287Y-56818390D01*
X130232242Y-56790800D01*
X130131971Y-56652786D01*
X129987213Y-56508028D01*
X129821611Y-56387713D01*
X129728369Y-56340203D01*
X129677574Y-56292229D01*
X129660779Y-56224407D01*
X129683317Y-56158273D01*
X129728371Y-56119234D01*
X129821347Y-56071861D01*
X129986894Y-55951582D01*
X129986895Y-55951582D01*
X130131582Y-55806895D01*
X130131582Y-55806894D01*
X130251859Y-55641349D01*
X130344755Y-55459029D01*
X130407990Y-55264413D01*
X130416609Y-55210000D01*
X129055686Y-55210000D01*
X129060080Y-55205606D01*
X129112741Y-55114394D01*
X129140000Y-55012661D01*
X129140000Y-54907339D01*
X129126685Y-54857648D01*
X134659500Y-54857648D01*
X134659500Y-55062351D01*
X134691522Y-55264534D01*
X134754781Y-55459223D01*
X134847715Y-55641613D01*
X134968028Y-55807213D01*
X135112786Y-55951971D01*
X135267749Y-56064556D01*
X135278390Y-56072287D01*
X135369840Y-56118883D01*
X135371080Y-56119515D01*
X135421876Y-56167490D01*
X135438671Y-56235311D01*
X135416134Y-56301446D01*
X135371080Y-56340485D01*
X135278386Y-56387715D01*
X135112786Y-56508028D01*
X134968028Y-56652786D01*
X134847715Y-56818386D01*
X134754781Y-57000776D01*
X134691522Y-57195465D01*
X134659500Y-57397648D01*
X134659500Y-57602351D01*
X134691522Y-57804534D01*
X134754781Y-57999223D01*
X134847715Y-58181613D01*
X134968028Y-58347213D01*
X135112786Y-58491971D01*
X135217970Y-58568390D01*
X135278390Y-58612287D01*
X135350424Y-58648990D01*
X135371629Y-58659795D01*
X135422425Y-58707770D01*
X135439220Y-58775591D01*
X135416682Y-58841726D01*
X135371629Y-58880765D01*
X135278650Y-58928140D01*
X135113105Y-59048417D01*
X135113104Y-59048417D01*
X134968417Y-59193104D01*
X134968417Y-59193105D01*
X134848140Y-59358650D01*
X134755244Y-59540970D01*
X134692009Y-59735586D01*
X134683391Y-59790000D01*
X136044314Y-59790000D01*
X136039920Y-59794394D01*
X135987259Y-59885606D01*
X135960000Y-59987339D01*
X135960000Y-60092661D01*
X135987259Y-60194394D01*
X136039920Y-60285606D01*
X136044314Y-60290000D01*
X134683391Y-60290000D01*
X134692009Y-60344413D01*
X134755244Y-60539029D01*
X134848140Y-60721349D01*
X134968417Y-60886894D01*
X134968417Y-60886895D01*
X135113104Y-61031582D01*
X135278652Y-61151861D01*
X135371628Y-61199234D01*
X135422425Y-61247208D01*
X135439220Y-61315029D01*
X135416683Y-61381164D01*
X135371630Y-61420203D01*
X135278388Y-61467713D01*
X135112786Y-61588028D01*
X134968028Y-61732786D01*
X134847715Y-61898386D01*
X134754781Y-62080776D01*
X134691522Y-62275465D01*
X134659500Y-62477648D01*
X134659500Y-62682351D01*
X134691522Y-62884534D01*
X134754781Y-63079223D01*
X134847715Y-63261613D01*
X134968028Y-63427213D01*
X135112786Y-63571971D01*
X135238587Y-63663369D01*
X135278390Y-63692287D01*
X135369840Y-63738883D01*
X135371080Y-63739515D01*
X135421876Y-63787490D01*
X135438671Y-63855311D01*
X135416134Y-63921446D01*
X135371080Y-63960485D01*
X135278386Y-64007715D01*
X135112786Y-64128028D01*
X134968028Y-64272786D01*
X134847715Y-64438386D01*
X134754781Y-64620776D01*
X134691522Y-64815465D01*
X134659500Y-65017648D01*
X134659500Y-65222351D01*
X134691522Y-65424534D01*
X134754781Y-65619223D01*
X134847715Y-65801613D01*
X134968028Y-65967213D01*
X135112786Y-66111971D01*
X135267749Y-66224556D01*
X135278390Y-66232287D01*
X135369840Y-66278883D01*
X135371080Y-66279515D01*
X135421876Y-66327490D01*
X135438671Y-66395311D01*
X135416134Y-66461446D01*
X135371080Y-66500485D01*
X135278386Y-66547715D01*
X135112786Y-66668028D01*
X134968028Y-66812786D01*
X134847715Y-66978386D01*
X134754781Y-67160776D01*
X134691522Y-67355465D01*
X134659500Y-67557648D01*
X134659500Y-67762351D01*
X134691522Y-67964534D01*
X134754781Y-68159223D01*
X134818691Y-68284653D01*
X134846413Y-68339059D01*
X134847715Y-68341613D01*
X134968028Y-68507213D01*
X135112784Y-68651969D01*
X135149068Y-68678330D01*
X135191735Y-68733659D01*
X135197715Y-68803273D01*
X135165109Y-68865068D01*
X135104271Y-68899426D01*
X135089440Y-68901938D01*
X135052519Y-68905907D01*
X134917671Y-68956202D01*
X134917664Y-68956206D01*
X134802455Y-69042452D01*
X134802452Y-69042455D01*
X134716206Y-69157664D01*
X134716202Y-69157671D01*
X134665908Y-69292517D01*
X134659548Y-69351682D01*
X134659501Y-69352123D01*
X134659500Y-69352135D01*
X134659500Y-71047870D01*
X134659501Y-71047876D01*
X134665908Y-71107483D01*
X134716202Y-71242328D01*
X134716206Y-71242335D01*
X134802452Y-71357544D01*
X134802455Y-71357547D01*
X134917664Y-71443793D01*
X134917671Y-71443797D01*
X135052517Y-71494091D01*
X135052516Y-71494091D01*
X135059444Y-71494835D01*
X135112127Y-71500500D01*
X137607872Y-71500499D01*
X137667483Y-71494091D01*
X137802331Y-71443796D01*
X137917546Y-71357546D01*
X138003796Y-71242331D01*
X138054091Y-71107483D01*
X138060500Y-71047873D01*
X138060499Y-70159917D01*
X138060499Y-69792682D01*
X140000000Y-69792682D01*
X140000000Y-70045000D01*
X140984314Y-70045000D01*
X140979920Y-70049394D01*
X140927259Y-70140606D01*
X140900000Y-70242339D01*
X140900000Y-70347661D01*
X140927259Y-70449394D01*
X140979920Y-70540606D01*
X140984314Y-70545000D01*
X140000000Y-70545000D01*
X140000000Y-70797317D01*
X140032009Y-70999417D01*
X140095244Y-71194031D01*
X140188140Y-71376349D01*
X140308417Y-71541894D01*
X140308417Y-71541895D01*
X140453104Y-71686582D01*
X140618650Y-71806859D01*
X140800968Y-71899754D01*
X140995578Y-71962988D01*
X141050000Y-71971607D01*
X141050000Y-70610686D01*
X141054394Y-70615080D01*
X141145606Y-70667741D01*
X141247339Y-70695000D01*
X141352661Y-70695000D01*
X141454394Y-70667741D01*
X141545606Y-70615080D01*
X141550000Y-70610686D01*
X141550000Y-71971606D01*
X141604421Y-71962988D01*
X141799031Y-71899754D01*
X141981349Y-71806859D01*
X142146894Y-71686582D01*
X142146895Y-71686582D01*
X142291582Y-71541895D01*
X142291582Y-71541894D01*
X142411859Y-71376349D01*
X142459515Y-71282820D01*
X142507489Y-71232024D01*
X142575310Y-71215229D01*
X142641445Y-71237766D01*
X142680485Y-71282820D01*
X142728140Y-71376349D01*
X142848417Y-71541894D01*
X142848417Y-71541895D01*
X142993104Y-71686582D01*
X143158650Y-71806859D01*
X143340968Y-71899754D01*
X143535578Y-71962988D01*
X143590000Y-71971607D01*
X143590000Y-70610686D01*
X143594394Y-70615080D01*
X143685606Y-70667741D01*
X143787339Y-70695000D01*
X143892661Y-70695000D01*
X143994394Y-70667741D01*
X144085606Y-70615080D01*
X144090000Y-70610686D01*
X144090000Y-71971607D01*
X144144421Y-71962988D01*
X144339031Y-71899754D01*
X144521349Y-71806859D01*
X144686894Y-71686582D01*
X144686895Y-71686582D01*
X144831582Y-71541895D01*
X144831582Y-71541894D01*
X144951859Y-71376349D01*
X144999515Y-71282820D01*
X145047489Y-71232024D01*
X145115310Y-71215229D01*
X145181445Y-71237766D01*
X145220485Y-71282820D01*
X145268140Y-71376349D01*
X145388417Y-71541894D01*
X145388417Y-71541895D01*
X145533104Y-71686582D01*
X145698650Y-71806859D01*
X145880968Y-71899754D01*
X146075578Y-71962988D01*
X146130000Y-71971607D01*
X146130000Y-70610686D01*
X146134394Y-70615080D01*
X146225606Y-70667741D01*
X146327339Y-70695000D01*
X146432661Y-70695000D01*
X146534394Y-70667741D01*
X146625606Y-70615080D01*
X146630000Y-70610686D01*
X146630000Y-71971606D01*
X146684421Y-71962988D01*
X146879031Y-71899754D01*
X147061349Y-71806859D01*
X147226894Y-71686582D01*
X147226895Y-71686582D01*
X147371582Y-71541895D01*
X147371582Y-71541894D01*
X147491859Y-71376349D01*
X147539515Y-71282820D01*
X147587489Y-71232024D01*
X147655310Y-71215229D01*
X147721445Y-71237766D01*
X147760485Y-71282820D01*
X147808140Y-71376349D01*
X147928417Y-71541894D01*
X147928417Y-71541895D01*
X148073104Y-71686582D01*
X148238650Y-71806859D01*
X148420968Y-71899754D01*
X148615578Y-71962988D01*
X148670000Y-71971607D01*
X148670000Y-70610686D01*
X148674394Y-70615080D01*
X148765606Y-70667741D01*
X148867339Y-70695000D01*
X148972661Y-70695000D01*
X149074394Y-70667741D01*
X149165606Y-70615080D01*
X149170000Y-70610686D01*
X149170000Y-71971607D01*
X149224421Y-71962988D01*
X149419031Y-71899754D01*
X149601349Y-71806859D01*
X149766894Y-71686582D01*
X149766895Y-71686582D01*
X149911582Y-71541895D01*
X149911582Y-71541894D01*
X150031859Y-71376349D01*
X150079515Y-71282820D01*
X150127489Y-71232024D01*
X150195310Y-71215229D01*
X150261445Y-71237766D01*
X150300485Y-71282820D01*
X150348140Y-71376349D01*
X150468417Y-71541894D01*
X150468417Y-71541895D01*
X150613104Y-71686582D01*
X150778650Y-71806859D01*
X150960968Y-71899754D01*
X151155578Y-71962988D01*
X151210000Y-71971607D01*
X151210000Y-70610686D01*
X151214394Y-70615080D01*
X151305606Y-70667741D01*
X151407339Y-70695000D01*
X151512661Y-70695000D01*
X151614394Y-70667741D01*
X151705606Y-70615080D01*
X151710000Y-70610686D01*
X151710000Y-71971607D01*
X151764421Y-71962988D01*
X151959031Y-71899754D01*
X152141349Y-71806859D01*
X152306894Y-71686582D01*
X152306895Y-71686582D01*
X152451582Y-71541895D01*
X152451582Y-71541894D01*
X152571859Y-71376349D01*
X152619515Y-71282820D01*
X152667489Y-71232024D01*
X152735310Y-71215229D01*
X152801445Y-71237766D01*
X152840485Y-71282820D01*
X152888140Y-71376349D01*
X153008417Y-71541894D01*
X153008417Y-71541895D01*
X153153104Y-71686582D01*
X153318650Y-71806859D01*
X153500968Y-71899754D01*
X153695578Y-71962988D01*
X153750000Y-71971607D01*
X153750000Y-70610686D01*
X153754394Y-70615080D01*
X153845606Y-70667741D01*
X153947339Y-70695000D01*
X154052661Y-70695000D01*
X154154394Y-70667741D01*
X154245606Y-70615080D01*
X154250000Y-70610686D01*
X154250000Y-71971607D01*
X154304421Y-71962988D01*
X154499031Y-71899754D01*
X154681349Y-71806859D01*
X154846894Y-71686582D01*
X154846895Y-71686582D01*
X154991582Y-71541895D01*
X154991582Y-71541894D01*
X155111861Y-71376347D01*
X155159234Y-71283371D01*
X155207208Y-71232575D01*
X155275028Y-71215779D01*
X155341164Y-71238316D01*
X155380203Y-71283369D01*
X155427713Y-71376611D01*
X155548028Y-71542213D01*
X155692786Y-71686971D01*
X155832313Y-71788341D01*
X155858390Y-71807287D01*
X155974607Y-71866503D01*
X156040776Y-71900218D01*
X156040778Y-71900218D01*
X156040781Y-71900220D01*
X156145137Y-71934127D01*
X156235465Y-71963477D01*
X156336557Y-71979488D01*
X156437648Y-71995500D01*
X156437649Y-71995500D01*
X156642351Y-71995500D01*
X156642352Y-71995500D01*
X156844534Y-71963477D01*
X157039219Y-71900220D01*
X157221610Y-71807287D01*
X157314590Y-71739732D01*
X157387213Y-71686971D01*
X157387215Y-71686968D01*
X157387219Y-71686966D01*
X157531966Y-71542219D01*
X157531968Y-71542215D01*
X157531971Y-71542213D01*
X157603476Y-71443793D01*
X157652287Y-71376610D01*
X157745220Y-71194219D01*
X157808477Y-70999534D01*
X157840500Y-70797352D01*
X157840500Y-69792648D01*
X157839735Y-69787816D01*
X157808477Y-69590465D01*
X157751631Y-69415513D01*
X157745220Y-69395781D01*
X157745218Y-69395778D01*
X157745218Y-69395776D01*
X157692604Y-69292517D01*
X157652287Y-69213390D01*
X157629633Y-69182209D01*
X157531971Y-69047786D01*
X157387213Y-68903028D01*
X157221613Y-68782715D01*
X157221612Y-68782714D01*
X157221610Y-68782713D01*
X157153451Y-68747984D01*
X157039223Y-68689781D01*
X156844534Y-68626522D01*
X156669995Y-68598878D01*
X156642352Y-68594500D01*
X156437648Y-68594500D01*
X156413329Y-68598351D01*
X156235465Y-68626522D01*
X156040776Y-68689781D01*
X155858386Y-68782715D01*
X155692786Y-68903028D01*
X155548028Y-69047786D01*
X155427713Y-69213388D01*
X155380203Y-69306630D01*
X155332228Y-69357426D01*
X155264407Y-69374220D01*
X155198272Y-69351682D01*
X155159234Y-69306628D01*
X155111861Y-69213652D01*
X154991582Y-69048105D01*
X154991582Y-69048104D01*
X154846895Y-68903417D01*
X154681349Y-68783140D01*
X154499029Y-68690244D01*
X154304413Y-68627009D01*
X154250000Y-68618390D01*
X154250000Y-69979314D01*
X154245606Y-69974920D01*
X154154394Y-69922259D01*
X154052661Y-69895000D01*
X153947339Y-69895000D01*
X153845606Y-69922259D01*
X153754394Y-69974920D01*
X153750000Y-69979314D01*
X153750000Y-68618390D01*
X153695586Y-68627009D01*
X153500970Y-68690244D01*
X153318650Y-68783140D01*
X153153105Y-68903417D01*
X153153104Y-68903417D01*
X153008417Y-69048104D01*
X153008417Y-69048105D01*
X152888140Y-69213650D01*
X152840485Y-69307179D01*
X152792510Y-69357975D01*
X152724689Y-69374770D01*
X152658554Y-69352232D01*
X152619515Y-69307179D01*
X152571859Y-69213650D01*
X152451582Y-69048105D01*
X152451582Y-69048104D01*
X152306895Y-68903417D01*
X152141349Y-68783140D01*
X151959029Y-68690244D01*
X151764413Y-68627009D01*
X151710000Y-68618390D01*
X151710000Y-69979314D01*
X151705606Y-69974920D01*
X151614394Y-69922259D01*
X151512661Y-69895000D01*
X151407339Y-69895000D01*
X151305606Y-69922259D01*
X151214394Y-69974920D01*
X151210000Y-69979314D01*
X151210000Y-68618390D01*
X151155586Y-68627009D01*
X150960970Y-68690244D01*
X150778650Y-68783140D01*
X150613105Y-68903417D01*
X150613104Y-68903417D01*
X150468417Y-69048104D01*
X150468417Y-69048105D01*
X150348140Y-69213650D01*
X150300485Y-69307179D01*
X150252510Y-69357975D01*
X150184689Y-69374770D01*
X150118554Y-69352232D01*
X150079515Y-69307179D01*
X150031859Y-69213650D01*
X149911582Y-69048105D01*
X149911582Y-69048104D01*
X149766895Y-68903417D01*
X149601349Y-68783140D01*
X149419029Y-68690244D01*
X149224413Y-68627009D01*
X149170000Y-68618390D01*
X149170000Y-69979314D01*
X149165606Y-69974920D01*
X149074394Y-69922259D01*
X148972661Y-69895000D01*
X148867339Y-69895000D01*
X148765606Y-69922259D01*
X148674394Y-69974920D01*
X148670000Y-69979314D01*
X148670000Y-68618390D01*
X148615586Y-68627009D01*
X148420970Y-68690244D01*
X148238650Y-68783140D01*
X148073105Y-68903417D01*
X148073104Y-68903417D01*
X147928417Y-69048104D01*
X147928417Y-69048105D01*
X147808140Y-69213650D01*
X147760485Y-69307179D01*
X147712510Y-69357975D01*
X147644689Y-69374770D01*
X147578554Y-69352232D01*
X147539515Y-69307179D01*
X147491859Y-69213650D01*
X147371582Y-69048105D01*
X147371582Y-69048104D01*
X147226895Y-68903417D01*
X147061349Y-68783140D01*
X146879029Y-68690244D01*
X146684413Y-68627009D01*
X146630000Y-68618390D01*
X146630000Y-69979314D01*
X146625606Y-69974920D01*
X146534394Y-69922259D01*
X146432661Y-69895000D01*
X146327339Y-69895000D01*
X146225606Y-69922259D01*
X146134394Y-69974920D01*
X146130000Y-69979314D01*
X146130000Y-68618390D01*
X146075586Y-68627009D01*
X145880970Y-68690244D01*
X145698650Y-68783140D01*
X145533105Y-68903417D01*
X145533104Y-68903417D01*
X145388417Y-69048104D01*
X145388417Y-69048105D01*
X145268140Y-69213650D01*
X145220485Y-69307179D01*
X145172510Y-69357975D01*
X145104689Y-69374770D01*
X145038554Y-69352232D01*
X144999515Y-69307179D01*
X144951859Y-69213650D01*
X144831582Y-69048105D01*
X144831582Y-69048104D01*
X144686895Y-68903417D01*
X144521349Y-68783140D01*
X144339029Y-68690244D01*
X144144413Y-68627009D01*
X144090000Y-68618390D01*
X144090000Y-69979314D01*
X144085606Y-69974920D01*
X143994394Y-69922259D01*
X143892661Y-69895000D01*
X143787339Y-69895000D01*
X143685606Y-69922259D01*
X143594394Y-69974920D01*
X143590000Y-69979314D01*
X143590000Y-68618390D01*
X143535586Y-68627009D01*
X143340970Y-68690244D01*
X143158650Y-68783140D01*
X142993105Y-68903417D01*
X142993104Y-68903417D01*
X142848417Y-69048104D01*
X142848417Y-69048105D01*
X142728140Y-69213650D01*
X142680485Y-69307179D01*
X142632510Y-69357975D01*
X142564689Y-69374770D01*
X142498554Y-69352232D01*
X142459515Y-69307179D01*
X142411859Y-69213650D01*
X142291582Y-69048105D01*
X142291582Y-69048104D01*
X142146895Y-68903417D01*
X141981349Y-68783140D01*
X141799029Y-68690244D01*
X141604413Y-68627009D01*
X141550000Y-68618390D01*
X141550000Y-69979314D01*
X141545606Y-69974920D01*
X141454394Y-69922259D01*
X141352661Y-69895000D01*
X141247339Y-69895000D01*
X141145606Y-69922259D01*
X141054394Y-69974920D01*
X141050000Y-69979314D01*
X141050000Y-68618390D01*
X140995586Y-68627009D01*
X140800970Y-68690244D01*
X140618650Y-68783140D01*
X140453105Y-68903417D01*
X140453104Y-68903417D01*
X140308417Y-69048104D01*
X140308417Y-69048105D01*
X140188140Y-69213650D01*
X140095244Y-69395968D01*
X140032009Y-69590582D01*
X140000000Y-69792682D01*
X138060499Y-69792682D01*
X138060499Y-69787816D01*
X138060499Y-69352129D01*
X138060498Y-69352123D01*
X138060497Y-69352116D01*
X138054091Y-69292517D01*
X138030356Y-69228881D01*
X138003797Y-69157671D01*
X138003793Y-69157664D01*
X137917547Y-69042455D01*
X137917544Y-69042452D01*
X137802335Y-68956206D01*
X137802328Y-68956202D01*
X137667482Y-68905908D01*
X137667483Y-68905908D01*
X137630560Y-68901939D01*
X137566009Y-68875201D01*
X137526160Y-68817809D01*
X137523667Y-68747984D01*
X137559319Y-68687895D01*
X137570930Y-68678331D01*
X137607219Y-68651966D01*
X137751966Y-68507219D01*
X137751968Y-68507215D01*
X137751971Y-68507213D01*
X137831715Y-68397453D01*
X137872287Y-68341610D01*
X137965220Y-68159219D01*
X138028477Y-67964534D01*
X138060500Y-67762352D01*
X138060500Y-67557648D01*
X138040496Y-67431349D01*
X138028477Y-67355465D01*
X137993894Y-67249031D01*
X137965220Y-67160781D01*
X137965218Y-67160778D01*
X137965218Y-67160776D01*
X137919005Y-67070080D01*
X137872287Y-66978390D01*
X137864556Y-66967749D01*
X137751971Y-66812786D01*
X137607213Y-66668028D01*
X137441614Y-66547715D01*
X137435006Y-66544348D01*
X137348917Y-66500483D01*
X137298123Y-66452511D01*
X137281328Y-66384690D01*
X137303865Y-66318555D01*
X137348917Y-66279516D01*
X137441610Y-66232287D01*
X137462770Y-66216913D01*
X137607213Y-66111971D01*
X137607215Y-66111968D01*
X137607219Y-66111966D01*
X137751966Y-65967219D01*
X137751968Y-65967215D01*
X137751971Y-65967213D01*
X137840322Y-65845606D01*
X137872287Y-65801610D01*
X137965220Y-65619219D01*
X138028477Y-65424534D01*
X138060500Y-65222352D01*
X138060500Y-65017648D01*
X138028477Y-64815466D01*
X138021906Y-64795244D01*
X137965218Y-64620776D01*
X137931503Y-64554607D01*
X137872287Y-64438390D01*
X137864556Y-64427749D01*
X137751971Y-64272786D01*
X137607213Y-64128028D01*
X137441614Y-64007715D01*
X137392091Y-63982482D01*
X137348917Y-63960483D01*
X137298123Y-63912511D01*
X137281328Y-63844690D01*
X137303865Y-63778555D01*
X137348917Y-63739516D01*
X137441610Y-63692287D01*
X137482168Y-63662820D01*
X137607213Y-63571971D01*
X137607215Y-63571968D01*
X137607219Y-63571966D01*
X137751966Y-63427219D01*
X137751968Y-63427215D01*
X137751971Y-63427213D01*
X137857419Y-63282074D01*
X137872287Y-63261610D01*
X137965220Y-63079219D01*
X138028477Y-62884534D01*
X138060500Y-62682352D01*
X138060500Y-62477648D01*
X138049075Y-62405513D01*
X138028477Y-62275465D01*
X138005950Y-62206135D01*
X137995080Y-62172682D01*
X140000000Y-62172682D01*
X140000000Y-62425000D01*
X140984314Y-62425000D01*
X140979920Y-62429394D01*
X140927259Y-62520606D01*
X140900000Y-62622339D01*
X140900000Y-62727661D01*
X140927259Y-62829394D01*
X140979920Y-62920606D01*
X140984314Y-62925000D01*
X140000000Y-62925000D01*
X140000000Y-63177317D01*
X140032009Y-63379417D01*
X140095244Y-63574031D01*
X140188140Y-63756349D01*
X140308417Y-63921894D01*
X140308417Y-63921895D01*
X140453104Y-64066582D01*
X140618650Y-64186859D01*
X140800968Y-64279754D01*
X140995578Y-64342988D01*
X141050000Y-64351607D01*
X141050000Y-62990686D01*
X141054394Y-62995080D01*
X141145606Y-63047741D01*
X141247339Y-63075000D01*
X141352661Y-63075000D01*
X141454394Y-63047741D01*
X141545606Y-62995080D01*
X141550000Y-62990686D01*
X141550000Y-64351606D01*
X141604421Y-64342988D01*
X141799031Y-64279754D01*
X141981349Y-64186859D01*
X142146894Y-64066582D01*
X142146895Y-64066582D01*
X142291582Y-63921895D01*
X142291582Y-63921894D01*
X142411859Y-63756349D01*
X142459515Y-63662820D01*
X142507489Y-63612024D01*
X142575310Y-63595229D01*
X142641445Y-63617766D01*
X142680485Y-63662820D01*
X142728140Y-63756349D01*
X142848417Y-63921894D01*
X142848417Y-63921895D01*
X142993104Y-64066582D01*
X143158650Y-64186859D01*
X143340968Y-64279754D01*
X143535578Y-64342988D01*
X143590000Y-64351607D01*
X143590000Y-62990686D01*
X143594394Y-62995080D01*
X143685606Y-63047741D01*
X143787339Y-63075000D01*
X143892661Y-63075000D01*
X143994394Y-63047741D01*
X144085606Y-62995080D01*
X144090000Y-62990686D01*
X144090000Y-64351606D01*
X144144421Y-64342988D01*
X144339031Y-64279754D01*
X144521349Y-64186859D01*
X144686894Y-64066582D01*
X144686895Y-64066582D01*
X144831582Y-63921895D01*
X144831582Y-63921894D01*
X144951859Y-63756349D01*
X144999515Y-63662820D01*
X145047489Y-63612024D01*
X145115310Y-63595229D01*
X145181445Y-63617766D01*
X145220485Y-63662820D01*
X145268140Y-63756349D01*
X145388417Y-63921894D01*
X145388417Y-63921895D01*
X145533104Y-64066582D01*
X145698650Y-64186859D01*
X145880968Y-64279754D01*
X146075578Y-64342988D01*
X146130000Y-64351607D01*
X146130000Y-62990686D01*
X146134394Y-62995080D01*
X146225606Y-63047741D01*
X146327339Y-63075000D01*
X146432661Y-63075000D01*
X146534394Y-63047741D01*
X146625606Y-62995080D01*
X146630000Y-62990686D01*
X146630000Y-64351606D01*
X146684421Y-64342988D01*
X146879031Y-64279754D01*
X147061349Y-64186859D01*
X147226894Y-64066582D01*
X147226895Y-64066582D01*
X147371582Y-63921895D01*
X147371582Y-63921894D01*
X147491859Y-63756349D01*
X147539515Y-63662820D01*
X147587489Y-63612024D01*
X147655310Y-63595229D01*
X147721445Y-63617766D01*
X147760485Y-63662820D01*
X147808140Y-63756349D01*
X147928417Y-63921894D01*
X147928417Y-63921895D01*
X148073104Y-64066582D01*
X148238650Y-64186859D01*
X148420968Y-64279754D01*
X148615578Y-64342988D01*
X148670000Y-64351607D01*
X148670000Y-62990686D01*
X148674394Y-62995080D01*
X148765606Y-63047741D01*
X148867339Y-63075000D01*
X148972661Y-63075000D01*
X149074394Y-63047741D01*
X149165606Y-62995080D01*
X149170000Y-62990686D01*
X149170000Y-64351606D01*
X149224421Y-64342988D01*
X149419031Y-64279754D01*
X149601349Y-64186859D01*
X149766894Y-64066582D01*
X149766895Y-64066582D01*
X149911582Y-63921895D01*
X149911582Y-63921894D01*
X150031859Y-63756349D01*
X150079515Y-63662820D01*
X150127489Y-63612024D01*
X150195310Y-63595229D01*
X150261445Y-63617766D01*
X150300485Y-63662820D01*
X150348140Y-63756349D01*
X150468417Y-63921894D01*
X150468417Y-63921895D01*
X150613104Y-64066582D01*
X150778650Y-64186859D01*
X150960968Y-64279754D01*
X151155578Y-64342988D01*
X151210000Y-64351607D01*
X151210000Y-62990686D01*
X151214394Y-62995080D01*
X151305606Y-63047741D01*
X151407339Y-63075000D01*
X151512661Y-63075000D01*
X151614394Y-63047741D01*
X151705606Y-62995080D01*
X151710000Y-62990686D01*
X151710000Y-64351606D01*
X151764421Y-64342988D01*
X151959031Y-64279754D01*
X152141349Y-64186859D01*
X152306894Y-64066582D01*
X152306895Y-64066582D01*
X152451582Y-63921895D01*
X152451582Y-63921894D01*
X152571861Y-63756347D01*
X152619234Y-63663371D01*
X152667208Y-63612575D01*
X152735028Y-63595779D01*
X152801164Y-63618316D01*
X152840203Y-63663369D01*
X152887713Y-63756611D01*
X153008028Y-63922213D01*
X153152786Y-64066971D01*
X153307749Y-64179556D01*
X153318390Y-64187287D01*
X153407212Y-64232544D01*
X153500776Y-64280218D01*
X153500778Y-64280218D01*
X153500781Y-64280220D01*
X153605137Y-64314127D01*
X153695465Y-64343477D01*
X153796557Y-64359488D01*
X153897648Y-64375500D01*
X153897649Y-64375500D01*
X154102351Y-64375500D01*
X154102352Y-64375500D01*
X154304534Y-64343477D01*
X154499219Y-64280220D01*
X154681610Y-64187287D01*
X154777901Y-64117328D01*
X154847213Y-64066971D01*
X154847215Y-64066968D01*
X154847219Y-64066966D01*
X154991966Y-63922219D01*
X155018330Y-63885930D01*
X155073658Y-63843265D01*
X155143271Y-63837284D01*
X155205067Y-63869889D01*
X155239426Y-63930726D01*
X155241938Y-63945559D01*
X155245907Y-63982480D01*
X155296202Y-64117328D01*
X155296206Y-64117335D01*
X155382452Y-64232544D01*
X155382455Y-64232547D01*
X155497664Y-64318793D01*
X155497671Y-64318797D01*
X155632517Y-64369091D01*
X155632516Y-64369091D01*
X155639444Y-64369835D01*
X155692127Y-64375500D01*
X157387872Y-64375499D01*
X157447483Y-64369091D01*
X157582331Y-64318796D01*
X157697546Y-64232546D01*
X157783796Y-64117331D01*
X157834091Y-63982483D01*
X157840500Y-63922873D01*
X157840499Y-61427128D01*
X157834091Y-61367517D01*
X157819747Y-61329060D01*
X157783797Y-61232671D01*
X157783793Y-61232664D01*
X157697547Y-61117455D01*
X157697544Y-61117452D01*
X157582335Y-61031206D01*
X157582328Y-61031202D01*
X157447482Y-60980908D01*
X157447483Y-60980908D01*
X157387883Y-60974501D01*
X157387881Y-60974500D01*
X157387873Y-60974500D01*
X157387864Y-60974500D01*
X155692129Y-60974500D01*
X155692123Y-60974501D01*
X155632516Y-60980908D01*
X155497671Y-61031202D01*
X155497664Y-61031206D01*
X155382455Y-61117452D01*
X155382452Y-61117455D01*
X155296206Y-61232664D01*
X155296202Y-61232671D01*
X155245908Y-61367516D01*
X155241939Y-61404440D01*
X155215201Y-61468991D01*
X155157809Y-61508839D01*
X155087983Y-61511332D01*
X155027895Y-61475679D01*
X155018332Y-61464070D01*
X154991967Y-61427782D01*
X154847213Y-61283028D01*
X154681613Y-61162715D01*
X154681612Y-61162714D01*
X154681610Y-61162713D01*
X154624653Y-61133691D01*
X154499223Y-61069781D01*
X154304534Y-61006522D01*
X154129995Y-60978878D01*
X154102352Y-60974500D01*
X153897648Y-60974500D01*
X153873329Y-60978351D01*
X153695465Y-61006522D01*
X153500776Y-61069781D01*
X153318386Y-61162715D01*
X153152786Y-61283028D01*
X153008028Y-61427786D01*
X152887713Y-61593388D01*
X152840203Y-61686630D01*
X152792228Y-61737426D01*
X152724407Y-61754220D01*
X152658272Y-61731682D01*
X152619234Y-61686628D01*
X152571861Y-61593652D01*
X152451582Y-61428105D01*
X152451582Y-61428104D01*
X152306895Y-61283417D01*
X152141349Y-61163140D01*
X151959029Y-61070244D01*
X151764413Y-61007009D01*
X151710000Y-60998390D01*
X151710000Y-62359314D01*
X151705606Y-62354920D01*
X151614394Y-62302259D01*
X151512661Y-62275000D01*
X151407339Y-62275000D01*
X151305606Y-62302259D01*
X151214394Y-62354920D01*
X151210000Y-62359314D01*
X151210000Y-60998390D01*
X151155586Y-61007009D01*
X150960970Y-61070244D01*
X150778650Y-61163140D01*
X150613105Y-61283417D01*
X150613104Y-61283417D01*
X150468417Y-61428104D01*
X150468417Y-61428105D01*
X150348140Y-61593650D01*
X150300485Y-61687179D01*
X150252510Y-61737975D01*
X150184689Y-61754770D01*
X150118554Y-61732232D01*
X150079515Y-61687179D01*
X150031859Y-61593650D01*
X149911582Y-61428105D01*
X149911582Y-61428104D01*
X149766895Y-61283417D01*
X149601349Y-61163140D01*
X149419029Y-61070244D01*
X149224413Y-61007009D01*
X149170000Y-60998390D01*
X149170000Y-62359314D01*
X149165606Y-62354920D01*
X149074394Y-62302259D01*
X148972661Y-62275000D01*
X148867339Y-62275000D01*
X148765606Y-62302259D01*
X148674394Y-62354920D01*
X148670000Y-62359314D01*
X148670000Y-60998390D01*
X148615586Y-61007009D01*
X148420970Y-61070244D01*
X148238650Y-61163140D01*
X148073105Y-61283417D01*
X148073104Y-61283417D01*
X147928417Y-61428104D01*
X147928417Y-61428105D01*
X147808140Y-61593650D01*
X147760485Y-61687179D01*
X147712510Y-61737975D01*
X147644689Y-61754770D01*
X147578554Y-61732232D01*
X147539515Y-61687179D01*
X147491859Y-61593650D01*
X147371582Y-61428105D01*
X147371582Y-61428104D01*
X147226895Y-61283417D01*
X147061349Y-61163140D01*
X146879029Y-61070244D01*
X146684413Y-61007009D01*
X146630000Y-60998390D01*
X146630000Y-62359314D01*
X146625606Y-62354920D01*
X146534394Y-62302259D01*
X146432661Y-62275000D01*
X146327339Y-62275000D01*
X146225606Y-62302259D01*
X146134394Y-62354920D01*
X146130000Y-62359314D01*
X146130000Y-60998390D01*
X146075586Y-61007009D01*
X145880970Y-61070244D01*
X145698650Y-61163140D01*
X145533105Y-61283417D01*
X145533104Y-61283417D01*
X145388417Y-61428104D01*
X145388417Y-61428105D01*
X145268140Y-61593650D01*
X145220485Y-61687179D01*
X145172510Y-61737975D01*
X145104689Y-61754770D01*
X145038554Y-61732232D01*
X144999515Y-61687179D01*
X144951859Y-61593650D01*
X144831582Y-61428105D01*
X144831582Y-61428104D01*
X144686895Y-61283417D01*
X144521349Y-61163140D01*
X144339029Y-61070244D01*
X144144413Y-61007009D01*
X144090000Y-60998390D01*
X144090000Y-62359314D01*
X144085606Y-62354920D01*
X143994394Y-62302259D01*
X143892661Y-62275000D01*
X143787339Y-62275000D01*
X143685606Y-62302259D01*
X143594394Y-62354920D01*
X143590000Y-62359314D01*
X143590000Y-60998390D01*
X143535586Y-61007009D01*
X143340970Y-61070244D01*
X143158650Y-61163140D01*
X142993105Y-61283417D01*
X142993104Y-61283417D01*
X142848417Y-61428104D01*
X142848417Y-61428105D01*
X142728140Y-61593650D01*
X142680485Y-61687179D01*
X142632510Y-61737975D01*
X142564689Y-61754770D01*
X142498554Y-61732232D01*
X142459515Y-61687179D01*
X142411859Y-61593650D01*
X142291582Y-61428105D01*
X142291582Y-61428104D01*
X142146895Y-61283417D01*
X141981349Y-61163140D01*
X141799029Y-61070244D01*
X141604413Y-61007009D01*
X141550000Y-60998390D01*
X141550000Y-62359314D01*
X141545606Y-62354920D01*
X141454394Y-62302259D01*
X141352661Y-62275000D01*
X141247339Y-62275000D01*
X141145606Y-62302259D01*
X141054394Y-62354920D01*
X141050000Y-62359314D01*
X141050000Y-60998390D01*
X140995586Y-61007009D01*
X140800970Y-61070244D01*
X140618650Y-61163140D01*
X140453105Y-61283417D01*
X140453104Y-61283417D01*
X140308417Y-61428104D01*
X140308417Y-61428105D01*
X140188140Y-61593650D01*
X140095244Y-61775968D01*
X140032009Y-61970582D01*
X140000000Y-62172682D01*
X137995080Y-62172682D01*
X137965218Y-62080776D01*
X137931503Y-62014607D01*
X137872287Y-61898390D01*
X137852242Y-61870800D01*
X137751971Y-61732786D01*
X137607213Y-61588028D01*
X137441611Y-61467713D01*
X137348369Y-61420203D01*
X137297574Y-61372229D01*
X137280779Y-61304407D01*
X137303317Y-61238273D01*
X137348371Y-61199234D01*
X137441347Y-61151861D01*
X137606894Y-61031582D01*
X137606895Y-61031582D01*
X137751582Y-60886895D01*
X137751582Y-60886894D01*
X137871859Y-60721349D01*
X137964755Y-60539029D01*
X138027990Y-60344413D01*
X138036609Y-60290000D01*
X136675686Y-60290000D01*
X136680080Y-60285606D01*
X136732741Y-60194394D01*
X136760000Y-60092661D01*
X136760000Y-59987339D01*
X136732741Y-59885606D01*
X136680080Y-59794394D01*
X136675686Y-59790000D01*
X138036609Y-59790000D01*
X138027990Y-59735586D01*
X137964755Y-59540970D01*
X137871859Y-59358650D01*
X137767972Y-59215662D01*
X137767971Y-59215661D01*
X137751585Y-59193107D01*
X137706126Y-59147648D01*
X140059500Y-59147648D01*
X140059500Y-59352351D01*
X140091522Y-59554534D01*
X140154781Y-59749223D01*
X140247715Y-59931613D01*
X140368028Y-60097213D01*
X140512786Y-60241971D01*
X140653788Y-60344413D01*
X140678390Y-60362287D01*
X140794607Y-60421503D01*
X140860776Y-60455218D01*
X140860778Y-60455218D01*
X140860781Y-60455220D01*
X140965137Y-60489127D01*
X141055465Y-60518477D01*
X141156557Y-60534488D01*
X141257648Y-60550500D01*
X141257649Y-60550500D01*
X141462351Y-60550500D01*
X141462352Y-60550500D01*
X141664534Y-60518477D01*
X141859219Y-60455220D01*
X142041610Y-60362287D01*
X142147153Y-60285606D01*
X142207213Y-60241971D01*
X142207215Y-60241968D01*
X142207219Y-60241966D01*
X142351966Y-60097219D01*
X142351968Y-60097215D01*
X142351971Y-60097213D01*
X142431798Y-59987339D01*
X142472287Y-59931610D01*
X142565220Y-59749219D01*
X142628477Y-59554534D01*
X142660500Y-59352352D01*
X142660500Y-59147648D01*
X142650528Y-59084689D01*
X142628477Y-58945465D01*
X142590998Y-58830117D01*
X142565220Y-58750781D01*
X142565218Y-58750778D01*
X142565218Y-58750776D01*
X142518860Y-58659795D01*
X142472287Y-58568390D01*
X142446246Y-58532547D01*
X142351971Y-58402786D01*
X142207213Y-58258028D01*
X142041613Y-58137715D01*
X142041612Y-58137714D01*
X142041610Y-58137713D01*
X141984653Y-58108691D01*
X141859223Y-58044781D01*
X141664534Y-57981522D01*
X141489995Y-57953878D01*
X141462352Y-57949500D01*
X141257648Y-57949500D01*
X141233329Y-57953351D01*
X141055465Y-57981522D01*
X140860776Y-58044781D01*
X140678386Y-58137715D01*
X140512786Y-58258028D01*
X140368028Y-58402786D01*
X140247715Y-58568386D01*
X140154781Y-58750776D01*
X140091522Y-58945465D01*
X140059500Y-59147648D01*
X137706126Y-59147648D01*
X137606895Y-59048417D01*
X137441349Y-58928140D01*
X137348370Y-58880765D01*
X137297574Y-58832790D01*
X137280779Y-58764969D01*
X137303316Y-58698835D01*
X137348370Y-58659795D01*
X137348920Y-58659515D01*
X137441610Y-58612287D01*
X137551364Y-58532547D01*
X137607213Y-58491971D01*
X137607215Y-58491968D01*
X137607219Y-58491966D01*
X137751966Y-58347219D01*
X137751968Y-58347215D01*
X137751971Y-58347213D01*
X137816762Y-58258034D01*
X137872287Y-58181610D01*
X137965220Y-57999219D01*
X138028477Y-57804534D01*
X138060500Y-57602352D01*
X138060500Y-57397648D01*
X138049075Y-57325513D01*
X138028477Y-57195465D01*
X137999127Y-57105137D01*
X137965220Y-57000781D01*
X137965218Y-57000778D01*
X137965218Y-57000776D01*
X137899123Y-56871059D01*
X137872287Y-56818390D01*
X137852242Y-56790800D01*
X137751971Y-56652786D01*
X137607213Y-56508028D01*
X137441614Y-56387715D01*
X137435006Y-56384348D01*
X137348917Y-56340483D01*
X137298123Y-56292511D01*
X137281328Y-56224690D01*
X137303865Y-56158555D01*
X137348917Y-56119516D01*
X137441610Y-56072287D01*
X137462770Y-56056913D01*
X137607213Y-55951971D01*
X137607215Y-55951968D01*
X137607219Y-55951966D01*
X137751966Y-55807219D01*
X137751968Y-55807215D01*
X137751971Y-55807213D01*
X137804732Y-55734590D01*
X137872287Y-55641610D01*
X137965220Y-55459219D01*
X138028477Y-55264534D01*
X138060500Y-55062352D01*
X138060500Y-54857648D01*
X138052257Y-54805606D01*
X138028477Y-54655465D01*
X137965218Y-54460776D01*
X137872419Y-54278650D01*
X137872287Y-54278390D01*
X137864556Y-54267749D01*
X137751971Y-54112786D01*
X137607213Y-53968028D01*
X137441611Y-53847713D01*
X137348369Y-53800203D01*
X137297574Y-53752229D01*
X137280779Y-53684407D01*
X137303317Y-53618273D01*
X137348371Y-53579234D01*
X137441347Y-53531861D01*
X137606894Y-53411582D01*
X137606895Y-53411582D01*
X137751582Y-53266895D01*
X137751582Y-53266894D01*
X137871859Y-53101349D01*
X137964755Y-52919029D01*
X138027990Y-52724413D01*
X138036609Y-52670000D01*
X136675686Y-52670000D01*
X136680080Y-52665606D01*
X136732741Y-52574394D01*
X136760000Y-52472661D01*
X136760000Y-52367339D01*
X136732741Y-52265606D01*
X136680080Y-52174394D01*
X136675686Y-52170000D01*
X138036609Y-52170000D01*
X138027990Y-52115586D01*
X137964755Y-51920970D01*
X137871859Y-51738649D01*
X137855158Y-51715663D01*
X137855157Y-51715662D01*
X137805742Y-51647648D01*
X140059500Y-51647648D01*
X140059500Y-51852351D01*
X140091522Y-52054534D01*
X140154781Y-52249223D01*
X140247715Y-52431613D01*
X140368028Y-52597213D01*
X140512786Y-52741971D01*
X140620186Y-52820000D01*
X140678390Y-52862287D01*
X140789752Y-52919029D01*
X140860776Y-52955218D01*
X140860778Y-52955218D01*
X140860781Y-52955220D01*
X140965137Y-52989127D01*
X141055465Y-53018477D01*
X141156557Y-53034488D01*
X141257648Y-53050500D01*
X141257649Y-53050500D01*
X141462351Y-53050500D01*
X141462352Y-53050500D01*
X141664534Y-53018477D01*
X141859219Y-52955220D01*
X142041610Y-52862287D01*
X142196522Y-52749738D01*
X142207213Y-52741971D01*
X142207215Y-52741968D01*
X142207219Y-52741966D01*
X142351966Y-52597219D01*
X142351968Y-52597215D01*
X142351971Y-52597213D01*
X142406360Y-52522351D01*
X142472287Y-52431610D01*
X142565220Y-52249219D01*
X142628477Y-52054534D01*
X142660500Y-51852352D01*
X142660500Y-51647648D01*
X142628477Y-51445466D01*
X142622937Y-51428417D01*
X142565218Y-51250776D01*
X142514645Y-51151522D01*
X142472287Y-51068390D01*
X142460463Y-51052116D01*
X142351971Y-50902786D01*
X142207213Y-50758028D01*
X142041613Y-50637715D01*
X142041612Y-50637714D01*
X142041610Y-50637713D01*
X141966613Y-50599500D01*
X141859223Y-50544781D01*
X141664534Y-50481522D01*
X141489995Y-50453878D01*
X141462352Y-50449500D01*
X141257648Y-50449500D01*
X141233329Y-50453351D01*
X141055465Y-50481522D01*
X140860776Y-50544781D01*
X140678386Y-50637715D01*
X140512786Y-50758028D01*
X140368028Y-50902786D01*
X140247715Y-51068386D01*
X140154781Y-51250776D01*
X140091522Y-51445465D01*
X140059500Y-51647648D01*
X137805742Y-51647648D01*
X137751582Y-51573104D01*
X137606895Y-51428417D01*
X137441349Y-51308140D01*
X137259031Y-51215244D01*
X137064417Y-51152009D01*
X136862317Y-51120000D01*
X136610000Y-51120000D01*
X136610000Y-52104314D01*
X136605606Y-52099920D01*
X136514394Y-52047259D01*
X136412661Y-52020000D01*
X136307339Y-52020000D01*
X136205606Y-52047259D01*
X136114394Y-52099920D01*
X136110000Y-52104314D01*
X136110000Y-51120000D01*
X135857683Y-51120000D01*
X135655582Y-51152009D01*
X135460968Y-51215244D01*
X135278650Y-51308140D01*
X135113105Y-51428417D01*
X135113104Y-51428417D01*
X134968417Y-51573104D01*
X134968417Y-51573105D01*
X134848140Y-51738650D01*
X134755244Y-51920970D01*
X134692009Y-52115586D01*
X134683391Y-52170000D01*
X136044314Y-52170000D01*
X136039920Y-52174394D01*
X135987259Y-52265606D01*
X135960000Y-52367339D01*
X135960000Y-52472661D01*
X135987259Y-52574394D01*
X136039920Y-52665606D01*
X136044314Y-52670000D01*
X134683391Y-52670000D01*
X134692009Y-52724413D01*
X134755244Y-52919029D01*
X134848140Y-53101349D01*
X134968417Y-53266894D01*
X134968417Y-53266895D01*
X135113104Y-53411582D01*
X135278652Y-53531861D01*
X135371628Y-53579234D01*
X135422425Y-53627208D01*
X135439220Y-53695029D01*
X135416683Y-53761164D01*
X135371630Y-53800203D01*
X135278388Y-53847713D01*
X135112786Y-53968028D01*
X134968028Y-54112786D01*
X134847715Y-54278386D01*
X134754781Y-54460776D01*
X134691522Y-54655465D01*
X134659500Y-54857648D01*
X129126685Y-54857648D01*
X129112741Y-54805606D01*
X129060080Y-54714394D01*
X129055686Y-54710000D01*
X130416609Y-54710000D01*
X130407990Y-54655586D01*
X130344755Y-54460970D01*
X130251859Y-54278650D01*
X130131582Y-54113105D01*
X130131582Y-54113104D01*
X129986895Y-53968417D01*
X129821349Y-53848140D01*
X129728370Y-53800765D01*
X129677574Y-53752790D01*
X129660779Y-53684969D01*
X129683316Y-53618835D01*
X129728370Y-53579795D01*
X129729471Y-53579234D01*
X129821610Y-53532287D01*
X129842770Y-53516913D01*
X129987213Y-53411971D01*
X129987215Y-53411968D01*
X129987219Y-53411966D01*
X130131966Y-53267219D01*
X130131968Y-53267215D01*
X130131971Y-53267213D01*
X130184732Y-53194590D01*
X130252287Y-53101610D01*
X130345220Y-52919219D01*
X130408477Y-52724534D01*
X130440500Y-52522352D01*
X130440500Y-52317648D01*
X130408477Y-52115466D01*
X130345220Y-51920781D01*
X130345218Y-51920778D01*
X130345218Y-51920776D01*
X130252419Y-51738650D01*
X130252287Y-51738390D01*
X130186360Y-51647648D01*
X130131971Y-51572786D01*
X129987213Y-51428028D01*
X129821613Y-51307715D01*
X129821612Y-51307714D01*
X129821610Y-51307713D01*
X129764653Y-51278691D01*
X129639223Y-51214781D01*
X129444534Y-51151522D01*
X129269995Y-51123878D01*
X129242352Y-51119500D01*
X128237648Y-51119500D01*
X128213329Y-51123351D01*
X128035465Y-51151522D01*
X127840776Y-51214781D01*
X127658386Y-51307715D01*
X127492786Y-51428028D01*
X127348028Y-51572786D01*
X127227715Y-51738386D01*
X127134781Y-51920776D01*
X127071522Y-52115465D01*
X127039500Y-52317648D01*
X126625499Y-52317648D01*
X126625499Y-51920970D01*
X126625499Y-51052129D01*
X126625498Y-51052123D01*
X126625497Y-51052116D01*
X126619091Y-50992517D01*
X126568796Y-50857669D01*
X126568795Y-50857668D01*
X126568793Y-50857664D01*
X126482547Y-50742455D01*
X126482544Y-50742452D01*
X126367335Y-50656206D01*
X126367329Y-50656203D01*
X126316552Y-50637264D01*
X126260619Y-50595392D01*
X126236202Y-50529927D01*
X126251054Y-50461655D01*
X126272206Y-50433401D01*
X126293242Y-50412365D01*
X126422815Y-50234022D01*
X126522895Y-50037606D01*
X126591015Y-49827951D01*
X126625500Y-49610222D01*
X126625500Y-49389778D01*
X126591015Y-49172049D01*
X126522895Y-48962394D01*
X126522895Y-48962393D01*
X126488237Y-48894375D01*
X126422815Y-48765978D01*
X126406260Y-48743192D01*
X126293247Y-48587641D01*
X126293243Y-48587636D01*
X126137365Y-48431758D01*
X126137357Y-48431752D01*
X126025270Y-48350317D01*
X125982606Y-48294989D01*
X125976627Y-48225376D01*
X126009232Y-48163580D01*
X126025265Y-48149686D01*
X126137365Y-48068242D01*
X126293242Y-47912365D01*
X126422815Y-47734022D01*
X126522895Y-47537606D01*
X126559715Y-47424284D01*
X126599152Y-47366608D01*
X126663510Y-47339409D01*
X126732356Y-47351323D01*
X126783833Y-47398567D01*
X126795576Y-47424281D01*
X126807452Y-47460832D01*
X126846571Y-47537606D01*
X126893240Y-47629199D01*
X127004310Y-47782073D01*
X127137927Y-47915690D01*
X127290801Y-48026760D01*
X127370347Y-48067290D01*
X127459163Y-48112545D01*
X127459165Y-48112545D01*
X127459168Y-48112547D01*
X127555497Y-48143846D01*
X127638881Y-48170940D01*
X127825514Y-48200500D01*
X127825519Y-48200500D01*
X128014486Y-48200500D01*
X128201118Y-48170940D01*
X128202623Y-48170451D01*
X128380832Y-48112547D01*
X128549199Y-48026760D01*
X128702073Y-47915690D01*
X128835690Y-47782073D01*
X128946760Y-47629199D01*
X129032547Y-47460832D01*
X129090940Y-47281118D01*
X129095868Y-47250000D01*
X131824638Y-47250000D01*
X131829548Y-47281002D01*
X131887914Y-47460637D01*
X131973670Y-47628940D01*
X132084685Y-47781741D01*
X132084689Y-47781746D01*
X132218253Y-47915310D01*
X132218258Y-47915314D01*
X132371059Y-48026329D01*
X132539362Y-48112085D01*
X132718997Y-48170451D01*
X132750000Y-48175362D01*
X132750000Y-48175361D01*
X133250000Y-48175361D01*
X133281002Y-48170451D01*
X133460637Y-48112085D01*
X133628940Y-48026329D01*
X133781741Y-47915314D01*
X133781746Y-47915310D01*
X133915310Y-47781746D01*
X133915314Y-47781741D01*
X134026329Y-47628940D01*
X134112085Y-47460637D01*
X134170451Y-47281002D01*
X134175362Y-47250000D01*
X133250000Y-47250000D01*
X133250000Y-48175361D01*
X132750000Y-48175361D01*
X132750000Y-47250000D01*
X131824638Y-47250000D01*
X129095868Y-47250000D01*
X129107363Y-47177423D01*
X129120500Y-47094485D01*
X129120500Y-46953922D01*
X132650000Y-46953922D01*
X132650000Y-47046078D01*
X132673852Y-47135095D01*
X132719930Y-47214905D01*
X132785095Y-47280070D01*
X132864905Y-47326148D01*
X132953922Y-47350000D01*
X133046078Y-47350000D01*
X133135095Y-47326148D01*
X133214905Y-47280070D01*
X133280070Y-47214905D01*
X133326148Y-47135095D01*
X133350000Y-47046078D01*
X133350000Y-46953922D01*
X133326148Y-46864905D01*
X133280070Y-46785095D01*
X133244975Y-46750000D01*
X133250000Y-46750000D01*
X134175362Y-46750000D01*
X134170451Y-46718997D01*
X134112085Y-46539362D01*
X134026329Y-46371059D01*
X133915314Y-46218258D01*
X133915310Y-46218253D01*
X133781746Y-46084689D01*
X133781741Y-46084685D01*
X133628940Y-45973670D01*
X133460635Y-45887913D01*
X133281004Y-45829549D01*
X133280995Y-45829547D01*
X133250000Y-45824637D01*
X133250000Y-46750000D01*
X133244975Y-46750000D01*
X133214905Y-46719930D01*
X133135095Y-46673852D01*
X133046078Y-46650000D01*
X132953922Y-46650000D01*
X132864905Y-46673852D01*
X132785095Y-46719930D01*
X132719930Y-46785095D01*
X132673852Y-46864905D01*
X132650000Y-46953922D01*
X129120500Y-46953922D01*
X129120500Y-46905514D01*
X129104811Y-46806462D01*
X129104811Y-46806460D01*
X129095869Y-46750000D01*
X131824638Y-46750000D01*
X132750000Y-46750000D01*
X132750000Y-45824637D01*
X132749999Y-45824637D01*
X132719004Y-45829547D01*
X132718995Y-45829549D01*
X132539364Y-45887913D01*
X132371059Y-45973670D01*
X132218258Y-46084685D01*
X132218253Y-46084689D01*
X132084689Y-46218253D01*
X132084685Y-46218258D01*
X131973670Y-46371059D01*
X131887914Y-46539362D01*
X131829548Y-46718997D01*
X131824638Y-46750000D01*
X129095869Y-46750000D01*
X129090940Y-46718882D01*
X129090940Y-46718881D01*
X129032545Y-46539163D01*
X128947479Y-46372213D01*
X128946760Y-46370801D01*
X128835690Y-46217927D01*
X128702073Y-46084310D01*
X128549199Y-45973240D01*
X128380836Y-45887454D01*
X128201118Y-45829059D01*
X128014486Y-45799500D01*
X128014481Y-45799500D01*
X127825519Y-45799500D01*
X127825514Y-45799500D01*
X127638881Y-45829059D01*
X127459163Y-45887454D01*
X127290800Y-45973240D01*
X127203579Y-46036610D01*
X127137927Y-46084310D01*
X127137925Y-46084312D01*
X127137924Y-46084312D01*
X127004312Y-46217924D01*
X127004312Y-46217925D01*
X127004310Y-46217927D01*
X127004070Y-46218258D01*
X126893240Y-46370800D01*
X126807453Y-46539166D01*
X126795576Y-46575719D01*
X126756137Y-46633394D01*
X126691778Y-46660590D01*
X126622932Y-46648674D01*
X126571457Y-46601429D01*
X126559715Y-46575715D01*
X126522897Y-46462399D01*
X126522895Y-46462393D01*
X126476357Y-46371059D01*
X126422815Y-46265978D01*
X126387902Y-46217924D01*
X126293247Y-46087641D01*
X126293243Y-46087636D01*
X126137363Y-45931756D01*
X126137358Y-45931752D01*
X125959025Y-45802187D01*
X125959024Y-45802186D01*
X125959022Y-45802185D01*
X125896096Y-45770122D01*
X125762606Y-45702104D01*
X125762603Y-45702103D01*
X125552952Y-45633985D01*
X125444086Y-45616742D01*
X125335222Y-45599500D01*
X125114778Y-45599500D01*
X125042201Y-45610995D01*
X124897047Y-45633985D01*
X124687396Y-45702103D01*
X124687393Y-45702104D01*
X124490974Y-45802187D01*
X124312641Y-45931752D01*
X124312636Y-45931756D01*
X124156756Y-46087636D01*
X124156752Y-46087641D01*
X124027187Y-46265974D01*
X123927104Y-46462393D01*
X123927103Y-46462396D01*
X123858985Y-46672047D01*
X123824500Y-46889778D01*
X109000500Y-46889778D01*
X109000500Y-44578048D01*
X115604500Y-44578048D01*
X115604500Y-44821951D01*
X115631013Y-45023333D01*
X115636334Y-45063744D01*
X115636335Y-45063746D01*
X115699456Y-45299320D01*
X115699459Y-45299330D01*
X115792786Y-45524640D01*
X115792791Y-45524651D01*
X115914727Y-45735848D01*
X115914738Y-45735864D01*
X116063199Y-45929343D01*
X116063205Y-45929350D01*
X116235649Y-46101794D01*
X116235655Y-46101799D01*
X116429144Y-46250268D01*
X116429151Y-46250272D01*
X116640348Y-46372208D01*
X116640353Y-46372210D01*
X116640356Y-46372212D01*
X116865679Y-46465544D01*
X117101256Y-46528666D01*
X117343056Y-46560500D01*
X117343063Y-46560500D01*
X118106937Y-46560500D01*
X118106944Y-46560500D01*
X118348744Y-46528666D01*
X118584321Y-46465544D01*
X118809644Y-46372212D01*
X119020856Y-46250268D01*
X119214345Y-46101799D01*
X119386799Y-45929345D01*
X119535268Y-45735856D01*
X119657212Y-45524644D01*
X119750544Y-45299321D01*
X119813666Y-45063744D01*
X119845500Y-44821944D01*
X119845500Y-44578056D01*
X119813666Y-44336256D01*
X119750544Y-44100679D01*
X119657212Y-43875356D01*
X119657210Y-43875353D01*
X119657208Y-43875348D01*
X119535272Y-43664151D01*
X119535268Y-43664144D01*
X119386799Y-43470655D01*
X119386794Y-43470649D01*
X119214350Y-43298205D01*
X119214343Y-43298199D01*
X119020864Y-43149738D01*
X119020862Y-43149736D01*
X119020856Y-43149732D01*
X119020851Y-43149729D01*
X119020848Y-43149727D01*
X118809651Y-43027791D01*
X118809640Y-43027786D01*
X118584330Y-42934459D01*
X118584323Y-42934457D01*
X118584321Y-42934456D01*
X118348744Y-42871334D01*
X118308333Y-42866013D01*
X118106951Y-42839500D01*
X118106944Y-42839500D01*
X117343056Y-42839500D01*
X117343048Y-42839500D01*
X117112896Y-42869801D01*
X117101256Y-42871334D01*
X116865679Y-42934456D01*
X116865669Y-42934459D01*
X116640359Y-43027786D01*
X116640348Y-43027791D01*
X116429151Y-43149727D01*
X116429135Y-43149738D01*
X116235656Y-43298199D01*
X116235649Y-43298205D01*
X116063205Y-43470649D01*
X116063199Y-43470656D01*
X115914738Y-43664135D01*
X115914727Y-43664151D01*
X115792791Y-43875348D01*
X115792786Y-43875359D01*
X115699459Y-44100669D01*
X115699456Y-44100679D01*
X115636335Y-44336253D01*
X115636333Y-44336264D01*
X115604500Y-44578048D01*
X109000500Y-44578048D01*
X109000500Y-42624500D01*
X109020185Y-42557461D01*
X109072989Y-42511706D01*
X109124500Y-42500500D01*
X161875500Y-42500500D01*
X161942539Y-42520185D01*
G37*
%TD.AperFunction*%
%TD*%
M02*
