%TF.GenerationSoftware,KiCad,Pcbnew,9.0.5-9.0.5~ubuntu25.04.1*%
%TF.CreationDate,2025-11-06T11:13:41-06:00*%
%TF.ProjectId,Signal_Board,5369676e-616c-45f4-926f-6172642e6b69,rev?*%
%TF.SameCoordinates,Original*%
%TF.FileFunction,Legend,Bot*%
%TF.FilePolarity,Positive*%
%FSLAX46Y46*%
G04 Gerber Fmt 4.6, Leading zero omitted, Abs format (unit mm)*
G04 Created by KiCad (PCBNEW 9.0.5-9.0.5~ubuntu25.04.1) date 2025-11-06 11:13:41*
%MOMM*%
%LPD*%
G01*
G04 APERTURE LIST*
G04 Aperture macros list*
%AMRoundRect*
0 Rectangle with rounded corners*
0 $1 Rounding radius*
0 $2 $3 $4 $5 $6 $7 $8 $9 X,Y pos of 4 corners*
0 Add a 4 corners polygon primitive as box body*
4,1,4,$2,$3,$4,$5,$6,$7,$8,$9,$2,$3,0*
0 Add four circle primitives for the rounded corners*
1,1,$1+$1,$2,$3*
1,1,$1+$1,$4,$5*
1,1,$1+$1,$6,$7*
1,1,$1+$1,$8,$9*
0 Add four rect primitives between the rounded corners*
20,1,$1+$1,$2,$3,$4,$5,0*
20,1,$1+$1,$4,$5,$6,$7,0*
20,1,$1+$1,$6,$7,$8,$9,0*
20,1,$1+$1,$8,$9,$2,$3,0*%
G04 Aperture macros list end*
%ADD10C,1.600000*%
%ADD11O,1.600000X1.600000*%
%ADD12R,1.600000X2.400000*%
%ADD13O,1.600000X2.400000*%
%ADD14R,3.000000X3.000000*%
%ADD15C,3.000000*%
%ADD16RoundRect,0.262500X-0.262500X-0.487500X0.262500X-0.487500X0.262500X0.487500X-0.262500X0.487500X0*%
%ADD17R,1.050000X1.500000*%
%ADD18C,1.400000*%
%ADD19O,1.400000X1.400000*%
%ADD20R,2.400000X1.600000*%
%ADD21O,2.400000X1.600000*%
%ADD22O,3.240000X2.720000*%
%ADD23R,1.800000X1.800000*%
%ADD24C,1.800000*%
G04 APERTURE END LIST*
%LPC*%
D10*
%TO.C,C5*%
X156250000Y-74500000D03*
D11*
X148750000Y-74500000D03*
%TD*%
D12*
%TO.C,U1*%
X156540000Y-62675000D03*
D13*
X154000000Y-62675000D03*
X151460000Y-62675000D03*
X148920000Y-62675000D03*
X146380000Y-62675000D03*
X143840000Y-62675000D03*
X141300000Y-62675000D03*
X141300000Y-70295000D03*
X143840000Y-70295000D03*
X146380000Y-70295000D03*
X148920000Y-70295000D03*
X151460000Y-70295000D03*
X154000000Y-70295000D03*
X156540000Y-70295000D03*
%TD*%
D14*
%TO.C,J2*%
X158500000Y-80500000D03*
D15*
X153420000Y-80500000D03*
X148340000Y-80500000D03*
X143260000Y-80500000D03*
X138180000Y-80500000D03*
X133100000Y-80500000D03*
%TD*%
D16*
%TO.C,U2*%
X116290000Y-71250000D03*
D17*
X113750000Y-71250000D03*
D16*
X115020000Y-71250000D03*
%TD*%
D10*
%TO.C,C3*%
X115250000Y-66000000D03*
D11*
X122750000Y-66000000D03*
%TD*%
D10*
%TO.C,C1*%
X141360000Y-51750000D03*
D11*
X141360000Y-59250000D03*
%TD*%
D18*
%TO.C,R6*%
X119000000Y-69510000D03*
D19*
X119000000Y-74590000D03*
%TD*%
D18*
%TO.C,R4*%
X114860000Y-62500000D03*
D19*
X114860000Y-57420000D03*
%TD*%
D18*
%TO.C,R2*%
X124850000Y-60000000D03*
D19*
X119770000Y-60000000D03*
%TD*%
D20*
%TO.C,U3*%
X136360000Y-70200000D03*
D21*
X136360000Y-67660000D03*
X136360000Y-65120000D03*
X136360000Y-62580000D03*
X136360000Y-60040000D03*
X136360000Y-57500000D03*
X136360000Y-54960000D03*
X136360000Y-52420000D03*
X128740000Y-52420000D03*
X128740000Y-54960000D03*
X128740000Y-57500000D03*
X128740000Y-60040000D03*
X128740000Y-62580000D03*
X128740000Y-65120000D03*
X128740000Y-67660000D03*
X128740000Y-70200000D03*
%TD*%
D18*
%TO.C,R1*%
X124860000Y-57500000D03*
D19*
X119780000Y-57500000D03*
%TD*%
D18*
%TO.C,R5*%
X121500000Y-69510000D03*
D19*
X121500000Y-74590000D03*
%TD*%
D10*
%TO.C,C2*%
X110500000Y-74250000D03*
D11*
X110500000Y-66750000D03*
%TD*%
D10*
%TO.C,C4*%
X128610000Y-74000000D03*
D11*
X136110000Y-74000000D03*
%TD*%
D22*
%TO.C,RV1*%
X117725000Y-54300000D03*
X117725000Y-44700000D03*
D23*
X125225000Y-52000000D03*
D24*
X125225000Y-49500000D03*
X125225000Y-47000000D03*
%TD*%
D18*
%TO.C,R3*%
X127920000Y-47000000D03*
D19*
X133000000Y-47000000D03*
%TD*%
D14*
%TO.C,J1*%
X112960000Y-80500000D03*
D15*
X118040000Y-80500000D03*
%TD*%
%LPD*%
M02*
