G04 #@! TF.GenerationSoftware,KiCad,Pcbnew,9.0.5-9.0.5~ubuntu25.04.1*
G04 #@! TF.CreationDate,2025-12-03T04:07:11-06:00*
G04 #@! TF.ProjectId,Signal_Board,5369676e-616c-45f4-926f-6172642e6b69,rev?*
G04 #@! TF.SameCoordinates,Original*
G04 #@! TF.FileFunction,Copper,L1,Top*
G04 #@! TF.FilePolarity,Positive*
%FSLAX46Y46*%
G04 Gerber Fmt 4.6, Leading zero omitted, Abs format (unit mm)*
G04 Created by KiCad (PCBNEW 9.0.5-9.0.5~ubuntu25.04.1) date 2025-12-03 04:07:11*
%MOMM*%
%LPD*%
G01*
G04 APERTURE LIST*
G04 Aperture macros list*
%AMRoundRect*
0 Rectangle with rounded corners*
0 $1 Rounding radius*
0 $2 $3 $4 $5 $6 $7 $8 $9 X,Y pos of 4 corners*
0 Add a 4 corners polygon primitive as box body*
4,1,4,$2,$3,$4,$5,$6,$7,$8,$9,$2,$3,0*
0 Add four circle primitives for the rounded corners*
1,1,$1+$1,$2,$3*
1,1,$1+$1,$4,$5*
1,1,$1+$1,$6,$7*
1,1,$1+$1,$8,$9*
0 Add four rect primitives between the rounded corners*
20,1,$1+$1,$2,$3,$4,$5,0*
20,1,$1+$1,$4,$5,$6,$7,0*
20,1,$1+$1,$6,$7,$8,$9,0*
20,1,$1+$1,$8,$9,$2,$3,0*%
G04 Aperture macros list end*
G04 #@! TA.AperFunction,ComponentPad*
%ADD10C,2.000000*%
G04 #@! TD*
G04 #@! TA.AperFunction,ComponentPad*
%ADD11C,1.600000*%
G04 #@! TD*
G04 #@! TA.AperFunction,ComponentPad*
%ADD12O,1.600000X1.600000*%
G04 #@! TD*
G04 #@! TA.AperFunction,ComponentPad*
%ADD13R,1.600000X2.400000*%
G04 #@! TD*
G04 #@! TA.AperFunction,ComponentPad*
%ADD14O,1.600000X2.400000*%
G04 #@! TD*
G04 #@! TA.AperFunction,ComponentPad*
%ADD15R,3.000000X3.000000*%
G04 #@! TD*
G04 #@! TA.AperFunction,ComponentPad*
%ADD16C,3.000000*%
G04 #@! TD*
G04 #@! TA.AperFunction,ComponentPad*
%ADD17RoundRect,0.262500X-0.262500X-0.487500X0.262500X-0.487500X0.262500X0.487500X-0.262500X0.487500X0*%
G04 #@! TD*
G04 #@! TA.AperFunction,ComponentPad*
%ADD18R,1.050000X1.500000*%
G04 #@! TD*
G04 #@! TA.AperFunction,ComponentPad*
%ADD19C,1.400000*%
G04 #@! TD*
G04 #@! TA.AperFunction,ComponentPad*
%ADD20O,1.400000X1.400000*%
G04 #@! TD*
G04 #@! TA.AperFunction,ComponentPad*
%ADD21R,2.400000X1.600000*%
G04 #@! TD*
G04 #@! TA.AperFunction,ComponentPad*
%ADD22O,2.400000X1.600000*%
G04 #@! TD*
G04 #@! TA.AperFunction,ComponentPad*
%ADD23O,3.240000X2.720000*%
G04 #@! TD*
G04 #@! TA.AperFunction,ComponentPad*
%ADD24R,1.800000X1.800000*%
G04 #@! TD*
G04 #@! TA.AperFunction,ComponentPad*
%ADD25C,1.800000*%
G04 #@! TD*
G04 #@! TA.AperFunction,Conductor*
%ADD26C,1.000000*%
G04 #@! TD*
G04 APERTURE END LIST*
D10*
X160000000Y-64000000D03*
X160000000Y-59500000D03*
D11*
X156250000Y-74500000D03*
D12*
X148750000Y-74500000D03*
D13*
X156540000Y-62675000D03*
D14*
X154000000Y-62675000D03*
X151460000Y-62675000D03*
X148920000Y-62675000D03*
X146380000Y-62675000D03*
X143840000Y-62675000D03*
X141300000Y-62675000D03*
X141300000Y-70295000D03*
X143840000Y-70295000D03*
X146380000Y-70295000D03*
X148920000Y-70295000D03*
X151460000Y-70295000D03*
X154000000Y-70295000D03*
X156540000Y-70295000D03*
D15*
X158500000Y-80500000D03*
D16*
X153420000Y-80500000D03*
X148340000Y-80500000D03*
X143260000Y-80500000D03*
X138180000Y-80500000D03*
X133100000Y-80500000D03*
D17*
X119340000Y-73450000D03*
D18*
X116800000Y-73450000D03*
D17*
X118070000Y-73450000D03*
D11*
X124750000Y-73000000D03*
D12*
X124750000Y-80500000D03*
D11*
X141360000Y-51750000D03*
D12*
X141360000Y-59250000D03*
D19*
X118440000Y-66750000D03*
D20*
X126060000Y-66750000D03*
D19*
X111000000Y-59560000D03*
D20*
X111000000Y-51940000D03*
D19*
X124850000Y-60000000D03*
D20*
X117230000Y-60000000D03*
D21*
X136360000Y-70200000D03*
D22*
X136360000Y-67660000D03*
X136360000Y-65120000D03*
X136360000Y-62580000D03*
X136360000Y-60040000D03*
X136360000Y-57500000D03*
X136360000Y-54960000D03*
X136360000Y-52420000D03*
X128740000Y-52420000D03*
X128740000Y-54960000D03*
X128740000Y-57500000D03*
X128740000Y-60040000D03*
X128740000Y-62580000D03*
X128740000Y-65120000D03*
X128740000Y-67660000D03*
X128740000Y-70200000D03*
D19*
X124860000Y-57500000D03*
D20*
X117240000Y-57500000D03*
D19*
X126060000Y-69250000D03*
D20*
X118440000Y-69250000D03*
D11*
X112750000Y-74000000D03*
D12*
X112750000Y-66500000D03*
D11*
X128610000Y-74000000D03*
D12*
X136110000Y-74000000D03*
D10*
X115500000Y-63500000D03*
D23*
X117725000Y-54300000D03*
X117725000Y-44700000D03*
D24*
X125225000Y-52000000D03*
D25*
X125225000Y-49500000D03*
X125225000Y-47000000D03*
D19*
X127920000Y-47000000D03*
D20*
X135540000Y-47000000D03*
D15*
X114420000Y-80500000D03*
D16*
X119500000Y-80500000D03*
D10*
X160000000Y-68500000D03*
D26*
X136360000Y-57500000D02*
X141000000Y-57500000D01*
X141000000Y-57500000D02*
X141360000Y-57860000D01*
X141360000Y-57860000D02*
X141360000Y-59250000D01*
X118440000Y-66750000D02*
X118440000Y-69250000D01*
X119340000Y-70150000D02*
X119340000Y-73450000D01*
X118440000Y-69250000D02*
X119340000Y-70150000D01*
X128740000Y-57500000D02*
X124860000Y-57500000D01*
X136440000Y-62500000D02*
X138190000Y-62500000D01*
X139940000Y-60750000D02*
X155750000Y-60750000D01*
X138190000Y-62500000D02*
X139940000Y-60750000D01*
X136360000Y-62580000D02*
X136440000Y-62500000D01*
X124850000Y-60000000D02*
X128700000Y-60000000D01*
X128700000Y-60000000D02*
X128740000Y-60040000D01*
X127500000Y-49500000D02*
X128740000Y-50740000D01*
X128740000Y-50740000D02*
X128740000Y-52420000D01*
X125225000Y-49500000D02*
X127500000Y-49500000D01*
X141360000Y-51750000D02*
X141360000Y-54140000D01*
X141360000Y-54140000D02*
X140540000Y-54960000D01*
X140540000Y-54960000D02*
X136360000Y-54960000D01*
X154000000Y-62675000D02*
X154000000Y-64500000D01*
X157500000Y-68000000D02*
X159500000Y-68000000D01*
X159500000Y-68000000D02*
X160000000Y-68500000D01*
X154000000Y-64500000D02*
X157500000Y-68000000D01*
X125165000Y-51940000D02*
X125225000Y-52000000D01*
X111000000Y-51940000D02*
X125165000Y-51940000D01*
X125225000Y-47000000D02*
X127920000Y-47000000D01*
G04 #@! TA.AperFunction,Conductor*
G36*
X159111874Y-58258320D02*
G01*
X159870591Y-59017037D01*
X159807007Y-59034075D01*
X159692993Y-59099901D01*
X159599901Y-59192993D01*
X159534075Y-59307007D01*
X159517037Y-59370591D01*
X158777340Y-58630894D01*
X158717084Y-58713830D01*
X158609897Y-58924197D01*
X158536934Y-59148752D01*
X158500000Y-59381947D01*
X158500000Y-59618052D01*
X158536934Y-59851247D01*
X158609897Y-60075802D01*
X158717087Y-60286174D01*
X158852347Y-60472344D01*
X158875827Y-60538150D01*
X158860002Y-60606204D01*
X158831412Y-60640488D01*
X157997716Y-61335235D01*
X157933613Y-61363031D01*
X157864659Y-61351757D01*
X157812746Y-61304994D01*
X157802151Y-61283310D01*
X157783353Y-61232911D01*
X157783350Y-61232906D01*
X157697190Y-61117812D01*
X157697187Y-61117809D01*
X157582093Y-61031649D01*
X157582086Y-61031645D01*
X157447379Y-60981403D01*
X157447372Y-60981401D01*
X157387844Y-60975000D01*
X156790000Y-60975000D01*
X156790000Y-62359314D01*
X156785606Y-62354920D01*
X156694394Y-62302259D01*
X156592661Y-62275000D01*
X156487339Y-62275000D01*
X156385606Y-62302259D01*
X156294394Y-62354920D01*
X156290000Y-62359314D01*
X156290000Y-60975000D01*
X155692172Y-60975000D01*
X155637255Y-60980904D01*
X155568495Y-60968498D01*
X155517358Y-60920887D01*
X155500000Y-60857614D01*
X155500000Y-60309597D01*
X155519685Y-60242558D01*
X155546536Y-60212771D01*
X157966035Y-58277172D01*
X158030681Y-58250664D01*
X158043497Y-58250000D01*
X158944832Y-58250000D01*
X159098928Y-58250000D01*
X159111874Y-58258320D01*
G37*
G04 #@! TD.AperFunction*
G04 #@! TA.AperFunction,Conductor*
G36*
X161942539Y-42520185D02*
G01*
X161988294Y-42572989D01*
X161999500Y-42624500D01*
X161999500Y-68808460D01*
X161979815Y-68875499D01*
X161927011Y-68921254D01*
X161857853Y-68931198D01*
X161802616Y-68908779D01*
X161733872Y-68858835D01*
X161698321Y-68833006D01*
X161698317Y-68833004D01*
X161698316Y-68833003D01*
X161698312Y-68833000D01*
X161667952Y-68816981D01*
X161667944Y-68816977D01*
X161636526Y-68800400D01*
X161636526Y-68800399D01*
X161574429Y-68778242D01*
X161571559Y-68777054D01*
X161546669Y-68756996D01*
X161520815Y-68738212D01*
X161519651Y-68735224D01*
X161517156Y-68733213D01*
X161507062Y-68702887D01*
X161495467Y-68673103D01*
X161495630Y-68668538D01*
X161495091Y-68666919D01*
X161495785Y-68664199D01*
X161496538Y-68643102D01*
X161500500Y-68618092D01*
X161500500Y-68381908D01*
X161500500Y-68381902D01*
X161463553Y-68148631D01*
X161410752Y-67986127D01*
X161390568Y-67924008D01*
X161390566Y-67924005D01*
X161390566Y-67924003D01*
X161334002Y-67812991D01*
X161283343Y-67713567D01*
X161144517Y-67522490D01*
X160977510Y-67355483D01*
X160786433Y-67216657D01*
X160775001Y-67210832D01*
X160575996Y-67109433D01*
X160351368Y-67036446D01*
X160118097Y-66999500D01*
X160118092Y-66999500D01*
X159881908Y-66999500D01*
X159881902Y-66999500D01*
X159746024Y-67021020D01*
X159740589Y-67020913D01*
X159737698Y-67022052D01*
X159719378Y-67021072D01*
X159719378Y-67021106D01*
X159719377Y-67021106D01*
X159718626Y-67021032D01*
X159702478Y-67020168D01*
X159702454Y-67020168D01*
X159695204Y-67018727D01*
X159695198Y-67018724D01*
X159695186Y-67018723D01*
X159598545Y-66999500D01*
X159598541Y-66999500D01*
X157965783Y-66999500D01*
X157898744Y-66979815D01*
X157878102Y-66963181D01*
X155479769Y-64564848D01*
X155446284Y-64503525D01*
X155451268Y-64433833D01*
X155493140Y-64377900D01*
X155558604Y-64353483D01*
X155610783Y-64360985D01*
X155632517Y-64369091D01*
X155632516Y-64369091D01*
X155639444Y-64369835D01*
X155692127Y-64375500D01*
X157387872Y-64375499D01*
X157447483Y-64369091D01*
X157582331Y-64318796D01*
X157697546Y-64232546D01*
X157783796Y-64117331D01*
X157834091Y-63982483D01*
X157840500Y-63922873D01*
X157840500Y-63881902D01*
X158499500Y-63881902D01*
X158499500Y-64118097D01*
X158536446Y-64351368D01*
X158609433Y-64575996D01*
X158684162Y-64722658D01*
X158716657Y-64786433D01*
X158855483Y-64977510D01*
X159022490Y-65144517D01*
X159213567Y-65283343D01*
X159312991Y-65334002D01*
X159424003Y-65390566D01*
X159424005Y-65390566D01*
X159424008Y-65390568D01*
X159528544Y-65424534D01*
X159648631Y-65463553D01*
X159881903Y-65500500D01*
X159881908Y-65500500D01*
X160118097Y-65500500D01*
X160351368Y-65463553D01*
X160575992Y-65390568D01*
X160786433Y-65283343D01*
X160977510Y-65144517D01*
X161144517Y-64977510D01*
X161283343Y-64786433D01*
X161390568Y-64575992D01*
X161463553Y-64351368D01*
X161473879Y-64286174D01*
X161500500Y-64118097D01*
X161500500Y-63881902D01*
X161463553Y-63648631D01*
X161406491Y-63473013D01*
X161390568Y-63424008D01*
X161390566Y-63424005D01*
X161390566Y-63424003D01*
X161330953Y-63307007D01*
X161283343Y-63213567D01*
X161144517Y-63022490D01*
X160977510Y-62855483D01*
X160786433Y-62716657D01*
X160719104Y-62682351D01*
X160575996Y-62609433D01*
X160351368Y-62536446D01*
X160118097Y-62499500D01*
X160118092Y-62499500D01*
X159881908Y-62499500D01*
X159881903Y-62499500D01*
X159648631Y-62536446D01*
X159424003Y-62609433D01*
X159213566Y-62716657D01*
X159104550Y-62795862D01*
X159022490Y-62855483D01*
X159022488Y-62855485D01*
X159022487Y-62855485D01*
X158855485Y-63022487D01*
X158855485Y-63022488D01*
X158855483Y-63022490D01*
X158847066Y-63034075D01*
X158716657Y-63213566D01*
X158609433Y-63424003D01*
X158536446Y-63648631D01*
X158499500Y-63881902D01*
X157840500Y-63881902D01*
X157840499Y-61988095D01*
X157860184Y-61921057D01*
X157912987Y-61875302D01*
X157966886Y-61864119D01*
X157991835Y-61864599D01*
X157995904Y-61864678D01*
X157995904Y-61864677D01*
X157995906Y-61864678D01*
X158134713Y-61826808D01*
X158198816Y-61799012D01*
X158321329Y-61723571D01*
X159155025Y-61028824D01*
X159219636Y-60964235D01*
X159248226Y-60929951D01*
X159252456Y-60923827D01*
X159306754Y-60879860D01*
X159376206Y-60872226D01*
X159410771Y-60883823D01*
X159424008Y-60890568D01*
X159575646Y-60939838D01*
X159648631Y-60963553D01*
X159881903Y-61000500D01*
X159881908Y-61000500D01*
X160118097Y-61000500D01*
X160351368Y-60963553D01*
X160575992Y-60890568D01*
X160786433Y-60783343D01*
X160977510Y-60644517D01*
X161144517Y-60477510D01*
X161283343Y-60286433D01*
X161390568Y-60075992D01*
X161463553Y-59851368D01*
X161470099Y-59810037D01*
X161500500Y-59618097D01*
X161500500Y-59381902D01*
X161463553Y-59148631D01*
X161391772Y-58927715D01*
X161390568Y-58924008D01*
X161390566Y-58924005D01*
X161390566Y-58924003D01*
X161327128Y-58799500D01*
X161283343Y-58713567D01*
X161144517Y-58522490D01*
X160977510Y-58355483D01*
X160786433Y-58216657D01*
X160575996Y-58109433D01*
X160351368Y-58036446D01*
X160118097Y-57999500D01*
X160118092Y-57999500D01*
X159881908Y-57999500D01*
X159881903Y-57999500D01*
X159673269Y-58032544D01*
X159603975Y-58023589D01*
X159566190Y-57997752D01*
X159469319Y-57900881D01*
X159469311Y-57900874D01*
X159385168Y-57833065D01*
X159373101Y-57825311D01*
X159372328Y-57824805D01*
X159372221Y-57824745D01*
X159241347Y-57764976D01*
X159241342Y-57764975D01*
X159098928Y-57744500D01*
X158043497Y-57744500D01*
X158043477Y-57744500D01*
X158017362Y-57745175D01*
X158004517Y-57745841D01*
X157978434Y-57747871D01*
X157838901Y-57782956D01*
X157838900Y-57782956D01*
X157773732Y-57809677D01*
X157771281Y-57811213D01*
X157650255Y-57882440D01*
X155350396Y-59722328D01*
X155285750Y-59748836D01*
X155272934Y-59749500D01*
X142735801Y-59749500D01*
X142668762Y-59729815D01*
X142623007Y-59677011D01*
X142613063Y-59607853D01*
X142617870Y-59587183D01*
X142628475Y-59554542D01*
X142628475Y-59554538D01*
X142628477Y-59554534D01*
X142660500Y-59352352D01*
X142660500Y-59147648D01*
X142650468Y-59084310D01*
X142628477Y-58945465D01*
X142591776Y-58832511D01*
X142565220Y-58750781D01*
X142565218Y-58750778D01*
X142565218Y-58750776D01*
X142521603Y-58665178D01*
X142472287Y-58568390D01*
X142438937Y-58522487D01*
X142384182Y-58447122D01*
X142360702Y-58381316D01*
X142360500Y-58374237D01*
X142360500Y-57761456D01*
X142326134Y-57588692D01*
X142326134Y-57588691D01*
X142322051Y-57568164D01*
X142299961Y-57514834D01*
X142299961Y-57514833D01*
X142246635Y-57386092D01*
X142246628Y-57386079D01*
X142137139Y-57222218D01*
X142137136Y-57222214D01*
X141994686Y-57079764D01*
X141994655Y-57079735D01*
X141781479Y-56866559D01*
X141781459Y-56866537D01*
X141637785Y-56722863D01*
X141637781Y-56722860D01*
X141473920Y-56613371D01*
X141473911Y-56613366D01*
X141401315Y-56583296D01*
X141345165Y-56560038D01*
X141291836Y-56537949D01*
X141291832Y-56537948D01*
X141291828Y-56537946D01*
X141195188Y-56518724D01*
X141098544Y-56499500D01*
X141098541Y-56499500D01*
X137635762Y-56499500D01*
X137568723Y-56479815D01*
X137562877Y-56475818D01*
X137441613Y-56387715D01*
X137441612Y-56387714D01*
X137441610Y-56387713D01*
X137348917Y-56340483D01*
X137298123Y-56292511D01*
X137281328Y-56224690D01*
X137303865Y-56158555D01*
X137348917Y-56119516D01*
X137441610Y-56072287D01*
X137562877Y-55984181D01*
X137628683Y-55960702D01*
X137635762Y-55960500D01*
X140638542Y-55960500D01*
X140669566Y-55954328D01*
X140735188Y-55941275D01*
X140831836Y-55922051D01*
X140885165Y-55899961D01*
X141013914Y-55846632D01*
X141177782Y-55737139D01*
X141317139Y-55597782D01*
X141317140Y-55597779D01*
X141324206Y-55590714D01*
X141324209Y-55590710D01*
X141997778Y-54917141D01*
X141997782Y-54917139D01*
X142137139Y-54777782D01*
X142246632Y-54613914D01*
X142322051Y-54431835D01*
X142322052Y-54431833D01*
X142324020Y-54421942D01*
X142360499Y-54238544D01*
X142360500Y-54238541D01*
X142360500Y-52625761D01*
X142380185Y-52558722D01*
X142384165Y-52552899D01*
X142472287Y-52431610D01*
X142565220Y-52249219D01*
X142628477Y-52054534D01*
X142660500Y-51852352D01*
X142660500Y-51647648D01*
X142628477Y-51445466D01*
X142565220Y-51250781D01*
X142565218Y-51250778D01*
X142565218Y-51250776D01*
X142517907Y-51157924D01*
X142472287Y-51068390D01*
X142440263Y-51024312D01*
X142351971Y-50902786D01*
X142207213Y-50758028D01*
X142041613Y-50637715D01*
X142041612Y-50637714D01*
X142041610Y-50637713D01*
X141963944Y-50598140D01*
X141859223Y-50544781D01*
X141664534Y-50481522D01*
X141489995Y-50453878D01*
X141462352Y-50449500D01*
X141257648Y-50449500D01*
X141233329Y-50453351D01*
X141055465Y-50481522D01*
X140860776Y-50544781D01*
X140678386Y-50637715D01*
X140512786Y-50758028D01*
X140368028Y-50902786D01*
X140247715Y-51068386D01*
X140154781Y-51250776D01*
X140091522Y-51445465D01*
X140059500Y-51647648D01*
X140059500Y-51852351D01*
X140091522Y-52054534D01*
X140154781Y-52249223D01*
X140189646Y-52317648D01*
X140247713Y-52431610D01*
X140335819Y-52552877D01*
X140359298Y-52618681D01*
X140359500Y-52625761D01*
X140359500Y-53674218D01*
X140350855Y-53703658D01*
X140344332Y-53733645D01*
X140340577Y-53738660D01*
X140339815Y-53741257D01*
X140323181Y-53761899D01*
X140161899Y-53923181D01*
X140100576Y-53956666D01*
X140074218Y-53959500D01*
X137635762Y-53959500D01*
X137568723Y-53939815D01*
X137562877Y-53935818D01*
X137441613Y-53847715D01*
X137441612Y-53847714D01*
X137441610Y-53847713D01*
X137348917Y-53800483D01*
X137298123Y-53752511D01*
X137281328Y-53684690D01*
X137303865Y-53618555D01*
X137348917Y-53579516D01*
X137441610Y-53532287D01*
X137462770Y-53516913D01*
X137607213Y-53411971D01*
X137607215Y-53411968D01*
X137607219Y-53411966D01*
X137751966Y-53267219D01*
X137751968Y-53267215D01*
X137751971Y-53267213D01*
X137804732Y-53194590D01*
X137872287Y-53101610D01*
X137965220Y-52919219D01*
X138028477Y-52724534D01*
X138060500Y-52522352D01*
X138060500Y-52317648D01*
X138028477Y-52115466D01*
X137965220Y-51920781D01*
X137965218Y-51920778D01*
X137965218Y-51920776D01*
X137926869Y-51845513D01*
X137872287Y-51738390D01*
X137806360Y-51647648D01*
X137751971Y-51572786D01*
X137607213Y-51428028D01*
X137441613Y-51307715D01*
X137441612Y-51307714D01*
X137441610Y-51307713D01*
X137384653Y-51278691D01*
X137259223Y-51214781D01*
X137064534Y-51151522D01*
X136889995Y-51123878D01*
X136862352Y-51119500D01*
X135857648Y-51119500D01*
X135833329Y-51123351D01*
X135655465Y-51151522D01*
X135460776Y-51214781D01*
X135278386Y-51307715D01*
X135112786Y-51428028D01*
X134968028Y-51572786D01*
X134847715Y-51738386D01*
X134754781Y-51920776D01*
X134691522Y-52115465D01*
X134659500Y-52317648D01*
X134659500Y-52522351D01*
X134691522Y-52724534D01*
X134754781Y-52919223D01*
X134799752Y-53007482D01*
X134834061Y-53074817D01*
X134847715Y-53101613D01*
X134968028Y-53267213D01*
X135112786Y-53411971D01*
X135267749Y-53524556D01*
X135278390Y-53532287D01*
X135369840Y-53578883D01*
X135371080Y-53579515D01*
X135421876Y-53627490D01*
X135438671Y-53695311D01*
X135416134Y-53761446D01*
X135371080Y-53800485D01*
X135278386Y-53847715D01*
X135112786Y-53968028D01*
X134968028Y-54112786D01*
X134847715Y-54278386D01*
X134754781Y-54460776D01*
X134691522Y-54655465D01*
X134659500Y-54857648D01*
X134659500Y-55062351D01*
X134691522Y-55264534D01*
X134754781Y-55459223D01*
X134818691Y-55584653D01*
X134825381Y-55597782D01*
X134847715Y-55641613D01*
X134968028Y-55807213D01*
X135112786Y-55951971D01*
X135267749Y-56064556D01*
X135278390Y-56072287D01*
X135369840Y-56118883D01*
X135371080Y-56119515D01*
X135421876Y-56167490D01*
X135438671Y-56235311D01*
X135416134Y-56301446D01*
X135371080Y-56340485D01*
X135278386Y-56387715D01*
X135112786Y-56508028D01*
X134968028Y-56652786D01*
X134847715Y-56818386D01*
X134754781Y-57000776D01*
X134691522Y-57195465D01*
X134659500Y-57397648D01*
X134659500Y-57602351D01*
X134691522Y-57804534D01*
X134754781Y-57999223D01*
X134847715Y-58181613D01*
X134968028Y-58347213D01*
X135112786Y-58491971D01*
X135267749Y-58604556D01*
X135278390Y-58612287D01*
X135369840Y-58658883D01*
X135371080Y-58659515D01*
X135421876Y-58707490D01*
X135438671Y-58775311D01*
X135416134Y-58841446D01*
X135371080Y-58880485D01*
X135278386Y-58927715D01*
X135112786Y-59048028D01*
X134968028Y-59192786D01*
X134847715Y-59358386D01*
X134754781Y-59540776D01*
X134691522Y-59735465D01*
X134659500Y-59937648D01*
X134659500Y-60142351D01*
X134691522Y-60344534D01*
X134754781Y-60539223D01*
X134847715Y-60721613D01*
X134968028Y-60887213D01*
X135112786Y-61031971D01*
X135223689Y-61112545D01*
X135278390Y-61152287D01*
X135369840Y-61198883D01*
X135371080Y-61199515D01*
X135421876Y-61247490D01*
X135438671Y-61315311D01*
X135416134Y-61381446D01*
X135371080Y-61420485D01*
X135278386Y-61467715D01*
X135112786Y-61588028D01*
X134968028Y-61732786D01*
X134847715Y-61898386D01*
X134754781Y-62080776D01*
X134691522Y-62275465D01*
X134659500Y-62477648D01*
X134659500Y-62682351D01*
X134691522Y-62884534D01*
X134754781Y-63079223D01*
X134847715Y-63261613D01*
X134968028Y-63427213D01*
X135112786Y-63571971D01*
X135239344Y-63663919D01*
X135278390Y-63692287D01*
X135369840Y-63738883D01*
X135371080Y-63739515D01*
X135421876Y-63787490D01*
X135438671Y-63855311D01*
X135416134Y-63921446D01*
X135371080Y-63960485D01*
X135278386Y-64007715D01*
X135112786Y-64128028D01*
X134968028Y-64272786D01*
X134847715Y-64438386D01*
X134754781Y-64620776D01*
X134691522Y-64815465D01*
X134668145Y-64963065D01*
X134659500Y-65017648D01*
X134659500Y-65222352D01*
X134660953Y-65231523D01*
X134691522Y-65424534D01*
X134754781Y-65619223D01*
X134847715Y-65801613D01*
X134968028Y-65967213D01*
X135112786Y-66111971D01*
X135267749Y-66224556D01*
X135278390Y-66232287D01*
X135369840Y-66278883D01*
X135371080Y-66279515D01*
X135421876Y-66327490D01*
X135438671Y-66395311D01*
X135416134Y-66461446D01*
X135371080Y-66500485D01*
X135278386Y-66547715D01*
X135112786Y-66668028D01*
X134968028Y-66812786D01*
X134847715Y-66978386D01*
X134754781Y-67160776D01*
X134691522Y-67355465D01*
X134659500Y-67557648D01*
X134659500Y-67762351D01*
X134691522Y-67964534D01*
X134754781Y-68159223D01*
X134847715Y-68341613D01*
X134968028Y-68507213D01*
X135112784Y-68651969D01*
X135149068Y-68678330D01*
X135191735Y-68733659D01*
X135197715Y-68803273D01*
X135165109Y-68865068D01*
X135104271Y-68899426D01*
X135089440Y-68901938D01*
X135052519Y-68905907D01*
X134917671Y-68956202D01*
X134917664Y-68956206D01*
X134802455Y-69042452D01*
X134802452Y-69042455D01*
X134716206Y-69157664D01*
X134716202Y-69157671D01*
X134665908Y-69292517D01*
X134659607Y-69351134D01*
X134659501Y-69352123D01*
X134659500Y-69352135D01*
X134659500Y-71047870D01*
X134659501Y-71047876D01*
X134665908Y-71107483D01*
X134716202Y-71242328D01*
X134716206Y-71242335D01*
X134802452Y-71357544D01*
X134802455Y-71357547D01*
X134917664Y-71443793D01*
X134917671Y-71443797D01*
X135052517Y-71494091D01*
X135052516Y-71494091D01*
X135059444Y-71494835D01*
X135112127Y-71500500D01*
X137607872Y-71500499D01*
X137667483Y-71494091D01*
X137802331Y-71443796D01*
X137917546Y-71357546D01*
X138003796Y-71242331D01*
X138054091Y-71107483D01*
X138060500Y-71047873D01*
X138060499Y-69352128D01*
X138054091Y-69292517D01*
X138043435Y-69263948D01*
X138003797Y-69157671D01*
X138003793Y-69157664D01*
X137917547Y-69042455D01*
X137917544Y-69042452D01*
X137802335Y-68956206D01*
X137802328Y-68956202D01*
X137667482Y-68905908D01*
X137667483Y-68905908D01*
X137630560Y-68901939D01*
X137566009Y-68875201D01*
X137526160Y-68817809D01*
X137523667Y-68747984D01*
X137559319Y-68687895D01*
X137570930Y-68678331D01*
X137607219Y-68651966D01*
X137751966Y-68507219D01*
X137751968Y-68507215D01*
X137751971Y-68507213D01*
X137804732Y-68434590D01*
X137872287Y-68341610D01*
X137965220Y-68159219D01*
X138028477Y-67964534D01*
X138060500Y-67762352D01*
X138060500Y-67557648D01*
X138028477Y-67355466D01*
X138025797Y-67347219D01*
X137981484Y-67210836D01*
X137965220Y-67160781D01*
X137965218Y-67160778D01*
X137965218Y-67160776D01*
X137931503Y-67094607D01*
X137872287Y-66978390D01*
X137857481Y-66958011D01*
X137751971Y-66812786D01*
X137607213Y-66668028D01*
X137441614Y-66547715D01*
X137435006Y-66544348D01*
X137348917Y-66500483D01*
X137298123Y-66452511D01*
X137281328Y-66384690D01*
X137303865Y-66318555D01*
X137348917Y-66279516D01*
X137441610Y-66232287D01*
X137595059Y-66120801D01*
X137607213Y-66111971D01*
X137607215Y-66111968D01*
X137607219Y-66111966D01*
X137751966Y-65967219D01*
X137751968Y-65967215D01*
X137751971Y-65967213D01*
X137804732Y-65894590D01*
X137872287Y-65801610D01*
X137965220Y-65619219D01*
X138028477Y-65424534D01*
X138060500Y-65222352D01*
X138060500Y-65017648D01*
X138028477Y-64815466D01*
X137965220Y-64620781D01*
X137965218Y-64620778D01*
X137965218Y-64620776D01*
X137905475Y-64503525D01*
X137872287Y-64438390D01*
X137828339Y-64377900D01*
X137751971Y-64272786D01*
X137607213Y-64128028D01*
X137441614Y-64007715D01*
X137392091Y-63982482D01*
X137348917Y-63960483D01*
X137298123Y-63912511D01*
X137281328Y-63844690D01*
X137303865Y-63778555D01*
X137348917Y-63739516D01*
X137441610Y-63692287D01*
X137480656Y-63663919D01*
X137607213Y-63571971D01*
X137607215Y-63571968D01*
X137607219Y-63571966D01*
X137642366Y-63536819D01*
X137703689Y-63503334D01*
X137730047Y-63500500D01*
X138288543Y-63500500D01*
X138339338Y-63490395D01*
X138426726Y-63473013D01*
X138481836Y-63462051D01*
X138535165Y-63439961D01*
X138663914Y-63386632D01*
X138827782Y-63277139D01*
X138967139Y-63137782D01*
X138967139Y-63137780D01*
X138977347Y-63127573D01*
X138977349Y-63127570D01*
X139787819Y-62317100D01*
X139849142Y-62283615D01*
X139918834Y-62288599D01*
X139974767Y-62330471D01*
X139999184Y-62395935D01*
X139999500Y-62404781D01*
X139999500Y-63177351D01*
X140031522Y-63379534D01*
X140094781Y-63574223D01*
X140187715Y-63756613D01*
X140308028Y-63922213D01*
X140452786Y-64066971D01*
X140607749Y-64179556D01*
X140618390Y-64187287D01*
X140707212Y-64232544D01*
X140800776Y-64280218D01*
X140800778Y-64280218D01*
X140800781Y-64280220D01*
X140819106Y-64286174D01*
X140995465Y-64343477D01*
X141045287Y-64351368D01*
X141197648Y-64375500D01*
X141197649Y-64375500D01*
X141402351Y-64375500D01*
X141402352Y-64375500D01*
X141604534Y-64343477D01*
X141799219Y-64280220D01*
X141981610Y-64187287D01*
X142077901Y-64117328D01*
X142147213Y-64066971D01*
X142147215Y-64066968D01*
X142147219Y-64066966D01*
X142291966Y-63922219D01*
X142291968Y-63922215D01*
X142291971Y-63922213D01*
X142412284Y-63756614D01*
X142412285Y-63756613D01*
X142412287Y-63756610D01*
X142459516Y-63663917D01*
X142507489Y-63613123D01*
X142575310Y-63596328D01*
X142641445Y-63618865D01*
X142680483Y-63663917D01*
X142719003Y-63739515D01*
X142727715Y-63756614D01*
X142848028Y-63922213D01*
X142992786Y-64066971D01*
X143147749Y-64179556D01*
X143158390Y-64187287D01*
X143247212Y-64232544D01*
X143340776Y-64280218D01*
X143340778Y-64280218D01*
X143340781Y-64280220D01*
X143359106Y-64286174D01*
X143535465Y-64343477D01*
X143585287Y-64351368D01*
X143737648Y-64375500D01*
X143737649Y-64375500D01*
X143942351Y-64375500D01*
X143942352Y-64375500D01*
X144144534Y-64343477D01*
X144339219Y-64280220D01*
X144521610Y-64187287D01*
X144617901Y-64117328D01*
X144687213Y-64066971D01*
X144687215Y-64066968D01*
X144687219Y-64066966D01*
X144831966Y-63922219D01*
X144831968Y-63922215D01*
X144831971Y-63922213D01*
X144952284Y-63756614D01*
X144952285Y-63756613D01*
X144952287Y-63756610D01*
X144999516Y-63663917D01*
X145047489Y-63613123D01*
X145115310Y-63596328D01*
X145181445Y-63618865D01*
X145220483Y-63663917D01*
X145259003Y-63739515D01*
X145267715Y-63756614D01*
X145388028Y-63922213D01*
X145532786Y-64066971D01*
X145687749Y-64179556D01*
X145698390Y-64187287D01*
X145787212Y-64232544D01*
X145880776Y-64280218D01*
X145880778Y-64280218D01*
X145880781Y-64280220D01*
X145899106Y-64286174D01*
X146075465Y-64343477D01*
X146125287Y-64351368D01*
X146277648Y-64375500D01*
X146277649Y-64375500D01*
X146482351Y-64375500D01*
X146482352Y-64375500D01*
X146684534Y-64343477D01*
X146879219Y-64280220D01*
X147061610Y-64187287D01*
X147157901Y-64117328D01*
X147227213Y-64066971D01*
X147227215Y-64066968D01*
X147227219Y-64066966D01*
X147371966Y-63922219D01*
X147371968Y-63922215D01*
X147371971Y-63922213D01*
X147492284Y-63756614D01*
X147492285Y-63756613D01*
X147492287Y-63756610D01*
X147539516Y-63663917D01*
X147587489Y-63613123D01*
X147655310Y-63596328D01*
X147721445Y-63618865D01*
X147760483Y-63663917D01*
X147799003Y-63739515D01*
X147807715Y-63756614D01*
X147928028Y-63922213D01*
X148072786Y-64066971D01*
X148227749Y-64179556D01*
X148238390Y-64187287D01*
X148327212Y-64232544D01*
X148420776Y-64280218D01*
X148420778Y-64280218D01*
X148420781Y-64280220D01*
X148439106Y-64286174D01*
X148615465Y-64343477D01*
X148665287Y-64351368D01*
X148817648Y-64375500D01*
X148817649Y-64375500D01*
X149022351Y-64375500D01*
X149022352Y-64375500D01*
X149224534Y-64343477D01*
X149419219Y-64280220D01*
X149601610Y-64187287D01*
X149697901Y-64117328D01*
X149767213Y-64066971D01*
X149767215Y-64066968D01*
X149767219Y-64066966D01*
X149911966Y-63922219D01*
X149911968Y-63922215D01*
X149911971Y-63922213D01*
X150032284Y-63756614D01*
X150032285Y-63756613D01*
X150032287Y-63756610D01*
X150079516Y-63663917D01*
X150127489Y-63613123D01*
X150195310Y-63596328D01*
X150261445Y-63618865D01*
X150300483Y-63663917D01*
X150339003Y-63739515D01*
X150347715Y-63756614D01*
X150468028Y-63922213D01*
X150612786Y-64066971D01*
X150767749Y-64179556D01*
X150778390Y-64187287D01*
X150867212Y-64232544D01*
X150960776Y-64280218D01*
X150960778Y-64280218D01*
X150960781Y-64280220D01*
X150979106Y-64286174D01*
X151155465Y-64343477D01*
X151205287Y-64351368D01*
X151357648Y-64375500D01*
X151357649Y-64375500D01*
X151562351Y-64375500D01*
X151562352Y-64375500D01*
X151764534Y-64343477D01*
X151959219Y-64280220D01*
X152141610Y-64187287D01*
X152237901Y-64117328D01*
X152307213Y-64066971D01*
X152307215Y-64066968D01*
X152307219Y-64066966D01*
X152451966Y-63922219D01*
X152451968Y-63922215D01*
X152451971Y-63922213D01*
X152572284Y-63756614D01*
X152572285Y-63756613D01*
X152572287Y-63756610D01*
X152619516Y-63663917D01*
X152667489Y-63613123D01*
X152735310Y-63596328D01*
X152801445Y-63618865D01*
X152840483Y-63663917D01*
X152887713Y-63756610D01*
X152975819Y-63877877D01*
X152999298Y-63943681D01*
X152999500Y-63950761D01*
X152999500Y-64598541D01*
X152999500Y-64598543D01*
X152999499Y-64598543D01*
X153037947Y-64791829D01*
X153037950Y-64791839D01*
X153113364Y-64973907D01*
X153113371Y-64973920D01*
X153222859Y-65137780D01*
X153222860Y-65137781D01*
X153222861Y-65137782D01*
X153362218Y-65277139D01*
X153362219Y-65277139D01*
X153369286Y-65284206D01*
X153369285Y-65284206D01*
X153369289Y-65284209D01*
X156474852Y-68389773D01*
X156508337Y-68451096D01*
X156503353Y-68520788D01*
X156461481Y-68576721D01*
X156406570Y-68599927D01*
X156235581Y-68627010D01*
X156040968Y-68690244D01*
X155858650Y-68783140D01*
X155693105Y-68903417D01*
X155693104Y-68903417D01*
X155548417Y-69048104D01*
X155548417Y-69048105D01*
X155428140Y-69213650D01*
X155380765Y-69306629D01*
X155332790Y-69357425D01*
X155264969Y-69374220D01*
X155198834Y-69351682D01*
X155159795Y-69306629D01*
X155147905Y-69283294D01*
X155112287Y-69213390D01*
X155073552Y-69160075D01*
X154991971Y-69047786D01*
X154847213Y-68903028D01*
X154681613Y-68782715D01*
X154681612Y-68782714D01*
X154681610Y-68782713D01*
X154588408Y-68735224D01*
X154499223Y-68689781D01*
X154304534Y-68626522D01*
X154129995Y-68598878D01*
X154102352Y-68594500D01*
X153897648Y-68594500D01*
X153873329Y-68598351D01*
X153695465Y-68626522D01*
X153500776Y-68689781D01*
X153318386Y-68782715D01*
X153152786Y-68903028D01*
X153008028Y-69047786D01*
X152887715Y-69213386D01*
X152840485Y-69306080D01*
X152792510Y-69356876D01*
X152724689Y-69373671D01*
X152658554Y-69351134D01*
X152619515Y-69306080D01*
X152607905Y-69283294D01*
X152572287Y-69213390D01*
X152533552Y-69160075D01*
X152451971Y-69047786D01*
X152307213Y-68903028D01*
X152141613Y-68782715D01*
X152141612Y-68782714D01*
X152141610Y-68782713D01*
X152048408Y-68735224D01*
X151959223Y-68689781D01*
X151764534Y-68626522D01*
X151589995Y-68598878D01*
X151562352Y-68594500D01*
X151357648Y-68594500D01*
X151333329Y-68598351D01*
X151155465Y-68626522D01*
X150960776Y-68689781D01*
X150778386Y-68782715D01*
X150612786Y-68903028D01*
X150468028Y-69047786D01*
X150347715Y-69213386D01*
X150300485Y-69306080D01*
X150252510Y-69356876D01*
X150184689Y-69373671D01*
X150118554Y-69351134D01*
X150079515Y-69306080D01*
X150067905Y-69283294D01*
X150032287Y-69213390D01*
X149993552Y-69160075D01*
X149911971Y-69047786D01*
X149767213Y-68903028D01*
X149601613Y-68782715D01*
X149601612Y-68782714D01*
X149601610Y-68782713D01*
X149508408Y-68735224D01*
X149419223Y-68689781D01*
X149224534Y-68626522D01*
X149049995Y-68598878D01*
X149022352Y-68594500D01*
X148817648Y-68594500D01*
X148793329Y-68598351D01*
X148615465Y-68626522D01*
X148420776Y-68689781D01*
X148238386Y-68782715D01*
X148072786Y-68903028D01*
X147928028Y-69047786D01*
X147807715Y-69213386D01*
X147760485Y-69306080D01*
X147712510Y-69356876D01*
X147644689Y-69373671D01*
X147578554Y-69351134D01*
X147539515Y-69306080D01*
X147527905Y-69283294D01*
X147492287Y-69213390D01*
X147453552Y-69160075D01*
X147371971Y-69047786D01*
X147227213Y-68903028D01*
X147061613Y-68782715D01*
X147061612Y-68782714D01*
X147061610Y-68782713D01*
X146968408Y-68735224D01*
X146879223Y-68689781D01*
X146684534Y-68626522D01*
X146509995Y-68598878D01*
X146482352Y-68594500D01*
X146277648Y-68594500D01*
X146253329Y-68598351D01*
X146075465Y-68626522D01*
X145880776Y-68689781D01*
X145698386Y-68782715D01*
X145532786Y-68903028D01*
X145388028Y-69047786D01*
X145267715Y-69213386D01*
X145220485Y-69306080D01*
X145172510Y-69356876D01*
X145104689Y-69373671D01*
X145038554Y-69351134D01*
X144999515Y-69306080D01*
X144987905Y-69283294D01*
X144952287Y-69213390D01*
X144913552Y-69160075D01*
X144831971Y-69047786D01*
X144687213Y-68903028D01*
X144521613Y-68782715D01*
X144521612Y-68782714D01*
X144521610Y-68782713D01*
X144428408Y-68735224D01*
X144339223Y-68689781D01*
X144144534Y-68626522D01*
X143969995Y-68598878D01*
X143942352Y-68594500D01*
X143737648Y-68594500D01*
X143713329Y-68598351D01*
X143535465Y-68626522D01*
X143340776Y-68689781D01*
X143158386Y-68782715D01*
X142992786Y-68903028D01*
X142848028Y-69047786D01*
X142727715Y-69213386D01*
X142680485Y-69306080D01*
X142632510Y-69356876D01*
X142564689Y-69373671D01*
X142498554Y-69351134D01*
X142459515Y-69306080D01*
X142447905Y-69283294D01*
X142412287Y-69213390D01*
X142373552Y-69160075D01*
X142291971Y-69047786D01*
X142147213Y-68903028D01*
X141981613Y-68782715D01*
X141981612Y-68782714D01*
X141981610Y-68782713D01*
X141888408Y-68735224D01*
X141799223Y-68689781D01*
X141604534Y-68626522D01*
X141429995Y-68598878D01*
X141402352Y-68594500D01*
X141197648Y-68594500D01*
X141173329Y-68598351D01*
X140995465Y-68626522D01*
X140800776Y-68689781D01*
X140618386Y-68782715D01*
X140452786Y-68903028D01*
X140308028Y-69047786D01*
X140187715Y-69213386D01*
X140094781Y-69395776D01*
X140031522Y-69590465D01*
X139999500Y-69792648D01*
X139999500Y-70797351D01*
X140031522Y-70999534D01*
X140094781Y-71194223D01*
X140154721Y-71311859D01*
X140177999Y-71357546D01*
X140187715Y-71376613D01*
X140308028Y-71542213D01*
X140452786Y-71686971D01*
X140587249Y-71784662D01*
X140618390Y-71807287D01*
X140734607Y-71866503D01*
X140800776Y-71900218D01*
X140800778Y-71900218D01*
X140800781Y-71900220D01*
X140888954Y-71928869D01*
X140995465Y-71963477D01*
X141096557Y-71979488D01*
X141197648Y-71995500D01*
X141197649Y-71995500D01*
X141402351Y-71995500D01*
X141402352Y-71995500D01*
X141604534Y-71963477D01*
X141799219Y-71900220D01*
X141981610Y-71807287D01*
X142085222Y-71732009D01*
X142147213Y-71686971D01*
X142147215Y-71686968D01*
X142147219Y-71686966D01*
X142291966Y-71542219D01*
X142291968Y-71542215D01*
X142291971Y-71542213D01*
X142412284Y-71376614D01*
X142412285Y-71376613D01*
X142412287Y-71376610D01*
X142459516Y-71283917D01*
X142507489Y-71233123D01*
X142575310Y-71216328D01*
X142641445Y-71238865D01*
X142680485Y-71283919D01*
X142727715Y-71376614D01*
X142848028Y-71542213D01*
X142992786Y-71686971D01*
X143127249Y-71784662D01*
X143158390Y-71807287D01*
X143274607Y-71866503D01*
X143340776Y-71900218D01*
X143340778Y-71900218D01*
X143340781Y-71900220D01*
X143428954Y-71928869D01*
X143535465Y-71963477D01*
X143636557Y-71979488D01*
X143737648Y-71995500D01*
X143737649Y-71995500D01*
X143942351Y-71995500D01*
X143942352Y-71995500D01*
X144144534Y-71963477D01*
X144339219Y-71900220D01*
X144521610Y-71807287D01*
X144625222Y-71732009D01*
X144687213Y-71686971D01*
X144687215Y-71686968D01*
X144687219Y-71686966D01*
X144831966Y-71542219D01*
X144831968Y-71542215D01*
X144831971Y-71542213D01*
X144952284Y-71376614D01*
X144952285Y-71376613D01*
X144952287Y-71376610D01*
X144999516Y-71283917D01*
X145047489Y-71233123D01*
X145115310Y-71216328D01*
X145181445Y-71238865D01*
X145220485Y-71283919D01*
X145267715Y-71376614D01*
X145388028Y-71542213D01*
X145532786Y-71686971D01*
X145667249Y-71784662D01*
X145698390Y-71807287D01*
X145814607Y-71866503D01*
X145880776Y-71900218D01*
X145880778Y-71900218D01*
X145880781Y-71900220D01*
X145968954Y-71928869D01*
X146075465Y-71963477D01*
X146176557Y-71979488D01*
X146277648Y-71995500D01*
X146277649Y-71995500D01*
X146482351Y-71995500D01*
X146482352Y-71995500D01*
X146684534Y-71963477D01*
X146879219Y-71900220D01*
X147061610Y-71807287D01*
X147165222Y-71732009D01*
X147227213Y-71686971D01*
X147227215Y-71686968D01*
X147227219Y-71686966D01*
X147371966Y-71542219D01*
X147371968Y-71542215D01*
X147371971Y-71542213D01*
X147492284Y-71376614D01*
X147492285Y-71376613D01*
X147492287Y-71376610D01*
X147539516Y-71283917D01*
X147587489Y-71233123D01*
X147655310Y-71216328D01*
X147721445Y-71238865D01*
X147760485Y-71283919D01*
X147807715Y-71376614D01*
X147928028Y-71542213D01*
X148072786Y-71686971D01*
X148207249Y-71784662D01*
X148238390Y-71807287D01*
X148354607Y-71866503D01*
X148420776Y-71900218D01*
X148420778Y-71900218D01*
X148420781Y-71900220D01*
X148508954Y-71928869D01*
X148615465Y-71963477D01*
X148716557Y-71979488D01*
X148817648Y-71995500D01*
X148817649Y-71995500D01*
X149022351Y-71995500D01*
X149022352Y-71995500D01*
X149224534Y-71963477D01*
X149419219Y-71900220D01*
X149601610Y-71807287D01*
X149705222Y-71732009D01*
X149767213Y-71686971D01*
X149767215Y-71686968D01*
X149767219Y-71686966D01*
X149911966Y-71542219D01*
X149911968Y-71542215D01*
X149911971Y-71542213D01*
X150032284Y-71376614D01*
X150032285Y-71376613D01*
X150032287Y-71376610D01*
X150079516Y-71283917D01*
X150127489Y-71233123D01*
X150195310Y-71216328D01*
X150261445Y-71238865D01*
X150300485Y-71283919D01*
X150347715Y-71376614D01*
X150468028Y-71542213D01*
X150612786Y-71686971D01*
X150747249Y-71784662D01*
X150778390Y-71807287D01*
X150894607Y-71866503D01*
X150960776Y-71900218D01*
X150960778Y-71900218D01*
X150960781Y-71900220D01*
X151048954Y-71928869D01*
X151155465Y-71963477D01*
X151256557Y-71979488D01*
X151357648Y-71995500D01*
X151357649Y-71995500D01*
X151562351Y-71995500D01*
X151562352Y-71995500D01*
X151764534Y-71963477D01*
X151959219Y-71900220D01*
X152141610Y-71807287D01*
X152245222Y-71732009D01*
X152307213Y-71686971D01*
X152307215Y-71686968D01*
X152307219Y-71686966D01*
X152451966Y-71542219D01*
X152451968Y-71542215D01*
X152451971Y-71542213D01*
X152572284Y-71376614D01*
X152572285Y-71376613D01*
X152572287Y-71376610D01*
X152619516Y-71283917D01*
X152667489Y-71233123D01*
X152735310Y-71216328D01*
X152801445Y-71238865D01*
X152840485Y-71283919D01*
X152887715Y-71376614D01*
X153008028Y-71542213D01*
X153152786Y-71686971D01*
X153287249Y-71784662D01*
X153318390Y-71807287D01*
X153434607Y-71866503D01*
X153500776Y-71900218D01*
X153500778Y-71900218D01*
X153500781Y-71900220D01*
X153588954Y-71928869D01*
X153695465Y-71963477D01*
X153796557Y-71979488D01*
X153897648Y-71995500D01*
X153897649Y-71995500D01*
X154102351Y-71995500D01*
X154102352Y-71995500D01*
X154304534Y-71963477D01*
X154499219Y-71900220D01*
X154681610Y-71807287D01*
X154785222Y-71732009D01*
X154847213Y-71686971D01*
X154847215Y-71686968D01*
X154847219Y-71686966D01*
X154991966Y-71542219D01*
X154991968Y-71542215D01*
X154991971Y-71542213D01*
X155112284Y-71376614D01*
X155112285Y-71376613D01*
X155112287Y-71376610D01*
X155159795Y-71283369D01*
X155207770Y-71232574D01*
X155275591Y-71215779D01*
X155341725Y-71238316D01*
X155380765Y-71283370D01*
X155428140Y-71376349D01*
X155548417Y-71541894D01*
X155548417Y-71541895D01*
X155693104Y-71686582D01*
X155858650Y-71806859D01*
X156040968Y-71899754D01*
X156235578Y-71962988D01*
X156290000Y-71971607D01*
X156290000Y-70610686D01*
X156294394Y-70615080D01*
X156385606Y-70667741D01*
X156487339Y-70695000D01*
X156592661Y-70695000D01*
X156694394Y-70667741D01*
X156785606Y-70615080D01*
X156790000Y-70610686D01*
X156790000Y-71971606D01*
X156844421Y-71962988D01*
X157039031Y-71899754D01*
X157221349Y-71806859D01*
X157386894Y-71686582D01*
X157386895Y-71686582D01*
X157531582Y-71541895D01*
X157531582Y-71541894D01*
X157651859Y-71376349D01*
X157744755Y-71194029D01*
X157752569Y-71169983D01*
X157792006Y-71112308D01*
X157856365Y-71085109D01*
X157925211Y-71097024D01*
X157976687Y-71144268D01*
X157994500Y-71208301D01*
X157994500Y-77290166D01*
X157974815Y-77357205D01*
X157969700Y-77364566D01*
X157494400Y-77998299D01*
X157494395Y-77998306D01*
X157431867Y-78107941D01*
X157408330Y-78164690D01*
X157408328Y-78164697D01*
X157401749Y-78188659D01*
X157374907Y-78286417D01*
X157374907Y-78343149D01*
X157374908Y-78375499D01*
X157372357Y-78384185D01*
X157373646Y-78393147D01*
X157362668Y-78417185D01*
X157355224Y-78442538D01*
X157348382Y-78448466D01*
X157344621Y-78456703D01*
X157322390Y-78470989D01*
X157302421Y-78488294D01*
X157291904Y-78490581D01*
X157285843Y-78494477D01*
X157250908Y-78499500D01*
X157207663Y-78499500D01*
X157140624Y-78479815D01*
X157094869Y-78427011D01*
X157088686Y-78410436D01*
X157074610Y-78362496D01*
X156996822Y-78241457D01*
X156996817Y-78241451D01*
X156951073Y-78188659D01*
X156951069Y-78188656D01*
X156951067Y-78188653D01*
X156842333Y-78094433D01*
X156842330Y-78094431D01*
X156842328Y-78094430D01*
X156711462Y-78034664D01*
X156711457Y-78034662D01*
X156711456Y-78034662D01*
X156644417Y-78014977D01*
X156644419Y-78014977D01*
X156644414Y-78014976D01*
X156596941Y-78008150D01*
X156501997Y-77994500D01*
X154418672Y-77994500D01*
X154418661Y-77994500D01*
X154418658Y-77994501D01*
X154334841Y-78001499D01*
X154294299Y-78008316D01*
X154294283Y-78008319D01*
X154212784Y-78029121D01*
X154084904Y-78095047D01*
X154084894Y-78095053D01*
X154028323Y-78135337D01*
X154027990Y-78135572D01*
X153923851Y-78234870D01*
X153851912Y-78359471D01*
X153825944Y-78424336D01*
X153824595Y-78428559D01*
X153823583Y-78428235D01*
X153791076Y-78484516D01*
X153728967Y-78516521D01*
X153689338Y-78517696D01*
X153551130Y-78499501D01*
X153551125Y-78499500D01*
X153551120Y-78499500D01*
X153288880Y-78499500D01*
X153288874Y-78499500D01*
X153288869Y-78499501D01*
X153148901Y-78517928D01*
X153079866Y-78507162D01*
X153027610Y-78460782D01*
X153013739Y-78429923D01*
X153013243Y-78428235D01*
X152993941Y-78362496D01*
X152916153Y-78241457D01*
X152916148Y-78241451D01*
X152870404Y-78188659D01*
X152870400Y-78188656D01*
X152870398Y-78188653D01*
X152761664Y-78094433D01*
X152761661Y-78094431D01*
X152761659Y-78094430D01*
X152630793Y-78034664D01*
X152630788Y-78034662D01*
X152630787Y-78034662D01*
X152563748Y-78014977D01*
X152563750Y-78014977D01*
X152563745Y-78014976D01*
X152516272Y-78008150D01*
X152421328Y-77994500D01*
X149338672Y-77994500D01*
X149338661Y-77994500D01*
X149338658Y-77994501D01*
X149254841Y-78001499D01*
X149214299Y-78008316D01*
X149214283Y-78008319D01*
X149132784Y-78029121D01*
X149004904Y-78095047D01*
X149004894Y-78095053D01*
X148948323Y-78135337D01*
X148947990Y-78135572D01*
X148843851Y-78234870D01*
X148771912Y-78359471D01*
X148745944Y-78424336D01*
X148744595Y-78428559D01*
X148743583Y-78428235D01*
X148711076Y-78484516D01*
X148648967Y-78516521D01*
X148609338Y-78517696D01*
X148471130Y-78499501D01*
X148471125Y-78499500D01*
X148471120Y-78499500D01*
X148208880Y-78499500D01*
X148208874Y-78499500D01*
X148208869Y-78499501D01*
X148068901Y-78517928D01*
X147999866Y-78507162D01*
X147947610Y-78460782D01*
X147933739Y-78429923D01*
X147933243Y-78428235D01*
X147913941Y-78362496D01*
X147836153Y-78241457D01*
X147836148Y-78241451D01*
X147790404Y-78188659D01*
X147790400Y-78188656D01*
X147790398Y-78188653D01*
X147681664Y-78094433D01*
X147681661Y-78094431D01*
X147681659Y-78094430D01*
X147550793Y-78034664D01*
X147550788Y-78034662D01*
X147550787Y-78034662D01*
X147483748Y-78014977D01*
X147483750Y-78014977D01*
X147483745Y-78014976D01*
X147436272Y-78008150D01*
X147341328Y-77994500D01*
X144258672Y-77994500D01*
X144258661Y-77994500D01*
X144258658Y-77994501D01*
X144174841Y-78001499D01*
X144134299Y-78008316D01*
X144134283Y-78008319D01*
X144052784Y-78029121D01*
X143924904Y-78095047D01*
X143924894Y-78095053D01*
X143868323Y-78135337D01*
X143867990Y-78135572D01*
X143763851Y-78234870D01*
X143691912Y-78359471D01*
X143665944Y-78424336D01*
X143664595Y-78428559D01*
X143663583Y-78428235D01*
X143631076Y-78484516D01*
X143568967Y-78516521D01*
X143529338Y-78517696D01*
X143391130Y-78499501D01*
X143391125Y-78499500D01*
X143391120Y-78499500D01*
X143128880Y-78499500D01*
X143128874Y-78499500D01*
X143128869Y-78499501D01*
X142988901Y-78517928D01*
X142919866Y-78507162D01*
X142867610Y-78460782D01*
X142853739Y-78429923D01*
X142853243Y-78428235D01*
X142833941Y-78362496D01*
X142756153Y-78241457D01*
X142756148Y-78241451D01*
X142710404Y-78188659D01*
X142710400Y-78188656D01*
X142710398Y-78188653D01*
X142601664Y-78094433D01*
X142601661Y-78094431D01*
X142601659Y-78094430D01*
X142470793Y-78034664D01*
X142470788Y-78034662D01*
X142470787Y-78034662D01*
X142403748Y-78014977D01*
X142403750Y-78014977D01*
X142403745Y-78014976D01*
X142356272Y-78008150D01*
X142261328Y-77994500D01*
X139178672Y-77994500D01*
X139178661Y-77994500D01*
X139178658Y-77994501D01*
X139094841Y-78001499D01*
X139054299Y-78008316D01*
X139054283Y-78008319D01*
X138972784Y-78029121D01*
X138844904Y-78095047D01*
X138844894Y-78095053D01*
X138788323Y-78135337D01*
X138787990Y-78135572D01*
X138683851Y-78234870D01*
X138611912Y-78359471D01*
X138585944Y-78424336D01*
X138584595Y-78428559D01*
X138583583Y-78428235D01*
X138551076Y-78484516D01*
X138488967Y-78516521D01*
X138449338Y-78517696D01*
X138311130Y-78499501D01*
X138311125Y-78499500D01*
X138311120Y-78499500D01*
X138048880Y-78499500D01*
X138048872Y-78499500D01*
X137817772Y-78529926D01*
X137788884Y-78533730D01*
X137661393Y-78567891D01*
X137535581Y-78601602D01*
X137535571Y-78601605D01*
X137293309Y-78701953D01*
X137293299Y-78701958D01*
X137066196Y-78833075D01*
X136858148Y-78992718D01*
X136672718Y-79178148D01*
X136513075Y-79386196D01*
X136381958Y-79613299D01*
X136381953Y-79613309D01*
X136281605Y-79855571D01*
X136281602Y-79855581D01*
X136213730Y-80108885D01*
X136179500Y-80368872D01*
X136179500Y-80631127D01*
X136204568Y-80821523D01*
X136213730Y-80891116D01*
X136213731Y-80891122D01*
X136213734Y-80891135D01*
X136213809Y-80891413D01*
X136213806Y-80891498D01*
X136214522Y-80895093D01*
X136213717Y-80895253D01*
X136212137Y-80961262D01*
X136172966Y-81019119D01*
X136128967Y-81042465D01*
X136112501Y-81047300D01*
X136112492Y-81047304D01*
X135991462Y-81125086D01*
X135991451Y-81125094D01*
X135938659Y-81170838D01*
X135844433Y-81279579D01*
X135844430Y-81279583D01*
X135784664Y-81410449D01*
X135764976Y-81477497D01*
X135744500Y-81619916D01*
X135744500Y-81816920D01*
X135750362Y-81893677D01*
X135750362Y-81893683D01*
X135754526Y-81920789D01*
X135756080Y-81930899D01*
X135773527Y-82005872D01*
X135835807Y-82135575D01*
X135874706Y-82193614D01*
X135874708Y-82193616D01*
X135874710Y-82193619D01*
X135968776Y-82298043D01*
X135971004Y-82300516D01*
X136641898Y-82859595D01*
X136666497Y-82878838D01*
X136678841Y-82887894D01*
X136704558Y-82905567D01*
X136835435Y-82965338D01*
X136902474Y-82985023D01*
X136902478Y-82985024D01*
X137044894Y-83005500D01*
X137044897Y-83005500D01*
X137181317Y-83005500D01*
X137181328Y-83005500D01*
X137265157Y-82998501D01*
X137305713Y-82991681D01*
X137387215Y-82970878D01*
X137515101Y-82904949D01*
X137571857Y-82864533D01*
X137572016Y-82864421D01*
X137577093Y-82859580D01*
X137676148Y-82765131D01*
X137748088Y-82640527D01*
X137774056Y-82575662D01*
X137774058Y-82575653D01*
X137775400Y-82571457D01*
X137775701Y-82571553D01*
X137775702Y-82571551D01*
X137775732Y-82571563D01*
X137776414Y-82571781D01*
X137808897Y-82515507D01*
X137870996Y-82483484D01*
X137910657Y-82482302D01*
X138039949Y-82499324D01*
X138048864Y-82500498D01*
X138048880Y-82500500D01*
X138048887Y-82500500D01*
X138311113Y-82500500D01*
X138311120Y-82500500D01*
X138451097Y-82482071D01*
X138520132Y-82492836D01*
X138572388Y-82539216D01*
X138586260Y-82570075D01*
X138606058Y-82637501D01*
X138606061Y-82637507D01*
X138683843Y-82758537D01*
X138683851Y-82758548D01*
X138729595Y-82811340D01*
X138729598Y-82811343D01*
X138729602Y-82811347D01*
X138838336Y-82905567D01*
X138838339Y-82905568D01*
X138838340Y-82905569D01*
X138888537Y-82928494D01*
X138969213Y-82965338D01*
X139036252Y-82985023D01*
X139036256Y-82985024D01*
X139178672Y-83005500D01*
X139178675Y-83005500D01*
X142261317Y-83005500D01*
X142261328Y-83005500D01*
X142345157Y-82998501D01*
X142385713Y-82991681D01*
X142467215Y-82970878D01*
X142595101Y-82904949D01*
X142651857Y-82864533D01*
X142652016Y-82864421D01*
X142657093Y-82859580D01*
X142756148Y-82765131D01*
X142828088Y-82640527D01*
X142854056Y-82575662D01*
X142854058Y-82575653D01*
X142855400Y-82571457D01*
X142855701Y-82571553D01*
X142855702Y-82571551D01*
X142855732Y-82571563D01*
X142856414Y-82571781D01*
X142888897Y-82515507D01*
X142950996Y-82483484D01*
X142990657Y-82482302D01*
X143119949Y-82499324D01*
X143128864Y-82500498D01*
X143128880Y-82500500D01*
X143128887Y-82500500D01*
X143391113Y-82500500D01*
X143391120Y-82500500D01*
X143531097Y-82482071D01*
X143600132Y-82492836D01*
X143652388Y-82539216D01*
X143666260Y-82570075D01*
X143686058Y-82637501D01*
X143686061Y-82637507D01*
X143763843Y-82758537D01*
X143763851Y-82758548D01*
X143809595Y-82811340D01*
X143809598Y-82811343D01*
X143809602Y-82811347D01*
X143918336Y-82905567D01*
X143918339Y-82905568D01*
X143918340Y-82905569D01*
X143968537Y-82928494D01*
X144049213Y-82965338D01*
X144116252Y-82985023D01*
X144116256Y-82985024D01*
X144258672Y-83005500D01*
X144258675Y-83005500D01*
X147341317Y-83005500D01*
X147341328Y-83005500D01*
X147425157Y-82998501D01*
X147465713Y-82991681D01*
X147547215Y-82970878D01*
X147675101Y-82904949D01*
X147731857Y-82864533D01*
X147732016Y-82864421D01*
X147737093Y-82859580D01*
X147836148Y-82765131D01*
X147908088Y-82640527D01*
X147934056Y-82575662D01*
X147934058Y-82575653D01*
X147935400Y-82571457D01*
X147935701Y-82571553D01*
X147935702Y-82571551D01*
X147935732Y-82571563D01*
X147936414Y-82571781D01*
X147968897Y-82515507D01*
X148030996Y-82483484D01*
X148070657Y-82482302D01*
X148199949Y-82499324D01*
X148208864Y-82500498D01*
X148208880Y-82500500D01*
X148208887Y-82500500D01*
X148471113Y-82500500D01*
X148471120Y-82500500D01*
X148611097Y-82482071D01*
X148680132Y-82492836D01*
X148732388Y-82539216D01*
X148746260Y-82570075D01*
X148766058Y-82637501D01*
X148766061Y-82637507D01*
X148843843Y-82758537D01*
X148843851Y-82758548D01*
X148889595Y-82811340D01*
X148889598Y-82811343D01*
X148889602Y-82811347D01*
X148998336Y-82905567D01*
X148998339Y-82905568D01*
X148998340Y-82905569D01*
X149048537Y-82928494D01*
X149129213Y-82965338D01*
X149196252Y-82985023D01*
X149196256Y-82985024D01*
X149338672Y-83005500D01*
X149338675Y-83005500D01*
X152421317Y-83005500D01*
X152421328Y-83005500D01*
X152505157Y-82998501D01*
X152545713Y-82991681D01*
X152627215Y-82970878D01*
X152755101Y-82904949D01*
X152811857Y-82864533D01*
X152812016Y-82864421D01*
X152817093Y-82859580D01*
X152916148Y-82765131D01*
X152988088Y-82640527D01*
X153014056Y-82575662D01*
X153014058Y-82575653D01*
X153015400Y-82571457D01*
X153015701Y-82571553D01*
X153015702Y-82571551D01*
X153015732Y-82571563D01*
X153016414Y-82571781D01*
X153048897Y-82515507D01*
X153110996Y-82483484D01*
X153150657Y-82482302D01*
X153279949Y-82499324D01*
X153288864Y-82500498D01*
X153288880Y-82500500D01*
X153288887Y-82500500D01*
X153551113Y-82500500D01*
X153551120Y-82500500D01*
X153691097Y-82482071D01*
X153760132Y-82492836D01*
X153812388Y-82539216D01*
X153826260Y-82570075D01*
X153846058Y-82637501D01*
X153846061Y-82637507D01*
X153923843Y-82758537D01*
X153923851Y-82758548D01*
X153969595Y-82811340D01*
X153969598Y-82811343D01*
X153969602Y-82811347D01*
X154078336Y-82905567D01*
X154078339Y-82905568D01*
X154078340Y-82905569D01*
X154128537Y-82928494D01*
X154209213Y-82965338D01*
X154276252Y-82985023D01*
X154276256Y-82985024D01*
X154418672Y-83005500D01*
X154418675Y-83005500D01*
X156501994Y-83005500D01*
X156501997Y-83005500D01*
X156627010Y-82989798D01*
X156686438Y-82974630D01*
X156803690Y-82928496D01*
X156918871Y-82842271D01*
X156968276Y-82792865D01*
X156968277Y-82792864D01*
X157054500Y-82677681D01*
X157068357Y-82640527D01*
X157090497Y-82581167D01*
X157132367Y-82525233D01*
X157197832Y-82500815D01*
X157206679Y-82500499D01*
X160047871Y-82500499D01*
X160047872Y-82500499D01*
X160107483Y-82494091D01*
X160242331Y-82443796D01*
X160357546Y-82357546D01*
X160443796Y-82242331D01*
X160472820Y-82164511D01*
X160514689Y-82108581D01*
X160580153Y-82084163D01*
X160597947Y-82084170D01*
X160633136Y-82086720D01*
X160702832Y-82081799D01*
X160702838Y-82081798D01*
X160843458Y-82051341D01*
X160969800Y-81982499D01*
X161025771Y-81940678D01*
X161127600Y-81839033D01*
X161776302Y-80974096D01*
X161832271Y-80932277D01*
X161901967Y-80927356D01*
X161963260Y-80960896D01*
X161996690Y-81022249D01*
X161999500Y-81048498D01*
X161999500Y-84875500D01*
X161979815Y-84942539D01*
X161927011Y-84988294D01*
X161875500Y-84999500D01*
X109124500Y-84999500D01*
X109057461Y-84979815D01*
X109011706Y-84927011D01*
X109000500Y-84875500D01*
X109000500Y-75123710D01*
X111244500Y-75123710D01*
X111244500Y-77220728D01*
X111258023Y-77336871D01*
X111271114Y-77392322D01*
X111310958Y-77502247D01*
X111310963Y-77502257D01*
X111329322Y-77538974D01*
X111351261Y-77582852D01*
X111351264Y-77582858D01*
X111381705Y-77643740D01*
X111381716Y-77643762D01*
X111558985Y-77998300D01*
X111558988Y-77998306D01*
X111567323Y-78014976D01*
X111577166Y-78034662D01*
X111577167Y-78034664D01*
X111613806Y-78107942D01*
X111627625Y-78135580D01*
X111642180Y-78164690D01*
X111664527Y-78209384D01*
X111731409Y-78343149D01*
X111744500Y-78398603D01*
X111744500Y-78688117D01*
X111747396Y-78742140D01*
X111747400Y-78742194D01*
X111750229Y-78768504D01*
X111750231Y-78768522D01*
X111758884Y-78821916D01*
X111758885Y-78821921D01*
X111809160Y-78956717D01*
X111809162Y-78956721D01*
X111842651Y-79018054D01*
X111928869Y-79133230D01*
X111928873Y-79133234D01*
X112044052Y-79219459D01*
X112105359Y-79252936D01*
X112105374Y-79252944D01*
X112105378Y-79252946D01*
X112105385Y-79252948D01*
X112105392Y-79252952D01*
X112240178Y-79303226D01*
X112240181Y-79303226D01*
X112240186Y-79303228D01*
X112304347Y-79307817D01*
X112369811Y-79332234D01*
X112411682Y-79388168D01*
X112419500Y-79431501D01*
X112419500Y-82047870D01*
X112419501Y-82047876D01*
X112425908Y-82107483D01*
X112476202Y-82242328D01*
X112476206Y-82242335D01*
X112562452Y-82357544D01*
X112562455Y-82357547D01*
X112677664Y-82443793D01*
X112677671Y-82443797D01*
X112812517Y-82494091D01*
X112812516Y-82494091D01*
X112819444Y-82494835D01*
X112872127Y-82500500D01*
X115967872Y-82500499D01*
X116027483Y-82494091D01*
X116162331Y-82443796D01*
X116277546Y-82357546D01*
X116363796Y-82242331D01*
X116414091Y-82107483D01*
X116420500Y-82047873D01*
X116420499Y-80368872D01*
X117499500Y-80368872D01*
X117499500Y-80631127D01*
X117524568Y-80821523D01*
X117533730Y-80891116D01*
X117596422Y-81125086D01*
X117601602Y-81144418D01*
X117601605Y-81144428D01*
X117701953Y-81386690D01*
X117701958Y-81386700D01*
X117833075Y-81613803D01*
X117992718Y-81821851D01*
X117992726Y-81821860D01*
X118178140Y-82007274D01*
X118178148Y-82007281D01*
X118386196Y-82166924D01*
X118613299Y-82298041D01*
X118613309Y-82298046D01*
X118855571Y-82398394D01*
X118855581Y-82398398D01*
X119108884Y-82466270D01*
X119357188Y-82498960D01*
X119368864Y-82500498D01*
X119368880Y-82500500D01*
X119368887Y-82500500D01*
X119631113Y-82500500D01*
X119631120Y-82500500D01*
X119891116Y-82466270D01*
X120144419Y-82398398D01*
X120386697Y-82298043D01*
X120613803Y-82166924D01*
X120821851Y-82007282D01*
X120821855Y-82007277D01*
X120821860Y-82007274D01*
X121007274Y-81821860D01*
X121007277Y-81821855D01*
X121007282Y-81821851D01*
X121166924Y-81613803D01*
X121298043Y-81386697D01*
X121398398Y-81144419D01*
X121466270Y-80891116D01*
X121500500Y-80631120D01*
X121500500Y-80397648D01*
X123449500Y-80397648D01*
X123449500Y-80602351D01*
X123481522Y-80804534D01*
X123544781Y-80999223D01*
X123608691Y-81124653D01*
X123632224Y-81170838D01*
X123637715Y-81181613D01*
X123758028Y-81347213D01*
X123902786Y-81491971D01*
X124057749Y-81604556D01*
X124068390Y-81612287D01*
X124184607Y-81671503D01*
X124250776Y-81705218D01*
X124250778Y-81705218D01*
X124250781Y-81705220D01*
X124355137Y-81739127D01*
X124445465Y-81768477D01*
X124546557Y-81784488D01*
X124647648Y-81800500D01*
X124647649Y-81800500D01*
X124852351Y-81800500D01*
X124852352Y-81800500D01*
X125054534Y-81768477D01*
X125249219Y-81705220D01*
X125431610Y-81612287D01*
X125524590Y-81544732D01*
X125597213Y-81491971D01*
X125597215Y-81491968D01*
X125597219Y-81491966D01*
X125741966Y-81347219D01*
X125741968Y-81347215D01*
X125741971Y-81347213D01*
X125794732Y-81274590D01*
X125862287Y-81181610D01*
X125955220Y-80999219D01*
X126018477Y-80804534D01*
X126050500Y-80602352D01*
X126050500Y-80397648D01*
X126048373Y-80384218D01*
X126045942Y-80368872D01*
X131099500Y-80368872D01*
X131099500Y-80631127D01*
X131124568Y-80821523D01*
X131133730Y-80891116D01*
X131196422Y-81125086D01*
X131201602Y-81144418D01*
X131201605Y-81144428D01*
X131301953Y-81386690D01*
X131301958Y-81386700D01*
X131433075Y-81613803D01*
X131592718Y-81821851D01*
X131592726Y-81821860D01*
X131778140Y-82007274D01*
X131778148Y-82007281D01*
X131986196Y-82166924D01*
X132213299Y-82298041D01*
X132213309Y-82298046D01*
X132455571Y-82398394D01*
X132455581Y-82398398D01*
X132708884Y-82466270D01*
X132957188Y-82498960D01*
X132968864Y-82500498D01*
X132968880Y-82500500D01*
X132968887Y-82500500D01*
X133231113Y-82500500D01*
X133231120Y-82500500D01*
X133491116Y-82466270D01*
X133744419Y-82398398D01*
X133986697Y-82298043D01*
X134213803Y-82166924D01*
X134421851Y-82007282D01*
X134421855Y-82007277D01*
X134421860Y-82007274D01*
X134607274Y-81821860D01*
X134607277Y-81821855D01*
X134607282Y-81821851D01*
X134766924Y-81613803D01*
X134898043Y-81386697D01*
X134998398Y-81144419D01*
X135066270Y-80891116D01*
X135100500Y-80631120D01*
X135100500Y-80368880D01*
X135066270Y-80108884D01*
X134998398Y-79855581D01*
X134982993Y-79818390D01*
X134898046Y-79613309D01*
X134898041Y-79613299D01*
X134766924Y-79386196D01*
X134644424Y-79226554D01*
X134607282Y-79178149D01*
X134607281Y-79178148D01*
X134607274Y-79178140D01*
X134421860Y-78992726D01*
X134421851Y-78992718D01*
X134213803Y-78833075D01*
X133986700Y-78701958D01*
X133986690Y-78701953D01*
X133744428Y-78601605D01*
X133744421Y-78601603D01*
X133744419Y-78601602D01*
X133491116Y-78533730D01*
X133433339Y-78526123D01*
X133231127Y-78499500D01*
X133231120Y-78499500D01*
X132968880Y-78499500D01*
X132968872Y-78499500D01*
X132737772Y-78529926D01*
X132708884Y-78533730D01*
X132581393Y-78567891D01*
X132455581Y-78601602D01*
X132455571Y-78601605D01*
X132213309Y-78701953D01*
X132213299Y-78701958D01*
X131986196Y-78833075D01*
X131778148Y-78992718D01*
X131592718Y-79178148D01*
X131433075Y-79386196D01*
X131301958Y-79613299D01*
X131301953Y-79613309D01*
X131201605Y-79855571D01*
X131201602Y-79855581D01*
X131133730Y-80108885D01*
X131099500Y-80368872D01*
X126045942Y-80368872D01*
X126018477Y-80195465D01*
X125955218Y-80000776D01*
X125921503Y-79934607D01*
X125862287Y-79818390D01*
X125854556Y-79807749D01*
X125741971Y-79652786D01*
X125597213Y-79508028D01*
X125431613Y-79387715D01*
X125431612Y-79387714D01*
X125431610Y-79387713D01*
X125322727Y-79332234D01*
X125249223Y-79294781D01*
X125054534Y-79231522D01*
X124879995Y-79203878D01*
X124852352Y-79199500D01*
X124647648Y-79199500D01*
X124623329Y-79203351D01*
X124445465Y-79231522D01*
X124250776Y-79294781D01*
X124068386Y-79387715D01*
X123902786Y-79508028D01*
X123758028Y-79652786D01*
X123637715Y-79818386D01*
X123544781Y-80000776D01*
X123481522Y-80195465D01*
X123449500Y-80397648D01*
X121500500Y-80397648D01*
X121500500Y-80368880D01*
X121466270Y-80108884D01*
X121398398Y-79855581D01*
X121382993Y-79818390D01*
X121298046Y-79613309D01*
X121298041Y-79613299D01*
X121166924Y-79386196D01*
X121044424Y-79226554D01*
X121007282Y-79178149D01*
X121007281Y-79178148D01*
X121007274Y-79178140D01*
X120821860Y-78992726D01*
X120821851Y-78992718D01*
X120613803Y-78833075D01*
X120386700Y-78701958D01*
X120386690Y-78701953D01*
X120144428Y-78601605D01*
X120144421Y-78601603D01*
X120144419Y-78601602D01*
X119891116Y-78533730D01*
X119833339Y-78526123D01*
X119631127Y-78499500D01*
X119631120Y-78499500D01*
X119368880Y-78499500D01*
X119368872Y-78499500D01*
X119137772Y-78529926D01*
X119108884Y-78533730D01*
X118981393Y-78567891D01*
X118855581Y-78601602D01*
X118855571Y-78601605D01*
X118613309Y-78701953D01*
X118613299Y-78701958D01*
X118386196Y-78833075D01*
X118178148Y-78992718D01*
X117992718Y-79178148D01*
X117833075Y-79386196D01*
X117701958Y-79613299D01*
X117701953Y-79613309D01*
X117601605Y-79855571D01*
X117601602Y-79855581D01*
X117533730Y-80108885D01*
X117499500Y-80368872D01*
X116420499Y-80368872D01*
X116420499Y-79297047D01*
X116440184Y-79230009D01*
X116492988Y-79184254D01*
X116509564Y-79178071D01*
X116540560Y-79168969D01*
X116637504Y-79140504D01*
X116758543Y-79062716D01*
X116811347Y-79016961D01*
X116905567Y-78908227D01*
X116965338Y-78777350D01*
X116985023Y-78710311D01*
X116985024Y-78710307D01*
X117005500Y-78567891D01*
X117005500Y-78260746D01*
X117025185Y-78193707D01*
X117041819Y-78173065D01*
X117220384Y-77994500D01*
X117571123Y-77643762D01*
X117607288Y-77603500D01*
X117623922Y-77582858D01*
X117655567Y-77538974D01*
X117715338Y-77408097D01*
X117735023Y-77341058D01*
X117735024Y-77341054D01*
X117755500Y-77198638D01*
X117755500Y-74824000D01*
X117755260Y-74821770D01*
X117755254Y-74816248D01*
X117764179Y-74785722D01*
X117771487Y-74754769D01*
X117774313Y-74751062D01*
X117774862Y-74749186D01*
X117777472Y-74746918D01*
X117791573Y-74728426D01*
X117820000Y-74699999D01*
X117820000Y-74305671D01*
X117820711Y-74292415D01*
X117825499Y-74247881D01*
X117825500Y-74247873D01*
X117825499Y-73735829D01*
X117839745Y-73750075D01*
X117925255Y-73799444D01*
X118020630Y-73825000D01*
X118119370Y-73825000D01*
X118214745Y-73799444D01*
X118300255Y-73750075D01*
X118314501Y-73735829D01*
X118314501Y-73988348D01*
X118319358Y-74035885D01*
X118320000Y-74048487D01*
X118320000Y-74699999D01*
X118383304Y-74699999D01*
X118383318Y-74699998D01*
X118487742Y-74689330D01*
X118663796Y-74630992D01*
X118664677Y-74633653D01*
X118721011Y-74625066D01*
X118745704Y-74632312D01*
X118745991Y-74631448D01*
X118752846Y-74633719D01*
X118752847Y-74633720D01*
X118922158Y-74689824D01*
X119026659Y-74700500D01*
X119653340Y-74700499D01*
X119653348Y-74700498D01*
X119653351Y-74700498D01*
X119710572Y-74694652D01*
X119757842Y-74689824D01*
X119927153Y-74633720D01*
X120078961Y-74540083D01*
X120205083Y-74413961D01*
X120298720Y-74262153D01*
X120354824Y-74092842D01*
X120365500Y-73988341D01*
X120365499Y-72911660D01*
X120364071Y-72897682D01*
X123450000Y-72897682D01*
X123450000Y-73102317D01*
X123482009Y-73304417D01*
X123545244Y-73499031D01*
X123638141Y-73681350D01*
X123638147Y-73681359D01*
X123670523Y-73725921D01*
X123670524Y-73725922D01*
X124350000Y-73046446D01*
X124350000Y-73052661D01*
X124377259Y-73154394D01*
X124429920Y-73245606D01*
X124504394Y-73320080D01*
X124595606Y-73372741D01*
X124697339Y-73400000D01*
X124703553Y-73400000D01*
X124024076Y-74079474D01*
X124068650Y-74111859D01*
X124250968Y-74204755D01*
X124445582Y-74267990D01*
X124647683Y-74300000D01*
X124852317Y-74300000D01*
X125054417Y-74267990D01*
X125249031Y-74204755D01*
X125431349Y-74111859D01*
X125475921Y-74079474D01*
X125475922Y-74079474D01*
X125376945Y-73980497D01*
X125294130Y-73897682D01*
X127310000Y-73897682D01*
X127310000Y-74102317D01*
X127342009Y-74304417D01*
X127405244Y-74499031D01*
X127498141Y-74681350D01*
X127498147Y-74681359D01*
X127530523Y-74725921D01*
X127530524Y-74725922D01*
X128210000Y-74046446D01*
X128210000Y-74052661D01*
X128237259Y-74154394D01*
X128289920Y-74245606D01*
X128364394Y-74320080D01*
X128455606Y-74372741D01*
X128557339Y-74400000D01*
X128563553Y-74400000D01*
X127884076Y-75079474D01*
X127928650Y-75111859D01*
X128110968Y-75204755D01*
X128305582Y-75267990D01*
X128507683Y-75300000D01*
X128712317Y-75300000D01*
X128914417Y-75267990D01*
X129109031Y-75204755D01*
X129291349Y-75111859D01*
X129335921Y-75079474D01*
X128656447Y-74400000D01*
X128662661Y-74400000D01*
X128764394Y-74372741D01*
X128855606Y-74320080D01*
X128930080Y-74245606D01*
X128982741Y-74154394D01*
X129010000Y-74052661D01*
X129010000Y-74046447D01*
X129689474Y-74725921D01*
X129721859Y-74681349D01*
X129814755Y-74499031D01*
X129877990Y-74304417D01*
X129910000Y-74102317D01*
X129910000Y-73897682D01*
X129909995Y-73897648D01*
X134809500Y-73897648D01*
X134809500Y-74102351D01*
X134841522Y-74304534D01*
X134904781Y-74499223D01*
X134937021Y-74562496D01*
X134997585Y-74681359D01*
X134997715Y-74681613D01*
X135118028Y-74847213D01*
X135262786Y-74991971D01*
X135383226Y-75079474D01*
X135428390Y-75112287D01*
X135544607Y-75171503D01*
X135610776Y-75205218D01*
X135610778Y-75205218D01*
X135610781Y-75205220D01*
X135715137Y-75239127D01*
X135805465Y-75268477D01*
X135906557Y-75284488D01*
X136007648Y-75300500D01*
X136007649Y-75300500D01*
X136212351Y-75300500D01*
X136212352Y-75300500D01*
X136414534Y-75268477D01*
X136609219Y-75205220D01*
X136791610Y-75112287D01*
X136884590Y-75044732D01*
X136957213Y-74991971D01*
X136957215Y-74991968D01*
X136957219Y-74991966D01*
X137101966Y-74847219D01*
X137101968Y-74847215D01*
X137101971Y-74847213D01*
X137169134Y-74754769D01*
X137222287Y-74681610D01*
X137315220Y-74499219D01*
X137348222Y-74397648D01*
X147449500Y-74397648D01*
X147449500Y-74602351D01*
X147481522Y-74804534D01*
X147544781Y-74999223D01*
X147602391Y-75112287D01*
X147637585Y-75181359D01*
X147637715Y-75181613D01*
X147758028Y-75347213D01*
X147902786Y-75491971D01*
X148023226Y-75579474D01*
X148068390Y-75612287D01*
X148184607Y-75671503D01*
X148250776Y-75705218D01*
X148250778Y-75705218D01*
X148250781Y-75705220D01*
X148355137Y-75739127D01*
X148445465Y-75768477D01*
X148546557Y-75784488D01*
X148647648Y-75800500D01*
X148647649Y-75800500D01*
X148852351Y-75800500D01*
X148852352Y-75800500D01*
X149054534Y-75768477D01*
X149249219Y-75705220D01*
X149431610Y-75612287D01*
X149524590Y-75544732D01*
X149597213Y-75491971D01*
X149597215Y-75491968D01*
X149597219Y-75491966D01*
X149741966Y-75347219D01*
X149741968Y-75347215D01*
X149741971Y-75347213D01*
X149799529Y-75267990D01*
X149862287Y-75181610D01*
X149955220Y-74999219D01*
X150018477Y-74804534D01*
X150050500Y-74602352D01*
X150050500Y-74397682D01*
X154950000Y-74397682D01*
X154950000Y-74602317D01*
X154982009Y-74804417D01*
X155045244Y-74999031D01*
X155138141Y-75181350D01*
X155138147Y-75181359D01*
X155170523Y-75225921D01*
X155170524Y-75225922D01*
X155850000Y-74546446D01*
X155850000Y-74552661D01*
X155877259Y-74654394D01*
X155929920Y-74745606D01*
X156004394Y-74820080D01*
X156095606Y-74872741D01*
X156197339Y-74900000D01*
X156203553Y-74900000D01*
X155524076Y-75579474D01*
X155568650Y-75611859D01*
X155750968Y-75704755D01*
X155945582Y-75767990D01*
X156147683Y-75800000D01*
X156352317Y-75800000D01*
X156554417Y-75767990D01*
X156749031Y-75704755D01*
X156931349Y-75611859D01*
X156975921Y-75579474D01*
X156296447Y-74900000D01*
X156302661Y-74900000D01*
X156404394Y-74872741D01*
X156495606Y-74820080D01*
X156570080Y-74745606D01*
X156622741Y-74654394D01*
X156650000Y-74552661D01*
X156650000Y-74546448D01*
X157329474Y-75225922D01*
X157329474Y-75225921D01*
X157361859Y-75181349D01*
X157454755Y-74999031D01*
X157517990Y-74804417D01*
X157550000Y-74602317D01*
X157550000Y-74397682D01*
X157517990Y-74195582D01*
X157454755Y-74000968D01*
X157361859Y-73818650D01*
X157329474Y-73774077D01*
X157329474Y-73774076D01*
X156650000Y-74453551D01*
X156650000Y-74447339D01*
X156622741Y-74345606D01*
X156570080Y-74254394D01*
X156495606Y-74179920D01*
X156404394Y-74127259D01*
X156302661Y-74100000D01*
X156296446Y-74100000D01*
X156975922Y-73420524D01*
X156975921Y-73420523D01*
X156931359Y-73388147D01*
X156931350Y-73388141D01*
X156749031Y-73295244D01*
X156554417Y-73232009D01*
X156352317Y-73200000D01*
X156147683Y-73200000D01*
X155945582Y-73232009D01*
X155750968Y-73295244D01*
X155568644Y-73388143D01*
X155524077Y-73420523D01*
X155524077Y-73420524D01*
X156203554Y-74100000D01*
X156197339Y-74100000D01*
X156095606Y-74127259D01*
X156004394Y-74179920D01*
X155929920Y-74254394D01*
X155877259Y-74345606D01*
X155850000Y-74447339D01*
X155850000Y-74453553D01*
X155170524Y-73774077D01*
X155170523Y-73774077D01*
X155138143Y-73818644D01*
X155045244Y-74000968D01*
X154982009Y-74195582D01*
X154950000Y-74397682D01*
X150050500Y-74397682D01*
X150050500Y-74397648D01*
X150035034Y-74300000D01*
X150018477Y-74195465D01*
X149972077Y-74052661D01*
X149955220Y-74000781D01*
X149955218Y-74000778D01*
X149955218Y-74000776D01*
X149876154Y-73845606D01*
X149862287Y-73818390D01*
X149830092Y-73774077D01*
X149741971Y-73652786D01*
X149597213Y-73508028D01*
X149431613Y-73387715D01*
X149431612Y-73387714D01*
X149431610Y-73387713D01*
X149364567Y-73353553D01*
X149249223Y-73294781D01*
X149054534Y-73231522D01*
X148879995Y-73203878D01*
X148852352Y-73199500D01*
X148647648Y-73199500D01*
X148623329Y-73203351D01*
X148445465Y-73231522D01*
X148250776Y-73294781D01*
X148068386Y-73387715D01*
X147902786Y-73508028D01*
X147758028Y-73652786D01*
X147637715Y-73818386D01*
X147544781Y-74000776D01*
X147481522Y-74195465D01*
X147449500Y-74397648D01*
X137348222Y-74397648D01*
X137378477Y-74304534D01*
X137410500Y-74102352D01*
X137410500Y-73897648D01*
X137390928Y-73774076D01*
X137378477Y-73695465D01*
X137345751Y-73594745D01*
X137315220Y-73500781D01*
X137315218Y-73500778D01*
X137315218Y-73500776D01*
X137257610Y-73387715D01*
X137222287Y-73318390D01*
X137205134Y-73294781D01*
X137101971Y-73152786D01*
X136957213Y-73008028D01*
X136791613Y-72887715D01*
X136791612Y-72887714D01*
X136791610Y-72887713D01*
X136720546Y-72851504D01*
X136609223Y-72794781D01*
X136414534Y-72731522D01*
X136239995Y-72703878D01*
X136212352Y-72699500D01*
X136007648Y-72699500D01*
X135983329Y-72703351D01*
X135805465Y-72731522D01*
X135610776Y-72794781D01*
X135428386Y-72887715D01*
X135262786Y-73008028D01*
X135118028Y-73152786D01*
X134997715Y-73318386D01*
X134904781Y-73500776D01*
X134841522Y-73695465D01*
X134809500Y-73897648D01*
X129909995Y-73897648D01*
X129877990Y-73695582D01*
X129814755Y-73500968D01*
X129721859Y-73318650D01*
X129689474Y-73274077D01*
X129689474Y-73274076D01*
X129010000Y-73953551D01*
X129010000Y-73947339D01*
X128982741Y-73845606D01*
X128930080Y-73754394D01*
X128855606Y-73679920D01*
X128764394Y-73627259D01*
X128662661Y-73600000D01*
X128656446Y-73600000D01*
X129335922Y-72920524D01*
X129335921Y-72920523D01*
X129291359Y-72888147D01*
X129291350Y-72888141D01*
X129109031Y-72795244D01*
X128914417Y-72732009D01*
X128712317Y-72700000D01*
X128507683Y-72700000D01*
X128305582Y-72732009D01*
X128110968Y-72795244D01*
X127928644Y-72888143D01*
X127884077Y-72920523D01*
X127884077Y-72920524D01*
X128563554Y-73600000D01*
X128557339Y-73600000D01*
X128455606Y-73627259D01*
X128364394Y-73679920D01*
X128289920Y-73754394D01*
X128237259Y-73845606D01*
X128210000Y-73947339D01*
X128210000Y-73953553D01*
X127530524Y-73274077D01*
X127530523Y-73274077D01*
X127498143Y-73318644D01*
X127405244Y-73500968D01*
X127342009Y-73695582D01*
X127310000Y-73897682D01*
X125294130Y-73897682D01*
X124796447Y-73400000D01*
X124802661Y-73400000D01*
X124904394Y-73372741D01*
X124995606Y-73320080D01*
X125070080Y-73245606D01*
X125122741Y-73154394D01*
X125150000Y-73052661D01*
X125150000Y-73046447D01*
X125829474Y-73725921D01*
X125861859Y-73681349D01*
X125954755Y-73499031D01*
X126017990Y-73304417D01*
X126050000Y-73102317D01*
X126050000Y-72897682D01*
X126017990Y-72695582D01*
X125954755Y-72500968D01*
X125861859Y-72318650D01*
X125829474Y-72274077D01*
X125829474Y-72274076D01*
X125150000Y-72953551D01*
X125150000Y-72947339D01*
X125122741Y-72845606D01*
X125070080Y-72754394D01*
X124995606Y-72679920D01*
X124904394Y-72627259D01*
X124802661Y-72600000D01*
X124796446Y-72600000D01*
X125475922Y-71920524D01*
X125475921Y-71920523D01*
X125431359Y-71888147D01*
X125431350Y-71888141D01*
X125249031Y-71795244D01*
X125054417Y-71732009D01*
X124852317Y-71700000D01*
X124647683Y-71700000D01*
X124445582Y-71732009D01*
X124250968Y-71795244D01*
X124068644Y-71888143D01*
X124024077Y-71920523D01*
X124024077Y-71920524D01*
X124703554Y-72600000D01*
X124697339Y-72600000D01*
X124595606Y-72627259D01*
X124504394Y-72679920D01*
X124429920Y-72754394D01*
X124377259Y-72845606D01*
X124350000Y-72947339D01*
X124350000Y-72953553D01*
X123670524Y-72274077D01*
X123670523Y-72274077D01*
X123638143Y-72318644D01*
X123545244Y-72500968D01*
X123482009Y-72695582D01*
X123450000Y-72897682D01*
X120364071Y-72897682D01*
X120354824Y-72807158D01*
X120343627Y-72773369D01*
X120342044Y-72763427D01*
X120342754Y-72757890D01*
X120340500Y-72743920D01*
X120340500Y-70257882D01*
X125405669Y-70257882D01*
X125405670Y-70257883D01*
X125431059Y-70276329D01*
X125599362Y-70362085D01*
X125778997Y-70420451D01*
X125965553Y-70450000D01*
X126154447Y-70450000D01*
X126341002Y-70420451D01*
X126520637Y-70362085D01*
X126637674Y-70302452D01*
X126688936Y-70276331D01*
X126714328Y-70257883D01*
X126714328Y-70257882D01*
X126060001Y-69603554D01*
X126060000Y-69603554D01*
X125405669Y-70257882D01*
X120340500Y-70257882D01*
X120340500Y-70051456D01*
X120320318Y-69950000D01*
X120312486Y-69910626D01*
X120302051Y-69858164D01*
X120266962Y-69773453D01*
X120265158Y-69769100D01*
X120265157Y-69769094D01*
X120226635Y-69676093D01*
X120226634Y-69676092D01*
X120226632Y-69676086D01*
X120129768Y-69531118D01*
X120117139Y-69512217D01*
X119974686Y-69369764D01*
X119974655Y-69369735D01*
X119760472Y-69155552D01*
X124860000Y-69155552D01*
X124860000Y-69344447D01*
X124889548Y-69531002D01*
X124947914Y-69710637D01*
X125033666Y-69878933D01*
X125052116Y-69904328D01*
X125706446Y-69250000D01*
X125706446Y-69249999D01*
X125660369Y-69203922D01*
X125710000Y-69203922D01*
X125710000Y-69296078D01*
X125733852Y-69385095D01*
X125779930Y-69464905D01*
X125845095Y-69530070D01*
X125924905Y-69576148D01*
X126013922Y-69600000D01*
X126106078Y-69600000D01*
X126195095Y-69576148D01*
X126274905Y-69530070D01*
X126340070Y-69464905D01*
X126386148Y-69385095D01*
X126410000Y-69296078D01*
X126410000Y-69203922D01*
X126386148Y-69114905D01*
X126340070Y-69035095D01*
X126274905Y-68969930D01*
X126195095Y-68923852D01*
X126106078Y-68900000D01*
X126013922Y-68900000D01*
X125924905Y-68923852D01*
X125845095Y-68969930D01*
X125779930Y-69035095D01*
X125733852Y-69114905D01*
X125710000Y-69203922D01*
X125660369Y-69203922D01*
X125052116Y-68595669D01*
X125052116Y-68595670D01*
X125033669Y-68621060D01*
X124947914Y-68789362D01*
X124889548Y-68968997D01*
X124860000Y-69155552D01*
X119760472Y-69155552D01*
X119646419Y-69041499D01*
X119612934Y-68980176D01*
X119611626Y-68973212D01*
X119610940Y-68968884D01*
X119610940Y-68968882D01*
X119552547Y-68789168D01*
X119552545Y-68789165D01*
X119552545Y-68789163D01*
X119482639Y-68651965D01*
X119466760Y-68620801D01*
X119466758Y-68620798D01*
X119466757Y-68620796D01*
X119464179Y-68617247D01*
X119440702Y-68551439D01*
X119440500Y-68544366D01*
X119440500Y-67455632D01*
X119460185Y-67388593D01*
X119464177Y-67382753D01*
X119466760Y-67379199D01*
X119552547Y-67210832D01*
X119610940Y-67031118D01*
X119615992Y-66999219D01*
X119640500Y-66844486D01*
X119640500Y-66655513D01*
X119610940Y-66468881D01*
X119583584Y-66384690D01*
X119552547Y-66289168D01*
X119552545Y-66289165D01*
X119552545Y-66289163D01*
X119466759Y-66120800D01*
X119355690Y-65967927D01*
X119222073Y-65834310D01*
X119069199Y-65723240D01*
X118900836Y-65637454D01*
X118721118Y-65579059D01*
X118534486Y-65549500D01*
X118534481Y-65549500D01*
X118345519Y-65549500D01*
X118345514Y-65549500D01*
X118158881Y-65579059D01*
X117979163Y-65637454D01*
X117810800Y-65723240D01*
X117723579Y-65786610D01*
X117657927Y-65834310D01*
X117657925Y-65834312D01*
X117657924Y-65834312D01*
X117524312Y-65967924D01*
X117524312Y-65967925D01*
X117524310Y-65967927D01*
X117500444Y-66000776D01*
X117413240Y-66120800D01*
X117327454Y-66289163D01*
X117269059Y-66468881D01*
X117239500Y-66655513D01*
X117239500Y-66844486D01*
X117269059Y-67031118D01*
X117327454Y-67210836D01*
X117401147Y-67355466D01*
X117413240Y-67379199D01*
X117415814Y-67382742D01*
X117439297Y-67448546D01*
X117439500Y-67455632D01*
X117439500Y-68544366D01*
X117419815Y-68611405D01*
X117415821Y-68617247D01*
X117413242Y-68620796D01*
X117327454Y-68789163D01*
X117269059Y-68968881D01*
X117239500Y-69155513D01*
X117239500Y-69344486D01*
X117269059Y-69531118D01*
X117327454Y-69710836D01*
X117369140Y-69792648D01*
X117413240Y-69879199D01*
X117524310Y-70032073D01*
X117657927Y-70165690D01*
X117810801Y-70276760D01*
X117861225Y-70302452D01*
X117979163Y-70362545D01*
X117979165Y-70362545D01*
X117979168Y-70362547D01*
X118158882Y-70420940D01*
X118161177Y-70421303D01*
X118163212Y-70421626D01*
X118182446Y-70430743D01*
X118203245Y-70435268D01*
X118222673Y-70449812D01*
X118226348Y-70451554D01*
X118231499Y-70456419D01*
X118303181Y-70528101D01*
X118336666Y-70589424D01*
X118339500Y-70615782D01*
X118339500Y-72129138D01*
X118320000Y-72195546D01*
X118320000Y-72851504D01*
X118319358Y-72864107D01*
X118314500Y-72911651D01*
X118314500Y-72911659D01*
X118314500Y-73164170D01*
X118300255Y-73149925D01*
X118214745Y-73100556D01*
X118119370Y-73075000D01*
X118020630Y-73075000D01*
X117925255Y-73100556D01*
X117839745Y-73149925D01*
X117825499Y-73164170D01*
X117825499Y-72652128D01*
X117820710Y-72607577D01*
X117820000Y-72594324D01*
X117820000Y-72200000D01*
X117819999Y-72199999D01*
X117756696Y-72200000D01*
X117756679Y-72200001D01*
X117652259Y-72210668D01*
X117584072Y-72233263D01*
X117514244Y-72235663D01*
X117501738Y-72231738D01*
X117432485Y-72205909D01*
X117432483Y-72205908D01*
X117372883Y-72199501D01*
X117372881Y-72199500D01*
X117372873Y-72199500D01*
X117372865Y-72199500D01*
X116430552Y-72199500D01*
X116363513Y-72179815D01*
X116317758Y-72127011D01*
X116313073Y-72114454D01*
X116312182Y-72112503D01*
X116312180Y-72112496D01*
X116234392Y-71991457D01*
X116217191Y-71971606D01*
X116188643Y-71938659D01*
X116188639Y-71938656D01*
X116188637Y-71938653D01*
X116079903Y-71844433D01*
X116079900Y-71844431D01*
X116079898Y-71844430D01*
X115949032Y-71784664D01*
X115949027Y-71784662D01*
X115949026Y-71784662D01*
X115881987Y-71764977D01*
X115881989Y-71764977D01*
X115881984Y-71764976D01*
X115834511Y-71758150D01*
X115739567Y-71744500D01*
X112551362Y-71744500D01*
X112551360Y-71744500D01*
X112497311Y-71747397D01*
X112497310Y-71747397D01*
X112470977Y-71750229D01*
X112470950Y-71750232D01*
X112417554Y-71758885D01*
X112417552Y-71758885D01*
X112282747Y-71809166D01*
X112221419Y-71842653D01*
X112221417Y-71842654D01*
X112106246Y-71928869D01*
X112106228Y-71928885D01*
X111819953Y-72215160D01*
X111758101Y-72290253D01*
X111758090Y-72290268D01*
X111731570Y-72329653D01*
X111731557Y-72329675D01*
X111685237Y-72415231D01*
X111685234Y-72415237D01*
X111648661Y-72554382D01*
X111648660Y-72554386D01*
X111640695Y-72623805D01*
X111644804Y-72767620D01*
X111689262Y-72904449D01*
X111689265Y-72904455D01*
X111689266Y-72904458D01*
X111720094Y-72967159D01*
X111720096Y-72967163D01*
X111748043Y-73008034D01*
X111754535Y-73017527D01*
X111776126Y-73083976D01*
X111758365Y-73151551D01*
X111752495Y-73160404D01*
X111637715Y-73318386D01*
X111544781Y-73500776D01*
X111481522Y-73695465D01*
X111449500Y-73897648D01*
X111449500Y-74102351D01*
X111481523Y-74304535D01*
X111481523Y-74304538D01*
X111540874Y-74487198D01*
X111542869Y-74557039D01*
X111506789Y-74616872D01*
X111494869Y-74626064D01*
X111494997Y-74626235D01*
X111491444Y-74628893D01*
X111438659Y-74674632D01*
X111344433Y-74783373D01*
X111344430Y-74783377D01*
X111284664Y-74914243D01*
X111264976Y-74981291D01*
X111244500Y-75123710D01*
X109000500Y-75123710D01*
X109000500Y-66397648D01*
X111449500Y-66397648D01*
X111449500Y-66602351D01*
X111481522Y-66804534D01*
X111544781Y-66999223D01*
X111637715Y-67181613D01*
X111758028Y-67347213D01*
X111902786Y-67491971D01*
X112057749Y-67604556D01*
X112068390Y-67612287D01*
X112172426Y-67665296D01*
X112250776Y-67705218D01*
X112250778Y-67705218D01*
X112250781Y-67705220D01*
X112355137Y-67739127D01*
X112445465Y-67768477D01*
X112546557Y-67784488D01*
X112647648Y-67800500D01*
X112647649Y-67800500D01*
X112852351Y-67800500D01*
X112852352Y-67800500D01*
X113054534Y-67768477D01*
X113249219Y-67705220D01*
X113431610Y-67612287D01*
X113555210Y-67522487D01*
X113597213Y-67491971D01*
X113597215Y-67491968D01*
X113597219Y-67491966D01*
X113741966Y-67347219D01*
X113741968Y-67347215D01*
X113741971Y-67347213D01*
X113841056Y-67210832D01*
X113862287Y-67181610D01*
X113955220Y-66999219D01*
X114018477Y-66804534D01*
X114050500Y-66602352D01*
X114050500Y-66397648D01*
X114024309Y-66232287D01*
X114018477Y-66195465D01*
X113955218Y-66000776D01*
X113921503Y-65934607D01*
X113862287Y-65818390D01*
X113850096Y-65801610D01*
X113741971Y-65652786D01*
X113597213Y-65508028D01*
X113431613Y-65387715D01*
X113431612Y-65387714D01*
X113431610Y-65387713D01*
X113374653Y-65358691D01*
X113249223Y-65294781D01*
X113054534Y-65231522D01*
X112879995Y-65203878D01*
X112852352Y-65199500D01*
X112647648Y-65199500D01*
X112623329Y-65203351D01*
X112445465Y-65231522D01*
X112250776Y-65294781D01*
X112068386Y-65387715D01*
X111902786Y-65508028D01*
X111758028Y-65652786D01*
X111637715Y-65818386D01*
X111544781Y-66000776D01*
X111481522Y-66195465D01*
X111449500Y-66397648D01*
X109000500Y-66397648D01*
X109000500Y-63381947D01*
X114000000Y-63381947D01*
X114000000Y-63618052D01*
X114036934Y-63851247D01*
X114109897Y-64075802D01*
X114217087Y-64286174D01*
X114277338Y-64369104D01*
X114277340Y-64369105D01*
X115017037Y-63629408D01*
X115034075Y-63692993D01*
X115099901Y-63807007D01*
X115192993Y-63900099D01*
X115307007Y-63965925D01*
X115370590Y-63982962D01*
X114630893Y-64722658D01*
X114713828Y-64782914D01*
X114924197Y-64890102D01*
X115148752Y-64963065D01*
X115148751Y-64963065D01*
X115381948Y-65000000D01*
X115618052Y-65000000D01*
X115851247Y-64963065D01*
X116075802Y-64890102D01*
X116286163Y-64782918D01*
X116286169Y-64782914D01*
X116369104Y-64722658D01*
X116369105Y-64722658D01*
X115629408Y-63982962D01*
X115692993Y-63965925D01*
X115807007Y-63900099D01*
X115900099Y-63807007D01*
X115965925Y-63692993D01*
X115982962Y-63629409D01*
X116722658Y-64369105D01*
X116722658Y-64369104D01*
X116782914Y-64286169D01*
X116782918Y-64286163D01*
X116890102Y-64075802D01*
X116963065Y-63851247D01*
X117000000Y-63618052D01*
X117000000Y-63381947D01*
X116963065Y-63148752D01*
X116890102Y-62924197D01*
X116782914Y-62713828D01*
X116722658Y-62630894D01*
X116722658Y-62630893D01*
X115982962Y-63370590D01*
X115965925Y-63307007D01*
X115900099Y-63192993D01*
X115807007Y-63099901D01*
X115692993Y-63034075D01*
X115629409Y-63017037D01*
X116369105Y-62277340D01*
X116369104Y-62277338D01*
X116286174Y-62217087D01*
X116075802Y-62109897D01*
X115851247Y-62036934D01*
X115851248Y-62036934D01*
X115618052Y-62000000D01*
X115381948Y-62000000D01*
X115148752Y-62036934D01*
X114924197Y-62109897D01*
X114713830Y-62217084D01*
X114630894Y-62277340D01*
X115370591Y-63017037D01*
X115307007Y-63034075D01*
X115192993Y-63099901D01*
X115099901Y-63192993D01*
X115034075Y-63307007D01*
X115017037Y-63370591D01*
X114277340Y-62630894D01*
X114217084Y-62713830D01*
X114109897Y-62924197D01*
X114036934Y-63148752D01*
X114000000Y-63381947D01*
X109000500Y-63381947D01*
X109000500Y-60567882D01*
X110345669Y-60567882D01*
X110345670Y-60567883D01*
X110371059Y-60586329D01*
X110539362Y-60672085D01*
X110718997Y-60730451D01*
X110905553Y-60760000D01*
X111094447Y-60760000D01*
X111281002Y-60730451D01*
X111460637Y-60672085D01*
X111628937Y-60586331D01*
X111654328Y-60567883D01*
X111654328Y-60567882D01*
X111000001Y-59913554D01*
X111000000Y-59913554D01*
X110345669Y-60567882D01*
X109000500Y-60567882D01*
X109000500Y-59465552D01*
X109800000Y-59465552D01*
X109800000Y-59654447D01*
X109829548Y-59841002D01*
X109887914Y-60020637D01*
X109973666Y-60188933D01*
X109992116Y-60214328D01*
X110646446Y-59560000D01*
X110646446Y-59559999D01*
X110600369Y-59513922D01*
X110650000Y-59513922D01*
X110650000Y-59606078D01*
X110673852Y-59695095D01*
X110719930Y-59774905D01*
X110785095Y-59840070D01*
X110864905Y-59886148D01*
X110953922Y-59910000D01*
X111046078Y-59910000D01*
X111135095Y-59886148D01*
X111214905Y-59840070D01*
X111280070Y-59774905D01*
X111326148Y-59695095D01*
X111350000Y-59606078D01*
X111350000Y-59559999D01*
X111353554Y-59559999D01*
X111353554Y-59560000D01*
X112007882Y-60214328D01*
X112007883Y-60214328D01*
X112026331Y-60188937D01*
X112112085Y-60020637D01*
X112170451Y-59841002D01*
X112200000Y-59654447D01*
X112200000Y-59465552D01*
X112170451Y-59278997D01*
X112112085Y-59099362D01*
X112026329Y-58931059D01*
X112007883Y-58905670D01*
X112007882Y-58905669D01*
X111353554Y-59559999D01*
X111350000Y-59559999D01*
X111350000Y-59513922D01*
X111326148Y-59424905D01*
X111280070Y-59345095D01*
X111214905Y-59279930D01*
X111135095Y-59233852D01*
X111046078Y-59210000D01*
X110953922Y-59210000D01*
X110864905Y-59233852D01*
X110785095Y-59279930D01*
X110719930Y-59345095D01*
X110673852Y-59424905D01*
X110650000Y-59513922D01*
X110600369Y-59513922D01*
X109992116Y-58905669D01*
X109992116Y-58905670D01*
X109973669Y-58931060D01*
X109887914Y-59099362D01*
X109829548Y-59278997D01*
X109800000Y-59465552D01*
X109000500Y-59465552D01*
X109000500Y-58552116D01*
X110345669Y-58552116D01*
X111000000Y-59206446D01*
X111000001Y-59206446D01*
X111654328Y-58552116D01*
X111628933Y-58533666D01*
X111460637Y-58447914D01*
X111281002Y-58389548D01*
X111094447Y-58360000D01*
X110905553Y-58360000D01*
X110718997Y-58389548D01*
X110539362Y-58447914D01*
X110371060Y-58533669D01*
X110345670Y-58552116D01*
X110345669Y-58552116D01*
X109000500Y-58552116D01*
X109000500Y-51845513D01*
X109799500Y-51845513D01*
X109799500Y-52034486D01*
X109829059Y-52221118D01*
X109887454Y-52400836D01*
X109967902Y-52558722D01*
X109973240Y-52569199D01*
X110084310Y-52722073D01*
X110217927Y-52855690D01*
X110370801Y-52966760D01*
X110448544Y-53006372D01*
X110539163Y-53052545D01*
X110539165Y-53052545D01*
X110539168Y-53052547D01*
X110607708Y-53074817D01*
X110718881Y-53110940D01*
X110905514Y-53140500D01*
X110905519Y-53140500D01*
X111094486Y-53140500D01*
X111281118Y-53110940D01*
X111309823Y-53101613D01*
X111460832Y-53052547D01*
X111629199Y-52966760D01*
X111632746Y-52964183D01*
X111698552Y-52940702D01*
X111705633Y-52940500D01*
X115911625Y-52940500D01*
X115978664Y-52960185D01*
X116024419Y-53012989D01*
X116034363Y-53082147D01*
X116010001Y-53139986D01*
X115914738Y-53264135D01*
X115914727Y-53264151D01*
X115792791Y-53475348D01*
X115792786Y-53475359D01*
X115699459Y-53700669D01*
X115699456Y-53700679D01*
X115636452Y-53935818D01*
X115636335Y-53936253D01*
X115636333Y-53936264D01*
X115604500Y-54178048D01*
X115604500Y-54421951D01*
X115629773Y-54613907D01*
X115636334Y-54663744D01*
X115636335Y-54663746D01*
X115699456Y-54899320D01*
X115699459Y-54899330D01*
X115792786Y-55124640D01*
X115792791Y-55124651D01*
X115914727Y-55335848D01*
X115914738Y-55335864D01*
X116063199Y-55529343D01*
X116063205Y-55529350D01*
X116235649Y-55701794D01*
X116235655Y-55701799D01*
X116429144Y-55850268D01*
X116429151Y-55850272D01*
X116640348Y-55972208D01*
X116640353Y-55972210D01*
X116640356Y-55972212D01*
X116865679Y-56065544D01*
X116956882Y-56089981D01*
X117016541Y-56126344D01*
X117047071Y-56189191D01*
X117038777Y-56258566D01*
X116994292Y-56312445D01*
X116963107Y-56327686D01*
X116779163Y-56387454D01*
X116610800Y-56473240D01*
X116562911Y-56508034D01*
X116457927Y-56584310D01*
X116457925Y-56584312D01*
X116457924Y-56584312D01*
X116324312Y-56717924D01*
X116324312Y-56717925D01*
X116324310Y-56717927D01*
X116320724Y-56722863D01*
X116213240Y-56870800D01*
X116127454Y-57039163D01*
X116069059Y-57218881D01*
X116039500Y-57405513D01*
X116039500Y-57594486D01*
X116069059Y-57781118D01*
X116127454Y-57960836D01*
X116203168Y-58109432D01*
X116213240Y-58129199D01*
X116324310Y-58282073D01*
X116457927Y-58415690D01*
X116610801Y-58526760D01*
X116779168Y-58612547D01*
X116834250Y-58630444D01*
X116891926Y-58669882D01*
X116919124Y-58734240D01*
X116907209Y-58803087D01*
X116859965Y-58854562D01*
X116834251Y-58866306D01*
X116769164Y-58887454D01*
X116600800Y-58973240D01*
X116564935Y-58999298D01*
X116447927Y-59084310D01*
X116447925Y-59084312D01*
X116447924Y-59084312D01*
X116314312Y-59217924D01*
X116314312Y-59217925D01*
X116314310Y-59217927D01*
X116302740Y-59233852D01*
X116203240Y-59370800D01*
X116117454Y-59539163D01*
X116059059Y-59718881D01*
X116029500Y-59905513D01*
X116029500Y-60094486D01*
X116059059Y-60281118D01*
X116117454Y-60460836D01*
X116203240Y-60629199D01*
X116314310Y-60782073D01*
X116447927Y-60915690D01*
X116600801Y-61026760D01*
X116680347Y-61067290D01*
X116769163Y-61112545D01*
X116769165Y-61112545D01*
X116769168Y-61112547D01*
X116865497Y-61143846D01*
X116948881Y-61170940D01*
X117135514Y-61200500D01*
X117135519Y-61200500D01*
X117324486Y-61200500D01*
X117511118Y-61170940D01*
X117690832Y-61112547D01*
X117859199Y-61026760D01*
X118012073Y-60915690D01*
X118145690Y-60782073D01*
X118256760Y-60629199D01*
X118342547Y-60460832D01*
X118400940Y-60281118D01*
X118430500Y-60094486D01*
X118430500Y-59905513D01*
X118400940Y-59718881D01*
X118364864Y-59607853D01*
X118342547Y-59539168D01*
X118342545Y-59539165D01*
X118342545Y-59539163D01*
X118256759Y-59370800D01*
X118145690Y-59217927D01*
X118012073Y-59084310D01*
X117859199Y-58973240D01*
X117690835Y-58887454D01*
X117635748Y-58869555D01*
X117578073Y-58830116D01*
X117550875Y-58765757D01*
X117562790Y-58696911D01*
X117610035Y-58645436D01*
X117635745Y-58633694D01*
X117700832Y-58612547D01*
X117869199Y-58526760D01*
X118022073Y-58415690D01*
X118155690Y-58282073D01*
X118266760Y-58129199D01*
X118352547Y-57960832D01*
X118410940Y-57781118D01*
X118416527Y-57745841D01*
X118440500Y-57594486D01*
X118440500Y-57405513D01*
X118410940Y-57218881D01*
X118366743Y-57082858D01*
X118352547Y-57039168D01*
X118352545Y-57039165D01*
X118352545Y-57039163D01*
X118266759Y-56870800D01*
X118260524Y-56862218D01*
X118155690Y-56717927D01*
X118022073Y-56584310D01*
X117869199Y-56473240D01*
X117715615Y-56394985D01*
X117664819Y-56347010D01*
X117648024Y-56279189D01*
X117670561Y-56213054D01*
X117725277Y-56169603D01*
X117771910Y-56160500D01*
X118106937Y-56160500D01*
X118106944Y-56160500D01*
X118348744Y-56128666D01*
X118584321Y-56065544D01*
X118809644Y-55972212D01*
X119020856Y-55850268D01*
X119214345Y-55701799D01*
X119386799Y-55529345D01*
X119535268Y-55335856D01*
X119657212Y-55124644D01*
X119750544Y-54899321D01*
X119813666Y-54663744D01*
X119845500Y-54421944D01*
X119845500Y-54178056D01*
X119813666Y-53936256D01*
X119750544Y-53700679D01*
X119748320Y-53695311D01*
X119700356Y-53579515D01*
X119657212Y-53475356D01*
X119657210Y-53475353D01*
X119657208Y-53475348D01*
X119535272Y-53264151D01*
X119535268Y-53264144D01*
X119440393Y-53140500D01*
X119439999Y-53139986D01*
X119414805Y-53074817D01*
X119428844Y-53006372D01*
X119477658Y-52956382D01*
X119538375Y-52940500D01*
X123719831Y-52940500D01*
X123786870Y-52960185D01*
X123832625Y-53012989D01*
X123836013Y-53021167D01*
X123881202Y-53142328D01*
X123881206Y-53142335D01*
X123967452Y-53257544D01*
X123967455Y-53257547D01*
X124082664Y-53343793D01*
X124082671Y-53343797D01*
X124217517Y-53394091D01*
X124217516Y-53394091D01*
X124224444Y-53394835D01*
X124277127Y-53400500D01*
X126172872Y-53400499D01*
X126232483Y-53394091D01*
X126367331Y-53343796D01*
X126482546Y-53257546D01*
X126568796Y-53142331D01*
X126619091Y-53007483D01*
X126625500Y-52947873D01*
X126625499Y-51052128D01*
X126619091Y-50992517D01*
X126590093Y-50914770D01*
X126568797Y-50857671D01*
X126568793Y-50857664D01*
X126482547Y-50742455D01*
X126457582Y-50723766D01*
X126415712Y-50667832D01*
X126410728Y-50598140D01*
X126444214Y-50536818D01*
X126505538Y-50503333D01*
X126531894Y-50500500D01*
X127034218Y-50500500D01*
X127101257Y-50520185D01*
X127121899Y-50536819D01*
X127692989Y-51107909D01*
X127726474Y-51169232D01*
X127721490Y-51238924D01*
X127679618Y-51294857D01*
X127661615Y-51306069D01*
X127658388Y-51307713D01*
X127492786Y-51428028D01*
X127348028Y-51572786D01*
X127227715Y-51738386D01*
X127134781Y-51920776D01*
X127071522Y-52115465D01*
X127039500Y-52317648D01*
X127039500Y-52522351D01*
X127071522Y-52724534D01*
X127134781Y-52919223D01*
X127179752Y-53007482D01*
X127214061Y-53074817D01*
X127227715Y-53101613D01*
X127348028Y-53267213D01*
X127492786Y-53411971D01*
X127647749Y-53524556D01*
X127658390Y-53532287D01*
X127749840Y-53578883D01*
X127751080Y-53579515D01*
X127801876Y-53627490D01*
X127818671Y-53695311D01*
X127796134Y-53761446D01*
X127751080Y-53800485D01*
X127658386Y-53847715D01*
X127492786Y-53968028D01*
X127348028Y-54112786D01*
X127227715Y-54278386D01*
X127134781Y-54460776D01*
X127071522Y-54655465D01*
X127039500Y-54857648D01*
X127039500Y-55062351D01*
X127071522Y-55264534D01*
X127134781Y-55459223D01*
X127198691Y-55584653D01*
X127205381Y-55597782D01*
X127227715Y-55641613D01*
X127348028Y-55807213D01*
X127492786Y-55951971D01*
X127647749Y-56064556D01*
X127658390Y-56072287D01*
X127749840Y-56118883D01*
X127751080Y-56119515D01*
X127801876Y-56167490D01*
X127818671Y-56235311D01*
X127796134Y-56301446D01*
X127751080Y-56340485D01*
X127658386Y-56387715D01*
X127537123Y-56475818D01*
X127471317Y-56499298D01*
X127464238Y-56499500D01*
X125565633Y-56499500D01*
X125498594Y-56479815D01*
X125492746Y-56475817D01*
X125489200Y-56473240D01*
X125320836Y-56387454D01*
X125141118Y-56329059D01*
X124954486Y-56299500D01*
X124954481Y-56299500D01*
X124765519Y-56299500D01*
X124765514Y-56299500D01*
X124578881Y-56329059D01*
X124399163Y-56387454D01*
X124230800Y-56473240D01*
X124182911Y-56508034D01*
X124077927Y-56584310D01*
X124077925Y-56584312D01*
X124077924Y-56584312D01*
X123944312Y-56717924D01*
X123944312Y-56717925D01*
X123944310Y-56717927D01*
X123940724Y-56722863D01*
X123833240Y-56870800D01*
X123747454Y-57039163D01*
X123689059Y-57218881D01*
X123659500Y-57405513D01*
X123659500Y-57594486D01*
X123689059Y-57781118D01*
X123747454Y-57960836D01*
X123823168Y-58109432D01*
X123833240Y-58129199D01*
X123944310Y-58282073D01*
X124077927Y-58415690D01*
X124230801Y-58526760D01*
X124399168Y-58612547D01*
X124454250Y-58630444D01*
X124511926Y-58669882D01*
X124539124Y-58734240D01*
X124527209Y-58803087D01*
X124479965Y-58854562D01*
X124454251Y-58866306D01*
X124389164Y-58887454D01*
X124220800Y-58973240D01*
X124184935Y-58999298D01*
X124067927Y-59084310D01*
X124067925Y-59084312D01*
X124067924Y-59084312D01*
X123934312Y-59217924D01*
X123934312Y-59217925D01*
X123934310Y-59217927D01*
X123922740Y-59233852D01*
X123823240Y-59370800D01*
X123737454Y-59539163D01*
X123679059Y-59718881D01*
X123649500Y-59905513D01*
X123649500Y-60094486D01*
X123679059Y-60281118D01*
X123737454Y-60460836D01*
X123823240Y-60629199D01*
X123934310Y-60782073D01*
X124067927Y-60915690D01*
X124220801Y-61026760D01*
X124300347Y-61067290D01*
X124389163Y-61112545D01*
X124389165Y-61112545D01*
X124389168Y-61112547D01*
X124485497Y-61143846D01*
X124568881Y-61170940D01*
X124755514Y-61200500D01*
X124755519Y-61200500D01*
X124944486Y-61200500D01*
X125131118Y-61170940D01*
X125310832Y-61112547D01*
X125479199Y-61026760D01*
X125482746Y-61024183D01*
X125548552Y-61000702D01*
X125555633Y-61000500D01*
X127410193Y-61000500D01*
X127477232Y-61020185D01*
X127490731Y-61030215D01*
X127492788Y-61031972D01*
X127603689Y-61112545D01*
X127658390Y-61152287D01*
X127749840Y-61198883D01*
X127751080Y-61199515D01*
X127801876Y-61247490D01*
X127818671Y-61315311D01*
X127796134Y-61381446D01*
X127751080Y-61420485D01*
X127658386Y-61467715D01*
X127492786Y-61588028D01*
X127348028Y-61732786D01*
X127227715Y-61898386D01*
X127134781Y-62080776D01*
X127071522Y-62275465D01*
X127039500Y-62477648D01*
X127039500Y-62682351D01*
X127071522Y-62884534D01*
X127134781Y-63079223D01*
X127227715Y-63261613D01*
X127348028Y-63427213D01*
X127492786Y-63571971D01*
X127619344Y-63663919D01*
X127658390Y-63692287D01*
X127749840Y-63738883D01*
X127751080Y-63739515D01*
X127801876Y-63787490D01*
X127818671Y-63855311D01*
X127796134Y-63921446D01*
X127751080Y-63960485D01*
X127658386Y-64007715D01*
X127492786Y-64128028D01*
X127348028Y-64272786D01*
X127227715Y-64438386D01*
X127134781Y-64620776D01*
X127071522Y-64815465D01*
X127048145Y-64963065D01*
X127039500Y-65017648D01*
X127039500Y-65222352D01*
X127040953Y-65231523D01*
X127071522Y-65424534D01*
X127134781Y-65619223D01*
X127227715Y-65801613D01*
X127348028Y-65967213D01*
X127492786Y-66111971D01*
X127647749Y-66224556D01*
X127658390Y-66232287D01*
X127749840Y-66278883D01*
X127751080Y-66279515D01*
X127801876Y-66327490D01*
X127818671Y-66395311D01*
X127796134Y-66461446D01*
X127751080Y-66500485D01*
X127658386Y-66547715D01*
X127492787Y-66668027D01*
X127466053Y-66694762D01*
X127404729Y-66728246D01*
X127335038Y-66723260D01*
X127279105Y-66681388D01*
X127255900Y-66626476D01*
X127230940Y-66468882D01*
X127230940Y-66468881D01*
X127203584Y-66384690D01*
X127172547Y-66289168D01*
X127172545Y-66289165D01*
X127172545Y-66289163D01*
X127086759Y-66120800D01*
X126975690Y-65967927D01*
X126842073Y-65834310D01*
X126689199Y-65723240D01*
X126520836Y-65637454D01*
X126341118Y-65579059D01*
X126154486Y-65549500D01*
X126154481Y-65549500D01*
X125965519Y-65549500D01*
X125965514Y-65549500D01*
X125778881Y-65579059D01*
X125599163Y-65637454D01*
X125430800Y-65723240D01*
X125343579Y-65786610D01*
X125277927Y-65834310D01*
X125277925Y-65834312D01*
X125277924Y-65834312D01*
X125144312Y-65967924D01*
X125144312Y-65967925D01*
X125144310Y-65967927D01*
X125120444Y-66000776D01*
X125033240Y-66120800D01*
X124947454Y-66289163D01*
X124889059Y-66468881D01*
X124859500Y-66655513D01*
X124859500Y-66844486D01*
X124889059Y-67031118D01*
X124947454Y-67210836D01*
X125016942Y-67347213D01*
X125033240Y-67379199D01*
X125144310Y-67532073D01*
X125277927Y-67665690D01*
X125430801Y-67776760D01*
X125599168Y-67862547D01*
X125660059Y-67882331D01*
X125717734Y-67921768D01*
X125744932Y-67986127D01*
X125733017Y-68054973D01*
X125685773Y-68106449D01*
X125660059Y-68118193D01*
X125599361Y-68137915D01*
X125431060Y-68223669D01*
X125405670Y-68242116D01*
X125405669Y-68242116D01*
X126060000Y-68896446D01*
X126060001Y-68896446D01*
X126714328Y-68242116D01*
X126688933Y-68223666D01*
X126520637Y-68137914D01*
X126459941Y-68118193D01*
X126402265Y-68078756D01*
X126375067Y-68014397D01*
X126386982Y-67945551D01*
X126434226Y-67894075D01*
X126459934Y-67882333D01*
X126520832Y-67862547D01*
X126689199Y-67776760D01*
X126842073Y-67665690D01*
X126842076Y-67665686D01*
X126842614Y-67665296D01*
X126908420Y-67641816D01*
X126976474Y-67657641D01*
X127025169Y-67707747D01*
X127037518Y-67757614D01*
X127039117Y-67757489D01*
X127039499Y-67762349D01*
X127071522Y-67964534D01*
X127134781Y-68159223D01*
X127227715Y-68341613D01*
X127348028Y-68507213D01*
X127492786Y-68651971D01*
X127647749Y-68764556D01*
X127658390Y-68772287D01*
X127729383Y-68808460D01*
X127751629Y-68819795D01*
X127802425Y-68867770D01*
X127819220Y-68935591D01*
X127796682Y-69001726D01*
X127751629Y-69040765D01*
X127658650Y-69088140D01*
X127493107Y-69208415D01*
X127471058Y-69230464D01*
X127409734Y-69263948D01*
X127340042Y-69258962D01*
X127284109Y-69217089D01*
X127262619Y-69160075D01*
X127260763Y-69160370D01*
X127230451Y-68968997D01*
X127172085Y-68789362D01*
X127086329Y-68621059D01*
X127067883Y-68595670D01*
X127067882Y-68595669D01*
X126413554Y-69249999D01*
X126413554Y-69250001D01*
X127108284Y-69944731D01*
X127108299Y-69944745D01*
X127113554Y-69950000D01*
X128424314Y-69950000D01*
X128419920Y-69954394D01*
X128367259Y-70045606D01*
X128340000Y-70147339D01*
X128340000Y-70252661D01*
X128367259Y-70354394D01*
X128419920Y-70445606D01*
X128424314Y-70450000D01*
X127063391Y-70450000D01*
X127072009Y-70504413D01*
X127135244Y-70699029D01*
X127228140Y-70881349D01*
X127348417Y-71046894D01*
X127348417Y-71046895D01*
X127493104Y-71191582D01*
X127658650Y-71311859D01*
X127840968Y-71404755D01*
X128035582Y-71467990D01*
X128237683Y-71500000D01*
X128490000Y-71500000D01*
X128490000Y-70515686D01*
X128494394Y-70520080D01*
X128585606Y-70572741D01*
X128687339Y-70600000D01*
X128792661Y-70600000D01*
X128894394Y-70572741D01*
X128985606Y-70520080D01*
X128990000Y-70515686D01*
X128990000Y-71500000D01*
X129242317Y-71500000D01*
X129444417Y-71467990D01*
X129639031Y-71404755D01*
X129821349Y-71311859D01*
X129986894Y-71191582D01*
X129986895Y-71191582D01*
X130131582Y-71046895D01*
X130131582Y-71046894D01*
X130251859Y-70881349D01*
X130344755Y-70699029D01*
X130407990Y-70504413D01*
X130416609Y-70450000D01*
X129055686Y-70450000D01*
X129060080Y-70445606D01*
X129112741Y-70354394D01*
X129140000Y-70252661D01*
X129140000Y-70147339D01*
X129112741Y-70045606D01*
X129060080Y-69954394D01*
X129055686Y-69950000D01*
X130416609Y-69950000D01*
X130407990Y-69895586D01*
X130344755Y-69700970D01*
X130251859Y-69518650D01*
X130131582Y-69353105D01*
X130131582Y-69353104D01*
X129986895Y-69208417D01*
X129821349Y-69088140D01*
X129728370Y-69040765D01*
X129677574Y-68992790D01*
X129660779Y-68924969D01*
X129683316Y-68858835D01*
X129728370Y-68819795D01*
X129733893Y-68816981D01*
X129821610Y-68772287D01*
X129851163Y-68750816D01*
X129987213Y-68651971D01*
X129987215Y-68651968D01*
X129987219Y-68651966D01*
X130131966Y-68507219D01*
X130131968Y-68507215D01*
X130131971Y-68507213D01*
X130184732Y-68434590D01*
X130252287Y-68341610D01*
X130345220Y-68159219D01*
X130408477Y-67964534D01*
X130440500Y-67762352D01*
X130440500Y-67557648D01*
X130408477Y-67355466D01*
X130405797Y-67347219D01*
X130361484Y-67210836D01*
X130345220Y-67160781D01*
X130345218Y-67160778D01*
X130345218Y-67160776D01*
X130311503Y-67094607D01*
X130252287Y-66978390D01*
X130237481Y-66958011D01*
X130131971Y-66812786D01*
X129987213Y-66668028D01*
X129821614Y-66547715D01*
X129815006Y-66544348D01*
X129728917Y-66500483D01*
X129678123Y-66452511D01*
X129661328Y-66384690D01*
X129683865Y-66318555D01*
X129728917Y-66279516D01*
X129821610Y-66232287D01*
X129975059Y-66120801D01*
X129987213Y-66111971D01*
X129987215Y-66111968D01*
X129987219Y-66111966D01*
X130131966Y-65967219D01*
X130131968Y-65967215D01*
X130131971Y-65967213D01*
X130184732Y-65894590D01*
X130252287Y-65801610D01*
X130345220Y-65619219D01*
X130408477Y-65424534D01*
X130440500Y-65222352D01*
X130440500Y-65017648D01*
X130408477Y-64815466D01*
X130345220Y-64620781D01*
X130345218Y-64620778D01*
X130345218Y-64620776D01*
X130285475Y-64503525D01*
X130252287Y-64438390D01*
X130208339Y-64377900D01*
X130131971Y-64272786D01*
X129987213Y-64128028D01*
X129821614Y-64007715D01*
X129772091Y-63982482D01*
X129728917Y-63960483D01*
X129678123Y-63912511D01*
X129661328Y-63844690D01*
X129683865Y-63778555D01*
X129728917Y-63739516D01*
X129821610Y-63692287D01*
X129860656Y-63663919D01*
X129987213Y-63571971D01*
X129987215Y-63571968D01*
X129987219Y-63571966D01*
X130131966Y-63427219D01*
X130131968Y-63427215D01*
X130131971Y-63427213D01*
X130219304Y-63307007D01*
X130252287Y-63261610D01*
X130345220Y-63079219D01*
X130408477Y-62884534D01*
X130440500Y-62682352D01*
X130440500Y-62477648D01*
X130408477Y-62275466D01*
X130345220Y-62080781D01*
X130345218Y-62080778D01*
X130345218Y-62080776D01*
X130304060Y-62000000D01*
X130252287Y-61898390D01*
X130227388Y-61864119D01*
X130131971Y-61732786D01*
X129987213Y-61588028D01*
X129821614Y-61467715D01*
X129812715Y-61463181D01*
X129728917Y-61420483D01*
X129678123Y-61372511D01*
X129661328Y-61304690D01*
X129683865Y-61238555D01*
X129728917Y-61199516D01*
X129821610Y-61152287D01*
X129876311Y-61112545D01*
X129987213Y-61031971D01*
X129987215Y-61031968D01*
X129987219Y-61031966D01*
X130131966Y-60887219D01*
X130131968Y-60887215D01*
X130131971Y-60887213D01*
X130184732Y-60814590D01*
X130252287Y-60721610D01*
X130345220Y-60539219D01*
X130408477Y-60344534D01*
X130440500Y-60142352D01*
X130440500Y-59937648D01*
X130414724Y-59774905D01*
X130408477Y-59735465D01*
X130360297Y-59587183D01*
X130345220Y-59540781D01*
X130345218Y-59540778D01*
X130345218Y-59540776D01*
X130286178Y-59424905D01*
X130252287Y-59358390D01*
X130242628Y-59345095D01*
X130131971Y-59192786D01*
X129987213Y-59048028D01*
X129821614Y-58927715D01*
X129742595Y-58887453D01*
X129728917Y-58880483D01*
X129678123Y-58832511D01*
X129661328Y-58764690D01*
X129683865Y-58698555D01*
X129728917Y-58659516D01*
X129821610Y-58612287D01*
X129842770Y-58596913D01*
X129987213Y-58491971D01*
X129987215Y-58491968D01*
X129987219Y-58491966D01*
X130131966Y-58347219D01*
X130131968Y-58347215D01*
X130131971Y-58347213D01*
X130226824Y-58216657D01*
X130252287Y-58181610D01*
X130345220Y-57999219D01*
X130408477Y-57804534D01*
X130440500Y-57602352D01*
X130440500Y-57397648D01*
X130408477Y-57195466D01*
X130345220Y-57000781D01*
X130345218Y-57000778D01*
X130345218Y-57000776D01*
X130311503Y-56934607D01*
X130252287Y-56818390D01*
X130244556Y-56807749D01*
X130131971Y-56652786D01*
X129987213Y-56508028D01*
X129821614Y-56387715D01*
X129815006Y-56384348D01*
X129728917Y-56340483D01*
X129678123Y-56292511D01*
X129661328Y-56224690D01*
X129683865Y-56158555D01*
X129728917Y-56119516D01*
X129821610Y-56072287D01*
X129842770Y-56056913D01*
X129987213Y-55951971D01*
X129987215Y-55951968D01*
X129987219Y-55951966D01*
X130131966Y-55807219D01*
X130131968Y-55807215D01*
X130131971Y-55807213D01*
X130184732Y-55734590D01*
X130252287Y-55641610D01*
X130345220Y-55459219D01*
X130408477Y-55264534D01*
X130440500Y-55062352D01*
X130440500Y-54857648D01*
X130427850Y-54777780D01*
X130408477Y-54655465D01*
X130345218Y-54460776D01*
X130311503Y-54394607D01*
X130252287Y-54278390D01*
X130244556Y-54267749D01*
X130131971Y-54112786D01*
X129987213Y-53968028D01*
X129821614Y-53847715D01*
X129815006Y-53844348D01*
X129728917Y-53800483D01*
X129678123Y-53752511D01*
X129661328Y-53684690D01*
X129683865Y-53618555D01*
X129728917Y-53579516D01*
X129821610Y-53532287D01*
X129842770Y-53516913D01*
X129987213Y-53411971D01*
X129987215Y-53411968D01*
X129987219Y-53411966D01*
X130131966Y-53267219D01*
X130131968Y-53267215D01*
X130131971Y-53267213D01*
X130184732Y-53194590D01*
X130252287Y-53101610D01*
X130345220Y-52919219D01*
X130408477Y-52724534D01*
X130440500Y-52522352D01*
X130440500Y-52317648D01*
X130408477Y-52115466D01*
X130345220Y-51920781D01*
X130345218Y-51920778D01*
X130345218Y-51920776D01*
X130306869Y-51845513D01*
X130252287Y-51738390D01*
X130186360Y-51647648D01*
X130131971Y-51572786D01*
X129987213Y-51428028D01*
X129821610Y-51307712D01*
X129808200Y-51300879D01*
X129757406Y-51252903D01*
X129740500Y-51190397D01*
X129740500Y-50641456D01*
X129719685Y-50536818D01*
X129712461Y-50500500D01*
X129702051Y-50448164D01*
X129676563Y-50386632D01*
X129653477Y-50330898D01*
X129626635Y-50266092D01*
X129626633Y-50266088D01*
X129626632Y-50266086D01*
X129605208Y-50234022D01*
X129517139Y-50102217D01*
X129374686Y-49959764D01*
X129374655Y-49959735D01*
X128281479Y-48866559D01*
X128281459Y-48866537D01*
X128137785Y-48722863D01*
X128137781Y-48722860D01*
X127973920Y-48613371D01*
X127973911Y-48613366D01*
X127901315Y-48583296D01*
X127845165Y-48560038D01*
X127791836Y-48537949D01*
X127791832Y-48537948D01*
X127791828Y-48537946D01*
X127695188Y-48518724D01*
X127598544Y-48499500D01*
X127598541Y-48499500D01*
X126256469Y-48499500D01*
X126233626Y-48492792D01*
X126209934Y-48490437D01*
X126197457Y-48482172D01*
X126189430Y-48479815D01*
X126179438Y-48472671D01*
X126173841Y-48468234D01*
X126137365Y-48431758D01*
X126023164Y-48348786D01*
X126021126Y-48347171D01*
X126002421Y-48320686D01*
X125982606Y-48294989D01*
X125982375Y-48292301D01*
X125980820Y-48290099D01*
X125979402Y-48257692D01*
X125976627Y-48225376D01*
X125977884Y-48222991D01*
X125977767Y-48220296D01*
X125994097Y-48192263D01*
X126009232Y-48163580D01*
X126012414Y-48160821D01*
X126012938Y-48159924D01*
X126014187Y-48159286D01*
X126025265Y-48149686D01*
X126137365Y-48068242D01*
X126168788Y-48036819D01*
X126230111Y-48003334D01*
X126256469Y-48000500D01*
X127214367Y-48000500D01*
X127281406Y-48020185D01*
X127287254Y-48024183D01*
X127290799Y-48026759D01*
X127459163Y-48112545D01*
X127459165Y-48112545D01*
X127459168Y-48112547D01*
X127555497Y-48143846D01*
X127638881Y-48170940D01*
X127825514Y-48200500D01*
X127825519Y-48200500D01*
X128014486Y-48200500D01*
X128201118Y-48170940D01*
X128380832Y-48112547D01*
X128549199Y-48026760D01*
X128702073Y-47915690D01*
X128835690Y-47782073D01*
X128946760Y-47629199D01*
X129032547Y-47460832D01*
X129090940Y-47281118D01*
X129120500Y-47094486D01*
X129120500Y-46905513D01*
X134339500Y-46905513D01*
X134339500Y-47094486D01*
X134369059Y-47281118D01*
X134427454Y-47460836D01*
X134466571Y-47537606D01*
X134513240Y-47629199D01*
X134624310Y-47782073D01*
X134757927Y-47915690D01*
X134910801Y-48026760D01*
X134990347Y-48067290D01*
X135079163Y-48112545D01*
X135079165Y-48112545D01*
X135079168Y-48112547D01*
X135175497Y-48143846D01*
X135258881Y-48170940D01*
X135445514Y-48200500D01*
X135445519Y-48200500D01*
X135634486Y-48200500D01*
X135821118Y-48170940D01*
X136000832Y-48112547D01*
X136169199Y-48026760D01*
X136322073Y-47915690D01*
X136455690Y-47782073D01*
X136566760Y-47629199D01*
X136652547Y-47460832D01*
X136710940Y-47281118D01*
X136740500Y-47094486D01*
X136740500Y-46905513D01*
X136710940Y-46718881D01*
X136652545Y-46539163D01*
X136567479Y-46372213D01*
X136566760Y-46370801D01*
X136455690Y-46217927D01*
X136322073Y-46084310D01*
X136169199Y-45973240D01*
X136149457Y-45963181D01*
X136000836Y-45887454D01*
X135821118Y-45829059D01*
X135634486Y-45799500D01*
X135634481Y-45799500D01*
X135445519Y-45799500D01*
X135445514Y-45799500D01*
X135258881Y-45829059D01*
X135079163Y-45887454D01*
X134910800Y-45973240D01*
X134874935Y-45999298D01*
X134757927Y-46084310D01*
X134757925Y-46084312D01*
X134757924Y-46084312D01*
X134624312Y-46217924D01*
X134624312Y-46217925D01*
X134624310Y-46217927D01*
X134600818Y-46250261D01*
X134513240Y-46370800D01*
X134427454Y-46539163D01*
X134369059Y-46718881D01*
X134339500Y-46905513D01*
X129120500Y-46905513D01*
X129090940Y-46718881D01*
X129032545Y-46539163D01*
X128947479Y-46372213D01*
X128946760Y-46370801D01*
X128835690Y-46217927D01*
X128702073Y-46084310D01*
X128549199Y-45973240D01*
X128529457Y-45963181D01*
X128380836Y-45887454D01*
X128201118Y-45829059D01*
X128014486Y-45799500D01*
X128014481Y-45799500D01*
X127825519Y-45799500D01*
X127825514Y-45799500D01*
X127638881Y-45829059D01*
X127459163Y-45887454D01*
X127290799Y-45973240D01*
X127287254Y-45975817D01*
X127221448Y-45999298D01*
X127214367Y-45999500D01*
X126256469Y-45999500D01*
X126189430Y-45979815D01*
X126168788Y-45963181D01*
X126137363Y-45931756D01*
X126137358Y-45931752D01*
X125959025Y-45802187D01*
X125959024Y-45802186D01*
X125959022Y-45802185D01*
X125896096Y-45770122D01*
X125762606Y-45702104D01*
X125762603Y-45702103D01*
X125552952Y-45633985D01*
X125444086Y-45616742D01*
X125335222Y-45599500D01*
X125114778Y-45599500D01*
X125042201Y-45610995D01*
X124897047Y-45633985D01*
X124687396Y-45702103D01*
X124687393Y-45702104D01*
X124490974Y-45802187D01*
X124312641Y-45931752D01*
X124312636Y-45931756D01*
X124156756Y-46087636D01*
X124156752Y-46087641D01*
X124027187Y-46265974D01*
X123927104Y-46462393D01*
X123927103Y-46462396D01*
X123858985Y-46672047D01*
X123824500Y-46889778D01*
X123824500Y-47110221D01*
X123858985Y-47327952D01*
X123927103Y-47537603D01*
X123927104Y-47537606D01*
X124027187Y-47734025D01*
X124156752Y-47912358D01*
X124156756Y-47912363D01*
X124312636Y-48068243D01*
X124312641Y-48068247D01*
X124424727Y-48149682D01*
X124467393Y-48205011D01*
X124473372Y-48274625D01*
X124440767Y-48336420D01*
X124424727Y-48350318D01*
X124312641Y-48431752D01*
X124312636Y-48431756D01*
X124156756Y-48587636D01*
X124156752Y-48587641D01*
X124027187Y-48765974D01*
X123927104Y-48962393D01*
X123927103Y-48962396D01*
X123858985Y-49172047D01*
X123824500Y-49389778D01*
X123824500Y-49610221D01*
X123858985Y-49827952D01*
X123927103Y-50037603D01*
X123927104Y-50037606D01*
X124027187Y-50234025D01*
X124156752Y-50412358D01*
X124156756Y-50412363D01*
X124177794Y-50433401D01*
X124211279Y-50494724D01*
X124206295Y-50564416D01*
X124164423Y-50620349D01*
X124133448Y-50637263D01*
X124082674Y-50656201D01*
X124082664Y-50656206D01*
X123967455Y-50742452D01*
X123967452Y-50742455D01*
X123881206Y-50857664D01*
X123881200Y-50857674D01*
X123880767Y-50858838D01*
X123880023Y-50859831D01*
X123876953Y-50865454D01*
X123876144Y-50865012D01*
X123838894Y-50914770D01*
X123773429Y-50939184D01*
X123764587Y-50939500D01*
X111705633Y-50939500D01*
X111638594Y-50919815D01*
X111632746Y-50915817D01*
X111629200Y-50913240D01*
X111460836Y-50827454D01*
X111281118Y-50769059D01*
X111094486Y-50739500D01*
X111094481Y-50739500D01*
X110905519Y-50739500D01*
X110905514Y-50739500D01*
X110718881Y-50769059D01*
X110539163Y-50827454D01*
X110370800Y-50913240D01*
X110335092Y-50939184D01*
X110217927Y-51024310D01*
X110217925Y-51024312D01*
X110217924Y-51024312D01*
X110084312Y-51157924D01*
X110084312Y-51157925D01*
X110084310Y-51157927D01*
X110060719Y-51190397D01*
X109973240Y-51310800D01*
X109887454Y-51479163D01*
X109829059Y-51658881D01*
X109799500Y-51845513D01*
X109000500Y-51845513D01*
X109000500Y-44578048D01*
X115604500Y-44578048D01*
X115604500Y-44821951D01*
X115631013Y-45023333D01*
X115636334Y-45063744D01*
X115636335Y-45063746D01*
X115699456Y-45299320D01*
X115699459Y-45299330D01*
X115792786Y-45524640D01*
X115792791Y-45524651D01*
X115914727Y-45735848D01*
X115914738Y-45735864D01*
X116063199Y-45929343D01*
X116063205Y-45929350D01*
X116235649Y-46101794D01*
X116235655Y-46101799D01*
X116429144Y-46250268D01*
X116429151Y-46250272D01*
X116640348Y-46372208D01*
X116640353Y-46372210D01*
X116640356Y-46372212D01*
X116865679Y-46465544D01*
X117101256Y-46528666D01*
X117343056Y-46560500D01*
X117343063Y-46560500D01*
X118106937Y-46560500D01*
X118106944Y-46560500D01*
X118348744Y-46528666D01*
X118584321Y-46465544D01*
X118809644Y-46372212D01*
X119020856Y-46250268D01*
X119214345Y-46101799D01*
X119386799Y-45929345D01*
X119535268Y-45735856D01*
X119657212Y-45524644D01*
X119750544Y-45299321D01*
X119813666Y-45063744D01*
X119845500Y-44821944D01*
X119845500Y-44578056D01*
X119813666Y-44336256D01*
X119750544Y-44100679D01*
X119657212Y-43875356D01*
X119657210Y-43875353D01*
X119657208Y-43875348D01*
X119535272Y-43664151D01*
X119535268Y-43664144D01*
X119386799Y-43470655D01*
X119386794Y-43470649D01*
X119214350Y-43298205D01*
X119214343Y-43298199D01*
X119020864Y-43149738D01*
X119020862Y-43149736D01*
X119020856Y-43149732D01*
X119020851Y-43149729D01*
X119020848Y-43149727D01*
X118809651Y-43027791D01*
X118809640Y-43027786D01*
X118584330Y-42934459D01*
X118584323Y-42934457D01*
X118584321Y-42934456D01*
X118348744Y-42871334D01*
X118308333Y-42866013D01*
X118106951Y-42839500D01*
X118106944Y-42839500D01*
X117343056Y-42839500D01*
X117343048Y-42839500D01*
X117112896Y-42869801D01*
X117101256Y-42871334D01*
X116865679Y-42934456D01*
X116865669Y-42934459D01*
X116640359Y-43027786D01*
X116640348Y-43027791D01*
X116429151Y-43149727D01*
X116429135Y-43149738D01*
X116235656Y-43298199D01*
X116235649Y-43298205D01*
X116063205Y-43470649D01*
X116063199Y-43470656D01*
X115914738Y-43664135D01*
X115914727Y-43664151D01*
X115792791Y-43875348D01*
X115792786Y-43875359D01*
X115699459Y-44100669D01*
X115699456Y-44100679D01*
X115636335Y-44336253D01*
X115636333Y-44336264D01*
X115604500Y-44578048D01*
X109000500Y-44578048D01*
X109000500Y-42624500D01*
X109020185Y-42557461D01*
X109072989Y-42511706D01*
X109124500Y-42500500D01*
X161875500Y-42500500D01*
X161942539Y-42520185D01*
G37*
G04 #@! TD.AperFunction*
G04 #@! TA.AperFunction,Conductor*
G36*
X115806606Y-72269685D02*
G01*
X115852361Y-72322489D01*
X115862305Y-72391647D01*
X115838833Y-72448312D01*
X115831647Y-72457910D01*
X115831645Y-72457913D01*
X115781403Y-72592620D01*
X115781401Y-72592627D01*
X115775000Y-72652155D01*
X115775000Y-73200000D01*
X116519670Y-73200000D01*
X116499925Y-73219745D01*
X116450556Y-73305255D01*
X116425000Y-73400630D01*
X116425000Y-73499370D01*
X116450556Y-73594745D01*
X116499925Y-73680255D01*
X116519670Y-73700000D01*
X115775000Y-73700000D01*
X115775000Y-74247844D01*
X115781401Y-74307372D01*
X115781403Y-74307379D01*
X115831645Y-74442086D01*
X115831649Y-74442093D01*
X115917809Y-74557187D01*
X115917812Y-74557190D01*
X116032906Y-74643350D01*
X116032913Y-74643354D01*
X116167620Y-74693596D01*
X116167627Y-74693598D01*
X116227155Y-74699999D01*
X116227172Y-74700000D01*
X116550000Y-74700000D01*
X116550000Y-73730330D01*
X116569745Y-73750075D01*
X116655255Y-73799444D01*
X116750630Y-73825000D01*
X116849370Y-73825000D01*
X116944745Y-73799444D01*
X117030255Y-73750075D01*
X117044501Y-73735829D01*
X117044501Y-73988348D01*
X117049358Y-74035885D01*
X117050000Y-74048487D01*
X117050000Y-74700000D01*
X117126000Y-74700000D01*
X117193039Y-74719685D01*
X117238794Y-74772489D01*
X117250000Y-74824000D01*
X117250000Y-77198638D01*
X117230315Y-77265677D01*
X117213681Y-77286319D01*
X116500000Y-77999999D01*
X116500000Y-78567891D01*
X116480315Y-78634930D01*
X116427511Y-78680685D01*
X116358353Y-78690629D01*
X116294797Y-78661604D01*
X116278791Y-78644413D01*
X116277187Y-78642809D01*
X116162093Y-78556649D01*
X116162086Y-78556645D01*
X116027379Y-78506403D01*
X116027372Y-78506401D01*
X115967844Y-78500000D01*
X114670000Y-78500000D01*
X114670000Y-79780935D01*
X114641684Y-79769207D01*
X114494853Y-79740000D01*
X114345147Y-79740000D01*
X114198316Y-79769207D01*
X114170000Y-79780935D01*
X114170000Y-78500000D01*
X112872155Y-78500000D01*
X112812627Y-78506401D01*
X112812620Y-78506403D01*
X112677913Y-78556645D01*
X112677906Y-78556649D01*
X112562812Y-78642809D01*
X112562809Y-78642812D01*
X112473266Y-78762426D01*
X112417332Y-78804297D01*
X112347641Y-78809281D01*
X112286318Y-78775795D01*
X112252834Y-78714472D01*
X112250000Y-78688115D01*
X112250000Y-78249999D01*
X111763091Y-77276181D01*
X111750000Y-77220727D01*
X111750000Y-75123709D01*
X111769685Y-75056670D01*
X111822489Y-75010915D01*
X111891647Y-75000971D01*
X111946886Y-75023391D01*
X112068650Y-75111859D01*
X112250968Y-75204755D01*
X112445582Y-75267990D01*
X112647683Y-75300000D01*
X112852317Y-75300000D01*
X113054417Y-75267990D01*
X113249031Y-75204755D01*
X113431349Y-75111859D01*
X113475921Y-75079474D01*
X112796447Y-74400000D01*
X112802661Y-74400000D01*
X112904394Y-74372741D01*
X112995606Y-74320080D01*
X113070080Y-74245606D01*
X113122741Y-74154394D01*
X113150000Y-74052661D01*
X113150000Y-74046447D01*
X113829474Y-74725921D01*
X113861859Y-74681349D01*
X113954755Y-74499031D01*
X114017990Y-74304417D01*
X114050000Y-74102317D01*
X114050000Y-73897682D01*
X114017990Y-73695584D01*
X114015188Y-73686961D01*
X114015187Y-73686959D01*
X114015187Y-73686957D01*
X113954754Y-73500968D01*
X113861859Y-73318650D01*
X113829474Y-73274077D01*
X113829474Y-73274076D01*
X113150000Y-73953551D01*
X113150000Y-73947339D01*
X113122741Y-73845606D01*
X113070080Y-73754394D01*
X112995606Y-73679920D01*
X112904394Y-73627259D01*
X112802661Y-73600000D01*
X112796446Y-73600000D01*
X113475922Y-72920524D01*
X113475921Y-72920523D01*
X113431359Y-72888147D01*
X113431350Y-72888141D01*
X113249031Y-72795244D01*
X113054417Y-72732009D01*
X112852317Y-72700000D01*
X112647683Y-72700000D01*
X112445582Y-72732009D01*
X112303404Y-72778207D01*
X112233562Y-72780202D01*
X112173729Y-72744122D01*
X112142901Y-72681421D01*
X112150865Y-72612007D01*
X112177401Y-72572598D01*
X112463681Y-72286319D01*
X112525004Y-72252834D01*
X112551362Y-72250000D01*
X115739567Y-72250000D01*
X115806606Y-72269685D01*
G37*
G04 #@! TD.AperFunction*
G04 #@! TA.AperFunction,Conductor*
G36*
X137506497Y-80859995D02*
G01*
X137589670Y-80984472D01*
X137695528Y-81090330D01*
X137820005Y-81173503D01*
X137848320Y-81185231D01*
X136953633Y-82079917D01*
X136953633Y-82079918D01*
X137066475Y-82166505D01*
X137066483Y-82166511D01*
X137243328Y-82268613D01*
X137291544Y-82319180D01*
X137304766Y-82387787D01*
X137278798Y-82452652D01*
X137221884Y-82493180D01*
X137181328Y-82500000D01*
X137044894Y-82500000D01*
X136977855Y-82480315D01*
X136965511Y-82471259D01*
X136294617Y-81912180D01*
X136255718Y-81854141D01*
X136250000Y-81816921D01*
X136250000Y-81619915D01*
X136269685Y-81552876D01*
X136322489Y-81507121D01*
X136391647Y-81497177D01*
X136455203Y-81526202D01*
X136481387Y-81557915D01*
X136513488Y-81613516D01*
X136513494Y-81613524D01*
X136600080Y-81726365D01*
X137494767Y-80831677D01*
X137506497Y-80859995D01*
G37*
G04 #@! TD.AperFunction*
G04 #@! TA.AperFunction,Conductor*
G36*
X142328367Y-78519685D02*
G01*
X142374122Y-78572489D01*
X142384066Y-78641647D01*
X142355041Y-78705203D01*
X142323328Y-78731387D01*
X142146471Y-78833496D01*
X142033633Y-78920079D01*
X142033633Y-78920080D01*
X142928321Y-79814768D01*
X142900005Y-79826497D01*
X142775528Y-79909670D01*
X142669670Y-80015528D01*
X142586497Y-80140005D01*
X142574768Y-80168321D01*
X141680080Y-79273633D01*
X141680079Y-79273633D01*
X141593496Y-79386471D01*
X141462409Y-79613517D01*
X141462404Y-79613528D01*
X141362075Y-79855744D01*
X141294222Y-80108979D01*
X141294220Y-80108990D01*
X141260000Y-80368905D01*
X141260000Y-80631094D01*
X141294220Y-80891009D01*
X141294222Y-80891020D01*
X141362075Y-81144255D01*
X141462404Y-81386471D01*
X141462409Y-81386482D01*
X141593488Y-81613516D01*
X141593494Y-81613524D01*
X141680080Y-81726365D01*
X142574767Y-80831677D01*
X142586497Y-80859995D01*
X142669670Y-80984472D01*
X142775528Y-81090330D01*
X142900005Y-81173503D01*
X142928320Y-81185231D01*
X142033633Y-82079917D01*
X142033633Y-82079918D01*
X142146475Y-82166505D01*
X142146483Y-82166511D01*
X142323328Y-82268613D01*
X142371544Y-82319180D01*
X142384766Y-82387787D01*
X142358798Y-82452652D01*
X142301884Y-82493180D01*
X142261328Y-82500000D01*
X139178672Y-82500000D01*
X139111633Y-82480315D01*
X139065878Y-82427511D01*
X139055934Y-82358353D01*
X139084959Y-82294797D01*
X139116672Y-82268613D01*
X139293516Y-82166511D01*
X139293534Y-82166499D01*
X139406365Y-82079919D01*
X139406365Y-82079917D01*
X138511679Y-81185231D01*
X138539995Y-81173503D01*
X138664472Y-81090330D01*
X138770330Y-80984472D01*
X138853503Y-80859995D01*
X138865231Y-80831679D01*
X139759917Y-81726365D01*
X139759919Y-81726365D01*
X139846499Y-81613534D01*
X139846511Y-81613516D01*
X139977590Y-81386482D01*
X139977595Y-81386471D01*
X140077924Y-81144255D01*
X140145777Y-80891020D01*
X140145779Y-80891009D01*
X140179999Y-80631094D01*
X140180000Y-80631080D01*
X140180000Y-80368919D01*
X140179999Y-80368905D01*
X140145779Y-80108990D01*
X140145777Y-80108979D01*
X140077924Y-79855744D01*
X139977595Y-79613528D01*
X139977590Y-79613517D01*
X139846511Y-79386483D01*
X139846505Y-79386475D01*
X139759918Y-79273633D01*
X139759917Y-79273633D01*
X138865231Y-80168319D01*
X138853503Y-80140005D01*
X138770330Y-80015528D01*
X138664472Y-79909670D01*
X138539995Y-79826497D01*
X138511677Y-79814767D01*
X139406365Y-78920080D01*
X139293524Y-78833494D01*
X139293516Y-78833488D01*
X139116672Y-78731387D01*
X139068456Y-78680820D01*
X139055234Y-78612213D01*
X139081202Y-78547348D01*
X139138116Y-78506820D01*
X139178672Y-78500000D01*
X142261328Y-78500000D01*
X142328367Y-78519685D01*
G37*
G04 #@! TD.AperFunction*
G04 #@! TA.AperFunction,Conductor*
G36*
X147408367Y-78519685D02*
G01*
X147454122Y-78572489D01*
X147464066Y-78641647D01*
X147435041Y-78705203D01*
X147403328Y-78731387D01*
X147226471Y-78833496D01*
X147113633Y-78920079D01*
X147113633Y-78920080D01*
X148008321Y-79814768D01*
X147980005Y-79826497D01*
X147855528Y-79909670D01*
X147749670Y-80015528D01*
X147666497Y-80140005D01*
X147654768Y-80168321D01*
X146760080Y-79273633D01*
X146760079Y-79273633D01*
X146673496Y-79386471D01*
X146542409Y-79613517D01*
X146542404Y-79613528D01*
X146442075Y-79855744D01*
X146374222Y-80108979D01*
X146374220Y-80108990D01*
X146340000Y-80368905D01*
X146340000Y-80631094D01*
X146374220Y-80891009D01*
X146374222Y-80891020D01*
X146442075Y-81144255D01*
X146542404Y-81386471D01*
X146542409Y-81386482D01*
X146673488Y-81613516D01*
X146673494Y-81613524D01*
X146760080Y-81726365D01*
X147654767Y-80831677D01*
X147666497Y-80859995D01*
X147749670Y-80984472D01*
X147855528Y-81090330D01*
X147980005Y-81173503D01*
X148008320Y-81185231D01*
X147113633Y-82079917D01*
X147113633Y-82079918D01*
X147226475Y-82166505D01*
X147226483Y-82166511D01*
X147403328Y-82268613D01*
X147451544Y-82319180D01*
X147464766Y-82387787D01*
X147438798Y-82452652D01*
X147381884Y-82493180D01*
X147341328Y-82500000D01*
X144258672Y-82500000D01*
X144191633Y-82480315D01*
X144145878Y-82427511D01*
X144135934Y-82358353D01*
X144164959Y-82294797D01*
X144196672Y-82268613D01*
X144373516Y-82166511D01*
X144373534Y-82166499D01*
X144486365Y-82079919D01*
X144486365Y-82079917D01*
X143591679Y-81185231D01*
X143619995Y-81173503D01*
X143744472Y-81090330D01*
X143850330Y-80984472D01*
X143933503Y-80859995D01*
X143945231Y-80831679D01*
X144839917Y-81726365D01*
X144839919Y-81726365D01*
X144926499Y-81613534D01*
X144926511Y-81613516D01*
X145057590Y-81386482D01*
X145057595Y-81386471D01*
X145157924Y-81144255D01*
X145225777Y-80891020D01*
X145225779Y-80891009D01*
X145259999Y-80631094D01*
X145260000Y-80631080D01*
X145260000Y-80368919D01*
X145259999Y-80368905D01*
X145225779Y-80108990D01*
X145225777Y-80108979D01*
X145157924Y-79855744D01*
X145057595Y-79613528D01*
X145057590Y-79613517D01*
X144926511Y-79386483D01*
X144926505Y-79386475D01*
X144839918Y-79273633D01*
X144839917Y-79273633D01*
X143945231Y-80168320D01*
X143933503Y-80140005D01*
X143850330Y-80015528D01*
X143744472Y-79909670D01*
X143619995Y-79826497D01*
X143591677Y-79814767D01*
X144486365Y-78920080D01*
X144373524Y-78833494D01*
X144373516Y-78833488D01*
X144196672Y-78731387D01*
X144148456Y-78680820D01*
X144135234Y-78612213D01*
X144161202Y-78547348D01*
X144218116Y-78506820D01*
X144258672Y-78500000D01*
X147341328Y-78500000D01*
X147408367Y-78519685D01*
G37*
G04 #@! TD.AperFunction*
G04 #@! TA.AperFunction,Conductor*
G36*
X152488367Y-78519685D02*
G01*
X152534122Y-78572489D01*
X152544066Y-78641647D01*
X152515041Y-78705203D01*
X152483328Y-78731387D01*
X152306471Y-78833496D01*
X152193633Y-78920079D01*
X152193633Y-78920080D01*
X153088321Y-79814768D01*
X153060005Y-79826497D01*
X152935528Y-79909670D01*
X152829670Y-80015528D01*
X152746497Y-80140005D01*
X152734768Y-80168321D01*
X151840080Y-79273633D01*
X151840079Y-79273633D01*
X151753496Y-79386471D01*
X151622409Y-79613517D01*
X151622404Y-79613528D01*
X151522075Y-79855744D01*
X151454222Y-80108979D01*
X151454220Y-80108990D01*
X151420000Y-80368905D01*
X151420000Y-80631094D01*
X151454220Y-80891009D01*
X151454222Y-80891020D01*
X151522075Y-81144255D01*
X151622404Y-81386471D01*
X151622409Y-81386482D01*
X151753488Y-81613516D01*
X151753494Y-81613524D01*
X151840080Y-81726365D01*
X152734767Y-80831677D01*
X152746497Y-80859995D01*
X152829670Y-80984472D01*
X152935528Y-81090330D01*
X153060005Y-81173503D01*
X153088320Y-81185231D01*
X152193633Y-82079917D01*
X152193633Y-82079918D01*
X152306475Y-82166505D01*
X152306483Y-82166511D01*
X152483328Y-82268613D01*
X152531544Y-82319180D01*
X152544766Y-82387787D01*
X152518798Y-82452652D01*
X152461884Y-82493180D01*
X152421328Y-82500000D01*
X149338672Y-82500000D01*
X149271633Y-82480315D01*
X149225878Y-82427511D01*
X149215934Y-82358353D01*
X149244959Y-82294797D01*
X149276672Y-82268613D01*
X149453516Y-82166511D01*
X149453534Y-82166499D01*
X149566365Y-82079919D01*
X149566365Y-82079917D01*
X148671679Y-81185231D01*
X148699995Y-81173503D01*
X148824472Y-81090330D01*
X148930330Y-80984472D01*
X149013503Y-80859995D01*
X149025231Y-80831679D01*
X149919917Y-81726365D01*
X149919919Y-81726365D01*
X150006499Y-81613534D01*
X150006511Y-81613516D01*
X150137590Y-81386482D01*
X150137595Y-81386471D01*
X150237924Y-81144255D01*
X150305777Y-80891020D01*
X150305779Y-80891009D01*
X150339999Y-80631094D01*
X150340000Y-80631080D01*
X150340000Y-80368919D01*
X150339999Y-80368905D01*
X150305779Y-80108990D01*
X150305777Y-80108979D01*
X150237924Y-79855744D01*
X150137595Y-79613528D01*
X150137590Y-79613517D01*
X150006511Y-79386483D01*
X150006505Y-79386475D01*
X149919918Y-79273633D01*
X149919917Y-79273633D01*
X149025231Y-80168320D01*
X149013503Y-80140005D01*
X148930330Y-80015528D01*
X148824472Y-79909670D01*
X148699995Y-79826497D01*
X148671677Y-79814767D01*
X149566365Y-78920080D01*
X149453524Y-78833494D01*
X149453516Y-78833488D01*
X149276672Y-78731387D01*
X149228456Y-78680820D01*
X149215234Y-78612213D01*
X149241202Y-78547348D01*
X149298116Y-78506820D01*
X149338672Y-78500000D01*
X152421328Y-78500000D01*
X152488367Y-78519685D01*
G37*
G04 #@! TD.AperFunction*
G04 #@! TA.AperFunction,Conductor*
G36*
X156569036Y-78519685D02*
G01*
X156614791Y-78572489D01*
X156624735Y-78641647D01*
X156601263Y-78698311D01*
X156556649Y-78757906D01*
X156556645Y-78757913D01*
X156506403Y-78892620D01*
X156506401Y-78892627D01*
X156500000Y-78952155D01*
X156500000Y-80250000D01*
X157780936Y-80250000D01*
X157769207Y-80278316D01*
X157740000Y-80425147D01*
X157740000Y-80574853D01*
X157769207Y-80721684D01*
X157780936Y-80750000D01*
X156500000Y-80750000D01*
X156500000Y-82047844D01*
X156506401Y-82107372D01*
X156506403Y-82107379D01*
X156556645Y-82242086D01*
X156556649Y-82242093D01*
X156601263Y-82301689D01*
X156625681Y-82367153D01*
X156610830Y-82435426D01*
X156561425Y-82484832D01*
X156501997Y-82500000D01*
X154418672Y-82500000D01*
X154351633Y-82480315D01*
X154305878Y-82427511D01*
X154295934Y-82358353D01*
X154324959Y-82294797D01*
X154356672Y-82268613D01*
X154533516Y-82166511D01*
X154533534Y-82166499D01*
X154646365Y-82079919D01*
X154646365Y-82079917D01*
X153751679Y-81185231D01*
X153779995Y-81173503D01*
X153904472Y-81090330D01*
X154010330Y-80984472D01*
X154093503Y-80859995D01*
X154105231Y-80831679D01*
X154999917Y-81726365D01*
X154999919Y-81726365D01*
X155086499Y-81613534D01*
X155086511Y-81613516D01*
X155217590Y-81386482D01*
X155217595Y-81386471D01*
X155317924Y-81144255D01*
X155385777Y-80891020D01*
X155385779Y-80891009D01*
X155419999Y-80631094D01*
X155420000Y-80631080D01*
X155420000Y-80368919D01*
X155419999Y-80368905D01*
X155385779Y-80108990D01*
X155385777Y-80108979D01*
X155317924Y-79855744D01*
X155217595Y-79613528D01*
X155217590Y-79613517D01*
X155086511Y-79386483D01*
X155086505Y-79386475D01*
X154999918Y-79273633D01*
X154999917Y-79273633D01*
X154105231Y-80168320D01*
X154093503Y-80140005D01*
X154010330Y-80015528D01*
X153904472Y-79909670D01*
X153779995Y-79826497D01*
X153751677Y-79814767D01*
X154646365Y-78920080D01*
X154533524Y-78833494D01*
X154533516Y-78833488D01*
X154356672Y-78731387D01*
X154308456Y-78680820D01*
X154295234Y-78612213D01*
X154321202Y-78547348D01*
X154378116Y-78506820D01*
X154418672Y-78500000D01*
X156501997Y-78500000D01*
X156569036Y-78519685D01*
G37*
G04 #@! TD.AperFunction*
G04 #@! TA.AperFunction,Conductor*
G36*
X159534075Y-68692993D02*
G01*
X159599901Y-68807007D01*
X159692993Y-68900099D01*
X159807007Y-68965925D01*
X159870590Y-68982962D01*
X159130893Y-69722658D01*
X159213828Y-69782914D01*
X159424197Y-69890102D01*
X159648752Y-69963065D01*
X159648751Y-69963065D01*
X159881948Y-70000000D01*
X160118052Y-70000000D01*
X160351247Y-69963065D01*
X160575802Y-69890102D01*
X160786163Y-69782918D01*
X160786169Y-69782914D01*
X160869104Y-69722658D01*
X160869105Y-69722658D01*
X160129408Y-68982962D01*
X160192993Y-68965925D01*
X160307007Y-68900099D01*
X160400099Y-68807007D01*
X160465925Y-68692993D01*
X160482962Y-68629409D01*
X161222658Y-69369105D01*
X161222659Y-69369104D01*
X161275682Y-69296125D01*
X161331012Y-69253459D01*
X161400625Y-69247480D01*
X161462420Y-69280086D01*
X161496777Y-69340924D01*
X161500000Y-69369010D01*
X161500000Y-80458666D01*
X161480315Y-80525705D01*
X161475200Y-80533066D01*
X160723200Y-81535733D01*
X160667229Y-81577554D01*
X160597533Y-81582475D01*
X160536240Y-81548935D01*
X160502810Y-81487582D01*
X160500000Y-81461333D01*
X160500000Y-80750000D01*
X159219064Y-80750000D01*
X159230793Y-80721684D01*
X159260000Y-80574853D01*
X159260000Y-80425147D01*
X159230793Y-80278316D01*
X159219064Y-80250000D01*
X160500000Y-80250000D01*
X160500000Y-78952172D01*
X160499999Y-78952155D01*
X160493598Y-78892627D01*
X160493596Y-78892620D01*
X160443354Y-78757913D01*
X160443350Y-78757906D01*
X160357190Y-78642812D01*
X160357187Y-78642809D01*
X160242093Y-78556649D01*
X160242086Y-78556645D01*
X160107379Y-78506403D01*
X160107372Y-78506401D01*
X160047844Y-78500000D01*
X158750000Y-78500000D01*
X158750000Y-79780935D01*
X158721684Y-79769207D01*
X158574853Y-79740000D01*
X158425147Y-79740000D01*
X158278316Y-79769207D01*
X158250000Y-79780935D01*
X158250000Y-78500000D01*
X157998000Y-78500000D01*
X157930961Y-78480315D01*
X157885206Y-78427511D01*
X157875262Y-78358353D01*
X157898800Y-78301600D01*
X158500000Y-77500000D01*
X158500000Y-69369012D01*
X158519685Y-69301973D01*
X158572489Y-69256218D01*
X158641647Y-69246274D01*
X158705203Y-69275299D01*
X158724318Y-69296127D01*
X158777339Y-69369104D01*
X158777340Y-69369105D01*
X159517037Y-68629408D01*
X159534075Y-68692993D01*
G37*
G04 #@! TD.AperFunction*
M02*
