M48
; DRILL file {KiCad 9.0.5-9.0.5~ubuntu25.04.1} date 2025-11-06T11:15:48-0600
; FORMAT={-:-/ absolute / metric / decimal}
; #@! TF.CreationDate,2025-11-06T11:15:48-06:00
; #@! TF.GenerationSoftware,Kicad,Pcbnew,9.0.5-9.0.5~ubuntu25.04.1
; #@! TF.FileFunction,Plated,1,2,PTH
FMAT,2
METRIC
; #@! TA.AperFunction,Plated,PTH,ComponentDrill
T1C0.700
; #@! TA.AperFunction,Plated,PTH,ComponentDrill
T2C0.750
; #@! TA.AperFunction,Plated,PTH,ComponentDrill
T3C0.800
; #@! TA.AperFunction,Plated,PTH,ComponentDrill
T4C1.000
; #@! TA.AperFunction,Plated,PTH,ComponentDrill
T5C1.100
; #@! TA.AperFunction,Plated,PTH,ComponentDrill
T6C1.520
%
G90
G05
T1
X114.86Y-57.42
X114.86Y-62.5
X119.0Y-69.51
X119.0Y-74.59
X119.77Y-60.0
X119.78Y-57.5
X121.5Y-69.51
X121.5Y-74.59
X124.85Y-60.0
X124.86Y-57.5
X127.92Y-47.0
X133.0Y-47.0
T2
X113.75Y-71.25
X115.02Y-71.25
X116.29Y-71.25
T3
X110.5Y-66.75
X110.5Y-74.25
X115.25Y-66.0
X122.75Y-66.0
X128.61Y-74.0
X128.74Y-52.42
X128.74Y-54.96
X128.74Y-57.5
X128.74Y-60.04
X128.74Y-62.58
X128.74Y-65.12
X128.74Y-67.66
X128.74Y-70.2
X136.11Y-74.0
X136.36Y-52.42
X136.36Y-54.96
X136.36Y-57.5
X136.36Y-60.04
X136.36Y-62.58
X136.36Y-65.12
X136.36Y-67.66
X136.36Y-70.2
X141.3Y-62.675
X141.3Y-70.295
X141.36Y-51.75
X141.36Y-59.25
X143.84Y-62.675
X143.84Y-70.295
X146.38Y-62.675
X146.38Y-70.295
X148.75Y-74.5
X148.92Y-62.675
X148.92Y-70.295
X151.46Y-62.675
X151.46Y-70.295
X154.0Y-62.675
X154.0Y-70.295
X156.25Y-74.5
X156.54Y-62.675
X156.54Y-70.295
T4
X125.225Y-47.0
X125.225Y-49.5
X125.225Y-52.0
T6
X112.96Y-80.5
X118.04Y-80.5
X133.1Y-80.5
X138.18Y-80.5
X143.26Y-80.5
X148.34Y-80.5
X153.42Y-80.5
X158.5Y-80.5
T5
X118.075Y-44.7G85X117.375Y-44.7
G05
X118.075Y-54.3G85X117.375Y-54.3
G05
M30
