%TF.GenerationSoftware,KiCad,Pcbnew,9.0.5-9.0.5~ubuntu25.04.1*%
%TF.CreationDate,2025-11-06T00:05:42-06:00*%
%TF.ProjectId,Return_Board,52657475-726e-45f4-926f-6172642e6b69,rev?*%
%TF.SameCoordinates,Original*%
%TF.FileFunction,Drillmap*%
%TF.FilePolarity,Positive*%
%FSLAX45Y45*%
G04 Gerber Fmt 4.5, Leading zero omitted, Abs format (unit mm)*
G04 Created by KiCad (PCBNEW 9.0.5-9.0.5~ubuntu25.04.1) date 2025-11-06 00:05:42*
%MOMM*%
%LPD*%
G01*
G04 APERTURE LIST*
%ADD10C,0.050000*%
%ADD11C,0.200000*%
%ADD12C,0.100000*%
%ADD13C,0.152000*%
G04 APERTURE END LIST*
D10*
X13225000Y-6750000D02*
X15750000Y-6750000D01*
X15750000Y-11100000D01*
X13225000Y-11100000D01*
X13225000Y-6750000D01*
D11*
D12*
X14941000Y-10190000D02*
X15011000Y-10260000D01*
X15011000Y-10190000D02*
X14941000Y-10260000D01*
X14941000Y-10465000D02*
X15011000Y-10535000D01*
X15011000Y-10465000D02*
X14941000Y-10535000D01*
X15449000Y-10190000D02*
X15519000Y-10260000D01*
X15519000Y-10190000D02*
X15449000Y-10260000D01*
X15449000Y-10465000D02*
X15519000Y-10535000D01*
X15519000Y-10465000D02*
X15449000Y-10535000D01*
X14462500Y-10500000D02*
G75*
G02*
X14387500Y-10500000I-37500J0D01*
G01*
X14387500Y-10500000D02*
G75*
G02*
X14462500Y-10500000I37500J0D01*
G01*
X14589500Y-10500000D02*
G75*
G02*
X14514500Y-10500000I-37500J0D01*
G01*
X14514500Y-10500000D02*
G75*
G02*
X14589500Y-10500000I37500J0D01*
G01*
X14716500Y-10500000D02*
G75*
G02*
X14641500Y-10500000I-37500J0D01*
G01*
X14641500Y-10500000D02*
G75*
G02*
X14716500Y-10500000I37500J0D01*
G01*
X14317500Y-7097500D02*
X14317500Y-7177500D01*
X14277500Y-7137500D02*
X14357500Y-7137500D01*
X14317500Y-7351500D02*
X14317500Y-7431500D01*
X14277500Y-7391500D02*
X14357500Y-7391500D01*
X14317500Y-7605500D02*
X14317500Y-7685500D01*
X14277500Y-7645500D02*
X14357500Y-7645500D01*
X14317500Y-7859500D02*
X14317500Y-7939500D01*
X14277500Y-7899500D02*
X14357500Y-7899500D01*
X14317500Y-8113500D02*
X14317500Y-8193500D01*
X14277500Y-8153500D02*
X14357500Y-8153500D01*
X14317500Y-8367500D02*
X14317500Y-8447500D01*
X14277500Y-8407500D02*
X14357500Y-8407500D01*
X14317500Y-8621500D02*
X14317500Y-8701500D01*
X14277500Y-8661500D02*
X14357500Y-8661500D01*
X14425000Y-10835000D02*
X14425000Y-10915000D01*
X14385000Y-10875000D02*
X14465000Y-10875000D01*
X14625000Y-9785000D02*
X14625000Y-9865000D01*
X14585000Y-9825000D02*
X14665000Y-9825000D01*
X15079500Y-7097500D02*
X15079500Y-7177500D01*
X15039500Y-7137500D02*
X15119500Y-7137500D01*
X15079500Y-7351500D02*
X15079500Y-7431500D01*
X15039500Y-7391500D02*
X15119500Y-7391500D01*
X15079500Y-7605500D02*
X15079500Y-7685500D01*
X15039500Y-7645500D02*
X15119500Y-7645500D01*
X15079500Y-7859500D02*
X15079500Y-7939500D01*
X15039500Y-7899500D02*
X15119500Y-7899500D01*
X15079500Y-8113500D02*
X15079500Y-8193500D01*
X15039500Y-8153500D02*
X15119500Y-8153500D01*
X15079500Y-8367500D02*
X15079500Y-8447500D01*
X15039500Y-8407500D02*
X15119500Y-8407500D01*
X15079500Y-8621500D02*
X15079500Y-8701500D01*
X15039500Y-8661500D02*
X15119500Y-8661500D01*
X15175000Y-10835000D02*
X15175000Y-10915000D01*
X15135000Y-10875000D02*
X15215000Y-10875000D01*
X15375000Y-9785000D02*
X15375000Y-9865000D01*
X15335000Y-9825000D02*
X15415000Y-9825000D01*
X15425000Y-7085000D02*
X15425000Y-7165000D01*
X15385000Y-7125000D02*
X15465000Y-7125000D01*
X15425000Y-7835000D02*
X15425000Y-7915000D01*
X15385000Y-7875000D02*
X15465000Y-7875000D01*
D13*
X13728741Y-7120741D02*
X13728741Y-7013259D01*
X13621259Y-7013259D01*
X13621259Y-7120741D01*
X13728741Y-7120741D01*
X13728741Y-7628741D02*
X13728741Y-7521259D01*
X13621259Y-7521259D01*
X13621259Y-7628741D01*
X13728741Y-7628741D01*
X13728741Y-8136741D02*
X13728741Y-8029259D01*
X13621259Y-8029259D01*
X13621259Y-8136741D01*
X13728741Y-8136741D01*
X13728741Y-8644741D02*
X13728741Y-8537259D01*
X13621259Y-8537259D01*
X13621259Y-8644741D01*
X13728741Y-8644741D01*
X13728741Y-9152741D02*
X13728741Y-9045259D01*
X13621259Y-9045259D01*
X13621259Y-9152741D01*
X13728741Y-9152741D01*
X13728741Y-9660741D02*
X13728741Y-9553259D01*
X13621259Y-9553259D01*
X13621259Y-9660741D01*
X13728741Y-9660741D01*
X13728741Y-10324741D02*
X13728741Y-10217259D01*
X13621259Y-10217259D01*
X13621259Y-10324741D01*
X13728741Y-10324741D01*
X13728741Y-10832741D02*
X13728741Y-10725259D01*
X13621259Y-10725259D01*
X13621259Y-10832741D01*
X13728741Y-10832741D01*
D11*
X13483277Y-11413984D02*
X13483277Y-11213984D01*
X13483277Y-11213984D02*
X13530896Y-11213984D01*
X13530896Y-11213984D02*
X13559467Y-11223508D01*
X13559467Y-11223508D02*
X13578515Y-11242555D01*
X13578515Y-11242555D02*
X13588039Y-11261603D01*
X13588039Y-11261603D02*
X13597562Y-11299698D01*
X13597562Y-11299698D02*
X13597562Y-11328269D01*
X13597562Y-11328269D02*
X13588039Y-11366365D01*
X13588039Y-11366365D02*
X13578515Y-11385412D01*
X13578515Y-11385412D02*
X13559467Y-11404460D01*
X13559467Y-11404460D02*
X13530896Y-11413984D01*
X13530896Y-11413984D02*
X13483277Y-11413984D01*
X13683277Y-11413984D02*
X13683277Y-11280650D01*
X13683277Y-11318746D02*
X13692801Y-11299698D01*
X13692801Y-11299698D02*
X13702324Y-11290174D01*
X13702324Y-11290174D02*
X13721372Y-11280650D01*
X13721372Y-11280650D02*
X13740420Y-11280650D01*
X13807086Y-11413984D02*
X13807086Y-11280650D01*
X13807086Y-11213984D02*
X13797562Y-11223508D01*
X13797562Y-11223508D02*
X13807086Y-11233031D01*
X13807086Y-11233031D02*
X13816610Y-11223508D01*
X13816610Y-11223508D02*
X13807086Y-11213984D01*
X13807086Y-11213984D02*
X13807086Y-11233031D01*
X13930896Y-11413984D02*
X13911848Y-11404460D01*
X13911848Y-11404460D02*
X13902324Y-11385412D01*
X13902324Y-11385412D02*
X13902324Y-11213984D01*
X14035658Y-11413984D02*
X14016610Y-11404460D01*
X14016610Y-11404460D02*
X14007086Y-11385412D01*
X14007086Y-11385412D02*
X14007086Y-11213984D01*
X14264229Y-11413984D02*
X14264229Y-11213984D01*
X14264229Y-11213984D02*
X14330896Y-11356841D01*
X14330896Y-11356841D02*
X14397562Y-11213984D01*
X14397562Y-11213984D02*
X14397562Y-11413984D01*
X14578515Y-11413984D02*
X14578515Y-11309222D01*
X14578515Y-11309222D02*
X14568991Y-11290174D01*
X14568991Y-11290174D02*
X14549943Y-11280650D01*
X14549943Y-11280650D02*
X14511848Y-11280650D01*
X14511848Y-11280650D02*
X14492801Y-11290174D01*
X14578515Y-11404460D02*
X14559467Y-11413984D01*
X14559467Y-11413984D02*
X14511848Y-11413984D01*
X14511848Y-11413984D02*
X14492801Y-11404460D01*
X14492801Y-11404460D02*
X14483277Y-11385412D01*
X14483277Y-11385412D02*
X14483277Y-11366365D01*
X14483277Y-11366365D02*
X14492801Y-11347317D01*
X14492801Y-11347317D02*
X14511848Y-11337793D01*
X14511848Y-11337793D02*
X14559467Y-11337793D01*
X14559467Y-11337793D02*
X14578515Y-11328269D01*
X14673753Y-11280650D02*
X14673753Y-11480650D01*
X14673753Y-11290174D02*
X14692801Y-11280650D01*
X14692801Y-11280650D02*
X14730896Y-11280650D01*
X14730896Y-11280650D02*
X14749943Y-11290174D01*
X14749943Y-11290174D02*
X14759467Y-11299698D01*
X14759467Y-11299698D02*
X14768991Y-11318746D01*
X14768991Y-11318746D02*
X14768991Y-11375888D01*
X14768991Y-11375888D02*
X14759467Y-11394936D01*
X14759467Y-11394936D02*
X14749943Y-11404460D01*
X14749943Y-11404460D02*
X14730896Y-11413984D01*
X14730896Y-11413984D02*
X14692801Y-11413984D01*
X14692801Y-11413984D02*
X14673753Y-11404460D01*
X14854705Y-11394936D02*
X14864229Y-11404460D01*
X14864229Y-11404460D02*
X14854705Y-11413984D01*
X14854705Y-11413984D02*
X14845182Y-11404460D01*
X14845182Y-11404460D02*
X14854705Y-11394936D01*
X14854705Y-11394936D02*
X14854705Y-11413984D01*
X14854705Y-11290174D02*
X14864229Y-11299698D01*
X14864229Y-11299698D02*
X14854705Y-11309222D01*
X14854705Y-11309222D02*
X14845182Y-11299698D01*
X14845182Y-11299698D02*
X14854705Y-11290174D01*
X14854705Y-11290174D02*
X14854705Y-11309222D01*
D12*
X13152500Y-11707500D02*
X13222500Y-11777500D01*
X13222500Y-11707500D02*
X13152500Y-11777500D01*
D11*
X13521372Y-11633984D02*
X13540420Y-11633984D01*
X13540420Y-11633984D02*
X13559467Y-11643508D01*
X13559467Y-11643508D02*
X13568991Y-11653031D01*
X13568991Y-11653031D02*
X13578515Y-11672079D01*
X13578515Y-11672079D02*
X13588039Y-11710174D01*
X13588039Y-11710174D02*
X13588039Y-11757793D01*
X13588039Y-11757793D02*
X13578515Y-11795888D01*
X13578515Y-11795888D02*
X13568991Y-11814936D01*
X13568991Y-11814936D02*
X13559467Y-11824460D01*
X13559467Y-11824460D02*
X13540420Y-11833984D01*
X13540420Y-11833984D02*
X13521372Y-11833984D01*
X13521372Y-11833984D02*
X13502324Y-11824460D01*
X13502324Y-11824460D02*
X13492801Y-11814936D01*
X13492801Y-11814936D02*
X13483277Y-11795888D01*
X13483277Y-11795888D02*
X13473753Y-11757793D01*
X13473753Y-11757793D02*
X13473753Y-11710174D01*
X13473753Y-11710174D02*
X13483277Y-11672079D01*
X13483277Y-11672079D02*
X13492801Y-11653031D01*
X13492801Y-11653031D02*
X13502324Y-11643508D01*
X13502324Y-11643508D02*
X13521372Y-11633984D01*
X13673753Y-11814936D02*
X13683277Y-11824460D01*
X13683277Y-11824460D02*
X13673753Y-11833984D01*
X13673753Y-11833984D02*
X13664229Y-11824460D01*
X13664229Y-11824460D02*
X13673753Y-11814936D01*
X13673753Y-11814936D02*
X13673753Y-11833984D01*
X13749943Y-11633984D02*
X13883277Y-11633984D01*
X13883277Y-11633984D02*
X13797562Y-11833984D01*
X13997562Y-11633984D02*
X14016610Y-11633984D01*
X14016610Y-11633984D02*
X14035658Y-11643508D01*
X14035658Y-11643508D02*
X14045182Y-11653031D01*
X14045182Y-11653031D02*
X14054705Y-11672079D01*
X14054705Y-11672079D02*
X14064229Y-11710174D01*
X14064229Y-11710174D02*
X14064229Y-11757793D01*
X14064229Y-11757793D02*
X14054705Y-11795888D01*
X14054705Y-11795888D02*
X14045182Y-11814936D01*
X14045182Y-11814936D02*
X14035658Y-11824460D01*
X14035658Y-11824460D02*
X14016610Y-11833984D01*
X14016610Y-11833984D02*
X13997562Y-11833984D01*
X13997562Y-11833984D02*
X13978515Y-11824460D01*
X13978515Y-11824460D02*
X13968991Y-11814936D01*
X13968991Y-11814936D02*
X13959467Y-11795888D01*
X13959467Y-11795888D02*
X13949943Y-11757793D01*
X13949943Y-11757793D02*
X13949943Y-11710174D01*
X13949943Y-11710174D02*
X13959467Y-11672079D01*
X13959467Y-11672079D02*
X13968991Y-11653031D01*
X13968991Y-11653031D02*
X13978515Y-11643508D01*
X13978515Y-11643508D02*
X13997562Y-11633984D01*
X14188039Y-11633984D02*
X14207086Y-11633984D01*
X14207086Y-11633984D02*
X14226134Y-11643508D01*
X14226134Y-11643508D02*
X14235658Y-11653031D01*
X14235658Y-11653031D02*
X14245182Y-11672079D01*
X14245182Y-11672079D02*
X14254705Y-11710174D01*
X14254705Y-11710174D02*
X14254705Y-11757793D01*
X14254705Y-11757793D02*
X14245182Y-11795888D01*
X14245182Y-11795888D02*
X14235658Y-11814936D01*
X14235658Y-11814936D02*
X14226134Y-11824460D01*
X14226134Y-11824460D02*
X14207086Y-11833984D01*
X14207086Y-11833984D02*
X14188039Y-11833984D01*
X14188039Y-11833984D02*
X14168991Y-11824460D01*
X14168991Y-11824460D02*
X14159467Y-11814936D01*
X14159467Y-11814936D02*
X14149943Y-11795888D01*
X14149943Y-11795888D02*
X14140420Y-11757793D01*
X14140420Y-11757793D02*
X14140420Y-11710174D01*
X14140420Y-11710174D02*
X14149943Y-11672079D01*
X14149943Y-11672079D02*
X14159467Y-11653031D01*
X14159467Y-11653031D02*
X14168991Y-11643508D01*
X14168991Y-11643508D02*
X14188039Y-11633984D01*
X14340420Y-11833984D02*
X14340420Y-11700650D01*
X14340420Y-11719698D02*
X14349943Y-11710174D01*
X14349943Y-11710174D02*
X14368991Y-11700650D01*
X14368991Y-11700650D02*
X14397563Y-11700650D01*
X14397563Y-11700650D02*
X14416610Y-11710174D01*
X14416610Y-11710174D02*
X14426134Y-11729222D01*
X14426134Y-11729222D02*
X14426134Y-11833984D01*
X14426134Y-11729222D02*
X14435658Y-11710174D01*
X14435658Y-11710174D02*
X14454705Y-11700650D01*
X14454705Y-11700650D02*
X14483277Y-11700650D01*
X14483277Y-11700650D02*
X14502324Y-11710174D01*
X14502324Y-11710174D02*
X14511848Y-11729222D01*
X14511848Y-11729222D02*
X14511848Y-11833984D01*
X14607086Y-11833984D02*
X14607086Y-11700650D01*
X14607086Y-11719698D02*
X14616610Y-11710174D01*
X14616610Y-11710174D02*
X14635658Y-11700650D01*
X14635658Y-11700650D02*
X14664229Y-11700650D01*
X14664229Y-11700650D02*
X14683277Y-11710174D01*
X14683277Y-11710174D02*
X14692801Y-11729222D01*
X14692801Y-11729222D02*
X14692801Y-11833984D01*
X14692801Y-11729222D02*
X14702324Y-11710174D01*
X14702324Y-11710174D02*
X14721372Y-11700650D01*
X14721372Y-11700650D02*
X14749943Y-11700650D01*
X14749943Y-11700650D02*
X14768991Y-11710174D01*
X14768991Y-11710174D02*
X14778515Y-11729222D01*
X14778515Y-11729222D02*
X14778515Y-11833984D01*
X15168991Y-11624460D02*
X14997563Y-11881603D01*
X15426134Y-11633984D02*
X15445182Y-11633984D01*
X15445182Y-11633984D02*
X15464229Y-11643508D01*
X15464229Y-11643508D02*
X15473753Y-11653031D01*
X15473753Y-11653031D02*
X15483277Y-11672079D01*
X15483277Y-11672079D02*
X15492801Y-11710174D01*
X15492801Y-11710174D02*
X15492801Y-11757793D01*
X15492801Y-11757793D02*
X15483277Y-11795888D01*
X15483277Y-11795888D02*
X15473753Y-11814936D01*
X15473753Y-11814936D02*
X15464229Y-11824460D01*
X15464229Y-11824460D02*
X15445182Y-11833984D01*
X15445182Y-11833984D02*
X15426134Y-11833984D01*
X15426134Y-11833984D02*
X15407086Y-11824460D01*
X15407086Y-11824460D02*
X15397563Y-11814936D01*
X15397563Y-11814936D02*
X15388039Y-11795888D01*
X15388039Y-11795888D02*
X15378515Y-11757793D01*
X15378515Y-11757793D02*
X15378515Y-11710174D01*
X15378515Y-11710174D02*
X15388039Y-11672079D01*
X15388039Y-11672079D02*
X15397563Y-11653031D01*
X15397563Y-11653031D02*
X15407086Y-11643508D01*
X15407086Y-11643508D02*
X15426134Y-11633984D01*
X15578515Y-11814936D02*
X15588039Y-11824460D01*
X15588039Y-11824460D02*
X15578515Y-11833984D01*
X15578515Y-11833984D02*
X15568991Y-11824460D01*
X15568991Y-11824460D02*
X15578515Y-11814936D01*
X15578515Y-11814936D02*
X15578515Y-11833984D01*
X15711848Y-11633984D02*
X15730896Y-11633984D01*
X15730896Y-11633984D02*
X15749944Y-11643508D01*
X15749944Y-11643508D02*
X15759467Y-11653031D01*
X15759467Y-11653031D02*
X15768991Y-11672079D01*
X15768991Y-11672079D02*
X15778515Y-11710174D01*
X15778515Y-11710174D02*
X15778515Y-11757793D01*
X15778515Y-11757793D02*
X15768991Y-11795888D01*
X15768991Y-11795888D02*
X15759467Y-11814936D01*
X15759467Y-11814936D02*
X15749944Y-11824460D01*
X15749944Y-11824460D02*
X15730896Y-11833984D01*
X15730896Y-11833984D02*
X15711848Y-11833984D01*
X15711848Y-11833984D02*
X15692801Y-11824460D01*
X15692801Y-11824460D02*
X15683277Y-11814936D01*
X15683277Y-11814936D02*
X15673753Y-11795888D01*
X15673753Y-11795888D02*
X15664229Y-11757793D01*
X15664229Y-11757793D02*
X15664229Y-11710174D01*
X15664229Y-11710174D02*
X15673753Y-11672079D01*
X15673753Y-11672079D02*
X15683277Y-11653031D01*
X15683277Y-11653031D02*
X15692801Y-11643508D01*
X15692801Y-11643508D02*
X15711848Y-11633984D01*
X15854706Y-11653031D02*
X15864229Y-11643508D01*
X15864229Y-11643508D02*
X15883277Y-11633984D01*
X15883277Y-11633984D02*
X15930896Y-11633984D01*
X15930896Y-11633984D02*
X15949944Y-11643508D01*
X15949944Y-11643508D02*
X15959467Y-11653031D01*
X15959467Y-11653031D02*
X15968991Y-11672079D01*
X15968991Y-11672079D02*
X15968991Y-11691127D01*
X15968991Y-11691127D02*
X15959467Y-11719698D01*
X15959467Y-11719698D02*
X15845182Y-11833984D01*
X15845182Y-11833984D02*
X15968991Y-11833984D01*
X16035658Y-11633984D02*
X16168991Y-11633984D01*
X16168991Y-11633984D02*
X16083277Y-11833984D01*
X16330896Y-11633984D02*
X16292801Y-11633984D01*
X16292801Y-11633984D02*
X16273753Y-11643508D01*
X16273753Y-11643508D02*
X16264229Y-11653031D01*
X16264229Y-11653031D02*
X16245182Y-11681603D01*
X16245182Y-11681603D02*
X16235658Y-11719698D01*
X16235658Y-11719698D02*
X16235658Y-11795888D01*
X16235658Y-11795888D02*
X16245182Y-11814936D01*
X16245182Y-11814936D02*
X16254706Y-11824460D01*
X16254706Y-11824460D02*
X16273753Y-11833984D01*
X16273753Y-11833984D02*
X16311848Y-11833984D01*
X16311848Y-11833984D02*
X16330896Y-11824460D01*
X16330896Y-11824460D02*
X16340420Y-11814936D01*
X16340420Y-11814936D02*
X16349944Y-11795888D01*
X16349944Y-11795888D02*
X16349944Y-11748269D01*
X16349944Y-11748269D02*
X16340420Y-11729222D01*
X16340420Y-11729222D02*
X16330896Y-11719698D01*
X16330896Y-11719698D02*
X16311848Y-11710174D01*
X16311848Y-11710174D02*
X16273753Y-11710174D01*
X16273753Y-11710174D02*
X16254706Y-11719698D01*
X16254706Y-11719698D02*
X16245182Y-11729222D01*
X16245182Y-11729222D02*
X16235658Y-11748269D01*
X16426134Y-11633984D02*
X16426134Y-11672079D01*
X16502325Y-11633984D02*
X16502325Y-11672079D01*
X16797563Y-11910174D02*
X16788039Y-11900650D01*
X16788039Y-11900650D02*
X16768991Y-11872079D01*
X16768991Y-11872079D02*
X16759468Y-11853031D01*
X16759468Y-11853031D02*
X16749944Y-11824460D01*
X16749944Y-11824460D02*
X16740420Y-11776841D01*
X16740420Y-11776841D02*
X16740420Y-11738746D01*
X16740420Y-11738746D02*
X16749944Y-11691127D01*
X16749944Y-11691127D02*
X16759468Y-11662555D01*
X16759468Y-11662555D02*
X16768991Y-11643508D01*
X16768991Y-11643508D02*
X16788039Y-11614936D01*
X16788039Y-11614936D02*
X16797563Y-11605412D01*
X16959468Y-11700650D02*
X16959468Y-11833984D01*
X16911849Y-11624460D02*
X16864230Y-11767317D01*
X16864230Y-11767317D02*
X16988039Y-11767317D01*
X17216611Y-11833984D02*
X17216611Y-11633984D01*
X17302325Y-11833984D02*
X17302325Y-11729222D01*
X17302325Y-11729222D02*
X17292801Y-11710174D01*
X17292801Y-11710174D02*
X17273753Y-11700650D01*
X17273753Y-11700650D02*
X17245182Y-11700650D01*
X17245182Y-11700650D02*
X17226134Y-11710174D01*
X17226134Y-11710174D02*
X17216611Y-11719698D01*
X17426134Y-11833984D02*
X17407087Y-11824460D01*
X17407087Y-11824460D02*
X17397563Y-11814936D01*
X17397563Y-11814936D02*
X17388039Y-11795888D01*
X17388039Y-11795888D02*
X17388039Y-11738746D01*
X17388039Y-11738746D02*
X17397563Y-11719698D01*
X17397563Y-11719698D02*
X17407087Y-11710174D01*
X17407087Y-11710174D02*
X17426134Y-11700650D01*
X17426134Y-11700650D02*
X17454706Y-11700650D01*
X17454706Y-11700650D02*
X17473753Y-11710174D01*
X17473753Y-11710174D02*
X17483277Y-11719698D01*
X17483277Y-11719698D02*
X17492801Y-11738746D01*
X17492801Y-11738746D02*
X17492801Y-11795888D01*
X17492801Y-11795888D02*
X17483277Y-11814936D01*
X17483277Y-11814936D02*
X17473753Y-11824460D01*
X17473753Y-11824460D02*
X17454706Y-11833984D01*
X17454706Y-11833984D02*
X17426134Y-11833984D01*
X17607087Y-11833984D02*
X17588039Y-11824460D01*
X17588039Y-11824460D02*
X17578515Y-11805412D01*
X17578515Y-11805412D02*
X17578515Y-11633984D01*
X17759468Y-11824460D02*
X17740420Y-11833984D01*
X17740420Y-11833984D02*
X17702325Y-11833984D01*
X17702325Y-11833984D02*
X17683277Y-11824460D01*
X17683277Y-11824460D02*
X17673753Y-11805412D01*
X17673753Y-11805412D02*
X17673753Y-11729222D01*
X17673753Y-11729222D02*
X17683277Y-11710174D01*
X17683277Y-11710174D02*
X17702325Y-11700650D01*
X17702325Y-11700650D02*
X17740420Y-11700650D01*
X17740420Y-11700650D02*
X17759468Y-11710174D01*
X17759468Y-11710174D02*
X17768992Y-11729222D01*
X17768992Y-11729222D02*
X17768992Y-11748269D01*
X17768992Y-11748269D02*
X17673753Y-11767317D01*
X17845182Y-11824460D02*
X17864230Y-11833984D01*
X17864230Y-11833984D02*
X17902325Y-11833984D01*
X17902325Y-11833984D02*
X17921373Y-11824460D01*
X17921373Y-11824460D02*
X17930896Y-11805412D01*
X17930896Y-11805412D02*
X17930896Y-11795888D01*
X17930896Y-11795888D02*
X17921373Y-11776841D01*
X17921373Y-11776841D02*
X17902325Y-11767317D01*
X17902325Y-11767317D02*
X17873753Y-11767317D01*
X17873753Y-11767317D02*
X17854706Y-11757793D01*
X17854706Y-11757793D02*
X17845182Y-11738746D01*
X17845182Y-11738746D02*
X17845182Y-11729222D01*
X17845182Y-11729222D02*
X17854706Y-11710174D01*
X17854706Y-11710174D02*
X17873753Y-11700650D01*
X17873753Y-11700650D02*
X17902325Y-11700650D01*
X17902325Y-11700650D02*
X17921373Y-11710174D01*
X17997563Y-11910174D02*
X18007087Y-11900650D01*
X18007087Y-11900650D02*
X18026134Y-11872079D01*
X18026134Y-11872079D02*
X18035658Y-11853031D01*
X18035658Y-11853031D02*
X18045182Y-11824460D01*
X18045182Y-11824460D02*
X18054706Y-11776841D01*
X18054706Y-11776841D02*
X18054706Y-11738746D01*
X18054706Y-11738746D02*
X18045182Y-11691127D01*
X18045182Y-11691127D02*
X18035658Y-11662555D01*
X18035658Y-11662555D02*
X18026134Y-11643508D01*
X18026134Y-11643508D02*
X18007087Y-11614936D01*
X18007087Y-11614936D02*
X17997563Y-11605412D01*
D12*
X13222500Y-12006500D02*
G75*
G02*
X13147500Y-12006500I-37500J0D01*
G01*
X13147500Y-12006500D02*
G75*
G02*
X13222500Y-12006500I37500J0D01*
G01*
D11*
X13521372Y-11897984D02*
X13540420Y-11897984D01*
X13540420Y-11897984D02*
X13559467Y-11907508D01*
X13559467Y-11907508D02*
X13568991Y-11917031D01*
X13568991Y-11917031D02*
X13578515Y-11936079D01*
X13578515Y-11936079D02*
X13588039Y-11974174D01*
X13588039Y-11974174D02*
X13588039Y-12021793D01*
X13588039Y-12021793D02*
X13578515Y-12059888D01*
X13578515Y-12059888D02*
X13568991Y-12078936D01*
X13568991Y-12078936D02*
X13559467Y-12088460D01*
X13559467Y-12088460D02*
X13540420Y-12097984D01*
X13540420Y-12097984D02*
X13521372Y-12097984D01*
X13521372Y-12097984D02*
X13502324Y-12088460D01*
X13502324Y-12088460D02*
X13492801Y-12078936D01*
X13492801Y-12078936D02*
X13483277Y-12059888D01*
X13483277Y-12059888D02*
X13473753Y-12021793D01*
X13473753Y-12021793D02*
X13473753Y-11974174D01*
X13473753Y-11974174D02*
X13483277Y-11936079D01*
X13483277Y-11936079D02*
X13492801Y-11917031D01*
X13492801Y-11917031D02*
X13502324Y-11907508D01*
X13502324Y-11907508D02*
X13521372Y-11897984D01*
X13673753Y-12078936D02*
X13683277Y-12088460D01*
X13683277Y-12088460D02*
X13673753Y-12097984D01*
X13673753Y-12097984D02*
X13664229Y-12088460D01*
X13664229Y-12088460D02*
X13673753Y-12078936D01*
X13673753Y-12078936D02*
X13673753Y-12097984D01*
X13749943Y-11897984D02*
X13883277Y-11897984D01*
X13883277Y-11897984D02*
X13797562Y-12097984D01*
X14054705Y-11897984D02*
X13959467Y-11897984D01*
X13959467Y-11897984D02*
X13949943Y-11993222D01*
X13949943Y-11993222D02*
X13959467Y-11983698D01*
X13959467Y-11983698D02*
X13978515Y-11974174D01*
X13978515Y-11974174D02*
X14026134Y-11974174D01*
X14026134Y-11974174D02*
X14045182Y-11983698D01*
X14045182Y-11983698D02*
X14054705Y-11993222D01*
X14054705Y-11993222D02*
X14064229Y-12012269D01*
X14064229Y-12012269D02*
X14064229Y-12059888D01*
X14064229Y-12059888D02*
X14054705Y-12078936D01*
X14054705Y-12078936D02*
X14045182Y-12088460D01*
X14045182Y-12088460D02*
X14026134Y-12097984D01*
X14026134Y-12097984D02*
X13978515Y-12097984D01*
X13978515Y-12097984D02*
X13959467Y-12088460D01*
X13959467Y-12088460D02*
X13949943Y-12078936D01*
X14188039Y-11897984D02*
X14207086Y-11897984D01*
X14207086Y-11897984D02*
X14226134Y-11907508D01*
X14226134Y-11907508D02*
X14235658Y-11917031D01*
X14235658Y-11917031D02*
X14245182Y-11936079D01*
X14245182Y-11936079D02*
X14254705Y-11974174D01*
X14254705Y-11974174D02*
X14254705Y-12021793D01*
X14254705Y-12021793D02*
X14245182Y-12059888D01*
X14245182Y-12059888D02*
X14235658Y-12078936D01*
X14235658Y-12078936D02*
X14226134Y-12088460D01*
X14226134Y-12088460D02*
X14207086Y-12097984D01*
X14207086Y-12097984D02*
X14188039Y-12097984D01*
X14188039Y-12097984D02*
X14168991Y-12088460D01*
X14168991Y-12088460D02*
X14159467Y-12078936D01*
X14159467Y-12078936D02*
X14149943Y-12059888D01*
X14149943Y-12059888D02*
X14140420Y-12021793D01*
X14140420Y-12021793D02*
X14140420Y-11974174D01*
X14140420Y-11974174D02*
X14149943Y-11936079D01*
X14149943Y-11936079D02*
X14159467Y-11917031D01*
X14159467Y-11917031D02*
X14168991Y-11907508D01*
X14168991Y-11907508D02*
X14188039Y-11897984D01*
X14340420Y-12097984D02*
X14340420Y-11964650D01*
X14340420Y-11983698D02*
X14349943Y-11974174D01*
X14349943Y-11974174D02*
X14368991Y-11964650D01*
X14368991Y-11964650D02*
X14397563Y-11964650D01*
X14397563Y-11964650D02*
X14416610Y-11974174D01*
X14416610Y-11974174D02*
X14426134Y-11993222D01*
X14426134Y-11993222D02*
X14426134Y-12097984D01*
X14426134Y-11993222D02*
X14435658Y-11974174D01*
X14435658Y-11974174D02*
X14454705Y-11964650D01*
X14454705Y-11964650D02*
X14483277Y-11964650D01*
X14483277Y-11964650D02*
X14502324Y-11974174D01*
X14502324Y-11974174D02*
X14511848Y-11993222D01*
X14511848Y-11993222D02*
X14511848Y-12097984D01*
X14607086Y-12097984D02*
X14607086Y-11964650D01*
X14607086Y-11983698D02*
X14616610Y-11974174D01*
X14616610Y-11974174D02*
X14635658Y-11964650D01*
X14635658Y-11964650D02*
X14664229Y-11964650D01*
X14664229Y-11964650D02*
X14683277Y-11974174D01*
X14683277Y-11974174D02*
X14692801Y-11993222D01*
X14692801Y-11993222D02*
X14692801Y-12097984D01*
X14692801Y-11993222D02*
X14702324Y-11974174D01*
X14702324Y-11974174D02*
X14721372Y-11964650D01*
X14721372Y-11964650D02*
X14749943Y-11964650D01*
X14749943Y-11964650D02*
X14768991Y-11974174D01*
X14768991Y-11974174D02*
X14778515Y-11993222D01*
X14778515Y-11993222D02*
X14778515Y-12097984D01*
X15168991Y-11888460D02*
X14997563Y-12145603D01*
X15426134Y-11897984D02*
X15445182Y-11897984D01*
X15445182Y-11897984D02*
X15464229Y-11907508D01*
X15464229Y-11907508D02*
X15473753Y-11917031D01*
X15473753Y-11917031D02*
X15483277Y-11936079D01*
X15483277Y-11936079D02*
X15492801Y-11974174D01*
X15492801Y-11974174D02*
X15492801Y-12021793D01*
X15492801Y-12021793D02*
X15483277Y-12059888D01*
X15483277Y-12059888D02*
X15473753Y-12078936D01*
X15473753Y-12078936D02*
X15464229Y-12088460D01*
X15464229Y-12088460D02*
X15445182Y-12097984D01*
X15445182Y-12097984D02*
X15426134Y-12097984D01*
X15426134Y-12097984D02*
X15407086Y-12088460D01*
X15407086Y-12088460D02*
X15397563Y-12078936D01*
X15397563Y-12078936D02*
X15388039Y-12059888D01*
X15388039Y-12059888D02*
X15378515Y-12021793D01*
X15378515Y-12021793D02*
X15378515Y-11974174D01*
X15378515Y-11974174D02*
X15388039Y-11936079D01*
X15388039Y-11936079D02*
X15397563Y-11917031D01*
X15397563Y-11917031D02*
X15407086Y-11907508D01*
X15407086Y-11907508D02*
X15426134Y-11897984D01*
X15578515Y-12078936D02*
X15588039Y-12088460D01*
X15588039Y-12088460D02*
X15578515Y-12097984D01*
X15578515Y-12097984D02*
X15568991Y-12088460D01*
X15568991Y-12088460D02*
X15578515Y-12078936D01*
X15578515Y-12078936D02*
X15578515Y-12097984D01*
X15711848Y-11897984D02*
X15730896Y-11897984D01*
X15730896Y-11897984D02*
X15749944Y-11907508D01*
X15749944Y-11907508D02*
X15759467Y-11917031D01*
X15759467Y-11917031D02*
X15768991Y-11936079D01*
X15768991Y-11936079D02*
X15778515Y-11974174D01*
X15778515Y-11974174D02*
X15778515Y-12021793D01*
X15778515Y-12021793D02*
X15768991Y-12059888D01*
X15768991Y-12059888D02*
X15759467Y-12078936D01*
X15759467Y-12078936D02*
X15749944Y-12088460D01*
X15749944Y-12088460D02*
X15730896Y-12097984D01*
X15730896Y-12097984D02*
X15711848Y-12097984D01*
X15711848Y-12097984D02*
X15692801Y-12088460D01*
X15692801Y-12088460D02*
X15683277Y-12078936D01*
X15683277Y-12078936D02*
X15673753Y-12059888D01*
X15673753Y-12059888D02*
X15664229Y-12021793D01*
X15664229Y-12021793D02*
X15664229Y-11974174D01*
X15664229Y-11974174D02*
X15673753Y-11936079D01*
X15673753Y-11936079D02*
X15683277Y-11917031D01*
X15683277Y-11917031D02*
X15692801Y-11907508D01*
X15692801Y-11907508D02*
X15711848Y-11897984D01*
X15854706Y-11917031D02*
X15864229Y-11907508D01*
X15864229Y-11907508D02*
X15883277Y-11897984D01*
X15883277Y-11897984D02*
X15930896Y-11897984D01*
X15930896Y-11897984D02*
X15949944Y-11907508D01*
X15949944Y-11907508D02*
X15959467Y-11917031D01*
X15959467Y-11917031D02*
X15968991Y-11936079D01*
X15968991Y-11936079D02*
X15968991Y-11955127D01*
X15968991Y-11955127D02*
X15959467Y-11983698D01*
X15959467Y-11983698D02*
X15845182Y-12097984D01*
X15845182Y-12097984D02*
X15968991Y-12097984D01*
X16064229Y-12097984D02*
X16102325Y-12097984D01*
X16102325Y-12097984D02*
X16121372Y-12088460D01*
X16121372Y-12088460D02*
X16130896Y-12078936D01*
X16130896Y-12078936D02*
X16149944Y-12050365D01*
X16149944Y-12050365D02*
X16159467Y-12012269D01*
X16159467Y-12012269D02*
X16159467Y-11936079D01*
X16159467Y-11936079D02*
X16149944Y-11917031D01*
X16149944Y-11917031D02*
X16140420Y-11907508D01*
X16140420Y-11907508D02*
X16121372Y-11897984D01*
X16121372Y-11897984D02*
X16083277Y-11897984D01*
X16083277Y-11897984D02*
X16064229Y-11907508D01*
X16064229Y-11907508D02*
X16054706Y-11917031D01*
X16054706Y-11917031D02*
X16045182Y-11936079D01*
X16045182Y-11936079D02*
X16045182Y-11983698D01*
X16045182Y-11983698D02*
X16054706Y-12002746D01*
X16054706Y-12002746D02*
X16064229Y-12012269D01*
X16064229Y-12012269D02*
X16083277Y-12021793D01*
X16083277Y-12021793D02*
X16121372Y-12021793D01*
X16121372Y-12021793D02*
X16140420Y-12012269D01*
X16140420Y-12012269D02*
X16149944Y-12002746D01*
X16149944Y-12002746D02*
X16159467Y-11983698D01*
X16340420Y-11897984D02*
X16245182Y-11897984D01*
X16245182Y-11897984D02*
X16235658Y-11993222D01*
X16235658Y-11993222D02*
X16245182Y-11983698D01*
X16245182Y-11983698D02*
X16264229Y-11974174D01*
X16264229Y-11974174D02*
X16311848Y-11974174D01*
X16311848Y-11974174D02*
X16330896Y-11983698D01*
X16330896Y-11983698D02*
X16340420Y-11993222D01*
X16340420Y-11993222D02*
X16349944Y-12012269D01*
X16349944Y-12012269D02*
X16349944Y-12059888D01*
X16349944Y-12059888D02*
X16340420Y-12078936D01*
X16340420Y-12078936D02*
X16330896Y-12088460D01*
X16330896Y-12088460D02*
X16311848Y-12097984D01*
X16311848Y-12097984D02*
X16264229Y-12097984D01*
X16264229Y-12097984D02*
X16245182Y-12088460D01*
X16245182Y-12088460D02*
X16235658Y-12078936D01*
X16426134Y-11897984D02*
X16426134Y-11936079D01*
X16502325Y-11897984D02*
X16502325Y-11936079D01*
X16797563Y-12174174D02*
X16788039Y-12164650D01*
X16788039Y-12164650D02*
X16768991Y-12136079D01*
X16768991Y-12136079D02*
X16759468Y-12117031D01*
X16759468Y-12117031D02*
X16749944Y-12088460D01*
X16749944Y-12088460D02*
X16740420Y-12040841D01*
X16740420Y-12040841D02*
X16740420Y-12002746D01*
X16740420Y-12002746D02*
X16749944Y-11955127D01*
X16749944Y-11955127D02*
X16759468Y-11926555D01*
X16759468Y-11926555D02*
X16768991Y-11907508D01*
X16768991Y-11907508D02*
X16788039Y-11878936D01*
X16788039Y-11878936D02*
X16797563Y-11869412D01*
X16854706Y-11897984D02*
X16978515Y-11897984D01*
X16978515Y-11897984D02*
X16911849Y-11974174D01*
X16911849Y-11974174D02*
X16940420Y-11974174D01*
X16940420Y-11974174D02*
X16959468Y-11983698D01*
X16959468Y-11983698D02*
X16968991Y-11993222D01*
X16968991Y-11993222D02*
X16978515Y-12012269D01*
X16978515Y-12012269D02*
X16978515Y-12059888D01*
X16978515Y-12059888D02*
X16968991Y-12078936D01*
X16968991Y-12078936D02*
X16959468Y-12088460D01*
X16959468Y-12088460D02*
X16940420Y-12097984D01*
X16940420Y-12097984D02*
X16883277Y-12097984D01*
X16883277Y-12097984D02*
X16864230Y-12088460D01*
X16864230Y-12088460D02*
X16854706Y-12078936D01*
X17216611Y-12097984D02*
X17216611Y-11897984D01*
X17302325Y-12097984D02*
X17302325Y-11993222D01*
X17302325Y-11993222D02*
X17292801Y-11974174D01*
X17292801Y-11974174D02*
X17273753Y-11964650D01*
X17273753Y-11964650D02*
X17245182Y-11964650D01*
X17245182Y-11964650D02*
X17226134Y-11974174D01*
X17226134Y-11974174D02*
X17216611Y-11983698D01*
X17426134Y-12097984D02*
X17407087Y-12088460D01*
X17407087Y-12088460D02*
X17397563Y-12078936D01*
X17397563Y-12078936D02*
X17388039Y-12059888D01*
X17388039Y-12059888D02*
X17388039Y-12002746D01*
X17388039Y-12002746D02*
X17397563Y-11983698D01*
X17397563Y-11983698D02*
X17407087Y-11974174D01*
X17407087Y-11974174D02*
X17426134Y-11964650D01*
X17426134Y-11964650D02*
X17454706Y-11964650D01*
X17454706Y-11964650D02*
X17473753Y-11974174D01*
X17473753Y-11974174D02*
X17483277Y-11983698D01*
X17483277Y-11983698D02*
X17492801Y-12002746D01*
X17492801Y-12002746D02*
X17492801Y-12059888D01*
X17492801Y-12059888D02*
X17483277Y-12078936D01*
X17483277Y-12078936D02*
X17473753Y-12088460D01*
X17473753Y-12088460D02*
X17454706Y-12097984D01*
X17454706Y-12097984D02*
X17426134Y-12097984D01*
X17607087Y-12097984D02*
X17588039Y-12088460D01*
X17588039Y-12088460D02*
X17578515Y-12069412D01*
X17578515Y-12069412D02*
X17578515Y-11897984D01*
X17759468Y-12088460D02*
X17740420Y-12097984D01*
X17740420Y-12097984D02*
X17702325Y-12097984D01*
X17702325Y-12097984D02*
X17683277Y-12088460D01*
X17683277Y-12088460D02*
X17673753Y-12069412D01*
X17673753Y-12069412D02*
X17673753Y-11993222D01*
X17673753Y-11993222D02*
X17683277Y-11974174D01*
X17683277Y-11974174D02*
X17702325Y-11964650D01*
X17702325Y-11964650D02*
X17740420Y-11964650D01*
X17740420Y-11964650D02*
X17759468Y-11974174D01*
X17759468Y-11974174D02*
X17768992Y-11993222D01*
X17768992Y-11993222D02*
X17768992Y-12012269D01*
X17768992Y-12012269D02*
X17673753Y-12031317D01*
X17845182Y-12088460D02*
X17864230Y-12097984D01*
X17864230Y-12097984D02*
X17902325Y-12097984D01*
X17902325Y-12097984D02*
X17921373Y-12088460D01*
X17921373Y-12088460D02*
X17930896Y-12069412D01*
X17930896Y-12069412D02*
X17930896Y-12059888D01*
X17930896Y-12059888D02*
X17921373Y-12040841D01*
X17921373Y-12040841D02*
X17902325Y-12031317D01*
X17902325Y-12031317D02*
X17873753Y-12031317D01*
X17873753Y-12031317D02*
X17854706Y-12021793D01*
X17854706Y-12021793D02*
X17845182Y-12002746D01*
X17845182Y-12002746D02*
X17845182Y-11993222D01*
X17845182Y-11993222D02*
X17854706Y-11974174D01*
X17854706Y-11974174D02*
X17873753Y-11964650D01*
X17873753Y-11964650D02*
X17902325Y-11964650D01*
X17902325Y-11964650D02*
X17921373Y-11974174D01*
X17997563Y-12174174D02*
X18007087Y-12164650D01*
X18007087Y-12164650D02*
X18026134Y-12136079D01*
X18026134Y-12136079D02*
X18035658Y-12117031D01*
X18035658Y-12117031D02*
X18045182Y-12088460D01*
X18045182Y-12088460D02*
X18054706Y-12040841D01*
X18054706Y-12040841D02*
X18054706Y-12002746D01*
X18054706Y-12002746D02*
X18045182Y-11955127D01*
X18045182Y-11955127D02*
X18035658Y-11926555D01*
X18035658Y-11926555D02*
X18026134Y-11907508D01*
X18026134Y-11907508D02*
X18007087Y-11878936D01*
X18007087Y-11878936D02*
X17997563Y-11869412D01*
D12*
X13182500Y-12230500D02*
X13182500Y-12310500D01*
X13142500Y-12270500D02*
X13222500Y-12270500D01*
D11*
X13521372Y-12161984D02*
X13540420Y-12161984D01*
X13540420Y-12161984D02*
X13559467Y-12171508D01*
X13559467Y-12171508D02*
X13568991Y-12181031D01*
X13568991Y-12181031D02*
X13578515Y-12200079D01*
X13578515Y-12200079D02*
X13588039Y-12238174D01*
X13588039Y-12238174D02*
X13588039Y-12285793D01*
X13588039Y-12285793D02*
X13578515Y-12323888D01*
X13578515Y-12323888D02*
X13568991Y-12342936D01*
X13568991Y-12342936D02*
X13559467Y-12352460D01*
X13559467Y-12352460D02*
X13540420Y-12361984D01*
X13540420Y-12361984D02*
X13521372Y-12361984D01*
X13521372Y-12361984D02*
X13502324Y-12352460D01*
X13502324Y-12352460D02*
X13492801Y-12342936D01*
X13492801Y-12342936D02*
X13483277Y-12323888D01*
X13483277Y-12323888D02*
X13473753Y-12285793D01*
X13473753Y-12285793D02*
X13473753Y-12238174D01*
X13473753Y-12238174D02*
X13483277Y-12200079D01*
X13483277Y-12200079D02*
X13492801Y-12181031D01*
X13492801Y-12181031D02*
X13502324Y-12171508D01*
X13502324Y-12171508D02*
X13521372Y-12161984D01*
X13673753Y-12342936D02*
X13683277Y-12352460D01*
X13683277Y-12352460D02*
X13673753Y-12361984D01*
X13673753Y-12361984D02*
X13664229Y-12352460D01*
X13664229Y-12352460D02*
X13673753Y-12342936D01*
X13673753Y-12342936D02*
X13673753Y-12361984D01*
X13797562Y-12247698D02*
X13778515Y-12238174D01*
X13778515Y-12238174D02*
X13768991Y-12228650D01*
X13768991Y-12228650D02*
X13759467Y-12209603D01*
X13759467Y-12209603D02*
X13759467Y-12200079D01*
X13759467Y-12200079D02*
X13768991Y-12181031D01*
X13768991Y-12181031D02*
X13778515Y-12171508D01*
X13778515Y-12171508D02*
X13797562Y-12161984D01*
X13797562Y-12161984D02*
X13835658Y-12161984D01*
X13835658Y-12161984D02*
X13854705Y-12171508D01*
X13854705Y-12171508D02*
X13864229Y-12181031D01*
X13864229Y-12181031D02*
X13873753Y-12200079D01*
X13873753Y-12200079D02*
X13873753Y-12209603D01*
X13873753Y-12209603D02*
X13864229Y-12228650D01*
X13864229Y-12228650D02*
X13854705Y-12238174D01*
X13854705Y-12238174D02*
X13835658Y-12247698D01*
X13835658Y-12247698D02*
X13797562Y-12247698D01*
X13797562Y-12247698D02*
X13778515Y-12257222D01*
X13778515Y-12257222D02*
X13768991Y-12266746D01*
X13768991Y-12266746D02*
X13759467Y-12285793D01*
X13759467Y-12285793D02*
X13759467Y-12323888D01*
X13759467Y-12323888D02*
X13768991Y-12342936D01*
X13768991Y-12342936D02*
X13778515Y-12352460D01*
X13778515Y-12352460D02*
X13797562Y-12361984D01*
X13797562Y-12361984D02*
X13835658Y-12361984D01*
X13835658Y-12361984D02*
X13854705Y-12352460D01*
X13854705Y-12352460D02*
X13864229Y-12342936D01*
X13864229Y-12342936D02*
X13873753Y-12323888D01*
X13873753Y-12323888D02*
X13873753Y-12285793D01*
X13873753Y-12285793D02*
X13864229Y-12266746D01*
X13864229Y-12266746D02*
X13854705Y-12257222D01*
X13854705Y-12257222D02*
X13835658Y-12247698D01*
X13997562Y-12161984D02*
X14016610Y-12161984D01*
X14016610Y-12161984D02*
X14035658Y-12171508D01*
X14035658Y-12171508D02*
X14045182Y-12181031D01*
X14045182Y-12181031D02*
X14054705Y-12200079D01*
X14054705Y-12200079D02*
X14064229Y-12238174D01*
X14064229Y-12238174D02*
X14064229Y-12285793D01*
X14064229Y-12285793D02*
X14054705Y-12323888D01*
X14054705Y-12323888D02*
X14045182Y-12342936D01*
X14045182Y-12342936D02*
X14035658Y-12352460D01*
X14035658Y-12352460D02*
X14016610Y-12361984D01*
X14016610Y-12361984D02*
X13997562Y-12361984D01*
X13997562Y-12361984D02*
X13978515Y-12352460D01*
X13978515Y-12352460D02*
X13968991Y-12342936D01*
X13968991Y-12342936D02*
X13959467Y-12323888D01*
X13959467Y-12323888D02*
X13949943Y-12285793D01*
X13949943Y-12285793D02*
X13949943Y-12238174D01*
X13949943Y-12238174D02*
X13959467Y-12200079D01*
X13959467Y-12200079D02*
X13968991Y-12181031D01*
X13968991Y-12181031D02*
X13978515Y-12171508D01*
X13978515Y-12171508D02*
X13997562Y-12161984D01*
X14188039Y-12161984D02*
X14207086Y-12161984D01*
X14207086Y-12161984D02*
X14226134Y-12171508D01*
X14226134Y-12171508D02*
X14235658Y-12181031D01*
X14235658Y-12181031D02*
X14245182Y-12200079D01*
X14245182Y-12200079D02*
X14254705Y-12238174D01*
X14254705Y-12238174D02*
X14254705Y-12285793D01*
X14254705Y-12285793D02*
X14245182Y-12323888D01*
X14245182Y-12323888D02*
X14235658Y-12342936D01*
X14235658Y-12342936D02*
X14226134Y-12352460D01*
X14226134Y-12352460D02*
X14207086Y-12361984D01*
X14207086Y-12361984D02*
X14188039Y-12361984D01*
X14188039Y-12361984D02*
X14168991Y-12352460D01*
X14168991Y-12352460D02*
X14159467Y-12342936D01*
X14159467Y-12342936D02*
X14149943Y-12323888D01*
X14149943Y-12323888D02*
X14140420Y-12285793D01*
X14140420Y-12285793D02*
X14140420Y-12238174D01*
X14140420Y-12238174D02*
X14149943Y-12200079D01*
X14149943Y-12200079D02*
X14159467Y-12181031D01*
X14159467Y-12181031D02*
X14168991Y-12171508D01*
X14168991Y-12171508D02*
X14188039Y-12161984D01*
X14340420Y-12361984D02*
X14340420Y-12228650D01*
X14340420Y-12247698D02*
X14349943Y-12238174D01*
X14349943Y-12238174D02*
X14368991Y-12228650D01*
X14368991Y-12228650D02*
X14397563Y-12228650D01*
X14397563Y-12228650D02*
X14416610Y-12238174D01*
X14416610Y-12238174D02*
X14426134Y-12257222D01*
X14426134Y-12257222D02*
X14426134Y-12361984D01*
X14426134Y-12257222D02*
X14435658Y-12238174D01*
X14435658Y-12238174D02*
X14454705Y-12228650D01*
X14454705Y-12228650D02*
X14483277Y-12228650D01*
X14483277Y-12228650D02*
X14502324Y-12238174D01*
X14502324Y-12238174D02*
X14511848Y-12257222D01*
X14511848Y-12257222D02*
X14511848Y-12361984D01*
X14607086Y-12361984D02*
X14607086Y-12228650D01*
X14607086Y-12247698D02*
X14616610Y-12238174D01*
X14616610Y-12238174D02*
X14635658Y-12228650D01*
X14635658Y-12228650D02*
X14664229Y-12228650D01*
X14664229Y-12228650D02*
X14683277Y-12238174D01*
X14683277Y-12238174D02*
X14692801Y-12257222D01*
X14692801Y-12257222D02*
X14692801Y-12361984D01*
X14692801Y-12257222D02*
X14702324Y-12238174D01*
X14702324Y-12238174D02*
X14721372Y-12228650D01*
X14721372Y-12228650D02*
X14749943Y-12228650D01*
X14749943Y-12228650D02*
X14768991Y-12238174D01*
X14768991Y-12238174D02*
X14778515Y-12257222D01*
X14778515Y-12257222D02*
X14778515Y-12361984D01*
X15168991Y-12152460D02*
X14997563Y-12409603D01*
X15426134Y-12161984D02*
X15445182Y-12161984D01*
X15445182Y-12161984D02*
X15464229Y-12171508D01*
X15464229Y-12171508D02*
X15473753Y-12181031D01*
X15473753Y-12181031D02*
X15483277Y-12200079D01*
X15483277Y-12200079D02*
X15492801Y-12238174D01*
X15492801Y-12238174D02*
X15492801Y-12285793D01*
X15492801Y-12285793D02*
X15483277Y-12323888D01*
X15483277Y-12323888D02*
X15473753Y-12342936D01*
X15473753Y-12342936D02*
X15464229Y-12352460D01*
X15464229Y-12352460D02*
X15445182Y-12361984D01*
X15445182Y-12361984D02*
X15426134Y-12361984D01*
X15426134Y-12361984D02*
X15407086Y-12352460D01*
X15407086Y-12352460D02*
X15397563Y-12342936D01*
X15397563Y-12342936D02*
X15388039Y-12323888D01*
X15388039Y-12323888D02*
X15378515Y-12285793D01*
X15378515Y-12285793D02*
X15378515Y-12238174D01*
X15378515Y-12238174D02*
X15388039Y-12200079D01*
X15388039Y-12200079D02*
X15397563Y-12181031D01*
X15397563Y-12181031D02*
X15407086Y-12171508D01*
X15407086Y-12171508D02*
X15426134Y-12161984D01*
X15578515Y-12342936D02*
X15588039Y-12352460D01*
X15588039Y-12352460D02*
X15578515Y-12361984D01*
X15578515Y-12361984D02*
X15568991Y-12352460D01*
X15568991Y-12352460D02*
X15578515Y-12342936D01*
X15578515Y-12342936D02*
X15578515Y-12361984D01*
X15711848Y-12161984D02*
X15730896Y-12161984D01*
X15730896Y-12161984D02*
X15749944Y-12171508D01*
X15749944Y-12171508D02*
X15759467Y-12181031D01*
X15759467Y-12181031D02*
X15768991Y-12200079D01*
X15768991Y-12200079D02*
X15778515Y-12238174D01*
X15778515Y-12238174D02*
X15778515Y-12285793D01*
X15778515Y-12285793D02*
X15768991Y-12323888D01*
X15768991Y-12323888D02*
X15759467Y-12342936D01*
X15759467Y-12342936D02*
X15749944Y-12352460D01*
X15749944Y-12352460D02*
X15730896Y-12361984D01*
X15730896Y-12361984D02*
X15711848Y-12361984D01*
X15711848Y-12361984D02*
X15692801Y-12352460D01*
X15692801Y-12352460D02*
X15683277Y-12342936D01*
X15683277Y-12342936D02*
X15673753Y-12323888D01*
X15673753Y-12323888D02*
X15664229Y-12285793D01*
X15664229Y-12285793D02*
X15664229Y-12238174D01*
X15664229Y-12238174D02*
X15673753Y-12200079D01*
X15673753Y-12200079D02*
X15683277Y-12181031D01*
X15683277Y-12181031D02*
X15692801Y-12171508D01*
X15692801Y-12171508D02*
X15711848Y-12161984D01*
X15845182Y-12161984D02*
X15968991Y-12161984D01*
X15968991Y-12161984D02*
X15902325Y-12238174D01*
X15902325Y-12238174D02*
X15930896Y-12238174D01*
X15930896Y-12238174D02*
X15949944Y-12247698D01*
X15949944Y-12247698D02*
X15959467Y-12257222D01*
X15959467Y-12257222D02*
X15968991Y-12276269D01*
X15968991Y-12276269D02*
X15968991Y-12323888D01*
X15968991Y-12323888D02*
X15959467Y-12342936D01*
X15959467Y-12342936D02*
X15949944Y-12352460D01*
X15949944Y-12352460D02*
X15930896Y-12361984D01*
X15930896Y-12361984D02*
X15873753Y-12361984D01*
X15873753Y-12361984D02*
X15854706Y-12352460D01*
X15854706Y-12352460D02*
X15845182Y-12342936D01*
X16159467Y-12361984D02*
X16045182Y-12361984D01*
X16102325Y-12361984D02*
X16102325Y-12161984D01*
X16102325Y-12161984D02*
X16083277Y-12190555D01*
X16083277Y-12190555D02*
X16064229Y-12209603D01*
X16064229Y-12209603D02*
X16045182Y-12219127D01*
X16340420Y-12161984D02*
X16245182Y-12161984D01*
X16245182Y-12161984D02*
X16235658Y-12257222D01*
X16235658Y-12257222D02*
X16245182Y-12247698D01*
X16245182Y-12247698D02*
X16264229Y-12238174D01*
X16264229Y-12238174D02*
X16311848Y-12238174D01*
X16311848Y-12238174D02*
X16330896Y-12247698D01*
X16330896Y-12247698D02*
X16340420Y-12257222D01*
X16340420Y-12257222D02*
X16349944Y-12276269D01*
X16349944Y-12276269D02*
X16349944Y-12323888D01*
X16349944Y-12323888D02*
X16340420Y-12342936D01*
X16340420Y-12342936D02*
X16330896Y-12352460D01*
X16330896Y-12352460D02*
X16311848Y-12361984D01*
X16311848Y-12361984D02*
X16264229Y-12361984D01*
X16264229Y-12361984D02*
X16245182Y-12352460D01*
X16245182Y-12352460D02*
X16235658Y-12342936D01*
X16426134Y-12161984D02*
X16426134Y-12200079D01*
X16502325Y-12161984D02*
X16502325Y-12200079D01*
X16797563Y-12438174D02*
X16788039Y-12428650D01*
X16788039Y-12428650D02*
X16768991Y-12400079D01*
X16768991Y-12400079D02*
X16759468Y-12381031D01*
X16759468Y-12381031D02*
X16749944Y-12352460D01*
X16749944Y-12352460D02*
X16740420Y-12304841D01*
X16740420Y-12304841D02*
X16740420Y-12266746D01*
X16740420Y-12266746D02*
X16749944Y-12219127D01*
X16749944Y-12219127D02*
X16759468Y-12190555D01*
X16759468Y-12190555D02*
X16768991Y-12171508D01*
X16768991Y-12171508D02*
X16788039Y-12142936D01*
X16788039Y-12142936D02*
X16797563Y-12133412D01*
X16864230Y-12181031D02*
X16873753Y-12171508D01*
X16873753Y-12171508D02*
X16892801Y-12161984D01*
X16892801Y-12161984D02*
X16940420Y-12161984D01*
X16940420Y-12161984D02*
X16959468Y-12171508D01*
X16959468Y-12171508D02*
X16968991Y-12181031D01*
X16968991Y-12181031D02*
X16978515Y-12200079D01*
X16978515Y-12200079D02*
X16978515Y-12219127D01*
X16978515Y-12219127D02*
X16968991Y-12247698D01*
X16968991Y-12247698D02*
X16854706Y-12361984D01*
X16854706Y-12361984D02*
X16978515Y-12361984D01*
X17102325Y-12161984D02*
X17121372Y-12161984D01*
X17121372Y-12161984D02*
X17140420Y-12171508D01*
X17140420Y-12171508D02*
X17149944Y-12181031D01*
X17149944Y-12181031D02*
X17159468Y-12200079D01*
X17159468Y-12200079D02*
X17168991Y-12238174D01*
X17168991Y-12238174D02*
X17168991Y-12285793D01*
X17168991Y-12285793D02*
X17159468Y-12323888D01*
X17159468Y-12323888D02*
X17149944Y-12342936D01*
X17149944Y-12342936D02*
X17140420Y-12352460D01*
X17140420Y-12352460D02*
X17121372Y-12361984D01*
X17121372Y-12361984D02*
X17102325Y-12361984D01*
X17102325Y-12361984D02*
X17083277Y-12352460D01*
X17083277Y-12352460D02*
X17073753Y-12342936D01*
X17073753Y-12342936D02*
X17064230Y-12323888D01*
X17064230Y-12323888D02*
X17054706Y-12285793D01*
X17054706Y-12285793D02*
X17054706Y-12238174D01*
X17054706Y-12238174D02*
X17064230Y-12200079D01*
X17064230Y-12200079D02*
X17073753Y-12181031D01*
X17073753Y-12181031D02*
X17083277Y-12171508D01*
X17083277Y-12171508D02*
X17102325Y-12161984D01*
X17407087Y-12361984D02*
X17407087Y-12161984D01*
X17492801Y-12361984D02*
X17492801Y-12257222D01*
X17492801Y-12257222D02*
X17483277Y-12238174D01*
X17483277Y-12238174D02*
X17464230Y-12228650D01*
X17464230Y-12228650D02*
X17435658Y-12228650D01*
X17435658Y-12228650D02*
X17416611Y-12238174D01*
X17416611Y-12238174D02*
X17407087Y-12247698D01*
X17616611Y-12361984D02*
X17597563Y-12352460D01*
X17597563Y-12352460D02*
X17588039Y-12342936D01*
X17588039Y-12342936D02*
X17578515Y-12323888D01*
X17578515Y-12323888D02*
X17578515Y-12266746D01*
X17578515Y-12266746D02*
X17588039Y-12247698D01*
X17588039Y-12247698D02*
X17597563Y-12238174D01*
X17597563Y-12238174D02*
X17616611Y-12228650D01*
X17616611Y-12228650D02*
X17645182Y-12228650D01*
X17645182Y-12228650D02*
X17664230Y-12238174D01*
X17664230Y-12238174D02*
X17673753Y-12247698D01*
X17673753Y-12247698D02*
X17683277Y-12266746D01*
X17683277Y-12266746D02*
X17683277Y-12323888D01*
X17683277Y-12323888D02*
X17673753Y-12342936D01*
X17673753Y-12342936D02*
X17664230Y-12352460D01*
X17664230Y-12352460D02*
X17645182Y-12361984D01*
X17645182Y-12361984D02*
X17616611Y-12361984D01*
X17797563Y-12361984D02*
X17778515Y-12352460D01*
X17778515Y-12352460D02*
X17768992Y-12333412D01*
X17768992Y-12333412D02*
X17768992Y-12161984D01*
X17949944Y-12352460D02*
X17930896Y-12361984D01*
X17930896Y-12361984D02*
X17892801Y-12361984D01*
X17892801Y-12361984D02*
X17873753Y-12352460D01*
X17873753Y-12352460D02*
X17864230Y-12333412D01*
X17864230Y-12333412D02*
X17864230Y-12257222D01*
X17864230Y-12257222D02*
X17873753Y-12238174D01*
X17873753Y-12238174D02*
X17892801Y-12228650D01*
X17892801Y-12228650D02*
X17930896Y-12228650D01*
X17930896Y-12228650D02*
X17949944Y-12238174D01*
X17949944Y-12238174D02*
X17959468Y-12257222D01*
X17959468Y-12257222D02*
X17959468Y-12276269D01*
X17959468Y-12276269D02*
X17864230Y-12295317D01*
X18035658Y-12352460D02*
X18054706Y-12361984D01*
X18054706Y-12361984D02*
X18092801Y-12361984D01*
X18092801Y-12361984D02*
X18111849Y-12352460D01*
X18111849Y-12352460D02*
X18121373Y-12333412D01*
X18121373Y-12333412D02*
X18121373Y-12323888D01*
X18121373Y-12323888D02*
X18111849Y-12304841D01*
X18111849Y-12304841D02*
X18092801Y-12295317D01*
X18092801Y-12295317D02*
X18064230Y-12295317D01*
X18064230Y-12295317D02*
X18045182Y-12285793D01*
X18045182Y-12285793D02*
X18035658Y-12266746D01*
X18035658Y-12266746D02*
X18035658Y-12257222D01*
X18035658Y-12257222D02*
X18045182Y-12238174D01*
X18045182Y-12238174D02*
X18064230Y-12228650D01*
X18064230Y-12228650D02*
X18092801Y-12228650D01*
X18092801Y-12228650D02*
X18111849Y-12238174D01*
X18188039Y-12438174D02*
X18197563Y-12428650D01*
X18197563Y-12428650D02*
X18216611Y-12400079D01*
X18216611Y-12400079D02*
X18226134Y-12381031D01*
X18226134Y-12381031D02*
X18235658Y-12352460D01*
X18235658Y-12352460D02*
X18245182Y-12304841D01*
X18245182Y-12304841D02*
X18245182Y-12266746D01*
X18245182Y-12266746D02*
X18235658Y-12219127D01*
X18235658Y-12219127D02*
X18226134Y-12190555D01*
X18226134Y-12190555D02*
X18216611Y-12171508D01*
X18216611Y-12171508D02*
X18197563Y-12142936D01*
X18197563Y-12142936D02*
X18188039Y-12133412D01*
D13*
X13200241Y-12588241D02*
X13200241Y-12480759D01*
X13092759Y-12480759D01*
X13092759Y-12588241D01*
X13200241Y-12588241D01*
D11*
X13588039Y-12625984D02*
X13473753Y-12625984D01*
X13530896Y-12625984D02*
X13530896Y-12425984D01*
X13530896Y-12425984D02*
X13511848Y-12454555D01*
X13511848Y-12454555D02*
X13492801Y-12473603D01*
X13492801Y-12473603D02*
X13473753Y-12483127D01*
X13673753Y-12606936D02*
X13683277Y-12616460D01*
X13683277Y-12616460D02*
X13673753Y-12625984D01*
X13673753Y-12625984D02*
X13664229Y-12616460D01*
X13664229Y-12616460D02*
X13673753Y-12606936D01*
X13673753Y-12606936D02*
X13673753Y-12625984D01*
X13864229Y-12425984D02*
X13768991Y-12425984D01*
X13768991Y-12425984D02*
X13759467Y-12521222D01*
X13759467Y-12521222D02*
X13768991Y-12511698D01*
X13768991Y-12511698D02*
X13788039Y-12502174D01*
X13788039Y-12502174D02*
X13835658Y-12502174D01*
X13835658Y-12502174D02*
X13854705Y-12511698D01*
X13854705Y-12511698D02*
X13864229Y-12521222D01*
X13864229Y-12521222D02*
X13873753Y-12540269D01*
X13873753Y-12540269D02*
X13873753Y-12587888D01*
X13873753Y-12587888D02*
X13864229Y-12606936D01*
X13864229Y-12606936D02*
X13854705Y-12616460D01*
X13854705Y-12616460D02*
X13835658Y-12625984D01*
X13835658Y-12625984D02*
X13788039Y-12625984D01*
X13788039Y-12625984D02*
X13768991Y-12616460D01*
X13768991Y-12616460D02*
X13759467Y-12606936D01*
X13949943Y-12445031D02*
X13959467Y-12435508D01*
X13959467Y-12435508D02*
X13978515Y-12425984D01*
X13978515Y-12425984D02*
X14026134Y-12425984D01*
X14026134Y-12425984D02*
X14045182Y-12435508D01*
X14045182Y-12435508D02*
X14054705Y-12445031D01*
X14054705Y-12445031D02*
X14064229Y-12464079D01*
X14064229Y-12464079D02*
X14064229Y-12483127D01*
X14064229Y-12483127D02*
X14054705Y-12511698D01*
X14054705Y-12511698D02*
X13940420Y-12625984D01*
X13940420Y-12625984D02*
X14064229Y-12625984D01*
X14188039Y-12425984D02*
X14207086Y-12425984D01*
X14207086Y-12425984D02*
X14226134Y-12435508D01*
X14226134Y-12435508D02*
X14235658Y-12445031D01*
X14235658Y-12445031D02*
X14245182Y-12464079D01*
X14245182Y-12464079D02*
X14254705Y-12502174D01*
X14254705Y-12502174D02*
X14254705Y-12549793D01*
X14254705Y-12549793D02*
X14245182Y-12587888D01*
X14245182Y-12587888D02*
X14235658Y-12606936D01*
X14235658Y-12606936D02*
X14226134Y-12616460D01*
X14226134Y-12616460D02*
X14207086Y-12625984D01*
X14207086Y-12625984D02*
X14188039Y-12625984D01*
X14188039Y-12625984D02*
X14168991Y-12616460D01*
X14168991Y-12616460D02*
X14159467Y-12606936D01*
X14159467Y-12606936D02*
X14149943Y-12587888D01*
X14149943Y-12587888D02*
X14140420Y-12549793D01*
X14140420Y-12549793D02*
X14140420Y-12502174D01*
X14140420Y-12502174D02*
X14149943Y-12464079D01*
X14149943Y-12464079D02*
X14159467Y-12445031D01*
X14159467Y-12445031D02*
X14168991Y-12435508D01*
X14168991Y-12435508D02*
X14188039Y-12425984D01*
X14340420Y-12625984D02*
X14340420Y-12492650D01*
X14340420Y-12511698D02*
X14349943Y-12502174D01*
X14349943Y-12502174D02*
X14368991Y-12492650D01*
X14368991Y-12492650D02*
X14397563Y-12492650D01*
X14397563Y-12492650D02*
X14416610Y-12502174D01*
X14416610Y-12502174D02*
X14426134Y-12521222D01*
X14426134Y-12521222D02*
X14426134Y-12625984D01*
X14426134Y-12521222D02*
X14435658Y-12502174D01*
X14435658Y-12502174D02*
X14454705Y-12492650D01*
X14454705Y-12492650D02*
X14483277Y-12492650D01*
X14483277Y-12492650D02*
X14502324Y-12502174D01*
X14502324Y-12502174D02*
X14511848Y-12521222D01*
X14511848Y-12521222D02*
X14511848Y-12625984D01*
X14607086Y-12625984D02*
X14607086Y-12492650D01*
X14607086Y-12511698D02*
X14616610Y-12502174D01*
X14616610Y-12502174D02*
X14635658Y-12492650D01*
X14635658Y-12492650D02*
X14664229Y-12492650D01*
X14664229Y-12492650D02*
X14683277Y-12502174D01*
X14683277Y-12502174D02*
X14692801Y-12521222D01*
X14692801Y-12521222D02*
X14692801Y-12625984D01*
X14692801Y-12521222D02*
X14702324Y-12502174D01*
X14702324Y-12502174D02*
X14721372Y-12492650D01*
X14721372Y-12492650D02*
X14749943Y-12492650D01*
X14749943Y-12492650D02*
X14768991Y-12502174D01*
X14768991Y-12502174D02*
X14778515Y-12521222D01*
X14778515Y-12521222D02*
X14778515Y-12625984D01*
X15168991Y-12416460D02*
X14997563Y-12673603D01*
X15426134Y-12425984D02*
X15445182Y-12425984D01*
X15445182Y-12425984D02*
X15464229Y-12435508D01*
X15464229Y-12435508D02*
X15473753Y-12445031D01*
X15473753Y-12445031D02*
X15483277Y-12464079D01*
X15483277Y-12464079D02*
X15492801Y-12502174D01*
X15492801Y-12502174D02*
X15492801Y-12549793D01*
X15492801Y-12549793D02*
X15483277Y-12587888D01*
X15483277Y-12587888D02*
X15473753Y-12606936D01*
X15473753Y-12606936D02*
X15464229Y-12616460D01*
X15464229Y-12616460D02*
X15445182Y-12625984D01*
X15445182Y-12625984D02*
X15426134Y-12625984D01*
X15426134Y-12625984D02*
X15407086Y-12616460D01*
X15407086Y-12616460D02*
X15397563Y-12606936D01*
X15397563Y-12606936D02*
X15388039Y-12587888D01*
X15388039Y-12587888D02*
X15378515Y-12549793D01*
X15378515Y-12549793D02*
X15378515Y-12502174D01*
X15378515Y-12502174D02*
X15388039Y-12464079D01*
X15388039Y-12464079D02*
X15397563Y-12445031D01*
X15397563Y-12445031D02*
X15407086Y-12435508D01*
X15407086Y-12435508D02*
X15426134Y-12425984D01*
X15578515Y-12606936D02*
X15588039Y-12616460D01*
X15588039Y-12616460D02*
X15578515Y-12625984D01*
X15578515Y-12625984D02*
X15568991Y-12616460D01*
X15568991Y-12616460D02*
X15578515Y-12606936D01*
X15578515Y-12606936D02*
X15578515Y-12625984D01*
X15711848Y-12425984D02*
X15730896Y-12425984D01*
X15730896Y-12425984D02*
X15749944Y-12435508D01*
X15749944Y-12435508D02*
X15759467Y-12445031D01*
X15759467Y-12445031D02*
X15768991Y-12464079D01*
X15768991Y-12464079D02*
X15778515Y-12502174D01*
X15778515Y-12502174D02*
X15778515Y-12549793D01*
X15778515Y-12549793D02*
X15768991Y-12587888D01*
X15768991Y-12587888D02*
X15759467Y-12606936D01*
X15759467Y-12606936D02*
X15749944Y-12616460D01*
X15749944Y-12616460D02*
X15730896Y-12625984D01*
X15730896Y-12625984D02*
X15711848Y-12625984D01*
X15711848Y-12625984D02*
X15692801Y-12616460D01*
X15692801Y-12616460D02*
X15683277Y-12606936D01*
X15683277Y-12606936D02*
X15673753Y-12587888D01*
X15673753Y-12587888D02*
X15664229Y-12549793D01*
X15664229Y-12549793D02*
X15664229Y-12502174D01*
X15664229Y-12502174D02*
X15673753Y-12464079D01*
X15673753Y-12464079D02*
X15683277Y-12445031D01*
X15683277Y-12445031D02*
X15692801Y-12435508D01*
X15692801Y-12435508D02*
X15711848Y-12425984D01*
X15959467Y-12425984D02*
X15864229Y-12425984D01*
X15864229Y-12425984D02*
X15854706Y-12521222D01*
X15854706Y-12521222D02*
X15864229Y-12511698D01*
X15864229Y-12511698D02*
X15883277Y-12502174D01*
X15883277Y-12502174D02*
X15930896Y-12502174D01*
X15930896Y-12502174D02*
X15949944Y-12511698D01*
X15949944Y-12511698D02*
X15959467Y-12521222D01*
X15959467Y-12521222D02*
X15968991Y-12540269D01*
X15968991Y-12540269D02*
X15968991Y-12587888D01*
X15968991Y-12587888D02*
X15959467Y-12606936D01*
X15959467Y-12606936D02*
X15949944Y-12616460D01*
X15949944Y-12616460D02*
X15930896Y-12625984D01*
X15930896Y-12625984D02*
X15883277Y-12625984D01*
X15883277Y-12625984D02*
X15864229Y-12616460D01*
X15864229Y-12616460D02*
X15854706Y-12606936D01*
X16064229Y-12625984D02*
X16102325Y-12625984D01*
X16102325Y-12625984D02*
X16121372Y-12616460D01*
X16121372Y-12616460D02*
X16130896Y-12606936D01*
X16130896Y-12606936D02*
X16149944Y-12578365D01*
X16149944Y-12578365D02*
X16159467Y-12540269D01*
X16159467Y-12540269D02*
X16159467Y-12464079D01*
X16159467Y-12464079D02*
X16149944Y-12445031D01*
X16149944Y-12445031D02*
X16140420Y-12435508D01*
X16140420Y-12435508D02*
X16121372Y-12425984D01*
X16121372Y-12425984D02*
X16083277Y-12425984D01*
X16083277Y-12425984D02*
X16064229Y-12435508D01*
X16064229Y-12435508D02*
X16054706Y-12445031D01*
X16054706Y-12445031D02*
X16045182Y-12464079D01*
X16045182Y-12464079D02*
X16045182Y-12511698D01*
X16045182Y-12511698D02*
X16054706Y-12530746D01*
X16054706Y-12530746D02*
X16064229Y-12540269D01*
X16064229Y-12540269D02*
X16083277Y-12549793D01*
X16083277Y-12549793D02*
X16121372Y-12549793D01*
X16121372Y-12549793D02*
X16140420Y-12540269D01*
X16140420Y-12540269D02*
X16149944Y-12530746D01*
X16149944Y-12530746D02*
X16159467Y-12511698D01*
X16273753Y-12511698D02*
X16254706Y-12502174D01*
X16254706Y-12502174D02*
X16245182Y-12492650D01*
X16245182Y-12492650D02*
X16235658Y-12473603D01*
X16235658Y-12473603D02*
X16235658Y-12464079D01*
X16235658Y-12464079D02*
X16245182Y-12445031D01*
X16245182Y-12445031D02*
X16254706Y-12435508D01*
X16254706Y-12435508D02*
X16273753Y-12425984D01*
X16273753Y-12425984D02*
X16311848Y-12425984D01*
X16311848Y-12425984D02*
X16330896Y-12435508D01*
X16330896Y-12435508D02*
X16340420Y-12445031D01*
X16340420Y-12445031D02*
X16349944Y-12464079D01*
X16349944Y-12464079D02*
X16349944Y-12473603D01*
X16349944Y-12473603D02*
X16340420Y-12492650D01*
X16340420Y-12492650D02*
X16330896Y-12502174D01*
X16330896Y-12502174D02*
X16311848Y-12511698D01*
X16311848Y-12511698D02*
X16273753Y-12511698D01*
X16273753Y-12511698D02*
X16254706Y-12521222D01*
X16254706Y-12521222D02*
X16245182Y-12530746D01*
X16245182Y-12530746D02*
X16235658Y-12549793D01*
X16235658Y-12549793D02*
X16235658Y-12587888D01*
X16235658Y-12587888D02*
X16245182Y-12606936D01*
X16245182Y-12606936D02*
X16254706Y-12616460D01*
X16254706Y-12616460D02*
X16273753Y-12625984D01*
X16273753Y-12625984D02*
X16311848Y-12625984D01*
X16311848Y-12625984D02*
X16330896Y-12616460D01*
X16330896Y-12616460D02*
X16340420Y-12606936D01*
X16340420Y-12606936D02*
X16349944Y-12587888D01*
X16349944Y-12587888D02*
X16349944Y-12549793D01*
X16349944Y-12549793D02*
X16340420Y-12530746D01*
X16340420Y-12530746D02*
X16330896Y-12521222D01*
X16330896Y-12521222D02*
X16311848Y-12511698D01*
X16426134Y-12425984D02*
X16426134Y-12464079D01*
X16502325Y-12425984D02*
X16502325Y-12464079D01*
X16797563Y-12702174D02*
X16788039Y-12692650D01*
X16788039Y-12692650D02*
X16768991Y-12664079D01*
X16768991Y-12664079D02*
X16759468Y-12645031D01*
X16759468Y-12645031D02*
X16749944Y-12616460D01*
X16749944Y-12616460D02*
X16740420Y-12568841D01*
X16740420Y-12568841D02*
X16740420Y-12530746D01*
X16740420Y-12530746D02*
X16749944Y-12483127D01*
X16749944Y-12483127D02*
X16759468Y-12454555D01*
X16759468Y-12454555D02*
X16768991Y-12435508D01*
X16768991Y-12435508D02*
X16788039Y-12406936D01*
X16788039Y-12406936D02*
X16797563Y-12397412D01*
X16902325Y-12511698D02*
X16883277Y-12502174D01*
X16883277Y-12502174D02*
X16873753Y-12492650D01*
X16873753Y-12492650D02*
X16864230Y-12473603D01*
X16864230Y-12473603D02*
X16864230Y-12464079D01*
X16864230Y-12464079D02*
X16873753Y-12445031D01*
X16873753Y-12445031D02*
X16883277Y-12435508D01*
X16883277Y-12435508D02*
X16902325Y-12425984D01*
X16902325Y-12425984D02*
X16940420Y-12425984D01*
X16940420Y-12425984D02*
X16959468Y-12435508D01*
X16959468Y-12435508D02*
X16968991Y-12445031D01*
X16968991Y-12445031D02*
X16978515Y-12464079D01*
X16978515Y-12464079D02*
X16978515Y-12473603D01*
X16978515Y-12473603D02*
X16968991Y-12492650D01*
X16968991Y-12492650D02*
X16959468Y-12502174D01*
X16959468Y-12502174D02*
X16940420Y-12511698D01*
X16940420Y-12511698D02*
X16902325Y-12511698D01*
X16902325Y-12511698D02*
X16883277Y-12521222D01*
X16883277Y-12521222D02*
X16873753Y-12530746D01*
X16873753Y-12530746D02*
X16864230Y-12549793D01*
X16864230Y-12549793D02*
X16864230Y-12587888D01*
X16864230Y-12587888D02*
X16873753Y-12606936D01*
X16873753Y-12606936D02*
X16883277Y-12616460D01*
X16883277Y-12616460D02*
X16902325Y-12625984D01*
X16902325Y-12625984D02*
X16940420Y-12625984D01*
X16940420Y-12625984D02*
X16959468Y-12616460D01*
X16959468Y-12616460D02*
X16968991Y-12606936D01*
X16968991Y-12606936D02*
X16978515Y-12587888D01*
X16978515Y-12587888D02*
X16978515Y-12549793D01*
X16978515Y-12549793D02*
X16968991Y-12530746D01*
X16968991Y-12530746D02*
X16959468Y-12521222D01*
X16959468Y-12521222D02*
X16940420Y-12511698D01*
X17216611Y-12625984D02*
X17216611Y-12425984D01*
X17302325Y-12625984D02*
X17302325Y-12521222D01*
X17302325Y-12521222D02*
X17292801Y-12502174D01*
X17292801Y-12502174D02*
X17273753Y-12492650D01*
X17273753Y-12492650D02*
X17245182Y-12492650D01*
X17245182Y-12492650D02*
X17226134Y-12502174D01*
X17226134Y-12502174D02*
X17216611Y-12511698D01*
X17426134Y-12625984D02*
X17407087Y-12616460D01*
X17407087Y-12616460D02*
X17397563Y-12606936D01*
X17397563Y-12606936D02*
X17388039Y-12587888D01*
X17388039Y-12587888D02*
X17388039Y-12530746D01*
X17388039Y-12530746D02*
X17397563Y-12511698D01*
X17397563Y-12511698D02*
X17407087Y-12502174D01*
X17407087Y-12502174D02*
X17426134Y-12492650D01*
X17426134Y-12492650D02*
X17454706Y-12492650D01*
X17454706Y-12492650D02*
X17473753Y-12502174D01*
X17473753Y-12502174D02*
X17483277Y-12511698D01*
X17483277Y-12511698D02*
X17492801Y-12530746D01*
X17492801Y-12530746D02*
X17492801Y-12587888D01*
X17492801Y-12587888D02*
X17483277Y-12606936D01*
X17483277Y-12606936D02*
X17473753Y-12616460D01*
X17473753Y-12616460D02*
X17454706Y-12625984D01*
X17454706Y-12625984D02*
X17426134Y-12625984D01*
X17607087Y-12625984D02*
X17588039Y-12616460D01*
X17588039Y-12616460D02*
X17578515Y-12597412D01*
X17578515Y-12597412D02*
X17578515Y-12425984D01*
X17759468Y-12616460D02*
X17740420Y-12625984D01*
X17740420Y-12625984D02*
X17702325Y-12625984D01*
X17702325Y-12625984D02*
X17683277Y-12616460D01*
X17683277Y-12616460D02*
X17673753Y-12597412D01*
X17673753Y-12597412D02*
X17673753Y-12521222D01*
X17673753Y-12521222D02*
X17683277Y-12502174D01*
X17683277Y-12502174D02*
X17702325Y-12492650D01*
X17702325Y-12492650D02*
X17740420Y-12492650D01*
X17740420Y-12492650D02*
X17759468Y-12502174D01*
X17759468Y-12502174D02*
X17768992Y-12521222D01*
X17768992Y-12521222D02*
X17768992Y-12540269D01*
X17768992Y-12540269D02*
X17673753Y-12559317D01*
X17845182Y-12616460D02*
X17864230Y-12625984D01*
X17864230Y-12625984D02*
X17902325Y-12625984D01*
X17902325Y-12625984D02*
X17921373Y-12616460D01*
X17921373Y-12616460D02*
X17930896Y-12597412D01*
X17930896Y-12597412D02*
X17930896Y-12587888D01*
X17930896Y-12587888D02*
X17921373Y-12568841D01*
X17921373Y-12568841D02*
X17902325Y-12559317D01*
X17902325Y-12559317D02*
X17873753Y-12559317D01*
X17873753Y-12559317D02*
X17854706Y-12549793D01*
X17854706Y-12549793D02*
X17845182Y-12530746D01*
X17845182Y-12530746D02*
X17845182Y-12521222D01*
X17845182Y-12521222D02*
X17854706Y-12502174D01*
X17854706Y-12502174D02*
X17873753Y-12492650D01*
X17873753Y-12492650D02*
X17902325Y-12492650D01*
X17902325Y-12492650D02*
X17921373Y-12502174D01*
X17997563Y-12702174D02*
X18007087Y-12692650D01*
X18007087Y-12692650D02*
X18026134Y-12664079D01*
X18026134Y-12664079D02*
X18035658Y-12645031D01*
X18035658Y-12645031D02*
X18045182Y-12616460D01*
X18045182Y-12616460D02*
X18054706Y-12568841D01*
X18054706Y-12568841D02*
X18054706Y-12530746D01*
X18054706Y-12530746D02*
X18045182Y-12483127D01*
X18045182Y-12483127D02*
X18035658Y-12454555D01*
X18035658Y-12454555D02*
X18026134Y-12435508D01*
X18026134Y-12435508D02*
X18007087Y-12406936D01*
X18007087Y-12406936D02*
X17997563Y-12397412D01*
M02*
