G04 #@! TF.GenerationSoftware,KiCad,Pcbnew,9.0.5-9.0.5~ubuntu25.04.1*
G04 #@! TF.CreationDate,2025-12-03T04:11:04-06:00*
G04 #@! TF.ProjectId,Return_Board,52657475-726e-45f4-926f-6172642e6b69,rev?*
G04 #@! TF.SameCoordinates,Original*
G04 #@! TF.FileFunction,Legend,Top*
G04 #@! TF.FilePolarity,Positive*
%FSLAX46Y46*%
G04 Gerber Fmt 4.6, Leading zero omitted, Abs format (unit mm)*
G04 Created by KiCad (PCBNEW 9.0.5-9.0.5~ubuntu25.04.1) date 2025-12-03 04:11:04*
%MOMM*%
%LPD*%
G01*
G04 APERTURE LIST*
G04 Aperture macros list*
%AMRoundRect*
0 Rectangle with rounded corners*
0 $1 Rounding radius*
0 $2 $3 $4 $5 $6 $7 $8 $9 X,Y pos of 4 corners*
0 Add a 4 corners polygon primitive as box body*
4,1,4,$2,$3,$4,$5,$6,$7,$8,$9,$2,$3,0*
0 Add four circle primitives for the rounded corners*
1,1,$1+$1,$2,$3*
1,1,$1+$1,$4,$5*
1,1,$1+$1,$6,$7*
1,1,$1+$1,$8,$9*
0 Add four rect primitives between the rounded corners*
20,1,$1+$1,$2,$3,$4,$5,0*
20,1,$1+$1,$4,$5,$6,$7,0*
20,1,$1+$1,$6,$7,$8,$9,0*
20,1,$1+$1,$8,$9,$2,$3,0*%
G04 Aperture macros list end*
%ADD10C,0.100000*%
%ADD11C,0.150000*%
%ADD12C,0.120000*%
%ADD13R,3.000000X3.000000*%
%ADD14C,3.000000*%
%ADD15C,1.600000*%
%ADD16O,1.600000X1.600000*%
%ADD17R,2.400000X1.600000*%
%ADD18O,2.400000X1.600000*%
%ADD19C,1.400000*%
%ADD20O,1.400000X1.400000*%
%ADD21C,2.000000*%
%ADD22RoundRect,0.262500X-0.262500X-0.487500X0.262500X-0.487500X0.262500X0.487500X-0.262500X0.487500X0*%
%ADD23R,1.050000X1.500000*%
G04 APERTURE END LIST*
D10*
X142077693Y-90340206D02*
X141982455Y-90292587D01*
X141982455Y-90292587D02*
X141839598Y-90292587D01*
X141839598Y-90292587D02*
X141696741Y-90340206D01*
X141696741Y-90340206D02*
X141601503Y-90435444D01*
X141601503Y-90435444D02*
X141553884Y-90530682D01*
X141553884Y-90530682D02*
X141506265Y-90721158D01*
X141506265Y-90721158D02*
X141506265Y-90864015D01*
X141506265Y-90864015D02*
X141553884Y-91054491D01*
X141553884Y-91054491D02*
X141601503Y-91149729D01*
X141601503Y-91149729D02*
X141696741Y-91244968D01*
X141696741Y-91244968D02*
X141839598Y-91292587D01*
X141839598Y-91292587D02*
X141934836Y-91292587D01*
X141934836Y-91292587D02*
X142077693Y-91244968D01*
X142077693Y-91244968D02*
X142125312Y-91197348D01*
X142125312Y-91197348D02*
X142125312Y-90864015D01*
X142125312Y-90864015D02*
X141934836Y-90864015D01*
X142553884Y-91292587D02*
X142553884Y-90625920D01*
X142553884Y-90816396D02*
X142601503Y-90721158D01*
X142601503Y-90721158D02*
X142649122Y-90673539D01*
X142649122Y-90673539D02*
X142744360Y-90625920D01*
X142744360Y-90625920D02*
X142839598Y-90625920D01*
X143315789Y-91292587D02*
X143220551Y-91244968D01*
X143220551Y-91244968D02*
X143172932Y-91197348D01*
X143172932Y-91197348D02*
X143125313Y-91102110D01*
X143125313Y-91102110D02*
X143125313Y-90816396D01*
X143125313Y-90816396D02*
X143172932Y-90721158D01*
X143172932Y-90721158D02*
X143220551Y-90673539D01*
X143220551Y-90673539D02*
X143315789Y-90625920D01*
X143315789Y-90625920D02*
X143458646Y-90625920D01*
X143458646Y-90625920D02*
X143553884Y-90673539D01*
X143553884Y-90673539D02*
X143601503Y-90721158D01*
X143601503Y-90721158D02*
X143649122Y-90816396D01*
X143649122Y-90816396D02*
X143649122Y-91102110D01*
X143649122Y-91102110D02*
X143601503Y-91197348D01*
X143601503Y-91197348D02*
X143553884Y-91244968D01*
X143553884Y-91244968D02*
X143458646Y-91292587D01*
X143458646Y-91292587D02*
X143315789Y-91292587D01*
X144506265Y-90625920D02*
X144506265Y-91292587D01*
X144077694Y-90625920D02*
X144077694Y-91149729D01*
X144077694Y-91149729D02*
X144125313Y-91244968D01*
X144125313Y-91244968D02*
X144220551Y-91292587D01*
X144220551Y-91292587D02*
X144363408Y-91292587D01*
X144363408Y-91292587D02*
X144458646Y-91244968D01*
X144458646Y-91244968D02*
X144506265Y-91197348D01*
X144982456Y-90625920D02*
X144982456Y-91292587D01*
X144982456Y-90721158D02*
X145030075Y-90673539D01*
X145030075Y-90673539D02*
X145125313Y-90625920D01*
X145125313Y-90625920D02*
X145268170Y-90625920D01*
X145268170Y-90625920D02*
X145363408Y-90673539D01*
X145363408Y-90673539D02*
X145411027Y-90768777D01*
X145411027Y-90768777D02*
X145411027Y-91292587D01*
X146315789Y-91292587D02*
X146315789Y-90292587D01*
X146315789Y-91244968D02*
X146220551Y-91292587D01*
X146220551Y-91292587D02*
X146030075Y-91292587D01*
X146030075Y-91292587D02*
X145934837Y-91244968D01*
X145934837Y-91244968D02*
X145887218Y-91197348D01*
X145887218Y-91197348D02*
X145839599Y-91102110D01*
X145839599Y-91102110D02*
X145839599Y-90816396D01*
X145839599Y-90816396D02*
X145887218Y-90721158D01*
X145887218Y-90721158D02*
X145934837Y-90673539D01*
X145934837Y-90673539D02*
X146030075Y-90625920D01*
X146030075Y-90625920D02*
X146220551Y-90625920D01*
X146220551Y-90625920D02*
X146315789Y-90673539D01*
X147553885Y-91292587D02*
X147553885Y-90292587D01*
X147553885Y-90292587D02*
X148125313Y-91292587D01*
X148125313Y-91292587D02*
X148125313Y-90292587D01*
X148744361Y-91292587D02*
X148649123Y-91244968D01*
X148649123Y-91244968D02*
X148601504Y-91197348D01*
X148601504Y-91197348D02*
X148553885Y-91102110D01*
X148553885Y-91102110D02*
X148553885Y-90816396D01*
X148553885Y-90816396D02*
X148601504Y-90721158D01*
X148601504Y-90721158D02*
X148649123Y-90673539D01*
X148649123Y-90673539D02*
X148744361Y-90625920D01*
X148744361Y-90625920D02*
X148887218Y-90625920D01*
X148887218Y-90625920D02*
X148982456Y-90673539D01*
X148982456Y-90673539D02*
X149030075Y-90721158D01*
X149030075Y-90721158D02*
X149077694Y-90816396D01*
X149077694Y-90816396D02*
X149077694Y-91102110D01*
X149077694Y-91102110D02*
X149030075Y-91197348D01*
X149030075Y-91197348D02*
X148982456Y-91244968D01*
X148982456Y-91244968D02*
X148887218Y-91292587D01*
X148887218Y-91292587D02*
X148744361Y-91292587D01*
X149506266Y-91292587D02*
X149506266Y-90625920D01*
X149506266Y-90292587D02*
X149458647Y-90340206D01*
X149458647Y-90340206D02*
X149506266Y-90387825D01*
X149506266Y-90387825D02*
X149553885Y-90340206D01*
X149553885Y-90340206D02*
X149506266Y-90292587D01*
X149506266Y-90292587D02*
X149506266Y-90387825D01*
X149934837Y-91244968D02*
X150030075Y-91292587D01*
X150030075Y-91292587D02*
X150220551Y-91292587D01*
X150220551Y-91292587D02*
X150315789Y-91244968D01*
X150315789Y-91244968D02*
X150363408Y-91149729D01*
X150363408Y-91149729D02*
X150363408Y-91102110D01*
X150363408Y-91102110D02*
X150315789Y-91006872D01*
X150315789Y-91006872D02*
X150220551Y-90959253D01*
X150220551Y-90959253D02*
X150077694Y-90959253D01*
X150077694Y-90959253D02*
X149982456Y-90911634D01*
X149982456Y-90911634D02*
X149934837Y-90816396D01*
X149934837Y-90816396D02*
X149934837Y-90768777D01*
X149934837Y-90768777D02*
X149982456Y-90673539D01*
X149982456Y-90673539D02*
X150077694Y-90625920D01*
X150077694Y-90625920D02*
X150220551Y-90625920D01*
X150220551Y-90625920D02*
X150315789Y-90673539D01*
X151172932Y-91244968D02*
X151077694Y-91292587D01*
X151077694Y-91292587D02*
X150887218Y-91292587D01*
X150887218Y-91292587D02*
X150791980Y-91244968D01*
X150791980Y-91244968D02*
X150744361Y-91149729D01*
X150744361Y-91149729D02*
X150744361Y-90768777D01*
X150744361Y-90768777D02*
X150791980Y-90673539D01*
X150791980Y-90673539D02*
X150887218Y-90625920D01*
X150887218Y-90625920D02*
X151077694Y-90625920D01*
X151077694Y-90625920D02*
X151172932Y-90673539D01*
X151172932Y-90673539D02*
X151220551Y-90768777D01*
X151220551Y-90768777D02*
X151220551Y-90864015D01*
X151220551Y-90864015D02*
X150744361Y-90959253D01*
X152887218Y-91292587D02*
X152411028Y-91292587D01*
X152411028Y-91292587D02*
X152411028Y-90292587D01*
X153649123Y-91292587D02*
X153649123Y-90768777D01*
X153649123Y-90768777D02*
X153601504Y-90673539D01*
X153601504Y-90673539D02*
X153506266Y-90625920D01*
X153506266Y-90625920D02*
X153315790Y-90625920D01*
X153315790Y-90625920D02*
X153220552Y-90673539D01*
X153649123Y-91244968D02*
X153553885Y-91292587D01*
X153553885Y-91292587D02*
X153315790Y-91292587D01*
X153315790Y-91292587D02*
X153220552Y-91244968D01*
X153220552Y-91244968D02*
X153172933Y-91149729D01*
X153172933Y-91149729D02*
X153172933Y-91054491D01*
X153172933Y-91054491D02*
X153220552Y-90959253D01*
X153220552Y-90959253D02*
X153315790Y-90911634D01*
X153315790Y-90911634D02*
X153553885Y-90911634D01*
X153553885Y-90911634D02*
X153649123Y-90864015D01*
X154125314Y-91292587D02*
X154125314Y-90292587D01*
X154125314Y-90673539D02*
X154220552Y-90625920D01*
X154220552Y-90625920D02*
X154411028Y-90625920D01*
X154411028Y-90625920D02*
X154506266Y-90673539D01*
X154506266Y-90673539D02*
X154553885Y-90721158D01*
X154553885Y-90721158D02*
X154601504Y-90816396D01*
X154601504Y-90816396D02*
X154601504Y-91102110D01*
X154601504Y-91102110D02*
X154553885Y-91197348D01*
X154553885Y-91197348D02*
X154506266Y-91244968D01*
X154506266Y-91244968D02*
X154411028Y-91292587D01*
X154411028Y-91292587D02*
X154220552Y-91292587D01*
X154220552Y-91292587D02*
X154125314Y-91244968D01*
X142125312Y-92902531D02*
X141791979Y-92426340D01*
X141553884Y-92902531D02*
X141553884Y-91902531D01*
X141553884Y-91902531D02*
X141934836Y-91902531D01*
X141934836Y-91902531D02*
X142030074Y-91950150D01*
X142030074Y-91950150D02*
X142077693Y-91997769D01*
X142077693Y-91997769D02*
X142125312Y-92093007D01*
X142125312Y-92093007D02*
X142125312Y-92235864D01*
X142125312Y-92235864D02*
X142077693Y-92331102D01*
X142077693Y-92331102D02*
X142030074Y-92378721D01*
X142030074Y-92378721D02*
X141934836Y-92426340D01*
X141934836Y-92426340D02*
X141553884Y-92426340D01*
X142934836Y-92854912D02*
X142839598Y-92902531D01*
X142839598Y-92902531D02*
X142649122Y-92902531D01*
X142649122Y-92902531D02*
X142553884Y-92854912D01*
X142553884Y-92854912D02*
X142506265Y-92759673D01*
X142506265Y-92759673D02*
X142506265Y-92378721D01*
X142506265Y-92378721D02*
X142553884Y-92283483D01*
X142553884Y-92283483D02*
X142649122Y-92235864D01*
X142649122Y-92235864D02*
X142839598Y-92235864D01*
X142839598Y-92235864D02*
X142934836Y-92283483D01*
X142934836Y-92283483D02*
X142982455Y-92378721D01*
X142982455Y-92378721D02*
X142982455Y-92473959D01*
X142982455Y-92473959D02*
X142506265Y-92569197D01*
X143268170Y-92235864D02*
X143649122Y-92235864D01*
X143411027Y-91902531D02*
X143411027Y-92759673D01*
X143411027Y-92759673D02*
X143458646Y-92854912D01*
X143458646Y-92854912D02*
X143553884Y-92902531D01*
X143553884Y-92902531D02*
X143649122Y-92902531D01*
X144411027Y-92235864D02*
X144411027Y-92902531D01*
X143982456Y-92235864D02*
X143982456Y-92759673D01*
X143982456Y-92759673D02*
X144030075Y-92854912D01*
X144030075Y-92854912D02*
X144125313Y-92902531D01*
X144125313Y-92902531D02*
X144268170Y-92902531D01*
X144268170Y-92902531D02*
X144363408Y-92854912D01*
X144363408Y-92854912D02*
X144411027Y-92807292D01*
X144887218Y-92902531D02*
X144887218Y-92235864D01*
X144887218Y-92426340D02*
X144934837Y-92331102D01*
X144934837Y-92331102D02*
X144982456Y-92283483D01*
X144982456Y-92283483D02*
X145077694Y-92235864D01*
X145077694Y-92235864D02*
X145172932Y-92235864D01*
X145506266Y-92235864D02*
X145506266Y-92902531D01*
X145506266Y-92331102D02*
X145553885Y-92283483D01*
X145553885Y-92283483D02*
X145649123Y-92235864D01*
X145649123Y-92235864D02*
X145791980Y-92235864D01*
X145791980Y-92235864D02*
X145887218Y-92283483D01*
X145887218Y-92283483D02*
X145934837Y-92378721D01*
X145934837Y-92378721D02*
X145934837Y-92902531D01*
X147172933Y-92902531D02*
X147172933Y-91902531D01*
X147172933Y-92283483D02*
X147268171Y-92235864D01*
X147268171Y-92235864D02*
X147458647Y-92235864D01*
X147458647Y-92235864D02*
X147553885Y-92283483D01*
X147553885Y-92283483D02*
X147601504Y-92331102D01*
X147601504Y-92331102D02*
X147649123Y-92426340D01*
X147649123Y-92426340D02*
X147649123Y-92712054D01*
X147649123Y-92712054D02*
X147601504Y-92807292D01*
X147601504Y-92807292D02*
X147553885Y-92854912D01*
X147553885Y-92854912D02*
X147458647Y-92902531D01*
X147458647Y-92902531D02*
X147268171Y-92902531D01*
X147268171Y-92902531D02*
X147172933Y-92854912D01*
X148220552Y-92902531D02*
X148125314Y-92854912D01*
X148125314Y-92854912D02*
X148077695Y-92807292D01*
X148077695Y-92807292D02*
X148030076Y-92712054D01*
X148030076Y-92712054D02*
X148030076Y-92426340D01*
X148030076Y-92426340D02*
X148077695Y-92331102D01*
X148077695Y-92331102D02*
X148125314Y-92283483D01*
X148125314Y-92283483D02*
X148220552Y-92235864D01*
X148220552Y-92235864D02*
X148363409Y-92235864D01*
X148363409Y-92235864D02*
X148458647Y-92283483D01*
X148458647Y-92283483D02*
X148506266Y-92331102D01*
X148506266Y-92331102D02*
X148553885Y-92426340D01*
X148553885Y-92426340D02*
X148553885Y-92712054D01*
X148553885Y-92712054D02*
X148506266Y-92807292D01*
X148506266Y-92807292D02*
X148458647Y-92854912D01*
X148458647Y-92854912D02*
X148363409Y-92902531D01*
X148363409Y-92902531D02*
X148220552Y-92902531D01*
X149411028Y-92902531D02*
X149411028Y-92378721D01*
X149411028Y-92378721D02*
X149363409Y-92283483D01*
X149363409Y-92283483D02*
X149268171Y-92235864D01*
X149268171Y-92235864D02*
X149077695Y-92235864D01*
X149077695Y-92235864D02*
X148982457Y-92283483D01*
X149411028Y-92854912D02*
X149315790Y-92902531D01*
X149315790Y-92902531D02*
X149077695Y-92902531D01*
X149077695Y-92902531D02*
X148982457Y-92854912D01*
X148982457Y-92854912D02*
X148934838Y-92759673D01*
X148934838Y-92759673D02*
X148934838Y-92664435D01*
X148934838Y-92664435D02*
X148982457Y-92569197D01*
X148982457Y-92569197D02*
X149077695Y-92521578D01*
X149077695Y-92521578D02*
X149315790Y-92521578D01*
X149315790Y-92521578D02*
X149411028Y-92473959D01*
X149887219Y-92902531D02*
X149887219Y-92235864D01*
X149887219Y-92426340D02*
X149934838Y-92331102D01*
X149934838Y-92331102D02*
X149982457Y-92283483D01*
X149982457Y-92283483D02*
X150077695Y-92235864D01*
X150077695Y-92235864D02*
X150172933Y-92235864D01*
X150934838Y-92902531D02*
X150934838Y-91902531D01*
X150934838Y-92854912D02*
X150839600Y-92902531D01*
X150839600Y-92902531D02*
X150649124Y-92902531D01*
X150649124Y-92902531D02*
X150553886Y-92854912D01*
X150553886Y-92854912D02*
X150506267Y-92807292D01*
X150506267Y-92807292D02*
X150458648Y-92712054D01*
X150458648Y-92712054D02*
X150458648Y-92426340D01*
X150458648Y-92426340D02*
X150506267Y-92331102D01*
X150506267Y-92331102D02*
X150553886Y-92283483D01*
X150553886Y-92283483D02*
X150649124Y-92235864D01*
X150649124Y-92235864D02*
X150839600Y-92235864D01*
X150839600Y-92235864D02*
X150934838Y-92283483D01*
X141553884Y-94512475D02*
X141553884Y-93512475D01*
X141553884Y-93512475D02*
X141887217Y-94226760D01*
X141887217Y-94226760D02*
X142220550Y-93512475D01*
X142220550Y-93512475D02*
X142220550Y-94512475D01*
X142553884Y-93845808D02*
X142934836Y-93845808D01*
X142696741Y-94512475D02*
X142696741Y-93655332D01*
X142696741Y-93655332D02*
X142744360Y-93560094D01*
X142744360Y-93560094D02*
X142839598Y-93512475D01*
X142839598Y-93512475D02*
X142934836Y-93512475D01*
X143696741Y-93845808D02*
X143696741Y-94655332D01*
X143696741Y-94655332D02*
X143649122Y-94750570D01*
X143649122Y-94750570D02*
X143601503Y-94798189D01*
X143601503Y-94798189D02*
X143506265Y-94845808D01*
X143506265Y-94845808D02*
X143363408Y-94845808D01*
X143363408Y-94845808D02*
X143268170Y-94798189D01*
X143696741Y-94464856D02*
X143601503Y-94512475D01*
X143601503Y-94512475D02*
X143411027Y-94512475D01*
X143411027Y-94512475D02*
X143315789Y-94464856D01*
X143315789Y-94464856D02*
X143268170Y-94417236D01*
X143268170Y-94417236D02*
X143220551Y-94321998D01*
X143220551Y-94321998D02*
X143220551Y-94036284D01*
X143220551Y-94036284D02*
X143268170Y-93941046D01*
X143268170Y-93941046D02*
X143315789Y-93893427D01*
X143315789Y-93893427D02*
X143411027Y-93845808D01*
X143411027Y-93845808D02*
X143601503Y-93845808D01*
X143601503Y-93845808D02*
X143696741Y-93893427D01*
X144172932Y-94417236D02*
X144220551Y-94464856D01*
X144220551Y-94464856D02*
X144172932Y-94512475D01*
X144172932Y-94512475D02*
X144125313Y-94464856D01*
X144125313Y-94464856D02*
X144172932Y-94417236D01*
X144172932Y-94417236D02*
X144172932Y-94512475D01*
X145744360Y-93988665D02*
X145411027Y-93988665D01*
X145411027Y-94512475D02*
X145411027Y-93512475D01*
X145411027Y-93512475D02*
X145887217Y-93512475D01*
X146696741Y-94512475D02*
X146696741Y-93988665D01*
X146696741Y-93988665D02*
X146649122Y-93893427D01*
X146649122Y-93893427D02*
X146553884Y-93845808D01*
X146553884Y-93845808D02*
X146363408Y-93845808D01*
X146363408Y-93845808D02*
X146268170Y-93893427D01*
X146696741Y-94464856D02*
X146601503Y-94512475D01*
X146601503Y-94512475D02*
X146363408Y-94512475D01*
X146363408Y-94512475D02*
X146268170Y-94464856D01*
X146268170Y-94464856D02*
X146220551Y-94369617D01*
X146220551Y-94369617D02*
X146220551Y-94274379D01*
X146220551Y-94274379D02*
X146268170Y-94179141D01*
X146268170Y-94179141D02*
X146363408Y-94131522D01*
X146363408Y-94131522D02*
X146601503Y-94131522D01*
X146601503Y-94131522D02*
X146696741Y-94083903D01*
X147315789Y-94512475D02*
X147220551Y-94464856D01*
X147220551Y-94464856D02*
X147172932Y-94369617D01*
X147172932Y-94369617D02*
X147172932Y-93512475D01*
X147839599Y-94512475D02*
X147744361Y-94464856D01*
X147744361Y-94464856D02*
X147696742Y-94369617D01*
X147696742Y-94369617D02*
X147696742Y-93512475D01*
X148934838Y-93607713D02*
X148982457Y-93560094D01*
X148982457Y-93560094D02*
X149077695Y-93512475D01*
X149077695Y-93512475D02*
X149315790Y-93512475D01*
X149315790Y-93512475D02*
X149411028Y-93560094D01*
X149411028Y-93560094D02*
X149458647Y-93607713D01*
X149458647Y-93607713D02*
X149506266Y-93702951D01*
X149506266Y-93702951D02*
X149506266Y-93798189D01*
X149506266Y-93798189D02*
X149458647Y-93941046D01*
X149458647Y-93941046D02*
X148887219Y-94512475D01*
X148887219Y-94512475D02*
X149506266Y-94512475D01*
X150125314Y-93512475D02*
X150220552Y-93512475D01*
X150220552Y-93512475D02*
X150315790Y-93560094D01*
X150315790Y-93560094D02*
X150363409Y-93607713D01*
X150363409Y-93607713D02*
X150411028Y-93702951D01*
X150411028Y-93702951D02*
X150458647Y-93893427D01*
X150458647Y-93893427D02*
X150458647Y-94131522D01*
X150458647Y-94131522D02*
X150411028Y-94321998D01*
X150411028Y-94321998D02*
X150363409Y-94417236D01*
X150363409Y-94417236D02*
X150315790Y-94464856D01*
X150315790Y-94464856D02*
X150220552Y-94512475D01*
X150220552Y-94512475D02*
X150125314Y-94512475D01*
X150125314Y-94512475D02*
X150030076Y-94464856D01*
X150030076Y-94464856D02*
X149982457Y-94417236D01*
X149982457Y-94417236D02*
X149934838Y-94321998D01*
X149934838Y-94321998D02*
X149887219Y-94131522D01*
X149887219Y-94131522D02*
X149887219Y-93893427D01*
X149887219Y-93893427D02*
X149934838Y-93702951D01*
X149934838Y-93702951D02*
X149982457Y-93607713D01*
X149982457Y-93607713D02*
X150030076Y-93560094D01*
X150030076Y-93560094D02*
X150125314Y-93512475D01*
X150839600Y-93607713D02*
X150887219Y-93560094D01*
X150887219Y-93560094D02*
X150982457Y-93512475D01*
X150982457Y-93512475D02*
X151220552Y-93512475D01*
X151220552Y-93512475D02*
X151315790Y-93560094D01*
X151315790Y-93560094D02*
X151363409Y-93607713D01*
X151363409Y-93607713D02*
X151411028Y-93702951D01*
X151411028Y-93702951D02*
X151411028Y-93798189D01*
X151411028Y-93798189D02*
X151363409Y-93941046D01*
X151363409Y-93941046D02*
X150791981Y-94512475D01*
X150791981Y-94512475D02*
X151411028Y-94512475D01*
X152315790Y-93512475D02*
X151839600Y-93512475D01*
X151839600Y-93512475D02*
X151791981Y-93988665D01*
X151791981Y-93988665D02*
X151839600Y-93941046D01*
X151839600Y-93941046D02*
X151934838Y-93893427D01*
X151934838Y-93893427D02*
X152172933Y-93893427D01*
X152172933Y-93893427D02*
X152268171Y-93941046D01*
X152268171Y-93941046D02*
X152315790Y-93988665D01*
X152315790Y-93988665D02*
X152363409Y-94083903D01*
X152363409Y-94083903D02*
X152363409Y-94321998D01*
X152363409Y-94321998D02*
X152315790Y-94417236D01*
X152315790Y-94417236D02*
X152268171Y-94464856D01*
X152268171Y-94464856D02*
X152172933Y-94512475D01*
X152172933Y-94512475D02*
X151934838Y-94512475D01*
X151934838Y-94512475D02*
X151839600Y-94464856D01*
X151839600Y-94464856D02*
X151791981Y-94417236D01*
X142125312Y-96122419D02*
X141791979Y-95646228D01*
X141553884Y-96122419D02*
X141553884Y-95122419D01*
X141553884Y-95122419D02*
X141934836Y-95122419D01*
X141934836Y-95122419D02*
X142030074Y-95170038D01*
X142030074Y-95170038D02*
X142077693Y-95217657D01*
X142077693Y-95217657D02*
X142125312Y-95312895D01*
X142125312Y-95312895D02*
X142125312Y-95455752D01*
X142125312Y-95455752D02*
X142077693Y-95550990D01*
X142077693Y-95550990D02*
X142030074Y-95598609D01*
X142030074Y-95598609D02*
X141934836Y-95646228D01*
X141934836Y-95646228D02*
X141553884Y-95646228D01*
X142934836Y-96074800D02*
X142839598Y-96122419D01*
X142839598Y-96122419D02*
X142649122Y-96122419D01*
X142649122Y-96122419D02*
X142553884Y-96074800D01*
X142553884Y-96074800D02*
X142506265Y-95979561D01*
X142506265Y-95979561D02*
X142506265Y-95598609D01*
X142506265Y-95598609D02*
X142553884Y-95503371D01*
X142553884Y-95503371D02*
X142649122Y-95455752D01*
X142649122Y-95455752D02*
X142839598Y-95455752D01*
X142839598Y-95455752D02*
X142934836Y-95503371D01*
X142934836Y-95503371D02*
X142982455Y-95598609D01*
X142982455Y-95598609D02*
X142982455Y-95693847D01*
X142982455Y-95693847D02*
X142506265Y-95789085D01*
X143315789Y-95455752D02*
X143553884Y-96122419D01*
X143553884Y-96122419D02*
X143791979Y-95455752D01*
X144172932Y-96027180D02*
X144220551Y-96074800D01*
X144220551Y-96074800D02*
X144172932Y-96122419D01*
X144172932Y-96122419D02*
X144125313Y-96074800D01*
X144125313Y-96074800D02*
X144172932Y-96027180D01*
X144172932Y-96027180D02*
X144172932Y-96122419D01*
X145601503Y-95122419D02*
X145696741Y-95122419D01*
X145696741Y-95122419D02*
X145791979Y-95170038D01*
X145791979Y-95170038D02*
X145839598Y-95217657D01*
X145839598Y-95217657D02*
X145887217Y-95312895D01*
X145887217Y-95312895D02*
X145934836Y-95503371D01*
X145934836Y-95503371D02*
X145934836Y-95741466D01*
X145934836Y-95741466D02*
X145887217Y-95931942D01*
X145887217Y-95931942D02*
X145839598Y-96027180D01*
X145839598Y-96027180D02*
X145791979Y-96074800D01*
X145791979Y-96074800D02*
X145696741Y-96122419D01*
X145696741Y-96122419D02*
X145601503Y-96122419D01*
X145601503Y-96122419D02*
X145506265Y-96074800D01*
X145506265Y-96074800D02*
X145458646Y-96027180D01*
X145458646Y-96027180D02*
X145411027Y-95931942D01*
X145411027Y-95931942D02*
X145363408Y-95741466D01*
X145363408Y-95741466D02*
X145363408Y-95503371D01*
X145363408Y-95503371D02*
X145411027Y-95312895D01*
X145411027Y-95312895D02*
X145458646Y-95217657D01*
X145458646Y-95217657D02*
X145506265Y-95170038D01*
X145506265Y-95170038D02*
X145601503Y-95122419D01*
X146363408Y-96027180D02*
X146411027Y-96074800D01*
X146411027Y-96074800D02*
X146363408Y-96122419D01*
X146363408Y-96122419D02*
X146315789Y-96074800D01*
X146315789Y-96074800D02*
X146363408Y-96027180D01*
X146363408Y-96027180D02*
X146363408Y-96122419D01*
X147030074Y-95122419D02*
X147125312Y-95122419D01*
X147125312Y-95122419D02*
X147220550Y-95170038D01*
X147220550Y-95170038D02*
X147268169Y-95217657D01*
X147268169Y-95217657D02*
X147315788Y-95312895D01*
X147315788Y-95312895D02*
X147363407Y-95503371D01*
X147363407Y-95503371D02*
X147363407Y-95741466D01*
X147363407Y-95741466D02*
X147315788Y-95931942D01*
X147315788Y-95931942D02*
X147268169Y-96027180D01*
X147268169Y-96027180D02*
X147220550Y-96074800D01*
X147220550Y-96074800D02*
X147125312Y-96122419D01*
X147125312Y-96122419D02*
X147030074Y-96122419D01*
X147030074Y-96122419D02*
X146934836Y-96074800D01*
X146934836Y-96074800D02*
X146887217Y-96027180D01*
X146887217Y-96027180D02*
X146839598Y-95931942D01*
X146839598Y-95931942D02*
X146791979Y-95741466D01*
X146791979Y-95741466D02*
X146791979Y-95503371D01*
X146791979Y-95503371D02*
X146839598Y-95312895D01*
X146839598Y-95312895D02*
X146887217Y-95217657D01*
X146887217Y-95217657D02*
X146934836Y-95170038D01*
X146934836Y-95170038D02*
X147030074Y-95122419D01*
X147791979Y-96027180D02*
X147839598Y-96074800D01*
X147839598Y-96074800D02*
X147791979Y-96122419D01*
X147791979Y-96122419D02*
X147744360Y-96074800D01*
X147744360Y-96074800D02*
X147791979Y-96027180D01*
X147791979Y-96027180D02*
X147791979Y-96122419D01*
X148220550Y-95217657D02*
X148268169Y-95170038D01*
X148268169Y-95170038D02*
X148363407Y-95122419D01*
X148363407Y-95122419D02*
X148601502Y-95122419D01*
X148601502Y-95122419D02*
X148696740Y-95170038D01*
X148696740Y-95170038D02*
X148744359Y-95217657D01*
X148744359Y-95217657D02*
X148791978Y-95312895D01*
X148791978Y-95312895D02*
X148791978Y-95408133D01*
X148791978Y-95408133D02*
X148744359Y-95550990D01*
X148744359Y-95550990D02*
X148172931Y-96122419D01*
X148172931Y-96122419D02*
X148791978Y-96122419D01*
D11*
X141166666Y-68204819D02*
X141166666Y-68919104D01*
X141166666Y-68919104D02*
X141119047Y-69061961D01*
X141119047Y-69061961D02*
X141023809Y-69157200D01*
X141023809Y-69157200D02*
X140880952Y-69204819D01*
X140880952Y-69204819D02*
X140785714Y-69204819D01*
X141595238Y-68300057D02*
X141642857Y-68252438D01*
X141642857Y-68252438D02*
X141738095Y-68204819D01*
X141738095Y-68204819D02*
X141976190Y-68204819D01*
X141976190Y-68204819D02*
X142071428Y-68252438D01*
X142071428Y-68252438D02*
X142119047Y-68300057D01*
X142119047Y-68300057D02*
X142166666Y-68395295D01*
X142166666Y-68395295D02*
X142166666Y-68490533D01*
X142166666Y-68490533D02*
X142119047Y-68633390D01*
X142119047Y-68633390D02*
X141547619Y-69204819D01*
X141547619Y-69204819D02*
X142166666Y-69204819D01*
X155333333Y-100359580D02*
X155285714Y-100407200D01*
X155285714Y-100407200D02*
X155142857Y-100454819D01*
X155142857Y-100454819D02*
X155047619Y-100454819D01*
X155047619Y-100454819D02*
X154904762Y-100407200D01*
X154904762Y-100407200D02*
X154809524Y-100311961D01*
X154809524Y-100311961D02*
X154761905Y-100216723D01*
X154761905Y-100216723D02*
X154714286Y-100026247D01*
X154714286Y-100026247D02*
X154714286Y-99883390D01*
X154714286Y-99883390D02*
X154761905Y-99692914D01*
X154761905Y-99692914D02*
X154809524Y-99597676D01*
X154809524Y-99597676D02*
X154904762Y-99502438D01*
X154904762Y-99502438D02*
X155047619Y-99454819D01*
X155047619Y-99454819D02*
X155142857Y-99454819D01*
X155142857Y-99454819D02*
X155285714Y-99502438D01*
X155285714Y-99502438D02*
X155333333Y-99550057D01*
X155714286Y-99550057D02*
X155761905Y-99502438D01*
X155761905Y-99502438D02*
X155857143Y-99454819D01*
X155857143Y-99454819D02*
X156095238Y-99454819D01*
X156095238Y-99454819D02*
X156190476Y-99502438D01*
X156190476Y-99502438D02*
X156238095Y-99550057D01*
X156238095Y-99550057D02*
X156285714Y-99645295D01*
X156285714Y-99645295D02*
X156285714Y-99740533D01*
X156285714Y-99740533D02*
X156238095Y-99883390D01*
X156238095Y-99883390D02*
X155666667Y-100454819D01*
X155666667Y-100454819D02*
X156285714Y-100454819D01*
X139666666Y-98954819D02*
X139666666Y-99669104D01*
X139666666Y-99669104D02*
X139619047Y-99811961D01*
X139619047Y-99811961D02*
X139523809Y-99907200D01*
X139523809Y-99907200D02*
X139380952Y-99954819D01*
X139380952Y-99954819D02*
X139285714Y-99954819D01*
X140666666Y-99954819D02*
X140095238Y-99954819D01*
X140380952Y-99954819D02*
X140380952Y-98954819D01*
X140380952Y-98954819D02*
X140285714Y-99097676D01*
X140285714Y-99097676D02*
X140190476Y-99192914D01*
X140190476Y-99192914D02*
X140095238Y-99240533D01*
X146223095Y-69999819D02*
X146223095Y-70809342D01*
X146223095Y-70809342D02*
X146270714Y-70904580D01*
X146270714Y-70904580D02*
X146318333Y-70952200D01*
X146318333Y-70952200D02*
X146413571Y-70999819D01*
X146413571Y-70999819D02*
X146604047Y-70999819D01*
X146604047Y-70999819D02*
X146699285Y-70952200D01*
X146699285Y-70952200D02*
X146746904Y-70904580D01*
X146746904Y-70904580D02*
X146794523Y-70809342D01*
X146794523Y-70809342D02*
X146794523Y-69999819D01*
X147794523Y-70999819D02*
X147223095Y-70999819D01*
X147508809Y-70999819D02*
X147508809Y-69999819D01*
X147508809Y-69999819D02*
X147413571Y-70142676D01*
X147413571Y-70142676D02*
X147318333Y-70237914D01*
X147318333Y-70237914D02*
X147223095Y-70285533D01*
X154583333Y-98204819D02*
X154250000Y-97728628D01*
X154011905Y-98204819D02*
X154011905Y-97204819D01*
X154011905Y-97204819D02*
X154392857Y-97204819D01*
X154392857Y-97204819D02*
X154488095Y-97252438D01*
X154488095Y-97252438D02*
X154535714Y-97300057D01*
X154535714Y-97300057D02*
X154583333Y-97395295D01*
X154583333Y-97395295D02*
X154583333Y-97538152D01*
X154583333Y-97538152D02*
X154535714Y-97633390D01*
X154535714Y-97633390D02*
X154488095Y-97681009D01*
X154488095Y-97681009D02*
X154392857Y-97728628D01*
X154392857Y-97728628D02*
X154011905Y-97728628D01*
X154964286Y-97300057D02*
X155011905Y-97252438D01*
X155011905Y-97252438D02*
X155107143Y-97204819D01*
X155107143Y-97204819D02*
X155345238Y-97204819D01*
X155345238Y-97204819D02*
X155440476Y-97252438D01*
X155440476Y-97252438D02*
X155488095Y-97300057D01*
X155488095Y-97300057D02*
X155535714Y-97395295D01*
X155535714Y-97395295D02*
X155535714Y-97490533D01*
X155535714Y-97490533D02*
X155488095Y-97633390D01*
X155488095Y-97633390D02*
X154916667Y-98204819D01*
X154916667Y-98204819D02*
X155535714Y-98204819D01*
X145726191Y-69157200D02*
X145869048Y-69204819D01*
X145869048Y-69204819D02*
X146107143Y-69204819D01*
X146107143Y-69204819D02*
X146202381Y-69157200D01*
X146202381Y-69157200D02*
X146250000Y-69109580D01*
X146250000Y-69109580D02*
X146297619Y-69014342D01*
X146297619Y-69014342D02*
X146297619Y-68919104D01*
X146297619Y-68919104D02*
X146250000Y-68823866D01*
X146250000Y-68823866D02*
X146202381Y-68776247D01*
X146202381Y-68776247D02*
X146107143Y-68728628D01*
X146107143Y-68728628D02*
X145916667Y-68681009D01*
X145916667Y-68681009D02*
X145821429Y-68633390D01*
X145821429Y-68633390D02*
X145773810Y-68585771D01*
X145773810Y-68585771D02*
X145726191Y-68490533D01*
X145726191Y-68490533D02*
X145726191Y-68395295D01*
X145726191Y-68395295D02*
X145773810Y-68300057D01*
X145773810Y-68300057D02*
X145821429Y-68252438D01*
X145821429Y-68252438D02*
X145916667Y-68204819D01*
X145916667Y-68204819D02*
X146154762Y-68204819D01*
X146154762Y-68204819D02*
X146297619Y-68252438D01*
X146726191Y-69204819D02*
X146726191Y-68204819D01*
X147726190Y-68252438D02*
X147630952Y-68204819D01*
X147630952Y-68204819D02*
X147488095Y-68204819D01*
X147488095Y-68204819D02*
X147345238Y-68252438D01*
X147345238Y-68252438D02*
X147250000Y-68347676D01*
X147250000Y-68347676D02*
X147202381Y-68442914D01*
X147202381Y-68442914D02*
X147154762Y-68633390D01*
X147154762Y-68633390D02*
X147154762Y-68776247D01*
X147154762Y-68776247D02*
X147202381Y-68966723D01*
X147202381Y-68966723D02*
X147250000Y-69061961D01*
X147250000Y-69061961D02*
X147345238Y-69157200D01*
X147345238Y-69157200D02*
X147488095Y-69204819D01*
X147488095Y-69204819D02*
X147583333Y-69204819D01*
X147583333Y-69204819D02*
X147726190Y-69157200D01*
X147726190Y-69157200D02*
X147773809Y-69109580D01*
X147773809Y-69109580D02*
X147773809Y-68776247D01*
X147773809Y-68776247D02*
X147583333Y-68776247D01*
X154333333Y-71359580D02*
X154285714Y-71407200D01*
X154285714Y-71407200D02*
X154142857Y-71454819D01*
X154142857Y-71454819D02*
X154047619Y-71454819D01*
X154047619Y-71454819D02*
X153904762Y-71407200D01*
X153904762Y-71407200D02*
X153809524Y-71311961D01*
X153809524Y-71311961D02*
X153761905Y-71216723D01*
X153761905Y-71216723D02*
X153714286Y-71026247D01*
X153714286Y-71026247D02*
X153714286Y-70883390D01*
X153714286Y-70883390D02*
X153761905Y-70692914D01*
X153761905Y-70692914D02*
X153809524Y-70597676D01*
X153809524Y-70597676D02*
X153904762Y-70502438D01*
X153904762Y-70502438D02*
X154047619Y-70454819D01*
X154047619Y-70454819D02*
X154142857Y-70454819D01*
X154142857Y-70454819D02*
X154285714Y-70502438D01*
X154285714Y-70502438D02*
X154333333Y-70550057D01*
X154666667Y-70454819D02*
X155285714Y-70454819D01*
X155285714Y-70454819D02*
X154952381Y-70835771D01*
X154952381Y-70835771D02*
X155095238Y-70835771D01*
X155095238Y-70835771D02*
X155190476Y-70883390D01*
X155190476Y-70883390D02*
X155238095Y-70931009D01*
X155238095Y-70931009D02*
X155285714Y-71026247D01*
X155285714Y-71026247D02*
X155285714Y-71264342D01*
X155285714Y-71264342D02*
X155238095Y-71359580D01*
X155238095Y-71359580D02*
X155190476Y-71407200D01*
X155190476Y-71407200D02*
X155095238Y-71454819D01*
X155095238Y-71454819D02*
X154809524Y-71454819D01*
X154809524Y-71454819D02*
X154714286Y-71407200D01*
X154714286Y-71407200D02*
X154666667Y-71359580D01*
X147333333Y-99454819D02*
X147000000Y-98978628D01*
X146761905Y-99454819D02*
X146761905Y-98454819D01*
X146761905Y-98454819D02*
X147142857Y-98454819D01*
X147142857Y-98454819D02*
X147238095Y-98502438D01*
X147238095Y-98502438D02*
X147285714Y-98550057D01*
X147285714Y-98550057D02*
X147333333Y-98645295D01*
X147333333Y-98645295D02*
X147333333Y-98788152D01*
X147333333Y-98788152D02*
X147285714Y-98883390D01*
X147285714Y-98883390D02*
X147238095Y-98931009D01*
X147238095Y-98931009D02*
X147142857Y-98978628D01*
X147142857Y-98978628D02*
X146761905Y-98978628D01*
X148285714Y-99454819D02*
X147714286Y-99454819D01*
X148000000Y-99454819D02*
X148000000Y-98454819D01*
X148000000Y-98454819D02*
X147904762Y-98597676D01*
X147904762Y-98597676D02*
X147809524Y-98692914D01*
X147809524Y-98692914D02*
X147714286Y-98740533D01*
X151488095Y-68204819D02*
X152059523Y-68204819D01*
X151773809Y-69204819D02*
X151773809Y-68204819D01*
X152392857Y-69204819D02*
X152392857Y-68204819D01*
X152392857Y-68204819D02*
X152773809Y-68204819D01*
X152773809Y-68204819D02*
X152869047Y-68252438D01*
X152869047Y-68252438D02*
X152916666Y-68300057D01*
X152916666Y-68300057D02*
X152964285Y-68395295D01*
X152964285Y-68395295D02*
X152964285Y-68538152D01*
X152964285Y-68538152D02*
X152916666Y-68633390D01*
X152916666Y-68633390D02*
X152869047Y-68681009D01*
X152869047Y-68681009D02*
X152773809Y-68728628D01*
X152773809Y-68728628D02*
X152392857Y-68728628D01*
X153916666Y-69204819D02*
X153345238Y-69204819D01*
X153630952Y-69204819D02*
X153630952Y-68204819D01*
X153630952Y-68204819D02*
X153535714Y-68347676D01*
X153535714Y-68347676D02*
X153440476Y-68442914D01*
X153440476Y-68442914D02*
X153345238Y-68490533D01*
X154261904Y-87704819D02*
X154071428Y-87704819D01*
X154071428Y-87704819D02*
X153976190Y-87752438D01*
X153976190Y-87752438D02*
X153928571Y-87800057D01*
X153928571Y-87800057D02*
X153833333Y-87942914D01*
X153833333Y-87942914D02*
X153785714Y-88133390D01*
X153785714Y-88133390D02*
X153785714Y-88514342D01*
X153785714Y-88514342D02*
X153833333Y-88609580D01*
X153833333Y-88609580D02*
X153880952Y-88657200D01*
X153880952Y-88657200D02*
X153976190Y-88704819D01*
X153976190Y-88704819D02*
X154166666Y-88704819D01*
X154166666Y-88704819D02*
X154261904Y-88657200D01*
X154261904Y-88657200D02*
X154309523Y-88609580D01*
X154309523Y-88609580D02*
X154357142Y-88514342D01*
X154357142Y-88514342D02*
X154357142Y-88276247D01*
X154357142Y-88276247D02*
X154309523Y-88181009D01*
X154309523Y-88181009D02*
X154261904Y-88133390D01*
X154261904Y-88133390D02*
X154166666Y-88085771D01*
X154166666Y-88085771D02*
X153976190Y-88085771D01*
X153976190Y-88085771D02*
X153880952Y-88133390D01*
X153880952Y-88133390D02*
X153833333Y-88181009D01*
X153833333Y-88181009D02*
X153785714Y-88276247D01*
X154642857Y-87704819D02*
X154976190Y-88704819D01*
X154976190Y-88704819D02*
X155309523Y-87704819D01*
X146488095Y-100954819D02*
X146488095Y-101764342D01*
X146488095Y-101764342D02*
X146535714Y-101859580D01*
X146535714Y-101859580D02*
X146583333Y-101907200D01*
X146583333Y-101907200D02*
X146678571Y-101954819D01*
X146678571Y-101954819D02*
X146869047Y-101954819D01*
X146869047Y-101954819D02*
X146964285Y-101907200D01*
X146964285Y-101907200D02*
X147011904Y-101859580D01*
X147011904Y-101859580D02*
X147059523Y-101764342D01*
X147059523Y-101764342D02*
X147059523Y-100954819D01*
X147488095Y-101050057D02*
X147535714Y-101002438D01*
X147535714Y-101002438D02*
X147630952Y-100954819D01*
X147630952Y-100954819D02*
X147869047Y-100954819D01*
X147869047Y-100954819D02*
X147964285Y-101002438D01*
X147964285Y-101002438D02*
X148011904Y-101050057D01*
X148011904Y-101050057D02*
X148059523Y-101145295D01*
X148059523Y-101145295D02*
X148059523Y-101240533D01*
X148059523Y-101240533D02*
X148011904Y-101383390D01*
X148011904Y-101383390D02*
X147440476Y-101954819D01*
X147440476Y-101954819D02*
X148059523Y-101954819D01*
X141833333Y-109609580D02*
X141785714Y-109657200D01*
X141785714Y-109657200D02*
X141642857Y-109704819D01*
X141642857Y-109704819D02*
X141547619Y-109704819D01*
X141547619Y-109704819D02*
X141404762Y-109657200D01*
X141404762Y-109657200D02*
X141309524Y-109561961D01*
X141309524Y-109561961D02*
X141261905Y-109466723D01*
X141261905Y-109466723D02*
X141214286Y-109276247D01*
X141214286Y-109276247D02*
X141214286Y-109133390D01*
X141214286Y-109133390D02*
X141261905Y-108942914D01*
X141261905Y-108942914D02*
X141309524Y-108847676D01*
X141309524Y-108847676D02*
X141404762Y-108752438D01*
X141404762Y-108752438D02*
X141547619Y-108704819D01*
X141547619Y-108704819D02*
X141642857Y-108704819D01*
X141642857Y-108704819D02*
X141785714Y-108752438D01*
X141785714Y-108752438D02*
X141833333Y-108800057D01*
X142785714Y-109704819D02*
X142214286Y-109704819D01*
X142500000Y-109704819D02*
X142500000Y-108704819D01*
X142500000Y-108704819D02*
X142404762Y-108847676D01*
X142404762Y-108847676D02*
X142309524Y-108942914D01*
X142309524Y-108942914D02*
X142214286Y-108990533D01*
D12*
X132940000Y-68130000D02*
X132940000Y-98610000D01*
X132940000Y-98610000D02*
X140560000Y-98610000D01*
X134210000Y-68130000D02*
X134210000Y-98610000D01*
X140560000Y-68130000D02*
X132940000Y-68130000D01*
X140560000Y-68130000D02*
X140560000Y-98610000D01*
X154080000Y-103480000D02*
X154080000Y-107520000D01*
X154080000Y-107520000D02*
X156920000Y-107520000D01*
X155500000Y-102790000D02*
X155500000Y-103480000D01*
X155500000Y-108210000D02*
X155500000Y-107520000D01*
X156920000Y-103480000D02*
X154080000Y-103480000D01*
X156920000Y-107520000D02*
X156920000Y-103480000D01*
X132940000Y-100170000D02*
X132940000Y-110330000D01*
X132940000Y-110330000D02*
X140560000Y-110330000D01*
X139290000Y-100170000D02*
X139290000Y-110330000D01*
X140560000Y-100170000D02*
X132940000Y-100170000D01*
X140560000Y-110330000D02*
X140560000Y-100170000D01*
X144735000Y-71545000D02*
X144735000Y-89445000D01*
X144735000Y-89445000D02*
X149235000Y-89445000D01*
X145985000Y-71545000D02*
X144735000Y-71545000D01*
X149235000Y-71545000D02*
X147985000Y-71545000D01*
X149235000Y-89445000D02*
X149235000Y-71545000D01*
X147985000Y-71545000D02*
G75*
G02*
X145985000Y-71545000I-1000000J0D01*
G01*
X151611000Y-99726000D02*
X151611000Y-100361000D01*
X151611000Y-100361000D02*
X151738000Y-100488000D01*
X151611000Y-102139000D02*
X151738000Y-102012000D01*
X151611000Y-102774000D02*
X151611000Y-102139000D01*
X151738000Y-100488000D02*
X151738000Y-101250000D01*
X151738000Y-102012000D02*
X151738000Y-101250000D01*
X151865000Y-99472000D02*
X151611000Y-99726000D01*
X151865000Y-99472000D02*
X153135000Y-99472000D01*
X151865000Y-103028000D02*
X151611000Y-102774000D01*
X152500000Y-98380000D02*
X152500000Y-99330000D01*
X152500000Y-99345000D02*
X152500000Y-99472000D01*
X152500000Y-103170000D02*
X152500000Y-103028000D01*
X152500000Y-104120000D02*
X152500000Y-103170000D01*
X153135000Y-99472000D02*
X153389000Y-99726000D01*
X153135000Y-103028000D02*
X151865000Y-103028000D01*
X153135000Y-103028000D02*
X153389000Y-102774000D01*
X153262000Y-100488000D02*
X153262000Y-101250000D01*
X153262000Y-102012000D02*
X153262000Y-101250000D01*
X153389000Y-99726000D02*
X153389000Y-100361000D01*
X153389000Y-100361000D02*
X153262000Y-100488000D01*
X153389000Y-102139000D02*
X153262000Y-102012000D01*
X153389000Y-102774000D02*
X153389000Y-102139000D01*
X145251000Y-69500000D02*
G75*
G02*
X142749000Y-69500000I-1251000J0D01*
G01*
X142749000Y-69500000D02*
G75*
G02*
X145251000Y-69500000I1251000J0D01*
G01*
X153080000Y-74730000D02*
X153080000Y-78770000D01*
X153080000Y-78770000D02*
X155920000Y-78770000D01*
X154500000Y-74040000D02*
X154500000Y-74730000D01*
X154500000Y-79460000D02*
X154500000Y-78770000D01*
X155920000Y-74730000D02*
X153080000Y-74730000D01*
X155920000Y-78770000D02*
X155920000Y-74730000D01*
X149053000Y-99774000D02*
X149053000Y-100409000D01*
X149053000Y-100409000D02*
X149180000Y-100536000D01*
X149053000Y-102187000D02*
X149180000Y-102060000D01*
X149053000Y-102822000D02*
X149053000Y-102187000D01*
X149180000Y-100536000D02*
X149180000Y-101298000D01*
X149180000Y-102060000D02*
X149180000Y-101298000D01*
X149307000Y-99520000D02*
X149053000Y-99774000D01*
X149307000Y-99520000D02*
X150577000Y-99520000D01*
X149307000Y-103076000D02*
X149053000Y-102822000D01*
X149942000Y-98428000D02*
X149942000Y-99378000D01*
X149942000Y-99378000D02*
X149942000Y-99520000D01*
X149942000Y-103203000D02*
X149942000Y-103076000D01*
X149942000Y-104168000D02*
X149942000Y-103218000D01*
X150577000Y-99520000D02*
X150831000Y-99774000D01*
X150577000Y-103076000D02*
X149307000Y-103076000D01*
X150577000Y-103076000D02*
X150831000Y-102822000D01*
X150704000Y-100536000D02*
X150704000Y-101298000D01*
X150704000Y-102060000D02*
X150704000Y-101298000D01*
X150831000Y-99774000D02*
X150831000Y-100409000D01*
X150831000Y-100409000D02*
X150704000Y-100536000D01*
X150831000Y-102187000D02*
X150704000Y-102060000D01*
X150831000Y-102822000D02*
X150831000Y-102187000D01*
X151001000Y-69500000D02*
G75*
G02*
X148499000Y-69500000I-1251000J0D01*
G01*
X148499000Y-69500000D02*
G75*
G02*
X151001000Y-69500000I1251000J0D01*
G01*
X155751000Y-86000000D02*
G75*
G02*
X153249000Y-86000000I-1251000J0D01*
G01*
X153249000Y-86000000D02*
G75*
G02*
X155751000Y-86000000I1251000J0D01*
G01*
X147380000Y-102420000D02*
X143530000Y-102420000D01*
X147380000Y-102420000D02*
G75*
G02*
X143491389Y-102429878I-1940000J-1700000D01*
G01*
X145290000Y-108750000D02*
X145980000Y-108750000D01*
X145980000Y-107330000D02*
X145980000Y-110170000D01*
X145980000Y-110170000D02*
X150020000Y-110170000D01*
X150020000Y-107330000D02*
X145980000Y-107330000D01*
X150020000Y-110170000D02*
X150020000Y-107330000D01*
X150710000Y-108750000D02*
X150020000Y-108750000D01*
%LPC*%
D13*
X136750000Y-70670000D03*
D14*
X136750000Y-75750000D03*
X136750000Y-80830000D03*
X136750000Y-85910000D03*
X136750000Y-90990000D03*
X136750000Y-96070000D03*
D15*
X155500000Y-101750000D03*
D16*
X155500000Y-109250000D03*
D13*
X136750000Y-107790000D03*
D14*
X136750000Y-102710000D03*
D17*
X143175000Y-72875000D03*
D18*
X143175000Y-75415000D03*
X143175000Y-77955000D03*
X143175000Y-80495000D03*
X143175000Y-83035000D03*
X143175000Y-85575000D03*
X143175000Y-88115000D03*
X150795000Y-88115000D03*
X150795000Y-85575000D03*
X150795000Y-83035000D03*
X150795000Y-80495000D03*
X150795000Y-77955000D03*
X150795000Y-75415000D03*
X150795000Y-72875000D03*
D19*
X152500000Y-105060000D03*
D20*
X152500000Y-97440000D03*
D21*
X144000000Y-69500000D03*
D15*
X154500000Y-73000000D03*
D16*
X154500000Y-80500000D03*
D19*
X149942000Y-97488000D03*
D20*
X149942000Y-105108000D03*
D21*
X149750000Y-69500000D03*
X154500000Y-86000000D03*
D22*
X146790000Y-105000000D03*
D23*
X144250000Y-105000000D03*
D22*
X145520000Y-105000000D03*
D15*
X144250000Y-108750000D03*
D16*
X151750000Y-108750000D03*
%LPD*%
M02*
