G04 #@! TF.GenerationSoftware,KiCad,Pcbnew,9.0.5-9.0.5~ubuntu25.04.1*
G04 #@! TF.CreationDate,2025-12-03T04:11:04-06:00*
G04 #@! TF.ProjectId,Return_Board,52657475-726e-45f4-926f-6172642e6b69,rev?*
G04 #@! TF.SameCoordinates,Original*
G04 #@! TF.FileFunction,Copper,L1,Top*
G04 #@! TF.FilePolarity,Positive*
%FSLAX46Y46*%
G04 Gerber Fmt 4.6, Leading zero omitted, Abs format (unit mm)*
G04 Created by KiCad (PCBNEW 9.0.5-9.0.5~ubuntu25.04.1) date 2025-12-03 04:11:04*
%MOMM*%
%LPD*%
G01*
G04 APERTURE LIST*
G04 Aperture macros list*
%AMRoundRect*
0 Rectangle with rounded corners*
0 $1 Rounding radius*
0 $2 $3 $4 $5 $6 $7 $8 $9 X,Y pos of 4 corners*
0 Add a 4 corners polygon primitive as box body*
4,1,4,$2,$3,$4,$5,$6,$7,$8,$9,$2,$3,0*
0 Add four circle primitives for the rounded corners*
1,1,$1+$1,$2,$3*
1,1,$1+$1,$4,$5*
1,1,$1+$1,$6,$7*
1,1,$1+$1,$8,$9*
0 Add four rect primitives between the rounded corners*
20,1,$1+$1,$2,$3,$4,$5,0*
20,1,$1+$1,$4,$5,$6,$7,0*
20,1,$1+$1,$6,$7,$8,$9,0*
20,1,$1+$1,$8,$9,$2,$3,0*%
G04 Aperture macros list end*
G04 #@! TA.AperFunction,ComponentPad*
%ADD10R,3.000000X3.000000*%
G04 #@! TD*
G04 #@! TA.AperFunction,ComponentPad*
%ADD11C,3.000000*%
G04 #@! TD*
G04 #@! TA.AperFunction,ComponentPad*
%ADD12C,1.600000*%
G04 #@! TD*
G04 #@! TA.AperFunction,ComponentPad*
%ADD13O,1.600000X1.600000*%
G04 #@! TD*
G04 #@! TA.AperFunction,ComponentPad*
%ADD14R,2.400000X1.600000*%
G04 #@! TD*
G04 #@! TA.AperFunction,ComponentPad*
%ADD15O,2.400000X1.600000*%
G04 #@! TD*
G04 #@! TA.AperFunction,ComponentPad*
%ADD16C,1.400000*%
G04 #@! TD*
G04 #@! TA.AperFunction,ComponentPad*
%ADD17O,1.400000X1.400000*%
G04 #@! TD*
G04 #@! TA.AperFunction,ComponentPad*
%ADD18C,2.000000*%
G04 #@! TD*
G04 #@! TA.AperFunction,ComponentPad*
%ADD19RoundRect,0.262500X-0.262500X-0.487500X0.262500X-0.487500X0.262500X0.487500X-0.262500X0.487500X0*%
G04 #@! TD*
G04 #@! TA.AperFunction,ComponentPad*
%ADD20R,1.050000X1.500000*%
G04 #@! TD*
G04 #@! TA.AperFunction,Conductor*
%ADD21C,1.000000*%
G04 #@! TD*
G04 APERTURE END LIST*
D10*
X136750000Y-70670000D03*
D11*
X136750000Y-75750000D03*
X136750000Y-80830000D03*
X136750000Y-85910000D03*
X136750000Y-90990000D03*
X136750000Y-96070000D03*
D12*
X155500000Y-101750000D03*
D13*
X155500000Y-109250000D03*
D10*
X136750000Y-107790000D03*
D11*
X136750000Y-102710000D03*
D14*
X143175000Y-72875000D03*
D15*
X143175000Y-75415000D03*
X143175000Y-77955000D03*
X143175000Y-80495000D03*
X143175000Y-83035000D03*
X143175000Y-85575000D03*
X143175000Y-88115000D03*
X150795000Y-88115000D03*
X150795000Y-85575000D03*
X150795000Y-83035000D03*
X150795000Y-80495000D03*
X150795000Y-77955000D03*
X150795000Y-75415000D03*
X150795000Y-72875000D03*
D16*
X152500000Y-105060000D03*
D17*
X152500000Y-97440000D03*
D18*
X144000000Y-69500000D03*
D12*
X154500000Y-73000000D03*
D13*
X154500000Y-80500000D03*
D16*
X149942000Y-97488000D03*
D17*
X149942000Y-105108000D03*
D18*
X149750000Y-69500000D03*
X154500000Y-86000000D03*
D19*
X146790000Y-105000000D03*
D20*
X144250000Y-105000000D03*
D19*
X145520000Y-105000000D03*
D12*
X144250000Y-108750000D03*
D13*
X151750000Y-108750000D03*
D21*
X144250000Y-108750000D02*
X144250000Y-105000000D01*
X137710000Y-108750000D02*
X136750000Y-107790000D01*
X144250000Y-108750000D02*
X137710000Y-108750000D01*
X152440000Y-105000000D02*
X152500000Y-105060000D01*
X146790000Y-105000000D02*
X152440000Y-105000000D01*
G04 #@! TA.AperFunction,Conductor*
G36*
X134212894Y-68020185D02*
G01*
X134258649Y-68072989D01*
X134268593Y-68142147D01*
X134265478Y-68156459D01*
X134265590Y-68156487D01*
X134264977Y-68158939D01*
X134264977Y-68158942D01*
X134264976Y-68158946D01*
X134258254Y-68205703D01*
X134244500Y-68301363D01*
X134244500Y-68672000D01*
X134260202Y-68797010D01*
X134260203Y-68797016D01*
X134275368Y-68856432D01*
X134321505Y-68973692D01*
X134407721Y-69088861D01*
X134407725Y-69088866D01*
X134407729Y-69088871D01*
X134457135Y-69138276D01*
X134457136Y-69138277D01*
X134457139Y-69138279D01*
X134572319Y-69224500D01*
X134668832Y-69260496D01*
X134724766Y-69302366D01*
X134749184Y-69367830D01*
X134749500Y-69376678D01*
X134749500Y-71962335D01*
X134729815Y-72029374D01*
X134677011Y-72075129D01*
X134660437Y-72081312D01*
X134612495Y-72095389D01*
X134612492Y-72095391D01*
X134491462Y-72173173D01*
X134491451Y-72173181D01*
X134438659Y-72218925D01*
X134344433Y-72327666D01*
X134344430Y-72327670D01*
X134284664Y-72458536D01*
X134264976Y-72525584D01*
X134244500Y-72668003D01*
X134244500Y-74751316D01*
X134244501Y-74751340D01*
X134251499Y-74835157D01*
X134258316Y-74875699D01*
X134258319Y-74875715D01*
X134279121Y-74957214D01*
X134345047Y-75085094D01*
X134345054Y-75085106D01*
X134385575Y-75142009D01*
X134385579Y-75142014D01*
X134484864Y-75246142D01*
X134484868Y-75246146D01*
X134609460Y-75318081D01*
X134609465Y-75318083D01*
X134609470Y-75318086D01*
X134674334Y-75344054D01*
X134674338Y-75344055D01*
X134678552Y-75345402D01*
X134678227Y-75346417D01*
X134734498Y-75378902D01*
X134766516Y-75441003D01*
X134767697Y-75480660D01*
X134749501Y-75618870D01*
X134749500Y-75618886D01*
X134749500Y-75881113D01*
X134749501Y-75881130D01*
X134767928Y-76021098D01*
X134757162Y-76090133D01*
X134710782Y-76142389D01*
X134679925Y-76156260D01*
X134612496Y-76176059D01*
X134612492Y-76176061D01*
X134491462Y-76253843D01*
X134491451Y-76253851D01*
X134438659Y-76299595D01*
X134344433Y-76408336D01*
X134344430Y-76408340D01*
X134284664Y-76539206D01*
X134264976Y-76606254D01*
X134244500Y-76748673D01*
X134244500Y-79831316D01*
X134244501Y-79831340D01*
X134251499Y-79915157D01*
X134258316Y-79955699D01*
X134258319Y-79955715D01*
X134279121Y-80037214D01*
X134345047Y-80165094D01*
X134345054Y-80165106D01*
X134385575Y-80222009D01*
X134385579Y-80222014D01*
X134484864Y-80326142D01*
X134484868Y-80326146D01*
X134609460Y-80398081D01*
X134609465Y-80398083D01*
X134609470Y-80398086D01*
X134674334Y-80424054D01*
X134674338Y-80424055D01*
X134678552Y-80425402D01*
X134678227Y-80426417D01*
X134734498Y-80458902D01*
X134766516Y-80521003D01*
X134767697Y-80560660D01*
X134749501Y-80698870D01*
X134749500Y-80698886D01*
X134749500Y-80961113D01*
X134749501Y-80961130D01*
X134767928Y-81101098D01*
X134757162Y-81170133D01*
X134710782Y-81222389D01*
X134679925Y-81236260D01*
X134612496Y-81256059D01*
X134612492Y-81256061D01*
X134491462Y-81333843D01*
X134491451Y-81333851D01*
X134438659Y-81379595D01*
X134344433Y-81488336D01*
X134344430Y-81488340D01*
X134284664Y-81619206D01*
X134264976Y-81686254D01*
X134253155Y-81768477D01*
X134248551Y-81800500D01*
X134244500Y-81828673D01*
X134244500Y-84911316D01*
X134244501Y-84911340D01*
X134251499Y-84995157D01*
X134258316Y-85035699D01*
X134258319Y-85035715D01*
X134279121Y-85117214D01*
X134345047Y-85245094D01*
X134345054Y-85245106D01*
X134385575Y-85302009D01*
X134385579Y-85302014D01*
X134484864Y-85406142D01*
X134484868Y-85406146D01*
X134609460Y-85478081D01*
X134609465Y-85478083D01*
X134609470Y-85478086D01*
X134674334Y-85504054D01*
X134674338Y-85504055D01*
X134678552Y-85505402D01*
X134678227Y-85506417D01*
X134734498Y-85538902D01*
X134766516Y-85601003D01*
X134767697Y-85640660D01*
X134749501Y-85778870D01*
X134749500Y-85778886D01*
X134749500Y-86041113D01*
X134749501Y-86041130D01*
X134767928Y-86181098D01*
X134757162Y-86250133D01*
X134710782Y-86302389D01*
X134679925Y-86316260D01*
X134612496Y-86336059D01*
X134612492Y-86336061D01*
X134491462Y-86413843D01*
X134491451Y-86413851D01*
X134438659Y-86459595D01*
X134344433Y-86568336D01*
X134344430Y-86568340D01*
X134284664Y-86699206D01*
X134264976Y-86766254D01*
X134244500Y-86908673D01*
X134244500Y-89991316D01*
X134244501Y-89991340D01*
X134251499Y-90075157D01*
X134258316Y-90115699D01*
X134258319Y-90115715D01*
X134279121Y-90197214D01*
X134345047Y-90325094D01*
X134345054Y-90325106D01*
X134385575Y-90382009D01*
X134385579Y-90382014D01*
X134484864Y-90486142D01*
X134484868Y-90486146D01*
X134609460Y-90558081D01*
X134609465Y-90558083D01*
X134609470Y-90558086D01*
X134674334Y-90584054D01*
X134674338Y-90584055D01*
X134678552Y-90585402D01*
X134678227Y-90586417D01*
X134734498Y-90618902D01*
X134766516Y-90681003D01*
X134767697Y-90720660D01*
X134749501Y-90858870D01*
X134749500Y-90858886D01*
X134749500Y-91121127D01*
X134776123Y-91323339D01*
X134783730Y-91381116D01*
X134851602Y-91634418D01*
X134851605Y-91634428D01*
X134951953Y-91876690D01*
X134951958Y-91876700D01*
X135083075Y-92103803D01*
X135242718Y-92311851D01*
X135242726Y-92311860D01*
X135428140Y-92497274D01*
X135428148Y-92497281D01*
X135636196Y-92656924D01*
X135863299Y-92788041D01*
X135863309Y-92788046D01*
X136105571Y-92888394D01*
X136105581Y-92888398D01*
X136358884Y-92956270D01*
X136618880Y-92990500D01*
X136618887Y-92990500D01*
X136881113Y-92990500D01*
X136881120Y-92990500D01*
X137141116Y-92956270D01*
X137394419Y-92888398D01*
X137636697Y-92788043D01*
X137863803Y-92656924D01*
X138071851Y-92497282D01*
X138071855Y-92497277D01*
X138071860Y-92497274D01*
X138257274Y-92311860D01*
X138257277Y-92311855D01*
X138257282Y-92311851D01*
X138416924Y-92103803D01*
X138548043Y-91876697D01*
X138648398Y-91634419D01*
X138716270Y-91381116D01*
X138750500Y-91121120D01*
X138750500Y-90858880D01*
X138732070Y-90718900D01*
X138742835Y-90649867D01*
X138789214Y-90597611D01*
X138820072Y-90583739D01*
X138887504Y-90563940D01*
X139008543Y-90486152D01*
X139061347Y-90440397D01*
X139155567Y-90331663D01*
X139215338Y-90200786D01*
X139235023Y-90133747D01*
X139235024Y-90133743D01*
X139255500Y-89991327D01*
X139255500Y-86908672D01*
X139248501Y-86824843D01*
X139241681Y-86784287D01*
X139220878Y-86702785D01*
X139220878Y-86702784D01*
X139154952Y-86574904D01*
X139154951Y-86574902D01*
X139150278Y-86568340D01*
X139114605Y-86518244D01*
X139114423Y-86517986D01*
X139097273Y-86500000D01*
X139015131Y-86413852D01*
X138910692Y-86353554D01*
X138890528Y-86341912D01*
X138825663Y-86315944D01*
X138821441Y-86314595D01*
X138821765Y-86313580D01*
X138765492Y-86281086D01*
X138733480Y-86218981D01*
X138732302Y-86179341D01*
X138750500Y-86041120D01*
X138750500Y-85778880D01*
X138732070Y-85638900D01*
X138742835Y-85569867D01*
X138789214Y-85517611D01*
X138820072Y-85503739D01*
X138887504Y-85483940D01*
X139008543Y-85406152D01*
X139061347Y-85360397D01*
X139155567Y-85251663D01*
X139215338Y-85120786D01*
X139235023Y-85053747D01*
X139235024Y-85053743D01*
X139255500Y-84911327D01*
X139255500Y-81828672D01*
X139248501Y-81744843D01*
X139241681Y-81704287D01*
X139220878Y-81622785D01*
X139220878Y-81622784D01*
X139154952Y-81494904D01*
X139154951Y-81494902D01*
X139150278Y-81488340D01*
X139114605Y-81438244D01*
X139114423Y-81437986D01*
X139102744Y-81425737D01*
X139015131Y-81333852D01*
X138988797Y-81318648D01*
X138890528Y-81261912D01*
X138825663Y-81235944D01*
X138821441Y-81234595D01*
X138821765Y-81233580D01*
X138765492Y-81201086D01*
X138733480Y-81138981D01*
X138732302Y-81099341D01*
X138750500Y-80961120D01*
X138750500Y-80698880D01*
X138732070Y-80558900D01*
X138742835Y-80489867D01*
X138789214Y-80437611D01*
X138820072Y-80423739D01*
X138887504Y-80403940D01*
X139008543Y-80326152D01*
X139061347Y-80280397D01*
X139155567Y-80171663D01*
X139215338Y-80040786D01*
X139235023Y-79973747D01*
X139235024Y-79973743D01*
X139255500Y-79831327D01*
X139255500Y-76748672D01*
X139248501Y-76664843D01*
X139241681Y-76624287D01*
X139220878Y-76542785D01*
X139220878Y-76542784D01*
X139154952Y-76414904D01*
X139154951Y-76414902D01*
X139150278Y-76408340D01*
X139114605Y-76358244D01*
X139114423Y-76357986D01*
X139102744Y-76345737D01*
X139015131Y-76253852D01*
X138988797Y-76238648D01*
X138890528Y-76181912D01*
X138825663Y-76155944D01*
X138821441Y-76154595D01*
X138821765Y-76153580D01*
X138765492Y-76121086D01*
X138733480Y-76058981D01*
X138732302Y-76019341D01*
X138750500Y-75881120D01*
X138750500Y-75618880D01*
X138732070Y-75478900D01*
X138742835Y-75409867D01*
X138789214Y-75357611D01*
X138820072Y-75343739D01*
X138887504Y-75323940D01*
X139008543Y-75246152D01*
X139061347Y-75200397D01*
X139155567Y-75091663D01*
X139215338Y-74960786D01*
X139235023Y-74893747D01*
X139235024Y-74893743D01*
X139255500Y-74751327D01*
X139255500Y-74690595D01*
X139275185Y-74623556D01*
X139276326Y-74621812D01*
X139483724Y-74310717D01*
X139537289Y-74265856D01*
X139586898Y-74255500D01*
X141350990Y-74255500D01*
X141351000Y-74255500D01*
X141458456Y-74243947D01*
X141509967Y-74232741D01*
X141544197Y-74221347D01*
X141612497Y-74198616D01*
X141612499Y-74198614D01*
X141612504Y-74198613D01*
X141683004Y-74153304D01*
X141715521Y-74143756D01*
X141747837Y-74133640D01*
X141749186Y-74133871D01*
X141750042Y-74133620D01*
X141782856Y-74138040D01*
X141788187Y-74139502D01*
X141867517Y-74169091D01*
X141914376Y-74174129D01*
X141923997Y-74176769D01*
X141945564Y-74190093D01*
X141968989Y-74199796D01*
X141974788Y-74208148D01*
X141983437Y-74213492D01*
X141994375Y-74236359D01*
X142008838Y-74257188D01*
X142009201Y-74267350D01*
X142013588Y-74276521D01*
X142010427Y-74301672D01*
X142011333Y-74327013D01*
X142006144Y-74335757D01*
X142004877Y-74345846D01*
X141988616Y-74365300D01*
X141975681Y-74387102D01*
X141964071Y-74396666D01*
X141927784Y-74423030D01*
X141783028Y-74567786D01*
X141662715Y-74733386D01*
X141569781Y-74915776D01*
X141506522Y-75110465D01*
X141474500Y-75312648D01*
X141474500Y-75517351D01*
X141506522Y-75719534D01*
X141569781Y-75914223D01*
X141662715Y-76096613D01*
X141783028Y-76262213D01*
X141927786Y-76406971D01*
X142082749Y-76519556D01*
X142093390Y-76527287D01*
X142184840Y-76573883D01*
X142186080Y-76574515D01*
X142236876Y-76622490D01*
X142253671Y-76690311D01*
X142231134Y-76756446D01*
X142186080Y-76795485D01*
X142093386Y-76842715D01*
X141927786Y-76963028D01*
X141783028Y-77107786D01*
X141662715Y-77273386D01*
X141569781Y-77455776D01*
X141506522Y-77650465D01*
X141474500Y-77852648D01*
X141474500Y-78057351D01*
X141506522Y-78259534D01*
X141569781Y-78454223D01*
X141662715Y-78636613D01*
X141783028Y-78802213D01*
X141927786Y-78946971D01*
X142082749Y-79059556D01*
X142093390Y-79067287D01*
X142184840Y-79113883D01*
X142186080Y-79114515D01*
X142236876Y-79162490D01*
X142253671Y-79230311D01*
X142231134Y-79296446D01*
X142186080Y-79335485D01*
X142093386Y-79382715D01*
X141927786Y-79503028D01*
X141783028Y-79647786D01*
X141662715Y-79813386D01*
X141569781Y-79995776D01*
X141506522Y-80190465D01*
X141474500Y-80392648D01*
X141474500Y-80597351D01*
X141506522Y-80799534D01*
X141569781Y-80994223D01*
X141662715Y-81176613D01*
X141783028Y-81342213D01*
X141927786Y-81486971D01*
X142082749Y-81599556D01*
X142093390Y-81607287D01*
X142184840Y-81653883D01*
X142186080Y-81654515D01*
X142236876Y-81702490D01*
X142253671Y-81770311D01*
X142231134Y-81836446D01*
X142186080Y-81875485D01*
X142093386Y-81922715D01*
X141927786Y-82043028D01*
X141783028Y-82187786D01*
X141662715Y-82353386D01*
X141569781Y-82535776D01*
X141506522Y-82730465D01*
X141474500Y-82932648D01*
X141474500Y-83137351D01*
X141506522Y-83339534D01*
X141569781Y-83534223D01*
X141662715Y-83716613D01*
X141783028Y-83882213D01*
X141927786Y-84026971D01*
X142082749Y-84139556D01*
X142093390Y-84147287D01*
X142184840Y-84193883D01*
X142186080Y-84194515D01*
X142236876Y-84242490D01*
X142253671Y-84310311D01*
X142231134Y-84376446D01*
X142186080Y-84415485D01*
X142093386Y-84462715D01*
X141927786Y-84583028D01*
X141783028Y-84727786D01*
X141662715Y-84893386D01*
X141569781Y-85075776D01*
X141506522Y-85270465D01*
X141474500Y-85472648D01*
X141474500Y-85677351D01*
X141506522Y-85879534D01*
X141569781Y-86074223D01*
X141662715Y-86256613D01*
X141783028Y-86422213D01*
X141927786Y-86566971D01*
X142082749Y-86679556D01*
X142093390Y-86687287D01*
X142184840Y-86733883D01*
X142186080Y-86734515D01*
X142236876Y-86782490D01*
X142253671Y-86850311D01*
X142231134Y-86916446D01*
X142186080Y-86955485D01*
X142093386Y-87002715D01*
X141927786Y-87123028D01*
X141783028Y-87267786D01*
X141662715Y-87433386D01*
X141569781Y-87615776D01*
X141506522Y-87810465D01*
X141474500Y-88012648D01*
X141474500Y-88217351D01*
X141506522Y-88419534D01*
X141569781Y-88614223D01*
X141662715Y-88796613D01*
X141783028Y-88962213D01*
X141927786Y-89106971D01*
X142082749Y-89219556D01*
X142093390Y-89227287D01*
X142209607Y-89286503D01*
X142275776Y-89320218D01*
X142275778Y-89320218D01*
X142275781Y-89320220D01*
X142380137Y-89354127D01*
X142470465Y-89383477D01*
X142571557Y-89399488D01*
X142672648Y-89415500D01*
X142672649Y-89415500D01*
X143677351Y-89415500D01*
X143677352Y-89415500D01*
X143879534Y-89383477D01*
X144074219Y-89320220D01*
X144256610Y-89227287D01*
X144349590Y-89159732D01*
X144422213Y-89106971D01*
X144422215Y-89106968D01*
X144422219Y-89106966D01*
X144566966Y-88962219D01*
X144566968Y-88962215D01*
X144566971Y-88962213D01*
X144619732Y-88889590D01*
X144687287Y-88796610D01*
X144780220Y-88614219D01*
X144843477Y-88419534D01*
X144875500Y-88217352D01*
X144875500Y-88012648D01*
X144843477Y-87810466D01*
X144780220Y-87615781D01*
X144780218Y-87615778D01*
X144780218Y-87615776D01*
X144746503Y-87549607D01*
X144687287Y-87433390D01*
X144655837Y-87390102D01*
X144566971Y-87267786D01*
X144422213Y-87123028D01*
X144256614Y-87002715D01*
X144250006Y-86999348D01*
X144163917Y-86955483D01*
X144113123Y-86907511D01*
X144096328Y-86839690D01*
X144118865Y-86773555D01*
X144163917Y-86734516D01*
X144256610Y-86687287D01*
X144277770Y-86671913D01*
X144422213Y-86566971D01*
X144422215Y-86566968D01*
X144422219Y-86566966D01*
X144566966Y-86422219D01*
X144566968Y-86422215D01*
X144566971Y-86422213D01*
X144643949Y-86316260D01*
X144687287Y-86256610D01*
X144780220Y-86074219D01*
X144843477Y-85879534D01*
X144875500Y-85677352D01*
X144875500Y-85472648D01*
X144843477Y-85270466D01*
X144780220Y-85075781D01*
X144780218Y-85075778D01*
X144780218Y-85075776D01*
X144739139Y-84995156D01*
X144687287Y-84893390D01*
X144679556Y-84882749D01*
X144566971Y-84727786D01*
X144422213Y-84583028D01*
X144256614Y-84462715D01*
X144250006Y-84459348D01*
X144163917Y-84415483D01*
X144113123Y-84367511D01*
X144096328Y-84299690D01*
X144118865Y-84233555D01*
X144163917Y-84194516D01*
X144256610Y-84147287D01*
X144277770Y-84131913D01*
X144422213Y-84026971D01*
X144422215Y-84026968D01*
X144422219Y-84026966D01*
X144566966Y-83882219D01*
X144566968Y-83882215D01*
X144566971Y-83882213D01*
X144619732Y-83809590D01*
X144687287Y-83716610D01*
X144780220Y-83534219D01*
X144843477Y-83339534D01*
X144875500Y-83137352D01*
X144875500Y-82932648D01*
X144843477Y-82730466D01*
X144780220Y-82535781D01*
X144780218Y-82535778D01*
X144780218Y-82535776D01*
X144746503Y-82469607D01*
X144687287Y-82353390D01*
X144679556Y-82342749D01*
X144566971Y-82187786D01*
X144422213Y-82043028D01*
X144256614Y-81922715D01*
X144250006Y-81919348D01*
X144163917Y-81875483D01*
X144113123Y-81827511D01*
X144096328Y-81759690D01*
X144118865Y-81693555D01*
X144163917Y-81654516D01*
X144256610Y-81607287D01*
X144277770Y-81591913D01*
X144422213Y-81486971D01*
X144422215Y-81486968D01*
X144422219Y-81486966D01*
X144566966Y-81342219D01*
X144566968Y-81342215D01*
X144566971Y-81342213D01*
X144643949Y-81236260D01*
X144687287Y-81176610D01*
X144780220Y-80994219D01*
X144843477Y-80799534D01*
X144875500Y-80597352D01*
X144875500Y-80392648D01*
X144843477Y-80190466D01*
X144780220Y-79995781D01*
X144780218Y-79995778D01*
X144780218Y-79995776D01*
X144739139Y-79915156D01*
X144687287Y-79813390D01*
X144679556Y-79802749D01*
X144566971Y-79647786D01*
X144422213Y-79503028D01*
X144256614Y-79382715D01*
X144250006Y-79379348D01*
X144163917Y-79335483D01*
X144113123Y-79287511D01*
X144096328Y-79219690D01*
X144118865Y-79153555D01*
X144163917Y-79114516D01*
X144256610Y-79067287D01*
X144277770Y-79051913D01*
X144422213Y-78946971D01*
X144422215Y-78946968D01*
X144422219Y-78946966D01*
X144566966Y-78802219D01*
X144566968Y-78802215D01*
X144566971Y-78802213D01*
X144619732Y-78729590D01*
X144687287Y-78636610D01*
X144780220Y-78454219D01*
X144843477Y-78259534D01*
X144875500Y-78057352D01*
X144875500Y-77852648D01*
X144843477Y-77650466D01*
X144780220Y-77455781D01*
X144780218Y-77455778D01*
X144780218Y-77455776D01*
X144746503Y-77389607D01*
X144687287Y-77273390D01*
X144679556Y-77262749D01*
X144566971Y-77107786D01*
X144422213Y-76963028D01*
X144256614Y-76842715D01*
X144250006Y-76839348D01*
X144163917Y-76795483D01*
X144113123Y-76747511D01*
X144096328Y-76679690D01*
X144118865Y-76613555D01*
X144163917Y-76574516D01*
X144256610Y-76527287D01*
X144277770Y-76511913D01*
X144422213Y-76406971D01*
X144422215Y-76406968D01*
X144422219Y-76406966D01*
X144566966Y-76262219D01*
X144566968Y-76262215D01*
X144566971Y-76262213D01*
X144643949Y-76156260D01*
X144687287Y-76096610D01*
X144780220Y-75914219D01*
X144843477Y-75719534D01*
X144875500Y-75517352D01*
X144875500Y-75312648D01*
X149094500Y-75312648D01*
X149094500Y-75517351D01*
X149126522Y-75719534D01*
X149189781Y-75914223D01*
X149282715Y-76096613D01*
X149403028Y-76262213D01*
X149547786Y-76406971D01*
X149702749Y-76519556D01*
X149713390Y-76527287D01*
X149804840Y-76573883D01*
X149806080Y-76574515D01*
X149856876Y-76622490D01*
X149873671Y-76690311D01*
X149851134Y-76756446D01*
X149806080Y-76795485D01*
X149713386Y-76842715D01*
X149547786Y-76963028D01*
X149403028Y-77107786D01*
X149282715Y-77273386D01*
X149189781Y-77455776D01*
X149126522Y-77650465D01*
X149094500Y-77852648D01*
X149094500Y-78057351D01*
X149126522Y-78259534D01*
X149189781Y-78454223D01*
X149282715Y-78636613D01*
X149403028Y-78802213D01*
X149547786Y-78946971D01*
X149702749Y-79059556D01*
X149713390Y-79067287D01*
X149804840Y-79113883D01*
X149806080Y-79114515D01*
X149856876Y-79162490D01*
X149873671Y-79230311D01*
X149851134Y-79296446D01*
X149806080Y-79335485D01*
X149713386Y-79382715D01*
X149547786Y-79503028D01*
X149403028Y-79647786D01*
X149282715Y-79813386D01*
X149189781Y-79995776D01*
X149126522Y-80190465D01*
X149094500Y-80392648D01*
X149094500Y-80597351D01*
X149126522Y-80799534D01*
X149189781Y-80994223D01*
X149282715Y-81176613D01*
X149403028Y-81342213D01*
X149547786Y-81486971D01*
X149702749Y-81599556D01*
X149713390Y-81607287D01*
X149804840Y-81653883D01*
X149806080Y-81654515D01*
X149856876Y-81702490D01*
X149873671Y-81770311D01*
X149851134Y-81836446D01*
X149806080Y-81875485D01*
X149713386Y-81922715D01*
X149547786Y-82043028D01*
X149403028Y-82187786D01*
X149282715Y-82353386D01*
X149189781Y-82535776D01*
X149126522Y-82730465D01*
X149094500Y-82932648D01*
X149094500Y-83137351D01*
X149126522Y-83339534D01*
X149189781Y-83534223D01*
X149282715Y-83716613D01*
X149403028Y-83882213D01*
X149547786Y-84026971D01*
X149702749Y-84139556D01*
X149713390Y-84147287D01*
X149804840Y-84193883D01*
X149806080Y-84194515D01*
X149856876Y-84242490D01*
X149873671Y-84310311D01*
X149851134Y-84376446D01*
X149806080Y-84415485D01*
X149713386Y-84462715D01*
X149547786Y-84583028D01*
X149403028Y-84727786D01*
X149282715Y-84893386D01*
X149189781Y-85075776D01*
X149126522Y-85270465D01*
X149094500Y-85472648D01*
X149094500Y-85677351D01*
X149126522Y-85879534D01*
X149189781Y-86074223D01*
X149282715Y-86256613D01*
X149403028Y-86422213D01*
X149547786Y-86566971D01*
X149702749Y-86679556D01*
X149713390Y-86687287D01*
X149804840Y-86733883D01*
X149806080Y-86734515D01*
X149856876Y-86782490D01*
X149873671Y-86850311D01*
X149851134Y-86916446D01*
X149806080Y-86955485D01*
X149713386Y-87002715D01*
X149547786Y-87123028D01*
X149403028Y-87267786D01*
X149282715Y-87433386D01*
X149189781Y-87615776D01*
X149126522Y-87810465D01*
X149094500Y-88012648D01*
X149094500Y-88217351D01*
X149126522Y-88419534D01*
X149189781Y-88614223D01*
X149282715Y-88796613D01*
X149403028Y-88962213D01*
X149547786Y-89106971D01*
X149702749Y-89219556D01*
X149713390Y-89227287D01*
X149829607Y-89286503D01*
X149895776Y-89320218D01*
X149895778Y-89320218D01*
X149895781Y-89320220D01*
X150000137Y-89354127D01*
X150090465Y-89383477D01*
X150191557Y-89399488D01*
X150292648Y-89415500D01*
X150292649Y-89415500D01*
X151297351Y-89415500D01*
X151297352Y-89415500D01*
X151499534Y-89383477D01*
X151694219Y-89320220D01*
X151876610Y-89227287D01*
X151969590Y-89159732D01*
X152042213Y-89106971D01*
X152042215Y-89106968D01*
X152042219Y-89106966D01*
X152186966Y-88962219D01*
X152186968Y-88962215D01*
X152186971Y-88962213D01*
X152239732Y-88889590D01*
X152307287Y-88796610D01*
X152400220Y-88614219D01*
X152463477Y-88419534D01*
X152495500Y-88217352D01*
X152495500Y-88012648D01*
X152463477Y-87810466D01*
X152400220Y-87615781D01*
X152400218Y-87615778D01*
X152400218Y-87615776D01*
X152366503Y-87549607D01*
X152307287Y-87433390D01*
X152275837Y-87390102D01*
X152186971Y-87267786D01*
X152042213Y-87123028D01*
X151876614Y-87002715D01*
X151870006Y-86999348D01*
X151783917Y-86955483D01*
X151733123Y-86907511D01*
X151716328Y-86839690D01*
X151738865Y-86773555D01*
X151783917Y-86734516D01*
X151876610Y-86687287D01*
X151897770Y-86671913D01*
X152042213Y-86566971D01*
X152042215Y-86566968D01*
X152042219Y-86566966D01*
X152186966Y-86422219D01*
X152186968Y-86422215D01*
X152186971Y-86422213D01*
X152263949Y-86316260D01*
X152307287Y-86256610D01*
X152400220Y-86074219D01*
X152462693Y-85881947D01*
X153000000Y-85881947D01*
X153000000Y-86118052D01*
X153036934Y-86351247D01*
X153109896Y-86575800D01*
X153217087Y-86786174D01*
X153277338Y-86869104D01*
X153277340Y-86869105D01*
X154017037Y-86129408D01*
X154034075Y-86192993D01*
X154099901Y-86307007D01*
X154192993Y-86400099D01*
X154307007Y-86465925D01*
X154370590Y-86482962D01*
X153630893Y-87222658D01*
X153713828Y-87282914D01*
X153924197Y-87390102D01*
X154148752Y-87463065D01*
X154148751Y-87463065D01*
X154381948Y-87500000D01*
X154618052Y-87500000D01*
X154851247Y-87463065D01*
X155075802Y-87390102D01*
X155286163Y-87282918D01*
X155286169Y-87282914D01*
X155369104Y-87222658D01*
X155369105Y-87222658D01*
X154629408Y-86482962D01*
X154692993Y-86465925D01*
X154807007Y-86400099D01*
X154900099Y-86307007D01*
X154965925Y-86192993D01*
X154982962Y-86129409D01*
X155722658Y-86869105D01*
X155722658Y-86869104D01*
X155782914Y-86786169D01*
X155782918Y-86786163D01*
X155890104Y-86575800D01*
X155963065Y-86351247D01*
X156000000Y-86118052D01*
X156000000Y-85881947D01*
X155963065Y-85648752D01*
X155890102Y-85424197D01*
X155782914Y-85213828D01*
X155722658Y-85130894D01*
X155722658Y-85130893D01*
X154982962Y-85870590D01*
X154965925Y-85807007D01*
X154900099Y-85692993D01*
X154807007Y-85599901D01*
X154692993Y-85534075D01*
X154629409Y-85517037D01*
X155369105Y-84777340D01*
X155369104Y-84777338D01*
X155286174Y-84717087D01*
X155075802Y-84609897D01*
X154851247Y-84536934D01*
X154851248Y-84536934D01*
X154618052Y-84500000D01*
X154381948Y-84500000D01*
X154148752Y-84536934D01*
X153924197Y-84609897D01*
X153713830Y-84717084D01*
X153630894Y-84777340D01*
X154370591Y-85517037D01*
X154307007Y-85534075D01*
X154192993Y-85599901D01*
X154099901Y-85692993D01*
X154034075Y-85807007D01*
X154017037Y-85870591D01*
X153277340Y-85130894D01*
X153217084Y-85213830D01*
X153109897Y-85424197D01*
X153036934Y-85648752D01*
X153000000Y-85881947D01*
X152462693Y-85881947D01*
X152463477Y-85879534D01*
X152495500Y-85677352D01*
X152495500Y-85472648D01*
X152463477Y-85270466D01*
X152400220Y-85075781D01*
X152400218Y-85075778D01*
X152400218Y-85075776D01*
X152316425Y-84911325D01*
X152307287Y-84893390D01*
X152307283Y-84893384D01*
X152186971Y-84727786D01*
X152042213Y-84583028D01*
X151876614Y-84462715D01*
X151870006Y-84459348D01*
X151783917Y-84415483D01*
X151733123Y-84367511D01*
X151716328Y-84299690D01*
X151738865Y-84233555D01*
X151783917Y-84194516D01*
X151876610Y-84147287D01*
X151897770Y-84131913D01*
X152042213Y-84026971D01*
X152042215Y-84026968D01*
X152042219Y-84026966D01*
X152186966Y-83882219D01*
X152186968Y-83882215D01*
X152186971Y-83882213D01*
X152239732Y-83809590D01*
X152307287Y-83716610D01*
X152400220Y-83534219D01*
X152463477Y-83339534D01*
X152495500Y-83137352D01*
X152495500Y-82932648D01*
X152463477Y-82730466D01*
X152400220Y-82535781D01*
X152400218Y-82535778D01*
X152400218Y-82535776D01*
X152366503Y-82469607D01*
X152307287Y-82353390D01*
X152299556Y-82342749D01*
X152186971Y-82187786D01*
X152042213Y-82043028D01*
X151876614Y-81922715D01*
X151870006Y-81919348D01*
X151783917Y-81875483D01*
X151733123Y-81827511D01*
X151716328Y-81759690D01*
X151738865Y-81693555D01*
X151783917Y-81654516D01*
X151876610Y-81607287D01*
X151897770Y-81591913D01*
X152042213Y-81486971D01*
X152042215Y-81486968D01*
X152042219Y-81486966D01*
X152186966Y-81342219D01*
X152186968Y-81342215D01*
X152186971Y-81342213D01*
X152263949Y-81236260D01*
X152307287Y-81176610D01*
X152400220Y-80994219D01*
X152463477Y-80799534D01*
X152495500Y-80597352D01*
X152495500Y-80397648D01*
X153199500Y-80397648D01*
X153199500Y-80602351D01*
X153231522Y-80804534D01*
X153294781Y-80999223D01*
X153345792Y-81099336D01*
X153385165Y-81176610D01*
X153387715Y-81181613D01*
X153508028Y-81347213D01*
X153652786Y-81491971D01*
X153807749Y-81604556D01*
X153818390Y-81612287D01*
X153934607Y-81671503D01*
X154000776Y-81705218D01*
X154000778Y-81705218D01*
X154000781Y-81705220D01*
X154105137Y-81739127D01*
X154195465Y-81768477D01*
X154296557Y-81784488D01*
X154397648Y-81800500D01*
X154397649Y-81800500D01*
X154602351Y-81800500D01*
X154602352Y-81800500D01*
X154804534Y-81768477D01*
X154999219Y-81705220D01*
X155181610Y-81612287D01*
X155274590Y-81544732D01*
X155347213Y-81491971D01*
X155347215Y-81491968D01*
X155347219Y-81491966D01*
X155491966Y-81347219D01*
X155491968Y-81347215D01*
X155491971Y-81347213D01*
X155553945Y-81261912D01*
X155612287Y-81181610D01*
X155705220Y-80999219D01*
X155768477Y-80804534D01*
X155800500Y-80602352D01*
X155800500Y-80397648D01*
X155768477Y-80195466D01*
X155766852Y-80190466D01*
X155705218Y-80000776D01*
X155618885Y-79831340D01*
X155612287Y-79818390D01*
X155604556Y-79807749D01*
X155491971Y-79652786D01*
X155347213Y-79508028D01*
X155181613Y-79387715D01*
X155181612Y-79387714D01*
X155181610Y-79387713D01*
X155124653Y-79358691D01*
X154999223Y-79294781D01*
X154804534Y-79231522D01*
X154629995Y-79203878D01*
X154602352Y-79199500D01*
X154397648Y-79199500D01*
X154373329Y-79203351D01*
X154195465Y-79231522D01*
X154000776Y-79294781D01*
X153818386Y-79387715D01*
X153652786Y-79508028D01*
X153508028Y-79652786D01*
X153387715Y-79818386D01*
X153294781Y-80000776D01*
X153231522Y-80195465D01*
X153199500Y-80397648D01*
X152495500Y-80397648D01*
X152495500Y-80392648D01*
X152463477Y-80190466D01*
X152400220Y-79995781D01*
X152400218Y-79995778D01*
X152400218Y-79995776D01*
X152359139Y-79915156D01*
X152307287Y-79813390D01*
X152299556Y-79802749D01*
X152186971Y-79647786D01*
X152042213Y-79503028D01*
X151876614Y-79382715D01*
X151870006Y-79379348D01*
X151783917Y-79335483D01*
X151733123Y-79287511D01*
X151716328Y-79219690D01*
X151738865Y-79153555D01*
X151783917Y-79114516D01*
X151876610Y-79067287D01*
X151897770Y-79051913D01*
X152042213Y-78946971D01*
X152042215Y-78946968D01*
X152042219Y-78946966D01*
X152186966Y-78802219D01*
X152186968Y-78802215D01*
X152186971Y-78802213D01*
X152239732Y-78729590D01*
X152307287Y-78636610D01*
X152400220Y-78454219D01*
X152463477Y-78259534D01*
X152495500Y-78057352D01*
X152495500Y-77852648D01*
X152463477Y-77650466D01*
X152400220Y-77455781D01*
X152400218Y-77455778D01*
X152400218Y-77455776D01*
X152366503Y-77389607D01*
X152307287Y-77273390D01*
X152299556Y-77262749D01*
X152186971Y-77107786D01*
X152042213Y-76963028D01*
X151876614Y-76842715D01*
X151870006Y-76839348D01*
X151783917Y-76795483D01*
X151733123Y-76747511D01*
X151716328Y-76679690D01*
X151738865Y-76613555D01*
X151783917Y-76574516D01*
X151876610Y-76527287D01*
X151897770Y-76511913D01*
X152042213Y-76406971D01*
X152042215Y-76406968D01*
X152042219Y-76406966D01*
X152186966Y-76262219D01*
X152186968Y-76262215D01*
X152186971Y-76262213D01*
X152263949Y-76156260D01*
X152307287Y-76096610D01*
X152400220Y-75914219D01*
X152463477Y-75719534D01*
X152495500Y-75517352D01*
X152495500Y-75312648D01*
X152463477Y-75110466D01*
X152400220Y-74915781D01*
X152400218Y-74915778D01*
X152400218Y-74915776D01*
X152359139Y-74835156D01*
X152307287Y-74733390D01*
X152227489Y-74623556D01*
X152186971Y-74567786D01*
X152042213Y-74423028D01*
X151876611Y-74302713D01*
X151783369Y-74255203D01*
X151777582Y-74249737D01*
X151770003Y-74247302D01*
X151752544Y-74226090D01*
X151732574Y-74207229D01*
X151730660Y-74199502D01*
X151725601Y-74193355D01*
X151722381Y-74166070D01*
X151715779Y-74139407D01*
X151718346Y-74131872D01*
X151717414Y-74123967D01*
X151729455Y-74099274D01*
X151738317Y-74073273D01*
X151745331Y-74066721D01*
X151748040Y-74061167D01*
X151765651Y-74047741D01*
X151775291Y-74038738D01*
X151956139Y-73928888D01*
X152041889Y-73866587D01*
X152041895Y-73866582D01*
X152186582Y-73721895D01*
X152186582Y-73721894D01*
X152306859Y-73556349D01*
X152399755Y-73374029D01*
X152462990Y-73179413D01*
X152471609Y-73125000D01*
X151110686Y-73125000D01*
X151115080Y-73120606D01*
X151167741Y-73029394D01*
X151195000Y-72927661D01*
X151195000Y-72897682D01*
X153200000Y-72897682D01*
X153200000Y-73102317D01*
X153232009Y-73304417D01*
X153295244Y-73499031D01*
X153388141Y-73681350D01*
X153388147Y-73681359D01*
X153420523Y-73725921D01*
X153420524Y-73725922D01*
X154100000Y-73046446D01*
X154100000Y-73052661D01*
X154127259Y-73154394D01*
X154179920Y-73245606D01*
X154254394Y-73320080D01*
X154345606Y-73372741D01*
X154447339Y-73400000D01*
X154453553Y-73400000D01*
X153774076Y-74079474D01*
X153818650Y-74111859D01*
X154000968Y-74204755D01*
X154195582Y-74267990D01*
X154397683Y-74300000D01*
X154602317Y-74300000D01*
X154804417Y-74267990D01*
X154999031Y-74204755D01*
X155181349Y-74111859D01*
X155225921Y-74079474D01*
X154546447Y-73400000D01*
X154552661Y-73400000D01*
X154654394Y-73372741D01*
X154745606Y-73320080D01*
X154820080Y-73245606D01*
X154872741Y-73154394D01*
X154900000Y-73052661D01*
X154900000Y-73046448D01*
X155579474Y-73725922D01*
X155579474Y-73725921D01*
X155611859Y-73681349D01*
X155704755Y-73499031D01*
X155767990Y-73304417D01*
X155800000Y-73102317D01*
X155800000Y-72897682D01*
X155767990Y-72695582D01*
X155704755Y-72500968D01*
X155611859Y-72318650D01*
X155579474Y-72274077D01*
X155579474Y-72274076D01*
X154900000Y-72953551D01*
X154900000Y-72947339D01*
X154872741Y-72845606D01*
X154820080Y-72754394D01*
X154745606Y-72679920D01*
X154654394Y-72627259D01*
X154552661Y-72600000D01*
X154546446Y-72600000D01*
X155225922Y-71920524D01*
X155225921Y-71920523D01*
X155181359Y-71888147D01*
X155181350Y-71888141D01*
X154999031Y-71795244D01*
X154804417Y-71732009D01*
X154602317Y-71700000D01*
X154397683Y-71700000D01*
X154195582Y-71732009D01*
X154000968Y-71795244D01*
X153818644Y-71888143D01*
X153774077Y-71920523D01*
X153774077Y-71920524D01*
X154453554Y-72600000D01*
X154447339Y-72600000D01*
X154345606Y-72627259D01*
X154254394Y-72679920D01*
X154179920Y-72754394D01*
X154127259Y-72845606D01*
X154100000Y-72947339D01*
X154100000Y-72953553D01*
X153420524Y-72274077D01*
X153420523Y-72274077D01*
X153388143Y-72318644D01*
X153295244Y-72500968D01*
X153232009Y-72695582D01*
X153200000Y-72897682D01*
X151195000Y-72897682D01*
X151195000Y-72822339D01*
X151167741Y-72720606D01*
X151115080Y-72629394D01*
X151110686Y-72625000D01*
X152471609Y-72625000D01*
X152462990Y-72570586D01*
X152399755Y-72375970D01*
X152306859Y-72193650D01*
X152195711Y-72040669D01*
X152195710Y-72040667D01*
X152186587Y-72028110D01*
X152186582Y-72028104D01*
X152041895Y-71883417D01*
X151876349Y-71763140D01*
X151694031Y-71670244D01*
X151499417Y-71607009D01*
X151297317Y-71575000D01*
X151045000Y-71575000D01*
X151045000Y-72559314D01*
X151040606Y-72554920D01*
X150949394Y-72502259D01*
X150847661Y-72475000D01*
X150742339Y-72475000D01*
X150640606Y-72502259D01*
X150549394Y-72554920D01*
X150545000Y-72559314D01*
X150545000Y-71575000D01*
X150292683Y-71575000D01*
X150090582Y-71607009D01*
X149895968Y-71670244D01*
X149713650Y-71763140D01*
X149548105Y-71883417D01*
X149548104Y-71883417D01*
X149403417Y-72028104D01*
X149403417Y-72028105D01*
X149283140Y-72193650D01*
X149190244Y-72375970D01*
X149127009Y-72570586D01*
X149118391Y-72625000D01*
X150479314Y-72625000D01*
X150474920Y-72629394D01*
X150422259Y-72720606D01*
X150395000Y-72822339D01*
X150395000Y-72927661D01*
X150422259Y-73029394D01*
X150474920Y-73120606D01*
X150479314Y-73125000D01*
X149118391Y-73125000D01*
X149127009Y-73179413D01*
X149190244Y-73374029D01*
X149283140Y-73556349D01*
X149403417Y-73721894D01*
X149403417Y-73721895D01*
X149548104Y-73866582D01*
X149713652Y-73986861D01*
X149806628Y-74034234D01*
X149857425Y-74082208D01*
X149874220Y-74150029D01*
X149851683Y-74216164D01*
X149806630Y-74255203D01*
X149713388Y-74302713D01*
X149547786Y-74423028D01*
X149403028Y-74567786D01*
X149282715Y-74733386D01*
X149189781Y-74915776D01*
X149126522Y-75110465D01*
X149094500Y-75312648D01*
X144875500Y-75312648D01*
X144843477Y-75110466D01*
X144780220Y-74915781D01*
X144780218Y-74915778D01*
X144780218Y-74915776D01*
X144739139Y-74835156D01*
X144687287Y-74733390D01*
X144607489Y-74623556D01*
X144566971Y-74567786D01*
X144422219Y-74423034D01*
X144385930Y-74396669D01*
X144343264Y-74341339D01*
X144337285Y-74271726D01*
X144369890Y-74209931D01*
X144430728Y-74175573D01*
X144445562Y-74173060D01*
X144482483Y-74169091D01*
X144617328Y-74118797D01*
X144617327Y-74118797D01*
X144617331Y-74118796D01*
X144732546Y-74032546D01*
X144818796Y-73917331D01*
X144869091Y-73782483D01*
X144875500Y-73722873D01*
X144875499Y-72027128D01*
X144875499Y-72023807D01*
X144876713Y-72023807D01*
X144891641Y-71960612D01*
X144921549Y-71925448D01*
X144939969Y-71910591D01*
X144987556Y-71859432D01*
X145069559Y-71741211D01*
X145334654Y-71211021D01*
X145356817Y-71159808D01*
X145366272Y-71134161D01*
X145382653Y-71080823D01*
X145397012Y-70937661D01*
X145394134Y-70870514D01*
X145394093Y-70868639D01*
X145394020Y-70867853D01*
X145394020Y-70867845D01*
X145367461Y-70726438D01*
X145302139Y-70598240D01*
X145285217Y-70574237D01*
X145261888Y-70541143D01*
X145261879Y-70541132D01*
X145240059Y-70518029D01*
X145208339Y-70455775D01*
X145215311Y-70386254D01*
X145229885Y-70360009D01*
X145283343Y-70286433D01*
X145390568Y-70075992D01*
X145463553Y-69851368D01*
X145500500Y-69618097D01*
X145500500Y-69381902D01*
X145463553Y-69148631D01*
X145406711Y-68973692D01*
X145390568Y-68924008D01*
X145390566Y-68924005D01*
X145390566Y-68924003D01*
X145283342Y-68713566D01*
X145144517Y-68522490D01*
X144977510Y-68355483D01*
X144797664Y-68224816D01*
X144755000Y-68169488D01*
X144749021Y-68099874D01*
X144781627Y-68038080D01*
X144842466Y-68003722D01*
X144870551Y-68000500D01*
X148879449Y-68000500D01*
X148946488Y-68020185D01*
X148992243Y-68072989D01*
X149002187Y-68142147D01*
X148973162Y-68205703D01*
X148952337Y-68224815D01*
X148772490Y-68355483D01*
X148772488Y-68355485D01*
X148772487Y-68355485D01*
X148605485Y-68522487D01*
X148605485Y-68522488D01*
X148605483Y-68522490D01*
X148545862Y-68604550D01*
X148466657Y-68713566D01*
X148359433Y-68924003D01*
X148286446Y-69148631D01*
X148249500Y-69381902D01*
X148249500Y-69618097D01*
X148286446Y-69851368D01*
X148359433Y-70075996D01*
X148466653Y-70286425D01*
X148466657Y-70286433D01*
X148605483Y-70477510D01*
X148772490Y-70644517D01*
X148963567Y-70783343D01*
X149062991Y-70834002D01*
X149174003Y-70890566D01*
X149174005Y-70890566D01*
X149174008Y-70890568D01*
X149294412Y-70929689D01*
X149398631Y-70963553D01*
X149631903Y-71000500D01*
X149631908Y-71000500D01*
X149868097Y-71000500D01*
X150101368Y-70963553D01*
X150325992Y-70890568D01*
X150536433Y-70783343D01*
X150727510Y-70644517D01*
X150894517Y-70477510D01*
X151033343Y-70286433D01*
X151140568Y-70075992D01*
X151213553Y-69851368D01*
X151250500Y-69618097D01*
X151250500Y-69381902D01*
X151213553Y-69148631D01*
X151156711Y-68973692D01*
X151140568Y-68924008D01*
X151140566Y-68924005D01*
X151140566Y-68924003D01*
X151033342Y-68713566D01*
X150894517Y-68522490D01*
X150727510Y-68355483D01*
X150547664Y-68224816D01*
X150505000Y-68169488D01*
X150499021Y-68099874D01*
X150531627Y-68038080D01*
X150592466Y-68003722D01*
X150620551Y-68000500D01*
X156875500Y-68000500D01*
X156942539Y-68020185D01*
X156988294Y-68072989D01*
X156999500Y-68124500D01*
X156999500Y-101375191D01*
X156979815Y-101442230D01*
X156927011Y-101487985D01*
X156857853Y-101497929D01*
X156794297Y-101468904D01*
X156757569Y-101413510D01*
X156704755Y-101250968D01*
X156611859Y-101068650D01*
X156579474Y-101024077D01*
X156579474Y-101024076D01*
X155900000Y-101703551D01*
X155900000Y-101697339D01*
X155872741Y-101595606D01*
X155820080Y-101504394D01*
X155745606Y-101429920D01*
X155654394Y-101377259D01*
X155552661Y-101350000D01*
X155546446Y-101350000D01*
X156225922Y-100670524D01*
X156225921Y-100670523D01*
X156181359Y-100638147D01*
X156181350Y-100638141D01*
X155999031Y-100545244D01*
X155804417Y-100482009D01*
X155602317Y-100450000D01*
X155397683Y-100450000D01*
X155195582Y-100482009D01*
X155000968Y-100545244D01*
X154818644Y-100638143D01*
X154774077Y-100670523D01*
X154774077Y-100670524D01*
X155453554Y-101350000D01*
X155447339Y-101350000D01*
X155345606Y-101377259D01*
X155254394Y-101429920D01*
X155179920Y-101504394D01*
X155127259Y-101595606D01*
X155100000Y-101697339D01*
X155100000Y-101703553D01*
X154420524Y-101024077D01*
X154420523Y-101024077D01*
X154388143Y-101068644D01*
X154295244Y-101250968D01*
X154232009Y-101445582D01*
X154200000Y-101647682D01*
X154200000Y-101852317D01*
X154232009Y-102054417D01*
X154295244Y-102249031D01*
X154388141Y-102431350D01*
X154388147Y-102431359D01*
X154420523Y-102475921D01*
X154420524Y-102475922D01*
X155100000Y-101796446D01*
X155100000Y-101802661D01*
X155127259Y-101904394D01*
X155179920Y-101995606D01*
X155254394Y-102070080D01*
X155345606Y-102122741D01*
X155447339Y-102150000D01*
X155453553Y-102150000D01*
X154774076Y-102829474D01*
X154818650Y-102861859D01*
X155000968Y-102954755D01*
X155195582Y-103017990D01*
X155397683Y-103050000D01*
X155602317Y-103050000D01*
X155804417Y-103017990D01*
X155999031Y-102954755D01*
X156181349Y-102861859D01*
X156225921Y-102829474D01*
X155546447Y-102150000D01*
X155552661Y-102150000D01*
X155654394Y-102122741D01*
X155745606Y-102070080D01*
X155820080Y-101995606D01*
X155872741Y-101904394D01*
X155900000Y-101802661D01*
X155900000Y-101796447D01*
X156579474Y-102475921D01*
X156611859Y-102431349D01*
X156704754Y-102249031D01*
X156757569Y-102086489D01*
X156797007Y-102028814D01*
X156861366Y-102001616D01*
X156930212Y-102013531D01*
X156981688Y-102060775D01*
X156999500Y-102124808D01*
X156999500Y-108873575D01*
X156979815Y-108940614D01*
X156927011Y-108986369D01*
X156857853Y-108996313D01*
X156794297Y-108967288D01*
X156757569Y-108911894D01*
X156705218Y-108750776D01*
X156652671Y-108647648D01*
X156612287Y-108568390D01*
X156604556Y-108557749D01*
X156491971Y-108402786D01*
X156347213Y-108258028D01*
X156181613Y-108137715D01*
X156181612Y-108137714D01*
X156181610Y-108137713D01*
X156124653Y-108108691D01*
X155999223Y-108044781D01*
X155804534Y-107981522D01*
X155629995Y-107953878D01*
X155602352Y-107949500D01*
X155397648Y-107949500D01*
X155373329Y-107953351D01*
X155195465Y-107981522D01*
X155000776Y-108044781D01*
X154818386Y-108137715D01*
X154652786Y-108258028D01*
X154508028Y-108402786D01*
X154387715Y-108568386D01*
X154294781Y-108750776D01*
X154231522Y-108945465D01*
X154199500Y-109147648D01*
X154199500Y-109352351D01*
X154231522Y-109554534D01*
X154294781Y-109749223D01*
X154387715Y-109931613D01*
X154508028Y-110097213D01*
X154652786Y-110241971D01*
X154698498Y-110275182D01*
X154741164Y-110330511D01*
X154747143Y-110400125D01*
X154714538Y-110461920D01*
X154653699Y-110496277D01*
X154625613Y-110499500D01*
X132874500Y-110499500D01*
X132807461Y-110479815D01*
X132761706Y-110427011D01*
X132750500Y-110375500D01*
X132750500Y-106242135D01*
X134749500Y-106242135D01*
X134749500Y-109337870D01*
X134749501Y-109337876D01*
X134755908Y-109397483D01*
X134806202Y-109532328D01*
X134806206Y-109532335D01*
X134892452Y-109647544D01*
X134892455Y-109647547D01*
X135007664Y-109733793D01*
X135007671Y-109733797D01*
X135142517Y-109784091D01*
X135142516Y-109784091D01*
X135149444Y-109784835D01*
X135202127Y-109790500D01*
X138297872Y-109790499D01*
X138357483Y-109784091D01*
X138426584Y-109758318D01*
X138469917Y-109750500D01*
X143374238Y-109750500D01*
X143441277Y-109770185D01*
X143447119Y-109774179D01*
X143568390Y-109862287D01*
X143684607Y-109921503D01*
X143750776Y-109955218D01*
X143750778Y-109955218D01*
X143750781Y-109955220D01*
X143855137Y-109989127D01*
X143945465Y-110018477D01*
X144046557Y-110034488D01*
X144147648Y-110050500D01*
X144147649Y-110050500D01*
X144352351Y-110050500D01*
X144352352Y-110050500D01*
X144554534Y-110018477D01*
X144749219Y-109955220D01*
X144931610Y-109862287D01*
X145030420Y-109790498D01*
X145097213Y-109741971D01*
X145097215Y-109741968D01*
X145097219Y-109741966D01*
X145241966Y-109597219D01*
X145241968Y-109597215D01*
X145241971Y-109597213D01*
X145310251Y-109503232D01*
X145362287Y-109431610D01*
X145455220Y-109249219D01*
X145518477Y-109054534D01*
X145550500Y-108852352D01*
X145550500Y-108647648D01*
X150449500Y-108647648D01*
X150449500Y-108852351D01*
X150481522Y-109054534D01*
X150544781Y-109249223D01*
X150589950Y-109337870D01*
X150620324Y-109397483D01*
X150637715Y-109431613D01*
X150758028Y-109597213D01*
X150902786Y-109741971D01*
X151057749Y-109854556D01*
X151068390Y-109862287D01*
X151184607Y-109921503D01*
X151250776Y-109955218D01*
X151250778Y-109955218D01*
X151250781Y-109955220D01*
X151355137Y-109989127D01*
X151445465Y-110018477D01*
X151546557Y-110034488D01*
X151647648Y-110050500D01*
X151647649Y-110050500D01*
X151852351Y-110050500D01*
X151852352Y-110050500D01*
X152054534Y-110018477D01*
X152249219Y-109955220D01*
X152431610Y-109862287D01*
X152530420Y-109790498D01*
X152597213Y-109741971D01*
X152597215Y-109741968D01*
X152597219Y-109741966D01*
X152741966Y-109597219D01*
X152741968Y-109597215D01*
X152741971Y-109597213D01*
X152810251Y-109503232D01*
X152862287Y-109431610D01*
X152955220Y-109249219D01*
X153018477Y-109054534D01*
X153050500Y-108852352D01*
X153050500Y-108647648D01*
X153018477Y-108445466D01*
X153004609Y-108402786D01*
X152989127Y-108355137D01*
X152955220Y-108250781D01*
X152955218Y-108250778D01*
X152955218Y-108250776D01*
X152897610Y-108137715D01*
X152862287Y-108068390D01*
X152845134Y-108044781D01*
X152741971Y-107902786D01*
X152597213Y-107758028D01*
X152431613Y-107637715D01*
X152431612Y-107637714D01*
X152431610Y-107637713D01*
X152374653Y-107608691D01*
X152249223Y-107544781D01*
X152054534Y-107481522D01*
X151879995Y-107453878D01*
X151852352Y-107449500D01*
X151647648Y-107449500D01*
X151623329Y-107453351D01*
X151445465Y-107481522D01*
X151250776Y-107544781D01*
X151068386Y-107637715D01*
X150902786Y-107758028D01*
X150758028Y-107902786D01*
X150637715Y-108068386D01*
X150544781Y-108250776D01*
X150481522Y-108445465D01*
X150449500Y-108647648D01*
X145550500Y-108647648D01*
X145518477Y-108445466D01*
X145504609Y-108402786D01*
X145489127Y-108355137D01*
X145455220Y-108250781D01*
X145455218Y-108250778D01*
X145455218Y-108250776D01*
X145397610Y-108137715D01*
X145362287Y-108068390D01*
X145345134Y-108044781D01*
X145274182Y-107947122D01*
X145250702Y-107881316D01*
X145250500Y-107874237D01*
X145250500Y-106320861D01*
X145270000Y-106254452D01*
X145270000Y-105855671D01*
X145270711Y-105842415D01*
X145275499Y-105797881D01*
X145275500Y-105797873D01*
X145275499Y-105285829D01*
X145289745Y-105300075D01*
X145375255Y-105349444D01*
X145470630Y-105375000D01*
X145569370Y-105375000D01*
X145664745Y-105349444D01*
X145750255Y-105300075D01*
X145764501Y-105285829D01*
X145764501Y-105538348D01*
X145769358Y-105585885D01*
X145770000Y-105598487D01*
X145770000Y-106249999D01*
X145833304Y-106249999D01*
X145833318Y-106249998D01*
X145937742Y-106239330D01*
X146113796Y-106180992D01*
X146114677Y-106183653D01*
X146171011Y-106175066D01*
X146195704Y-106182312D01*
X146195991Y-106181448D01*
X146202846Y-106183719D01*
X146202847Y-106183720D01*
X146372158Y-106239824D01*
X146476659Y-106250500D01*
X147103340Y-106250499D01*
X147103348Y-106250498D01*
X147103351Y-106250498D01*
X147160572Y-106244652D01*
X147207842Y-106239824D01*
X147377153Y-106183720D01*
X147528961Y-106090083D01*
X147582225Y-106036819D01*
X147643548Y-106003334D01*
X147669906Y-106000500D01*
X149087719Y-106000500D01*
X149154758Y-106020185D01*
X149160591Y-106024172D01*
X149312801Y-106134760D01*
X149386962Y-106172547D01*
X149481163Y-106220545D01*
X149481165Y-106220545D01*
X149481168Y-106220547D01*
X149547550Y-106242116D01*
X149660881Y-106278940D01*
X149847514Y-106308500D01*
X149847519Y-106308500D01*
X150036486Y-106308500D01*
X150223118Y-106278940D01*
X150402832Y-106220547D01*
X150571199Y-106134760D01*
X150723396Y-106024181D01*
X150789201Y-106000702D01*
X150796281Y-106000500D01*
X151711784Y-106000500D01*
X151778823Y-106020185D01*
X151784669Y-106024182D01*
X151862922Y-106081036D01*
X151870801Y-106086760D01*
X151965005Y-106134759D01*
X152039163Y-106172545D01*
X152039165Y-106172545D01*
X152039168Y-106172547D01*
X152073555Y-106183720D01*
X152218881Y-106230940D01*
X152405514Y-106260500D01*
X152405519Y-106260500D01*
X152594486Y-106260500D01*
X152781118Y-106230940D01*
X152813110Y-106220545D01*
X152960832Y-106172547D01*
X153129199Y-106086760D01*
X153282073Y-105975690D01*
X153415690Y-105842073D01*
X153526760Y-105689199D01*
X153612547Y-105520832D01*
X153670940Y-105341118D01*
X153700500Y-105154486D01*
X153700500Y-104965513D01*
X153670940Y-104778881D01*
X153615546Y-104608398D01*
X153612547Y-104599168D01*
X153612545Y-104599165D01*
X153612545Y-104599163D01*
X153526759Y-104430800D01*
X153505474Y-104401504D01*
X153415690Y-104277927D01*
X153282073Y-104144310D01*
X153129199Y-104033240D01*
X153079017Y-104007671D01*
X152960836Y-103947454D01*
X152781118Y-103889059D01*
X152594486Y-103859500D01*
X152594481Y-103859500D01*
X152405519Y-103859500D01*
X152405514Y-103859500D01*
X152218881Y-103889059D01*
X152039163Y-103947454D01*
X151963545Y-103985985D01*
X151907250Y-103999500D01*
X150434928Y-103999500D01*
X150396609Y-103993431D01*
X150223118Y-103937059D01*
X150036486Y-103907500D01*
X150036481Y-103907500D01*
X149847519Y-103907500D01*
X149847514Y-103907500D01*
X149660881Y-103937059D01*
X149487391Y-103993431D01*
X149449072Y-103999500D01*
X147669906Y-103999500D01*
X147602867Y-103979815D01*
X147582225Y-103963181D01*
X147528961Y-103909917D01*
X147528957Y-103909914D01*
X147377161Y-103816284D01*
X147377155Y-103816281D01*
X147377153Y-103816280D01*
X147207842Y-103760176D01*
X147207835Y-103760175D01*
X147103342Y-103749500D01*
X146476666Y-103749500D01*
X146476648Y-103749501D01*
X146372158Y-103760175D01*
X146372155Y-103760176D01*
X146253546Y-103799480D01*
X146202847Y-103816280D01*
X146202845Y-103816280D01*
X146195992Y-103818552D01*
X146195212Y-103816200D01*
X146137695Y-103824919D01*
X146114129Y-103817998D01*
X146113795Y-103819008D01*
X145937742Y-103760669D01*
X145937735Y-103760668D01*
X145833318Y-103750000D01*
X145770000Y-103750000D01*
X145770000Y-104401504D01*
X145769358Y-104414107D01*
X145764500Y-104461651D01*
X145764500Y-104461659D01*
X145764500Y-104714170D01*
X145750255Y-104699925D01*
X145664745Y-104650556D01*
X145569370Y-104625000D01*
X145470630Y-104625000D01*
X145375255Y-104650556D01*
X145289745Y-104699925D01*
X145275499Y-104714170D01*
X145275499Y-104202128D01*
X145270710Y-104157577D01*
X145270000Y-104144324D01*
X145270000Y-103750000D01*
X145269999Y-103749999D01*
X145206696Y-103750000D01*
X145206679Y-103750001D01*
X145102259Y-103760668D01*
X145034072Y-103783263D01*
X144964244Y-103785663D01*
X144951738Y-103781738D01*
X144882485Y-103755909D01*
X144882483Y-103755908D01*
X144822883Y-103749501D01*
X144822881Y-103749500D01*
X144822873Y-103749500D01*
X144822864Y-103749500D01*
X143677129Y-103749500D01*
X143677123Y-103749501D01*
X143617516Y-103755908D01*
X143482671Y-103806202D01*
X143482664Y-103806206D01*
X143367455Y-103892452D01*
X143367452Y-103892455D01*
X143281206Y-104007664D01*
X143281202Y-104007671D01*
X143230908Y-104142517D01*
X143226035Y-104187847D01*
X143224501Y-104202123D01*
X143224500Y-104202135D01*
X143224500Y-105797870D01*
X143224501Y-105797876D01*
X143230908Y-105857481D01*
X143241682Y-105886366D01*
X143249500Y-105929700D01*
X143249500Y-107625500D01*
X143229815Y-107692539D01*
X143177011Y-107738294D01*
X143125500Y-107749500D01*
X138874499Y-107749500D01*
X138807460Y-107729815D01*
X138761705Y-107677011D01*
X138750499Y-107625500D01*
X138750499Y-106242129D01*
X138750498Y-106242123D01*
X138750497Y-106242116D01*
X138744091Y-106182517D01*
X138743692Y-106181448D01*
X138693797Y-106047671D01*
X138693793Y-106047664D01*
X138607547Y-105932455D01*
X138607544Y-105932452D01*
X138492335Y-105846206D01*
X138492328Y-105846202D01*
X138357482Y-105795908D01*
X138357483Y-105795908D01*
X138297883Y-105789501D01*
X138297881Y-105789500D01*
X138297873Y-105789500D01*
X138297864Y-105789500D01*
X135202129Y-105789500D01*
X135202123Y-105789501D01*
X135142516Y-105795908D01*
X135007671Y-105846202D01*
X135007664Y-105846206D01*
X134892455Y-105932452D01*
X134892452Y-105932455D01*
X134806206Y-106047664D01*
X134806202Y-106047671D01*
X134755908Y-106182517D01*
X134749501Y-106242116D01*
X134749501Y-106242123D01*
X134749500Y-106242135D01*
X132750500Y-106242135D01*
X132750500Y-102578872D01*
X134749500Y-102578872D01*
X134749500Y-102841127D01*
X134772786Y-103017990D01*
X134783730Y-103101116D01*
X134851602Y-103354418D01*
X134851605Y-103354428D01*
X134951953Y-103596690D01*
X134951958Y-103596700D01*
X135083075Y-103823803D01*
X135242718Y-104031851D01*
X135242726Y-104031860D01*
X135428140Y-104217274D01*
X135428148Y-104217281D01*
X135636196Y-104376924D01*
X135863299Y-104508041D01*
X135863309Y-104508046D01*
X136105571Y-104608394D01*
X136105581Y-104608398D01*
X136358884Y-104676270D01*
X136618880Y-104710500D01*
X136618887Y-104710500D01*
X136881113Y-104710500D01*
X136881120Y-104710500D01*
X137141116Y-104676270D01*
X137394419Y-104608398D01*
X137636697Y-104508043D01*
X137863803Y-104376924D01*
X138071851Y-104217282D01*
X138071855Y-104217277D01*
X138071860Y-104217274D01*
X138257274Y-104031860D01*
X138257277Y-104031855D01*
X138257282Y-104031851D01*
X138416924Y-103823803D01*
X138548043Y-103596697D01*
X138648398Y-103354419D01*
X138716270Y-103101116D01*
X138750500Y-102841120D01*
X138750500Y-102578880D01*
X138716270Y-102318884D01*
X138648398Y-102065581D01*
X138621903Y-102001616D01*
X138548046Y-101823309D01*
X138548041Y-101823299D01*
X138479635Y-101704816D01*
X138416924Y-101596196D01*
X138276742Y-101413510D01*
X138257282Y-101388149D01*
X138257281Y-101388148D01*
X138257274Y-101388140D01*
X138071860Y-101202726D01*
X138071851Y-101202718D01*
X137863803Y-101043075D01*
X137636700Y-100911958D01*
X137636690Y-100911954D01*
X137444495Y-100832344D01*
X137394428Y-100811605D01*
X137394421Y-100811603D01*
X137394419Y-100811602D01*
X137141116Y-100743730D01*
X137083339Y-100736123D01*
X136881127Y-100709500D01*
X136881120Y-100709500D01*
X136618880Y-100709500D01*
X136618872Y-100709500D01*
X136387772Y-100739926D01*
X136358884Y-100743730D01*
X136105581Y-100811602D01*
X136105571Y-100811605D01*
X135863309Y-100911953D01*
X135863299Y-100911958D01*
X135636196Y-101043075D01*
X135428148Y-101202718D01*
X135242718Y-101388148D01*
X135083075Y-101596196D01*
X134951958Y-101823299D01*
X134951953Y-101823309D01*
X134851605Y-102065571D01*
X134851602Y-102065581D01*
X134841428Y-102103553D01*
X134783730Y-102318885D01*
X134749500Y-102578872D01*
X132750500Y-102578872D01*
X132750500Y-98495882D01*
X149287669Y-98495882D01*
X149287670Y-98495883D01*
X149313059Y-98514329D01*
X149481362Y-98600085D01*
X149660997Y-98658451D01*
X149847553Y-98688000D01*
X150036447Y-98688000D01*
X150223002Y-98658451D01*
X150402637Y-98600085D01*
X150570937Y-98514331D01*
X150596328Y-98495883D01*
X150596328Y-98495882D01*
X149942001Y-97841554D01*
X149942000Y-97841554D01*
X149287669Y-98495882D01*
X132750500Y-98495882D01*
X132750500Y-95938872D01*
X134749500Y-95938872D01*
X134749500Y-96201127D01*
X134772513Y-96375914D01*
X134783730Y-96461116D01*
X134836465Y-96657925D01*
X134851602Y-96714418D01*
X134851605Y-96714428D01*
X134951953Y-96956690D01*
X134951958Y-96956700D01*
X135083075Y-97183803D01*
X135242718Y-97391851D01*
X135242726Y-97391860D01*
X135428140Y-97577274D01*
X135428148Y-97577281D01*
X135636196Y-97736924D01*
X135863299Y-97868041D01*
X135863309Y-97868046D01*
X136105571Y-97968394D01*
X136105581Y-97968398D01*
X136358884Y-98036270D01*
X136618880Y-98070500D01*
X136618887Y-98070500D01*
X136881113Y-98070500D01*
X136881120Y-98070500D01*
X137141116Y-98036270D01*
X137394419Y-97968398D01*
X137636697Y-97868043D01*
X137863803Y-97736924D01*
X138071851Y-97577282D01*
X138071855Y-97577277D01*
X138071860Y-97577274D01*
X138255581Y-97393552D01*
X148742000Y-97393552D01*
X148742000Y-97582447D01*
X148771548Y-97769002D01*
X148829914Y-97948637D01*
X148915666Y-98116933D01*
X148934116Y-98142328D01*
X149588446Y-97488000D01*
X149588446Y-97487999D01*
X149542369Y-97441922D01*
X149592000Y-97441922D01*
X149592000Y-97534078D01*
X149615852Y-97623095D01*
X149661930Y-97702905D01*
X149727095Y-97768070D01*
X149806905Y-97814148D01*
X149895922Y-97838000D01*
X149988078Y-97838000D01*
X150077095Y-97814148D01*
X150156905Y-97768070D01*
X150222070Y-97702905D01*
X150268148Y-97623095D01*
X150292000Y-97534078D01*
X150292000Y-97487999D01*
X150295554Y-97487999D01*
X150295554Y-97488000D01*
X150949882Y-98142328D01*
X150949883Y-98142328D01*
X150968331Y-98116937D01*
X151054085Y-97948637D01*
X151110604Y-97774689D01*
X151150041Y-97717014D01*
X151214400Y-97689815D01*
X151283246Y-97701729D01*
X151334722Y-97748973D01*
X151346466Y-97774688D01*
X151387454Y-97900836D01*
X151421879Y-97968398D01*
X151473240Y-98069199D01*
X151584310Y-98222073D01*
X151717927Y-98355690D01*
X151870801Y-98466760D01*
X151950347Y-98507290D01*
X152039163Y-98552545D01*
X152039165Y-98552545D01*
X152039168Y-98552547D01*
X152135497Y-98583846D01*
X152218881Y-98610940D01*
X152405514Y-98640500D01*
X152405519Y-98640500D01*
X152594486Y-98640500D01*
X152781118Y-98610940D01*
X152814526Y-98600085D01*
X152960832Y-98552547D01*
X153129199Y-98466760D01*
X153282073Y-98355690D01*
X153415690Y-98222073D01*
X153526760Y-98069199D01*
X153612547Y-97900832D01*
X153670940Y-97721118D01*
X153675898Y-97689815D01*
X153700500Y-97534486D01*
X153700500Y-97345513D01*
X153670940Y-97158881D01*
X153612545Y-96979163D01*
X153551349Y-96859060D01*
X153526760Y-96810801D01*
X153415690Y-96657927D01*
X153282073Y-96524310D01*
X153129199Y-96413240D01*
X152960836Y-96327454D01*
X152781118Y-96269059D01*
X152594486Y-96239500D01*
X152594481Y-96239500D01*
X152405519Y-96239500D01*
X152405514Y-96239500D01*
X152218881Y-96269059D01*
X152039163Y-96327454D01*
X151870800Y-96413240D01*
X151783579Y-96476610D01*
X151717927Y-96524310D01*
X151717925Y-96524312D01*
X151717924Y-96524312D01*
X151584312Y-96657924D01*
X151584312Y-96657925D01*
X151584310Y-96657927D01*
X151543267Y-96714418D01*
X151473240Y-96810800D01*
X151387455Y-96979162D01*
X151330869Y-97153311D01*
X151291430Y-97210986D01*
X151227071Y-97238183D01*
X151158225Y-97226268D01*
X151106750Y-97179023D01*
X151095007Y-97153308D01*
X151054086Y-97027364D01*
X150968329Y-96859059D01*
X150949883Y-96833670D01*
X150949882Y-96833669D01*
X150295554Y-97487999D01*
X150292000Y-97487999D01*
X150292000Y-97441922D01*
X150268148Y-97352905D01*
X150222070Y-97273095D01*
X150156905Y-97207930D01*
X150077095Y-97161852D01*
X149988078Y-97138000D01*
X149895922Y-97138000D01*
X149806905Y-97161852D01*
X149727095Y-97207930D01*
X149661930Y-97273095D01*
X149615852Y-97352905D01*
X149592000Y-97441922D01*
X149542369Y-97441922D01*
X148934116Y-96833669D01*
X148934116Y-96833670D01*
X148915669Y-96859060D01*
X148829914Y-97027362D01*
X148771548Y-97206997D01*
X148742000Y-97393552D01*
X138255581Y-97393552D01*
X138257273Y-97391860D01*
X138257282Y-97391851D01*
X138416924Y-97183803D01*
X138548043Y-96956697D01*
X138648398Y-96714419D01*
X138711179Y-96480116D01*
X149287669Y-96480116D01*
X149942000Y-97134446D01*
X149942001Y-97134446D01*
X150596328Y-96480116D01*
X150570933Y-96461666D01*
X150402637Y-96375914D01*
X150223002Y-96317548D01*
X150036447Y-96288000D01*
X149847553Y-96288000D01*
X149660997Y-96317548D01*
X149481362Y-96375914D01*
X149313060Y-96461669D01*
X149287670Y-96480116D01*
X149287669Y-96480116D01*
X138711179Y-96480116D01*
X138716270Y-96461116D01*
X138750500Y-96201120D01*
X138750500Y-95938880D01*
X138716270Y-95678884D01*
X138648398Y-95425581D01*
X138648394Y-95425571D01*
X138548046Y-95183309D01*
X138548041Y-95183299D01*
X138416924Y-94956196D01*
X138257281Y-94748148D01*
X138257274Y-94748140D01*
X138071860Y-94562726D01*
X138071851Y-94562718D01*
X137863803Y-94403075D01*
X137636700Y-94271958D01*
X137636690Y-94271953D01*
X137394428Y-94171605D01*
X137394421Y-94171603D01*
X137394419Y-94171602D01*
X137141116Y-94103730D01*
X137083339Y-94096123D01*
X136881127Y-94069500D01*
X136881120Y-94069500D01*
X136618880Y-94069500D01*
X136618872Y-94069500D01*
X136387772Y-94099926D01*
X136358884Y-94103730D01*
X136105581Y-94171602D01*
X136105571Y-94171605D01*
X135863309Y-94271953D01*
X135863299Y-94271958D01*
X135636196Y-94403075D01*
X135428148Y-94562718D01*
X135242718Y-94748148D01*
X135083075Y-94956196D01*
X134951958Y-95183299D01*
X134951953Y-95183309D01*
X134851605Y-95425571D01*
X134851602Y-95425581D01*
X134783730Y-95678885D01*
X134749500Y-95938872D01*
X132750500Y-95938872D01*
X132750500Y-68124500D01*
X132770185Y-68057461D01*
X132822989Y-68011706D01*
X132874500Y-68000500D01*
X134145855Y-68000500D01*
X134212894Y-68020185D01*
G37*
G04 #@! TD.AperFunction*
G04 #@! TA.AperFunction,Conductor*
G36*
X136076497Y-86269995D02*
G01*
X136159670Y-86394472D01*
X136265528Y-86500330D01*
X136390005Y-86583503D01*
X136418320Y-86595231D01*
X135523633Y-87489917D01*
X135523633Y-87489918D01*
X135636475Y-87576505D01*
X135636483Y-87576511D01*
X135863517Y-87707590D01*
X135863528Y-87707595D01*
X136105744Y-87807924D01*
X136358979Y-87875777D01*
X136358990Y-87875779D01*
X136618905Y-87909999D01*
X136618920Y-87910000D01*
X136881080Y-87910000D01*
X136881094Y-87909999D01*
X137141009Y-87875779D01*
X137141020Y-87875777D01*
X137394255Y-87807924D01*
X137636471Y-87707595D01*
X137636482Y-87707590D01*
X137863516Y-87576511D01*
X137863534Y-87576499D01*
X137976365Y-87489919D01*
X137976365Y-87489917D01*
X137081679Y-86595231D01*
X137109995Y-86583503D01*
X137234472Y-86500330D01*
X137340330Y-86394472D01*
X137423503Y-86269995D01*
X137435231Y-86241679D01*
X138329917Y-87136365D01*
X138329919Y-87136365D01*
X138416499Y-87023534D01*
X138416511Y-87023516D01*
X138518613Y-86846672D01*
X138569180Y-86798456D01*
X138637787Y-86785234D01*
X138702652Y-86811202D01*
X138743180Y-86868116D01*
X138750000Y-86908672D01*
X138750000Y-89991327D01*
X138730315Y-90058366D01*
X138677511Y-90104121D01*
X138608353Y-90114065D01*
X138544797Y-90085040D01*
X138518613Y-90053327D01*
X138416511Y-89876483D01*
X138416505Y-89876475D01*
X138329918Y-89763633D01*
X138329917Y-89763633D01*
X137435231Y-90658319D01*
X137423503Y-90630005D01*
X137340330Y-90505528D01*
X137234472Y-90399670D01*
X137109995Y-90316497D01*
X137081677Y-90304767D01*
X137976365Y-89410080D01*
X137863524Y-89323494D01*
X137863516Y-89323488D01*
X137636482Y-89192409D01*
X137636471Y-89192404D01*
X137394255Y-89092075D01*
X137141020Y-89024222D01*
X137141009Y-89024220D01*
X136881094Y-88990000D01*
X136618905Y-88990000D01*
X136358990Y-89024220D01*
X136358979Y-89024222D01*
X136105744Y-89092075D01*
X135863528Y-89192404D01*
X135863517Y-89192409D01*
X135636471Y-89323496D01*
X135523633Y-89410079D01*
X135523633Y-89410080D01*
X136418321Y-90304768D01*
X136390005Y-90316497D01*
X136265528Y-90399670D01*
X136159670Y-90505528D01*
X136076497Y-90630005D01*
X136064768Y-90658321D01*
X135170080Y-89763633D01*
X135170079Y-89763633D01*
X135083498Y-89876468D01*
X134981387Y-90053328D01*
X134930819Y-90101543D01*
X134862212Y-90114765D01*
X134797348Y-90088797D01*
X134756820Y-90031883D01*
X134750000Y-89991327D01*
X134750000Y-86908672D01*
X134769685Y-86841633D01*
X134822489Y-86795878D01*
X134891647Y-86785934D01*
X134955203Y-86814959D01*
X134981387Y-86846672D01*
X135083488Y-87023516D01*
X135083494Y-87023524D01*
X135170080Y-87136365D01*
X136064767Y-86241677D01*
X136076497Y-86269995D01*
G37*
G04 #@! TD.AperFunction*
G04 #@! TA.AperFunction,Conductor*
G36*
X136076497Y-81189995D02*
G01*
X136159670Y-81314472D01*
X136265528Y-81420330D01*
X136390005Y-81503503D01*
X136418320Y-81515231D01*
X135523633Y-82409917D01*
X135523633Y-82409918D01*
X135636475Y-82496505D01*
X135636483Y-82496511D01*
X135863517Y-82627590D01*
X135863528Y-82627595D01*
X136105744Y-82727924D01*
X136358979Y-82795777D01*
X136358990Y-82795779D01*
X136618905Y-82829999D01*
X136618920Y-82830000D01*
X136881080Y-82830000D01*
X136881094Y-82829999D01*
X137141009Y-82795779D01*
X137141020Y-82795777D01*
X137394255Y-82727924D01*
X137636471Y-82627595D01*
X137636482Y-82627590D01*
X137863516Y-82496511D01*
X137863534Y-82496499D01*
X137976365Y-82409919D01*
X137976365Y-82409917D01*
X137081679Y-81515231D01*
X137109995Y-81503503D01*
X137234472Y-81420330D01*
X137340330Y-81314472D01*
X137423503Y-81189995D01*
X137435231Y-81161679D01*
X138329917Y-82056365D01*
X138329919Y-82056365D01*
X138416499Y-81943534D01*
X138416511Y-81943516D01*
X138518613Y-81766672D01*
X138569180Y-81718456D01*
X138637787Y-81705234D01*
X138702652Y-81731202D01*
X138743180Y-81788116D01*
X138750000Y-81828672D01*
X138750000Y-84911327D01*
X138730315Y-84978366D01*
X138677511Y-85024121D01*
X138608353Y-85034065D01*
X138544797Y-85005040D01*
X138518613Y-84973327D01*
X138416511Y-84796483D01*
X138416505Y-84796475D01*
X138329918Y-84683633D01*
X138329917Y-84683633D01*
X137435231Y-85578320D01*
X137423503Y-85550005D01*
X137340330Y-85425528D01*
X137234472Y-85319670D01*
X137109995Y-85236497D01*
X137081677Y-85224767D01*
X137976365Y-84330080D01*
X137863524Y-84243494D01*
X137863516Y-84243488D01*
X137636482Y-84112409D01*
X137636471Y-84112404D01*
X137394255Y-84012075D01*
X137141020Y-83944222D01*
X137141009Y-83944220D01*
X136881094Y-83910000D01*
X136618905Y-83910000D01*
X136358990Y-83944220D01*
X136358979Y-83944222D01*
X136105744Y-84012075D01*
X135863528Y-84112404D01*
X135863517Y-84112409D01*
X135636471Y-84243496D01*
X135523633Y-84330079D01*
X135523633Y-84330080D01*
X136418321Y-85224768D01*
X136390005Y-85236497D01*
X136265528Y-85319670D01*
X136159670Y-85425528D01*
X136076497Y-85550005D01*
X136064768Y-85578321D01*
X135170080Y-84683633D01*
X135170079Y-84683633D01*
X135083498Y-84796468D01*
X134981387Y-84973328D01*
X134930819Y-85021543D01*
X134862212Y-85034765D01*
X134797348Y-85008797D01*
X134756820Y-84951883D01*
X134750000Y-84911327D01*
X134750000Y-81828672D01*
X134769685Y-81761633D01*
X134822489Y-81715878D01*
X134891647Y-81705934D01*
X134955203Y-81734959D01*
X134981387Y-81766672D01*
X135083488Y-81943516D01*
X135083494Y-81943524D01*
X135170080Y-82056365D01*
X136064767Y-81161677D01*
X136076497Y-81189995D01*
G37*
G04 #@! TD.AperFunction*
G04 #@! TA.AperFunction,Conductor*
G36*
X136076497Y-76109995D02*
G01*
X136159670Y-76234472D01*
X136265528Y-76340330D01*
X136390005Y-76423503D01*
X136418320Y-76435231D01*
X135523633Y-77329917D01*
X135523633Y-77329918D01*
X135636475Y-77416505D01*
X135636483Y-77416511D01*
X135863517Y-77547590D01*
X135863528Y-77547595D01*
X136105744Y-77647924D01*
X136358979Y-77715777D01*
X136358990Y-77715779D01*
X136618905Y-77749999D01*
X136618920Y-77750000D01*
X136881080Y-77750000D01*
X136881094Y-77749999D01*
X137141009Y-77715779D01*
X137141020Y-77715777D01*
X137394255Y-77647924D01*
X137636471Y-77547595D01*
X137636482Y-77547590D01*
X137863516Y-77416511D01*
X137863534Y-77416499D01*
X137976365Y-77329919D01*
X137976365Y-77329917D01*
X137081679Y-76435231D01*
X137109995Y-76423503D01*
X137234472Y-76340330D01*
X137340330Y-76234472D01*
X137423503Y-76109995D01*
X137435231Y-76081679D01*
X138329917Y-76976365D01*
X138329919Y-76976365D01*
X138416499Y-76863534D01*
X138416511Y-76863516D01*
X138518613Y-76686672D01*
X138569180Y-76638456D01*
X138637787Y-76625234D01*
X138702652Y-76651202D01*
X138743180Y-76708116D01*
X138750000Y-76748672D01*
X138750000Y-79831327D01*
X138730315Y-79898366D01*
X138677511Y-79944121D01*
X138608353Y-79954065D01*
X138544797Y-79925040D01*
X138518613Y-79893327D01*
X138416511Y-79716483D01*
X138416505Y-79716475D01*
X138329918Y-79603633D01*
X138329917Y-79603633D01*
X137435231Y-80498320D01*
X137423503Y-80470005D01*
X137340330Y-80345528D01*
X137234472Y-80239670D01*
X137109995Y-80156497D01*
X137081677Y-80144767D01*
X137976365Y-79250080D01*
X137863524Y-79163494D01*
X137863516Y-79163488D01*
X137636482Y-79032409D01*
X137636471Y-79032404D01*
X137394255Y-78932075D01*
X137141020Y-78864222D01*
X137141009Y-78864220D01*
X136881094Y-78830000D01*
X136618905Y-78830000D01*
X136358990Y-78864220D01*
X136358979Y-78864222D01*
X136105744Y-78932075D01*
X135863528Y-79032404D01*
X135863517Y-79032409D01*
X135636471Y-79163496D01*
X135523633Y-79250079D01*
X135523633Y-79250080D01*
X136418321Y-80144768D01*
X136390005Y-80156497D01*
X136265528Y-80239670D01*
X136159670Y-80345528D01*
X136076497Y-80470005D01*
X136064768Y-80498321D01*
X135170080Y-79603633D01*
X135170079Y-79603633D01*
X135083498Y-79716468D01*
X134981387Y-79893328D01*
X134930819Y-79941543D01*
X134862212Y-79954765D01*
X134797348Y-79928797D01*
X134756820Y-79871883D01*
X134750000Y-79831327D01*
X134750000Y-76748672D01*
X134769685Y-76681633D01*
X134822489Y-76635878D01*
X134891647Y-76625934D01*
X134955203Y-76654959D01*
X134981387Y-76686672D01*
X135083488Y-76863516D01*
X135083494Y-76863524D01*
X135170080Y-76976365D01*
X136064767Y-76081677D01*
X136076497Y-76109995D01*
G37*
G04 #@! TD.AperFunction*
G04 #@! TA.AperFunction,Conductor*
G36*
X143197339Y-68020185D02*
G01*
X143243094Y-68072989D01*
X143253038Y-68142147D01*
X143224013Y-68205703D01*
X143203185Y-68224818D01*
X143130894Y-68277339D01*
X143130894Y-68277340D01*
X143870591Y-69017037D01*
X143807007Y-69034075D01*
X143692993Y-69099901D01*
X143599901Y-69192993D01*
X143534075Y-69307007D01*
X143517037Y-69370590D01*
X142777340Y-68630894D01*
X142717084Y-68713830D01*
X142609897Y-68924197D01*
X142536934Y-69148752D01*
X142500000Y-69381947D01*
X142500000Y-69618052D01*
X142536934Y-69851247D01*
X142609897Y-70075802D01*
X142717087Y-70286174D01*
X142777338Y-70369104D01*
X142777340Y-70369105D01*
X143517037Y-69629408D01*
X143534075Y-69692993D01*
X143599901Y-69807007D01*
X143692993Y-69900099D01*
X143807007Y-69965925D01*
X143870589Y-69982962D01*
X143130893Y-70722658D01*
X143213828Y-70782914D01*
X143424197Y-70890102D01*
X143648752Y-70963065D01*
X143648751Y-70963065D01*
X143881948Y-71000000D01*
X144118052Y-71000000D01*
X144351247Y-70963065D01*
X144575802Y-70890102D01*
X144715317Y-70819016D01*
X144783986Y-70806120D01*
X144848726Y-70832396D01*
X144888984Y-70889502D01*
X144891976Y-70959308D01*
X144882521Y-70984955D01*
X144617426Y-71515145D01*
X144569839Y-71566304D01*
X144502147Y-71583614D01*
X144490112Y-71581997D01*
X144490087Y-71582231D01*
X144422844Y-71575000D01*
X143425000Y-71575000D01*
X143425000Y-72559314D01*
X143420606Y-72554920D01*
X143329394Y-72502259D01*
X143227661Y-72475000D01*
X143122339Y-72475000D01*
X143020606Y-72502259D01*
X142929394Y-72554920D01*
X142925000Y-72559314D01*
X142925000Y-71575000D01*
X141927155Y-71575000D01*
X141867627Y-71581401D01*
X141867620Y-71581403D01*
X141732913Y-71631645D01*
X141732906Y-71631649D01*
X141617812Y-71717809D01*
X141617809Y-71717812D01*
X141531649Y-71832906D01*
X141531645Y-71832913D01*
X141481403Y-71967620D01*
X141481401Y-71967627D01*
X141475000Y-72027155D01*
X141475000Y-72625000D01*
X142859314Y-72625000D01*
X142854920Y-72629394D01*
X142802259Y-72720606D01*
X142775000Y-72822339D01*
X142775000Y-72927661D01*
X142802259Y-73029394D01*
X142854920Y-73120606D01*
X142859314Y-73125000D01*
X141475000Y-73125000D01*
X141475000Y-73626000D01*
X141455315Y-73693039D01*
X141402511Y-73738794D01*
X141351000Y-73750000D01*
X139250000Y-73750000D01*
X138750000Y-74499999D01*
X138750000Y-74751327D01*
X138730315Y-74818366D01*
X138677511Y-74864121D01*
X138608353Y-74874065D01*
X138544797Y-74845040D01*
X138518613Y-74813327D01*
X138416511Y-74636483D01*
X138416505Y-74636475D01*
X138329918Y-74523633D01*
X138329917Y-74523633D01*
X137435231Y-75418320D01*
X137423503Y-75390005D01*
X137340330Y-75265528D01*
X137234472Y-75159670D01*
X137109995Y-75076497D01*
X137081677Y-75064767D01*
X137976365Y-74170080D01*
X137863524Y-74083494D01*
X137863516Y-74083488D01*
X137636482Y-73952409D01*
X137636471Y-73952404D01*
X137394255Y-73852075D01*
X137141020Y-73784222D01*
X137141009Y-73784220D01*
X136881094Y-73750000D01*
X136618905Y-73750000D01*
X136358990Y-73784220D01*
X136358979Y-73784222D01*
X136105744Y-73852075D01*
X135863528Y-73952404D01*
X135863517Y-73952409D01*
X135636471Y-74083496D01*
X135523633Y-74170079D01*
X135523633Y-74170080D01*
X136418321Y-75064768D01*
X136390005Y-75076497D01*
X136265528Y-75159670D01*
X136159670Y-75265528D01*
X136076497Y-75390005D01*
X136064768Y-75418321D01*
X135170080Y-74523633D01*
X135170079Y-74523633D01*
X135083498Y-74636468D01*
X134981387Y-74813328D01*
X134930819Y-74861543D01*
X134862212Y-74874765D01*
X134797348Y-74848797D01*
X134756820Y-74791883D01*
X134750000Y-74751327D01*
X134750000Y-72668002D01*
X134769685Y-72600963D01*
X134822489Y-72555208D01*
X134891647Y-72545264D01*
X134948312Y-72568736D01*
X135007910Y-72613352D01*
X135007913Y-72613354D01*
X135142620Y-72663596D01*
X135142627Y-72663598D01*
X135202155Y-72669999D01*
X135202172Y-72670000D01*
X136500000Y-72670000D01*
X136500000Y-71389064D01*
X136528316Y-71400793D01*
X136675147Y-71430000D01*
X136824853Y-71430000D01*
X136971684Y-71400793D01*
X137000000Y-71389064D01*
X137000000Y-72670000D01*
X138297828Y-72670000D01*
X138297844Y-72669999D01*
X138357372Y-72663598D01*
X138357379Y-72663596D01*
X138492086Y-72613354D01*
X138492093Y-72613350D01*
X138607187Y-72527190D01*
X138607190Y-72527187D01*
X138693350Y-72412093D01*
X138693354Y-72412086D01*
X138743596Y-72277379D01*
X138743598Y-72277372D01*
X138749999Y-72217844D01*
X138750000Y-72217827D01*
X138750000Y-70920000D01*
X137469064Y-70920000D01*
X137480793Y-70891684D01*
X137510000Y-70744853D01*
X137510000Y-70595147D01*
X137480793Y-70448316D01*
X137469064Y-70420000D01*
X138750000Y-70420000D01*
X138750000Y-69122172D01*
X138749999Y-69122155D01*
X138743598Y-69062627D01*
X138743596Y-69062620D01*
X138693354Y-68927913D01*
X138693350Y-68927906D01*
X138607190Y-68812812D01*
X138607187Y-68812809D01*
X138492093Y-68726649D01*
X138492086Y-68726645D01*
X138357379Y-68676403D01*
X138357372Y-68676401D01*
X138297844Y-68670000D01*
X137000000Y-68670000D01*
X137000000Y-69950935D01*
X136971684Y-69939207D01*
X136824853Y-69910000D01*
X136675147Y-69910000D01*
X136528316Y-69939207D01*
X136500000Y-69950935D01*
X136500000Y-68670000D01*
X135202155Y-68670000D01*
X135142627Y-68676401D01*
X135142620Y-68676403D01*
X135007913Y-68726645D01*
X135007906Y-68726649D01*
X134948311Y-68771263D01*
X134882847Y-68795681D01*
X134814574Y-68780830D01*
X134765168Y-68731425D01*
X134750000Y-68671997D01*
X134750000Y-68301362D01*
X134769685Y-68234323D01*
X134786319Y-68213681D01*
X134963181Y-68036819D01*
X135024504Y-68003334D01*
X135050862Y-68000500D01*
X143130300Y-68000500D01*
X143197339Y-68020185D01*
G37*
G04 #@! TD.AperFunction*
M02*
