%TF.GenerationSoftware,KiCad,Pcbnew,9.0.5-9.0.5~ubuntu25.04.1*%
%TF.CreationDate,2025-11-05T23:54:50-06:00*%
%TF.ProjectId,Return_Board,52657475-726e-45f4-926f-6172642e6b69,rev?*%
%TF.SameCoordinates,Original*%
%TF.FileFunction,Legend,Top*%
%TF.FilePolarity,Positive*%
%FSLAX46Y46*%
G04 Gerber Fmt 4.6, Leading zero omitted, Abs format (unit mm)*
G04 Created by KiCad (PCBNEW 9.0.5-9.0.5~ubuntu25.04.1) date 2025-11-05 23:54:50*
%MOMM*%
%LPD*%
G01*
G04 APERTURE LIST*
G04 Aperture macros list*
%AMRoundRect*
0 Rectangle with rounded corners*
0 $1 Rounding radius*
0 $2 $3 $4 $5 $6 $7 $8 $9 X,Y pos of 4 corners*
0 Add a 4 corners polygon primitive as box body*
4,1,4,$2,$3,$4,$5,$6,$7,$8,$9,$2,$3,0*
0 Add four circle primitives for the rounded corners*
1,1,$1+$1,$2,$3*
1,1,$1+$1,$4,$5*
1,1,$1+$1,$6,$7*
1,1,$1+$1,$8,$9*
0 Add four rect primitives between the rounded corners*
20,1,$1+$1,$2,$3,$4,$5,0*
20,1,$1+$1,$4,$5,$6,$7,0*
20,1,$1+$1,$6,$7,$8,$9,0*
20,1,$1+$1,$8,$9,$2,$3,0*%
G04 Aperture macros list end*
%ADD10C,0.100000*%
%ADD11C,0.150000*%
%ADD12C,0.120000*%
%ADD13R,3.000000X3.000000*%
%ADD14C,3.000000*%
%ADD15C,1.600000*%
%ADD16O,1.600000X1.600000*%
%ADD17R,2.400000X1.600000*%
%ADD18O,2.400000X1.600000*%
%ADD19C,1.400000*%
%ADD20O,1.400000X1.400000*%
%ADD21RoundRect,0.262500X-0.262500X-0.487500X0.262500X-0.487500X0.262500X0.487500X-0.262500X0.487500X0*%
%ADD22R,1.050000X1.500000*%
G04 APERTURE END LIST*
D10*
X142077693Y-88730262D02*
X141982455Y-88682643D01*
X141982455Y-88682643D02*
X141839598Y-88682643D01*
X141839598Y-88682643D02*
X141696741Y-88730262D01*
X141696741Y-88730262D02*
X141601503Y-88825500D01*
X141601503Y-88825500D02*
X141553884Y-88920738D01*
X141553884Y-88920738D02*
X141506265Y-89111214D01*
X141506265Y-89111214D02*
X141506265Y-89254071D01*
X141506265Y-89254071D02*
X141553884Y-89444547D01*
X141553884Y-89444547D02*
X141601503Y-89539785D01*
X141601503Y-89539785D02*
X141696741Y-89635024D01*
X141696741Y-89635024D02*
X141839598Y-89682643D01*
X141839598Y-89682643D02*
X141934836Y-89682643D01*
X141934836Y-89682643D02*
X142077693Y-89635024D01*
X142077693Y-89635024D02*
X142125312Y-89587404D01*
X142125312Y-89587404D02*
X142125312Y-89254071D01*
X142125312Y-89254071D02*
X141934836Y-89254071D01*
X142553884Y-89682643D02*
X142553884Y-89015976D01*
X142553884Y-89206452D02*
X142601503Y-89111214D01*
X142601503Y-89111214D02*
X142649122Y-89063595D01*
X142649122Y-89063595D02*
X142744360Y-89015976D01*
X142744360Y-89015976D02*
X142839598Y-89015976D01*
X143315789Y-89682643D02*
X143220551Y-89635024D01*
X143220551Y-89635024D02*
X143172932Y-89587404D01*
X143172932Y-89587404D02*
X143125313Y-89492166D01*
X143125313Y-89492166D02*
X143125313Y-89206452D01*
X143125313Y-89206452D02*
X143172932Y-89111214D01*
X143172932Y-89111214D02*
X143220551Y-89063595D01*
X143220551Y-89063595D02*
X143315789Y-89015976D01*
X143315789Y-89015976D02*
X143458646Y-89015976D01*
X143458646Y-89015976D02*
X143553884Y-89063595D01*
X143553884Y-89063595D02*
X143601503Y-89111214D01*
X143601503Y-89111214D02*
X143649122Y-89206452D01*
X143649122Y-89206452D02*
X143649122Y-89492166D01*
X143649122Y-89492166D02*
X143601503Y-89587404D01*
X143601503Y-89587404D02*
X143553884Y-89635024D01*
X143553884Y-89635024D02*
X143458646Y-89682643D01*
X143458646Y-89682643D02*
X143315789Y-89682643D01*
X144506265Y-89015976D02*
X144506265Y-89682643D01*
X144077694Y-89015976D02*
X144077694Y-89539785D01*
X144077694Y-89539785D02*
X144125313Y-89635024D01*
X144125313Y-89635024D02*
X144220551Y-89682643D01*
X144220551Y-89682643D02*
X144363408Y-89682643D01*
X144363408Y-89682643D02*
X144458646Y-89635024D01*
X144458646Y-89635024D02*
X144506265Y-89587404D01*
X144982456Y-89015976D02*
X144982456Y-89682643D01*
X144982456Y-89111214D02*
X145030075Y-89063595D01*
X145030075Y-89063595D02*
X145125313Y-89015976D01*
X145125313Y-89015976D02*
X145268170Y-89015976D01*
X145268170Y-89015976D02*
X145363408Y-89063595D01*
X145363408Y-89063595D02*
X145411027Y-89158833D01*
X145411027Y-89158833D02*
X145411027Y-89682643D01*
X146315789Y-89682643D02*
X146315789Y-88682643D01*
X146315789Y-89635024D02*
X146220551Y-89682643D01*
X146220551Y-89682643D02*
X146030075Y-89682643D01*
X146030075Y-89682643D02*
X145934837Y-89635024D01*
X145934837Y-89635024D02*
X145887218Y-89587404D01*
X145887218Y-89587404D02*
X145839599Y-89492166D01*
X145839599Y-89492166D02*
X145839599Y-89206452D01*
X145839599Y-89206452D02*
X145887218Y-89111214D01*
X145887218Y-89111214D02*
X145934837Y-89063595D01*
X145934837Y-89063595D02*
X146030075Y-89015976D01*
X146030075Y-89015976D02*
X146220551Y-89015976D01*
X146220551Y-89015976D02*
X146315789Y-89063595D01*
X147553885Y-89682643D02*
X147553885Y-88682643D01*
X147553885Y-88682643D02*
X148125313Y-89682643D01*
X148125313Y-89682643D02*
X148125313Y-88682643D01*
X148744361Y-89682643D02*
X148649123Y-89635024D01*
X148649123Y-89635024D02*
X148601504Y-89587404D01*
X148601504Y-89587404D02*
X148553885Y-89492166D01*
X148553885Y-89492166D02*
X148553885Y-89206452D01*
X148553885Y-89206452D02*
X148601504Y-89111214D01*
X148601504Y-89111214D02*
X148649123Y-89063595D01*
X148649123Y-89063595D02*
X148744361Y-89015976D01*
X148744361Y-89015976D02*
X148887218Y-89015976D01*
X148887218Y-89015976D02*
X148982456Y-89063595D01*
X148982456Y-89063595D02*
X149030075Y-89111214D01*
X149030075Y-89111214D02*
X149077694Y-89206452D01*
X149077694Y-89206452D02*
X149077694Y-89492166D01*
X149077694Y-89492166D02*
X149030075Y-89587404D01*
X149030075Y-89587404D02*
X148982456Y-89635024D01*
X148982456Y-89635024D02*
X148887218Y-89682643D01*
X148887218Y-89682643D02*
X148744361Y-89682643D01*
X149506266Y-89682643D02*
X149506266Y-89015976D01*
X149506266Y-88682643D02*
X149458647Y-88730262D01*
X149458647Y-88730262D02*
X149506266Y-88777881D01*
X149506266Y-88777881D02*
X149553885Y-88730262D01*
X149553885Y-88730262D02*
X149506266Y-88682643D01*
X149506266Y-88682643D02*
X149506266Y-88777881D01*
X149934837Y-89635024D02*
X150030075Y-89682643D01*
X150030075Y-89682643D02*
X150220551Y-89682643D01*
X150220551Y-89682643D02*
X150315789Y-89635024D01*
X150315789Y-89635024D02*
X150363408Y-89539785D01*
X150363408Y-89539785D02*
X150363408Y-89492166D01*
X150363408Y-89492166D02*
X150315789Y-89396928D01*
X150315789Y-89396928D02*
X150220551Y-89349309D01*
X150220551Y-89349309D02*
X150077694Y-89349309D01*
X150077694Y-89349309D02*
X149982456Y-89301690D01*
X149982456Y-89301690D02*
X149934837Y-89206452D01*
X149934837Y-89206452D02*
X149934837Y-89158833D01*
X149934837Y-89158833D02*
X149982456Y-89063595D01*
X149982456Y-89063595D02*
X150077694Y-89015976D01*
X150077694Y-89015976D02*
X150220551Y-89015976D01*
X150220551Y-89015976D02*
X150315789Y-89063595D01*
X151172932Y-89635024D02*
X151077694Y-89682643D01*
X151077694Y-89682643D02*
X150887218Y-89682643D01*
X150887218Y-89682643D02*
X150791980Y-89635024D01*
X150791980Y-89635024D02*
X150744361Y-89539785D01*
X150744361Y-89539785D02*
X150744361Y-89158833D01*
X150744361Y-89158833D02*
X150791980Y-89063595D01*
X150791980Y-89063595D02*
X150887218Y-89015976D01*
X150887218Y-89015976D02*
X151077694Y-89015976D01*
X151077694Y-89015976D02*
X151172932Y-89063595D01*
X151172932Y-89063595D02*
X151220551Y-89158833D01*
X151220551Y-89158833D02*
X151220551Y-89254071D01*
X151220551Y-89254071D02*
X150744361Y-89349309D01*
X152887218Y-89682643D02*
X152411028Y-89682643D01*
X152411028Y-89682643D02*
X152411028Y-88682643D01*
X153649123Y-89682643D02*
X153649123Y-89158833D01*
X153649123Y-89158833D02*
X153601504Y-89063595D01*
X153601504Y-89063595D02*
X153506266Y-89015976D01*
X153506266Y-89015976D02*
X153315790Y-89015976D01*
X153315790Y-89015976D02*
X153220552Y-89063595D01*
X153649123Y-89635024D02*
X153553885Y-89682643D01*
X153553885Y-89682643D02*
X153315790Y-89682643D01*
X153315790Y-89682643D02*
X153220552Y-89635024D01*
X153220552Y-89635024D02*
X153172933Y-89539785D01*
X153172933Y-89539785D02*
X153172933Y-89444547D01*
X153172933Y-89444547D02*
X153220552Y-89349309D01*
X153220552Y-89349309D02*
X153315790Y-89301690D01*
X153315790Y-89301690D02*
X153553885Y-89301690D01*
X153553885Y-89301690D02*
X153649123Y-89254071D01*
X154125314Y-89682643D02*
X154125314Y-88682643D01*
X154125314Y-89063595D02*
X154220552Y-89015976D01*
X154220552Y-89015976D02*
X154411028Y-89015976D01*
X154411028Y-89015976D02*
X154506266Y-89063595D01*
X154506266Y-89063595D02*
X154553885Y-89111214D01*
X154553885Y-89111214D02*
X154601504Y-89206452D01*
X154601504Y-89206452D02*
X154601504Y-89492166D01*
X154601504Y-89492166D02*
X154553885Y-89587404D01*
X154553885Y-89587404D02*
X154506266Y-89635024D01*
X154506266Y-89635024D02*
X154411028Y-89682643D01*
X154411028Y-89682643D02*
X154220552Y-89682643D01*
X154220552Y-89682643D02*
X154125314Y-89635024D01*
X142125312Y-91292587D02*
X141791979Y-90816396D01*
X141553884Y-91292587D02*
X141553884Y-90292587D01*
X141553884Y-90292587D02*
X141934836Y-90292587D01*
X141934836Y-90292587D02*
X142030074Y-90340206D01*
X142030074Y-90340206D02*
X142077693Y-90387825D01*
X142077693Y-90387825D02*
X142125312Y-90483063D01*
X142125312Y-90483063D02*
X142125312Y-90625920D01*
X142125312Y-90625920D02*
X142077693Y-90721158D01*
X142077693Y-90721158D02*
X142030074Y-90768777D01*
X142030074Y-90768777D02*
X141934836Y-90816396D01*
X141934836Y-90816396D02*
X141553884Y-90816396D01*
X142934836Y-91244968D02*
X142839598Y-91292587D01*
X142839598Y-91292587D02*
X142649122Y-91292587D01*
X142649122Y-91292587D02*
X142553884Y-91244968D01*
X142553884Y-91244968D02*
X142506265Y-91149729D01*
X142506265Y-91149729D02*
X142506265Y-90768777D01*
X142506265Y-90768777D02*
X142553884Y-90673539D01*
X142553884Y-90673539D02*
X142649122Y-90625920D01*
X142649122Y-90625920D02*
X142839598Y-90625920D01*
X142839598Y-90625920D02*
X142934836Y-90673539D01*
X142934836Y-90673539D02*
X142982455Y-90768777D01*
X142982455Y-90768777D02*
X142982455Y-90864015D01*
X142982455Y-90864015D02*
X142506265Y-90959253D01*
X143268170Y-90625920D02*
X143649122Y-90625920D01*
X143411027Y-90292587D02*
X143411027Y-91149729D01*
X143411027Y-91149729D02*
X143458646Y-91244968D01*
X143458646Y-91244968D02*
X143553884Y-91292587D01*
X143553884Y-91292587D02*
X143649122Y-91292587D01*
X144411027Y-90625920D02*
X144411027Y-91292587D01*
X143982456Y-90625920D02*
X143982456Y-91149729D01*
X143982456Y-91149729D02*
X144030075Y-91244968D01*
X144030075Y-91244968D02*
X144125313Y-91292587D01*
X144125313Y-91292587D02*
X144268170Y-91292587D01*
X144268170Y-91292587D02*
X144363408Y-91244968D01*
X144363408Y-91244968D02*
X144411027Y-91197348D01*
X144887218Y-91292587D02*
X144887218Y-90625920D01*
X144887218Y-90816396D02*
X144934837Y-90721158D01*
X144934837Y-90721158D02*
X144982456Y-90673539D01*
X144982456Y-90673539D02*
X145077694Y-90625920D01*
X145077694Y-90625920D02*
X145172932Y-90625920D01*
X145506266Y-90625920D02*
X145506266Y-91292587D01*
X145506266Y-90721158D02*
X145553885Y-90673539D01*
X145553885Y-90673539D02*
X145649123Y-90625920D01*
X145649123Y-90625920D02*
X145791980Y-90625920D01*
X145791980Y-90625920D02*
X145887218Y-90673539D01*
X145887218Y-90673539D02*
X145934837Y-90768777D01*
X145934837Y-90768777D02*
X145934837Y-91292587D01*
X147172933Y-91292587D02*
X147172933Y-90292587D01*
X147172933Y-90673539D02*
X147268171Y-90625920D01*
X147268171Y-90625920D02*
X147458647Y-90625920D01*
X147458647Y-90625920D02*
X147553885Y-90673539D01*
X147553885Y-90673539D02*
X147601504Y-90721158D01*
X147601504Y-90721158D02*
X147649123Y-90816396D01*
X147649123Y-90816396D02*
X147649123Y-91102110D01*
X147649123Y-91102110D02*
X147601504Y-91197348D01*
X147601504Y-91197348D02*
X147553885Y-91244968D01*
X147553885Y-91244968D02*
X147458647Y-91292587D01*
X147458647Y-91292587D02*
X147268171Y-91292587D01*
X147268171Y-91292587D02*
X147172933Y-91244968D01*
X148220552Y-91292587D02*
X148125314Y-91244968D01*
X148125314Y-91244968D02*
X148077695Y-91197348D01*
X148077695Y-91197348D02*
X148030076Y-91102110D01*
X148030076Y-91102110D02*
X148030076Y-90816396D01*
X148030076Y-90816396D02*
X148077695Y-90721158D01*
X148077695Y-90721158D02*
X148125314Y-90673539D01*
X148125314Y-90673539D02*
X148220552Y-90625920D01*
X148220552Y-90625920D02*
X148363409Y-90625920D01*
X148363409Y-90625920D02*
X148458647Y-90673539D01*
X148458647Y-90673539D02*
X148506266Y-90721158D01*
X148506266Y-90721158D02*
X148553885Y-90816396D01*
X148553885Y-90816396D02*
X148553885Y-91102110D01*
X148553885Y-91102110D02*
X148506266Y-91197348D01*
X148506266Y-91197348D02*
X148458647Y-91244968D01*
X148458647Y-91244968D02*
X148363409Y-91292587D01*
X148363409Y-91292587D02*
X148220552Y-91292587D01*
X149411028Y-91292587D02*
X149411028Y-90768777D01*
X149411028Y-90768777D02*
X149363409Y-90673539D01*
X149363409Y-90673539D02*
X149268171Y-90625920D01*
X149268171Y-90625920D02*
X149077695Y-90625920D01*
X149077695Y-90625920D02*
X148982457Y-90673539D01*
X149411028Y-91244968D02*
X149315790Y-91292587D01*
X149315790Y-91292587D02*
X149077695Y-91292587D01*
X149077695Y-91292587D02*
X148982457Y-91244968D01*
X148982457Y-91244968D02*
X148934838Y-91149729D01*
X148934838Y-91149729D02*
X148934838Y-91054491D01*
X148934838Y-91054491D02*
X148982457Y-90959253D01*
X148982457Y-90959253D02*
X149077695Y-90911634D01*
X149077695Y-90911634D02*
X149315790Y-90911634D01*
X149315790Y-90911634D02*
X149411028Y-90864015D01*
X149887219Y-91292587D02*
X149887219Y-90625920D01*
X149887219Y-90816396D02*
X149934838Y-90721158D01*
X149934838Y-90721158D02*
X149982457Y-90673539D01*
X149982457Y-90673539D02*
X150077695Y-90625920D01*
X150077695Y-90625920D02*
X150172933Y-90625920D01*
X150934838Y-91292587D02*
X150934838Y-90292587D01*
X150934838Y-91244968D02*
X150839600Y-91292587D01*
X150839600Y-91292587D02*
X150649124Y-91292587D01*
X150649124Y-91292587D02*
X150553886Y-91244968D01*
X150553886Y-91244968D02*
X150506267Y-91197348D01*
X150506267Y-91197348D02*
X150458648Y-91102110D01*
X150458648Y-91102110D02*
X150458648Y-90816396D01*
X150458648Y-90816396D02*
X150506267Y-90721158D01*
X150506267Y-90721158D02*
X150553886Y-90673539D01*
X150553886Y-90673539D02*
X150649124Y-90625920D01*
X150649124Y-90625920D02*
X150839600Y-90625920D01*
X150839600Y-90625920D02*
X150934838Y-90673539D01*
X141553884Y-94512475D02*
X141553884Y-93512475D01*
X141553884Y-93512475D02*
X141887217Y-94226760D01*
X141887217Y-94226760D02*
X142220550Y-93512475D01*
X142220550Y-93512475D02*
X142220550Y-94512475D01*
X142553884Y-93845808D02*
X142934836Y-93845808D01*
X142696741Y-94512475D02*
X142696741Y-93655332D01*
X142696741Y-93655332D02*
X142744360Y-93560094D01*
X142744360Y-93560094D02*
X142839598Y-93512475D01*
X142839598Y-93512475D02*
X142934836Y-93512475D01*
X143696741Y-93845808D02*
X143696741Y-94655332D01*
X143696741Y-94655332D02*
X143649122Y-94750570D01*
X143649122Y-94750570D02*
X143601503Y-94798189D01*
X143601503Y-94798189D02*
X143506265Y-94845808D01*
X143506265Y-94845808D02*
X143363408Y-94845808D01*
X143363408Y-94845808D02*
X143268170Y-94798189D01*
X143696741Y-94464856D02*
X143601503Y-94512475D01*
X143601503Y-94512475D02*
X143411027Y-94512475D01*
X143411027Y-94512475D02*
X143315789Y-94464856D01*
X143315789Y-94464856D02*
X143268170Y-94417236D01*
X143268170Y-94417236D02*
X143220551Y-94321998D01*
X143220551Y-94321998D02*
X143220551Y-94036284D01*
X143220551Y-94036284D02*
X143268170Y-93941046D01*
X143268170Y-93941046D02*
X143315789Y-93893427D01*
X143315789Y-93893427D02*
X143411027Y-93845808D01*
X143411027Y-93845808D02*
X143601503Y-93845808D01*
X143601503Y-93845808D02*
X143696741Y-93893427D01*
X144172932Y-94417236D02*
X144220551Y-94464856D01*
X144220551Y-94464856D02*
X144172932Y-94512475D01*
X144172932Y-94512475D02*
X144125313Y-94464856D01*
X144125313Y-94464856D02*
X144172932Y-94417236D01*
X144172932Y-94417236D02*
X144172932Y-94512475D01*
X145744360Y-93988665D02*
X145411027Y-93988665D01*
X145411027Y-94512475D02*
X145411027Y-93512475D01*
X145411027Y-93512475D02*
X145887217Y-93512475D01*
X146696741Y-94512475D02*
X146696741Y-93988665D01*
X146696741Y-93988665D02*
X146649122Y-93893427D01*
X146649122Y-93893427D02*
X146553884Y-93845808D01*
X146553884Y-93845808D02*
X146363408Y-93845808D01*
X146363408Y-93845808D02*
X146268170Y-93893427D01*
X146696741Y-94464856D02*
X146601503Y-94512475D01*
X146601503Y-94512475D02*
X146363408Y-94512475D01*
X146363408Y-94512475D02*
X146268170Y-94464856D01*
X146268170Y-94464856D02*
X146220551Y-94369617D01*
X146220551Y-94369617D02*
X146220551Y-94274379D01*
X146220551Y-94274379D02*
X146268170Y-94179141D01*
X146268170Y-94179141D02*
X146363408Y-94131522D01*
X146363408Y-94131522D02*
X146601503Y-94131522D01*
X146601503Y-94131522D02*
X146696741Y-94083903D01*
X147315789Y-94512475D02*
X147220551Y-94464856D01*
X147220551Y-94464856D02*
X147172932Y-94369617D01*
X147172932Y-94369617D02*
X147172932Y-93512475D01*
X147839599Y-94512475D02*
X147744361Y-94464856D01*
X147744361Y-94464856D02*
X147696742Y-94369617D01*
X147696742Y-94369617D02*
X147696742Y-93512475D01*
X148934838Y-93607713D02*
X148982457Y-93560094D01*
X148982457Y-93560094D02*
X149077695Y-93512475D01*
X149077695Y-93512475D02*
X149315790Y-93512475D01*
X149315790Y-93512475D02*
X149411028Y-93560094D01*
X149411028Y-93560094D02*
X149458647Y-93607713D01*
X149458647Y-93607713D02*
X149506266Y-93702951D01*
X149506266Y-93702951D02*
X149506266Y-93798189D01*
X149506266Y-93798189D02*
X149458647Y-93941046D01*
X149458647Y-93941046D02*
X148887219Y-94512475D01*
X148887219Y-94512475D02*
X149506266Y-94512475D01*
X150125314Y-93512475D02*
X150220552Y-93512475D01*
X150220552Y-93512475D02*
X150315790Y-93560094D01*
X150315790Y-93560094D02*
X150363409Y-93607713D01*
X150363409Y-93607713D02*
X150411028Y-93702951D01*
X150411028Y-93702951D02*
X150458647Y-93893427D01*
X150458647Y-93893427D02*
X150458647Y-94131522D01*
X150458647Y-94131522D02*
X150411028Y-94321998D01*
X150411028Y-94321998D02*
X150363409Y-94417236D01*
X150363409Y-94417236D02*
X150315790Y-94464856D01*
X150315790Y-94464856D02*
X150220552Y-94512475D01*
X150220552Y-94512475D02*
X150125314Y-94512475D01*
X150125314Y-94512475D02*
X150030076Y-94464856D01*
X150030076Y-94464856D02*
X149982457Y-94417236D01*
X149982457Y-94417236D02*
X149934838Y-94321998D01*
X149934838Y-94321998D02*
X149887219Y-94131522D01*
X149887219Y-94131522D02*
X149887219Y-93893427D01*
X149887219Y-93893427D02*
X149934838Y-93702951D01*
X149934838Y-93702951D02*
X149982457Y-93607713D01*
X149982457Y-93607713D02*
X150030076Y-93560094D01*
X150030076Y-93560094D02*
X150125314Y-93512475D01*
X150839600Y-93607713D02*
X150887219Y-93560094D01*
X150887219Y-93560094D02*
X150982457Y-93512475D01*
X150982457Y-93512475D02*
X151220552Y-93512475D01*
X151220552Y-93512475D02*
X151315790Y-93560094D01*
X151315790Y-93560094D02*
X151363409Y-93607713D01*
X151363409Y-93607713D02*
X151411028Y-93702951D01*
X151411028Y-93702951D02*
X151411028Y-93798189D01*
X151411028Y-93798189D02*
X151363409Y-93941046D01*
X151363409Y-93941046D02*
X150791981Y-94512475D01*
X150791981Y-94512475D02*
X151411028Y-94512475D01*
X152315790Y-93512475D02*
X151839600Y-93512475D01*
X151839600Y-93512475D02*
X151791981Y-93988665D01*
X151791981Y-93988665D02*
X151839600Y-93941046D01*
X151839600Y-93941046D02*
X151934838Y-93893427D01*
X151934838Y-93893427D02*
X152172933Y-93893427D01*
X152172933Y-93893427D02*
X152268171Y-93941046D01*
X152268171Y-93941046D02*
X152315790Y-93988665D01*
X152315790Y-93988665D02*
X152363409Y-94083903D01*
X152363409Y-94083903D02*
X152363409Y-94321998D01*
X152363409Y-94321998D02*
X152315790Y-94417236D01*
X152315790Y-94417236D02*
X152268171Y-94464856D01*
X152268171Y-94464856D02*
X152172933Y-94512475D01*
X152172933Y-94512475D02*
X151934838Y-94512475D01*
X151934838Y-94512475D02*
X151839600Y-94464856D01*
X151839600Y-94464856D02*
X151791981Y-94417236D01*
X142125312Y-96122419D02*
X141791979Y-95646228D01*
X141553884Y-96122419D02*
X141553884Y-95122419D01*
X141553884Y-95122419D02*
X141934836Y-95122419D01*
X141934836Y-95122419D02*
X142030074Y-95170038D01*
X142030074Y-95170038D02*
X142077693Y-95217657D01*
X142077693Y-95217657D02*
X142125312Y-95312895D01*
X142125312Y-95312895D02*
X142125312Y-95455752D01*
X142125312Y-95455752D02*
X142077693Y-95550990D01*
X142077693Y-95550990D02*
X142030074Y-95598609D01*
X142030074Y-95598609D02*
X141934836Y-95646228D01*
X141934836Y-95646228D02*
X141553884Y-95646228D01*
X142934836Y-96074800D02*
X142839598Y-96122419D01*
X142839598Y-96122419D02*
X142649122Y-96122419D01*
X142649122Y-96122419D02*
X142553884Y-96074800D01*
X142553884Y-96074800D02*
X142506265Y-95979561D01*
X142506265Y-95979561D02*
X142506265Y-95598609D01*
X142506265Y-95598609D02*
X142553884Y-95503371D01*
X142553884Y-95503371D02*
X142649122Y-95455752D01*
X142649122Y-95455752D02*
X142839598Y-95455752D01*
X142839598Y-95455752D02*
X142934836Y-95503371D01*
X142934836Y-95503371D02*
X142982455Y-95598609D01*
X142982455Y-95598609D02*
X142982455Y-95693847D01*
X142982455Y-95693847D02*
X142506265Y-95789085D01*
X143315789Y-95455752D02*
X143553884Y-96122419D01*
X143553884Y-96122419D02*
X143791979Y-95455752D01*
X144172932Y-96027180D02*
X144220551Y-96074800D01*
X144220551Y-96074800D02*
X144172932Y-96122419D01*
X144172932Y-96122419D02*
X144125313Y-96074800D01*
X144125313Y-96074800D02*
X144172932Y-96027180D01*
X144172932Y-96027180D02*
X144172932Y-96122419D01*
X145601503Y-95122419D02*
X145696741Y-95122419D01*
X145696741Y-95122419D02*
X145791979Y-95170038D01*
X145791979Y-95170038D02*
X145839598Y-95217657D01*
X145839598Y-95217657D02*
X145887217Y-95312895D01*
X145887217Y-95312895D02*
X145934836Y-95503371D01*
X145934836Y-95503371D02*
X145934836Y-95741466D01*
X145934836Y-95741466D02*
X145887217Y-95931942D01*
X145887217Y-95931942D02*
X145839598Y-96027180D01*
X145839598Y-96027180D02*
X145791979Y-96074800D01*
X145791979Y-96074800D02*
X145696741Y-96122419D01*
X145696741Y-96122419D02*
X145601503Y-96122419D01*
X145601503Y-96122419D02*
X145506265Y-96074800D01*
X145506265Y-96074800D02*
X145458646Y-96027180D01*
X145458646Y-96027180D02*
X145411027Y-95931942D01*
X145411027Y-95931942D02*
X145363408Y-95741466D01*
X145363408Y-95741466D02*
X145363408Y-95503371D01*
X145363408Y-95503371D02*
X145411027Y-95312895D01*
X145411027Y-95312895D02*
X145458646Y-95217657D01*
X145458646Y-95217657D02*
X145506265Y-95170038D01*
X145506265Y-95170038D02*
X145601503Y-95122419D01*
X146363408Y-96027180D02*
X146411027Y-96074800D01*
X146411027Y-96074800D02*
X146363408Y-96122419D01*
X146363408Y-96122419D02*
X146315789Y-96074800D01*
X146315789Y-96074800D02*
X146363408Y-96027180D01*
X146363408Y-96027180D02*
X146363408Y-96122419D01*
X147030074Y-95122419D02*
X147125312Y-95122419D01*
X147125312Y-95122419D02*
X147220550Y-95170038D01*
X147220550Y-95170038D02*
X147268169Y-95217657D01*
X147268169Y-95217657D02*
X147315788Y-95312895D01*
X147315788Y-95312895D02*
X147363407Y-95503371D01*
X147363407Y-95503371D02*
X147363407Y-95741466D01*
X147363407Y-95741466D02*
X147315788Y-95931942D01*
X147315788Y-95931942D02*
X147268169Y-96027180D01*
X147268169Y-96027180D02*
X147220550Y-96074800D01*
X147220550Y-96074800D02*
X147125312Y-96122419D01*
X147125312Y-96122419D02*
X147030074Y-96122419D01*
X147030074Y-96122419D02*
X146934836Y-96074800D01*
X146934836Y-96074800D02*
X146887217Y-96027180D01*
X146887217Y-96027180D02*
X146839598Y-95931942D01*
X146839598Y-95931942D02*
X146791979Y-95741466D01*
X146791979Y-95741466D02*
X146791979Y-95503371D01*
X146791979Y-95503371D02*
X146839598Y-95312895D01*
X146839598Y-95312895D02*
X146887217Y-95217657D01*
X146887217Y-95217657D02*
X146934836Y-95170038D01*
X146934836Y-95170038D02*
X147030074Y-95122419D01*
X147791979Y-96027180D02*
X147839598Y-96074800D01*
X147839598Y-96074800D02*
X147791979Y-96122419D01*
X147791979Y-96122419D02*
X147744360Y-96074800D01*
X147744360Y-96074800D02*
X147791979Y-96027180D01*
X147791979Y-96027180D02*
X147791979Y-96122419D01*
X148791978Y-96122419D02*
X148220550Y-96122419D01*
X148506264Y-96122419D02*
X148506264Y-95122419D01*
X148506264Y-95122419D02*
X148411026Y-95265276D01*
X148411026Y-95265276D02*
X148315788Y-95360514D01*
X148315788Y-95360514D02*
X148220550Y-95408133D01*
D11*
X141416666Y-68454819D02*
X141416666Y-69169104D01*
X141416666Y-69169104D02*
X141369047Y-69311961D01*
X141369047Y-69311961D02*
X141273809Y-69407200D01*
X141273809Y-69407200D02*
X141130952Y-69454819D01*
X141130952Y-69454819D02*
X141035714Y-69454819D01*
X141845238Y-68550057D02*
X141892857Y-68502438D01*
X141892857Y-68502438D02*
X141988095Y-68454819D01*
X141988095Y-68454819D02*
X142226190Y-68454819D01*
X142226190Y-68454819D02*
X142321428Y-68502438D01*
X142321428Y-68502438D02*
X142369047Y-68550057D01*
X142369047Y-68550057D02*
X142416666Y-68645295D01*
X142416666Y-68645295D02*
X142416666Y-68740533D01*
X142416666Y-68740533D02*
X142369047Y-68883390D01*
X142369047Y-68883390D02*
X141797619Y-69454819D01*
X141797619Y-69454819D02*
X142416666Y-69454819D01*
X154833333Y-96109580D02*
X154785714Y-96157200D01*
X154785714Y-96157200D02*
X154642857Y-96204819D01*
X154642857Y-96204819D02*
X154547619Y-96204819D01*
X154547619Y-96204819D02*
X154404762Y-96157200D01*
X154404762Y-96157200D02*
X154309524Y-96061961D01*
X154309524Y-96061961D02*
X154261905Y-95966723D01*
X154261905Y-95966723D02*
X154214286Y-95776247D01*
X154214286Y-95776247D02*
X154214286Y-95633390D01*
X154214286Y-95633390D02*
X154261905Y-95442914D01*
X154261905Y-95442914D02*
X154309524Y-95347676D01*
X154309524Y-95347676D02*
X154404762Y-95252438D01*
X154404762Y-95252438D02*
X154547619Y-95204819D01*
X154547619Y-95204819D02*
X154642857Y-95204819D01*
X154642857Y-95204819D02*
X154785714Y-95252438D01*
X154785714Y-95252438D02*
X154833333Y-95300057D01*
X155214286Y-95300057D02*
X155261905Y-95252438D01*
X155261905Y-95252438D02*
X155357143Y-95204819D01*
X155357143Y-95204819D02*
X155595238Y-95204819D01*
X155595238Y-95204819D02*
X155690476Y-95252438D01*
X155690476Y-95252438D02*
X155738095Y-95300057D01*
X155738095Y-95300057D02*
X155785714Y-95395295D01*
X155785714Y-95395295D02*
X155785714Y-95490533D01*
X155785714Y-95490533D02*
X155738095Y-95633390D01*
X155738095Y-95633390D02*
X155166667Y-96204819D01*
X155166667Y-96204819D02*
X155785714Y-96204819D01*
X141416666Y-99454819D02*
X141416666Y-100169104D01*
X141416666Y-100169104D02*
X141369047Y-100311961D01*
X141369047Y-100311961D02*
X141273809Y-100407200D01*
X141273809Y-100407200D02*
X141130952Y-100454819D01*
X141130952Y-100454819D02*
X141035714Y-100454819D01*
X142416666Y-100454819D02*
X141845238Y-100454819D01*
X142130952Y-100454819D02*
X142130952Y-99454819D01*
X142130952Y-99454819D02*
X142035714Y-99597676D01*
X142035714Y-99597676D02*
X141940476Y-99692914D01*
X141940476Y-99692914D02*
X141845238Y-99740533D01*
X146223095Y-68499819D02*
X146223095Y-69309342D01*
X146223095Y-69309342D02*
X146270714Y-69404580D01*
X146270714Y-69404580D02*
X146318333Y-69452200D01*
X146318333Y-69452200D02*
X146413571Y-69499819D01*
X146413571Y-69499819D02*
X146604047Y-69499819D01*
X146604047Y-69499819D02*
X146699285Y-69452200D01*
X146699285Y-69452200D02*
X146746904Y-69404580D01*
X146746904Y-69404580D02*
X146794523Y-69309342D01*
X146794523Y-69309342D02*
X146794523Y-68499819D01*
X147794523Y-69499819D02*
X147223095Y-69499819D01*
X147508809Y-69499819D02*
X147508809Y-68499819D01*
X147508809Y-68499819D02*
X147413571Y-68642676D01*
X147413571Y-68642676D02*
X147318333Y-68737914D01*
X147318333Y-68737914D02*
X147223095Y-68785533D01*
X154883333Y-107454819D02*
X154550000Y-106978628D01*
X154311905Y-107454819D02*
X154311905Y-106454819D01*
X154311905Y-106454819D02*
X154692857Y-106454819D01*
X154692857Y-106454819D02*
X154788095Y-106502438D01*
X154788095Y-106502438D02*
X154835714Y-106550057D01*
X154835714Y-106550057D02*
X154883333Y-106645295D01*
X154883333Y-106645295D02*
X154883333Y-106788152D01*
X154883333Y-106788152D02*
X154835714Y-106883390D01*
X154835714Y-106883390D02*
X154788095Y-106931009D01*
X154788095Y-106931009D02*
X154692857Y-106978628D01*
X154692857Y-106978628D02*
X154311905Y-106978628D01*
X155264286Y-106550057D02*
X155311905Y-106502438D01*
X155311905Y-106502438D02*
X155407143Y-106454819D01*
X155407143Y-106454819D02*
X155645238Y-106454819D01*
X155645238Y-106454819D02*
X155740476Y-106502438D01*
X155740476Y-106502438D02*
X155788095Y-106550057D01*
X155788095Y-106550057D02*
X155835714Y-106645295D01*
X155835714Y-106645295D02*
X155835714Y-106740533D01*
X155835714Y-106740533D02*
X155788095Y-106883390D01*
X155788095Y-106883390D02*
X155216667Y-107454819D01*
X155216667Y-107454819D02*
X155835714Y-107454819D01*
X154083333Y-69609580D02*
X154035714Y-69657200D01*
X154035714Y-69657200D02*
X153892857Y-69704819D01*
X153892857Y-69704819D02*
X153797619Y-69704819D01*
X153797619Y-69704819D02*
X153654762Y-69657200D01*
X153654762Y-69657200D02*
X153559524Y-69561961D01*
X153559524Y-69561961D02*
X153511905Y-69466723D01*
X153511905Y-69466723D02*
X153464286Y-69276247D01*
X153464286Y-69276247D02*
X153464286Y-69133390D01*
X153464286Y-69133390D02*
X153511905Y-68942914D01*
X153511905Y-68942914D02*
X153559524Y-68847676D01*
X153559524Y-68847676D02*
X153654762Y-68752438D01*
X153654762Y-68752438D02*
X153797619Y-68704819D01*
X153797619Y-68704819D02*
X153892857Y-68704819D01*
X153892857Y-68704819D02*
X154035714Y-68752438D01*
X154035714Y-68752438D02*
X154083333Y-68800057D01*
X154416667Y-68704819D02*
X155035714Y-68704819D01*
X155035714Y-68704819D02*
X154702381Y-69085771D01*
X154702381Y-69085771D02*
X154845238Y-69085771D01*
X154845238Y-69085771D02*
X154940476Y-69133390D01*
X154940476Y-69133390D02*
X154988095Y-69181009D01*
X154988095Y-69181009D02*
X155035714Y-69276247D01*
X155035714Y-69276247D02*
X155035714Y-69514342D01*
X155035714Y-69514342D02*
X154988095Y-69609580D01*
X154988095Y-69609580D02*
X154940476Y-69657200D01*
X154940476Y-69657200D02*
X154845238Y-69704819D01*
X154845238Y-69704819D02*
X154559524Y-69704819D01*
X154559524Y-69704819D02*
X154464286Y-69657200D01*
X154464286Y-69657200D02*
X154416667Y-69609580D01*
X154883333Y-100784819D02*
X154550000Y-100308628D01*
X154311905Y-100784819D02*
X154311905Y-99784819D01*
X154311905Y-99784819D02*
X154692857Y-99784819D01*
X154692857Y-99784819D02*
X154788095Y-99832438D01*
X154788095Y-99832438D02*
X154835714Y-99880057D01*
X154835714Y-99880057D02*
X154883333Y-99975295D01*
X154883333Y-99975295D02*
X154883333Y-100118152D01*
X154883333Y-100118152D02*
X154835714Y-100213390D01*
X154835714Y-100213390D02*
X154788095Y-100261009D01*
X154788095Y-100261009D02*
X154692857Y-100308628D01*
X154692857Y-100308628D02*
X154311905Y-100308628D01*
X155835714Y-100784819D02*
X155264286Y-100784819D01*
X155550000Y-100784819D02*
X155550000Y-99784819D01*
X155550000Y-99784819D02*
X155454762Y-99927676D01*
X155454762Y-99927676D02*
X155359524Y-100022914D01*
X155359524Y-100022914D02*
X155264286Y-100070533D01*
X146488095Y-100954819D02*
X146488095Y-101764342D01*
X146488095Y-101764342D02*
X146535714Y-101859580D01*
X146535714Y-101859580D02*
X146583333Y-101907200D01*
X146583333Y-101907200D02*
X146678571Y-101954819D01*
X146678571Y-101954819D02*
X146869047Y-101954819D01*
X146869047Y-101954819D02*
X146964285Y-101907200D01*
X146964285Y-101907200D02*
X147011904Y-101859580D01*
X147011904Y-101859580D02*
X147059523Y-101764342D01*
X147059523Y-101764342D02*
X147059523Y-100954819D01*
X147488095Y-101050057D02*
X147535714Y-101002438D01*
X147535714Y-101002438D02*
X147630952Y-100954819D01*
X147630952Y-100954819D02*
X147869047Y-100954819D01*
X147869047Y-100954819D02*
X147964285Y-101002438D01*
X147964285Y-101002438D02*
X148011904Y-101050057D01*
X148011904Y-101050057D02*
X148059523Y-101145295D01*
X148059523Y-101145295D02*
X148059523Y-101240533D01*
X148059523Y-101240533D02*
X148011904Y-101383390D01*
X148011904Y-101383390D02*
X147440476Y-101954819D01*
X147440476Y-101954819D02*
X148059523Y-101954819D01*
X141833333Y-109609580D02*
X141785714Y-109657200D01*
X141785714Y-109657200D02*
X141642857Y-109704819D01*
X141642857Y-109704819D02*
X141547619Y-109704819D01*
X141547619Y-109704819D02*
X141404762Y-109657200D01*
X141404762Y-109657200D02*
X141309524Y-109561961D01*
X141309524Y-109561961D02*
X141261905Y-109466723D01*
X141261905Y-109466723D02*
X141214286Y-109276247D01*
X141214286Y-109276247D02*
X141214286Y-109133390D01*
X141214286Y-109133390D02*
X141261905Y-108942914D01*
X141261905Y-108942914D02*
X141309524Y-108847676D01*
X141309524Y-108847676D02*
X141404762Y-108752438D01*
X141404762Y-108752438D02*
X141547619Y-108704819D01*
X141547619Y-108704819D02*
X141642857Y-108704819D01*
X141642857Y-108704819D02*
X141785714Y-108752438D01*
X141785714Y-108752438D02*
X141833333Y-108800057D01*
X142785714Y-109704819D02*
X142214286Y-109704819D01*
X142500000Y-109704819D02*
X142500000Y-108704819D01*
X142500000Y-108704819D02*
X142404762Y-108847676D01*
X142404762Y-108847676D02*
X142309524Y-108942914D01*
X142309524Y-108942914D02*
X142214286Y-108990533D01*
D12*
%TO.C,J2*%
X132940000Y-68130000D02*
X132940000Y-98610000D01*
X132940000Y-98610000D02*
X140560000Y-98610000D01*
X134210000Y-68130000D02*
X134210000Y-98610000D01*
X140560000Y-68130000D02*
X132940000Y-68130000D01*
X140560000Y-68130000D02*
X140560000Y-98610000D01*
%TO.C,C2*%
X147290000Y-98250000D02*
X147980000Y-98250000D01*
X147980000Y-96830000D02*
X147980000Y-99670000D01*
X147980000Y-99670000D02*
X152020000Y-99670000D01*
X152020000Y-96830000D02*
X147980000Y-96830000D01*
X152020000Y-99670000D02*
X152020000Y-96830000D01*
X152710000Y-98250000D02*
X152020000Y-98250000D01*
%TO.C,J1*%
X132940000Y-100170000D02*
X132940000Y-110330000D01*
X132940000Y-110330000D02*
X140560000Y-110330000D01*
X139290000Y-100170000D02*
X139290000Y-110330000D01*
X140560000Y-100170000D02*
X132940000Y-100170000D01*
X140560000Y-110330000D02*
X140560000Y-100170000D01*
%TO.C,U1*%
X144735000Y-70045000D02*
X144735000Y-87945000D01*
X144735000Y-87945000D02*
X149235000Y-87945000D01*
X145985000Y-70045000D02*
X144735000Y-70045000D01*
X149235000Y-70045000D02*
X147985000Y-70045000D01*
X149235000Y-87945000D02*
X149235000Y-70045000D01*
X147985000Y-70045000D02*
G75*
G02*
X145985000Y-70045000I-1000000J0D01*
G01*
%TO.C,R2*%
X150680000Y-105000000D02*
X153840000Y-105000000D01*
X150680000Y-105000000D02*
G75*
G02*
X148840000Y-105000000I-920000J0D01*
G01*
X148840000Y-105000000D02*
G75*
G02*
X150680000Y-105000000I920000J0D01*
G01*
%TO.C,C3*%
X152830000Y-72980000D02*
X152830000Y-77020000D01*
X152830000Y-77020000D02*
X155670000Y-77020000D01*
X154250000Y-72290000D02*
X154250000Y-72980000D01*
X154250000Y-77710000D02*
X154250000Y-77020000D01*
X155670000Y-72980000D02*
X152830000Y-72980000D01*
X155670000Y-77020000D02*
X155670000Y-72980000D01*
%TO.C,R1*%
X150680000Y-102250000D02*
X153840000Y-102250000D01*
X150680000Y-102250000D02*
G75*
G02*
X148840000Y-102250000I-920000J0D01*
G01*
X148840000Y-102250000D02*
G75*
G02*
X150680000Y-102250000I920000J0D01*
G01*
%TO.C,U2*%
X143500000Y-106700000D02*
X147350000Y-106700000D01*
X143500000Y-106700000D02*
G75*
G02*
X147388611Y-106690122I1940000J1700000D01*
G01*
%TO.C,C1*%
X145290000Y-108750000D02*
X145980000Y-108750000D01*
X145980000Y-107330000D02*
X145980000Y-110170000D01*
X145980000Y-110170000D02*
X150020000Y-110170000D01*
X150020000Y-107330000D02*
X145980000Y-107330000D01*
X150020000Y-110170000D02*
X150020000Y-107330000D01*
X150710000Y-108750000D02*
X150020000Y-108750000D01*
%TD*%
%LPC*%
D13*
%TO.C,J2*%
X136750000Y-70670000D03*
D14*
X136750000Y-75750000D03*
X136750000Y-80830000D03*
X136750000Y-85910000D03*
X136750000Y-90990000D03*
X136750000Y-96070000D03*
%TD*%
D15*
%TO.C,C2*%
X146250000Y-98250000D03*
D16*
X153750000Y-98250000D03*
%TD*%
D13*
%TO.C,J1*%
X136750000Y-107790000D03*
D14*
X136750000Y-102710000D03*
%TD*%
D17*
%TO.C,U1*%
X143175000Y-71375000D03*
D18*
X143175000Y-73915000D03*
X143175000Y-76455000D03*
X143175000Y-78995000D03*
X143175000Y-81535000D03*
X143175000Y-84075000D03*
X143175000Y-86615000D03*
X150795000Y-86615000D03*
X150795000Y-84075000D03*
X150795000Y-81535000D03*
X150795000Y-78995000D03*
X150795000Y-76455000D03*
X150795000Y-73915000D03*
X150795000Y-71375000D03*
%TD*%
D19*
%TO.C,R2*%
X149760000Y-105000000D03*
D20*
X154840000Y-105000000D03*
%TD*%
D15*
%TO.C,C3*%
X154250000Y-71250000D03*
D16*
X154250000Y-78750000D03*
%TD*%
D19*
%TO.C,R1*%
X149760000Y-102250000D03*
D20*
X154840000Y-102250000D03*
%TD*%
D21*
%TO.C,U2*%
X146790000Y-105000000D03*
D22*
X144250000Y-105000000D03*
D21*
X145520000Y-105000000D03*
%TD*%
D15*
%TO.C,C1*%
X144250000Y-108750000D03*
D16*
X151750000Y-108750000D03*
%TD*%
%LPD*%
M02*
