M48
; DRILL file {KiCad 9.0.5-9.0.5~ubuntu25.04.1} date 2025-11-06T00:05:42-0600
; FORMAT={-:-/ absolute / metric / decimal}
; #@! TF.CreationDate,2025-11-06T00:05:42-06:00
; #@! TF.GenerationSoftware,Kicad,Pcbnew,9.0.5-9.0.5~ubuntu25.04.1
; #@! TF.FileFunction,Plated,1,2,PTH
FMAT,2
METRIC
; #@! TA.AperFunction,Plated,PTH,ComponentDrill
T1C0.700
; #@! TA.AperFunction,Plated,PTH,ComponentDrill
T2C0.750
; #@! TA.AperFunction,Plated,PTH,ComponentDrill
T3C0.800
; #@! TA.AperFunction,Plated,PTH,ComponentDrill
T4C1.520
%
G90
G05
T1
X149.76Y-102.25
X149.76Y-105.0
X154.84Y-102.25
X154.84Y-105.0
T2
X144.25Y-105.0
X145.52Y-105.0
X146.79Y-105.0
T3
X143.175Y-71.375
X143.175Y-73.915
X143.175Y-76.455
X143.175Y-78.995
X143.175Y-81.535
X143.175Y-84.075
X143.175Y-86.615
X144.25Y-108.75
X146.25Y-98.25
X150.795Y-71.375
X150.795Y-73.915
X150.795Y-76.455
X150.795Y-78.995
X150.795Y-81.535
X150.795Y-84.075
X150.795Y-86.615
X151.75Y-108.75
X153.75Y-98.25
X154.25Y-71.25
X154.25Y-78.75
T4
X136.75Y-70.67
X136.75Y-75.75
X136.75Y-80.83
X136.75Y-85.91
X136.75Y-90.99
X136.75Y-96.07
X136.75Y-102.71
X136.75Y-107.79
M30
