G04 #@! TF.GenerationSoftware,KiCad,Pcbnew,9.0.5-9.0.5~ubuntu25.04.1*
G04 #@! TF.CreationDate,2025-12-03T04:11:04-06:00*
G04 #@! TF.ProjectId,Return_Board,52657475-726e-45f4-926f-6172642e6b69,rev?*
G04 #@! TF.SameCoordinates,Original*
G04 #@! TF.FileFunction,Copper,L2,Bot*
G04 #@! TF.FilePolarity,Positive*
%FSLAX46Y46*%
G04 Gerber Fmt 4.6, Leading zero omitted, Abs format (unit mm)*
G04 Created by KiCad (PCBNEW 9.0.5-9.0.5~ubuntu25.04.1) date 2025-12-03 04:11:04*
%MOMM*%
%LPD*%
G01*
G04 APERTURE LIST*
G04 Aperture macros list*
%AMRoundRect*
0 Rectangle with rounded corners*
0 $1 Rounding radius*
0 $2 $3 $4 $5 $6 $7 $8 $9 X,Y pos of 4 corners*
0 Add a 4 corners polygon primitive as box body*
4,1,4,$2,$3,$4,$5,$6,$7,$8,$9,$2,$3,0*
0 Add four circle primitives for the rounded corners*
1,1,$1+$1,$2,$3*
1,1,$1+$1,$4,$5*
1,1,$1+$1,$6,$7*
1,1,$1+$1,$8,$9*
0 Add four rect primitives between the rounded corners*
20,1,$1+$1,$2,$3,$4,$5,0*
20,1,$1+$1,$4,$5,$6,$7,0*
20,1,$1+$1,$6,$7,$8,$9,0*
20,1,$1+$1,$8,$9,$2,$3,0*%
G04 Aperture macros list end*
G04 #@! TA.AperFunction,ComponentPad*
%ADD10R,3.000000X3.000000*%
G04 #@! TD*
G04 #@! TA.AperFunction,ComponentPad*
%ADD11C,3.000000*%
G04 #@! TD*
G04 #@! TA.AperFunction,ComponentPad*
%ADD12C,1.600000*%
G04 #@! TD*
G04 #@! TA.AperFunction,ComponentPad*
%ADD13O,1.600000X1.600000*%
G04 #@! TD*
G04 #@! TA.AperFunction,ComponentPad*
%ADD14R,2.400000X1.600000*%
G04 #@! TD*
G04 #@! TA.AperFunction,ComponentPad*
%ADD15O,2.400000X1.600000*%
G04 #@! TD*
G04 #@! TA.AperFunction,ComponentPad*
%ADD16C,1.400000*%
G04 #@! TD*
G04 #@! TA.AperFunction,ComponentPad*
%ADD17O,1.400000X1.400000*%
G04 #@! TD*
G04 #@! TA.AperFunction,ComponentPad*
%ADD18C,2.000000*%
G04 #@! TD*
G04 #@! TA.AperFunction,ComponentPad*
%ADD19RoundRect,0.262500X-0.262500X-0.487500X0.262500X-0.487500X0.262500X0.487500X-0.262500X0.487500X0*%
G04 #@! TD*
G04 #@! TA.AperFunction,ComponentPad*
%ADD20R,1.050000X1.500000*%
G04 #@! TD*
G04 APERTURE END LIST*
D10*
X136750000Y-70670000D03*
D11*
X136750000Y-75750000D03*
X136750000Y-80830000D03*
X136750000Y-85910000D03*
X136750000Y-90990000D03*
X136750000Y-96070000D03*
D12*
X155500000Y-101750000D03*
D13*
X155500000Y-109250000D03*
D10*
X136750000Y-107790000D03*
D11*
X136750000Y-102710000D03*
D14*
X143175000Y-72875000D03*
D15*
X143175000Y-75415000D03*
X143175000Y-77955000D03*
X143175000Y-80495000D03*
X143175000Y-83035000D03*
X143175000Y-85575000D03*
X143175000Y-88115000D03*
X150795000Y-88115000D03*
X150795000Y-85575000D03*
X150795000Y-83035000D03*
X150795000Y-80495000D03*
X150795000Y-77955000D03*
X150795000Y-75415000D03*
X150795000Y-72875000D03*
D16*
X152500000Y-105060000D03*
D17*
X152500000Y-97440000D03*
D18*
X144000000Y-69500000D03*
D12*
X154500000Y-73000000D03*
D13*
X154500000Y-80500000D03*
D16*
X149942000Y-97488000D03*
D17*
X149942000Y-105108000D03*
D18*
X149750000Y-69500000D03*
X154500000Y-86000000D03*
D19*
X146790000Y-105000000D03*
D20*
X144250000Y-105000000D03*
D19*
X145520000Y-105000000D03*
D12*
X144250000Y-108750000D03*
D13*
X151750000Y-108750000D03*
G04 #@! TA.AperFunction,Conductor*
G36*
X143196488Y-68020185D02*
G01*
X143242243Y-68072989D01*
X143252187Y-68142147D01*
X143223162Y-68205703D01*
X143202337Y-68224815D01*
X143022490Y-68355483D01*
X143022488Y-68355485D01*
X143022487Y-68355485D01*
X142855485Y-68522487D01*
X142855485Y-68522488D01*
X142855483Y-68522490D01*
X142795862Y-68604550D01*
X142716657Y-68713566D01*
X142609433Y-68924003D01*
X142536446Y-69148631D01*
X142499500Y-69381902D01*
X142499500Y-69618097D01*
X142536446Y-69851368D01*
X142609433Y-70075996D01*
X142716519Y-70286163D01*
X142716657Y-70286433D01*
X142855483Y-70477510D01*
X143022490Y-70644517D01*
X143213567Y-70783343D01*
X143312991Y-70834002D01*
X143424003Y-70890566D01*
X143424005Y-70890566D01*
X143424008Y-70890568D01*
X143544412Y-70929689D01*
X143648631Y-70963553D01*
X143881903Y-71000500D01*
X143881908Y-71000500D01*
X144118097Y-71000500D01*
X144351368Y-70963553D01*
X144352870Y-70963065D01*
X144575992Y-70890568D01*
X144786433Y-70783343D01*
X144977510Y-70644517D01*
X145144517Y-70477510D01*
X145283343Y-70286433D01*
X145390568Y-70075992D01*
X145463553Y-69851368D01*
X145488637Y-69692993D01*
X145500500Y-69618097D01*
X145500500Y-69381902D01*
X145463553Y-69148631D01*
X145391758Y-68927671D01*
X145390568Y-68924008D01*
X145390566Y-68924005D01*
X145390566Y-68924003D01*
X145333727Y-68812452D01*
X145283343Y-68713567D01*
X145144517Y-68522490D01*
X144977510Y-68355483D01*
X144797664Y-68224816D01*
X144755000Y-68169488D01*
X144749021Y-68099874D01*
X144781627Y-68038080D01*
X144842466Y-68003722D01*
X144870551Y-68000500D01*
X148880300Y-68000500D01*
X148947339Y-68020185D01*
X148993094Y-68072989D01*
X149003038Y-68142147D01*
X148974013Y-68205703D01*
X148953185Y-68224818D01*
X148880894Y-68277339D01*
X148880894Y-68277340D01*
X149620591Y-69017037D01*
X149557007Y-69034075D01*
X149442993Y-69099901D01*
X149349901Y-69192993D01*
X149284075Y-69307007D01*
X149267037Y-69370591D01*
X148527340Y-68630894D01*
X148467084Y-68713830D01*
X148359897Y-68924197D01*
X148286934Y-69148752D01*
X148250000Y-69381947D01*
X148250000Y-69618052D01*
X148286934Y-69851247D01*
X148359897Y-70075802D01*
X148467087Y-70286174D01*
X148527338Y-70369104D01*
X148527340Y-70369105D01*
X149267037Y-69629408D01*
X149284075Y-69692993D01*
X149349901Y-69807007D01*
X149442993Y-69900099D01*
X149557007Y-69965925D01*
X149620590Y-69982962D01*
X148880893Y-70722658D01*
X148963828Y-70782914D01*
X149174197Y-70890102D01*
X149398752Y-70963065D01*
X149398751Y-70963065D01*
X149631948Y-71000000D01*
X149868052Y-71000000D01*
X150101247Y-70963065D01*
X150325802Y-70890102D01*
X150536163Y-70782918D01*
X150536169Y-70782914D01*
X150619104Y-70722658D01*
X150619105Y-70722658D01*
X149879408Y-69982962D01*
X149942993Y-69965925D01*
X150057007Y-69900099D01*
X150150099Y-69807007D01*
X150215925Y-69692993D01*
X150232962Y-69629409D01*
X150972658Y-70369105D01*
X150972658Y-70369104D01*
X151032914Y-70286169D01*
X151032918Y-70286163D01*
X151140102Y-70075802D01*
X151213065Y-69851247D01*
X151250000Y-69618052D01*
X151250000Y-69381947D01*
X151213065Y-69148752D01*
X151140102Y-68924197D01*
X151032914Y-68713828D01*
X150972658Y-68630894D01*
X150972658Y-68630893D01*
X150232962Y-69370590D01*
X150215925Y-69307007D01*
X150150099Y-69192993D01*
X150057007Y-69099901D01*
X149942993Y-69034075D01*
X149879409Y-69017037D01*
X150619105Y-68277340D01*
X150619104Y-68277338D01*
X150546816Y-68224818D01*
X150504150Y-68169488D01*
X150498171Y-68099875D01*
X150530777Y-68038080D01*
X150591615Y-68003723D01*
X150619701Y-68000500D01*
X156875500Y-68000500D01*
X156942539Y-68020185D01*
X156988294Y-68072989D01*
X156999500Y-68124500D01*
X156999500Y-101373575D01*
X156979815Y-101440614D01*
X156927011Y-101486369D01*
X156857853Y-101496313D01*
X156794297Y-101467288D01*
X156757569Y-101411894D01*
X156705218Y-101250776D01*
X156671503Y-101184607D01*
X156612287Y-101068390D01*
X156594195Y-101043488D01*
X156491971Y-100902786D01*
X156347213Y-100758028D01*
X156181613Y-100637715D01*
X156181612Y-100637714D01*
X156181610Y-100637713D01*
X156124653Y-100608691D01*
X155999223Y-100544781D01*
X155804534Y-100481522D01*
X155629995Y-100453878D01*
X155602352Y-100449500D01*
X155397648Y-100449500D01*
X155373329Y-100453351D01*
X155195465Y-100481522D01*
X155000776Y-100544781D01*
X154818386Y-100637715D01*
X154652786Y-100758028D01*
X154508028Y-100902786D01*
X154387715Y-101068386D01*
X154294781Y-101250776D01*
X154231522Y-101445465D01*
X154199500Y-101647648D01*
X154199500Y-101852351D01*
X154231522Y-102054534D01*
X154294781Y-102249223D01*
X154387715Y-102431613D01*
X154508028Y-102597213D01*
X154652786Y-102741971D01*
X154789201Y-102841080D01*
X154818390Y-102862287D01*
X154934607Y-102921503D01*
X155000776Y-102955218D01*
X155000778Y-102955218D01*
X155000781Y-102955220D01*
X155105137Y-102989127D01*
X155195465Y-103018477D01*
X155296557Y-103034488D01*
X155397648Y-103050500D01*
X155397649Y-103050500D01*
X155602351Y-103050500D01*
X155602352Y-103050500D01*
X155804534Y-103018477D01*
X155999219Y-102955220D01*
X156181610Y-102862287D01*
X156288190Y-102784853D01*
X156347213Y-102741971D01*
X156347215Y-102741968D01*
X156347219Y-102741966D01*
X156491966Y-102597219D01*
X156491968Y-102597215D01*
X156491971Y-102597213D01*
X156571088Y-102488316D01*
X156612287Y-102431610D01*
X156705220Y-102249219D01*
X156757569Y-102088106D01*
X156797007Y-102030430D01*
X156861365Y-102003232D01*
X156930212Y-102015147D01*
X156981687Y-102062391D01*
X156999500Y-102126424D01*
X156999500Y-108875191D01*
X156979815Y-108942230D01*
X156927011Y-108987985D01*
X156857853Y-108997929D01*
X156794297Y-108968904D01*
X156757569Y-108913510D01*
X156704755Y-108750968D01*
X156611859Y-108568650D01*
X156491582Y-108403105D01*
X156491582Y-108403104D01*
X156346895Y-108258417D01*
X156181349Y-108138140D01*
X155999029Y-108045244D01*
X155804413Y-107982009D01*
X155750000Y-107973390D01*
X155750000Y-108934314D01*
X155745606Y-108929920D01*
X155654394Y-108877259D01*
X155552661Y-108850000D01*
X155447339Y-108850000D01*
X155345606Y-108877259D01*
X155254394Y-108929920D01*
X155250000Y-108934314D01*
X155250000Y-107973390D01*
X155195586Y-107982009D01*
X155000970Y-108045244D01*
X154818650Y-108138140D01*
X154653105Y-108258417D01*
X154653104Y-108258417D01*
X154508417Y-108403104D01*
X154508417Y-108403105D01*
X154388140Y-108568650D01*
X154295244Y-108750970D01*
X154232009Y-108945586D01*
X154223391Y-109000000D01*
X155184314Y-109000000D01*
X155179920Y-109004394D01*
X155127259Y-109095606D01*
X155100000Y-109197339D01*
X155100000Y-109302661D01*
X155127259Y-109404394D01*
X155179920Y-109495606D01*
X155184314Y-109500000D01*
X154223391Y-109500000D01*
X154232009Y-109554413D01*
X154295244Y-109749029D01*
X154388140Y-109931349D01*
X154508417Y-110096894D01*
X154508417Y-110096895D01*
X154653104Y-110241582D01*
X154699350Y-110275182D01*
X154742015Y-110330512D01*
X154747994Y-110400126D01*
X154715388Y-110461920D01*
X154654549Y-110496278D01*
X154626464Y-110499500D01*
X132874500Y-110499500D01*
X132807461Y-110479815D01*
X132761706Y-110427011D01*
X132750500Y-110375500D01*
X132750500Y-106242135D01*
X134749500Y-106242135D01*
X134749500Y-109337870D01*
X134749501Y-109337876D01*
X134755908Y-109397483D01*
X134806202Y-109532328D01*
X134806206Y-109532335D01*
X134892452Y-109647544D01*
X134892455Y-109647547D01*
X135007664Y-109733793D01*
X135007671Y-109733797D01*
X135142517Y-109784091D01*
X135142516Y-109784091D01*
X135149444Y-109784835D01*
X135202127Y-109790500D01*
X138297872Y-109790499D01*
X138357483Y-109784091D01*
X138492331Y-109733796D01*
X138607546Y-109647546D01*
X138693796Y-109532331D01*
X138744091Y-109397483D01*
X138750500Y-109337873D01*
X138750500Y-108647648D01*
X142949500Y-108647648D01*
X142949500Y-108852351D01*
X142981522Y-109054534D01*
X143044781Y-109249223D01*
X143108691Y-109374653D01*
X143120324Y-109397483D01*
X143137715Y-109431613D01*
X143258028Y-109597213D01*
X143402786Y-109741971D01*
X143557749Y-109854556D01*
X143568390Y-109862287D01*
X143684607Y-109921503D01*
X143750776Y-109955218D01*
X143750778Y-109955218D01*
X143750781Y-109955220D01*
X143855137Y-109989127D01*
X143945465Y-110018477D01*
X144046557Y-110034488D01*
X144147648Y-110050500D01*
X144147649Y-110050500D01*
X144352351Y-110050500D01*
X144352352Y-110050500D01*
X144554534Y-110018477D01*
X144749219Y-109955220D01*
X144931610Y-109862287D01*
X145030420Y-109790498D01*
X145097213Y-109741971D01*
X145097215Y-109741968D01*
X145097219Y-109741966D01*
X145241966Y-109597219D01*
X145241968Y-109597215D01*
X145241971Y-109597213D01*
X145312599Y-109500000D01*
X145362287Y-109431610D01*
X145455220Y-109249219D01*
X145518477Y-109054534D01*
X145550500Y-108852352D01*
X145550500Y-108647648D01*
X145527114Y-108500000D01*
X150473391Y-108500000D01*
X151434314Y-108500000D01*
X151429920Y-108504394D01*
X151377259Y-108595606D01*
X151350000Y-108697339D01*
X151350000Y-108802661D01*
X151377259Y-108904394D01*
X151429920Y-108995606D01*
X151434314Y-109000000D01*
X150473391Y-109000000D01*
X150482009Y-109054413D01*
X150545244Y-109249029D01*
X150638140Y-109431349D01*
X150758417Y-109596894D01*
X150758417Y-109596895D01*
X150903104Y-109741582D01*
X151068650Y-109861859D01*
X151250968Y-109954754D01*
X151445578Y-110017988D01*
X151500000Y-110026607D01*
X151500000Y-109065686D01*
X151504394Y-109070080D01*
X151595606Y-109122741D01*
X151697339Y-109150000D01*
X151802661Y-109150000D01*
X151904394Y-109122741D01*
X151995606Y-109070080D01*
X152000000Y-109065686D01*
X152000000Y-110026606D01*
X152054421Y-110017988D01*
X152249031Y-109954754D01*
X152431349Y-109861859D01*
X152596894Y-109741582D01*
X152596895Y-109741582D01*
X152741582Y-109596895D01*
X152741582Y-109596894D01*
X152861859Y-109431349D01*
X152954755Y-109249029D01*
X153017990Y-109054414D01*
X153023811Y-109017665D01*
X153023811Y-109017664D01*
X153026609Y-109000000D01*
X152065686Y-109000000D01*
X152070080Y-108995606D01*
X152122741Y-108904394D01*
X152150000Y-108802661D01*
X152150000Y-108697339D01*
X152122741Y-108595606D01*
X152070080Y-108504394D01*
X152065686Y-108500000D01*
X153026609Y-108500000D01*
X153017990Y-108445586D01*
X152954755Y-108250970D01*
X152861859Y-108068650D01*
X152741582Y-107903105D01*
X152741582Y-107903104D01*
X152596895Y-107758417D01*
X152431349Y-107638140D01*
X152249029Y-107545244D01*
X152054413Y-107482009D01*
X152000000Y-107473390D01*
X152000000Y-108434314D01*
X151995606Y-108429920D01*
X151904394Y-108377259D01*
X151802661Y-108350000D01*
X151697339Y-108350000D01*
X151595606Y-108377259D01*
X151504394Y-108429920D01*
X151500000Y-108434314D01*
X151500000Y-107473390D01*
X151445586Y-107482009D01*
X151250970Y-107545244D01*
X151068650Y-107638140D01*
X150903105Y-107758417D01*
X150903104Y-107758417D01*
X150758417Y-107903104D01*
X150758417Y-107903105D01*
X150638140Y-108068650D01*
X150545244Y-108250970D01*
X150482009Y-108445586D01*
X150473391Y-108500000D01*
X145527114Y-108500000D01*
X145518477Y-108445466D01*
X145455220Y-108250781D01*
X145455218Y-108250778D01*
X145455218Y-108250776D01*
X145362419Y-108068650D01*
X145362287Y-108068390D01*
X145345471Y-108045244D01*
X145241971Y-107902786D01*
X145097213Y-107758028D01*
X144931613Y-107637715D01*
X144931612Y-107637714D01*
X144931610Y-107637713D01*
X144874653Y-107608691D01*
X144749223Y-107544781D01*
X144554534Y-107481522D01*
X144379995Y-107453878D01*
X144352352Y-107449500D01*
X144147648Y-107449500D01*
X144123329Y-107453351D01*
X143945465Y-107481522D01*
X143750776Y-107544781D01*
X143568386Y-107637715D01*
X143402786Y-107758028D01*
X143258028Y-107902786D01*
X143137715Y-108068386D01*
X143044781Y-108250776D01*
X142981522Y-108445465D01*
X142949500Y-108647648D01*
X138750500Y-108647648D01*
X138750499Y-107758417D01*
X138750499Y-106242129D01*
X138750498Y-106242123D01*
X138750497Y-106242116D01*
X138744091Y-106182517D01*
X138743692Y-106181448D01*
X138693797Y-106047671D01*
X138693793Y-106047664D01*
X138607547Y-105932455D01*
X138607544Y-105932452D01*
X138492335Y-105846206D01*
X138492328Y-105846202D01*
X138357482Y-105795908D01*
X138357483Y-105795908D01*
X138297883Y-105789501D01*
X138297881Y-105789500D01*
X138297873Y-105789500D01*
X138297864Y-105789500D01*
X135202129Y-105789500D01*
X135202123Y-105789501D01*
X135142516Y-105795908D01*
X135007671Y-105846202D01*
X135007664Y-105846206D01*
X134892455Y-105932452D01*
X134892452Y-105932455D01*
X134806206Y-106047664D01*
X134806202Y-106047671D01*
X134755908Y-106182517D01*
X134749501Y-106242116D01*
X134749501Y-106242123D01*
X134749500Y-106242135D01*
X132750500Y-106242135D01*
X132750500Y-102578905D01*
X134750000Y-102578905D01*
X134750000Y-102841094D01*
X134784220Y-103101009D01*
X134784222Y-103101020D01*
X134852075Y-103354255D01*
X134952404Y-103596471D01*
X134952409Y-103596482D01*
X135083488Y-103823516D01*
X135083494Y-103823524D01*
X135170080Y-103936365D01*
X136064767Y-103041677D01*
X136076497Y-103069995D01*
X136159670Y-103194472D01*
X136265528Y-103300330D01*
X136390005Y-103383503D01*
X136418320Y-103395231D01*
X135523633Y-104289917D01*
X135523633Y-104289918D01*
X135636475Y-104376505D01*
X135636483Y-104376511D01*
X135863517Y-104507590D01*
X135863528Y-104507595D01*
X136105744Y-104607924D01*
X136358979Y-104675777D01*
X136358990Y-104675779D01*
X136618905Y-104709999D01*
X136618920Y-104710000D01*
X136881080Y-104710000D01*
X136881094Y-104709999D01*
X137141009Y-104675779D01*
X137141020Y-104675777D01*
X137394255Y-104607924D01*
X137636471Y-104507595D01*
X137636482Y-104507590D01*
X137863516Y-104376511D01*
X137863534Y-104376499D01*
X137976365Y-104289919D01*
X137976365Y-104289917D01*
X137972935Y-104286487D01*
X137888583Y-104202135D01*
X143224500Y-104202135D01*
X143224500Y-105797870D01*
X143224501Y-105797876D01*
X143230908Y-105857483D01*
X143281202Y-105992328D01*
X143281206Y-105992335D01*
X143367452Y-106107544D01*
X143367455Y-106107547D01*
X143482664Y-106193793D01*
X143482671Y-106193797D01*
X143617517Y-106244091D01*
X143617516Y-106244091D01*
X143624444Y-106244835D01*
X143677127Y-106250500D01*
X144822872Y-106250499D01*
X144882483Y-106244091D01*
X144887744Y-106242129D01*
X144950987Y-106218540D01*
X145020679Y-106213554D01*
X145033325Y-106217014D01*
X145102158Y-106239824D01*
X145206659Y-106250500D01*
X145833340Y-106250499D01*
X145833348Y-106250498D01*
X145833351Y-106250498D01*
X145890572Y-106244652D01*
X145937842Y-106239824D01*
X146107153Y-106183720D01*
X146107153Y-106183719D01*
X146114009Y-106181448D01*
X146114850Y-106183988D01*
X146171650Y-106175350D01*
X146195674Y-106182404D01*
X146195991Y-106181448D01*
X146202846Y-106183719D01*
X146202847Y-106183720D01*
X146372158Y-106239824D01*
X146476659Y-106250500D01*
X147103340Y-106250499D01*
X147103348Y-106250498D01*
X147103351Y-106250498D01*
X147160572Y-106244652D01*
X147207842Y-106239824D01*
X147377153Y-106183720D01*
X147528961Y-106090083D01*
X147655083Y-105963961D01*
X147748720Y-105812153D01*
X147804824Y-105642842D01*
X147815500Y-105538341D01*
X147815499Y-105013513D01*
X148741500Y-105013513D01*
X148741500Y-105202486D01*
X148771059Y-105389118D01*
X148829454Y-105568836D01*
X148890783Y-105689199D01*
X148915240Y-105737199D01*
X149026310Y-105890073D01*
X149159927Y-106023690D01*
X149312801Y-106134760D01*
X149386962Y-106172547D01*
X149481163Y-106220545D01*
X149481165Y-106220545D01*
X149481168Y-106220547D01*
X149553629Y-106244091D01*
X149660881Y-106278940D01*
X149847514Y-106308500D01*
X149847519Y-106308500D01*
X150036486Y-106308500D01*
X150223118Y-106278940D01*
X150402832Y-106220547D01*
X150571199Y-106134760D01*
X150724073Y-106023690D01*
X150857690Y-105890073D01*
X150968760Y-105737199D01*
X151054547Y-105568832D01*
X151110867Y-105395498D01*
X151150305Y-105337823D01*
X151214664Y-105310625D01*
X151283510Y-105322540D01*
X151334986Y-105369784D01*
X151346729Y-105395498D01*
X151387454Y-105520836D01*
X151449616Y-105642835D01*
X151473240Y-105689199D01*
X151584310Y-105842073D01*
X151717927Y-105975690D01*
X151870801Y-106086760D01*
X151911592Y-106107544D01*
X152039163Y-106172545D01*
X152039165Y-106172545D01*
X152039168Y-106172547D01*
X152133766Y-106203284D01*
X152218881Y-106230940D01*
X152405514Y-106260500D01*
X152405519Y-106260500D01*
X152594486Y-106260500D01*
X152781118Y-106230940D01*
X152834626Y-106213554D01*
X152960832Y-106172547D01*
X153129199Y-106086760D01*
X153282073Y-105975690D01*
X153415690Y-105842073D01*
X153526760Y-105689199D01*
X153612547Y-105520832D01*
X153670940Y-105341118D01*
X153671462Y-105337823D01*
X153700500Y-105154486D01*
X153700500Y-104965513D01*
X153670940Y-104778881D01*
X153628143Y-104647168D01*
X153612547Y-104599168D01*
X153612545Y-104599165D01*
X153612545Y-104599163D01*
X153551217Y-104478801D01*
X153526760Y-104430801D01*
X153415690Y-104277927D01*
X153282073Y-104144310D01*
X153129199Y-104033240D01*
X153079017Y-104007671D01*
X152960836Y-103947454D01*
X152781118Y-103889059D01*
X152594486Y-103859500D01*
X152594481Y-103859500D01*
X152405519Y-103859500D01*
X152405514Y-103859500D01*
X152218881Y-103889059D01*
X152039163Y-103947454D01*
X151870800Y-104033240D01*
X151804735Y-104081240D01*
X151717927Y-104144310D01*
X151717925Y-104144312D01*
X151717924Y-104144312D01*
X151584312Y-104277924D01*
X151584312Y-104277925D01*
X151584310Y-104277927D01*
X151549438Y-104325924D01*
X151473240Y-104430800D01*
X151387455Y-104599162D01*
X151331132Y-104772502D01*
X151291693Y-104830176D01*
X151227334Y-104857374D01*
X151158488Y-104845459D01*
X151107013Y-104798214D01*
X151095271Y-104772504D01*
X151054547Y-104647168D01*
X150968760Y-104478801D01*
X150857690Y-104325927D01*
X150724073Y-104192310D01*
X150571199Y-104081240D01*
X150402836Y-103995454D01*
X150223118Y-103937059D01*
X150036486Y-103907500D01*
X150036481Y-103907500D01*
X149847519Y-103907500D01*
X149847514Y-103907500D01*
X149660881Y-103937059D01*
X149481163Y-103995454D01*
X149312800Y-104081240D01*
X149228461Y-104142517D01*
X149159927Y-104192310D01*
X149159925Y-104192312D01*
X149159924Y-104192312D01*
X149026312Y-104325924D01*
X149026312Y-104325925D01*
X149026310Y-104325927D01*
X148978610Y-104391579D01*
X148915240Y-104478800D01*
X148829454Y-104647163D01*
X148771059Y-104826881D01*
X148741500Y-105013513D01*
X147815499Y-105013513D01*
X147815499Y-104965519D01*
X147815499Y-104461666D01*
X147815498Y-104461648D01*
X147804824Y-104357158D01*
X147804823Y-104357155D01*
X147782543Y-104289918D01*
X147748720Y-104187847D01*
X147748716Y-104187841D01*
X147748715Y-104187838D01*
X147655085Y-104036042D01*
X147655082Y-104036038D01*
X147528961Y-103909917D01*
X147528957Y-103909914D01*
X147377161Y-103816284D01*
X147377155Y-103816281D01*
X147377153Y-103816280D01*
X147207842Y-103760176D01*
X147207835Y-103760175D01*
X147103342Y-103749500D01*
X146476666Y-103749500D01*
X146476648Y-103749501D01*
X146372158Y-103760175D01*
X146372155Y-103760176D01*
X146261890Y-103796715D01*
X146202847Y-103816280D01*
X146202845Y-103816280D01*
X146195992Y-103818552D01*
X146195154Y-103816024D01*
X146138275Y-103824639D01*
X146114321Y-103817605D01*
X146114008Y-103818552D01*
X146107154Y-103816281D01*
X146107153Y-103816280D01*
X145937842Y-103760176D01*
X145937835Y-103760175D01*
X145833342Y-103749500D01*
X145206666Y-103749500D01*
X145206648Y-103749501D01*
X145102158Y-103760175D01*
X145102152Y-103760177D01*
X145033325Y-103782984D01*
X144963497Y-103785386D01*
X144950988Y-103781460D01*
X144882484Y-103755909D01*
X144882480Y-103755908D01*
X144822883Y-103749501D01*
X144822881Y-103749500D01*
X144822873Y-103749500D01*
X144822864Y-103749500D01*
X143677129Y-103749500D01*
X143677123Y-103749501D01*
X143617516Y-103755908D01*
X143482671Y-103806202D01*
X143482664Y-103806206D01*
X143367455Y-103892452D01*
X143367452Y-103892455D01*
X143281206Y-104007664D01*
X143281202Y-104007671D01*
X143230908Y-104142517D01*
X143224501Y-104202116D01*
X143224500Y-104202135D01*
X137888583Y-104202135D01*
X137081679Y-103395231D01*
X137109995Y-103383503D01*
X137234472Y-103300330D01*
X137340330Y-103194472D01*
X137423503Y-103069995D01*
X137435231Y-103041679D01*
X138329917Y-103936365D01*
X138329919Y-103936365D01*
X138416499Y-103823534D01*
X138416511Y-103823516D01*
X138547590Y-103596482D01*
X138547595Y-103596471D01*
X138647924Y-103354255D01*
X138715777Y-103101020D01*
X138715779Y-103101009D01*
X138749999Y-102841094D01*
X138750000Y-102841080D01*
X138750000Y-102578919D01*
X138749999Y-102578905D01*
X138715779Y-102318990D01*
X138715777Y-102318979D01*
X138647924Y-102065744D01*
X138547595Y-101823528D01*
X138547590Y-101823517D01*
X138416511Y-101596483D01*
X138416505Y-101596475D01*
X138329918Y-101483633D01*
X138329917Y-101483633D01*
X137435231Y-102378320D01*
X137423503Y-102350005D01*
X137340330Y-102225528D01*
X137234472Y-102119670D01*
X137109995Y-102036497D01*
X137081677Y-102024767D01*
X137976365Y-101130080D01*
X137863524Y-101043494D01*
X137863516Y-101043488D01*
X137636482Y-100912409D01*
X137636471Y-100912404D01*
X137394255Y-100812075D01*
X137141020Y-100744222D01*
X137141009Y-100744220D01*
X136881094Y-100710000D01*
X136618905Y-100710000D01*
X136358990Y-100744220D01*
X136358979Y-100744222D01*
X136105744Y-100812075D01*
X135863528Y-100912404D01*
X135863517Y-100912409D01*
X135636471Y-101043496D01*
X135523633Y-101130079D01*
X135523633Y-101130080D01*
X136418321Y-102024768D01*
X136390005Y-102036497D01*
X136265528Y-102119670D01*
X136159670Y-102225528D01*
X136076497Y-102350005D01*
X136064768Y-102378321D01*
X135170080Y-101483633D01*
X135170079Y-101483633D01*
X135083496Y-101596471D01*
X134952409Y-101823517D01*
X134952404Y-101823528D01*
X134852075Y-102065744D01*
X134784222Y-102318979D01*
X134784220Y-102318990D01*
X134750000Y-102578905D01*
X132750500Y-102578905D01*
X132750500Y-95938905D01*
X134750000Y-95938905D01*
X134750000Y-96201094D01*
X134784220Y-96461009D01*
X134784222Y-96461020D01*
X134852075Y-96714255D01*
X134952404Y-96956471D01*
X134952409Y-96956482D01*
X135083488Y-97183516D01*
X135083494Y-97183524D01*
X135170080Y-97296365D01*
X136064767Y-96401677D01*
X136076497Y-96429995D01*
X136159670Y-96554472D01*
X136265528Y-96660330D01*
X136390005Y-96743503D01*
X136418320Y-96755231D01*
X135523633Y-97649917D01*
X135523633Y-97649918D01*
X135636475Y-97736505D01*
X135636483Y-97736511D01*
X135863517Y-97867590D01*
X135863528Y-97867595D01*
X136105744Y-97967924D01*
X136358979Y-98035777D01*
X136358990Y-98035779D01*
X136618905Y-98069999D01*
X136618920Y-98070000D01*
X136881080Y-98070000D01*
X136881094Y-98069999D01*
X137141009Y-98035779D01*
X137141020Y-98035777D01*
X137394255Y-97967924D01*
X137636471Y-97867595D01*
X137636482Y-97867590D01*
X137863516Y-97736511D01*
X137863534Y-97736499D01*
X137976365Y-97649919D01*
X137976365Y-97649917D01*
X137719961Y-97393513D01*
X148741500Y-97393513D01*
X148741500Y-97582486D01*
X148771059Y-97769118D01*
X148829454Y-97948836D01*
X148890651Y-98068940D01*
X148915240Y-98117199D01*
X149026310Y-98270073D01*
X149159927Y-98403690D01*
X149312801Y-98514760D01*
X149386056Y-98552085D01*
X149481163Y-98600545D01*
X149481165Y-98600545D01*
X149481168Y-98600547D01*
X149526761Y-98615361D01*
X149660881Y-98658940D01*
X149847514Y-98688500D01*
X149847519Y-98688500D01*
X150036486Y-98688500D01*
X150223118Y-98658940D01*
X150402832Y-98600547D01*
X150571199Y-98514760D01*
X150724073Y-98403690D01*
X150857690Y-98270073D01*
X150968760Y-98117199D01*
X151054547Y-97948832D01*
X151111130Y-97774689D01*
X151150568Y-97717014D01*
X151214927Y-97689816D01*
X151283773Y-97701731D01*
X151335249Y-97748975D01*
X151346992Y-97774690D01*
X151387914Y-97900637D01*
X151473670Y-98068940D01*
X151584685Y-98221741D01*
X151584689Y-98221746D01*
X151718253Y-98355310D01*
X151718258Y-98355314D01*
X151871059Y-98466329D01*
X152039362Y-98552085D01*
X152218997Y-98610451D01*
X152250000Y-98615362D01*
X152250000Y-98615361D01*
X152750000Y-98615361D01*
X152781002Y-98610451D01*
X152960637Y-98552085D01*
X153128940Y-98466329D01*
X153281741Y-98355314D01*
X153281746Y-98355310D01*
X153415310Y-98221746D01*
X153415314Y-98221741D01*
X153526329Y-98068940D01*
X153612085Y-97900637D01*
X153670451Y-97721002D01*
X153675362Y-97690000D01*
X152750000Y-97690000D01*
X152750000Y-98615361D01*
X152250000Y-98615361D01*
X152250000Y-97684975D01*
X152285095Y-97720070D01*
X152364905Y-97766148D01*
X152453922Y-97790000D01*
X152546078Y-97790000D01*
X152635095Y-97766148D01*
X152714905Y-97720070D01*
X152780070Y-97654905D01*
X152826148Y-97575095D01*
X152850000Y-97486078D01*
X152850000Y-97393922D01*
X152826148Y-97304905D01*
X152780070Y-97225095D01*
X152744975Y-97190000D01*
X152750000Y-97190000D01*
X153675362Y-97190000D01*
X153670451Y-97158997D01*
X153612085Y-96979362D01*
X153526329Y-96811059D01*
X153415314Y-96658258D01*
X153415310Y-96658253D01*
X153281746Y-96524689D01*
X153281741Y-96524685D01*
X153128940Y-96413670D01*
X152960635Y-96327913D01*
X152781004Y-96269549D01*
X152780995Y-96269547D01*
X152750000Y-96264637D01*
X152750000Y-97190000D01*
X152744975Y-97190000D01*
X152714905Y-97159930D01*
X152635095Y-97113852D01*
X152546078Y-97090000D01*
X152453922Y-97090000D01*
X152364905Y-97113852D01*
X152285095Y-97159930D01*
X152250000Y-97195025D01*
X152250000Y-96264637D01*
X152249999Y-96264637D01*
X152219004Y-96269547D01*
X152218995Y-96269549D01*
X152039364Y-96327913D01*
X151871059Y-96413670D01*
X151718258Y-96524685D01*
X151718253Y-96524689D01*
X151584689Y-96658253D01*
X151584685Y-96658258D01*
X151473670Y-96811059D01*
X151387914Y-96979363D01*
X151331395Y-97153310D01*
X151291957Y-97210986D01*
X151227599Y-97238184D01*
X151158752Y-97226269D01*
X151107277Y-97179025D01*
X151095533Y-97153310D01*
X151054547Y-97027168D01*
X150968760Y-96858801D01*
X150857690Y-96705927D01*
X150724073Y-96572310D01*
X150571199Y-96461240D01*
X150570746Y-96461009D01*
X150402836Y-96375454D01*
X150223118Y-96317059D01*
X150036486Y-96287500D01*
X150036481Y-96287500D01*
X149847519Y-96287500D01*
X149847514Y-96287500D01*
X149660881Y-96317059D01*
X149481163Y-96375454D01*
X149312800Y-96461240D01*
X149225579Y-96524610D01*
X149159927Y-96572310D01*
X149159925Y-96572312D01*
X149159924Y-96572312D01*
X149026312Y-96705924D01*
X149026312Y-96705925D01*
X149026310Y-96705927D01*
X148978610Y-96771579D01*
X148915240Y-96858800D01*
X148829454Y-97027163D01*
X148771059Y-97206881D01*
X148741500Y-97393513D01*
X137719961Y-97393513D01*
X137081679Y-96755231D01*
X137109995Y-96743503D01*
X137234472Y-96660330D01*
X137340330Y-96554472D01*
X137423503Y-96429995D01*
X137435231Y-96401679D01*
X138329917Y-97296365D01*
X138329920Y-97296365D01*
X138416499Y-97183534D01*
X138416511Y-97183516D01*
X138547590Y-96956482D01*
X138547595Y-96956471D01*
X138647924Y-96714255D01*
X138715777Y-96461020D01*
X138715779Y-96461009D01*
X138749999Y-96201094D01*
X138750000Y-96201080D01*
X138750000Y-95938919D01*
X138749999Y-95938905D01*
X138715779Y-95678990D01*
X138715777Y-95678979D01*
X138647924Y-95425744D01*
X138547595Y-95183528D01*
X138547590Y-95183517D01*
X138416511Y-94956483D01*
X138416505Y-94956475D01*
X138329918Y-94843633D01*
X138329917Y-94843633D01*
X137435231Y-95738320D01*
X137423503Y-95710005D01*
X137340330Y-95585528D01*
X137234472Y-95479670D01*
X137109995Y-95396497D01*
X137081677Y-95384767D01*
X137976365Y-94490080D01*
X137863524Y-94403494D01*
X137863516Y-94403488D01*
X137636482Y-94272409D01*
X137636471Y-94272404D01*
X137394255Y-94172075D01*
X137141020Y-94104222D01*
X137141009Y-94104220D01*
X136881094Y-94070000D01*
X136618905Y-94070000D01*
X136358990Y-94104220D01*
X136358979Y-94104222D01*
X136105744Y-94172075D01*
X135863528Y-94272404D01*
X135863517Y-94272409D01*
X135636471Y-94403496D01*
X135523633Y-94490079D01*
X135523633Y-94490080D01*
X136418321Y-95384768D01*
X136390005Y-95396497D01*
X136265528Y-95479670D01*
X136159670Y-95585528D01*
X136076497Y-95710005D01*
X136064768Y-95738321D01*
X135170080Y-94843633D01*
X135170079Y-94843633D01*
X135083496Y-94956471D01*
X134952409Y-95183517D01*
X134952404Y-95183528D01*
X134852075Y-95425744D01*
X134784222Y-95678979D01*
X134784220Y-95678990D01*
X134750000Y-95938905D01*
X132750500Y-95938905D01*
X132750500Y-90858872D01*
X134749500Y-90858872D01*
X134749500Y-91121127D01*
X134776123Y-91323339D01*
X134783730Y-91381116D01*
X134851602Y-91634418D01*
X134851605Y-91634428D01*
X134951953Y-91876690D01*
X134951958Y-91876700D01*
X135083075Y-92103803D01*
X135242718Y-92311851D01*
X135242726Y-92311860D01*
X135428140Y-92497274D01*
X135428148Y-92497281D01*
X135636196Y-92656924D01*
X135863299Y-92788041D01*
X135863309Y-92788046D01*
X136105571Y-92888394D01*
X136105581Y-92888398D01*
X136358884Y-92956270D01*
X136618880Y-92990500D01*
X136618887Y-92990500D01*
X136881113Y-92990500D01*
X136881120Y-92990500D01*
X137141116Y-92956270D01*
X137394419Y-92888398D01*
X137636697Y-92788043D01*
X137863803Y-92656924D01*
X138071851Y-92497282D01*
X138071855Y-92497277D01*
X138071860Y-92497274D01*
X138257274Y-92311860D01*
X138257277Y-92311855D01*
X138257282Y-92311851D01*
X138416924Y-92103803D01*
X138548043Y-91876697D01*
X138648398Y-91634419D01*
X138716270Y-91381116D01*
X138750500Y-91121120D01*
X138750500Y-90858880D01*
X138716270Y-90598884D01*
X138648398Y-90345581D01*
X138648394Y-90345571D01*
X138548046Y-90103309D01*
X138548041Y-90103299D01*
X138416924Y-89876196D01*
X138257281Y-89668148D01*
X138257274Y-89668140D01*
X138071860Y-89482726D01*
X138071851Y-89482718D01*
X137863803Y-89323075D01*
X137636700Y-89191958D01*
X137636690Y-89191953D01*
X137394428Y-89091605D01*
X137394421Y-89091603D01*
X137394419Y-89091602D01*
X137141116Y-89023730D01*
X137083339Y-89016123D01*
X136881127Y-88989500D01*
X136881120Y-88989500D01*
X136618880Y-88989500D01*
X136618872Y-88989500D01*
X136387772Y-89019926D01*
X136358884Y-89023730D01*
X136105581Y-89091602D01*
X136105571Y-89091605D01*
X135863309Y-89191953D01*
X135863299Y-89191958D01*
X135636196Y-89323075D01*
X135428148Y-89482718D01*
X135242718Y-89668148D01*
X135083075Y-89876196D01*
X134951958Y-90103299D01*
X134951953Y-90103309D01*
X134851605Y-90345571D01*
X134851602Y-90345581D01*
X134783730Y-90598885D01*
X134749500Y-90858872D01*
X132750500Y-90858872D01*
X132750500Y-85778872D01*
X134749500Y-85778872D01*
X134749500Y-86041127D01*
X134759634Y-86118097D01*
X134783730Y-86301116D01*
X134851602Y-86554418D01*
X134851605Y-86554428D01*
X134951953Y-86796690D01*
X134951958Y-86796700D01*
X135083075Y-87023803D01*
X135242718Y-87231851D01*
X135242726Y-87231860D01*
X135428140Y-87417274D01*
X135428148Y-87417281D01*
X135636196Y-87576924D01*
X135863299Y-87708041D01*
X135863309Y-87708046D01*
X136073042Y-87794920D01*
X136105581Y-87808398D01*
X136358884Y-87876270D01*
X136618880Y-87910500D01*
X136618887Y-87910500D01*
X136881113Y-87910500D01*
X136881120Y-87910500D01*
X137141116Y-87876270D01*
X137394419Y-87808398D01*
X137571340Y-87735114D01*
X137636690Y-87708046D01*
X137636691Y-87708045D01*
X137636697Y-87708043D01*
X137863803Y-87576924D01*
X138071851Y-87417282D01*
X138071855Y-87417277D01*
X138071860Y-87417274D01*
X138257274Y-87231860D01*
X138257277Y-87231855D01*
X138257282Y-87231851D01*
X138416924Y-87023803D01*
X138548043Y-86796697D01*
X138552295Y-86786433D01*
X138648394Y-86554428D01*
X138648398Y-86554419D01*
X138716270Y-86301116D01*
X138750500Y-86041120D01*
X138750500Y-85778880D01*
X138716270Y-85518884D01*
X138648398Y-85265581D01*
X138610878Y-85175000D01*
X138548046Y-85023309D01*
X138548041Y-85023299D01*
X138416924Y-84796196D01*
X138257281Y-84588148D01*
X138257274Y-84588140D01*
X138071860Y-84402726D01*
X138071851Y-84402718D01*
X137863803Y-84243075D01*
X137636700Y-84111958D01*
X137636690Y-84111953D01*
X137394428Y-84011605D01*
X137394421Y-84011603D01*
X137394419Y-84011602D01*
X137141116Y-83943730D01*
X137083339Y-83936123D01*
X136881127Y-83909500D01*
X136881120Y-83909500D01*
X136618880Y-83909500D01*
X136618872Y-83909500D01*
X136387772Y-83939926D01*
X136358884Y-83943730D01*
X136105581Y-84011602D01*
X136105571Y-84011605D01*
X135863309Y-84111953D01*
X135863299Y-84111958D01*
X135636196Y-84243075D01*
X135428148Y-84402718D01*
X135242718Y-84588148D01*
X135083075Y-84796196D01*
X134951958Y-85023299D01*
X134951953Y-85023309D01*
X134851605Y-85265571D01*
X134851603Y-85265578D01*
X134851602Y-85265581D01*
X134788824Y-85499875D01*
X134783730Y-85518885D01*
X134749500Y-85778872D01*
X132750500Y-85778872D01*
X132750500Y-80698872D01*
X134749500Y-80698872D01*
X134749500Y-80961127D01*
X134776123Y-81163339D01*
X134783730Y-81221116D01*
X134851602Y-81474418D01*
X134851605Y-81474428D01*
X134951953Y-81716690D01*
X134951958Y-81716700D01*
X135083075Y-81943803D01*
X135242718Y-82151851D01*
X135242726Y-82151860D01*
X135428140Y-82337274D01*
X135428148Y-82337281D01*
X135636196Y-82496924D01*
X135863299Y-82628041D01*
X135863309Y-82628046D01*
X136073042Y-82714920D01*
X136105581Y-82728398D01*
X136358884Y-82796270D01*
X136618880Y-82830500D01*
X136618887Y-82830500D01*
X136881113Y-82830500D01*
X136881120Y-82830500D01*
X137141116Y-82796270D01*
X137394419Y-82728398D01*
X137571340Y-82655114D01*
X137636690Y-82628046D01*
X137636691Y-82628045D01*
X137636697Y-82628043D01*
X137863803Y-82496924D01*
X138071851Y-82337282D01*
X138071855Y-82337277D01*
X138071860Y-82337274D01*
X138257274Y-82151860D01*
X138257277Y-82151855D01*
X138257282Y-82151851D01*
X138416924Y-81943803D01*
X138548043Y-81716697D01*
X138648398Y-81474419D01*
X138716270Y-81221116D01*
X138750500Y-80961120D01*
X138750500Y-80698880D01*
X138716270Y-80438884D01*
X138648398Y-80185581D01*
X138610878Y-80095000D01*
X138548046Y-79943309D01*
X138548041Y-79943299D01*
X138416924Y-79716196D01*
X138294424Y-79556554D01*
X138257282Y-79508149D01*
X138257281Y-79508148D01*
X138257274Y-79508140D01*
X138071860Y-79322726D01*
X138071851Y-79322718D01*
X137863803Y-79163075D01*
X137636700Y-79031958D01*
X137636690Y-79031953D01*
X137394428Y-78931605D01*
X137394421Y-78931603D01*
X137394419Y-78931602D01*
X137141116Y-78863730D01*
X137083339Y-78856123D01*
X136881127Y-78829500D01*
X136881120Y-78829500D01*
X136618880Y-78829500D01*
X136618872Y-78829500D01*
X136387772Y-78859926D01*
X136358884Y-78863730D01*
X136105581Y-78931602D01*
X136105571Y-78931605D01*
X135863309Y-79031953D01*
X135863299Y-79031958D01*
X135636196Y-79163075D01*
X135428148Y-79322718D01*
X135242718Y-79508148D01*
X135083075Y-79716196D01*
X134951958Y-79943299D01*
X134951953Y-79943309D01*
X134851605Y-80185571D01*
X134851603Y-80185578D01*
X134851602Y-80185581D01*
X134788824Y-80419875D01*
X134783730Y-80438885D01*
X134749500Y-80698872D01*
X132750500Y-80698872D01*
X132750500Y-75618872D01*
X134749500Y-75618872D01*
X134749500Y-75881127D01*
X134776123Y-76083339D01*
X134783730Y-76141116D01*
X134851602Y-76394418D01*
X134851605Y-76394428D01*
X134951953Y-76636690D01*
X134951958Y-76636700D01*
X135083075Y-76863803D01*
X135242718Y-77071851D01*
X135242726Y-77071860D01*
X135428140Y-77257274D01*
X135428148Y-77257281D01*
X135636196Y-77416924D01*
X135863299Y-77548041D01*
X135863309Y-77548046D01*
X136073042Y-77634920D01*
X136105581Y-77648398D01*
X136358884Y-77716270D01*
X136618880Y-77750500D01*
X136618887Y-77750500D01*
X136881113Y-77750500D01*
X136881120Y-77750500D01*
X137141116Y-77716270D01*
X137394419Y-77648398D01*
X137571340Y-77575114D01*
X137636690Y-77548046D01*
X137636691Y-77548045D01*
X137636697Y-77548043D01*
X137863803Y-77416924D01*
X138071851Y-77257282D01*
X138071855Y-77257277D01*
X138071860Y-77257274D01*
X138257274Y-77071860D01*
X138257277Y-77071855D01*
X138257282Y-77071851D01*
X138416924Y-76863803D01*
X138548043Y-76636697D01*
X138648398Y-76394419D01*
X138716270Y-76141116D01*
X138750500Y-75881120D01*
X138750500Y-75618880D01*
X138716270Y-75358884D01*
X138648398Y-75105581D01*
X138610878Y-75015000D01*
X138548046Y-74863309D01*
X138548041Y-74863299D01*
X138416924Y-74636196D01*
X138257281Y-74428148D01*
X138257274Y-74428140D01*
X138071860Y-74242726D01*
X138071851Y-74242718D01*
X137863803Y-74083075D01*
X137636700Y-73951958D01*
X137636690Y-73951953D01*
X137394428Y-73851605D01*
X137394421Y-73851603D01*
X137394419Y-73851602D01*
X137141116Y-73783730D01*
X137083339Y-73776123D01*
X136881127Y-73749500D01*
X136881120Y-73749500D01*
X136618880Y-73749500D01*
X136618872Y-73749500D01*
X136387772Y-73779926D01*
X136358884Y-73783730D01*
X136121961Y-73847213D01*
X136105581Y-73851602D01*
X136105571Y-73851605D01*
X135863309Y-73951953D01*
X135863299Y-73951958D01*
X135636196Y-74083075D01*
X135428148Y-74242718D01*
X135242718Y-74428148D01*
X135083075Y-74636196D01*
X134951958Y-74863299D01*
X134951953Y-74863309D01*
X134851605Y-75105571D01*
X134851602Y-75105581D01*
X134810064Y-75260606D01*
X134783730Y-75358885D01*
X134749500Y-75618872D01*
X132750500Y-75618872D01*
X132750500Y-69122135D01*
X134749500Y-69122135D01*
X134749500Y-72217870D01*
X134749501Y-72217876D01*
X134755908Y-72277483D01*
X134806202Y-72412328D01*
X134806206Y-72412335D01*
X134892452Y-72527544D01*
X134892455Y-72527547D01*
X135007664Y-72613793D01*
X135007671Y-72613797D01*
X135142517Y-72664091D01*
X135142516Y-72664091D01*
X135149444Y-72664835D01*
X135202127Y-72670500D01*
X138297872Y-72670499D01*
X138357483Y-72664091D01*
X138492331Y-72613796D01*
X138607546Y-72527546D01*
X138693796Y-72412331D01*
X138744091Y-72277483D01*
X138750500Y-72217873D01*
X138750500Y-72027135D01*
X141474500Y-72027135D01*
X141474500Y-73722870D01*
X141474501Y-73722876D01*
X141480908Y-73782483D01*
X141531202Y-73917328D01*
X141531206Y-73917335D01*
X141617452Y-74032544D01*
X141617455Y-74032547D01*
X141732664Y-74118793D01*
X141732671Y-74118797D01*
X141777618Y-74135561D01*
X141867517Y-74169091D01*
X141904441Y-74173060D01*
X141968989Y-74199796D01*
X142008838Y-74257188D01*
X142011333Y-74327013D01*
X141975681Y-74387102D01*
X141964071Y-74396666D01*
X141927784Y-74423030D01*
X141783028Y-74567786D01*
X141662715Y-74733386D01*
X141569781Y-74915776D01*
X141506522Y-75110465D01*
X141474500Y-75312648D01*
X141474500Y-75517351D01*
X141506522Y-75719534D01*
X141569781Y-75914223D01*
X141662715Y-76096613D01*
X141783028Y-76262213D01*
X141927786Y-76406971D01*
X142082749Y-76519556D01*
X142093390Y-76527287D01*
X142165424Y-76563990D01*
X142186629Y-76574795D01*
X142237425Y-76622770D01*
X142254220Y-76690591D01*
X142231682Y-76756726D01*
X142186629Y-76795765D01*
X142093650Y-76843140D01*
X141928105Y-76963417D01*
X141928104Y-76963417D01*
X141783417Y-77108104D01*
X141783417Y-77108105D01*
X141663140Y-77273650D01*
X141570244Y-77455970D01*
X141507009Y-77650586D01*
X141498391Y-77705000D01*
X142859314Y-77705000D01*
X142854920Y-77709394D01*
X142802259Y-77800606D01*
X142775000Y-77902339D01*
X142775000Y-78007661D01*
X142802259Y-78109394D01*
X142854920Y-78200606D01*
X142859314Y-78205000D01*
X141498391Y-78205000D01*
X141507009Y-78259413D01*
X141570244Y-78454029D01*
X141663140Y-78636349D01*
X141783417Y-78801894D01*
X141783417Y-78801895D01*
X141928104Y-78946582D01*
X142093652Y-79066861D01*
X142186628Y-79114234D01*
X142237425Y-79162208D01*
X142254220Y-79230029D01*
X142231683Y-79296164D01*
X142186630Y-79335203D01*
X142093388Y-79382713D01*
X141927786Y-79503028D01*
X141783028Y-79647786D01*
X141662715Y-79813386D01*
X141569781Y-79995776D01*
X141506522Y-80190465D01*
X141474500Y-80392648D01*
X141474500Y-80597351D01*
X141506522Y-80799534D01*
X141569781Y-80994223D01*
X141662715Y-81176613D01*
X141783028Y-81342213D01*
X141927786Y-81486971D01*
X142082749Y-81599556D01*
X142093390Y-81607287D01*
X142165424Y-81643990D01*
X142186629Y-81654795D01*
X142237425Y-81702770D01*
X142254220Y-81770591D01*
X142231682Y-81836726D01*
X142186629Y-81875765D01*
X142093650Y-81923140D01*
X141928105Y-82043417D01*
X141928104Y-82043417D01*
X141783417Y-82188104D01*
X141783417Y-82188105D01*
X141663140Y-82353650D01*
X141570244Y-82535970D01*
X141507009Y-82730586D01*
X141498391Y-82785000D01*
X142859314Y-82785000D01*
X142854920Y-82789394D01*
X142802259Y-82880606D01*
X142775000Y-82982339D01*
X142775000Y-83087661D01*
X142802259Y-83189394D01*
X142854920Y-83280606D01*
X142859314Y-83285000D01*
X141498391Y-83285000D01*
X141507009Y-83339413D01*
X141570244Y-83534029D01*
X141663140Y-83716349D01*
X141783417Y-83881894D01*
X141783417Y-83881895D01*
X141928104Y-84026582D01*
X142093652Y-84146861D01*
X142186628Y-84194234D01*
X142237425Y-84242208D01*
X142254220Y-84310029D01*
X142231683Y-84376164D01*
X142186630Y-84415203D01*
X142093388Y-84462713D01*
X141927786Y-84583028D01*
X141783028Y-84727786D01*
X141662715Y-84893386D01*
X141569781Y-85075776D01*
X141506522Y-85270465D01*
X141474500Y-85472648D01*
X141474500Y-85677351D01*
X141506522Y-85879534D01*
X141569781Y-86074223D01*
X141662715Y-86256613D01*
X141783028Y-86422213D01*
X141927786Y-86566971D01*
X142082749Y-86679556D01*
X142093390Y-86687287D01*
X142165424Y-86723990D01*
X142186629Y-86734795D01*
X142237425Y-86782770D01*
X142254220Y-86850591D01*
X142231682Y-86916726D01*
X142186629Y-86955765D01*
X142093650Y-87003140D01*
X141928105Y-87123417D01*
X141928104Y-87123417D01*
X141783417Y-87268104D01*
X141783417Y-87268105D01*
X141663140Y-87433650D01*
X141570244Y-87615970D01*
X141507009Y-87810586D01*
X141498391Y-87865000D01*
X142859314Y-87865000D01*
X142854920Y-87869394D01*
X142802259Y-87960606D01*
X142775000Y-88062339D01*
X142775000Y-88167661D01*
X142802259Y-88269394D01*
X142854920Y-88360606D01*
X142859314Y-88365000D01*
X141498391Y-88365000D01*
X141507009Y-88419413D01*
X141570244Y-88614029D01*
X141663140Y-88796349D01*
X141783417Y-88961894D01*
X141783417Y-88961895D01*
X141928104Y-89106582D01*
X142093650Y-89226859D01*
X142275968Y-89319755D01*
X142470582Y-89382990D01*
X142672683Y-89415000D01*
X142925000Y-89415000D01*
X142925000Y-88430686D01*
X142929394Y-88435080D01*
X143020606Y-88487741D01*
X143122339Y-88515000D01*
X143227661Y-88515000D01*
X143329394Y-88487741D01*
X143420606Y-88435080D01*
X143425000Y-88430686D01*
X143425000Y-89415000D01*
X143677317Y-89415000D01*
X143879417Y-89382990D01*
X144074031Y-89319755D01*
X144256349Y-89226859D01*
X144421894Y-89106582D01*
X144421895Y-89106582D01*
X144566582Y-88961895D01*
X144566582Y-88961894D01*
X144686859Y-88796349D01*
X144779755Y-88614029D01*
X144842990Y-88419413D01*
X144851609Y-88365000D01*
X143490686Y-88365000D01*
X143495080Y-88360606D01*
X143547741Y-88269394D01*
X143575000Y-88167661D01*
X143575000Y-88062339D01*
X143547741Y-87960606D01*
X143495080Y-87869394D01*
X143490686Y-87865000D01*
X144851609Y-87865000D01*
X144842990Y-87810586D01*
X144779755Y-87615970D01*
X144686859Y-87433650D01*
X144566582Y-87268105D01*
X144566582Y-87268104D01*
X144421895Y-87123417D01*
X144256349Y-87003140D01*
X144163370Y-86955765D01*
X144112574Y-86907790D01*
X144095779Y-86839969D01*
X144118316Y-86773835D01*
X144163370Y-86734795D01*
X144164471Y-86734234D01*
X144256610Y-86687287D01*
X144277770Y-86671913D01*
X144422213Y-86566971D01*
X144422215Y-86566968D01*
X144422219Y-86566966D01*
X144566966Y-86422219D01*
X144566968Y-86422215D01*
X144566971Y-86422213D01*
X144619732Y-86349590D01*
X144687287Y-86256610D01*
X144780220Y-86074219D01*
X144843477Y-85879534D01*
X144875500Y-85677352D01*
X144875500Y-85472648D01*
X144867257Y-85420606D01*
X144843477Y-85270465D01*
X144780218Y-85075776D01*
X144687419Y-84893650D01*
X144687287Y-84893390D01*
X144616673Y-84796197D01*
X144566971Y-84727786D01*
X144422213Y-84583028D01*
X144256611Y-84462713D01*
X144163369Y-84415203D01*
X144112574Y-84367229D01*
X144095779Y-84299407D01*
X144118317Y-84233273D01*
X144163371Y-84194234D01*
X144256347Y-84146861D01*
X144421894Y-84026582D01*
X144421895Y-84026582D01*
X144566582Y-83881895D01*
X144566582Y-83881894D01*
X144686859Y-83716349D01*
X144779755Y-83534029D01*
X144842990Y-83339413D01*
X144851609Y-83285000D01*
X143490686Y-83285000D01*
X143495080Y-83280606D01*
X143547741Y-83189394D01*
X143575000Y-83087661D01*
X143575000Y-82982339D01*
X143547741Y-82880606D01*
X143495080Y-82789394D01*
X143490686Y-82785000D01*
X144851609Y-82785000D01*
X144842990Y-82730586D01*
X144779755Y-82535970D01*
X144686859Y-82353650D01*
X144566582Y-82188105D01*
X144566582Y-82188104D01*
X144421895Y-82043417D01*
X144256349Y-81923140D01*
X144163370Y-81875765D01*
X144112574Y-81827790D01*
X144095779Y-81759969D01*
X144118316Y-81693835D01*
X144163370Y-81654795D01*
X144164471Y-81654234D01*
X144256610Y-81607287D01*
X144415866Y-81491582D01*
X144422213Y-81486971D01*
X144422215Y-81486968D01*
X144422219Y-81486966D01*
X144566966Y-81342219D01*
X144566968Y-81342215D01*
X144566971Y-81342213D01*
X144619732Y-81269590D01*
X144687287Y-81176610D01*
X144780220Y-80994219D01*
X144843477Y-80799534D01*
X144875500Y-80597352D01*
X144875500Y-80392648D01*
X144853602Y-80254394D01*
X144843477Y-80190465D01*
X144780218Y-79995776D01*
X144746503Y-79929607D01*
X144687287Y-79813390D01*
X144616673Y-79716197D01*
X144566971Y-79647786D01*
X144422213Y-79503028D01*
X144256611Y-79382713D01*
X144163369Y-79335203D01*
X144112574Y-79287229D01*
X144095779Y-79219407D01*
X144118317Y-79153273D01*
X144163371Y-79114234D01*
X144256347Y-79066861D01*
X144421894Y-78946582D01*
X144421895Y-78946582D01*
X144566582Y-78801895D01*
X144566582Y-78801894D01*
X144686859Y-78636349D01*
X144779755Y-78454029D01*
X144842990Y-78259413D01*
X144851609Y-78205000D01*
X143490686Y-78205000D01*
X143495080Y-78200606D01*
X143547741Y-78109394D01*
X143575000Y-78007661D01*
X143575000Y-77902339D01*
X143547741Y-77800606D01*
X143495080Y-77709394D01*
X143490686Y-77705000D01*
X144851609Y-77705000D01*
X144842990Y-77650586D01*
X144779755Y-77455970D01*
X144686859Y-77273650D01*
X144566582Y-77108105D01*
X144566582Y-77108104D01*
X144421895Y-76963417D01*
X144256349Y-76843140D01*
X144163370Y-76795765D01*
X144112574Y-76747790D01*
X144095779Y-76679969D01*
X144118316Y-76613835D01*
X144163370Y-76574795D01*
X144164471Y-76574234D01*
X144256610Y-76527287D01*
X144277770Y-76511913D01*
X144422213Y-76406971D01*
X144422215Y-76406968D01*
X144422219Y-76406966D01*
X144566966Y-76262219D01*
X144566968Y-76262215D01*
X144566971Y-76262213D01*
X144619732Y-76189590D01*
X144687287Y-76096610D01*
X144780220Y-75914219D01*
X144843477Y-75719534D01*
X144875500Y-75517352D01*
X144875500Y-75312648D01*
X144867257Y-75260606D01*
X144843477Y-75110465D01*
X144780218Y-74915776D01*
X144687419Y-74733650D01*
X144687287Y-74733390D01*
X144616673Y-74636197D01*
X144566971Y-74567786D01*
X144422219Y-74423034D01*
X144385930Y-74396669D01*
X144343264Y-74341339D01*
X144337285Y-74271726D01*
X144369890Y-74209931D01*
X144430728Y-74175573D01*
X144445562Y-74173060D01*
X144482483Y-74169091D01*
X144617328Y-74118797D01*
X144617327Y-74118797D01*
X144617331Y-74118796D01*
X144732546Y-74032546D01*
X144818796Y-73917331D01*
X144869091Y-73782483D01*
X144875500Y-73722873D01*
X144875499Y-72772648D01*
X149094500Y-72772648D01*
X149094500Y-72977351D01*
X149126522Y-73179534D01*
X149189781Y-73374223D01*
X149282715Y-73556613D01*
X149403028Y-73722213D01*
X149547786Y-73866971D01*
X149664762Y-73951957D01*
X149713390Y-73987287D01*
X149785424Y-74023990D01*
X149806629Y-74034795D01*
X149857425Y-74082770D01*
X149874220Y-74150591D01*
X149851682Y-74216726D01*
X149806629Y-74255765D01*
X149713650Y-74303140D01*
X149548105Y-74423417D01*
X149548104Y-74423417D01*
X149403417Y-74568104D01*
X149403417Y-74568105D01*
X149283140Y-74733650D01*
X149190244Y-74915970D01*
X149127009Y-75110586D01*
X149118391Y-75165000D01*
X150479314Y-75165000D01*
X150474920Y-75169394D01*
X150422259Y-75260606D01*
X150395000Y-75362339D01*
X150395000Y-75467661D01*
X150422259Y-75569394D01*
X150474920Y-75660606D01*
X150479314Y-75665000D01*
X149118391Y-75665000D01*
X149127009Y-75719413D01*
X149190244Y-75914029D01*
X149283140Y-76096349D01*
X149403417Y-76261894D01*
X149403417Y-76261895D01*
X149548104Y-76406582D01*
X149713652Y-76526861D01*
X149806628Y-76574234D01*
X149857425Y-76622208D01*
X149874220Y-76690029D01*
X149851683Y-76756164D01*
X149806630Y-76795203D01*
X149713388Y-76842713D01*
X149547786Y-76963028D01*
X149403028Y-77107786D01*
X149282715Y-77273386D01*
X149189781Y-77455776D01*
X149126522Y-77650465D01*
X149094500Y-77852648D01*
X149094500Y-78057351D01*
X149126522Y-78259534D01*
X149189781Y-78454223D01*
X149282715Y-78636613D01*
X149403028Y-78802213D01*
X149547786Y-78946971D01*
X149664762Y-79031957D01*
X149713390Y-79067287D01*
X149785424Y-79103990D01*
X149806629Y-79114795D01*
X149857425Y-79162770D01*
X149874220Y-79230591D01*
X149851682Y-79296726D01*
X149806629Y-79335765D01*
X149713650Y-79383140D01*
X149548105Y-79503417D01*
X149548104Y-79503417D01*
X149403417Y-79648104D01*
X149403417Y-79648105D01*
X149283140Y-79813650D01*
X149190244Y-79995970D01*
X149127009Y-80190586D01*
X149118391Y-80245000D01*
X150479314Y-80245000D01*
X150474920Y-80249394D01*
X150422259Y-80340606D01*
X150395000Y-80442339D01*
X150395000Y-80547661D01*
X150422259Y-80649394D01*
X150474920Y-80740606D01*
X150479314Y-80745000D01*
X149118391Y-80745000D01*
X149127009Y-80799413D01*
X149190244Y-80994029D01*
X149283140Y-81176349D01*
X149403417Y-81341894D01*
X149403417Y-81341895D01*
X149548104Y-81486582D01*
X149713652Y-81606861D01*
X149806628Y-81654234D01*
X149857425Y-81702208D01*
X149874220Y-81770029D01*
X149851683Y-81836164D01*
X149806630Y-81875203D01*
X149713388Y-81922713D01*
X149547786Y-82043028D01*
X149403028Y-82187786D01*
X149282715Y-82353386D01*
X149189781Y-82535776D01*
X149126522Y-82730465D01*
X149094500Y-82932648D01*
X149094500Y-83137351D01*
X149126522Y-83339534D01*
X149189781Y-83534223D01*
X149282715Y-83716613D01*
X149403028Y-83882213D01*
X149547786Y-84026971D01*
X149664762Y-84111957D01*
X149713390Y-84147287D01*
X149785424Y-84183990D01*
X149806629Y-84194795D01*
X149857425Y-84242770D01*
X149874220Y-84310591D01*
X149851682Y-84376726D01*
X149806629Y-84415765D01*
X149713650Y-84463140D01*
X149548105Y-84583417D01*
X149548104Y-84583417D01*
X149403417Y-84728104D01*
X149403417Y-84728105D01*
X149283140Y-84893650D01*
X149190244Y-85075970D01*
X149127009Y-85270586D01*
X149118391Y-85325000D01*
X150479314Y-85325000D01*
X150474920Y-85329394D01*
X150422259Y-85420606D01*
X150395000Y-85522339D01*
X150395000Y-85627661D01*
X150422259Y-85729394D01*
X150474920Y-85820606D01*
X150479314Y-85825000D01*
X149118391Y-85825000D01*
X149127009Y-85879413D01*
X149190244Y-86074029D01*
X149283140Y-86256349D01*
X149403417Y-86421894D01*
X149403417Y-86421895D01*
X149548104Y-86566582D01*
X149713652Y-86686861D01*
X149806628Y-86734234D01*
X149857425Y-86782208D01*
X149874220Y-86850029D01*
X149851683Y-86916164D01*
X149806630Y-86955203D01*
X149713388Y-87002713D01*
X149547786Y-87123028D01*
X149403028Y-87267786D01*
X149282715Y-87433386D01*
X149189781Y-87615776D01*
X149126522Y-87810465D01*
X149094500Y-88012648D01*
X149094500Y-88217351D01*
X149126522Y-88419534D01*
X149189781Y-88614223D01*
X149282715Y-88796613D01*
X149403028Y-88962213D01*
X149547786Y-89106971D01*
X149664762Y-89191957D01*
X149713390Y-89227287D01*
X149829607Y-89286503D01*
X149895776Y-89320218D01*
X149895778Y-89320218D01*
X149895781Y-89320220D01*
X150000137Y-89354127D01*
X150090465Y-89383477D01*
X150191557Y-89399488D01*
X150292648Y-89415500D01*
X150292649Y-89415500D01*
X151297351Y-89415500D01*
X151297352Y-89415500D01*
X151499534Y-89383477D01*
X151694219Y-89320220D01*
X151876610Y-89227287D01*
X151969590Y-89159732D01*
X152042213Y-89106971D01*
X152042215Y-89106968D01*
X152042219Y-89106966D01*
X152186966Y-88962219D01*
X152186968Y-88962215D01*
X152186971Y-88962213D01*
X152239732Y-88889590D01*
X152307287Y-88796610D01*
X152400220Y-88614219D01*
X152463477Y-88419534D01*
X152495500Y-88217352D01*
X152495500Y-88012648D01*
X152475256Y-87884837D01*
X152463477Y-87810465D01*
X152400218Y-87615776D01*
X152341481Y-87500500D01*
X152307287Y-87433390D01*
X152295578Y-87417274D01*
X152186971Y-87267786D01*
X152042213Y-87123028D01*
X151876611Y-87002713D01*
X151783369Y-86955203D01*
X151732574Y-86907229D01*
X151715779Y-86839407D01*
X151738317Y-86773273D01*
X151783371Y-86734234D01*
X151876347Y-86686861D01*
X152041894Y-86566582D01*
X152041895Y-86566582D01*
X152186582Y-86421895D01*
X152186582Y-86421894D01*
X152306859Y-86256349D01*
X152399755Y-86074029D01*
X152462182Y-85881902D01*
X152999500Y-85881902D01*
X152999500Y-86118097D01*
X153036446Y-86351368D01*
X153109433Y-86575996D01*
X153190060Y-86734234D01*
X153216657Y-86786433D01*
X153355483Y-86977510D01*
X153522490Y-87144517D01*
X153713567Y-87283343D01*
X153812991Y-87334002D01*
X153924003Y-87390566D01*
X153924005Y-87390566D01*
X153924008Y-87390568D01*
X154006222Y-87417281D01*
X154148631Y-87463553D01*
X154381903Y-87500500D01*
X154381908Y-87500500D01*
X154618097Y-87500500D01*
X154851368Y-87463553D01*
X155075992Y-87390568D01*
X155286433Y-87283343D01*
X155477510Y-87144517D01*
X155644517Y-86977510D01*
X155783343Y-86786433D01*
X155890568Y-86575992D01*
X155963553Y-86351368D01*
X155971512Y-86301116D01*
X156000500Y-86118097D01*
X156000500Y-85881902D01*
X155963553Y-85648631D01*
X155922518Y-85522339D01*
X155890568Y-85424008D01*
X155890566Y-85424005D01*
X155890566Y-85424003D01*
X155834002Y-85312991D01*
X155783343Y-85213567D01*
X155644517Y-85022490D01*
X155477510Y-84855483D01*
X155286433Y-84716657D01*
X155075996Y-84609433D01*
X154851368Y-84536446D01*
X154618097Y-84499500D01*
X154618092Y-84499500D01*
X154381908Y-84499500D01*
X154381903Y-84499500D01*
X154148631Y-84536446D01*
X153924003Y-84609433D01*
X153713566Y-84716657D01*
X153604550Y-84795862D01*
X153522490Y-84855483D01*
X153522488Y-84855485D01*
X153522487Y-84855485D01*
X153355485Y-85022487D01*
X153355485Y-85022488D01*
X153355483Y-85022490D01*
X153295862Y-85104550D01*
X153216657Y-85213566D01*
X153109433Y-85424003D01*
X153036446Y-85648631D01*
X152999500Y-85881902D01*
X152462182Y-85881902D01*
X152462990Y-85879415D01*
X152466440Y-85857636D01*
X152466440Y-85857634D01*
X152471609Y-85825000D01*
X151110686Y-85825000D01*
X151115080Y-85820606D01*
X151167741Y-85729394D01*
X151195000Y-85627661D01*
X151195000Y-85522339D01*
X151167741Y-85420606D01*
X151115080Y-85329394D01*
X151110686Y-85325000D01*
X152471609Y-85325000D01*
X152462990Y-85270586D01*
X152399755Y-85075970D01*
X152306859Y-84893650D01*
X152186582Y-84728105D01*
X152186582Y-84728104D01*
X152041895Y-84583417D01*
X151876349Y-84463140D01*
X151783370Y-84415765D01*
X151732574Y-84367790D01*
X151715779Y-84299969D01*
X151738316Y-84233835D01*
X151783370Y-84194795D01*
X151784471Y-84194234D01*
X151876610Y-84147287D01*
X151925238Y-84111957D01*
X152042213Y-84026971D01*
X152042215Y-84026968D01*
X152042219Y-84026966D01*
X152186966Y-83882219D01*
X152186968Y-83882215D01*
X152186971Y-83882213D01*
X152239732Y-83809590D01*
X152307287Y-83716610D01*
X152400220Y-83534219D01*
X152463477Y-83339534D01*
X152495500Y-83137352D01*
X152495500Y-82932648D01*
X152475256Y-82804837D01*
X152463477Y-82730465D01*
X152400218Y-82535776D01*
X152307419Y-82353650D01*
X152307287Y-82353390D01*
X152295578Y-82337274D01*
X152186971Y-82187786D01*
X152042213Y-82043028D01*
X151876611Y-81922713D01*
X151783369Y-81875203D01*
X151732574Y-81827229D01*
X151715779Y-81759407D01*
X151738317Y-81693273D01*
X151783371Y-81654234D01*
X151876347Y-81606861D01*
X152041894Y-81486582D01*
X152041895Y-81486582D01*
X152186582Y-81341895D01*
X152186582Y-81341894D01*
X152306859Y-81176349D01*
X152399755Y-80994029D01*
X152462990Y-80799413D01*
X152471609Y-80745000D01*
X151110686Y-80745000D01*
X151115080Y-80740606D01*
X151167741Y-80649394D01*
X151195000Y-80547661D01*
X151195000Y-80442339D01*
X151167741Y-80340606D01*
X151115430Y-80250000D01*
X153223391Y-80250000D01*
X154184314Y-80250000D01*
X154179920Y-80254394D01*
X154127259Y-80345606D01*
X154100000Y-80447339D01*
X154100000Y-80552661D01*
X154127259Y-80654394D01*
X154179920Y-80745606D01*
X154184314Y-80750000D01*
X153223391Y-80750000D01*
X153232009Y-80804413D01*
X153295244Y-80999029D01*
X153388140Y-81181349D01*
X153508417Y-81346894D01*
X153508417Y-81346895D01*
X153653104Y-81491582D01*
X153818650Y-81611859D01*
X154000968Y-81704754D01*
X154195578Y-81767988D01*
X154250000Y-81776607D01*
X154250000Y-80815686D01*
X154254394Y-80820080D01*
X154345606Y-80872741D01*
X154447339Y-80900000D01*
X154552661Y-80900000D01*
X154654394Y-80872741D01*
X154745606Y-80820080D01*
X154750000Y-80815686D01*
X154750000Y-81776606D01*
X154804421Y-81767988D01*
X154999031Y-81704754D01*
X155181349Y-81611859D01*
X155346894Y-81491582D01*
X155346895Y-81491582D01*
X155491582Y-81346895D01*
X155491582Y-81346894D01*
X155611859Y-81181349D01*
X155704755Y-80999029D01*
X155767990Y-80804413D01*
X155776609Y-80750000D01*
X154815686Y-80750000D01*
X154820080Y-80745606D01*
X154872741Y-80654394D01*
X154900000Y-80552661D01*
X154900000Y-80447339D01*
X154872741Y-80345606D01*
X154820080Y-80254394D01*
X154815686Y-80250000D01*
X155776609Y-80250000D01*
X155767990Y-80195586D01*
X155704755Y-80000970D01*
X155611859Y-79818650D01*
X155491582Y-79653105D01*
X155491582Y-79653104D01*
X155346895Y-79508417D01*
X155181349Y-79388140D01*
X154999029Y-79295244D01*
X154804413Y-79232009D01*
X154750000Y-79223390D01*
X154750000Y-80184314D01*
X154745606Y-80179920D01*
X154654394Y-80127259D01*
X154552661Y-80100000D01*
X154447339Y-80100000D01*
X154345606Y-80127259D01*
X154254394Y-80179920D01*
X154250000Y-80184314D01*
X154250000Y-79223390D01*
X154195586Y-79232009D01*
X154000970Y-79295244D01*
X153818650Y-79388140D01*
X153653105Y-79508417D01*
X153653104Y-79508417D01*
X153508417Y-79653104D01*
X153508417Y-79653105D01*
X153388140Y-79818650D01*
X153295244Y-80000970D01*
X153232009Y-80195586D01*
X153223391Y-80250000D01*
X151115430Y-80250000D01*
X151115080Y-80249394D01*
X151110686Y-80245000D01*
X152471609Y-80245000D01*
X152462990Y-80190586D01*
X152399755Y-79995970D01*
X152306859Y-79813650D01*
X152186582Y-79648105D01*
X152186582Y-79648104D01*
X152041895Y-79503417D01*
X151876349Y-79383140D01*
X151783370Y-79335765D01*
X151732574Y-79287790D01*
X151715779Y-79219969D01*
X151738316Y-79153835D01*
X151783370Y-79114795D01*
X151784471Y-79114234D01*
X151876610Y-79067287D01*
X151925238Y-79031957D01*
X152042213Y-78946971D01*
X152042215Y-78946968D01*
X152042219Y-78946966D01*
X152186966Y-78802219D01*
X152186968Y-78802215D01*
X152186971Y-78802213D01*
X152239732Y-78729590D01*
X152307287Y-78636610D01*
X152400220Y-78454219D01*
X152463477Y-78259534D01*
X152495500Y-78057352D01*
X152495500Y-77852648D01*
X152475256Y-77724837D01*
X152463477Y-77650465D01*
X152400218Y-77455776D01*
X152307419Y-77273650D01*
X152307287Y-77273390D01*
X152295578Y-77257274D01*
X152186971Y-77107786D01*
X152042213Y-76963028D01*
X151876611Y-76842713D01*
X151783369Y-76795203D01*
X151732574Y-76747229D01*
X151715779Y-76679407D01*
X151738317Y-76613273D01*
X151783371Y-76574234D01*
X151876347Y-76526861D01*
X152041894Y-76406582D01*
X152041895Y-76406582D01*
X152186582Y-76261895D01*
X152186582Y-76261894D01*
X152306859Y-76096349D01*
X152399755Y-75914029D01*
X152462990Y-75719413D01*
X152471609Y-75665000D01*
X151110686Y-75665000D01*
X151115080Y-75660606D01*
X151167741Y-75569394D01*
X151195000Y-75467661D01*
X151195000Y-75362339D01*
X151167741Y-75260606D01*
X151115080Y-75169394D01*
X151110686Y-75165000D01*
X152471609Y-75165000D01*
X152462990Y-75110586D01*
X152399755Y-74915970D01*
X152306859Y-74733650D01*
X152186582Y-74568105D01*
X152186582Y-74568104D01*
X152041895Y-74423417D01*
X151876349Y-74303140D01*
X151783370Y-74255765D01*
X151732574Y-74207790D01*
X151715779Y-74139969D01*
X151738316Y-74073835D01*
X151783370Y-74034795D01*
X151787788Y-74032544D01*
X151876610Y-73987287D01*
X151925238Y-73951957D01*
X152042213Y-73866971D01*
X152042215Y-73866968D01*
X152042219Y-73866966D01*
X152186966Y-73722219D01*
X152186968Y-73722215D01*
X152186971Y-73722213D01*
X152239732Y-73649590D01*
X152307287Y-73556610D01*
X152400220Y-73374219D01*
X152463477Y-73179534D01*
X152495500Y-72977352D01*
X152495500Y-72897648D01*
X153199500Y-72897648D01*
X153199500Y-73102351D01*
X153231522Y-73304534D01*
X153294781Y-73499223D01*
X153387715Y-73681613D01*
X153508028Y-73847213D01*
X153652786Y-73991971D01*
X153778184Y-74083076D01*
X153818390Y-74112287D01*
X153893566Y-74150591D01*
X154000776Y-74205218D01*
X154000778Y-74205218D01*
X154000781Y-74205220D01*
X154105137Y-74239127D01*
X154195465Y-74268477D01*
X154296557Y-74284488D01*
X154397648Y-74300500D01*
X154397649Y-74300500D01*
X154602351Y-74300500D01*
X154602352Y-74300500D01*
X154804534Y-74268477D01*
X154999219Y-74205220D01*
X155181610Y-74112287D01*
X155274590Y-74044732D01*
X155347213Y-73991971D01*
X155347215Y-73991968D01*
X155347219Y-73991966D01*
X155491966Y-73847219D01*
X155491968Y-73847215D01*
X155491971Y-73847213D01*
X155562962Y-73749500D01*
X155612287Y-73681610D01*
X155705220Y-73499219D01*
X155768477Y-73304534D01*
X155800500Y-73102352D01*
X155800500Y-72897648D01*
X155768477Y-72695466D01*
X155760364Y-72670498D01*
X155705218Y-72500776D01*
X155641529Y-72375781D01*
X155612287Y-72318390D01*
X155582566Y-72277482D01*
X155491971Y-72152786D01*
X155347213Y-72008028D01*
X155181613Y-71887715D01*
X155181612Y-71887714D01*
X155181610Y-71887713D01*
X155124653Y-71858691D01*
X154999223Y-71794781D01*
X154804534Y-71731522D01*
X154629995Y-71703878D01*
X154602352Y-71699500D01*
X154397648Y-71699500D01*
X154373329Y-71703351D01*
X154195465Y-71731522D01*
X154000776Y-71794781D01*
X153818386Y-71887715D01*
X153652786Y-72008028D01*
X153508028Y-72152786D01*
X153387715Y-72318386D01*
X153294781Y-72500776D01*
X153231522Y-72695465D01*
X153199500Y-72897648D01*
X152495500Y-72897648D01*
X152495500Y-72772648D01*
X152470340Y-72613796D01*
X152463477Y-72570465D01*
X152400218Y-72375776D01*
X152366503Y-72309607D01*
X152307287Y-72193390D01*
X152277783Y-72152781D01*
X152186971Y-72027786D01*
X152042213Y-71883028D01*
X151876613Y-71762715D01*
X151876612Y-71762714D01*
X151876610Y-71762713D01*
X151815394Y-71731522D01*
X151694223Y-71669781D01*
X151499534Y-71606522D01*
X151324995Y-71578878D01*
X151297352Y-71574500D01*
X150292648Y-71574500D01*
X150268329Y-71578351D01*
X150090465Y-71606522D01*
X149895776Y-71669781D01*
X149713386Y-71762715D01*
X149547786Y-71883028D01*
X149403028Y-72027786D01*
X149282715Y-72193386D01*
X149189781Y-72375776D01*
X149126522Y-72570465D01*
X149094500Y-72772648D01*
X144875499Y-72772648D01*
X144875499Y-72027128D01*
X144869091Y-71967517D01*
X144818796Y-71832669D01*
X144818795Y-71832668D01*
X144818793Y-71832664D01*
X144732547Y-71717455D01*
X144732544Y-71717452D01*
X144617335Y-71631206D01*
X144617328Y-71631202D01*
X144482482Y-71580908D01*
X144482483Y-71580908D01*
X144422883Y-71574501D01*
X144422881Y-71574500D01*
X144422873Y-71574500D01*
X144422864Y-71574500D01*
X141927129Y-71574500D01*
X141927123Y-71574501D01*
X141867516Y-71580908D01*
X141732671Y-71631202D01*
X141732664Y-71631206D01*
X141617455Y-71717452D01*
X141617452Y-71717455D01*
X141531206Y-71832664D01*
X141531202Y-71832671D01*
X141480908Y-71967517D01*
X141474857Y-72023805D01*
X141474501Y-72027123D01*
X141474500Y-72027135D01*
X138750500Y-72027135D01*
X138750499Y-70644517D01*
X138750499Y-69122129D01*
X138750498Y-69122123D01*
X138750497Y-69122116D01*
X138744091Y-69062517D01*
X138693796Y-68927669D01*
X138693795Y-68927668D01*
X138693793Y-68927664D01*
X138607547Y-68812455D01*
X138607544Y-68812452D01*
X138492335Y-68726206D01*
X138492328Y-68726202D01*
X138357482Y-68675908D01*
X138357483Y-68675908D01*
X138297883Y-68669501D01*
X138297881Y-68669500D01*
X138297873Y-68669500D01*
X138297864Y-68669500D01*
X135202129Y-68669500D01*
X135202123Y-68669501D01*
X135142516Y-68675908D01*
X135007671Y-68726202D01*
X135007664Y-68726206D01*
X134892455Y-68812452D01*
X134892452Y-68812455D01*
X134806206Y-68927664D01*
X134806202Y-68927671D01*
X134755908Y-69062517D01*
X134749501Y-69122116D01*
X134749501Y-69122123D01*
X134749500Y-69122135D01*
X132750500Y-69122135D01*
X132750500Y-68124500D01*
X132770185Y-68057461D01*
X132822989Y-68011706D01*
X132874500Y-68000500D01*
X143129449Y-68000500D01*
X143196488Y-68020185D01*
G37*
G04 #@! TD.AperFunction*
M02*
